<?xml version="1.0" encoding="UTF-8"?>
<svg version="1.1" xmlns="http://www.w3.org/2000/svg" width="512" height="512">
<path d="M0 0 C1.77697266 -0.0076664 1.77697266 -0.0076664 3.58984375 -0.01548767 C6.82351688 -0.02696976 10.05703026 -0.02946291 13.29071832 -0.02692437 C15.9991442 -0.02585025 18.70754678 -0.03074943 21.41596764 -0.03552979 C27.81167214 -0.046605 34.20731791 -0.04707407 40.60302734 -0.04101562 C47.17922506 -0.03498149 53.75520852 -0.04727703 60.3313697 -0.06858569 C65.99617756 -0.08625968 71.66091758 -0.09219383 77.32575196 -0.08894795 C80.70074589 -0.08714363 84.07558708 -0.0896851 87.4505558 -0.10366249 C91.21980735 -0.11604997 94.98856833 -0.1092204 98.7578125 -0.09765625 C99.86100327 -0.10529999 100.96419403 -0.11294373 102.10081482 -0.12081909 C113.89097907 -0.04119058 122.18242461 2.76689441 130.76049805 10.8684082 C138.52217196 19.09578255 139.65927506 28.37033743 139.46362305 39.2824707 C139.45796326 40.4891037 139.45230347 41.69573669 139.44647217 42.93893433 C139.42423905 46.75959426 139.37406481 50.57928591 139.32299805 54.3996582 C139.30291627 57.00381124 139.28466846 59.60797911 139.26831055 62.2121582 C139.22441702 68.56665033 139.15763586 74.92058506 139.07299805 81.2746582 C140.0106003 81.27051013 140.0106003 81.27051013 140.96714401 81.26627827 C156.17348292 81.20003735 171.3797776 81.15038689 186.5862236 81.11922169 C193.93994069 81.10374999 201.2935615 81.0826548 208.6472168 81.04833984 C215.05635303 81.01844662 221.46541953 80.99908539 227.87462354 80.99239272 C231.2685619 80.98848029 234.66230078 80.97927954 238.05617523 80.95746803 C241.84413098 80.93577024 245.63167009 80.93268814 249.41967773 80.93408203 C250.54608673 80.9232962 251.67249573 80.91251038 252.83303833 80.90139771 C254.38107651 80.90758369 254.38107651 80.90758369 255.96038818 80.91389465 C256.85637096 80.91112927 257.75235374 80.9083639 258.67548752 80.90551472 C261.59338458 81.35478186 262.94865112 82.25037576 265.07299805 84.2746582 C266.23679685 87.84364121 266.38220242 89.55860597 264.88549805 93.0246582 C262.95754914 95.41797408 261.8862598 96.15727345 259.07299805 97.2746582 C256.70672226 97.52075386 256.70672226 97.52075386 254.03631592 97.51516724 C253.02111877 97.51791656 252.00592163 97.52066589 250.95996094 97.52349854 C249.85225342 97.51630798 248.7445459 97.50911743 247.60327148 97.50170898 C246.43225891 97.50200104 245.26124634 97.50229309 244.05474854 97.50259399 C240.18054824 97.50119962 236.30653978 97.48563307 232.43237305 97.4699707 C229.74766141 97.46513062 227.06294998 97.46329543 224.37823486 97.46139526 C218.03179363 97.45518086 211.68542136 97.4387706 205.33901048 97.41869628 C198.11294642 97.39633604 190.88687906 97.38534354 183.66078901 97.37530541 C168.79815379 97.35440432 153.93558294 97.31882591 139.07299805 97.2746582 C139.07299805 103.8746582 139.07299805 110.4746582 139.07299805 117.2746582 C222.56299805 117.2746582 306.05299805 117.2746582 392.07299805 117.2746582 C389.36759026 107.46545341 389.36759026 107.46545341 383.07299805 100.2746582 C378.47270801 97.87300595 374.19977158 97.98793584 369.1394043 98.00341797 C367.80436356 97.99557785 367.80436356 97.99557785 366.44235229 97.98757935 C364.51463581 97.97735744 362.58689186 97.9715621 360.65914917 97.96969795 C357.60759623 97.96603092 354.55636727 97.94929584 351.50488281 97.92893982 C342.83070901 97.87355309 334.15648808 97.84281671 325.48217773 97.81835938 C320.17248021 97.80248713 314.86301401 97.77227454 309.55343628 97.73359489 C307.5312648 97.72194512 305.50905196 97.71601455 303.48684692 97.71591377 C300.65984926 97.71572177 297.83349029 97.69745983 295.0065918 97.67529297 C293.75493729 97.68215874 293.75493729 97.68215874 292.47799683 97.68916321 C287.4246581 97.6261535 283.82180746 97.02346761 280.07299805 93.2746582 C279.48663708 86.12105436 279.48663708 86.12105436 281.52661133 83.17640686 C285.30405151 80.35525572 288.63923877 80.70684297 293.2409668 80.74121094 C294.16837173 80.73259537 295.09577667 80.7239798 296.05128479 80.71510315 C299.12130574 80.69238021 302.19041766 80.69919853 305.26049805 80.70825195 C307.40080028 80.70301584 309.5411002 80.6967394 311.68139648 80.68946838 C316.1738569 80.67904994 320.66600093 80.68364148 325.15844727 80.69824219 C330.89033285 80.7153535 336.62120881 80.69203682 342.35298157 80.65675259 C346.77824436 80.63467976 351.20326981 80.63624526 355.62857056 80.6445179 C357.73988953 80.64533353 359.85122662 80.63854498 361.9624939 80.62374687 C375.923621 80.540959 387.06592863 80.68168301 398.01049805 90.3996582 C405.74721181 98.79630944 408.26137636 108.16033765 408.07299805 119.2746582 C408.80389648 119.36618164 409.53479492 119.45770508 410.2878418 119.55200195 C415.86550424 120.99922152 420.31003975 125.69507072 423.5065918 130.37231445 C427.06324571 137.13386531 427.21902786 143.93526438 427.19325256 151.42416382 C427.1945342 152.79167658 427.1945342 152.79167658 427.19584173 154.18681586 C427.19748647 157.23613627 427.19199162 160.28540146 427.18652344 163.3347168 C427.18624132 165.5227661 427.18639977 167.7108155 427.18696594 169.89886475 C427.18725297 175.8363449 427.18137148 181.77380488 427.17439198 187.71128035 C427.16814274 193.91727057 427.1675534 200.12326126 427.16636658 206.32925415 C427.16343464 217.41201149 427.15621226 228.49476048 427.14672386 239.57751401 C427.13815731 249.63688062 427.13191354 259.69624575 427.12792969 269.75561523 C427.1275356 270.74792025 427.1275356 270.74792025 427.12713356 271.76027183 C427.12582849 275.07911183 427.12456704 278.39795185 427.12332165 281.71679187 C427.11286777 309.2360858 427.09527728 336.75537148 427.07299805 364.2746582 C427.9650293 364.22825195 428.85706055 364.1818457 429.77612305 364.1340332 C430.9465918 364.09793945 432.11706055 364.0618457 433.32299805 364.0246582 C434.4831543 363.97825195 435.64331055 363.9318457 436.83862305 363.8840332 C440.07299805 364.2746582 440.07299805 364.2746582 442.45947266 366.1652832 C444.19586579 368.43528421 444.64100537 369.45490744 444.63549805 372.2746582 C444.65741211 372.9346582 444.67932617 373.5946582 444.7019043 374.2746582 C443.69098084 377.48952037 441.88080577 378.48332821 439.07299805 380.2746582 C436.13157326 380.65931929 433.56917416 380.81280638 430.63180542 380.77802277 C429.77997059 380.78383653 428.92813576 380.78965029 428.05048776 380.79564023 C425.18254366 380.81029324 422.3154483 380.79633027 419.44750977 380.78259277 C417.3761037 380.78719958 415.3047009 380.79355102 413.23330498 380.80150175 C407.53057625 380.81824829 401.8281142 380.80992447 396.12538433 380.79755688 C389.97942456 380.78853049 383.8335116 380.80246412 377.68756104 380.81347656 C366.34001668 380.83026179 354.99258141 380.82876985 343.64503974 380.81783069 C333.16266301 380.80777497 322.68031757 380.80513862 312.19793701 380.80992126 C311.50306025 380.81022681 310.80818349 380.81053235 310.09224986 380.81084714 C307.27163507 380.81209246 304.45102029 380.81336606 301.63040554 380.8146862 C275.16198759 380.82692673 248.69362401 380.81582119 222.22521445 380.79429861 C198.70113924 380.77531568 175.17715063 380.77701417 151.65307617 380.79614258 C125.23358137 380.81755348 98.81413461 380.82605869 72.39463234 380.81369352 C69.57910793 380.81241062 66.76358351 380.81115926 63.94805908 380.80992126 C63.25478716 380.80960496 62.56151523 380.80928865 61.84723507 380.80896275 C51.37053531 380.8044097 40.89387025 380.80973983 30.41717529 380.81983948 C18.50664935 380.83126399 6.59622572 380.82805803 -5.31429625 380.8067165 C-11.39485959 380.79618144 -17.47524686 380.79212611 -23.55580902 380.80531311 C-29.11713247 380.8171919 -34.67811586 380.81074907 -40.23940825 380.7894029 C-42.25615468 380.78491765 -44.27292956 380.78724588 -46.28965783 380.79690605 C-49.02212209 380.80899526 -51.75340757 380.79667138 -54.48580933 380.77802277 C-55.27662643 380.78738743 -56.06744354 380.7967521 -56.8822248 380.80640054 C-60.61556882 380.75515392 -62.7364185 380.39624696 -65.91526985 378.36819792 C-67.92700195 376.2746582 -67.92700195 376.2746582 -68.5559082 374.2746582 C-68.53399414 373.6146582 -68.51208008 372.9546582 -68.48950195 372.2746582 C-68.49079102 371.6146582 -68.49208008 370.9546582 -68.4934082 370.2746582 C-67.67070947 367.36968061 -66.24615318 366.17572201 -63.92700195 364.2746582 C-61.26977539 363.82055664 -61.26977539 363.82055664 -58.28637695 363.8840332 C-56.68149414 363.90336914 -56.68149414 363.90336914 -55.04418945 363.9230957 C-53.37743164 363.97336914 -53.37743164 363.97336914 -51.67700195 364.0246582 C-50.55036133 364.04270508 -49.4237207 364.06075195 -48.26293945 364.0793457 C-45.48343299 364.12645598 -42.70564856 364.1922246 -39.92700195 364.2746582 C-39.93068913 363.11360188 -39.9343763 361.95254555 -39.9381752 360.75630569 C-40.02477343 333.20614405 -40.09074736 305.65599603 -40.13126327 278.10572644 C-40.1362662 274.71607324 -40.14144348 271.32642034 -40.14672852 267.93676758 C-40.14777776 267.26193788 -40.148827 266.58710818 -40.14990804 265.8918291 C-40.16732169 254.95959052 -40.19886462 244.02743591 -40.23561314 233.09524718 C-40.27299591 221.8809926 -40.29493266 210.66678004 -40.30335593 199.45246005 C-40.30857972 193.15217518 -40.32089352 186.8520809 -40.34992218 180.55185699 C-40.37700658 174.62577182 -40.38546101 168.69995635 -40.37943268 162.77381516 C-40.38053604 160.59530295 -40.38853114 158.41678202 -40.40382385 156.23832321 C-40.42364232 153.27038418 -40.41897068 150.30347164 -40.40802002 147.33551025 C-40.41967139 146.4678073 -40.43132275 145.60010436 -40.44332719 144.70610738 C-40.38500894 138.8831267 -40.38500894 138.8831267 -38.02193832 135.74375534 C-35.76969269 134.16434336 -34.6517801 133.70683637 -31.92700195 133.7121582 C-31.26700195 133.69024414 -30.60700195 133.66833008 -29.92700195 133.64575195 C-26.68575891 134.66497096 -25.7172241 136.42530257 -23.92700195 139.2746582 C-23.35202884 142.32460461 -23.40408199 145.32174293 -23.44598389 148.4178009 C-23.44256619 149.34087231 -23.43914849 150.26394371 -23.43562722 151.21498698 C-23.42903669 154.30916754 -23.45104416 157.40248134 -23.47290039 160.49658203 C-23.47402861 162.71403991 -23.4733955 164.93149929 -23.47113037 167.1489563 C-23.46998132 173.171326 -23.49352193 179.19337792 -23.5214262 185.21567369 C-23.54640779 191.50840541 -23.5487793 197.80114418 -23.55352783 204.09391785 C-23.56455324 214.6567424 -23.58954898 225.21946263 -23.62524414 235.78222656 C-23.66196937 246.66112688 -23.6902786 257.5399955 -23.70727539 268.41894531 C-23.70832628 269.0897057 -23.70937718 269.76046609 -23.71045992 270.45155255 C-23.71568013 273.81661521 -23.72073495 277.18167809 -23.72570753 280.54674113 C-23.76753343 308.45613086 -23.83870854 336.36538015 -23.92700195 364.2746582 C-16.66700195 364.2746582 -9.40700195 364.2746582 -1.92700195 364.2746582 C-1.95842285 359.33916016 -1.95842285 359.33916016 -1.99047852 354.30395508 C-2.05680584 343.42352212 -2.10096039 332.54308016 -2.13425064 321.66249847 C-2.15511066 315.06663809 -2.18340013 308.47098515 -2.22875977 301.87524414 C-2.27227289 295.50804103 -2.29615099 289.14103724 -2.30651093 282.7736969 C-2.31389238 280.34644941 -2.32830662 277.91921263 -2.34992218 275.49205017 C-2.37902775 272.08796756 -2.38295481 268.68470493 -2.38110352 265.28051758 C-2.39548462 264.28069855 -2.40986572 263.28087952 -2.42468262 262.25076294 C-2.38847185 256.08319459 -1.46358068 251.41640941 2.07299805 246.2746582 C7.3538496 241.1292131 12.16597283 240.02568619 19.41430664 240 C20.13531052 239.99488907 20.85631439 239.98977814 21.59916687 239.98451233 C23.97334181 239.97065715 26.34722508 239.97157016 28.72143555 239.97387695 C30.37903958 239.96998744 32.03664262 239.96565224 33.69424438 239.96089172 C37.16590609 239.95343803 40.63746609 239.95371436 44.10913086 239.95898438 C48.54651031 239.96477425 52.98347171 239.94785572 57.42078209 239.9246397 C60.84384575 239.90986898 64.26680955 239.90903525 67.68989944 239.91214943 C69.32528129 239.91163777 70.96066896 239.90642939 72.59601974 239.89633751 C74.88858514 239.88392688 77.18034675 239.89079199 79.47290039 239.90234375 C80.77464203 239.90171432 82.07638367 239.9010849 83.41757202 239.9004364 C88.29471919 240.39973109 92.27471869 241.6984771 96.03393555 244.9934082 C96.50057617 245.5812207 96.9672168 246.1690332 97.44799805 246.7746582 C97.93010742 247.3624707 98.4122168 247.9502832 98.90893555 248.5559082 C100.98102738 251.61537266 101.19729857 254.2686994 101.19325256 257.84941101 C101.19531456 259.25655365 101.19531456 259.25655365 101.19741821 260.69212341 C101.19382294 261.71926956 101.19022766 262.74641571 101.18652344 263.8046875 C101.18666946 264.88777191 101.18681549 265.97085632 101.18696594 267.08676147 C101.18626812 270.67415353 101.17848177 274.26149395 101.1706543 277.84887695 C101.16878966 280.33323641 101.16736597 282.81759623 101.16636658 285.30195618 C101.16293584 291.17737423 101.15505075 297.05277316 101.14501709 302.92818338 C101.13274539 310.2734897 101.12737266 317.6187971 101.12182617 324.96411133 C101.11109526 338.06763825 101.09350137 351.17114293 101.07299805 364.2746582 C108.33299805 364.2746582 115.59299805 364.2746582 123.07299805 364.2746582 C123.01391276 321.69972917 122.93961002 279.12485325 122.84401176 236.54998963 C122.83274337 231.52559555 122.82160496 226.50120119 122.81054688 221.47680664 C122.80724135 219.97638351 122.80724135 219.97638351 122.80386905 218.4456488 C122.76848009 202.24136173 122.74362498 186.03707471 122.72265103 169.8327633 C122.7009017 153.21022094 122.66785955 136.5877288 122.62429649 119.96522915 C122.59776481 109.70520421 122.58008061 99.44524187 122.57365201 89.18518431 C122.56840277 82.15301133 122.55220141 75.12091717 122.52733239 68.08878641 C122.51330148 64.0293705 122.5041525 59.97009575 122.50798988 55.91065407 C122.51139622 52.19456975 122.50105797 48.4787871 122.47976253 44.76276459 C122.47198761 42.78090357 122.47894441 40.79900169 122.48641509 38.81713951 C122.47695855 37.6382557 122.46750201 36.45937189 122.4577589 35.24476433 C122.4558603 34.22939216 122.4539617 33.21402 122.45200557 32.16787899 C121.84128299 27.50582044 120.09275777 24.24074636 116.69799805 21.0246582 C112.51867259 18.23844123 109.02955667 17.02674599 104.00785828 17.00723267 C103.0112619 16.9987027 102.01466553 16.99017273 100.98786926 16.98138428 C99.36457954 16.98274384 99.36457954 16.98274384 97.70849609 16.98413086 C96.55994141 16.97741364 95.41138672 16.97069641 94.22802734 16.96377563 C90.43021318 16.94477429 86.63257555 16.94087027 82.8347168 16.9387207 C80.19301786 16.9322941 77.55131963 16.92556584 74.90962219 16.91854858 C69.37072603 16.90576759 63.83187766 16.90278263 58.29296875 16.90405273 C51.90416758 16.90525333 45.51570468 16.88416481 39.12698907 16.85256541 C32.96695509 16.82319007 26.80708255 16.81607858 20.64698219 16.81727219 C18.03274975 16.8149141 15.41851473 16.80607899 12.80432701 16.79060745 C9.14449513 16.7709764 5.48552992 16.7767754 1.82568359 16.78881836 C0.21150291 16.77195984 0.21150291 16.77195984 -1.43528748 16.75476074 C-7.67183703 16.80681583 -12.9385138 17.24608422 -17.92700195 21.2746582 C-22.54545583 26.37276954 -23.65494997 31.19373786 -23.52294922 37.90625 C-23.52700775 38.72844025 -23.53106628 39.55063049 -23.5352478 40.3977356 C-23.54073444 42.16826587 -23.53484332 43.93886165 -23.51858711 45.70932579 C-23.49304628 48.51361453 -23.49800294 51.31644239 -23.51048279 54.12080383 C-23.53116396 60.06808496 -23.51156789 66.01490737 -23.48950195 71.9621582 C-23.46837932 78.86703591 -23.46382274 85.77144193 -23.49000359 92.67630959 C-23.49336187 95.43580431 -23.4721575 98.19439376 -23.44960022 100.95378113 C-23.45211138 102.64627275 -23.45567131 104.33876326 -23.46044922 106.03125 C-23.44756363 106.79551804 -23.43467804 107.55978607 -23.42140198 108.34721375 C-23.45600881 112.02429392 -23.81322514 114.09602986 -25.807724 117.22737122 C-28.31783354 119.6522134 -29.44105876 120.2746582 -32.92700195 120.2746582 C-38.56555617 117.99754977 -38.56555617 117.99754977 -39.92700195 115.2746582 C-40.0410634 112.55640057 -40.09484614 109.86317987 -40.10400391 107.14404297 C-40.1105751 106.30310593 -40.1171463 105.46216888 -40.12391663 104.5957489 C-40.14368191 101.80251986 -40.15532403 99.00934487 -40.1652832 96.21606445 C-40.16935873 95.26076277 -40.17343426 94.30546108 -40.17763329 93.32121086 C-40.19851526 88.25759979 -40.21280351 83.19401594 -40.22216797 78.13037109 C-40.23319153 72.91865443 -40.26753821 67.70736956 -40.30733967 62.49580479 C-40.33359877 58.47467807 -40.3418684 54.45365233 -40.34544945 50.43244743 C-40.35029734 48.51286872 -40.36185959 46.59329397 -40.38048744 44.67379951 C-40.50490658 30.99444422 -40.1312592 19.59945802 -30.13793945 9.21606445 C-21.1018117 1.28151411 -11.60396171 -0.02591616 0 0 Z M139.07299805 133.2746582 C139.07299805 144.4946582 139.07299805 155.7146582 139.07299805 167.2746582 C228.83299805 167.2746582 318.59299805 167.2746582 411.07299805 167.2746582 C412.58302202 146.52875197 412.58302202 146.52875197 408.07299805 137.2746582 C403.00574324 132.43062154 397.98801498 132.71694405 391.36697388 132.79364014 C389.74832265 132.78851359 389.74832265 132.78851359 388.09697139 132.78328347 C384.48079997 132.77669447 380.86537064 132.79869864 377.24926758 132.82055664 C374.65728269 132.82168489 372.06529652 132.8210517 369.47331238 132.81878662 C363.89282677 132.81669106 358.31252849 132.82922158 352.73209 132.85173798 C344.6637847 132.88427139 336.59556983 132.89466635 328.52720605 132.89968994 C315.43629893 132.9084405 302.34549161 132.93504957 289.25463867 132.97290039 C276.53947447 133.00962668 263.8243374 133.03793541 251.10913086 133.05493164 C249.93312562 133.05650798 249.93312562 133.05650798 248.73336269 133.05811617 C244.80017593 133.06333639 240.86698897 133.0683912 236.93380189 133.07336378 C204.31345828 133.11481838 171.69324862 133.18636252 139.07299805 133.2746582 Z M139.07299805 183.2746582 C139.07299805 200.1046582 139.07299805 216.9346582 139.07299805 234.2746582 C155.57299805 234.2746582 172.07299805 234.2746582 189.07299805 234.2746582 C189.07299805 217.4446582 189.07299805 200.6146582 189.07299805 183.2746582 C172.57299805 183.2746582 156.07299805 183.2746582 139.07299805 183.2746582 Z M205.07299805 183.2746582 C205.07299805 200.1046582 205.07299805 216.9346582 205.07299805 234.2746582 C225.53299805 234.2746582 245.99299805 234.2746582 267.07299805 234.2746582 C267.07299805 217.4446582 267.07299805 200.6146582 267.07299805 183.2746582 C246.61299805 183.2746582 226.15299805 183.2746582 205.07299805 183.2746582 Z M283.07299805 183.2746582 C283.07299805 200.1046582 283.07299805 216.9346582 283.07299805 234.2746582 C303.53299805 234.2746582 323.99299805 234.2746582 345.07299805 234.2746582 C345.07299805 217.4446582 345.07299805 200.6146582 345.07299805 183.2746582 C324.61299805 183.2746582 304.15299805 183.2746582 283.07299805 183.2746582 Z M361.07299805 183.2746582 C361.07299805 200.1046582 361.07299805 216.9346582 361.07299805 234.2746582 C377.57299805 234.2746582 394.07299805 234.2746582 411.07299805 234.2746582 C411.07299805 217.4446582 411.07299805 200.6146582 411.07299805 183.2746582 C394.57299805 183.2746582 378.07299805 183.2746582 361.07299805 183.2746582 Z M139.07299805 250.2746582 C139.07299805 265.7846582 139.07299805 281.2946582 139.07299805 297.2746582 C155.57299805 297.2746582 172.07299805 297.2746582 189.07299805 297.2746582 C189.07299805 281.7646582 189.07299805 266.2546582 189.07299805 250.2746582 C172.57299805 250.2746582 156.07299805 250.2746582 139.07299805 250.2746582 Z M205.07299805 250.2746582 C205.07299805 265.7846582 205.07299805 281.2946582 205.07299805 297.2746582 C225.53299805 297.2746582 245.99299805 297.2746582 267.07299805 297.2746582 C267.07299805 281.7646582 267.07299805 266.2546582 267.07299805 250.2746582 C246.61299805 250.2746582 226.15299805 250.2746582 205.07299805 250.2746582 Z M283.07299805 250.2746582 C283.07299805 265.7846582 283.07299805 281.2946582 283.07299805 297.2746582 C303.53299805 297.2746582 323.99299805 297.2746582 345.07299805 297.2746582 C345.07299805 281.7646582 345.07299805 266.2546582 345.07299805 250.2746582 C324.61299805 250.2746582 304.15299805 250.2746582 283.07299805 250.2746582 Z M361.07299805 250.2746582 C361.07299805 265.7846582 361.07299805 281.2946582 361.07299805 297.2746582 C377.57299805 297.2746582 394.07299805 297.2746582 411.07299805 297.2746582 C411.07299805 281.7646582 411.07299805 266.2546582 411.07299805 250.2746582 C394.57299805 250.2746582 378.07299805 250.2746582 361.07299805 250.2746582 Z M14.07299805 257.2746582 C13.9775671 258.66609509 13.9511123 260.06234187 13.95274353 261.45704651 C13.95136887 262.35873566 13.9499942 263.2604248 13.94857788 264.18943787 C13.95217316 265.18637161 13.95576843 266.18330536 13.95947266 267.21044922 C13.95932663 268.25422729 13.9591806 269.29800537 13.95903015 270.37341309 C13.95972978 273.84181763 13.96752452 277.31016923 13.9753418 280.77856445 C13.9772058 283.17610139 13.97862978 285.5736387 13.97962952 287.97117615 C13.98345611 294.29561405 13.99328759 300.62002915 14.0043335 306.94445801 C14.01633845 314.52516967 14.02094919 322.10588893 14.0267868 329.68660736 C14.03649927 341.21597352 14.05565485 352.74528961 14.07299805 364.2746582 C37.50299805 364.2746582 60.93299805 364.2746582 85.07299805 364.2746582 C85.10206038 345.28149564 85.10206038 345.28149564 85.12182617 326.28833008 C85.12781533 318.54735635 85.13491755 310.8063944 85.1484375 303.06542969 C85.15926397 296.8279552 85.16527437 290.59049333 85.16787529 284.35301018 C85.16972998 281.96745543 85.17335141 279.58190141 85.1787281 277.19635201 C85.18593534 273.86770229 85.18698912 270.53910542 85.18652344 267.21044922 C85.19191635 265.7150486 85.19191635 265.7150486 85.19741821 264.18943787 C85.19535622 262.83690414 85.19535622 262.83690414 85.19325256 261.45704651 C85.19417436 260.66891351 85.19509615 259.88078051 85.19604588 259.06876469 C85.2688046 257.25144252 85.2688046 257.25144252 84.07299805 256.2746582 C81.93099481 256.17513527 79.785671 256.14666141 77.64135742 256.14526367 C76.96982132 256.14351135 76.29828522 256.14175903 75.60639954 256.13995361 C73.37648977 256.1355359 71.14665868 256.13847278 68.91674805 256.1418457 C67.37357569 256.14117264 65.83040344 256.1402026 64.28723145 256.13894653 C61.04898064 256.13746967 57.81075737 256.13962374 54.57250977 256.14428711 C50.41257282 256.1499844 46.25270038 256.14670533 42.09276581 256.14071465 C38.90500397 256.13710871 35.71725753 256.13824776 32.52949524 256.14084244 C30.99522392 256.14151162 29.46095123 256.14068359 27.92668152 256.13836288 C25.78596264 256.13583583 23.64534962 256.13967766 21.50463867 256.14526367 C20.2840979 256.14605927 19.06355713 256.14685486 17.80603027 256.14767456 C15.1599882 255.96315932 15.1599882 255.96315932 14.07299805 257.2746582 Z M139.07299805 313.2746582 C139.07299805 330.1046582 139.07299805 346.9346582 139.07299805 364.2746582 C155.57299805 364.2746582 172.07299805 364.2746582 189.07299805 364.2746582 C189.07299805 347.4446582 189.07299805 330.6146582 189.07299805 313.2746582 C172.57299805 313.2746582 156.07299805 313.2746582 139.07299805 313.2746582 Z M205.07299805 313.2746582 C205.07299805 330.1046582 205.07299805 346.9346582 205.07299805 364.2746582 C225.53299805 364.2746582 245.99299805 364.2746582 267.07299805 364.2746582 C267.07299805 347.4446582 267.07299805 330.6146582 267.07299805 313.2746582 C246.61299805 313.2746582 226.15299805 313.2746582 205.07299805 313.2746582 Z M283.07299805 313.2746582 C283.07299805 330.1046582 283.07299805 346.9346582 283.07299805 364.2746582 C303.53299805 364.2746582 323.99299805 364.2746582 345.07299805 364.2746582 C345.07299805 347.4446582 345.07299805 330.6146582 345.07299805 313.2746582 C324.61299805 313.2746582 304.15299805 313.2746582 283.07299805 313.2746582 Z M361.07299805 313.2746582 C361.07299805 330.1046582 361.07299805 346.9346582 361.07299805 364.2746582 C377.57299805 364.2746582 394.07299805 364.2746582 411.07299805 364.2746582 C411.07299805 347.4446582 411.07299805 330.6146582 411.07299805 313.2746582 C394.57299805 313.2746582 378.07299805 313.2746582 361.07299805 313.2746582 Z " fill="#000000" transform="translate(67.927001953125,65.725341796875)"/>
<path d="M0 0 C0.72100388 -0.00511093 1.44200775 -0.01022186 2.18486023 -0.01548767 C4.55903517 -0.02934285 6.93291844 -0.02842984 9.30712891 -0.02612305 C10.96473294 -0.03001256 12.62233598 -0.03434776 14.27993774 -0.03910828 C17.75159945 -0.04656197 21.22315945 -0.04628564 24.69482422 -0.04101562 C29.13220367 -0.03522575 33.56916507 -0.05214428 38.00647545 -0.0753603 C41.42953911 -0.09013102 44.85250291 -0.09096475 48.2755928 -0.08785057 C49.91097465 -0.08836223 51.54636232 -0.09357061 53.1817131 -0.10366249 C55.47427849 -0.11607312 57.76604011 -0.10920801 60.05859375 -0.09765625 C61.36033539 -0.09828568 62.66207703 -0.0989151 64.00326538 -0.0995636 C68.88041255 0.39973109 72.86041205 1.6984771 76.61962891 4.9934082 C77.31958984 5.87512695 77.31958984 5.87512695 78.03369141 6.7746582 C78.51580078 7.3624707 78.99791016 7.9502832 79.49462891 8.5559082 C82.85572572 13.51860149 81.88274576 19.84992682 81.90869141 25.5871582 C81.92931641 26.71573242 81.94994141 27.84430664 81.97119141 29.00708008 C82.02045182 39.46876127 82.02045182 39.46876127 78.65869141 44.2746582 C72.7663093 49.91084978 68.41116181 51.51770956 60.33325195 51.56518555 C59.61385437 51.57190277 58.89445679 51.57862 58.15325928 51.58554077 C55.78390522 51.60447932 53.41483512 51.60844299 51.04541016 51.6105957 C49.39020168 51.6170271 47.73499433 51.62375572 46.07978821 51.63076782 C42.61232876 51.64273064 39.14496886 51.64644973 35.67749023 51.64526367 C31.24907463 51.64506067 26.82130214 51.67234712 22.39303875 51.70680809 C18.97421883 51.72912195 15.55555251 51.73309983 12.13666725 51.73204422 C10.50488891 51.73439403 8.87310593 51.74318245 7.24139977 51.75870895 C-8.62777094 51.89556115 -8.62777094 51.89556115 -15.34130859 47.2746582 C-21.58022945 40.87155522 -21.7055649 34.4550488 -21.71630859 25.9621582 C-21.74080078 24.95475586 -21.76529297 23.94735352 -21.79052734 22.90942383 C-21.81558544 16.49872842 -21.06938864 11.59989574 -17.34130859 6.2746582 C-12.06045704 1.1292131 -7.24833381 0.02568619 0 0 Z M-5.34130859 17.2746582 C-5.44117834 20.11800868 -5.48008741 22.93162983 -5.46630859 25.7746582 C-5.47017578 26.57258789 -5.47404297 27.37051758 -5.47802734 28.19262695 C-5.85030469 32.0430514 -5.85030469 32.0430514 -4.34130859 35.2746582 C-2.19930536 35.37418113 -0.05398155 35.40265499 2.09033203 35.40405273 C2.76186813 35.40580505 3.43340424 35.40755737 4.12528992 35.40936279 C6.35519968 35.4137805 8.58503077 35.41084362 10.81494141 35.4074707 C12.35811376 35.40814377 13.90128602 35.40911381 15.44445801 35.41036987 C18.68270881 35.41184674 21.92093208 35.40969267 25.15917969 35.4050293 C29.31911663 35.39933201 33.47898907 35.40261108 37.63892365 35.40860176 C40.82668549 35.41220769 44.01443192 35.41106864 47.20219421 35.40847397 C48.73646553 35.40780479 50.27073823 35.40863281 51.80500793 35.41095352 C53.94572681 35.41348058 56.08633983 35.40963875 58.22705078 35.40405273 C59.44759155 35.40325714 60.66813232 35.40246155 61.92565918 35.40164185 C64.57170126 35.58615709 64.57170126 35.58615709 65.65869141 34.2746582 C65.75856115 31.43130772 65.79747022 28.61768657 65.78369141 25.7746582 C65.78755859 24.97672852 65.79142578 24.17879883 65.79541016 23.35668945 C66.1676875 19.50626501 66.1676875 19.50626501 64.65869141 16.2746582 C62.51668817 16.17513527 60.37136436 16.14666141 58.22705078 16.14526367 C57.55551468 16.14351135 56.88397858 16.14175903 56.1920929 16.13995361 C53.96218313 16.1355359 51.73235204 16.13847278 49.50244141 16.1418457 C47.95926905 16.14117264 46.4160968 16.1402026 44.8729248 16.13894653 C41.634674 16.13746967 38.39645073 16.13962374 35.15820312 16.14428711 C30.99826618 16.1499844 26.83839374 16.14670533 22.67845917 16.14071465 C19.49069733 16.13710871 16.30295089 16.13824776 13.1151886 16.14084244 C11.58091728 16.14151162 10.04664459 16.14068359 8.51237488 16.13836288 C6.371656 16.13583583 4.23104298 16.13967766 2.09033203 16.14526367 C0.86979126 16.14605927 -0.35074951 16.14685486 -1.60827637 16.14767456 C-4.25431844 15.96315932 -4.25431844 15.96315932 -5.34130859 17.2746582 Z " fill="#000000" transform="translate(87.34130859375,168.725341796875)"/>
<path d="M0 0 C1.07909637 -0.01007584 1.07909637 -0.01007584 2.17999268 -0.02035522 C4.54934673 -0.03929377 6.91841683 -0.04325745 9.2878418 -0.04541016 C10.94305028 -0.05184155 12.59825762 -0.05857017 14.25346375 -0.06558228 C17.72092319 -0.07754509 21.1882831 -0.08126419 24.65576172 -0.08007812 C29.08417732 -0.07987513 33.51194982 -0.10716157 37.9402132 -0.14162254 C41.35903312 -0.16393641 44.77769944 -0.16791428 48.1965847 -0.16685867 C49.82836305 -0.16920848 51.46014602 -0.17799691 53.09185219 -0.19352341 C70.87438187 -0.34687599 70.87438187 -0.34687599 77.20942688 5.77334595 C82.62579751 11.8733991 81.88963193 17.87943593 81.92456055 25.60302734 C81.94518555 26.73160156 81.96581055 27.86017578 81.98706055 29.02294922 C82.01950204 35.91271185 81.79665255 40.83521902 76.9909668 46.15380859 C76.41217773 46.63205078 75.83338867 47.11029297 75.23706055 47.60302734 C74.66084961 48.09416016 74.08463867 48.58529297 73.4909668 49.09130859 C69.46994661 51.74604665 65.16296197 51.43191864 60.46264648 51.4675293 C59.74339493 51.47410049 59.02414337 51.48067169 58.28309631 51.48744202 C55.90837488 51.50711369 53.53371653 51.51882432 51.15893555 51.52880859 C50.34514687 51.53288412 49.53135818 51.53695965 48.69290924 51.54115868 C44.38487505 51.56199401 40.07687246 51.57630627 35.76879883 51.58569336 C31.33254578 51.59674824 26.89679561 51.63114448 22.46072006 51.67086506 C19.03762924 51.69708276 15.6146573 51.70538977 12.19147491 51.70897484 C10.55689348 51.71382805 8.9223169 51.7254058 7.28783417 51.74401283 C-8.6201167 51.9138442 -8.6201167 51.9138442 -15.32543945 47.29052734 C-21.56436031 40.88742436 -21.68969576 34.47091794 -21.70043945 25.97802734 C-21.72493164 24.970625 -21.74942383 23.96322266 -21.7746582 22.92529297 C-21.7997163 16.51459756 -21.0535195 11.61576488 -17.32543945 6.29052734 C-12.05313979 1.15341485 -7.23645788 0.04253055 0 0 Z M-5.32543945 17.29052734 C-5.4253092 20.13387782 -5.46421827 22.94749897 -5.45043945 25.79052734 C-5.45430664 26.58845703 -5.45817383 27.38638672 -5.4621582 28.20849609 C-5.83443555 32.05892054 -5.83443555 32.05892054 -4.32543945 35.29052734 C-2.18343622 35.39005027 -0.03811241 35.41852413 2.10620117 35.41992188 C2.77773727 35.42167419 3.44927338 35.42342651 4.14115906 35.42523193 C6.37106882 35.42964964 8.60089991 35.42671276 10.83081055 35.42333984 C12.3739829 35.42401291 13.91715516 35.42498295 15.46032715 35.42623901 C18.69857795 35.42771588 21.93680122 35.42556181 25.17504883 35.42089844 C29.33498577 35.41520115 33.49485821 35.41848022 37.65479279 35.4244709 C40.84255463 35.42807683 44.03030106 35.42693778 47.21806335 35.42434311 C48.75233467 35.42367393 50.28660737 35.42450195 51.82087708 35.42682266 C53.96159595 35.42934972 56.10220897 35.42550789 58.24291992 35.41992188 C59.46346069 35.41912628 60.68400146 35.41833069 61.94152832 35.41751099 C64.5875704 35.60202623 64.5875704 35.60202623 65.67456055 34.29052734 C65.7744303 31.44717687 65.81333936 28.63355571 65.79956055 25.79052734 C65.80342773 24.99259766 65.80729492 24.19466797 65.8112793 23.37255859 C66.18355664 19.52213415 66.18355664 19.52213415 64.67456055 16.29052734 C62.53255731 16.19100441 60.3872335 16.16253055 58.24291992 16.16113281 C57.57138382 16.15938049 56.89984772 16.15762817 56.20796204 16.15582275 C53.97805227 16.15140505 51.74822118 16.15434192 49.51831055 16.15771484 C47.97513819 16.15704178 46.43196594 16.15607174 44.88879395 16.15481567 C41.65054314 16.15333881 38.41231987 16.15549288 35.17407227 16.16015625 C31.01413532 16.16585354 26.85426288 16.16257447 22.69432831 16.15658379 C19.50656647 16.15297786 16.31882003 16.15411691 13.13105774 16.15671158 C11.59678642 16.15738076 10.06251373 16.15655273 8.52824402 16.15423203 C6.38752514 16.15170497 4.24691212 16.1555468 2.10620117 16.16113281 C0.8856604 16.16192841 -0.33488037 16.162724 -1.59240723 16.1635437 C-4.2384493 15.97902846 -4.2384493 15.97902846 -5.32543945 17.29052734 Z " fill="#000000" transform="translate(87.325439453125,237.70947265625)"/>
<path d="M0 0 C0.72100388 -0.00511093 1.44200775 -0.01022186 2.18486023 -0.01548767 C4.55903517 -0.02934285 6.93291844 -0.02842984 9.30712891 -0.02612305 C10.96473294 -0.03001256 12.62233598 -0.03434776 14.27993774 -0.03910828 C17.75159945 -0.04656197 21.22315945 -0.04628564 24.69482422 -0.04101562 C29.13220367 -0.03522575 33.56916507 -0.05214428 38.00647545 -0.0753603 C41.42953911 -0.09013102 44.85250291 -0.09096475 48.2755928 -0.08785057 C49.91097465 -0.08836223 51.54636232 -0.09357061 53.1817131 -0.10366249 C55.47427849 -0.11607312 57.76604011 -0.10920801 60.05859375 -0.09765625 C61.36033539 -0.09828568 62.66207703 -0.0989151 64.00326538 -0.0995636 C68.88041255 0.39973109 72.86041205 1.6984771 76.61962891 4.9934082 C77.31958984 5.87512695 77.31958984 5.87512695 78.03369141 6.7746582 C78.51580078 7.3624707 78.99791016 7.9502832 79.49462891 8.5559082 C82.85572572 13.51860149 81.88274576 19.84992682 81.90869141 25.5871582 C81.92931641 26.71573242 81.94994141 27.84430664 81.97119141 29.00708008 C82.02045182 39.46876127 82.02045182 39.46876127 78.65869141 44.2746582 C72.79873199 49.87983677 68.46097894 51.52037662 60.42504883 51.54931641 C59.71540482 51.55442734 59.0057608 51.55953827 58.27461243 51.56480408 C55.93770824 51.57865918 53.60110044 51.57774603 51.26416016 51.57543945 C49.63137198 51.57932942 47.99858482 51.5836647 46.36579895 51.58842468 C42.94541137 51.5958787 39.52512701 51.59560214 36.10473633 51.59033203 C31.73695478 51.58454689 27.36959861 51.60144904 23.00188732 51.6246767 C19.62939513 51.639463 16.25700412 51.64027896 12.88448524 51.63716698 C11.27504956 51.63767801 9.66560789 51.64287454 8.05620384 51.6529789 C-10.46127311 51.7549504 -10.46127311 51.7549504 -15.84162903 46.9289093 C-21.64336311 40.47481743 -21.7058941 34.19481829 -21.71630859 25.9621582 C-21.74080078 24.95475586 -21.76529297 23.94735352 -21.79052734 22.90942383 C-21.81558544 16.49872842 -21.06938864 11.59989574 -17.34130859 6.2746582 C-12.06045704 1.1292131 -7.24833381 0.02568619 0 0 Z M-5.34130859 17.2746582 C-5.44117834 20.11800868 -5.48008741 22.93162983 -5.46630859 25.7746582 C-5.47017578 26.57258789 -5.47404297 27.37051758 -5.47802734 28.19262695 C-5.85030469 32.0430514 -5.85030469 32.0430514 -4.34130859 35.2746582 C-2.19930536 35.37418113 -0.05398155 35.40265499 2.09033203 35.40405273 C2.76186813 35.40580505 3.43340424 35.40755737 4.12528992 35.40936279 C6.35519968 35.4137805 8.58503077 35.41084362 10.81494141 35.4074707 C12.35811376 35.40814377 13.90128602 35.40911381 15.44445801 35.41036987 C18.68270881 35.41184674 21.92093208 35.40969267 25.15917969 35.4050293 C29.31911663 35.39933201 33.47898907 35.40261108 37.63892365 35.40860176 C40.82668549 35.41220769 44.01443192 35.41106864 47.20219421 35.40847397 C48.73646553 35.40780479 50.27073823 35.40863281 51.80500793 35.41095352 C53.94572681 35.41348058 56.08633983 35.40963875 58.22705078 35.40405273 C59.44759155 35.40325714 60.66813232 35.40246155 61.92565918 35.40164185 C64.57170126 35.58615709 64.57170126 35.58615709 65.65869141 34.2746582 C65.75856115 31.43130772 65.79747022 28.61768657 65.78369141 25.7746582 C65.78755859 24.97672852 65.79142578 24.17879883 65.79541016 23.35668945 C66.1676875 19.50626501 66.1676875 19.50626501 64.65869141 16.2746582 C62.51668817 16.17513527 60.37136436 16.14666141 58.22705078 16.14526367 C57.55551468 16.14351135 56.88397858 16.14175903 56.1920929 16.13995361 C53.96218313 16.1355359 51.73235204 16.13847278 49.50244141 16.1418457 C47.95926905 16.14117264 46.4160968 16.1402026 44.8729248 16.13894653 C41.634674 16.13746967 38.39645073 16.13962374 35.15820312 16.14428711 C30.99826618 16.1499844 26.83839374 16.14670533 22.67845917 16.14071465 C19.49069733 16.13710871 16.30295089 16.13824776 13.1151886 16.14084244 C11.58091728 16.14151162 10.04664459 16.14068359 8.51237488 16.13836288 C6.371656 16.13583583 4.23104298 16.13967766 2.09033203 16.14526367 C0.86979126 16.14605927 -0.35074951 16.14685486 -1.60827637 16.14767456 C-4.25431844 15.96315932 -4.25431844 15.96315932 -5.34130859 17.2746582 Z " fill="#000000" transform="translate(87.34130859375,100.725341796875)"/>
</svg>
