<?xml version="1.0" encoding="UTF-8"?>
<svg version="1.1" xmlns="http://www.w3.org/2000/svg" width="512" height="512">
<path d="M0 0 C0 37.62 0 75.24 0 114 C25.74 114 51.48 114 78 114 C78 235.44 78 356.88 78 482 C88.56 482 99.12 482 110 482 C110 491.9 110 501.8 110 512 C-46.42 512 -202.84 512 -364 512 C-364 502.1 -364 492.2 -364 482 C-353.44 482 -342.88 482 -332 482 C-332 380.03 -332 278.06 -332 173 C-306.26 173 -280.52 173 -254 173 C-254 139.01 -254 105.02 -254 70 C-238.9334375 65.8234375 -238.9334375 65.8234375 -223.5625 61.5625 C-186.65008205 51.31709212 -149.76845241 40.96340638 -112.89127541 30.59200287 C-98.3822089 26.51147203 -83.87145401 22.43699149 -69.359375 18.3671875 C-68.4029649 18.09896746 -67.44655479 17.83074741 -66.46116257 17.55439949 C-57.25397061 14.97237573 -48.04660949 12.39095542 -38.83921814 9.80964279 C-35.50390397 8.87454426 -32.16862439 7.93932237 -28.83335114 7.00407791 C-26.56331729 6.36759981 -24.29322683 5.73132396 -22.02313232 5.09506226 C-20.6519748 4.7106014 -19.28081986 4.32613133 -17.90966797 3.94165039 C-16.15056595 3.44853111 -16.15056595 3.44853111 -14.35592651 2.94544983 C-12.00254101 2.2824413 -9.65706958 1.59099433 -7.31814575 0.87864685 C-4 0 -4 0 0 0 Z M-40.67041016 42.47094727 C-41.83003265 42.79800156 -42.98965515 43.12505585 -44.18441772 43.46202087 C-45.4693181 43.83008378 -46.75419901 44.19821462 -48.0390625 44.56640625 C-49.40022361 44.9522285 -50.76152512 45.33755572 -52.12295532 45.72242737 C-55.07000092 46.55656453 -58.01611291 47.39389691 -60.96154785 48.23370361 C-65.67701617 49.57809058 -70.39444072 50.91551257 -75.11230469 52.25146484 C-76.74633965 52.71422718 -78.38037283 53.17699581 -80.0144043 53.63977051 C-80.83627228 53.87252182 -81.65814026 54.10527313 -82.50491333 54.34507751 C-85.0533092 55.06705662 -87.60150539 55.78973679 -90.1496582 56.51257324 C-102.6691179 60.06305406 -115.19574199 63.58749517 -127.7265625 67.09765625 C-128.62705448 67.34993799 -129.52754646 67.60221973 -130.45532608 67.86214638 C-138.4232903 70.09429731 -146.3916526 72.32502554 -154.36016846 74.5552063 C-158.50561888 75.71548511 -162.65080444 76.87670657 -166.79584885 78.03843498 C-168.28883629 78.45668808 -169.78191196 78.87462646 -171.27510452 79.29214668 C-188.53847234 84.11926859 -205.76375867 89.07535962 -223 94 C-223 120.07 -223 146.14 -223 173 C-197.26 173 -171.52 173 -145 173 C-145 274.97 -145 376.94 -145 482 C-107.38 482 -69.76 482 -31 482 C-31 336.47 -31 190.94 -31 41 C-34.7144738 41 -37.14272507 41.46740758 -40.67041016 42.47094727 Z M0 145 C0 256.21 0 367.42 0 482 C15.51 482 31.02 482 47 482 C47 370.79 47 259.58 47 145 C31.49 145 15.98 145 0 145 Z M-301 204 C-301 295.74 -301 387.48 -301 482 C-259.75 482 -218.5 482 -176 482 C-176 390.26 -176 298.52 -176 204 C-217.25 204 -258.5 204 -301 204 Z " fill="#000000" transform="translate(383,0)"/>
<path d="M0 0 C10.23 0 20.46 0 31 0 C31 20.46 31 40.92 31 62 C20.77 62 10.54 62 0 62 C0 41.54 0 21.08 0 0 Z " fill="#000000" transform="translate(274,360)"/>
<path d="M0 0 C10.23 0 20.46 0 31 0 C31 20.46 31 40.92 31 62 C20.77 62 10.54 62 0 62 C0 41.54 0 21.08 0 0 Z " fill="#000000" transform="translate(129,360)"/>
<path d="M0 0 C10.23 0 20.46 0 31 0 C31 20.13 31 40.26 31 61 C20.77 61 10.54 61 0 61 C0 40.87 0 20.74 0 0 Z " fill="#000000" transform="translate(274,250)"/>
<path d="M0 0 C10.23 0 20.46 0 31 0 C31 20.13 31 40.26 31 61 C20.77 61 10.54 61 0 61 C0 40.87 0 20.74 0 0 Z " fill="#000000" transform="translate(129,250)"/>
<path d="M0 0 C10.23 0 20.46 0 31 0 C31 20.13 31 40.26 31 61 C20.77 61 10.54 61 0 61 C0 40.87 0 20.74 0 0 Z " fill="#000000" transform="translate(274,140)"/>
</svg>
