<?xml version="1.0" encoding="UTF-8"?>
<svg version="1.1" xmlns="http://www.w3.org/2000/svg" width="512" height="512">
<path d="M0 0 C11.70935678 9.9661593 19.67782944 23.44167835 21.28515625 38.8984375 C22.46379019 54.81906217 19.20511128 69.9878295 9.109375 82.62109375 C5.15010501 87.1393195 1.04635312 91.23597837 -3.71484375 94.8984375 C-2.69390625 95.8265625 -2.69390625 95.8265625 -1.65234375 96.7734375 C11.51236171 110.08774189 13.45678483 124.68131406 13.3828125 142.5859375 C13.38139755 143.88418457 13.3799826 145.18243164 13.37852478 146.52001953 C13.3747345 149.94600402 13.36493464 153.37194509 13.3538208 156.7979126 C13.34353104 160.30407107 13.33895599 163.81023687 13.33398438 167.31640625 C13.32384139 174.17712149 13.30426098 181.037718 13.28515625 187.8984375 C23.84515625 187.8984375 34.40515625 187.8984375 45.28515625 187.8984375 C45.25035156 184.66804687 45.21554688 181.43765625 45.1796875 178.109375 C45.15620388 174.93523032 45.13803757 171.7610958 45.12036133 168.58691406 C45.10539606 166.40294978 45.08501653 164.21901491 45.05883789 162.03515625 C44.80245926 140.07708028 46.67036689 120.7370127 62.67578125 104.1796875 C72.10795621 95.93359442 82.91120916 90.19235996 95.28515625 87.8984375 C94.69347656 87.17140625 94.10179687 86.444375 93.4921875 85.6953125 C88.06829513 78.7937855 84.10039515 72.30866798 81.28515625 63.8984375 C81.04023438 63.19847656 80.7953125 62.49851562 80.54296875 61.77734375 C76.49485759 47.55350111 78.91032875 31.22785009 85.41015625 18.2734375 C94.08669827 3.08041308 107.07774517 -6.84156954 123.7734375 -11.84765625 C139.01197599 -15.46400335 156.1559513 -13.06003173 169.62890625 -4.984375 C182.94215324 4.45236772 193.77608201 17.66771841 196.96875 34.0625 C199.03247788 52.55961652 196.01569869 69.13640993 184.41015625 84.1484375 C183.37906363 85.40717395 182.34150583 86.66082083 181.28515625 87.8984375 C181.94 88.04539062 182.59484375 88.19234375 183.26953125 88.34375 C199.38318208 92.30388453 213.1404316 100.85001992 222.28515625 114.8984375 C229.19589948 127.00161385 231.62818478 138.35469278 231.48046875 152.25390625 C231.47622391 153.79538078 231.47622391 153.79538078 231.47189331 155.36799622 C231.46081725 158.60743521 231.43573708 161.84658396 231.41015625 165.0859375 C231.40011017 167.30012618 231.39098719 169.51431925 231.3828125 171.72851562 C231.36263215 177.11868774 231.32346004 182.50824287 231.28515625 187.8984375 C241.84515625 187.8984375 252.40515625 187.8984375 263.28515625 187.8984375 C263.26195312 183.77859375 263.23875 179.65875 263.21484375 175.4140625 C263.20195159 172.09693013 263.19111671 168.77980499 263.18165588 165.46266174 C263.1711627 161.97879886 263.15717743 158.49503577 263.13427734 155.01123047 C263.1080778 150.99966552 263.09862654 146.9882037 263.08984375 142.9765625 C263.07952118 141.74794495 263.06919861 140.51932739 263.05856323 139.253479 C263.05729812 129.36858415 263.40537759 119.34227276 268.16015625 110.4609375 C268.65257812 109.51347656 269.145 108.56601563 269.65234375 107.58984375 C272.59448758 102.74023347 276.2304013 98.84056037 280.28515625 94.8984375 C279.78886719 94.4859375 279.29257812 94.0734375 278.78125 93.6484375 C265.28667264 82.17676642 256.56926217 68.36068042 254.97265625 50.37890625 C254.39449642 33.12444892 259.37800392 18.76803785 270.59765625 5.5859375 C282.46788021 -6.92592019 297.40132797 -12.92644693 314.47265625 -13.4765625 C332.13775329 -13.19135407 345.96388147 -6.37929921 358.28515625 5.8984375 C358.84976562 6.43984375 359.414375 6.98125 359.99609375 7.5390625 C369.94509054 17.96182104 374.12076725 32.84317791 374.28515625 46.8984375 C373.43635126 61.72108768 368.53144701 77.50413846 357.28515625 87.8984375 C358.42791016 88.31802734 358.42791016 88.31802734 359.59375 88.74609375 C371.94422303 93.54134608 381.42590339 100.41833094 387.09765625 112.5859375 C389.3858512 117.82138678 390.40851446 121.96197362 390.43232727 127.6895752 C390.44306023 129.46402512 390.44306023 129.46402512 390.45401001 131.27432251 C390.45669891 132.56889374 390.45938782 133.86346497 390.4621582 135.19726562 C390.4684264 136.57738413 390.47507351 137.95750096 390.48207092 139.33761597 C390.50308086 143.8682946 390.51347414 148.39897343 390.5234375 152.9296875 C390.52748696 154.49330157 390.53160393 156.05691546 390.53578758 157.62052917 C390.55483678 164.97176745 390.56906534 172.32299574 390.57739955 179.67425394 C390.58715502 188.13796804 390.61343123 196.60141944 390.65390044 205.06504107 C390.68415766 211.61982194 390.6988777 218.17452796 390.70218056 224.72937727 C390.70452117 228.6377425 390.71335066 232.54582702 390.73864174 236.45411682 C390.76209481 240.13798466 390.7660875 243.82139044 390.75588036 247.50531387 C390.75515675 249.48302448 390.77412854 251.46071252 390.79394531 253.43832397 C390.72629078 265.18391556 388.21398052 275.03558942 380.28515625 283.8984375 C379.52203125 284.7646875 378.75890625 285.6309375 377.97265625 286.5234375 C372.02275087 291.78149341 365.46670085 296.8984375 357.28515625 296.8984375 C357.28515625 338.8084375 357.28515625 380.7184375 357.28515625 423.8984375 C351.34515625 423.8984375 345.40515625 423.8984375 339.28515625 423.8984375 C339.28515625 382.6484375 339.28515625 341.3984375 339.28515625 298.8984375 C314.53515625 298.8984375 289.78515625 298.8984375 264.28515625 298.8984375 C264.3315625 307.58671875 264.37796875 316.275 264.42578125 325.2265625 C264.44881088 331.42135978 264.46931711 337.616125 264.48617172 343.81093788 C264.50835572 351.84068866 264.53653952 359.87027362 264.58691406 367.89990234 C264.62677247 374.25630138 264.65258677 380.61257542 264.66151023 386.96909595 C264.66672678 390.33515822 264.67899334 393.7008629 264.70807648 397.06681061 C264.73700879 400.82372967 264.74111635 404.57990197 264.73925781 408.33691406 C264.75363892 409.45397232 264.76802002 410.57103058 264.78283691 411.72193909 C264.77733826 412.74555038 264.7718396 413.76916168 264.76617432 414.8237915 C264.76986149 415.71239994 264.77354866 416.60100838 264.77734756 417.51654434 C264.12088821 420.6933904 262.78271517 421.89579665 260.28515625 423.8984375 C257.59118652 424.40637207 257.59118652 424.40637207 254.47851562 424.41601562 C252.72649841 424.43492859 252.72649841 424.43492859 250.93908691 424.45422363 C249.05304749 424.44207825 249.05304749 424.44207825 247.12890625 424.4296875 C245.83448608 424.4335144 244.54006592 424.43734131 243.2064209 424.44128418 C240.46928779 424.44717437 237.73267766 424.43863289 234.99560547 424.41992188 C231.49143599 424.39713119 227.98849191 424.41025704 224.48436737 424.43421173 C221.13661604 424.45216204 217.78919238 424.4395851 214.44140625 424.4296875 C213.18404663 424.43778442 211.92668701 424.44588135 210.63122559 424.45422363 C209.46321411 424.44161499 208.29520264 424.42900635 207.09179688 424.41601562 C206.06461548 424.41283325 205.03743408 424.40965088 203.97912598 424.40637207 C200.57070557 423.76373138 199.40814591 422.59048537 197.28515625 419.8984375 C196.2501934 416.79354895 196.16187961 414.6673801 196.16490173 411.41255188 C196.16283974 409.70249969 196.16283974 409.70249969 196.16073608 407.957901 C196.16433136 406.70633713 196.16792664 405.45477325 196.17163086 404.1652832 C196.17148483 402.8481131 196.17133881 401.53094299 196.17118835 400.17385864 C196.1709011 396.56050156 196.1767863 392.94717759 196.18376231 389.33382821 C196.19000772 385.55818108 196.19060059 381.78253321 196.19178772 378.00688171 C196.19489752 370.85649049 196.2031062 363.70611454 196.21313721 356.55573004 C196.22430922 348.41555144 196.22981154 340.27537211 196.23483264 332.13518775 C196.24528909 315.38959398 196.26363024 298.64402125 196.28515625 281.8984375 C180.11515625 281.8984375 163.94515625 281.8984375 147.28515625 281.8984375 C147.28515625 323.1484375 147.28515625 364.3984375 147.28515625 406.8984375 C158.17515625 406.8984375 169.06515625 406.8984375 180.28515625 406.8984375 C180.28515625 412.5084375 180.28515625 418.1184375 180.28515625 423.8984375 C152.56515625 423.8984375 124.84515625 423.8984375 96.28515625 423.8984375 C96.28515625 418.2884375 96.28515625 412.6784375 96.28515625 406.8984375 C107.17515625 406.8984375 118.06515625 406.8984375 129.28515625 406.8984375 C129.28515625 365.6484375 129.28515625 324.3984375 129.28515625 281.8984375 C113.11515625 281.8984375 96.94515625 281.8984375 80.28515625 281.8984375 C80.29562988 285.9618042 80.30610352 290.0251709 80.31689453 294.21166992 C80.3500036 307.62271003 80.37221548 321.0337495 80.38878059 334.44481945 C80.39909303 342.57757335 80.41315275 350.71028853 80.43603516 358.84301758 C80.45597002 365.93152734 80.46887293 373.02000906 80.47333324 380.10854608 C80.47594046 383.86184524 80.48206788 387.61506418 80.49661636 391.36833763 C80.51272595 395.55833876 80.51313587 399.74820042 80.51220703 403.93823242 C80.51939758 405.18260574 80.52658813 406.42697906 80.53399658 407.70906067 C80.53124725 408.85184479 80.52849792 409.99462891 80.52566528 411.17204285 C80.52750887 412.1629703 80.52935246 413.15389776 80.53125191 414.17485332 C80.26282595 417.14557089 79.65409147 419.25144586 78.28515625 421.8984375 C74.86893977 424.17591515 73.60913563 424.15921485 69.59204102 424.18896484 C67.83991051 424.2081044 67.83991051 424.2081044 66.05238342 424.22763062 C64.78986252 424.22985626 63.52734161 424.23208191 62.2265625 424.234375 C60.93072739 424.2410318 59.63489227 424.2476886 58.29978943 424.25454712 C55.55684071 424.26651885 52.81401792 424.27022803 50.07104492 424.26904297 C46.55908979 424.26883968 43.04794304 424.29615048 39.53617954 424.33058739 C36.18296133 424.35819358 32.82989294 424.3570052 29.4765625 424.359375 C28.21606583 424.37374603 26.95556915 424.38811707 25.65687561 424.40292358 C24.48563644 424.39677032 23.31439728 424.39061707 22.10766602 424.38427734 C20.56236961 424.3885524 20.56236961 424.3885524 18.9858551 424.39291382 C15.51143875 423.75677603 14.49462463 422.61240197 12.28515625 419.8984375 C11.79296494 417.51654434 11.79296494 417.51654434 11.80413818 414.8237915 C11.79863953 413.80018021 11.79314087 412.77656891 11.78747559 411.72193909 C11.80185669 410.60488083 11.81623779 409.48782257 11.83105469 408.33691406 C11.83047058 407.15614792 11.82988647 405.97538177 11.82928467 404.75883484 C11.83159291 401.52542646 11.85164374 398.29271175 11.8795805 395.05944157 C11.90459657 391.67887961 11.90693629 388.29830381 11.91168213 384.91766357 C11.92411139 378.51800018 11.95693202 372.11861032 11.99708009 365.71906734 C12.04618693 357.717712 12.06807366 349.71631218 12.08984375 341.71484375 C12.12879564 327.44249529 12.20892435 313.17074364 12.28515625 298.8984375 C-12.46484375 298.8984375 -37.21484375 298.8984375 -62.71484375 298.8984375 C-62.71484375 340.1484375 -62.71484375 381.3984375 -62.71484375 423.8984375 C-68.65484375 423.8984375 -74.59484375 423.8984375 -80.71484375 423.8984375 C-80.71484375 381.9884375 -80.71484375 340.0784375 -80.71484375 296.8984375 C-83.02484375 296.5684375 -85.33484375 296.2384375 -87.71484375 295.8984375 C-93.50140442 293.24836044 -98.51213162 289.68485965 -102.71484375 284.8984375 C-103.20597656 284.39828125 -103.69710937 283.898125 -104.203125 283.3828125 C-110.75132691 276.42839459 -113.82271412 267.56534695 -113.86201477 258.10057068 C-113.86917007 256.91615891 -113.87632538 255.73174713 -113.88369751 254.51144409 C-113.88638641 253.21530182 -113.88907532 251.91915955 -113.8918457 250.58374023 C-113.89811383 249.20199921 -113.90476094 247.82025986 -113.91175842 246.43852234 C-113.9327667 241.90303717 -113.94316052 237.36755181 -113.953125 232.83203125 C-113.95717432 231.26715643 -113.9612913 229.70228177 -113.96547508 228.1374073 C-113.9845228 220.78136566 -113.99875247 213.42533401 -114.00708705 206.06927246 C-114.01684623 197.59705849 -114.04313279 189.1251067 -114.08358794 180.65298504 C-114.11382909 174.09312428 -114.12856364 167.53333831 -114.13186806 160.97340924 C-114.13421021 157.06116372 -114.14306038 153.14919842 -114.16832924 149.23702812 C-114.19175443 145.55070109 -114.19578596 141.86483586 -114.18556786 138.17845345 C-114.18484301 136.19697209 -114.20383393 134.21551343 -114.22363281 132.23413086 C-114.15066594 119.58070146 -110.45133983 108.92239075 -101.609375 99.703125 C-95.21029303 93.73358554 -88.96481621 90.58230407 -80.71484375 87.8984375 C-81.22273438 87.32738281 -81.730625 86.75632812 -82.25390625 86.16796875 C-92.91129112 73.61460717 -98.47638884 58.8306013 -97.50390625 42.31640625 C-95.56873893 24.58954337 -88.29180262 10.49449582 -74.71484375 -1.1015625 C-51.66558694 -17.63369718 -22.35922844 -17.30829482 0 0 Z M-69.55859375 18.7734375 C-76.98478225 27.86672954 -80.33054489 38.99642514 -79.52734375 50.609375 C-77.90300908 62.41964166 -72.14437176 72.60607663 -62.71484375 79.8984375 C-51.7412166 86.78472174 -41.47789798 89.02561321 -28.71484375 86.8984375 C-25.85033962 86.20277221 -23.34882116 85.2154262 -20.71484375 83.8984375 C-19.91304687 83.49753906 -19.11125 83.09664063 -18.28515625 82.68359375 C-6.64115035 76.29531696 -0.98894436 67.42978021 2.8984375 54.92578125 C5.17418176 42.99536438 2.36348935 32.25447014 -4.0625 22.21484375 C-10.11312526 13.73252512 -19.11064837 7.18466761 -29.50390625 5.1484375 C-45.3284016 3.35909527 -58.24950395 7.27266821 -69.55859375 18.7734375 Z M105.79296875 20.6015625 C97.92162655 30.23514549 96.02140199 40.73635094 97.01025391 52.87402344 C98.44084526 63.40907094 105.16655017 72.96032691 113.31640625 79.51953125 C122.79719757 86.15984739 133.01810787 88.87244072 144.52734375 87.4296875 C155.76493158 85.2649397 164.69779929 79.80285829 171.9375 70.9296875 C179.22187364 59.95034173 181.22419083 47.51184389 178.63671875 34.68359375 C174.6392068 22.77647483 167.21901756 14.51121245 156.28515625 8.6484375 C137.72845375 0.01741308 118.87941907 5.66519512 105.79296875 20.6015625 Z M282.953125 18.640625 C275.19238331 29.14579759 272.22883706 39.96214498 273.28515625 52.8984375 C274.80097813 59.54292096 277.02931645 65.51605188 281.28515625 70.8984375 C281.68089844 71.44757813 282.07664062 71.99671875 282.484375 72.5625 C289.16073278 81.2475041 298.15613105 85.665456 308.8046875 87.5234375 C319.89575209 88.71843436 329.94766554 86.51728666 339.05078125 79.8828125 C348.53050101 71.76544768 354.69539031 62.50041744 356.09765625 50.0234375 C356.78377015 38.12085289 352.91064204 27.53982637 345.59765625 18.0859375 C338.36234918 10.35946076 328.60375556 5.53994435 318.12109375 4.62109375 C304.64112966 4.22648122 292.35202483 8.68359572 282.953125 18.640625 Z M-85.71484375 109.8984375 C-86.60171875 110.4346875 -87.48859375 110.9709375 -88.40234375 111.5234375 C-96.77788805 120.12534786 -96.86459278 130.69525501 -96.86010742 141.98730469 C-96.86346603 143.20106781 -96.86682465 144.41483093 -96.87028503 145.66537476 C-96.87814143 148.98378608 -96.88146172 152.30213482 -96.88210082 155.62055111 C-96.88281346 157.69811964 -96.88495187 159.77568168 -96.88759804 161.8532486 C-96.89684098 169.11375848 -96.90093437 176.37425005 -96.90014648 183.63476562 C-96.89954644 190.38187155 -96.91008653 197.12889734 -96.92589015 203.875983 C-96.93900755 209.6851332 -96.9443286 215.49425734 -96.94369107 221.30342221 C-96.94343726 224.76559092 -96.94622358 228.22768839 -96.95686913 231.68984222 C-96.96843672 235.55725675 -96.96377767 239.42456323 -96.95776367 243.29199219 C-96.96338318 244.42480621 -96.96900269 245.55762024 -96.97479248 246.72476196 C-96.92571123 259.18974914 -95.31400281 267.29927844 -86.40234375 276.2109375 C-79.5566133 280.50941941 -72.60258389 281.33637361 -64.66870117 281.26733398 C-63.22796234 281.2729837 -63.22796234 281.2729837 -61.75811768 281.27874756 C-59.68913432 281.2851454 -57.62012152 281.2848828 -55.55113792 281.27856255 C-52.27683846 281.26940972 -49.00310632 281.27972178 -45.72883606 281.29518127 C-36.42575884 281.33518151 -27.12272903 281.33647542 -17.81958008 281.33422852 C-12.11623009 281.3341775 -6.41318985 281.35329263 -0.7099247 281.38356209 C2.51648667 281.39440289 5.74231159 281.38225229 8.96870422 281.36973572 C10.94113756 281.37863606 12.91356607 281.38870902 14.88598633 281.40014648 C15.78318893 281.39040298 16.68039154 281.38065948 17.6047821 281.37062073 C18.43027557 281.38019806 19.25576904 281.38977539 20.10627747 281.39964294 C20.82096097 281.39943366 21.53564447 281.39922438 22.27198505 281.39900875 C25.23593556 282.13430742 26.43543255 283.51117663 28.28515625 285.8984375 C28.79296494 288.28033066 28.79296494 288.28033066 28.80413818 290.9730835 C28.81805099 291.99669479 28.83196381 293.02030609 28.84629822 294.07493591 C28.84126785 295.19199417 28.83623749 296.30905243 28.83105469 297.45996094 C28.84139236 298.64072708 28.85173004 299.82149323 28.86238098 301.03804016 C28.88681327 304.2713255 28.89364575 307.50407397 28.89266109 310.73743343 C28.89579041 314.11811323 28.92140889 317.49862078 28.94464111 320.87921143 C28.98520351 327.27874122 29.00554229 333.67816912 29.01861501 340.07780766 C29.03448432 347.36443117 29.07289956 354.65088124 29.11320829 361.93740416 C29.19561052 376.92438243 29.24672422 391.91126989 29.28515625 406.8984375 C40.17515625 406.8984375 51.06515625 406.8984375 62.28515625 406.8984375 C62.37558269 389.07816873 62.44921142 371.25809691 62.49240494 353.43766212 C62.51299688 345.16262196 62.54105271 336.88773486 62.58691406 328.61279297 C62.62688538 321.39715098 62.65261353 314.1816199 62.66151023 306.96587026 C62.66670765 303.14803224 62.67885229 299.3305114 62.70807648 295.51277542 C62.73540885 291.91270438 62.74356575 288.31307846 62.73758698 284.71291351 C62.73919662 282.77531733 62.76062561 280.83776862 62.78283691 278.90029907 C62.74206198 270.18790487 61.57637606 262.88254569 55.91015625 256.0234375 C48.28230674 249.84851171 41.85207189 247.58796018 32.02661133 247.64306641 C31.23222153 247.63944595 30.43783173 247.6358255 29.61936951 247.63209534 C27.9066717 247.62523842 26.19395222 247.6226889 24.48124123 247.62404251 C21.77003437 247.6250124 19.05921888 247.61201359 16.34806824 247.59506226 C8.64426618 247.54891192 0.94050798 247.52416392 -6.76342773 247.51757812 C-11.48546349 247.51256925 -16.20708451 247.4883608 -20.92897987 247.45225143 C-22.72589951 247.44244789 -24.52287612 247.44012452 -26.31981468 247.44542313 C-28.82849077 247.45247848 -31.3359239 247.43524747 -33.84448242 247.41259766 C-34.58586456 247.42077011 -35.3272467 247.42894257 -36.09109497 247.43736267 C-39.29237619 247.38587592 -41.42045668 247.07796878 -44.17262268 245.39956665 C-46.38236869 241.81586502 -46.28616225 238.45174125 -46.26074219 234.36621094 C-46.27107986 233.50731262 -46.28141754 232.64841431 -46.29206848 231.76348877 C-46.32153684 228.92807289 -46.3229965 226.09336959 -46.32421875 223.2578125 C-46.33919768 221.2905338 -46.35592422 219.3232677 -46.37432861 217.35601807 C-46.41804657 212.18078031 -46.43801111 207.00571221 -46.45306396 201.83032227 C-46.47261899 196.54823761 -46.51459081 191.2663366 -46.5546875 185.984375 C-46.63003803 175.62242134 -46.67822833 165.26060052 -46.71484375 154.8984375 C-40.77484375 154.8984375 -34.83484375 154.8984375 -28.71484375 154.8984375 C-28.71484375 179.6484375 -28.71484375 204.3984375 -28.71484375 229.8984375 C9.56515625 229.8984375 47.84515625 229.8984375 87.28515625 229.8984375 C87.28515625 221.9784375 87.28515625 214.0584375 87.28515625 205.8984375 C84.67061523 205.8890918 82.05607422 205.87974609 79.36230469 205.87011719 C70.72880298 205.83636667 62.0955408 205.78082859 53.46223068 205.71453476 C48.22724901 205.67500694 42.99243688 205.6428445 37.75732422 205.62744141 C32.70615838 205.61230976 27.6554585 205.57792645 22.60449982 205.53012848 C20.67641497 205.51527859 18.74826361 205.50739442 16.82012177 205.50655365 C14.12143638 205.50419307 11.42404827 205.47718762 8.72558594 205.44433594 C7.52688622 205.45188148 7.52688622 205.45188148 6.30397034 205.45957947 C2.92213642 205.39578435 0.66819651 205.14241984 -2.21122742 203.30833435 C-4.26879551 200.01060024 -4.21363887 197.67303315 -4.21313477 193.79418945 C-4.21865356 193.08629776 -4.22417236 192.37840607 -4.2298584 191.64906311 C-4.23916927 190.11477237 -4.23929102 188.58040434 -4.23126411 187.04610634 C-4.2186152 184.61076602 -4.2299426 182.17655625 -4.24729919 179.74125671 C-4.27401566 175.44236601 -4.27959495 171.14375234 -4.27819824 166.8447876 C-4.27597189 159.98238106 -4.29031757 153.12032014 -4.3337841 146.2580471 C-4.34355775 143.87116931 -4.3349357 141.48484248 -4.3250885 139.09797668 C-4.33851605 129.91469407 -4.38087496 120.87177911 -10.83984375 113.5859375 C-11.61714844 112.66361328 -11.61714844 112.66361328 -12.41015625 111.72265625 C-19.69672285 105.95515353 -27.08759332 105.30124228 -36.125 105.3671875 C-37.29187851 105.3633606 -38.45875702 105.35953369 -39.66099548 105.35559082 C-42.11588408 105.35288115 -44.57080201 105.36017567 -47.02563477 105.37695312 C-50.76970075 105.39839373 -54.5118521 105.37710713 -58.25585938 105.3515625 C-60.64974379 105.35420556 -63.04362702 105.35933009 -65.4375 105.3671875 C-66.54916031 105.35909058 -67.66082062 105.35099365 -68.8061676 105.34265137 C-75.5887719 105.4239848 -79.90249012 106.36320454 -85.71484375 109.8984375 Z M73.03515625 120.2734375 C64.66987905 130.08213507 62.95408167 140.21734747 63.08984375 152.83984375 C63.09267365 153.84812729 63.09550354 154.85641083 63.09841919 155.89524841 C63.10952448 159.08393733 63.1346108 162.27233491 63.16015625 165.4609375 C63.17019853 167.63606362 63.17932219 169.81119419 63.1875 171.98632812 C63.20943209 177.2904623 63.24281214 182.59442907 63.28515625 187.8984375 C64.25340332 187.91825684 65.22165039 187.93807617 66.21923828 187.95849609 C69.83130727 188.03489968 73.44299157 188.12356175 77.0546875 188.21582031 C78.61418023 188.25396711 80.17375665 188.28884432 81.73339844 188.3203125 C83.98272499 188.36627575 86.2314824 188.42421558 88.48046875 188.484375 C89.17133575 188.49592621 89.86220276 188.50747742 90.57400513 188.51937866 C94.80963962 188.6468502 98.42407734 189.10622775 102.28515625 190.8984375 C105.10298966 194.28636461 104.63412219 198.73204159 104.69921875 202.9453125 C104.71686279 203.62932129 104.73450684 204.31333008 104.75268555 205.01806641 C104.81551943 207.56128893 104.86186698 210.10489724 104.91015625 212.6484375 C105.03390625 218.3409375 105.15765625 224.0334375 105.28515625 229.8984375 C127.06515625 229.8984375 148.84515625 229.8984375 171.28515625 229.8984375 C171.53457464 218.56027046 171.53457464 218.56027046 171.76318359 207.22167969 C171.79840194 205.79620519 171.83432457 204.37074784 171.87109375 202.9453125 C171.88245361 202.21006348 171.89381348 201.47481445 171.90551758 200.71728516 C172.10898924 193.51487862 172.10898924 193.51487862 174.28515625 190.8984375 C178.78358034 188.81038914 183.20529673 188.56604401 188.08984375 188.484375 C189.17581345 188.45532578 189.17581345 188.45532578 190.28372192 188.4256897 C192.57575023 188.36633864 194.86782999 188.31968872 197.16015625 188.2734375 C198.72267706 188.23521663 200.28517773 188.19616256 201.84765625 188.15625 C205.6599909 188.06067442 209.47242405 187.97648144 213.28515625 187.8984375 C213.36180557 181.54882625 213.41400523 175.19933622 213.44995117 168.84936523 C213.46495119 166.6933954 213.48535786 164.53745563 213.51147461 162.3815918 C213.54824695 159.26603738 213.56497094 156.15088962 213.578125 153.03515625 C213.59360886 152.08573654 213.60909271 151.13631683 213.62504578 150.15812683 C213.62826475 137.08687905 209.43026871 126.18187701 200.53515625 116.5859375 C196.28980662 112.56017492 191.64636133 110.14668479 186.28515625 107.8984375 C185.31578125 107.4653125 184.34640625 107.0321875 183.34765625 106.5859375 C180.28738211 105.89893718 177.72070226 105.83015861 174.59375 105.85546875 C173.10379517 105.86477417 173.10379517 105.86477417 171.58374023 105.87426758 C170.82520752 105.88224365 170.0666748 105.89021973 169.28515625 105.8984375 C167.66394021 110.13264148 167.66394021 110.13264148 166.04377747 114.36724854 C164.5978797 118.14774272 163.14968595 121.92732876 161.69726562 125.70532227 C158.787195 133.28515472 155.91359302 140.87381914 153.1484375 148.5078125 C152.42440454 150.48694517 151.69900593 152.46557111 150.97305298 154.44400024 C150.29572438 156.30687175 149.63635654 158.17624208 148.97729492 160.0456543 C148.56326416 161.17140869 148.1492334 162.29716309 147.72265625 163.45703125 C147.37074219 164.43986084 147.01882813 165.42269043 146.65625 166.43530273 C144.96302709 169.47713428 143.4375797 170.48277693 140.28515625 171.8984375 C136.66015625 171.8359375 136.66015625 171.8359375 133.28515625 170.8984375 C130.57094227 167.95994069 129.31422493 164.78279559 127.94091797 161.06005859 C127.28541458 159.29835831 127.28541458 159.29835831 126.6166687 157.50106812 C126.14928597 156.22470986 125.6820136 154.94831119 125.21484375 153.671875 C124.7288941 152.35936171 124.24232266 151.04707848 123.75515747 149.73501587 C122.47733451 146.28886442 121.20730074 142.83989512 119.93908691 139.39019775 C118.39464638 135.19314853 116.84179806 130.99920486 115.2894001 126.80509377 C114.08226725 123.54364433 112.87666779 120.28165776 111.67575073 117.01791382 C111.2450528 115.84975128 110.81435486 114.68158875 110.37060547 113.47802734 C109.99104706 112.44640472 109.61148865 111.4147821 109.22042847 110.35189819 C108.34811446 107.94161728 108.34811446 107.94161728 107.28515625 105.8984375 C92.87796622 104.89522891 82.73337661 109.89652032 73.03515625 120.2734375 Z M126.28515625 105.8984375 C128.61471894 113.78217989 128.61471894 113.78217989 131.328125 121.46875 C131.8550293 122.84160156 131.8550293 122.84160156 132.39257812 124.2421875 C132.74900391 125.16 133.10542969 126.0778125 133.47265625 127.0234375 C133.84068359 127.97992188 134.20871094 128.93640625 134.58789062 129.921875 C135.4837107 132.24868039 136.38283398 134.57414771 137.28515625 136.8984375 C137.94515625 136.8984375 138.60515625 136.8984375 139.28515625 136.8984375 C140.85595283 132.80661874 142.42241956 128.71317734 143.98486328 124.61816406 C144.51719835 123.22480382 145.05072202 121.8318971 145.58544922 120.43945312 C146.35305381 118.43997844 147.11639413 116.43892133 147.87890625 114.4375 C148.33974609 113.23303223 148.80058594 112.02856445 149.27539062 110.78759766 C150.39513329 108.09385829 150.39513329 108.09385829 150.28515625 105.8984375 C142.36515625 105.8984375 134.44515625 105.8984375 126.28515625 105.8984375 Z M285.45387268 115.9967804 C280.60463911 123.8871285 280.86807103 132.47345455 280.9050312 141.43224525 C280.91422209 143.86648756 280.90383104 146.29997292 280.88841248 148.73417664 C280.84851094 155.64772558 280.84711903 162.56120845 280.84936523 169.47485352 C280.84941629 173.71938103 280.83028197 177.96349307 280.80003166 182.20790672 C280.78921288 184.60342126 280.80132568 186.99814209 280.81385803 189.39363098 C280.80495636 190.86049182 280.79488293 192.32734618 280.78344727 193.79418945 C280.78361343 195.07276321 280.7837796 196.35133698 280.78395081 197.6686554 C280.28515625 200.8984375 280.28515625 200.8984375 278.78153992 203.30833435 C275.23178432 205.56939607 271.92318993 205.47000896 267.84472656 205.44433594 C266.57100945 205.45984245 266.57100945 205.45984245 265.27156067 205.47566223 C262.46860817 205.50512837 259.66637657 205.5065902 256.86328125 205.5078125 C254.91842264 205.52279158 252.97357677 205.53951816 251.02874756 205.55792236 C245.91269349 205.6016386 240.79681103 205.62160447 235.68060303 205.63665771 C230.45884028 205.65621336 225.23726328 205.69818511 220.015625 205.73828125 C209.77216121 205.81362992 199.5288318 205.86182138 189.28515625 205.8984375 C189.28515625 213.8184375 189.28515625 221.7384375 189.28515625 229.8984375 C227.56515625 229.8984375 265.84515625 229.8984375 305.28515625 229.8984375 C305.28515625 205.1484375 305.28515625 180.3984375 305.28515625 154.8984375 C311.22515625 154.8984375 317.16515625 154.8984375 323.28515625 154.8984375 C323.24485619 166.30335562 323.18782916 177.70785191 323.10125351 189.1125145 C323.06172478 194.40803019 323.02956278 199.70337825 323.01416016 204.99902344 C322.99902912 210.10854144 322.96464687 215.21759874 322.91684723 220.32691193 C322.90199671 222.27732593 322.89411314 224.2278057 322.8932724 226.17827606 C322.89091201 228.90808881 322.86390799 231.63661873 322.83105469 234.36621094 C322.83860023 235.57893677 322.83860023 235.57893677 322.84629822 236.81616211 C322.78334853 240.19124966 322.52872375 242.5041279 320.7389679 245.40155029 C317.35470214 247.46603805 314.32485149 247.4400655 310.47827148 247.38085938 C309.69556381 247.38477188 308.91285614 247.38868439 308.10643005 247.39271545 C306.40842429 247.39868776 304.71036734 247.39552521 303.01238823 247.3842926 C300.31609644 247.36701025 297.62087527 247.37455179 294.92457581 247.3885498 C288.22279214 247.4181872 281.5212125 247.40506563 274.81939697 247.39337158 C269.16341245 247.38512932 263.50789508 247.39327957 257.85197639 247.42250061 C255.21135145 247.4295406 252.57157316 247.41297938 249.93101501 247.39538574 C239.8932481 247.39749382 230.66250157 247.69008029 222.41015625 254.1484375 C217.18770514 260.90690365 214.15702007 265.94864439 214.16490173 274.61846924 C214.16352707 275.78512115 214.1621524 276.95177307 214.16073608 278.15377808 C214.16433136 279.42979889 214.16792664 280.7058197 214.17163086 282.02050781 C214.171913 283.38068642 214.17175448 284.74086518 214.17118835 286.1010437 C214.17090142 289.79078515 214.17678138 293.4804941 214.18376231 297.170228 C214.19001312 301.02728168 214.19060102 304.88433609 214.19178772 308.74139404 C214.19489593 316.04404048 214.20310246 323.34667194 214.21313721 330.64931178 C214.22431416 338.96363364 214.22981279 347.27795622 214.23483264 355.59228373 C214.24528549 372.69434513 214.26362465 389.79638591 214.28515625 406.8984375 C225.17515625 406.8984375 236.06515625 406.8984375 247.28515625 406.8984375 C247.29450195 403.25393555 247.30384766 399.60943359 247.31347656 395.85449219 C247.34720675 383.82833797 247.40253161 371.80237483 247.46905899 359.77636337 C247.50887477 352.48322936 247.54125426 345.19020365 247.55615234 337.89697266 C247.56915582 331.54045076 247.59608671 325.1841669 247.63976932 318.82777905 C247.66241399 315.46180384 247.67806517 312.09612254 247.6770401 308.73006439 C247.67939591 304.97299701 247.70636588 301.21686746 247.73925781 297.45996094 C247.73171227 295.78437355 247.73171227 295.78437355 247.72401428 294.07493591 C247.73792709 293.05132462 247.7518399 292.02771332 247.76617432 290.9730835 C247.77170507 289.64017084 247.77170507 289.64017084 247.77734756 288.28033066 C248.46101964 285.07354457 249.71162029 283.87786988 252.28515625 281.8984375 C254.29274082 281.40180206 254.29274082 281.40180206 256.45057678 281.40637207 C257.27317993 281.3982399 258.09578308 281.39010773 258.9433136 281.38172913 C259.83737411 281.39304367 260.73143463 281.40435822 261.65258789 281.41601562 C263.07536545 281.41014687 263.07536545 281.41014687 264.52688599 281.40415955 C266.58666888 281.39818217 268.64649397 281.40135882 270.70625496 281.4125824 C273.97376958 281.42983778 277.2403987 281.42233749 280.50791931 281.4083252 C288.62878052 281.37866214 296.74947375 281.39182496 304.87036133 281.40350342 C311.72413505 281.4117331 318.57752282 281.40364805 325.43124199 281.37437439 C328.63686983 281.36731618 331.8418053 281.38391887 335.04737854 281.40148926 C350.78184556 281.79034204 350.78184556 281.79034204 364.45423889 274.98571777 C373.14131912 265.97190643 373.43514686 255.71030867 373.43041992 243.79370117 C373.43377853 242.57833176 373.43713715 241.36296234 373.44059753 240.11076355 C373.44845357 236.78828729 373.45177417 233.46587354 373.45241332 230.14339232 C373.45312589 228.06382148 373.45526412 225.98425711 373.45791054 223.90468788 C373.46715265 216.63884696 373.47124689 209.37302434 373.47045898 202.10717773 C373.46985866 195.35209946 373.48040446 188.59710115 373.49620265 181.8420431 C373.50931219 176.02781304 373.51464144 170.21360901 373.51400357 164.39936429 C373.51374957 160.93331512 373.51654663 157.46733707 373.52718163 154.00130272 C373.53873276 150.13128967 373.53409493 146.26138486 373.52807617 142.39135742 C373.53369568 141.25494812 373.53931519 140.11853882 373.54510498 138.94769287 C373.50402032 128.52703493 372.39343139 119.92441118 365.28515625 111.8984375 C360.23145867 107.88605001 355.63807794 105.79606992 349.14624023 105.70556641 C348.09762314 105.68950348 347.04900604 105.67344055 345.96861267 105.65689087 C341.15803755 105.61225973 336.34759939 105.5713473 331.53686523 105.54833984 C329.00649798 105.53181949 326.47617664 105.50458197 323.94604492 105.46630859 C320.2867017 105.41126648 316.62845267 105.38961946 312.96875 105.375 C311.2885099 105.34099594 311.2885099 105.34099594 309.57432556 105.30630493 C299.88284216 105.33210258 291.47314976 108.01441623 285.45387268 115.9967804 Z M72.28515625 247.8984375 C73.93515625 251.5284375 75.58515625 255.1584375 77.28515625 258.8984375 C77.94515625 260.5484375 78.60515625 262.1984375 79.28515625 263.8984375 C118.22515625 263.8984375 157.16515625 263.8984375 197.28515625 263.8984375 C199.76015625 257.9584375 199.76015625 257.9584375 202.28515625 251.8984375 C202.94515625 250.5784375 203.60515625 249.2584375 204.28515625 247.8984375 C160.72515625 247.8984375 117.16515625 247.8984375 72.28515625 247.8984375 Z " fill="#000000" transform="translate(117.71484375,88.1015625)"/>
<path d="M0 0 C1.05990143 -0.0112793 2.11980286 -0.02255859 3.21182251 -0.03417969 C4.94811417 -0.0220343 4.94811417 -0.0220343 6.71948242 -0.00964355 C8.55414566 -0.02015747 8.55414566 -0.02015747 10.4258728 -0.03088379 C13.77738497 -0.04547326 17.12790947 -0.04205354 20.4793663 -0.02936745 C23.98755973 -0.01923584 27.49571115 -0.02863356 31.00390625 -0.03491211 C36.89517794 -0.04218809 42.78624901 -0.03260228 48.67749023 -0.0135498 C55.48728799 0.00821908 62.29660671 0.00116766 69.10639286 -0.02085543 C74.95451233 -0.03901101 80.80248764 -0.04156705 86.65062618 -0.03110075 C90.1428659 -0.02486659 93.63488049 -0.02402777 97.12710571 -0.0372467 C101.02006634 -0.05095337 104.91249099 -0.03195279 108.80541992 -0.00964355 C109.96294769 -0.01774048 111.12047546 -0.0258374 112.31307983 -0.03417969 C113.90293198 -0.01726074 113.90293198 -0.01726074 115.52490234 0 C116.90532967 0.00226215 116.90532967 0.00226215 118.31364441 0.00457001 C121.51812592 0.66326732 122.70428928 2.02500925 124.76245117 4.50793457 C125.94901679 6.8810658 125.89538457 8.33848718 125.90771484 10.98596191 C125.9140947 11.91387543 125.92047455 12.84178894 125.92704773 13.79782104 C125.92871696 15.3056163 125.92871696 15.3056163 125.93041992 16.84387207 C125.93374832 17.87476959 125.93707672 18.90566711 125.94050598 19.96780396 C125.94557542 22.1517492 125.9479143 24.3357022 125.94775391 26.51965332 C125.94993765 29.86223122 125.96808576 33.20447773 125.98706055 36.54699707 C125.98999499 38.66678761 125.99197945 40.78657971 125.99291992 42.90637207 C126.00010544 43.90752045 126.00729095 44.90866882 126.01469421 45.94015503 C126.01161758 46.87437286 126.00854095 47.8085907 126.00537109 48.77111816 C126.00679611 49.59115326 126.00822113 50.41118835 126.00968933 51.256073 C125.73029591 53.80080681 125.14144364 55.35654909 123.76245117 57.50793457 C119.75501989 60.17955542 116.42325155 59.57114951 111.80151367 59.35949707 C85.31622035 57.9542722 85.31622035 57.9542722 62.92700195 70.25256348 C61.5489865 71.63121794 60.19076652 73.03001934 58.85571289 74.45031738 C53.04145746 80.16556637 46.99888188 84.48349257 38.83276367 84.93371582 C35.55117777 84.25882362 34.62643133 83.32047352 32.76245117 80.50793457 C32.27115309 76.91259534 32.38712627 73.37789625 32.51245117 69.75793457 C32.53049805 68.77437988 32.54854492 67.7908252 32.56713867 66.77746582 C32.61420992 64.35329674 32.67994375 61.93111398 32.76245117 59.50793457 C31.66779541 59.53411865 30.57313965 59.56030273 29.4453125 59.58728027 C25.37341859 59.67796676 21.30161341 59.73525006 17.22900391 59.78259277 C15.46843441 59.80769518 13.7079687 59.84178485 11.94775391 59.88513184 C9.41306938 59.94597572 6.87976542 59.9741857 4.34448242 59.99621582 C3.16919731 60.03492546 3.16919731 60.03492546 1.97016907 60.07441711 C-1.90051271 60.07639145 -3.86120828 59.73712339 -7.23461914 57.68273926 C-10.22125537 52.94868056 -9.93545933 48.71541724 -9.86645508 43.22277832 C-9.86886703 42.12953751 -9.87127899 41.03629669 -9.87376404 39.90992737 C-9.87278596 37.60263434 -9.85940187 35.29531774 -9.83447266 32.98815918 C-9.80013428 29.45422836 -9.81382491 25.92279379 -9.83325195 22.38879395 C-9.82635439 20.14594475 -9.81668283 17.90310201 -9.80395508 15.66027832 C-9.80891495 14.60291977 -9.81387482 13.54556122 -9.81898499 12.4561615 C-9.80314865 11.47156448 -9.78731232 10.48696747 -9.77099609 9.47253418 C-9.76479752 8.60825302 -9.75859894 7.74397186 -9.75221252 6.85350037 C-8.59475423 1.57841567 -5.03605668 0.00825276 0 0 Z M7.76245117 17.50793457 C7.76245117 25.42793457 7.76245117 33.34793457 7.76245117 41.50793457 C11.35700195 41.58141113 11.35700195 41.58141113 15.02416992 41.65637207 C17.35422822 41.71043753 19.68418673 41.76772306 22.01416016 41.82531738 C23.62899287 41.86351529 25.24390801 41.89838402 26.85888672 41.92980957 C29.18511335 41.97566066 31.51077709 42.03362041 33.83666992 42.09387207 C34.55457199 42.10542328 35.27247406 42.11697449 36.01213074 42.12887573 C41.1747187 42.27965453 45.03865985 42.78414325 48.76245117 46.50793457 C49.17651367 49.10949707 49.17651367 49.10949707 49.38745117 52.13293457 C49.4622168 53.1358252 49.53698242 54.13871582 49.61401367 55.17199707 C49.66299805 55.94285645 49.71198242 56.71371582 49.76245117 57.50793457 C52.64278789 56.15005008 55.16061872 54.59876849 57.73120117 52.72277832 C58.46725586 52.1923291 59.20331055 51.66187988 59.96166992 51.11535645 C61.49738317 50.00072586 63.03123708 48.88352908 64.56323242 47.76379395 C65.29928711 47.23463379 66.0353418 46.70547363 66.79370117 46.16027832 C67.45950195 45.67551025 68.12530273 45.19074219 68.8112793 44.69128418 C73.05478621 42.11767582 77.52654288 42.30701316 82.37182617 42.19152832 C83.46204071 42.16035667 83.46204071 42.16035667 84.57427979 42.1285553 C86.88691108 42.06337945 89.1996521 42.00432417 91.51245117 41.94543457 C93.08407692 41.90221891 94.65569173 41.85860365 96.22729492 41.8145752 C100.07223637 41.7069818 103.91726582 41.60767172 107.76245117 41.50793457 C107.76245117 33.58793457 107.76245117 25.66793457 107.76245117 17.50793457 C74.76245117 17.50793457 41.76245117 17.50793457 7.76245117 17.50793457 Z " fill="#000000" transform="translate(97.237548828125,-0.5079345703125)"/>
<path d="M0 0 C5.94 0 11.88 0 18 0 C18 5.94 18 11.88 18 18 C12.06 18 6.12 18 0 18 C0 12.06 0 6.12 0 0 Z " fill="#000000" transform="translate(247,276)"/>
<path d="M0 0 C5.94 0 11.88 0 18 0 C18 5.61 18 11.22 18 17 C12.06 17 6.12 17 0 17 C0 11.39 0 5.78 0 0 Z " fill="#000000" transform="translate(331,25)"/>
<path d="M0 0 C5.94 0 11.88 0 18 0 C18 5.61 18 11.22 18 17 C12.06 17 6.12 17 0 17 C0 11.39 0 5.78 0 0 Z " fill="#000000" transform="translate(297,25)"/>
<path d="M0 0 C5.61 0 11.22 0 17 0 C17 5.61 17 11.22 17 17 C11.39 17 5.78 17 0 17 C0 11.39 0 5.78 0 0 Z " fill="#000000" transform="translate(365,25)"/>
</svg>
