<?xml version="1.0" encoding="UTF-8"?>
<svg version="1.1" xmlns="http://www.w3.org/2000/svg" width="512" height="512">
<path d="M0 0 C8.1294127 5.51800493 14.78438855 13.96860214 21.44216919 21.12402344 C26.80737784 26.88717627 32.26017789 32.56550277 37.71737862 38.24142456 C41.8365264 42.53312994 45.92252377 46.84857443 49.94628906 51.22998047 C69.50345184 74.44723295 69.50345184 74.44723295 96.56430054 84.74658203 C101.71076525 84.75026664 106.7553406 84.18198419 111.8361969 83.3863678 C134.80795154 80.58102689 158.47795423 95.82471751 176 109 C179.25118939 107.54687246 181.62914259 105.70150332 184.3125 103.375 C199.13369469 91.40069168 218.94995705 83.90816861 238 83 C239.50631807 83.16830757 241.00905956 83.37227775 242.50585938 83.61083984 C249.89457703 84.52613828 255.94593671 84.07409153 262.24316406 79.79748535 C270.44987309 73.18148936 277.57584023 65.25622224 284.71929932 57.53741455 C288.27420564 53.71956091 291.90223913 49.97134632 295.51877594 46.21201134 C298.32771508 43.28932897 301.12522073 40.35809274 303.89147949 37.39492798 C304.65498466 36.58211617 304.65498466 36.58211617 305.43391418 35.75288391 C306.80249366 34.29427812 308.16544504 32.83039727 309.5279541 31.36611938 C313.00639024 28.03673332 315.64874746 26.19654582 320.4375 25.5 C325.11343956 26.15627222 326.90068236 27.4579227 330 31 C330.98247222 33.72238113 331.39714989 36.12746381 331 39 C328.77208794 43.3326813 325.70479086 46.57396793 322.27514648 49.96777344 C321.70246033 50.54235794 321.12977417 51.11694244 320.53973389 51.7089386 C318.65503071 53.59733155 316.76325079 55.47845317 314.87109375 57.359375 C313.55701336 58.67226277 312.24330299 59.98552098 310.9299469 61.2991333 C308.18172355 64.04579504 305.43018013 66.78907126 302.67602539 69.52978516 C299.14108841 73.04769096 295.61281192 76.57218567 292.08676052 80.09899521 C289.37709381 82.80839047 286.66483242 85.51517531 283.95167732 88.22107697 C282.64928214 89.52028504 281.34749609 90.82010402 280.04632378 92.1205368 C278.23187239 93.93282746 276.41417121 95.74179133 274.59545898 97.54980469 C274.0556691 98.09004776 273.51587921 98.63029083 272.95973206 99.18690491 C268.73207823 103.3781216 266.90245317 104.11727317 260.98828125 104.2109375 C239.24372835 104.67395243 219.79065463 105.88768378 201.2421875 118.546875 C199 120 199 120 196 121 C198.42757562 123.62987359 200.94269349 125.67083709 203.875 127.6875 C208.45335029 131.02266529 211.1614989 135.16164585 214 140 C217.7816764 138.61429547 220.97498582 136.835128 224.375 134.6875 C236.09814993 127.76608307 250.00918829 123.47230331 263.68009949 124.22767639 C275.16548588 124.79192999 285.0911221 125.07407742 294.3876543 117.5901556 C298.82024758 113.51041907 302.91488157 109.18049478 306.98828125 104.74609375 C308.80146272 102.88054638 310.62103145 101.02118807 312.44657898 99.16773987 C316.70429449 94.81494241 320.89397543 90.4059846 325.05530757 85.96122557 C329.80608385 80.89434242 334.63941359 75.90944402 339.48026717 70.92879379 C349.41252215 60.70607536 359.24048952 50.38763392 369 40 C376.39863381 46.27151663 376.39863381 46.27151663 379.45678711 49.34326172 C380.0368602 49.92341034 380.61693329 50.50355896 381.21458435 51.10128784 C381.81279495 51.70465973 382.41100555 52.30803162 383.02734375 52.9296875 C383.66112442 53.56488312 384.29490509 54.20007874 384.94789124 54.85452271 C386.94681406 56.85898716 388.94220784 58.86692214 390.9375 60.875 C392.30250133 62.24502389 393.6677336 63.61481774 395.03320312 64.984375 C398.35814211 68.32026543 401.67992353 71.65927036 405 75 C407.22797953 73.9412494 408.9306438 73.06440219 410.75 71.375 C414.06151411 69.35129693 417.27498305 69.31264568 421 70 C424.39318202 72.16586087 426.50248857 73.82221412 427.4140625 77.8125 C427.76286133 81.42967302 427.64113614 84.05544479 425.5612793 87.11959839 C419.28303741 93.87132591 412.62365064 100.16377802 405.87597656 106.44216919 C400.11282373 111.80737784 394.43449723 117.26017789 388.75857544 122.71737862 C384.46687006 126.8365264 380.15142557 130.92252377 375.77001953 134.94628906 C352.55276705 154.50345184 352.55276705 154.50345184 342.25341797 181.56430054 C342.24973337 186.71075648 342.81800343 191.75532265 343.61364746 196.83616638 C346.13601959 217.4918239 333.16349015 238.94060737 322.18338013 255.24179077 C320.94683024 257.07899707 319.71417907 258.918774 318.48217773 260.7590332 C316.24536977 264.09850802 314.00133943 267.43304893 311.75390625 270.76538086 C310.82936929 272.13794502 309.90653546 273.51165782 308.98535156 274.88647461 C295.64381353 294.79285908 295.64381353 294.79285908 288.9375 297.875 C288.12152344 298.26429688 287.30554688 298.65359375 286.46484375 299.0546875 C281.62273643 300.91172391 277.16907156 301.1950593 272 301 C271.34 300.67 270.68 300.34 270 300 C270.00999275 301.24003029 270.00999275 301.24003029 270.02018738 302.50511169 C270.08080266 310.37292135 270.1262269 318.24065033 270.15543652 326.10864162 C270.17095926 330.15171368 270.19194577 334.1945896 270.22631836 338.23754883 C270.25939846 342.15389437 270.27695305 346.07005371 270.28463173 349.9865284 C270.29008951 351.4657388 270.30074068 352.94494136 270.31719017 354.42407036 C270.60554178 381.47840977 263.16143977 408.11434834 244 428 C242.94425781 428.77730469 241.88851563 429.55460937 240.80078125 430.35546875 C235.98454599 434.00170225 232.5422147 437.01301474 231.42138672 443.1875 C230.81715641 450.48149315 230.89935536 457.74596259 231.24194336 465.05249023 C230.96032223 468.48338015 230.02848262 470.25040144 228 473 C225.35582586 474.73523928 224.21534057 475 221 475 C221 480.61 221 486.22 221 492 C222.98 492.33 224.96 492.66 227 493 C229.63106699 495.97726002 230.84604497 498.07626982 231.5 502 C230.86619108 505.80285351 229.37421663 507.99731426 227 511 C223.51931002 512.74034499 219.79742402 512.58371457 216 512 C211.62647282 508.81096977 211.08620718 507.43103592 210 502 C188.22 502 166.44 502 144 502 C144.350625 491.625625 144.70125 481.25125 145.0625 470.5625 C146.07534386 446.00497149 146.07534386 446.00497149 136.00007629 424.57460022 C131.47937585 420.05836014 126.26648597 416.48899663 120.88916016 413.07641602 C116.369385 409.8280902 113.74574317 405.76943938 111 401 C110.60506348 400.34531738 110.21012695 399.69063477 109.80322266 399.01611328 C105.6121311 391.80851588 102.55559845 384.35088803 100.52734375 376.2734375 C100.31841995 375.45906723 100.10949615 374.64469696 99.89424133 373.8056488 C97.7198655 365.16434962 95.90526593 356.45416635 94.20483398 347.70874023 C93.68248621 345.0368537 93.1413848 342.36917863 92.59960938 339.70117188 C90.95160401 331.39644209 89.55315023 323.5329145 89.96801758 315.01733398 C89.97857178 314.35161377 89.98912598 313.68589355 90 313 C88.90076459 311.69253291 88.90076459 311.69253291 86.1875 311.6875 C83.01079367 311.79194646 83.01079367 311.79194646 80.5625 313.3125 C76.80792357 319.77037145 80.48469065 330.36783478 81.890625 337.42578125 C82.07711609 338.37583542 82.26360718 339.32588959 82.45574951 340.30473328 C82.84951749 342.29936804 83.24630168 344.29340958 83.64599609 346.28686523 C84.24601559 349.29254089 84.82850847 352.3012694 85.41015625 355.31054688 C90.74346032 382.39025877 100.40916788 399.69432048 119.9453125 418.8828125 C120.58259277 419.51123047 121.21987305 420.13964844 121.87646484 420.78710938 C123.09471244 421.98217946 124.32122282 423.16890414 125.55712891 424.34570312 C126.11062012 424.88388672 126.66411133 425.42207031 127.234375 425.9765625 C127.72131836 426.44143066 128.20826172 426.90629883 128.70996094 427.38525391 C132.01626429 431.52376458 132.25513104 435.75153648 132.2746582 440.89819336 C132.27976913 441.57203568 132.28488007 442.24587799 132.29014587 442.94013977 C132.30399034 445.15679934 132.30308909 447.37314621 132.30078125 449.58984375 C132.30467093 451.13774225 132.30900617 452.6856397 132.31376648 454.23353577 C132.32121755 457.47400374 132.32094546 460.71436274 132.31567383 463.95483398 C132.30987974 468.09862049 132.3268138 472.24195995 132.3500185 476.38567257 C132.36478057 479.58137094 132.36562421 482.77696224 132.36250877 485.97268867 C132.36302071 487.50004525 132.36823453 489.02740801 132.37832069 490.55473137 C132.39071672 492.6942503 132.38387556 494.83290605 132.37231445 496.97241211 C132.37294388 498.1875499 132.3735733 499.40268768 132.3742218 500.65464783 C131.95415987 504.4097874 130.98379364 506.79850516 129 510 C124.99745384 512.66836411 121.70686701 512.8340238 117 512 C114.24430553 509.81840855 112.56411253 508.12822506 111 505 C110.99225259 503.05118365 111.05254133 501.10196737 111.14379883 499.15527344 C111.40124042 492.95321842 111.56769422 486.75733488 111.66658497 480.55076218 C111.73151985 476.80265366 111.8348658 473.06446214 112.03198242 469.32080078 C113.29724931 450.02094073 113.29724931 450.02094073 105.16699219 433.22412109 C100.69810783 428.35092038 95.64487207 424.17722225 90.46948242 420.07421875 C85.45985353 415.86642764 82.1815514 410.67828456 79 405 C78.6587207 404.41154297 78.31744141 403.82308594 77.96582031 403.21679688 C73.77255533 395.90410573 70.62729571 388.58876556 68.56640625 380.41015625 C68.25356438 379.19289101 68.25356438 379.19289101 67.93440247 377.95103455 C65.60144247 368.69441951 63.64852593 359.35914099 61.77758789 349.99975586 C61.18260889 347.03815373 60.56912427 344.08074711 59.95507812 341.12304688 C54.4797702 314.23659198 54.4797702 314.23659198 61 303 C63.16595847 300.1522516 65.4781619 297.53600573 68 295 C63.54170902 289.64987604 58.81680124 284.71155236 53.85546875 279.828125 C52.27525057 278.26055784 50.69517701 276.69284488 49.11523438 275.125 C46.65555283 272.69003026 44.194294 270.25670152 41.73022461 267.82617188 C19.54935156 245.92770192 0.28529769 222.49287264 -2 190 C-1.9262235 188.36304761 -1.82507008 186.72715762 -1.70021057 185.0933075 C-1.13889826 175.4105865 -1.7911852 168.187994 -8.19784451 160.58053303 C-12.15228095 156.3659667 -16.30655645 152.40223084 -20.52734375 148.45703125 C-22.31938827 146.7067852 -24.10671805 144.9517001 -25.88954163 143.19206238 C-30.56053031 138.60629028 -35.29058322 134.08671845 -40.03704834 129.57928467 C-44.87838807 124.97177144 -49.652486 120.29478007 -54.43554688 115.62695312 C-59.80668796 110.39035772 -65.18321046 105.16040316 -70.60179138 99.97285461 C-71.42110138 99.18781555 -72.24041138 98.40277649 -73.08454895 97.59394836 C-74.61577858 96.12873921 -76.14925246 94.66587047 -77.68536377 93.20578003 C-78.35980026 92.56031723 -79.03423676 91.91485443 -79.72911072 91.24983215 C-80.31591582 90.69122403 -80.90272093 90.13261591 -81.50730801 89.55708027 C-85.10328503 85.80598835 -85.42480259 83.17323249 -85.328125 78.2265625 C-84.84491788 74.94765703 -83.37190247 73.23237879 -81 71 C-77.83350487 69.41675243 -74.42541806 69.35625764 -71 70 C-69.02 71.32 -67.04 72.64 -65 74 C-50.48 59.48 -35.96 44.96 -21 30 C-16.31839849 34.0128013 -11.87002879 37.99182708 -7.54907227 42.35327148 C-6.94642548 42.95737854 -6.34377869 43.5614856 -5.72286987 44.18389893 C-4.42647884 45.48406847 -3.13124327 46.78539098 -1.83706856 48.08776665 C0.217379 50.15509075 2.27503278 52.21917605 4.33351135 54.28248596 C9.44403114 59.40630747 14.54908413 64.53556456 19.65429688 69.66467285 C23.97591387 74.00610064 28.29962705 78.34542057 32.62608528 82.682024 C34.64208165 84.70444927 36.65501454 86.72988898 38.66783142 88.75547791 C46.806724 96.95537397 46.806724 96.95537397 55.47216797 104.58992004 C57.21703972 106.20031218 58.49995994 107.96277484 59.87890625 109.890625 C64.00746044 114.06937083 69.05033292 113.75537322 74.56973267 113.82775879 C77.02639471 113.82416006 79.48118268 113.79013669 81.9375 113.75 C102.63583377 113.58792089 120.96448705 116.09376146 138.96484375 127.0390625 C139.92577942 127.61989594 139.92577942 127.61989594 140.90612793 128.21246338 C148.43642784 132.81111458 155.71882761 137.77019501 163 142.75 C164.36564333 143.67874149 165.73152818 144.60712794 167.09765625 145.53515625 C169.59904394 147.23722889 172.10032916 148.93943491 174.59765625 150.64746094 C175.15573975 151.02777466 175.71382324 151.40808838 176.28881836 151.79992676 C177.49398521 152.64512545 178.68097657 153.51653952 179.85375977 154.40612793 C183.85942408 157.44502693 183.85942408 157.44502693 188.8125 158.0625 C191.98495447 157.2995428 191.98495447 157.2995428 193.5 155.3125 C194.22007096 151.9821718 194.08019156 150.28788235 193 147 C190.40066035 144.45298265 187.41477214 142.54687515 184.375 140.5625 C183.48780273 139.9648584 182.60060547 139.3672168 181.68652344 138.75146484 C179.78544482 137.47646419 177.87831319 136.21045133 175.96582031 134.95263672 C173.00169075 133.00111316 170.05861419 131.02069253 167.1171875 129.03515625 C146.31666428 115.10419765 127.59924604 104.89493322 102.0390625 104.83203125 C101.27089203 104.82790222 100.50272156 104.82377319 99.71127319 104.81951904 C96.54544466 104.80742175 93.38094476 104.80216033 90.21533203 104.84545898 C87.86373569 104.87250258 85.515627 104.85555537 83.1640625 104.83203125 C82.11069199 104.86282524 82.11069199 104.86282524 81.03604126 104.89424133 C76.74389175 104.81133914 74.45562435 103.86016938 71.27107239 100.95898438 C70.5725629 100.32353856 69.87405342 99.68809275 69.15437698 99.033391 C65.6014163 95.67995828 62.12186031 92.26085916 58.67211914 88.80151367 C57.88251801 88.01366486 57.09291687 87.22581604 56.27938843 86.41409302 C53.69547303 83.83454476 51.11519195 81.25139699 48.53515625 78.66796875 C46.73309187 76.86657848 44.9308791 75.06533663 43.12852478 73.26423645 C39.36554997 69.50273129 35.60433054 65.73948307 31.84448242 61.97485352 C27.49733888 57.62224558 23.14657264 53.27328371 18.79395396 48.92615145 C14.5970695 44.73434512 10.40299176 40.53973935 6.21011162 36.34392738 C4.42818106 34.56132849 2.64550393 32.77947558 0.86207771 30.99837303 C-1.62033038 28.51849212 -4.0995315 26.03544989 -6.57788086 23.55151367 C-7.31912704 22.81229172 -8.06037323 22.07306976 -8.82408142 21.31144714 C-9.49544128 20.63726746 -10.16680115 19.96308777 -10.85850525 19.26847839 C-11.44451476 18.68209186 -12.03052427 18.09570532 -12.63429165 17.49154949 C-15.29353662 14.5872724 -15.32815861 11.90994678 -15.29296875 8.0390625 C-14.83745033 4.86865433 -13.24684343 3.1807598 -11 1 C-7.31233833 -0.84383083 -4.00257645 -0.82635033 0 0 Z M126.83703613 234.58522034 C124.36702775 237.83204053 124.4927635 239.89098167 124.48242188 243.94897461 C124.4754126 244.64068756 124.46840332 245.33240051 124.46118164 246.04507446 C124.44358662 248.3312404 124.45524001 250.61616518 124.46875 252.90234375 C124.46605273 254.50216406 124.46216835 256.10198276 124.45715332 257.70179749 C124.45125397 261.06022703 124.45982465 264.41823126 124.47851562 267.77661133 C124.50114016 272.0465875 124.48829136 276.31554871 124.46422577 280.58548641 C124.44963682 283.89475369 124.45443581 287.20378839 124.46473694 290.51306343 C124.46737696 292.08486619 124.46423218 293.65669115 124.45481873 295.22846794 C124.40860886 305.12536595 125.57087519 313.61657825 129 323 C129.64697924 325.26100917 130.19887428 327.52532825 130.75 329.8125 C130.99234375 330.80894531 131.2346875 331.80539062 131.484375 332.83203125 C131.65453125 333.54746094 131.8246875 334.26289063 132 335 C133.32 335 134.64 335 136 335 C136.33 301.67 136.66 268.34 137 234 C133.36460381 232.18230191 130.13554096 232.16777037 126.83703613 234.58522034 Z " fill="#010101" transform="translate(85,0)"/>
<path d="M0 0 C3.49254515 2.67542639 4.85174191 4.14558651 5.61231995 8.52880859 C5.63222021 9.90188487 5.62504338 11.2755253 5.59594727 12.6484375 C5.6000058 13.40191467 5.60406433 14.15539185 5.60824585 14.93170166 C5.61375068 16.56150326 5.60778935 18.19137562 5.59158516 19.82110596 C5.56613449 22.40256455 5.5709718 24.98242885 5.58348083 27.56396484 C5.60421281 33.04281915 5.58455143 38.52117834 5.5625 44 C5.54138634 50.35021143 5.53683684 56.69990931 5.56300163 63.05010986 C5.5663603 65.59025109 5.54514951 68.12940891 5.52259827 70.66943359 C5.52510991 72.2301454 5.52867032 73.79085599 5.53344727 75.3515625 C5.52056168 76.0550885 5.50767609 76.7586145 5.49440002 77.48345947 C5.53064732 81.03907936 5.94747535 82.91835162 7.89048767 85.9387207 C9.80197461 88.13456921 9.80197461 88.13456921 12.21875 88.62890625 C17.19030981 88.51324744 17.19030981 88.51324744 21.5 86.1875 C23.99938672 82.54256103 24.12403383 79.62705626 24.12597656 75.32275391 C24.12978333 74.15789459 24.13359009 72.99303528 24.13751221 71.7928772 C24.13853943 70.53349335 24.13956665 69.2741095 24.140625 67.9765625 C24.15425774 66.00032318 24.16792007 64.02408354 24.18333054 62.04785728 C24.22130574 57.1718453 24.25261545 52.29609876 24.25048828 47.41992188 C24.24985322 44.68449376 24.2623 41.94974036 24.28948975 39.21444702 C24.31484733 36.63808837 24.32121147 34.06145845 24.30670166 31.48501587 C24.44248491 21.79750559 24.44248491 21.79750559 27.35449219 18.70849609 C30.64551142 16.5831221 32.15807232 16.1995984 36 17 C38.55656781 18.65467928 39.5710442 19.40402894 41 22 C41.7389398 26.38962471 41.64913573 30.74163598 41.6015625 35.18359375 C41.61379567 37.15198745 41.62604423 39.12038119 41.6391964 41.08876896 C41.65172079 43.84051624 41.64207071 46.59200622 41.63201904 49.34375 C41.61589036 54.15486455 41.61866734 58.9658057 41.64559937 63.77687073 C41.65769166 66.33554985 41.65501482 68.89435142 41.63589478 71.45298767 C41.56291421 79.72897374 41.56291421 79.72897374 45 87 C47.28726223 88.14363112 48.82852427 88.26501932 51.375 88.375 C52.14585937 88.42398438 52.91671875 88.47296875 53.7109375 88.5234375 C56.18058278 88.1585431 56.18058278 88.1585431 58.1159668 86.04516602 C60.70419328 81.86181123 60.51538431 78.57533284 60.43359375 73.75390625 C60.44319904 71.92903561 60.45296976 70.10416583 60.46289062 68.27929688 C60.45429308 65.41778791 60.43745354 62.55650358 60.4152832 59.69506836 C60.40073254 56.92257023 60.41603516 54.15135909 60.43359375 51.37890625 C60.40887245 50.1036483 60.40887245 50.1036483 60.38365173 48.80262756 C60.41915419 44.5614246 60.70107874 41.82083825 63.40209961 38.44555664 C66 36 66 36 68.1328125 35.4921875 C68.79023438 35.61851562 69.44765625 35.74484375 70.125 35.875 C70.78757812 35.97554687 71.45015625 36.07609375 72.1328125 36.1796875 C74.67682305 37.29734904 75.53302383 38.65666574 77 41 C77.37473011 43.2574625 77.37473011 43.2574625 77.3742218 45.77284241 C77.38123611 46.73007202 77.38825043 47.68730164 77.39547729 48.67353821 C77.38783356 49.71721054 77.38018982 50.76088287 77.37231445 51.83618164 C77.37596512 52.94075714 77.37961578 54.04533264 77.38337708 55.18338013 C77.39149543 58.842461 77.37785521 62.50110061 77.36328125 66.16015625 C77.36276254 68.70641581 77.36328066 71.25267577 77.36479187 73.79893494 C77.36470207 79.14295907 77.35460117 84.48682862 77.33618164 89.83081055 C77.31508967 95.98484315 77.31148795 102.13868902 77.3177436 108.29275042 C77.32346951 114.23224519 77.31764314 120.17168436 77.30657005 126.11117363 C77.30273495 128.62801285 77.30156279 131.14485765 77.3031559 133.6616993 C77.30352946 137.19392448 77.29082231 140.72587324 77.2746582 144.25805664 C77.27713562 145.28755936 77.27961304 146.31706207 77.28216553 147.37776184 C77.1034823 172.01750639 65.97980856 190.37459881 48.9375 207.25 C46.8038705 209.31919254 44.6677618 211.38488908 42.51538086 213.43457031 C39.19088094 216.86886925 39.85565939 220.68679988 39.8671875 225.18359375 C39.86575241 226.40055687 39.86575241 226.40055687 39.86428833 227.6421051 C39.86360729 229.35946734 39.86545628 231.07683215 39.86962891 232.79418945 C39.87497135 235.42339876 39.86968493 238.0524367 39.86328125 240.68164062 C39.86394218 242.34895871 39.86522365 244.01627669 39.8671875 245.68359375 C39.86415115 246.86495155 39.86415115 246.86495155 39.86105347 248.07017517 C39.87495392 251.30735953 39.96895167 253.906855 41 257 C43.92914165 258.17082878 43.92914165 258.17082878 47 259 C47.66 259.33 48.32 259.66 49 260 C49 265.61 49 271.22 49 277 C50.98 277.33 52.96 277.66 55 278 C57.63106699 280.97726002 58.84604497 283.07626982 59.5 287 C58.86619108 290.80285351 57.37421663 292.99731426 55 296 C51.51931002 297.74034499 47.79742402 297.58371457 44 297 C39.62647282 293.81096977 39.08620718 292.43103592 38 287 C16.22 287 -5.56 287 -28 287 C-27.649375 276.625625 -27.29875 266.25125 -26.9375 255.5625 C-25.92465614 231.00497149 -25.92465614 231.00497149 -35.99992371 209.57460022 C-40.52062415 205.05836014 -45.73351403 201.48899663 -51.11083984 198.07641602 C-55.630615 194.8280902 -58.25425683 190.76943938 -61 186 C-61.39493652 185.34531738 -61.78987305 184.69063477 -62.19677734 184.01611328 C-66.3878689 176.80851588 -69.44440155 169.35088803 -71.47265625 161.2734375 C-71.78604195 160.0518821 -71.78604195 160.0518821 -72.10575867 158.8056488 C-74.2801345 150.16434962 -76.09473407 141.45416635 -77.79516602 132.70874023 C-78.31751379 130.0368537 -78.8586152 127.36917863 -79.40039062 124.70117188 C-81.18139361 115.72958323 -82.62119796 107.1986432 -82 98 C-81.01 98 -80.02 98 -79 98 C-77.48868243 102.37486666 -76.05638387 106.74415862 -74.828125 111.20703125 C-74.61953857 111.953479 -74.41095215 112.69992676 -74.19604492 113.46899414 C-73.78004234 114.96676374 -73.37362905 116.46723645 -72.9777832 117.97045898 C-71.72466374 122.4460316 -70.29357766 125.56891711 -67 129 C-62.88674146 131.05662927 -57.98726868 130.20111029 -53.625 129.3125 C-50.86513071 128.25086786 -50.86513071 128.25086786 -49.86181641 125.8449707 C-48.85716803 122.52849266 -48.67749983 119.63207708 -48.5859375 116.16796875 C-48.54726562 114.87568359 -48.50859375 113.58339844 -48.46875 112.25195312 C-48.43729986 110.89714005 -48.40605239 109.54232225 -48.375 108.1875 C-48.3367825 106.81312728 -48.2977286 105.43877756 -48.2578125 104.06445312 C-48.16364596 100.70977011 -48.078018 97.35509107 -48 94 C-45.05099132 96.4593076 -44.31082065 98.63869915 -43.39453125 102.32421875 C-43.13349609 103.35224609 -42.87246094 104.38027344 -42.60351562 105.43945312 C-42.34248047 106.51130859 -42.08144531 107.58316406 -41.8125 108.6875 C-41.53986328 109.77095703 -41.26722656 110.85441406 -40.98632812 111.97070312 C-40.31482327 114.64494178 -39.65313523 117.32122653 -39 120 C-38.34 120 -37.68 120 -37 120 C-36.98969254 118.82093582 -36.97938507 117.64187164 -36.96876526 116.42707825 C-36.87102761 105.31789479 -36.7682931 94.2087673 -36.66066074 83.09967518 C-36.60548613 77.3883283 -36.55207482 71.67697625 -36.50268555 65.96557617 C-36.4549615 60.45423136 -36.40261573 54.94294809 -36.34705925 49.43167686 C-36.32667214 47.32855447 -36.30795309 45.22541523 -36.29092598 43.12226295 C-36.26680132 40.17755671 -36.23675773 37.23296609 -36.20532227 34.28833008 C-36.1995668 33.4179863 -36.19381134 32.54764252 -36.18788147 31.65092468 C-36.1392041 27.64180207 -35.99298921 23.91245896 -35 20 C-32 21 -32 21 -31 23 C-30.8850768 24.92395648 -30.83310854 26.85179903 -30.81054688 28.77905273 C-30.79382935 29.99048447 -30.77711182 31.2019162 -30.7598877 32.45005798 C-30.74631226 33.76462479 -30.73273682 35.07919159 -30.71875 36.43359375 C-30.70071263 37.791191 -30.68210966 39.14878084 -30.66296387 40.50636292 C-30.60325617 44.8166808 -30.5511151 49.12707279 -30.5 53.4375 C-30.44076224 58.42845468 -30.37844044 63.41933101 -30.30812073 68.4101429 C-30.28155828 70.41037919 -30.26080118 72.41068982 -30.2401123 74.41099548 C-30.22339478 75.62557938 -30.20667725 76.84016327 -30.18945312 78.09155273 C-30.17692505 79.16251694 -30.16439697 80.23348114 -30.15148926 81.3368988 C-30.11065227 84.10444163 -30.11065227 84.10444163 -29 87 C-24.95822482 88.34725839 -21.22620549 88.56553202 -17 88 C-13.96784325 85.80168636 -13.18345602 84.55036806 -12 81 C-11.90092595 78.54237643 -11.85630568 76.11230166 -11.8581543 73.65454102 C-11.85294266 72.53698425 -11.85294266 72.53698425 -11.84762573 71.39685059 C-11.84027649 69.77956958 -11.83492667 68.16227854 -11.83133507 66.54498482 C-11.82416689 63.98538661 -11.8084987 61.42597979 -11.78999329 58.86643982 C-11.73753318 51.58929023 -11.6895265 44.31224684 -11.67407227 37.03491211 C-11.66399874 32.5832859 -11.63469357 28.13214322 -11.59275246 23.68070793 C-11.58043131 21.9842793 -11.57532324 20.28778242 -11.57755089 18.5913105 C-11.57990031 16.21863173 -11.55776819 13.84734439 -11.5300293 11.47485352 C-11.53993141 10.42348457 -11.53993141 10.42348457 -11.55003357 9.35087585 C-11.4862051 6.0280317 -11.19408359 4.25959412 -9.18171692 1.56797791 C-5.94739158 -0.75649904 -3.88366685 -0.61321056 0 0 Z " fill="#FDCCAA" transform="translate(257,215)"/>
<path d="M0 0 C4.69895006 3.92333172 9.14359359 8.0055771 13.45092773 12.35327148 C14.05357452 12.95737854 14.65622131 13.5614856 15.27713013 14.18389893 C16.57352116 15.48406847 17.86875673 16.78539098 19.16293144 18.08776665 C21.217379 20.15509075 23.27503278 22.21917605 25.33351135 24.28248596 C30.44403114 29.40630747 35.54908413 34.53556456 40.65429688 39.66467285 C44.97591387 44.00610064 49.29962705 48.34542057 53.62608528 52.682024 C55.64208165 54.70444927 57.65501454 56.72988898 59.66783142 58.75547791 C67.806724 66.95537397 67.806724 66.95537397 76.47216797 74.58992004 C78.21703972 76.20031218 79.49995994 77.96277484 80.87890625 79.890625 C85.00746044 84.06937083 90.05033292 83.75537322 95.56973267 83.82775879 C98.02639471 83.82416006 100.48118268 83.79013669 102.9375 83.75 C123.63823141 83.58790211 141.96758968 86.09423594 159.96875 97.04296875 C160.60958023 97.43039749 161.25041046 97.81782623 161.91065979 98.21699524 C168.72483 102.3781347 175.3444852 106.81962482 181.93676758 111.3215332 C183.95795412 112.70146471 185.98351411 114.07478485 188.00976562 115.44726562 C194.45424856 119.82333119 200.82590962 124.24524074 207 129 C206.34 129.33 205.68 129.66 205 130 C202.32255745 128.65682127 199.76737421 127.2616271 197.1875 125.75 C196.47529297 125.34136719 195.76308594 124.93273437 195.02929688 124.51171875 C192.07214722 122.81019508 189.15492031 121.10156136 186.30078125 119.23046875 C182.34023018 117.11234721 178.36566504 117.33332209 174 118 C171.06576805 119.79646854 169.52794645 120.9441071 168 124 C167.61016374 126.16317797 167.61016374 126.16317797 167.5 128.625 C167.4278125 129.44226563 167.355625 130.25953125 167.28125 131.1015625 C169.49881439 140.04413192 180.48477473 147.60002723 186.9375 154 C188.01390654 155.07137887 189.09008014 156.14299182 190.16601562 157.21484375 C192.77466745 159.81259638 195.38644471 162.40717962 198 165 C194.90783794 166.03072069 193.14658446 165.98334335 189.9375 165.8125 C182.12840742 165.77123663 175.84528453 167.90865674 170.125 173.3125 C167.12020114 176.59433706 165.01763192 180.04544143 163 184 C162.45601562 183.84273437 161.91203125 183.68546875 161.3515625 183.5234375 C152.05050821 181.45310316 145.01032559 183.2112184 137 188 C136.2884375 188.30164063 135.576875 188.60328125 134.84375 188.9140625 C132.50053814 190.29417457 132.02671973 191.51305665 131 194 C130.65839844 194.67160156 130.31679687 195.34320313 129.96484375 196.03515625 C129.62582031 196.70417969 129.28679687 197.37320313 128.9375 198.0625 C128.59589844 198.73410156 128.25429687 199.40570313 127.90234375 200.09765625 C126.12725737 203.83993793 125.85380345 206.84361778 125.79467773 210.94018555 C125.77473251 212.16122482 125.75478729 213.3822641 125.73423767 214.64030457 C125.71752518 215.95912125 125.70081268 217.27793793 125.68359375 218.63671875 C125.6630174 220.00007244 125.64202075 221.36341985 125.62062073 222.72676086 C125.5654703 226.31221422 125.51603013 229.89772448 125.46777344 233.48327637 C125.41750701 237.1431992 125.36184781 240.80303957 125.30664062 244.46289062 C125.19914506 251.64185721 125.0976811 258.82089245 125 266 C114.62771934 262.26017648 106.9526458 252.16160478 99.25 244.5234375 C98.64949829 243.92825947 98.04899658 243.33308144 97.43029785 242.71986771 C94.25372561 239.56986139 91.08073131 236.41629575 87.91015625 233.26025391 C85.31030361 230.67372884 82.70338353 228.09466566 80.08984375 225.52197266 C76.9051001 222.38696405 73.73320096 219.23946757 70.56970215 216.08302689 C69.37487327 214.89483812 68.17585334 213.71084607 66.97229004 212.53150558 C47.82495201 193.74784998 40.12594687 173.2575089 39.5 146.5 C39.4887207 145.28248047 39.47744141 144.06496094 39.46582031 142.81054688 C39.44616211 141.64587891 39.42650391 140.48121094 39.40625 139.28125 C39.39916016 138.24033203 39.39207031 137.19941406 39.38476562 136.12695312 C38.37407622 127.91317784 34.00911041 123.44395382 28.31567383 117.86157227 C27.14458824 116.68961052 27.14458824 116.68961052 25.94984436 115.49397278 C23.37827791 112.92518319 20.79285506 110.37083665 18.20703125 107.81640625 C16.41682741 106.03366613 14.62750722 104.25003825 12.83903503 102.46556091 C8.61780978 98.25802475 4.38777487 94.05948508 0.15333527 89.86525911 C-4.66956142 85.08716882 -9.48102037 80.29763046 -14.29158056 75.50712502 C-24.18176566 65.65867983 -34.08613672 55.82460527 -44 46 C-42.38773372 42.59398288 -40.60239912 40.35927099 -37.91748047 37.69042969 C-36.65639969 36.4295755 -36.65639969 36.4295755 -35.36984253 35.14324951 C-34.46146637 34.24519592 -33.55309021 33.34714233 -32.6171875 32.421875 C-31.68778351 31.4953009 -30.75837952 30.56872681 -29.80081177 29.61407471 C-27.3359615 27.15684211 -24.86516334 24.70567639 -22.39306641 22.2557373 C-19.86909235 19.75226191 -17.35080612 17.24307937 -14.83203125 14.734375 C-9.89356403 9.81732475 -4.948788 4.90666212 0 0 Z " fill="#FECCAA" transform="translate(64,30)"/>
<path d="M0 0 C7.38169635 6.25457917 7.38169635 6.25457917 10.54858398 9.43505859 C11.14867783 10.03522797 11.74877167 10.63539734 12.36705017 11.25375366 C13.29717674 12.19162216 13.29717674 12.19162216 14.24609375 13.1484375 C15.23005882 14.13452499 15.23005882 14.13452499 16.23390198 15.14053345 C18.30415268 17.21632862 20.37087651 19.29559427 22.4375 21.375 C23.85067862 22.7932008 25.26408794 24.21117176 26.67773438 25.62890625 C30.12116065 29.08328777 33.56143099 32.5407837 37 36 C32.76963095 41.05409287 28.34811283 45.78174531 23.6652832 50.41650391 C22.95721527 51.12150528 22.24914734 51.82650665 21.5196228 52.5528717 C19.99350939 54.07187234 18.46627099 55.58974341 16.93801308 57.10658646 C14.51859384 59.50851725 12.10282 61.91405987 9.68803406 64.32064819 C2.82582199 71.15848563 -4.04205434 77.99061315 -10.91430664 84.81835938 C-15.12701906 89.00429189 -19.3348498 93.1950804 -23.53971291 97.38889694 C-25.14020208 98.98318193 -26.7425858 100.57556736 -28.34689903 102.16600418 C-30.58699849 104.38688764 -32.82086998 106.61386325 -35.0534668 108.84228516 C-35.71585861 109.49591537 -36.37825043 110.14954559 -37.06071472 110.82298279 C-43.35563853 117.01235346 -43.35563853 117.01235346 -45.38476562 125.32446289 C-45.39487671 126.14624527 -45.40498779 126.96802765 -45.41540527 127.81471252 C-45.41238403 128.69183395 -45.40936279 129.56895538 -45.40625 130.47265625 C-45.42250427 131.85099892 -45.42250427 131.85099892 -45.43908691 133.25718689 C-45.47328174 136.19236233 -45.48891139 139.12715193 -45.5 142.0625 C-45.59236123 166.20291475 -45.59236123 166.20291475 -49 176 C-49.31267822 176.92272705 -49.62535645 177.8454541 -49.94750977 178.79614258 C-52.17641969 184.70102132 -55.07821717 189.9649062 -58.44140625 195.2734375 C-59.09225693 196.30683762 -59.09225693 196.30683762 -59.7562561 197.3611145 C-64.50513876 204.86109726 -69.40101145 212.26207689 -74.36132812 219.62353516 C-75.90300032 221.91664823 -77.43179009 224.21805289 -78.9609375 226.51953125 C-79.94974328 227.99010645 -80.93929746 229.46017878 -81.9296875 230.9296875 C-82.38076874 231.61288055 -82.83184998 232.29607361 -83.29660034 232.99996948 C-87.28582353 238.86320465 -87.28582353 238.86320465 -91 240 C-95.09859246 240.33457898 -96.51195905 240.32536063 -100 238 C-100.77258562 234.31942632 -100.64829658 230.56449757 -100.6875 226.8125 C-100.76774414 225.26852539 -100.76774414 225.26852539 -100.84960938 223.69335938 C-100.94080435 216.20097242 -100.94080435 216.20097242 -98.29345703 212.8215332 C-96.27252261 211.06084593 -94.19179776 209.53883924 -92 208 C-88.42113561 204.65527117 -85.66440532 201.94433885 -85.3125 196.875 C-85.74113784 192.95407284 -85.74113784 192.95407284 -88 190 C-90.99112067 188.00591955 -93.09209034 187.04568709 -96.73046875 187.2265625 C-101.74792446 188.93646995 -105.38532837 193.26681455 -109 197 C-112.24904539 195.94736398 -115.32365335 194.85288484 -118.4375 193.4375 C-121.88751357 191.84375211 -121.88751357 191.84375211 -125.38612366 191.70411682 C-129.78313249 190.84741682 -131.26560057 189.46316889 -134.38452148 186.29663086 C-135.11757256 185.56489403 -135.11757256 185.56489403 -135.86543274 184.81837463 C-137.46530447 183.21434748 -139.04290785 181.59018757 -140.62109375 179.96484375 C-141.73078366 178.84395447 -142.84181232 177.72438912 -143.95411682 176.60609436 C-146.86915576 173.66821582 -149.76572211 170.71276705 -152.65875244 167.75323486 C-155.61763227 164.73282804 -158.59370573 161.72946813 -161.56835938 158.72460938 C-167.3958274 152.83291466 -173.20388253 146.92253861 -179 141 C-176.76605859 138.76605859 -175.26489655 138.28085209 -172.3125 137.25 C-164.67265835 134.25138971 -160.12754332 130.32897593 -156.7265625 122.83203125 C-155.41629894 119.52819464 -155.00672059 117.94220295 -155.4296875 114.3046875 C-156.70698012 103.16336712 -156.70698012 103.16336712 -153.74169922 99.40527344 C-149.66899743 96.01115077 -144.86289746 94.00340572 -140 92 C-138.89011719 91.49210937 -137.78023438 90.98421875 -136.63671875 90.4609375 C-126.6224925 86.19584986 -116.45050122 83.65273154 -105.56404114 84.30091858 C-94.02618158 84.84009045 -83.9402953 85.10985269 -74.60685253 77.58850765 C-70.17870081 73.50686647 -66.08383901 69.17910197 -62.01171875 64.74609375 C-60.19853728 62.88054638 -58.37896855 61.02118807 -56.55342102 59.16773987 C-52.29570551 54.81494241 -48.10602457 50.4059846 -43.94469243 45.96122557 C-39.19391615 40.89434242 -34.36058641 35.90944402 -29.51973283 30.92879379 C-19.58747785 20.70607536 -9.75951048 10.38763392 0 0 Z " fill="#FECCAA" transform="translate(454,40)"/>
<path d="M0 0 C2.75 1.6875 2.75 1.6875 4.75 4.6875 C5.48965025 9.28021203 5.35961194 12.71212089 2.875 16.6875 C-1.42034288 20.73017565 -5.92666196 19.97945349 -11.5625 20.0625 C-12.51318359 20.09988281 -13.46386719 20.13726562 -14.44335938 20.17578125 C-19.13493248 20.23479475 -21.47994377 20.25291912 -25.3515625 17.41015625 C-27.90355243 13.75020361 -28.68373434 11.12026492 -28.25 6.6875 C-26.50754567 2.92379864 -25.38143907 1.16380984 -21.53125 -0.45703125 C-14.81481322 -2.20810227 -6.55016368 -2.62006547 0 0 Z " fill="#000000" transform="translate(87.25,282.3125)"/>
<path d="M0 0 C2.87434293 3.14381258 3 4.70241439 3 9 C2.7159206 11.9354871 1.8206564 13.25541763 0.09375 15.71484375 C-4.3692736 19.01139527 -8.0934125 18.70008166 -13.5 18.5625 C-14.90572266 18.57893555 -14.90572266 18.57893555 -16.33984375 18.59570312 C-20.72011799 18.54910446 -23.30630065 18.4283068 -27.09375 16.08984375 C-30.29648445 12.57864922 -30.39615877 9.877433 -30.3515625 5.26171875 C-30 3 -30 3 -27.75 0 C-20.45681931 -5.30413141 -7.458265 -4.80643744 0 0 Z " fill="#000000" transform="translate(30,284)"/>
<path d="M0 0 C3.01440077 2.09430751 4.74268857 3.71554122 5.47900391 7.39111328 C5.67434763 10.27694305 5.68177294 13.10836516 5.625 16 C5.65400391 17.47726562 5.65400391 17.47726562 5.68359375 18.984375 C5.65180011 23.68983435 5.54193008 26.23369186 2.7734375 30.1484375 C-0.14319006 32.09559449 -1.53596041 32.67912562 -5 32.625 C-5.825 32.63789063 -6.65 32.65078125 -7.5 32.6640625 C-11.35295004 31.64062265 -12.6934653 30.261521 -15 27 C-15.72926662 23.31682764 -15.69850009 19.74360444 -15.625 16 C-15.64433594 15.01515625 -15.66367187 14.0303125 -15.68359375 13.015625 C-15.65127391 8.23228809 -15.58710378 5.78020436 -12.6484375 1.875 C-8.15908018 -1.30330607 -5.27565348 -1.2734336 0 0 Z " fill="#000000" transform="translate(453,462)"/>
<path d="M0 0 C0.99386719 -0.03287109 1.98773438 -0.06574219 3.01171875 -0.09960938 C7.75946423 -0.134566 10.31587632 -0.13028852 14.28125 2.65234375 C16.21546602 5.57415736 16.80408439 6.97609907 16.75 10.4375 C16.76289063 11.2625 16.77578125 12.0875 16.7890625 12.9375 C15.76562265 16.79045004 14.386521 18.1309653 11.125 20.4375 C7.44182764 21.16676662 3.86860444 21.13600009 0.125 21.0625 C-1.35226562 21.09150391 -1.35226562 21.09150391 -2.859375 21.12109375 C-7.62395982 21.08890061 -10.09606493 21.01683296 -14 18.11328125 C-16.37395111 14.72545518 -16.875 12.56917058 -16.875 8.4375 C-13.52871333 -0.43015968 -8.40416095 0.04867275 0 0 Z " fill="#000000" transform="translate(477.875,437.5625)"/>
<path d="M0 0 C1.47726562 -0.02900391 1.47726562 -0.02900391 2.984375 -0.05859375 C7.74895982 -0.02640061 10.22106493 0.04566704 14.125 2.94921875 C16.49895111 6.33704482 17 8.49332942 17 12.625 C15.48483372 16.64019063 14.5944747 18.22868353 11 20.625 C7.39129699 21.10979151 3.76281268 21.04143159 0.125 21.0625 C-1.36580078 21.11180664 -1.36580078 21.11180664 -2.88671875 21.16210938 C-7.63446423 21.197066 -10.19087632 21.19278852 -14.15625 18.41015625 C-16.09046602 15.48834264 -16.67908439 14.08640093 -16.625 10.625 C-16.63789063 9.8 -16.65078125 8.975 -16.6640625 8.125 C-14.38167026 -0.46753548 -7.43182784 -0.14591285 0 0 Z " fill="#000000" transform="translate(418,437.375)"/>
<path d="M0 0 C0.825 -0.01289063 1.65 -0.02578125 2.5 -0.0390625 C6.35295004 0.98437735 7.6934653 2.363479 10 5.625 C10.72926662 9.30817236 10.69850009 12.88139556 10.625 16.625 C10.65400391 18.10226562 10.65400391 18.10226562 10.68359375 19.609375 C10.65140061 24.37395982 10.57933296 26.84606493 7.67578125 30.75 C4.28795518 33.12395111 2.13167058 33.625 -2 33.625 C-6.01519063 32.10983372 -7.60368353 31.2194747 -10 27.625 C-10.48479151 24.01629699 -10.41643159 20.38781268 -10.4375 16.75 C-10.47037109 15.75613281 -10.50324219 14.76226562 -10.53710938 13.73828125 C-10.572066 8.99053577 -10.56778852 6.43412368 -7.78515625 2.46875 C-4.86334264 0.53453398 -3.46140093 -0.05408439 0 0 Z " fill="#000000" transform="translate(448,401.375)"/>
<path d="M0 0 C2.9344373 4.20287148 2.43404437 8.54095368 2.37890625 13.5390625 C2.40275391 14.52841797 2.42660156 15.51777344 2.45117188 16.53710938 C2.44152148 21.32048944 2.40672337 23.80552881 -0.50390625 27.73046875 C-3.89437084 30.09786312 -6.05321451 30.6015625 -10.18359375 30.6015625 C-14.19878438 29.08639622 -15.78727728 28.1960372 -18.18359375 24.6015625 C-18.66838526 20.99285949 -18.60002534 17.36437518 -18.62109375 13.7265625 C-18.65396484 12.73269531 -18.68683594 11.73882812 -18.72070312 10.71484375 C-18.77477456 3.37095989 -18.77477456 3.37095989 -15.7734375 -0.53515625 C-10.29540123 -4.47636787 -5.74978706 -3.68233232 0 0 Z " fill="#000000" transform="translate(54.18359375,248.3984375)"/>
<path d="M0 0 C5.57894737 3.15789474 5.57894737 3.15789474 7 6 C7.29259649 9.4308452 7.27791989 12.87062655 7.3125 16.3125 C7.34150391 17.26318359 7.37050781 18.21386719 7.40039062 19.19335938 C7.44076288 23.63741318 7.4611984 26.24401499 5.10546875 30.10546875 C1.81835655 33.06325988 -0.53013261 33.33324879 -4.9609375 33.29296875 C-8.13134567 32.83745033 -9.8192402 31.24684343 -12 29 C-13.87181618 25.25636763 -13.31428147 20.80807994 -13.375 16.6875 C-13.41238281 15.73681641 -13.44976562 14.78613281 -13.48828125 13.80664062 C-13.5770793 6.74719551 -13.5770793 6.74719551 -10.6015625 2.89453125 C-6.77695719 0.1093457 -4.75699932 -0.45740378 0 0 Z " fill="#000000" transform="translate(49,305)"/>
<path d="M0 0 C2.87029869 1.79393668 4.49131638 2.98263276 6 6 C6.5811138 13.08958838 6.5811138 13.08958838 4.125 16.9375 C0.64160635 20.31844089 -2.03626432 20.40432349 -6.73828125 20.34375 C-9 20 -9 20 -12 17.875 C-14.26157198 14.62399027 -15 12.95490344 -15 9 C-12.22517051 0.67551153 -8.36947434 -1.23339622 0 0 Z " fill="#000000" transform="translate(436,0)"/>
<path d="M0 0 C3.53278942 2.9832444 5.78427321 5.10160425 6.3125 9.75 C5.92220973 13.80901885 4.50412622 15.83301684 2 19 C-1.48068998 20.74034499 -5.20257598 20.58371457 -9 20 C-12.06626454 17.76418211 -13.5346273 16.10526016 -15 12.625 C-15 8.75208937 -13.91994246 6.3444159 -12 3 C-8.06294618 0.28780737 -4.74912021 -0.80836089 0 0 Z " fill="#010000" transform="translate(310,492)"/>
</svg>
