<?xml version="1.0" encoding="UTF-8"?>
<svg version="1.1" xmlns="http://www.w3.org/2000/svg" width="512" height="512">
<path d="M0 0 C8.24191064 7.9075827 10.24605065 17.42080613 12.1875 28.375 C12.70054687 28.21644531 13.21359375 28.05789062 13.7421875 27.89453125 C22.86148832 25.95704402 33.17219242 26.38710476 41.1875 31.375 C49.85124144 37.88852404 55.45885864 44.43850439 57.1875 55.375 C57.42142335 60.04521507 57.37666975 64.70048071 57.3125 69.375 C57.30347656 70.62667969 57.29445312 71.87835938 57.28515625 73.16796875 C57.26172716 76.2371801 57.22892147 79.30598756 57.1875 82.375 C58.11095215 82.05265381 59.0344043 81.73030762 59.98583984 81.39819336 C69.24022524 78.4406572 78.10130578 80.08582182 86.76171875 83.98828125 C88.9874082 85.2606158 90.50782527 86.45938434 92.1875 88.375 C94.34850182 87.29700605 96.50630719 86.21333 98.66015625 85.12109375 C99.51480469 84.68925781 100.36945313 84.25742188 101.25 83.8125 C102.10722656 83.37808594 102.96445312 82.94367188 103.84765625 82.49609375 C108.06059896 80.47753856 111.36003679 80.21220694 116 80.1875 C117.20269531 80.17332031 118.40539062 80.15914063 119.64453125 80.14453125 C123.18345982 80.37473719 125.86614916 81.19687037 129.1875 82.375 C129.17178955 81.60945801 129.1560791 80.84391602 129.13989258 80.05517578 C129.07696121 76.53686108 129.03832571 73.01866538 129 69.5 C128.96229492 67.69402344 128.96229492 67.69402344 128.92382812 65.8515625 C128.82178266 53.33398535 131.15218867 44.82415317 139.78125 35.6875 C147.7519756 28.16794754 156.27490182 26.93009305 166.8671875 27.13671875 C169.48014007 27.32423652 171.70014259 27.60629407 174.1875 28.375 C174.34605469 27.48039062 174.50460937 26.58578125 174.66796875 25.6640625 C177.09154615 13.1043078 180.3416729 3.85309416 191.1875 -3.625 C199.88822114 -8.40485477 209.08035756 -9.67968038 218.734375 -7.41796875 C225.33141751 -5.28548526 230.61749484 -1.84786304 235.1875 3.375 C235.868125 4.07625 236.54875 4.7775 237.25 5.5 C242.24805675 12.9164713 243.87725796 20.54226618 243.1875 29.375 C243.86167969 29.05144531 244.53585937 28.72789062 245.23046875 28.39453125 C252.29401855 25.95914618 262.51484248 26.12398768 269.36328125 29.34765625 C269.96527344 29.68667969 270.56726563 30.02570313 271.1875 30.375 C271.92355469 30.76558594 272.65960938 31.15617187 273.41796875 31.55859375 C280.65375996 35.83704316 285.19624544 41.84942147 288.5625 49.5 C289.9160916 55.72652134 290.33916448 61.90251482 290.39282227 68.25976562 C290.40272186 69.0022052 290.41262146 69.74464478 290.42282104 70.50958252 C290.45409673 72.93344062 290.47905734 75.35731824 290.50390625 77.78125 C290.52450519 79.4737597 290.54550238 81.1662646 290.56687927 82.85876465 C290.62179659 87.29081303 290.67133831 91.72290547 290.71972656 96.1550293 C290.77016461 100.68672559 290.82573369 105.21835873 290.88085938 109.75 C290.98806924 118.62494591 291.0895951 127.4999469 291.1875 136.375 C291.72439453 135.96362793 292.26128906 135.55225586 292.81445312 135.12841797 C293.52537109 134.58846191 294.23628906 134.04850586 294.96875 133.4921875 C295.67064453 132.95706543 296.37253906 132.42194336 297.09570312 131.87060547 C304.80795157 126.35645584 314.05856798 126.23699435 323.1875 127.375 C332.58394852 129.61844273 339.94106308 134.86311277 345.229599 142.97305298 C348.55607472 148.8786617 348.88428453 154.15510201 348.81640625 160.84765625 C348.80523521 162.53424095 348.80523521 162.53424095 348.7938385 164.25489807 C348.43858313 178.35690822 345.52535657 191.98616319 342.56921387 205.72076416 C341.97479153 208.51980894 341.41088579 211.32465117 340.84657383 214.12989426 C333.85579314 248.76938044 322.19642501 274.10719136 297.703125 299.6484375 C290.62677466 306.95827254 290.62677466 306.95827254 285.4375 315.625 C285.05078125 316.45515625 284.6640625 317.2853125 284.265625 318.140625 C280.81872458 328.48132625 280.83775301 338.98089111 280.80664062 349.78466797 C280.79710827 351.76024848 280.76215318 353.7356546 280.7265625 355.7109375 C280.71834473 356.87157715 280.71012695 358.0322168 280.70166016 359.22802734 C280.08493771 363.00274353 278.8308981 364.66247732 276.1875 367.375 C272.70950335 369.11399832 268.981818 368.96479036 265.1875 368.375 C261.34402494 365.4923937 260.36066354 364.06765417 259.1875 359.375 C227.8375 359.045 196.4875 358.715 164.1875 358.375 C163.8575 350.455 163.5275 342.535 163.1875 334.375 C162.02466701 329.56327728 161.07132919 325.7796366 159.1875 321.375 C158.91164063 320.66085937 158.63578125 319.94671875 158.3515625 319.2109375 C155.5601489 312.78300342 150.71586128 307.63873619 146.1875 302.375 C146.52523438 303.20902344 146.86296875 304.04304688 147.2109375 304.90234375 C147.65695312 306.02769531 148.10296875 307.15304687 148.5625 308.3125 C149.00335938 309.41464844 149.44421875 310.51679688 149.8984375 311.65234375 C152.40518621 318.89153018 153.50131037 325.74465169 153.5234375 333.390625 C153.5300943 334.20948181 153.5367511 335.02833862 153.54360962 335.87200928 C153.55365219 337.58619972 153.55842927 339.3004286 153.55810547 341.01464844 C153.56251314 343.63280688 153.59901287 346.2493224 153.63671875 348.8671875 C153.64258195 350.54166096 153.64655466 352.21614234 153.6484375 353.890625 C153.66280853 354.6677887 153.67717957 355.44495239 153.69198608 356.2456665 C153.66038855 360.00127351 153.33128517 362.15085887 151.28369141 365.34277344 C147.81677598 368.70389666 145.12339646 368.77172364 140.44921875 368.7265625 C138.1875 368.375 138.1875 368.375 135.1875 366.125 C131.86907704 361.56216843 132.05210134 357.69943835 131.9765625 352.1171875 C131.94846963 350.67186415 131.91980504 349.22655181 131.890625 347.78125 C131.8496154 345.52376916 131.81269398 343.26648856 131.78613281 341.00878906 C131.54683616 322.25288222 126.50790561 310.75126905 113.60083008 297.13916016 C107.3249487 290.48761329 94.1875 276.12808274 94.1875 266.375 C93.5275 266.375 92.8675 266.375 92.1875 266.375 C91.93226563 267.23609375 91.67703125 268.0971875 91.4140625 268.984375 C87.09676955 280.91880263 78.1364569 291.13743798 69.625 300.3125 C56.87812153 314.38029851 54.76816051 327.01281162 54.67626953 345.29711914 C54.66047882 347.47312636 54.62748733 349.6484273 54.59375 351.82421875 C54.58666016 353.10643311 54.57957031 354.38864746 54.57226562 355.7097168 C54.12373234 359.98245166 53.18447688 362.58666914 51.1875 366.375 C47.1506135 369.06625767 43.92785825 369.04031344 39.1875 368.375 C36.1875 366.75 36.1875 366.75 34.1875 364.375 C33.8575 362.395 33.5275 360.415 33.1875 358.375 C2.4975 358.375 -28.1925 358.375 -59.8125 358.375 C-60.4725 351.775 -61.1325 345.175 -61.8125 338.375 C-64.60174068 328.44858464 -68.28547411 321.31108607 -74.8125 313.375 C-74.8125 316.87402797 -74.44190914 319.77257777 -73.83203125 323.1953125 C-72.66596559 330.57111598 -72.48066369 337.79392058 -72.5 345.25 C-72.48388672 346.51585937 -72.46777344 347.78171875 -72.45117188 349.0859375 C-72.44499919 360.83873403 -72.44499919 360.83873403 -75.8125 366.375 C-79.83108595 369.0540573 -83.08891721 369.07110694 -87.8125 368.375 C-90.68279869 366.58106332 -92.30381638 365.39236724 -93.8125 362.375 C-93.94370426 360.25377219 -94.01537218 358.12874833 -94.05859375 356.00390625 C-94.10790039 354.05774414 -94.10790039 354.05774414 -94.15820312 352.07226562 C-94.2051389 350.01900777 -94.24945147 347.96576133 -94.28930664 345.91235352 C-94.65387548 327.99172107 -97.12227677 313.33763373 -110.3125 300.5 C-111.98442727 298.9063743 -113.66648419 297.32489151 -115.35742188 295.75146484 C-118.43412 292.84099101 -121.15336581 289.6645862 -123.8125 286.375 C-124.50601563 285.52035156 -125.19953125 284.66570312 -125.9140625 283.78515625 C-143.47390957 261.30734513 -149.94726019 236.43113695 -155.32202148 208.91333008 C-156.09315761 204.96617081 -156.89199271 201.025219 -157.69906521 197.08527088 C-158.32892739 193.99438824 -158.9438155 190.90066347 -159.55452156 187.80594444 C-159.84302582 186.35293531 -160.13590341 184.90078584 -160.43371391 183.44965553 C-163.30695343 169.37103922 -165.77263811 154.23080991 -157.8125 141.375 C-152.35256145 134.06536798 -145.70159884 129.51249429 -136.8125 127.375 C-127.75989052 126.37805579 -118.80468406 126.44695718 -110.8125 131.375 C-108.78118851 133.00556926 -106.80352757 134.69497494 -104.8125 136.375 C-104.80441315 135.44729294 -104.79632629 134.51958588 -104.78799438 133.56376648 C-104.70975524 124.78154008 -104.62237821 115.9994609 -104.52497292 107.21742535 C-104.47522294 102.7034933 -104.42889266 98.18958226 -104.390625 93.67553711 C-104.35350108 89.31173677 -104.3070712 84.94812202 -104.25443649 80.58448219 C-104.23603544 78.92732848 -104.22087597 77.2701352 -104.20915604 75.61292076 C-104.00476034 47.68689934 -104.00476034 47.68689934 -94.35546875 36.8203125 C-86.96664987 29.89914038 -79.3155287 27.0837453 -69.1875 27.125 C-67.28097656 27.11726563 -67.28097656 27.11726563 -65.3359375 27.109375 C-62.02655526 27.3588628 -59.77699387 27.94386503 -56.8125 29.375 C-56.874375 28.09625 -56.93625 26.8175 -57 25.5 C-56.98527405 16.14902338 -53.73255052 8.71883976 -47.5 1.8125 C-33.63155564 -10.76585651 -14.84782458 -12.16833306 0 0 Z M-30.8125 15.375 C-36.6141399 21.80384421 -36.19251659 27.58008002 -36.32739258 35.86816406 C-36.35898889 37.36599106 -36.40670138 38.86356951 -36.47094727 40.36035156 C-37.15120574 48.95867939 -37.15120574 48.95867939 -34.07958984 56.59228516 C-32.00038107 58.18227469 -32.00038107 58.18227469 -29.78686523 59.25537109 C-26.46514084 61.13906444 -25.42777664 64.00984033 -23.8125 67.375 C-23.4825 67.375 -23.1525 67.375 -22.8125 67.375 C-22.80633667 65.99948975 -22.80633667 65.99948975 -22.80004883 64.59619141 C-22.77285111 61.1475206 -22.72354305 57.70056086 -22.65991211 54.25244141 C-22.63691656 52.76882652 -22.62238027 51.28505266 -22.61694336 49.80126953 C-22.57765916 40.83842741 -22.26126626 32.93655318 -16.8125 25.375 C-14 22.75 -14 22.75 -11.8125 21.375 C-13.07788668 17.47339108 -14.15724789 15.35081195 -17.8125 13.375 C-23.20106037 11.97796583 -26.16811062 12.27874042 -30.8125 15.375 Z M201.1875 15.375 C195.18717688 21.37532312 195.86827443 28.80318824 195.6875 36.8125 C195.63335937 37.83666016 195.57921875 38.86082031 195.5234375 39.91601562 C195.31227379 45.44743745 195.31227379 45.44743745 197.640625 50.25830078 C199.44055166 51.80740792 199.44055166 51.80740792 201.38085938 53.11352539 C203.82421862 54.81958447 205.4342604 56.99059414 207.1875 59.375 C207.20731934 58.67004395 207.22713867 57.96508789 207.24755859 57.23876953 C207.34381269 53.99218789 207.45307876 50.7461635 207.5625 47.5 C207.5934375 46.39140625 207.624375 45.2828125 207.65625 44.140625 C208.31144797 25.57668251 208.31144797 25.57668251 213.3125 19.875 C215.6295358 17.46210806 215.6295358 17.46210806 216.1875 14.375 C210.1283044 11.75480731 207.10595378 12.36385685 201.1875 15.375 Z M-78.8125 51.375 C-82.08590877 55.93439078 -82.92045538 59.83202724 -83.01350403 65.35784912 C-83.03222061 66.36148499 -83.05093719 67.36512085 -83.07022095 68.39916992 C-83.08547821 69.49430908 -83.10073547 70.58944824 -83.11645508 71.71777344 C-83.13587662 72.87593567 -83.15529816 74.0340979 -83.17530823 75.22735596 C-83.34372105 85.893266 -83.44223882 96.56024507 -83.51637745 107.22719955 C-83.57228583 115.10549304 -83.66704837 122.98133411 -83.81203538 130.8585012 C-83.91069055 136.40595232 -83.96314295 141.95273064 -83.98223227 147.50101876 C-83.99497615 150.81154893 -84.03436462 154.11817003 -84.11182594 157.42790985 C-85.08352161 170.30465734 -85.08352161 170.30465734 -81.59197617 182.28718567 C-78.50242657 185.43153725 -74.98608875 187.12205136 -70.8125 188.375 C-70.4825 188.375 -70.1525 188.375 -69.8125 188.375 C-69.80918985 187.80699991 -69.80587971 187.23899982 -69.80246925 186.65378761 C-69.72104974 172.79715989 -69.62877403 158.9406405 -69.52497292 145.08416176 C-69.4749708 138.38311469 -69.42876814 131.68208331 -69.390625 124.98095703 C-69.35365981 118.50994382 -69.30726934 112.03905962 -69.25443649 105.5681572 C-69.23595219 103.10354254 -69.2208224 100.63890029 -69.20915604 98.17424393 C-69.19219144 94.71319717 -69.16313168 91.25244204 -69.13134766 87.79150391 C-69.12918747 86.78017395 -69.12702728 85.76884399 -69.12480164 84.72686768 C-68.92853363 67.91687186 -68.92853363 67.91687186 -63.875 61.9375 C-63.37097656 61.32003906 -62.86695312 60.70257813 -62.34765625 60.06640625 C-60.88122799 58.4507232 -59.37371336 56.89893066 -57.8125 55.375 C-61.40562361 50.36086751 -61.40562361 50.36086751 -66.8984375 48.07421875 C-71.67636495 48.04975837 -75.01988658 48.14012385 -78.8125 51.375 Z M152.1875 53.375 C150.44188295 56.27751959 149.9197268 58.47897669 149.83349609 61.84887695 C149.80782562 62.72691483 149.78215515 63.6049527 149.75570679 64.50959778 C149.74093292 65.45131332 149.72615906 66.39302887 149.7109375 67.36328125 C149.69479401 68.33984177 149.67865051 69.31640228 149.66201782 70.32255554 C149.63438304 72.38773545 149.61291771 74.4530058 149.59716797 76.51831055 C149.57411176 78.62600541 149.5331789 80.73358272 149.47412109 82.84057617 C149.38863499 85.89061529 149.35642356 88.93719213 149.3359375 91.98828125 C149.30092133 92.9239241 149.26590515 93.85956696 149.22982788 94.82356262 C149.25617754 98.82025293 149.31939165 101.35568991 151.97344971 104.47201538 C154.10042079 106.35164224 154.10042079 106.35164224 156.32095337 107.92204285 C158.66174207 109.74415949 159.49357063 111.51254135 160.1875 114.375 C160.5175 114.375 160.8475 114.375 161.1875 114.375 C161.19114563 113.7685817 161.19479126 113.16216339 161.19854736 112.53736877 C161.24054044 106.19355719 161.31000293 99.85045781 161.39501953 93.50708008 C161.42314722 91.14354597 161.44440231 88.77991922 161.45849609 86.41625977 C161.48003874 83.00749568 161.52674927 79.59983579 161.578125 76.19140625 C161.57996796 74.62055016 161.57996796 74.62055016 161.58184814 73.01795959 C161.75969621 63.99543999 164.06951435 57.14848411 170.1875 50.375 C163.46630781 45.8942052 157.38907183 47.79282535 152.1875 53.375 Z M105.375 107.3125 C102.48559301 112.33094372 103.03936297 118.18942295 103.04223633 123.80493164 C103.03887772 124.74889297 103.0355191 125.69285431 103.03205872 126.66542053 C103.02255783 129.78867919 103.02060506 132.91188403 103.01953125 136.03515625 C103.01631462 138.22212241 103.01295025 140.40908836 103.00944519 142.59605408 C103.00345363 147.19009905 103.00160498 151.78412522 103.00219727 156.37817383 C103.0022981 162.21093035 102.98872821 168.04356296 102.97142506 173.87629032 C102.9601906 178.4021813 102.95828164 182.92804359 102.95880699 187.45394707 C102.95764086 189.60051329 102.95329774 191.7470806 102.94547462 193.89363289 C102.84118419 225.505394 105.8554267 257.71607631 128.71875 281.8984375 C129.2034375 282.38570312 129.688125 282.87296875 130.1875 283.375 C130.5175 282.715 130.8475 282.055 131.1875 281.375 C130.05730413 279.05641389 128.8687083 276.81923539 127.625 274.5625 C124.16958021 268.0073318 121.74523616 261.44498255 119.75 254.3125 C119.5037085 253.43295654 119.25741699 252.55341309 119.00366211 251.6472168 C116.63111436 242.81864212 116.03273135 234.62870842 116.01049805 225.50805664 C116.00392685 224.32994919 115.99735565 223.15184174 115.99058533 221.93803406 C115.97093277 218.05374792 115.95920145 214.16947536 115.94921875 210.28515625 C115.94516669 208.94215818 115.94104964 207.59916031 115.93686867 206.25616264 C115.91785455 199.94825435 115.90361181 193.64035752 115.8952567 187.33242613 C115.88547735 180.07140406 115.85912412 172.81068625 115.81875581 165.54977137 C115.78854595 159.92152376 115.77378352 154.29336322 115.77047569 148.66503614 C115.76813214 145.31007781 115.75726907 141.95570446 115.73401451 138.60078621 C115.70967024 134.8573895 115.71057961 131.11478951 115.7175293 127.37133789 C115.70471924 126.27030731 115.69190918 125.16927673 115.67871094 124.03488159 C115.73552054 115.629326 117.7170318 109.93956184 123.1875 103.375 C116.36165187 98.82443458 110.54863964 101.78205762 105.375 107.3125 Z M-140.8125 154.375 C-144.72224226 162.19448453 -140.81340312 174.03498799 -139.1796875 182.10546875 C-138.90207238 183.50862921 -138.62499414 184.91189599 -138.34841919 186.31526184 C-137.7685989 189.24393612 -137.18097639 192.17090823 -136.58789062 195.09692383 C-135.98736843 198.06296012 -135.39788233 201.03081997 -134.81933594 204.0012207 C-130.59307185 226.70767053 -130.59307185 226.70767053 -122.8125 248.375 C-122.24934082 249.61334595 -122.24934082 249.61334595 -121.67480469 250.87670898 C-120.76086456 252.78162383 -119.76070794 254.64461416 -118.75 256.5 C-118.28110352 257.38945312 -118.28110352 257.38945312 -117.80273438 258.296875 C-115.54989371 262.44612311 -112.90741382 265.8456182 -109.8125 269.375 C-108.51619564 265.48608692 -109.43468165 264.37858451 -111.0390625 260.6640625 C-114.0348222 253.18189937 -115.67671499 245.62809559 -117.1875 237.75 C-117.4776687 236.27610275 -117.7687871 234.80239219 -118.06079102 233.32885742 C-118.51559784 231.03075209 -118.96903288 228.73243081 -119.41755676 226.43309021 C-120.34230605 221.69990671 -121.30833867 216.97763592 -122.3137207 212.26092529 C-122.97611198 209.15301053 -123.62691501 206.04271637 -124.2769165 202.93218994 C-124.58682738 201.46172259 -124.90139525 199.99222725 -125.22113037 198.52386475 C-130.5529832 173.96039884 -130.5529832 173.96039884 -125.625 164.1875 C-123.4775912 160.93570954 -121.09341758 158.53103155 -117.8125 156.375 C-118.04180057 153.16479202 -118.87443835 152.31925548 -121.3125 150.125 C-129.28717183 146.13766409 -135.05214339 147.75744747 -140.8125 154.375 Z M-108.8125 269.375 C-107.8125 271.375 -107.8125 271.375 -107.8125 271.375 Z M131.1875 283.375 C131.5175 284.365 131.8475 285.355 132.1875 286.375 C132.1875 285.385 132.1875 284.395 132.1875 283.375 C131.8575 283.375 131.5275 283.375 131.1875 283.375 Z " fill="#010100" transform="translate(163.8125,143.625)"/>
<path d="M0 0 C3.8994847 1.47911489 5.25683124 3.24048476 7 7 C7.42236548 10.04168578 7.38642176 13.05054849 7.35302734 16.1171875 C7.35518753 17.0267218 7.35734772 17.9362561 7.35957336 18.87335205 C7.36265591 20.84364869 7.35906756 22.81396461 7.34955978 24.78424072 C7.33581372 27.90308457 7.34226313 31.02129272 7.35440063 34.14013672 C7.38535635 43.0055765 7.38046377 51.87086785 7.36035156 60.73632812 C7.34944065 66.16279969 7.3626086 71.58879269 7.39024734 77.01519775 C7.39569072 79.08204856 7.39161686 81.14894716 7.37784958 83.21575928 C7.35882264 86.10530902 7.37018687 88.99329017 7.38818359 91.8828125 C7.37484482 92.73595032 7.36150604 93.58908813 7.34776306 94.46807861 C7.40745894 98.77727011 7.61690377 100.49942698 10.31948853 104.03076172 C12.93182415 106.25337784 12.93182415 106.25337784 16.5 106.625 C20.86301349 105.84589045 22.28467759 104.43408422 25 101 C26.04076748 97.87769757 26.13054593 95.69011123 26.1418457 92.41455078 C26.14888016 91.26971222 26.15591461 90.12487366 26.16316223 88.94534302 C26.16940865 87.08907791 26.16940865 87.08907791 26.17578125 85.1953125 C26.19897553 82.58462732 26.2230927 79.9739502 26.24804688 77.36328125 C26.28445169 73.23974576 26.31421203 69.11636064 26.32592773 64.99267578 C26.3379584 61.01827472 26.38156715 57.04448936 26.42578125 53.0703125 C26.42387283 51.83685089 26.42196442 50.60338928 26.41999817 49.33255005 C26.43648911 48.18140717 26.45298004 47.03026428 26.4699707 45.84423828 C26.47877007 44.32892014 26.47877007 44.32892014 26.48774719 42.7829895 C27.30331465 38.35213886 29.84979607 35.90151119 33.3125 33.1875 C36.84180579 31.6280393 39.17144018 31.52982599 43 32 C47.3624627 34.30953907 50.44889503 36.77933124 53 41 C53.67239823 44.9390116 53.70110004 48.86234885 53.75561523 52.85180664 C53.7867189 54.05245758 53.81782257 55.25310852 53.84986877 56.49014282 C53.94400481 60.46329501 54.00582438 64.43630346 54.05859375 68.41015625 C54.0787376 69.78339731 54.09898717 71.15663683 54.1193409 72.5298748 C54.20105192 78.24739767 54.27172139 83.96486986 54.31295681 89.68283939 C54.37215372 97.85030328 54.49578771 106.01077973 54.71152347 114.17565829 C54.85837242 119.93217066 54.9312484 125.68683297 54.95036274 131.44517034 C54.96361111 134.87809755 55.00775411 138.30369116 55.13113213 141.73457527 C55.78187605 162.58269424 55.78187605 162.58269424 51.15105057 168.2712822 C46.65624318 172.10536063 41.70507625 174.51486656 36.31790352 176.84657097 C24.69399181 182.63083123 18.08635279 195.27034767 14 207 C13.75378906 207.69738281 13.50757813 208.39476562 13.25390625 209.11328125 C11.52177508 214.8830699 11.18855589 221.0465627 12 227 C13.75399923 230.42251492 13.75399923 230.42251492 17 232 C19.8484577 232.67765728 22.19904557 232.90182245 25 232 C28.21790682 229.45463104 29.79168072 227.91182375 30.71484375 223.87109375 C30.78832031 222.73800781 30.86179687 221.60492188 30.9375 220.4375 C32.26984446 208.76420677 37.20159555 200.5974408 46 193 C49.37097467 190.5983471 52.87145206 188.47297774 56.4375 186.375 C59.96461671 184.26026239 63.4874632 182.13887806 67 180 C67.84449707 179.48598633 68.68899414 178.97197266 69.55908203 178.44238281 C70.35556152 177.93803711 71.15204102 177.43369141 71.97265625 176.9140625 C73.03045288 176.25204834 73.03045288 176.25204834 74.10961914 175.57666016 C78.38377226 172.01182988 79.53281659 167.62504117 80.68359375 162.34375 C80.97169922 161.07402344 81.25980469 159.80429687 81.55664062 158.49609375 C81.99983972 156.49592763 82.43860033 154.49492032 82.87231445 152.49267578 C83.29774962 150.54461796 83.74049324 148.60036582 84.18359375 146.65625 C84.43681396 145.49931641 84.69003418 144.34238281 84.95092773 143.15039062 C86.47908903 138.56128349 88.74968834 135.87231046 92.6875 133.125 C97.09576947 131.62785188 100.53957268 131.68341591 105 133 C108.80558565 135.17346611 111.33123783 137.94400519 113 142 C114.00477414 149.05084892 112.18192782 156.12526035 110.69921875 162.98046875 C110.46217728 164.11092117 110.2251358 165.2413736 109.98091125 166.40608215 C109.22487632 170.00172959 108.45639346 173.59458276 107.6875 177.1875 C107.1821205 179.58120676 106.67755572 181.97508569 106.17382812 184.36914062 C104.99358618 189.96985059 103.80025374 195.56766669 102.60287476 201.16473389 C102.08354581 203.60709151 101.57303318 206.05091417 101.06958008 208.49658203 C99.79749754 214.62604261 98.43743243 220.60608108 96.3125 226.5 C95.93121948 227.56081787 95.93121948 227.56081787 95.54223633 228.64306641 C89.85459813 243.82485553 80.44138967 255.72149763 68.9375 267 C45.63839772 289.89023742 45.0701546 309.82520731 44 343 C12.32 343 -19.36 343 -52 343 C-52.33 335.08 -52.66 327.16 -53 319 C-54.16283299 314.18827728 -55.11617081 310.4046366 -57 306 C-57.27585937 305.28585937 -57.55171875 304.57171875 -57.8359375 303.8359375 C-61.35935008 295.72239109 -67.99238888 289.15335498 -73.9375 282.75 C-91.84632283 262.66500547 -101.11183204 236.86736417 -101.17700195 210.13305664 C-101.18357315 208.95494919 -101.19014435 207.77684174 -101.19691467 206.56303406 C-101.21656723 202.67874792 -101.22829855 198.79447536 -101.23828125 194.91015625 C-101.24233331 193.56715818 -101.24645036 192.22416031 -101.25063133 190.88116264 C-101.26964545 184.57325435 -101.28388819 178.26535752 -101.2922433 171.95742613 C-101.30202265 164.69640406 -101.32837588 157.43568625 -101.36874419 150.17477137 C-101.39895405 144.54652376 -101.41371648 138.91836322 -101.41702431 133.29003614 C-101.41936786 129.93507781 -101.43023093 126.58070446 -101.45348549 123.22578621 C-101.47782976 119.4823895 -101.47692039 115.73978951 -101.4699707 111.99633789 C-101.48278076 110.89530731 -101.49559082 109.79427673 -101.50878906 108.65988159 C-101.45586293 100.82892489 -100.03764747 95.37516386 -94.75 89.5 C-94.1725 89.005 -93.595 88.51 -93 88 C-90.11179306 88.99593343 -89.07343169 89.88659479 -87.39306641 92.48168945 C-85.60542692 96.99652869 -85.54125409 100.85724177 -85.5234375 105.66796875 C-85.50785797 106.58459793 -85.49227844 107.50122711 -85.47622681 108.44563293 C-85.42889097 111.35958051 -85.40100038 114.27329072 -85.375 117.1875 C-85.33847362 120.11225382 -85.29785103 123.03687419 -85.25234985 125.96150208 C-85.22518645 127.77773713 -85.20380782 129.59406989 -85.18881226 131.41044617 C-85.17855011 132.23172501 -85.16828796 133.05300385 -85.15771484 133.89916992 C-85.15121918 134.62053635 -85.14472351 135.34190277 -85.13803101 136.08512878 C-85.06329131 138.222129 -85.06329131 138.222129 -84 141 C-81.18772378 141.93742541 -79.41253156 142.13470844 -76.5 142.125 C-75.7265625 142.12757813 -74.953125 142.13015625 -74.15625 142.1328125 C-71.81552983 142.08145813 -71.81552983 142.08145813 -69 141 C-66.34905679 135.59225414 -66.65270904 129.80422057 -66.5859375 123.9140625 C-66.56657135 122.85714203 -66.5472052 121.80022156 -66.5272522 120.71127319 C-66.46767086 117.34926316 -66.42115658 113.98721849 -66.375 110.625 C-66.33680052 108.33982916 -66.29774764 106.05467242 -66.2578125 103.76953125 C-66.16198698 98.179813 -66.07687711 92.59000924 -66 87 C-62.78956118 88.38188453 -60.95063635 89.92421903 -58.75 92.625 C-57.96882813 93.57246094 -57.96882813 93.57246094 -57.171875 94.5390625 C-56.78515625 95.02117187 -56.3984375 95.50328125 -56 96 C-55.99635437 95.43116592 -55.99270874 94.86233185 -55.98895264 94.27626038 C-55.94693578 88.32170685 -55.87745758 82.3679104 -55.79248047 76.41381836 C-55.76436538 74.19579667 -55.74310409 71.97767654 -55.72900391 69.75952148 C-55.7074434 66.55922394 -55.66072493 63.36009813 -55.609375 60.16015625 C-55.60814636 59.17854019 -55.60691772 58.19692413 -55.60565186 57.18556213 C-55.46016441 50.24789916 -54.38925475 43.54146191 -49.41156006 38.34022522 C-47.75 36.9375 -47.75 36.9375 -45 35 C-42.47411298 37.36292656 -41.11179163 38.66462511 -40 42 C-39.90494654 45.00154234 -39.86677636 47.98033833 -39.87402344 50.98193359 C-39.8721553 51.90092941 -39.87028717 52.81992523 -39.86836243 53.76676941 C-39.86435712 55.7638356 -39.86228347 57.76090637 -39.86190033 59.75797653 C-39.85848792 64.00159051 -39.83713102 68.24505082 -39.81666946 72.48861122 C-39.77862212 80.3921677 -39.74738727 88.29556027 -39.74951172 96.19921875 C-39.75029798 101.6947616 -39.72697225 107.18974252 -39.6876297 112.6851387 C-39.67715554 114.77987773 -39.67565604 116.8746815 -39.68328094 118.96943283 C-39.69288473 121.9000014 -39.67175467 124.828863 -39.64355469 127.75927734 C-39.65375137 128.62490799 -39.66394806 129.49053864 -39.67445374 130.38240051 C-39.59856813 134.77843794 -39.4144794 136.477283 -36.59088135 140.03823853 C-34.04930488 141.96266737 -33.054278 142.66783842 -29.9375 142.5625 C-26.01805359 142.33170112 -26.01805359 142.33170112 -23.5625 140.125 C-21.36345681 137.13430126 -20.87288862 135.50206331 -20.84178162 131.84921265 C-20.8319928 130.97980545 -20.82220398 130.11039825 -20.81211853 129.21464539 C-20.80636307 128.25870987 -20.8006076 127.30277435 -20.79467773 126.31787109 C-20.78477814 125.31296127 -20.77487854 124.30805145 -20.76467896 123.27268982 C-20.73300418 119.93962996 -20.7082829 116.60655583 -20.68359375 113.2734375 C-20.66302939 110.96700665 -20.64203306 108.66057962 -20.62062073 106.35415649 C-20.56534661 100.27473025 -20.5159609 94.19526969 -20.46777344 88.11578369 C-20.41759736 81.91569962 -20.361891 75.71566556 -20.30664062 69.515625 C-20.19899375 57.34379269 -20.09756331 45.17191702 -20 33 C-15.55692767 35.5899475 -13.13252467 37.97246829 -10 42 C-9.98018066 41.35562988 -9.96036133 40.71125977 -9.93994141 40.04736328 C-9.84354411 37.07289417 -9.73433899 34.09902043 -9.625 31.125 C-9.5940625 30.11179688 -9.563125 29.09859375 -9.53125 28.0546875 C-8.84503907 10.21320323 -8.84503907 10.21320323 -3.9375 4.4375 C-3.41027344 3.79683594 -2.88304687 3.15617188 -2.33984375 2.49609375 C-1.5790178 1.64654174 -0.80641018 0.80641018 0 0 Z " fill="#FDD99A" transform="translate(380,159)"/>
<path d="M0 0 C0.99 0.495 0.99 0.495 2 1 C2.00238835 1.66537623 2.00477671 2.33075247 2.00723743 3.01629162 C2.06637854 19.20784711 2.14192279 35.39923456 2.23571491 51.59062481 C2.28067676 59.42067303 2.32009049 67.25067573 2.34643555 75.08081055 C2.36941253 81.90571756 2.40280708 88.73048055 2.44870156 95.55527335 C2.47263799 99.16883055 2.49136394 102.78224508 2.49761391 106.39587975 C2.50478701 110.43038634 2.53521803 114.46439649 2.56762695 118.4987793 C2.56619186 119.69639893 2.56475677 120.89401855 2.5632782 122.12792969 C2.57581635 123.22864304 2.58835449 124.32935638 2.60127258 125.46342468 C2.60588155 126.41748042 2.61049051 127.37153616 2.61523914 128.35450268 C3.07567452 131.52031475 4.13737065 133.41984639 6 136 C9.15796107 137.57898053 12.60670636 137.81928171 16 137 C18.6498039 135.00199131 20.67728986 133.38097215 21.45729256 130.04310989 C21.62750435 127.62340469 21.63802892 125.24818345 21.59594727 122.82275391 C21.60203506 121.44864098 21.60203506 121.44864098 21.60824585 120.04676819 C21.61375776 118.0617433 21.60776955 116.07666044 21.59158516 114.09169388 C21.56616644 110.94689292 21.57096335 107.80340288 21.58348083 104.65853882 C21.60423218 97.98054855 21.58454937 91.30296356 21.5625 84.625 C21.54138363 76.89210257 21.53686053 69.15962733 21.56300163 61.42673874 C21.56635762 58.33388345 21.54515462 55.24183782 21.52259827 52.14907837 C21.52511043 50.24472885 21.52867136 48.34038034 21.53344727 46.43603516 C21.52056168 45.58073715 21.50767609 44.72543915 21.49440002 43.84422302 C21.54245536 38.08261238 22.66531963 34.73234417 26 30 C29.56232852 27.34896483 32.23368701 26.78206195 36.5625 27.0625 C40.66718237 27.69133181 43.06223422 28.97321101 46 32 C48.63761127 35.9564169 48.29230453 39.3729869 48.28710938 43.96606445 C48.29394241 44.88345398 48.30077545 45.80084351 48.30781555 46.74603271 C48.32141314 48.73980059 48.33046025 50.73360346 48.33552551 52.72741127 C48.34380457 55.88408718 48.36430168 59.04047239 48.38806152 62.19706726 C48.43633499 68.90216843 48.46922682 75.60729868 48.5 82.3125 C48.53567228 90.07184565 48.57764057 97.83105001 48.63594055 105.59026146 C48.65598905 108.69783279 48.66432572 111.80529561 48.67224121 114.91291809 C48.68521749 116.82386669 48.69873837 118.7348117 48.71289062 120.64575195 C48.71190872 121.50778732 48.71092682 122.36982269 48.70991516 123.25798035 C48.75712079 127.84126507 49.00478488 131.77287095 51 136 C53.81227622 136.93742541 55.58746844 137.13470844 58.5 137.125 C59.2734375 137.12757813 60.046875 137.13015625 60.84375 137.1328125 C63.18447017 137.08145813 63.18447017 137.08145813 66 136 C66.9037535 133.2887395 67.12835172 131.70093106 67.1418457 128.91503906 C67.14888016 128.09698792 67.15591461 127.27893677 67.16316223 126.43609619 C67.16940865 125.11421295 67.16940865 125.11421295 67.17578125 123.765625 C67.19898513 121.89321799 67.22310269 120.02082213 67.24804688 118.1484375 C67.28310704 115.20142213 67.31247802 112.2548154 67.32592773 109.30761719 C67.34146224 106.45978427 67.38171083 103.61314108 67.42578125 100.765625 C67.42387283 99.89246643 67.42196442 99.01930786 67.41999817 98.11968994 C67.55254112 91.44341035 69.05277691 86.93519361 73.9140625 82.09375 C78.03838714 79.93118277 82.49653871 80.2896132 87 81 C90.6496684 82.87882338 92.73343652 85.60015478 95 89 C95.25168228 91.15003204 95.25168228 91.15003204 95.25396729 93.69055176 C95.26242676 95.13695541 95.26242676 95.13695541 95.27105713 96.61257935 C95.26498444 98.19750687 95.26498444 98.19750687 95.25878906 99.81445312 C95.26404602 101.48572769 95.26404602 101.48572769 95.26940918 103.19076538 C95.27823663 106.88765634 95.27237048 110.58435696 95.265625 114.28125 C95.26697212 116.85135942 95.26891304 119.4214686 95.27142334 121.99157715 C95.27437661 127.38861744 95.270264 132.78558616 95.26074219 138.18261719 C95.24990137 144.39853732 95.25335051 150.6143258 95.264395 156.83024263 C95.27461914 162.82686437 95.27346581 168.82342245 95.26763153 174.8200531 C95.26630195 177.36201496 95.26791839 179.9039802 95.27259064 182.44593811 C95.27770602 186.01417734 95.26987336 189.58216963 95.25878906 193.15039062 C95.26283752 194.19081512 95.26688599 195.23123962 95.27105713 196.30319214 C95.11709918 223.24280846 83.74589853 247.61354516 65.4375 266.9375 C46.163377 287.29116164 45.91371153 309.67494266 45 338 C14.31 338 -16.38 338 -48 338 C-48.66 331.4 -49.32 324.8 -50 318 C-52.80852405 308.00495854 -56.52211539 301.01414183 -63 293 C-64.02748593 291.67178648 -65.04888984 290.33883267 -66.0625 289 C-66.78759766 288.04673828 -66.78759766 288.04673828 -67.52734375 287.07421875 C-69.19547158 284.72468062 -70.6446845 282.28444853 -72.125 279.8125 C-75.76930551 273.98161118 -80.20316302 269.1802092 -84.9375 264.23828125 C-85.95983081 263.16027232 -86.98058016 262.0807621 -88 261 C-88.59167969 260.37963867 -89.18335937 259.75927734 -89.79296875 259.12011719 C-93.94624759 254.60597243 -96.76845732 250.33363996 -99 244.625 C-99.3312085 243.78396729 -99.66241699 242.94293457 -100.00366211 242.07641602 C-104.30104633 230.39158952 -106.38780939 218.07892819 -108.68144226 205.87962341 C-109.71134316 200.42124759 -110.83227227 194.98678936 -111.9921875 189.5546875 C-112.48313471 187.22479081 -112.97257603 184.89458351 -113.46139526 182.5642395 C-113.77292655 181.09085088 -114.08877695 179.61836723 -114.40945435 178.14694214 C-119.72965033 153.63476043 -119.72965033 153.63476043 -114.875 143.875 C-112.42874739 140.16706982 -109.58933082 137.58765711 -106 135 C-102.85920074 137.54084072 -102.32562781 139.87595132 -101.53515625 143.76953125 C-101.29216797 144.90583984 -101.04917969 146.04214844 -100.79882812 147.21289062 C-100.31040039 149.6006156 -99.82340639 151.98863433 -99.33789062 154.37695312 C-97.50634842 162.92576094 -95.91967044 168.26113116 -88.3671875 173.18359375 C-86.54426991 174.28130717 -84.71323043 175.36562681 -82.875 176.4375 C-54.03833999 193.56184896 -54.03833999 193.56184896 -50 208 C-49.44820009 211.58669942 -49.00880623 215.15092994 -48.6875 218.765625 C-47.88300818 222.55039335 -46.78657974 224.33628532 -44 227 C-40.9052186 227.94116787 -38.14711192 227.66078151 -35 227 C-31.69099991 225.44207799 -31.69099991 225.44207799 -30 222 C-27.93915608 210.00294434 -32.76058892 197.13237697 -39 187 C-40.54640831 185.03317335 -42.13643852 183.18448759 -43.86328125 181.375 C-45 180 -45 180 -45 178 C-45.57363281 177.731875 -46.14726563 177.46375 -46.73828125 177.1875 C-49.07025435 175.96311343 -51.08218894 174.57997078 -53.1875 173 C-53.88230469 172.484375 -54.57710937 171.96875 -55.29296875 171.4375 C-57 170 -57 170 -58 168 C-58.09628652 166.52741434 -58.13066369 165.05055615 -58.13371277 163.5748291 C-58.13797775 162.64414612 -58.14224274 161.71346313 -58.14663696 160.75457764 C-58.14618378 159.73019592 -58.14573059 158.70581421 -58.14526367 157.65039062 C-58.14862228 156.5737616 -58.1519809 155.49713257 -58.15544128 154.38787842 C-58.164978 150.81065735 -58.16689619 147.23348301 -58.16796875 143.65625 C-58.17118098 141.17199687 -58.17454503 138.68774394 -58.17805481 136.20349121 C-58.18405396 130.98461468 -58.18589406 125.76575473 -58.18530273 120.546875 C-58.18463825 113.87341874 -58.19881842 107.20008558 -58.21607494 100.52664948 C-58.22722256 95.38952145 -58.22922104 90.25241903 -58.22869301 85.11528015 C-58.22987031 82.65622083 -58.23427804 80.1971608 -58.24202538 77.7381134 C-58.25187465 74.28692266 -58.24892696 70.83596042 -58.24291992 67.38476562 C-58.24853943 66.37657776 -58.25415894 65.36838989 -58.25994873 64.32965088 C-58.18642222 47.61997822 -58.18642222 47.61997822 -53 41.5 C-52.484375 40.8709375 -51.96875 40.241875 -51.4375 39.59375 C-50.32723056 38.3627991 -49.17216432 37.17216432 -48 36 C-47.01 36 -46.02 36 -45 36 C-44.99191315 37.16431549 -44.98382629 38.32863098 -44.97549438 39.52822876 C-44.89798531 50.50470104 -44.81023382 61.48105009 -44.71247292 72.45736122 C-44.66254264 78.10029266 -44.61621215 83.74320568 -44.578125 89.38623047 C-44.54123114 94.8327924 -44.49485974 100.27919896 -44.44193649 105.7256279 C-44.4234144 107.80279183 -44.40829838 109.87998903 -44.39665604 111.95720291 C-44.37975638 114.86827732 -44.35071196 117.77899762 -44.31884766 120.68994141 C-44.31668747 121.54733917 -44.31452728 122.40473694 -44.31230164 123.28811646 C-44.24848398 127.85673497 -43.98350937 131.7858397 -42 136 C-39.18772378 136.93742541 -37.41253156 137.13470844 -34.5 137.125 C-33.7265625 137.12757813 -32.953125 137.13015625 -32.15625 137.1328125 C-29.81552983 137.08145813 -29.81552983 137.08145813 -27 136 C-26.09517621 133.28552863 -25.86655584 131.67322283 -25.84178162 128.8808136 C-25.8319928 128.04368835 -25.82220398 127.20656311 -25.81211853 126.34407043 C-25.80636307 125.42913315 -25.8006076 124.51419586 -25.79467773 123.5715332 C-25.78477814 122.60549164 -25.77487854 121.63945007 -25.76467896 120.64413452 C-25.7330547 117.44637515 -25.70830278 114.24860092 -25.68359375 111.05078125 C-25.66302503 108.83546052 -25.64202858 106.62014372 -25.62062073 104.40483093 C-25.56539163 98.57037539 -25.515986 92.73588437 -25.46777344 86.90136719 C-25.41756457 80.94918659 -25.36187529 74.99705758 -25.30664062 69.04492188 C-25.19904878 57.36332531 -25.09760604 45.68168397 -25 34 C-18.73806156 36.37702346 -15.33199334 39.17382667 -12 45 C-11.99589111 44.1435791 -11.99178223 43.2871582 -11.98754883 42.40478516 C-11.96033008 39.17990821 -11.91099613 35.95628308 -11.84741211 32.73193359 C-11.82443596 31.34533122 -11.80988495 29.95855938 -11.80444336 28.57177734 C-11.76027309 19.16011299 -11.2290705 10.40193234 -4.34570312 3.29101562 C-2.6875 1.875 -2.6875 1.875 0 0 Z " fill="#FDD99A" transform="translate(152,164)"/>
<path d="M0 0 C0.87470947 -0.01417969 1.74941895 -0.02835938 2.65063477 -0.04296875 C10.96239567 0.01939089 18.41128578 2.00296246 25.75 5.9375 C30.45310745 8.49064746 30.45310745 8.49064746 35.4375 10.375 C37.37038629 9.67940426 37.37038629 9.67940426 39.0625 8.25 C51.84054691 -0.64118854 68.33232961 -1.49463315 83.2890625 1.0234375 C99.93784869 5.76287298 112.0927212 16.18921183 120.74609375 30.99609375 C129.03670826 47.55817586 128.95231656 65.15775414 123.44140625 82.51171875 C118.23522734 95.71631785 110.8779808 107.80630709 101.4375 118.375 C100.77621094 119.14457031 100.11492187 119.91414063 99.43359375 120.70703125 C89.07904955 132.5548304 77.86116897 143.71593868 65.4375 153.375 C64.21678937 154.3595532 62.99817816 155.34671291 61.78125 156.3359375 C58.59667248 158.92197951 55.39173877 161.47999163 52.16650391 164.01513672 C50.63035228 165.22332149 49.1017295 166.44106513 47.57421875 167.66015625 C43.07168044 171.07032135 39.38712062 173.14582016 33.73828125 173.79296875 C27.35565684 172.63347671 21.73830224 167.53479317 16.6875 163.6875 C15.9864917 163.15640625 15.2854834 162.6253125 14.56323242 162.078125 C4.00215081 154.03896623 -5.95709822 145.52376467 -15.5625 136.375 C-16.17174316 135.79975586 -16.78098633 135.22451172 -17.40869141 134.63183594 C-38.65354275 114.46704542 -57.63664685 89.12209312 -58.9375 58.75 C-58.19093427 41.00209648 -50.70971454 25.47295435 -37.94921875 13.2890625 C-26.41074014 4.03561812 -14.65187709 0.18415556 0 0 Z M-15.5625 24.375 C-16.21347656 24.70371094 -16.86445313 25.03242188 -17.53515625 25.37109375 C-27.44163155 30.88741622 -33.42902557 39.61043481 -36.5625 50.375 C-38.99866098 63.02059876 -35.73459927 72.88583292 -30.5625 84.375 C-29.43524042 80.72958797 -29.4240894 77.23552478 -29.3125 73.4375 C-28.61181996 60.34324246 -23.19981049 48.61277312 -13.62109375 39.53515625 C-3.68580868 31.64714204 7.03134948 28.46628176 19.4375 27.375 C12.42270767 21.23705671 4.94909654 20.88576143 -4.00390625 21.08984375 C-8.60109716 21.45822458 -11.4502398 22.28279744 -15.5625 24.375 Z M41.4375 33.375 C42.18 33.9525 42.9225 34.53 43.6875 35.125 C46.4375 37.375 46.4375 37.375 48.4375 39.6875 C50.30415394 41.61887655 50.30415394 41.61887655 52.8125 41.4375 C55.60557549 40.30696945 57.4081239 38.76078985 59.64453125 36.77734375 C68.11413862 30.15296674 78.0275346 28.2906914 88.4375 27.375 C81.64026611 21.19569646 74.14025816 20.86018367 65.296875 21 C55.53403676 21.94861586 48.19655121 26.47679185 41.4375 33.375 Z " fill="#FE5C5C" transform="translate(222.5625,-0.375)"/>
<path d="M0 0 C0.87470947 -0.01417969 1.74941895 -0.02835938 2.65063477 -0.04296875 C10.96239567 0.01939089 18.41128578 2.00296246 25.75 5.9375 C30.45310745 8.49064746 30.45310745 8.49064746 35.4375 10.375 C37.37038629 9.67940426 37.37038629 9.67940426 39.0625 8.25 C51.84054691 -0.64118854 68.33232961 -1.49463315 83.2890625 1.0234375 C99.93784869 5.76287298 112.0927212 16.18921183 120.74609375 30.99609375 C129.03670826 47.55817586 128.95231656 65.15775414 123.44140625 82.51171875 C118.23522734 95.71631785 110.8779808 107.80630709 101.4375 118.375 C100.77621094 119.14457031 100.11492187 119.91414063 99.43359375 120.70703125 C89.07904955 132.5548304 77.86116897 143.71593868 65.4375 153.375 C64.21678937 154.3595532 62.99817816 155.34671291 61.78125 156.3359375 C58.59667248 158.92197951 55.39173877 161.47999163 52.16650391 164.01513672 C50.63035228 165.22332149 49.1017295 166.44106513 47.57421875 167.66015625 C43.07168044 171.07032135 39.38712062 173.14582016 33.73828125 173.79296875 C27.35565684 172.63347671 21.73830224 167.53479317 16.6875 163.6875 C15.9864917 163.15640625 15.2854834 162.6253125 14.56323242 162.078125 C4.00215081 154.03896623 -5.95709822 145.52376467 -15.5625 136.375 C-16.17174316 135.79975586 -16.78098633 135.22451172 -17.40869141 134.63183594 C-38.65354275 114.46704542 -57.63664685 89.12209312 -58.9375 58.75 C-58.19093427 41.00209648 -50.70971454 25.47295435 -37.94921875 13.2890625 C-26.41074014 4.03561812 -14.65187709 0.18415556 0 0 Z M-15.5625 24.375 C-16.21347656 24.70371094 -16.86445313 25.03242188 -17.53515625 25.37109375 C-27.44163155 30.88741622 -33.42902557 39.61043481 -36.5625 50.375 C-38.99514822 63.00236476 -35.75320871 72.92349802 -30.5625 84.375 C-30.27761719 85.06207031 -29.99273437 85.74914062 -29.69921875 86.45703125 C-24.47751264 98.21205686 -14.37864476 108.19974547 -5.5625 117.375 C-5.07491211 117.88450195 -4.58732422 118.39400391 -4.08496094 118.91894531 C2.68751898 125.95614757 9.7162344 132.3728457 17.4375 138.375 C18.79446518 139.47241598 20.15122181 140.57008987 21.5078125 141.66796875 C22.94155965 142.80093433 24.37645199 143.93245222 25.8125 145.0625 C26.49086914 145.61679688 27.16923828 146.17109375 27.86816406 146.7421875 C29.68372584 148.14417962 31.37588437 149.36964968 33.4375 150.375 C37.95697704 149.73719823 41.38371805 146.31988157 44.875 143.5 C45.48553223 143.01168701 46.09606445 142.52337402 46.72509766 142.02026367 C48.63731988 140.48151086 50.53891227 138.9305346 52.4375 137.375 C53.01741699 136.90239746 53.59733398 136.42979492 54.19482422 135.94287109 C75.12113007 118.7865317 103.14896741 94.03652106 106.6875 65.34814453 C107.67392057 52.12702627 104.85299523 42.69486376 96.4375 32.375 C88.29089466 24.22839466 78.69453765 21.04618381 67.43115234 20.98999023 C57.37548222 21.21342273 49.71368271 25.57455303 42.1796875 31.921875 C39.24549008 34.36923249 36.67061848 34.94954049 32.83203125 34.921875 C28.63599376 33.96356301 25.69484641 31.07985718 22.34375 28.48828125 C11.27542819 20.43994509 -3.0936618 18.03120512 -15.5625 24.375 Z " fill="#000000" transform="translate(222.5625,-0.375)"/>
<path d="M0 0 C0.88107422 -0.02384766 1.76214844 -0.04769531 2.66992188 -0.07226562 C7.02325732 -0.06248285 10.13299402 0.13041287 13.625 2.8828125 C16.67525907 6.23614219 17.14159229 8.05423953 17.0625 12.5625 C15.81325623 16.38371623 14.85724527 18.06267511 11.44140625 20.2109375 C7.55313953 21.76624419 4.18197985 22.00719045 0.0625 21.9375 C-0.96617188 21.95490234 -0.96617188 21.95490234 -2.015625 21.97265625 C-6.71487294 21.94575216 -9.98211563 21.09347512 -13.9375 18.5625 C-16.37521726 14.60120946 -17.06503814 12.50309379 -16.4375 7.875 C-12.93113776 0.13178339 -7.68271342 -0.09512464 0 0 Z " fill="#000000" transform="translate(93.9375,103.4375)"/>
<path d="M0 0 C2.88249604 1.60138669 5.4459707 3.53482612 6.6484375 6.71484375 C7.86049925 14.59324514 8.47866138 24.12205573 4 31 C1.12723826 33.44716741 -2.32005986 33.46767612 -6.03125 33.3984375 C-9.35497067 32.72577975 -10.94818657 30.54922275 -13 28 C-13.33 27.67 -13.66 27.34 -14 27 C-14.33492217 23.59312078 -14.325022 20.17122155 -14.375 16.75 C-14.43107422 15.31720703 -14.43107422 15.31720703 -14.48828125 13.85546875 C-14.57724381 6.74834865 -14.57724381 6.74834865 -11.6015625 2.890625 C-7.49086981 -0.09672524 -5.13037937 -0.51303794 0 0 Z " fill="#000000" transform="translate(68,68)"/>
<path d="M0 0 C1.28293945 -0.0309375 1.28293945 -0.0309375 2.59179688 -0.0625 C7.45678403 -0.09264709 10.74240371 0.06897375 14.6875 3.25 C17.25939679 6.67919572 17.189642 10.08939486 16.6875 14.25 C14.67037868 17.72565519 12.57389464 19.95453512 8.6875 21.25 C5.88230593 21.39854388 3.11827873 21.48104204 0.3125 21.5 C-0.44289063 21.520625 -1.19828125 21.54125 -1.9765625 21.5625 C-7.62675663 21.60201185 -10.90365446 20.49271826 -15.125 16.5625 C-16.87332685 13.15786351 -17.11755827 9.93863063 -16.3125 6.25 C-11.2405447 -0.02320787 -7.53614899 0.04482468 0 0 Z " fill="#000000" transform="translate(34.3125,103.75)"/>
<path d="M0 0 C2.7732186 2.32350747 3.84803402 3.54410205 5 7 C5.1484944 9.61864161 5.2310027 12.1932477 5.25 14.8125 C5.270625 15.51181641 5.29125 16.21113281 5.3125 16.93164062 C5.3483514 21.72228335 4.56687357 24.95596333 2 29 C-1.39331233 31.39074278 -3.40827516 31.98961886 -7.5625 32.0625 C-11.77857776 30.75934869 -13.95004771 28.82977838 -16 25 C-16.68532927 21.62171286 -16.65549769 18.37338747 -16.5625 14.9375 C-16.57345703 14.05255859 -16.58441406 13.16761719 -16.59570312 12.25585938 C-16.5483724 8.04973573 -16.37662273 5.6152826 -14.14453125 1.96875 C-9.52316431 -2.27381637 -5.59154976 -2.67421945 0 0 Z " fill="#000000" transform="translate(70,129)"/>
<path d="M0 0 C3.01440077 2.09430751 4.74268857 3.71554122 5.47900391 7.39111328 C5.67434763 10.27694305 5.68177294 13.10836516 5.625 16 C5.65400391 17.47726563 5.65400391 17.47726563 5.68359375 18.984375 C5.65180011 23.68983435 5.54193008 26.23369186 2.7734375 30.1484375 C-0.14319006 32.09559449 -1.53596041 32.67912562 -5 32.625 C-5.825 32.63789062 -6.65 32.65078125 -7.5 32.6640625 C-11.35295004 31.64062265 -12.6934653 30.261521 -15 27 C-15.72926662 23.31682764 -15.69850009 19.74360444 -15.625 16 C-15.64433594 15.01515625 -15.66367187 14.0303125 -15.68359375 13.015625 C-15.65127391 8.23228809 -15.58710378 5.78020436 -12.6484375 1.875 C-8.15908018 -1.30330607 -5.27565348 -1.2734336 0 0 Z " fill="#000000" transform="translate(454,78)"/>
<path d="M0 0 C0.99386719 -0.03287109 1.98773438 -0.06574219 3.01171875 -0.09960938 C7.75946423 -0.134566 10.31587632 -0.13028852 14.28125 2.65234375 C16.21546602 5.57415736 16.80408439 6.97609907 16.75 10.4375 C16.76289063 11.2625 16.77578125 12.0875 16.7890625 12.9375 C15.76562265 16.79045004 14.386521 18.1309653 11.125 20.4375 C7.44182764 21.16676662 3.86860444 21.13600009 0.125 21.0625 C-1.35226562 21.09150391 -1.35226562 21.09150391 -2.859375 21.12109375 C-7.62395982 21.08890061 -10.09606493 21.01683296 -14 18.11328125 C-16.37395111 14.72545518 -16.875 12.56917058 -16.875 8.4375 C-13.52871333 -0.43015968 -8.40416095 0.04867275 0 0 Z " fill="#000000" transform="translate(478.875,53.5625)"/>
<path d="M0 0 C1.47726562 -0.02900391 1.47726562 -0.02900391 2.984375 -0.05859375 C7.74895982 -0.02640061 10.22106493 0.04566704 14.125 2.94921875 C16.49895111 6.33704482 17 8.49332942 17 12.625 C15.48483372 16.64019063 14.5944747 18.22868353 11 20.625 C7.39129699 21.10979151 3.76281268 21.04143159 0.125 21.0625 C-1.36580078 21.11180664 -1.36580078 21.11180664 -2.88671875 21.16210938 C-7.63446423 21.197066 -10.19087632 21.19278852 -14.15625 18.41015625 C-16.09046602 15.48834264 -16.67908439 14.08640093 -16.625 10.625 C-16.63789063 9.8 -16.65078125 8.975 -16.6640625 8.125 C-14.38167026 -0.46753548 -7.43182784 -0.14591285 0 0 Z " fill="#000000" transform="translate(419,53.375)"/>
<path d="M0 0 C0.825 -0.01289063 1.65 -0.02578125 2.5 -0.0390625 C6.35295004 0.98437735 7.6934653 2.363479 10 5.625 C10.72926662 9.30817236 10.69850009 12.88139556 10.625 16.625 C10.65400391 18.10226563 10.65400391 18.10226563 10.68359375 19.609375 C10.65140061 24.37395982 10.57933296 26.84606493 7.67578125 30.75 C4.28795518 33.12395111 2.13167058 33.625 -2 33.625 C-6.01519063 32.10983372 -7.60368353 31.2194747 -10 27.625 C-10.48479151 24.01629699 -10.41643159 20.38781268 -10.4375 16.75 C-10.47037109 15.75613281 -10.50324219 14.76226562 -10.53710938 13.73828125 C-10.572066 8.99053577 -10.56778852 6.43412368 -7.78515625 2.46875 C-4.86334264 0.53453398 -3.46140093 -0.05408439 0 0 Z " fill="#000000" transform="translate(449,17.375)"/>
<path d="M0 0 C3.0625 1.9375 3.0625 1.9375 5 5 C6.03945854 9.75058323 5.669717 12.94141507 3.0625 17.0625 C-1.05858493 19.669717 -4.24941677 20.03945854 -9 19 C-12.0625 17.0625 -12.0625 17.0625 -14 14 C-15.03945854 9.24941677 -14.669717 6.05858493 -12.0625 1.9375 C-7.94141507 -0.669717 -4.75058323 -1.03945854 0 0 Z " fill="#050403" transform="translate(401,283)"/>
</svg>
