<?xml version="1.0" encoding="UTF-8"?>
<svg version="1.1" xmlns="http://www.w3.org/2000/svg" width="512" height="512">
<path d="M0 0 C6.72962427 3.62364384 11.88557196 8.25206945 14.9375 15.3125 C17.45057399 24.03972057 17.45164055 31.8857344 13.9375 40.3125 C9.95443516 47.26453648 3.61420516 52.98453002 -1.91137695 58.73364258 C-5.99836305 63.01690443 -9.61030702 67.50372217 -13.0625 72.3125 C-12.51207031 71.94640625 -11.96164063 71.5803125 -11.39453125 71.203125 C1.65865511 62.70337574 15.22994382 54.91474479 29.25 48.125 C30.38598633 47.56353271 30.38598633 47.56353271 31.54492188 46.99072266 C40.08169928 42.96749074 47.85083383 42.65558007 56.9375 45.3125 C64.32107558 48.51377053 70.55558944 54.64766073 73.875 62 C76.54045281 70.47947176 75.63777793 79.16589153 72.10546875 87.19140625 C70.88871479 89.40109656 69.50136228 91.3363875 67.9375 93.3125 C68.56914062 93.0959375 69.20078125 92.879375 69.8515625 92.65625 C78.84083849 89.858435 88.81674442 88.27669777 97.8125 91.875 C105.40295445 95.90345348 110.9663433 101.17119492 113.9375 109.3125 C116.62035466 118.231179 115.07495826 127.11844585 110.9375 135.3125 C108.5625 138.1875 108.5625 138.1875 105.9375 140.3125 C105.1125 141.158125 104.2875 142.00375 103.4375 142.875 C98.68155146 146.6774044 92.71304777 147.77921107 86.9375 149.3125 C83.73259198 150.17145994 80.52782859 151.03095416 77.32324219 151.89111328 C75.0766754 152.49140662 72.82868422 153.08640222 70.57910156 153.67529297 C60.03504089 156.46150617 49.80528024 159.62779625 39.9375 164.3125 C40.76604492 164.48471069 40.76604492 164.48471069 41.61132812 164.66040039 C68.95365833 170.45677052 93.89624462 182.25061693 109.9375 206.3125 C110.33839844 205.64605469 110.73929687 204.97960937 111.15234375 204.29296875 C117.44549955 194.08977964 124.41868367 184.70802649 133.9375 177.3125 C134.65035156 176.75175781 135.36320312 176.19101563 136.09765625 175.61328125 C155.42448239 161.25528854 177.5385918 155.98680716 201.38110352 156.0378418 C202.6430806 156.03273087 203.90505768 156.02761993 205.20527649 156.02235413 C208.61792788 156.00914246 212.0304674 156.00836402 215.44313931 156.01091743 C218.30399218 156.01199712 221.16482329 156.00707974 224.02567142 156.002312 C230.77079344 155.9912837 237.5158597 155.99074473 244.26098633 155.99682617 C251.20721674 156.00289231 258.15324595 155.9904732 265.09944206 155.9692561 C271.08702713 155.95164342 277.07454804 155.94563729 283.06215805 155.94889385 C286.6285925 155.95070372 290.19488259 155.94809804 293.76129341 155.93417931 C297.72709236 155.9192736 301.69263297 155.928568 305.65844727 155.94018555 C306.83407227 155.93254181 308.00969727 155.92489807 309.22094727 155.91702271 C310.30142838 155.92403702 311.38190948 155.93105133 312.49513245 155.9382782 C313.43100472 155.93811046 314.366877 155.93794271 315.33110905 155.93776989 C318.50347505 156.39387225 320.35784206 157.43367483 322.9375 159.3125 C325.60586411 163.31504616 325.7715238 166.60563299 324.9375 171.3125 C322.75590855 174.06819447 321.06572506 175.74838747 317.9375 177.3125 C316.22496617 177.40898447 314.50867466 177.44153372 312.79342651 177.44380188 C311.70313141 177.44781006 310.6128363 177.45181824 309.48950195 177.45594788 C308.28753174 177.45541916 307.08556152 177.45489044 305.84716797 177.4543457 C303.90958264 177.45967983 301.97199731 177.46501993 300.03441262 177.47058237 C297.94601537 177.47578633 295.85762443 177.4786956 293.76922226 177.48116493 C289.40438647 177.4870833 285.03963191 177.50363691 280.67483521 177.52250671 C279.17831998 177.52884496 277.68180471 177.53517057 276.18528938 177.54148388 C275.43552401 177.54464969 274.68575863 177.5478155 273.9132731 177.55107725 C263.7525812 177.59305388 253.59192502 177.62605497 243.43115234 177.63842773 C236.57864362 177.64685776 229.72633429 177.66953799 222.87392533 177.7077834 C219.25384075 177.72739684 215.63405322 177.73999878 212.0139122 177.73494911 C190.64200582 177.58976847 190.64200582 177.58976847 169.9375 182.3125 C168.8211618 182.70105667 167.70482361 183.08961334 166.55465698 183.48994446 C159.09959291 186.21926408 153.12903981 190.41592276 146.9375 195.3125 C145.90625 196.055 144.875 196.7975 143.8125 197.5625 C135.32934801 205.6768193 129.52561292 215.6019856 124.9375 226.3125 C124.9375 226.9725 124.9375 227.6325 124.9375 228.3125 C125.38480469 227.66023437 125.83210938 227.00796875 126.29296875 226.3359375 C140.71200427 205.49136163 159.69999635 192.65530792 184.70359993 187.9579525 C191.72796127 186.77990846 198.77791874 186.91951545 205.87866211 186.97192383 C207.51632166 186.97277251 209.15398234 186.97229026 210.79164124 186.97059631 C215.18741004 186.96974434 219.58292744 186.98723892 223.97863841 187.00831819 C228.59101596 187.02721987 233.20340085 187.02884596 237.81581116 187.03239441 C246.52769445 187.04167559 255.23946325 187.06623554 263.95129639 187.09644288 C275.73939051 187.13641945 287.5275165 187.15247354 299.31566143 187.16994953 C317.85635986 187.19805999 336.39681679 187.25785548 354.9375 187.3125 C354.9375 212.3925 354.9375 237.4725 354.9375 263.3125 C356.5875 263.6425 358.2375 263.9725 359.9375 264.3125 C362.68902035 266.26913669 364.60482806 267.76192418 365.33789062 271.17871094 C365.56835245 278.31973511 362.89560145 283.3508425 359.625 289.5625 C347.66881149 313.50482033 339.70867867 338.66963495 331.77050781 364.15991211 C326.23840494 381.85701403 320.27575146 399.34369625 312.0625 416 C311.29897217 417.56596924 311.29897217 417.56596924 310.52001953 419.16357422 C299.39627244 441.76810983 286.0964557 462.00628156 270.3125 481.625 C269.78615967 482.28298584 269.25981934 482.94097168 268.7175293 483.61889648 C265.50951213 487.56864596 262.13885107 491.2187092 258.4765625 494.75244141 C256.70770187 496.48369378 256.70770187 496.48369378 254.5625 499.375 C248.96683549 505.63681504 242.05393816 509.7365976 233.640625 510.68359375 C223.8589828 510.87170225 218.05010768 508.757953 210.0625 503.375 C204.21975163 497.70409717 201.94956496 491.27659999 200.9375 483.3125 C201.13594043 470.21543159 207.50445857 462.38819245 216.3125 453.375 C221.86799925 447.58032741 227.10619194 441.73366343 231.9375 435.3125 C231.36386719 435.69019531 230.79023438 436.06789063 230.19921875 436.45703125 C218.0268328 444.34414627 205.41400115 451.53896431 192.625 458.375 C191.59511963 458.92969971 191.59511963 458.92969971 190.54443359 459.49560547 C181.5200289 464.25718108 172.46241511 466.17975234 162.30859375 463.66015625 C154.33245743 460.4280871 148.13770832 454.97664421 144.62890625 447.109375 C141.71979099 439.54896245 141.8266023 431.2243942 144.8125 423.6875 C146.01913724 420.99714585 147.29149426 418.7815086 148.9375 416.3125 C148.19886719 416.456875 147.46023438 416.60125 146.69921875 416.75 C134.59595859 418.96457365 124.71536012 419.7879683 113.93359375 413.0625 C108.01813309 408.56521674 104.33131996 401.57725859 102.9375 394.3125 C102.0551264 385.2573217 103.64797225 377.36099958 109.1875 370 C115.92445095 363.41616158 123.1665481 361.08873867 132.1875 358.875 C134.50836012 358.27686043 136.82866831 357.67657545 139.1484375 357.07421875 C140.2940918 356.77950684 141.43974609 356.48479492 142.62011719 356.18115234 C154.69149655 353.02027747 166.5792084 349.52992663 177.9375 344.3125 C176.26591506 342.64091506 174.06760241 342.77840878 171.8215332 342.41308594 C154.13795573 339.50797013 138.46480924 332.10497575 124.9375 320.3125 C124.0815625 319.58933594 123.225625 318.86617188 122.34375 318.12109375 C116.80249056 313.32256336 112.1961516 308.27743254 107.9375 302.3125 C107.55980469 302.96734375 107.18210938 303.6221875 106.79296875 304.296875 C92.90306193 327.32744649 71.34769841 342.74670145 45.59765625 349.96875 C35.32447559 352.49524651 24.622113 352.46318726 14.10400391 352.47363281 C12.88293945 352.47859772 11.661875 352.48356262 10.40380859 352.48867798 C7.09428856 352.50066984 3.78483066 352.50821121 0.4752965 352.51268864 C-1.59724787 352.51564111 -3.66978697 352.5197493 -5.74232864 352.52419281 C-12.24243621 352.53781098 -18.74253147 352.5475105 -25.2426523 352.5513947 C-32.72035798 352.55588988 -40.1978822 352.57352878 -47.6755327 352.6023953 C-53.4796458 352.62401857 -59.28370776 352.63409899 -65.0878607 352.63543582 C-68.5453842 352.63648152 -72.00273576 352.64234147 -75.46021652 352.66025543 C-79.30866128 352.67981607 -83.15687782 352.67544463 -87.00537109 352.66894531 C-88.14313995 352.6781601 -89.28090881 352.68737488 -90.45315552 352.6968689 C-96.02115402 352.66736709 -100.33883623 352.62946549 -105.0625 349.3125 C-107.0625 346.3125 -107.0625 346.3125 -107.0625 342.3125 C-113.6625 342.3125 -120.2625 342.3125 -127.0625 342.3125 C-127.3925 343.9625 -127.7225 345.6125 -128.0625 347.3125 C-130.30697356 350.42023262 -131.71679694 351.21647137 -135.4375 352.25 C-139.59565085 352.32169226 -141.60248772 351.56553125 -145.0625 349.3125 C-147.7415573 345.29391405 -147.75860694 342.03608279 -147.0625 337.3125 C-145.26856332 334.44220131 -144.07986724 332.82118362 -141.0625 331.3125 C-133.59583333 330.95694444 -133.59583333 330.95694444 -130.0625 333.3125 C-130.08034798 331.8105735 -130.08034798 331.8105735 -130.09855652 330.27830505 C-130.20458082 320.73447688 -130.25059698 311.19189048 -130.24128246 301.64745998 C-130.23833251 296.74298841 -130.25484996 291.84036161 -130.31958008 286.9362793 C-130.82597847 246.54563502 -130.82597847 246.54563502 -119.34310913 228.40560913 C-116.49779345 223.75504395 -114.76846751 218.59383921 -112.875 213.5 C-112.44123047 212.35023682 -112.00746094 211.20047363 -111.56054688 210.01586914 C-106.9439238 197.57907276 -103.05419853 184.89715837 -99.0625 172.25 C-83.65679633 123.46969207 -63.18059924 74.19102906 -25.65161133 37.92700195 C-23.99467627 36.24359259 -22.52938931 34.47493766 -21.0625 32.625 C-18.07114003 29.09264939 -15.30431708 27.20616834 -11.0625 25.3125 C-7.625 25.0625 -7.625 25.0625 -5.0625 25.3125 C-6.3714572 22.19052522 -6.3714572 22.19052522 -9.0625 20.3125 C-12.35350611 19.86079328 -14.89965846 19.61684866 -17.83203125 21.37109375 C-22.41872102 25.19160961 -26.22607039 29.76283984 -30.0625 34.3125 C-30.87589844 35.23804688 -31.68929687 36.16359375 -32.52734375 37.1171875 C-52.84808669 60.36952046 -69.38834514 87.99811708 -80.80859375 116.65234375 C-81.23297729 117.71622314 -81.65736084 118.78010254 -82.09460449 119.8762207 C-87.3578627 133.31486323 -91.68673113 147.06685965 -96.0625 160.8125 C-103.57725484 184.41866395 -111.60493261 207.73780953 -122.3125 230.125 C-122.78945312 231.17107422 -123.26640625 232.21714844 -123.7578125 233.29492188 C-126.42924866 238.90854786 -128.34216901 242.61825571 -134.0625 245.3125 C-138.16864613 245.99685769 -139.72222593 245.50510796 -143.375 243.4375 C-146.89507549 240.65418449 -146.97209114 240.05032821 -147.5234375 235.55078125 C-147.43947865 229.1660922 -144.48057699 224.01723353 -141.65316772 218.42181396 C-139.97575047 215.08351879 -138.37534657 211.7089015 -136.77734375 208.33203125 C-136.29099205 207.3046283 -136.29099205 207.3046283 -135.79481506 206.25646973 C-128.80355649 191.33923467 -124.07966964 175.48299058 -119.01953125 159.8359375 C-118.65530563 158.71250946 -118.29108002 157.58908142 -117.91581726 156.43161011 C-116.08711945 150.78921195 -114.26962816 145.14380585 -112.47729492 139.48974609 C-105.9509792 119.08399942 -98.16261702 99.22898085 -88.0625 80.3125 C-87.69189453 79.60996094 -87.32128906 78.90742187 -86.93945312 78.18359375 C-78.1163505 61.53567632 -67.83200371 46.01948384 -56.0625 31.3125 C-55.35996094 30.41660156 -54.65742187 29.52070313 -53.93359375 28.59765625 C-23.26642813 -9.86337466 -23.26642813 -9.86337466 0 0 Z M32.125 70.0625 C31.21572754 70.55403564 30.30645508 71.04557129 29.36962891 71.55200195 C16.00153503 78.88210782 3.03417925 87.02239244 -9.0625 96.3125 C-9.59117676 96.71259277 -10.11985352 97.11268555 -10.66455078 97.52490234 C-17.39584229 102.62657329 -23.90123951 107.91167742 -30.125 113.625 C-30.64884277 114.10420898 -31.17268555 114.58341797 -31.71240234 115.07714844 C-36.63215403 119.67400662 -40.90200083 124.41957463 -43.9375 130.5 C-44.36804688 131.33917969 -44.79859375 132.17835938 -45.2421875 133.04296875 C-46.36884354 135.42659707 -46.36884354 135.42659707 -45.0625 138.3125 C-44.37643677 137.61072632 -44.37643677 137.61072632 -43.67651367 136.89477539 C-35.15468224 128.20402546 -26.74194317 119.71863229 -17.0625 112.3125 C-16.09699219 111.54164062 -15.13148438 110.77078125 -14.13671875 109.9765625 C30.92792652 74.39625727 30.92792652 74.39625727 53.9375 71.3125 C52.78576645 68.84449953 51.88966435 67.26466435 49.9375 65.3125 C42.79445235 64.45438082 38.29264641 66.63558052 32.125 70.0625 Z M75.17578125 112.81640625 C73.9014624 113.14133057 72.62714355 113.46625488 71.31420898 113.80102539 C69.95918553 114.15792861 68.60445424 114.51594266 67.25 114.875 C66.56108673 115.05545868 65.87217346 115.23591736 65.16238403 115.42184448 C43.14611336 121.20467291 22.65269748 127.46283875 5.49121094 142.94140625 C2.20059234 145.84525824 -1.2814924 148.52030451 -4.72265625 151.2421875 C-7.16953263 153.40720333 -9.09809066 155.70841002 -11.0625 158.3125 C-7.41752226 156.99779923 -4.58028914 155.3936357 -1.4765625 153.0859375 C22.9561938 135.6391263 51.78554937 127.15925544 80.5390625 120.0625 C81.19747131 119.89941345 81.85588013 119.7363269 82.53424072 119.56829834 C86.31622407 118.65000684 90.09119306 117.90458112 93.9375 117.3125 C92.07183512 113.68456002 92.07183512 113.68456002 88.9375 111.3125 C84.06281798 111.07428462 79.89138435 111.60879671 75.17578125 112.81640625 Z M6.8125 193.125 C5.9875 193.82238281 5.1625 194.51976562 4.3125 195.23828125 C3.52875 195.92277344 2.745 196.60726562 1.9375 197.3125 C1.215625 197.92480469 0.49375 198.53710938 -0.25 199.16796875 C-1.86403049 200.53794221 -3.46495863 201.92333359 -5.0625 203.3125 C-1.76940908 203.3125 0.23712179 202.35784519 3.17602539 200.97485352 C21.27749745 192.46641585 42.19838633 189.91503934 61.609375 195.75390625 C64.07144467 196.56165124 64.07144467 196.56165124 66.9375 195.3125 C54.87735332 189.21334235 44.1817025 186.09410583 30.6875 185.9375 C29.85984131 185.92348145 29.03218262 185.90946289 28.17944336 185.89501953 C20.03005728 185.95848954 13.09106159 187.72969369 6.8125 193.125 Z M176.9375 219.3125 C175.865 219.951875 174.7925 220.59125 173.6875 221.25 C161.72902372 230.21885721 157.95932132 240.25288834 155.88842773 254.48486328 C155.66779333 256.05435079 155.45457764 257.62490392 155.24975586 259.1965332 C154.9375 261.3125 154.9375 261.3125 154.1484375 264.6484375 C153.66975458 267.34335215 153.66975458 267.34335215 155.23828125 269.40234375 C165.47831967 278.80727225 174.60209871 285.42449532 188.9375 285.3125 C199.1425091 283.98480749 207.93426831 279.73860402 214.45703125 271.64453125 C221.07888256 261.21380504 224.97086552 250.75535326 223.9375 238.3125 C221.54996766 229.12111904 217.06688764 223.79430507 209.25390625 218.64453125 C204.22367169 215.75193431 199.96624963 214.92391892 194.1875 214.9375 C193.4773877 214.93911133 192.76727539 214.94072266 192.03564453 214.94238281 C186.16679907 215.07914823 181.8776352 216.22756579 176.9375 219.3125 Z M3.9375 236.3125 C-3.07298272 247.00824274 -7.29365245 257.34643879 -6.0625 270.3125 C-3.68925239 279.63495766 2.97535708 286.55520436 11.04296875 291.40234375 C17.99105317 294.74028946 26.95898266 294.36121084 34.2421875 292.44140625 C40.88259637 289.86465726 46.07798667 286.5097822 50.9375 281.3125 C51.49179688 280.72855469 52.04609375 280.14460938 52.6171875 279.54296875 C60.17699531 270.61036002 61.44906649 258.52733071 62.9375 247.3125 C63.19917969 246.29027344 63.46085937 245.26804688 63.73046875 244.21484375 C64.23892271 241.24906224 64.23892271 241.24906224 62.3828125 238.96875 C52.68152204 229.95340937 44.45869638 224.38747378 31.0625 222.875 C20.05841521 223.46128321 10.8580286 227.7532091 3.9375 236.3125 Z M122.9375 229.3125 C123.9375 231.3125 123.9375 231.3125 123.9375 231.3125 Z M82.9375 253.3125 C81.73188816 254.29517859 81.73188816 254.29517859 81.83984375 256.16015625 C81.85144531 256.89105469 81.86304688 257.62195313 81.875 258.375 C81.895625 259.674375 81.91625 260.97375 81.9375 262.3125 C84.2475 260.3325 86.5575 258.3525 88.9375 256.3125 C86.80425182 254.17925182 85.8367226 253.78011655 82.9375 253.3125 Z M235.9375 274.3125 C234.8915166 276.13160157 233.87677612 277.96868428 232.875 279.8125 C227.58801947 288.95434618 221.5044637 294.8564351 211.9375 299.3125 C211.15503906 299.68246094 210.37257813 300.05242187 209.56640625 300.43359375 C195.41371241 306.61549042 180.59864583 306.49799422 166.0390625 301.609375 C157.89643831 298.20465053 150.85197752 292.72124603 143.9375 287.3125 C142.6175 288.6325 141.2975 289.9525 139.9375 291.3125 C141.21625 291.621875 142.495 291.93125 143.8125 292.25 C149.16998234 294.01620297 152.49993858 297.19890155 156.53515625 301.03515625 C166.97413758 310.93097107 178.44012188 316.3125 192.9375 316.3125 C204.62808571 315.2419781 215.74608773 310.78113484 223.8828125 302.12109375 C229.60338497 294.30152796 236.06462304 284.1204629 236.9375 274.3125 C236.6075 274.3125 236.2775 274.3125 235.9375 274.3125 Z M76.9375 278.3125 C76.51791016 279.25609375 76.51791016 279.25609375 76.08984375 280.21875 C73.45906854 285.83558196 70.59450325 290.24295291 66.29296875 294.71875 C64.72154494 296.217717 64.72154494 296.217717 64.9375 298.3125 C64.36902344 298.57417969 63.80054688 298.83585937 63.21484375 299.10546875 C60.76104385 300.40602479 58.70964092 301.94448052 56.5 303.625 C47.95695016 309.69639595 37.94084993 313.4689433 27.41796875 313.41015625 C26.39638672 313.40693359 25.37480469 313.40371094 24.32226562 313.40039062 C23.26716797 313.39201172 22.21207031 313.38363281 21.125 313.375 C20.05056641 313.37048828 18.97613281 313.36597656 17.86914062 313.36132812 C15.22520317 313.34957729 12.58138048 313.33314787 9.9375 313.3125 C15.61849712 319.25477419 23.32413506 320.58922272 31.3125 320.8125 C42.69785571 320.4653855 51.94025874 317.22177388 60.9375 310.3125 C61.80375 309.735 62.67 309.1575 63.5625 308.5625 C70.78368304 301.72137922 77.67717734 291.09666641 78.06640625 280.953125 C78.00259766 279.64601563 78.00259766 279.64601563 77.9375 278.3125 C77.6075 278.3125 77.2775 278.3125 76.9375 278.3125 Z M127.9375 292.3125 C128.5975 292.9725 129.2575 293.6325 129.9375 294.3125 C130.5975 293.6525 131.2575 292.9925 131.9375 292.3125 C130.6175 292.3125 129.2975 292.3125 127.9375 292.3125 Z M232.9375 342.3125 C231.13084841 343.13370527 229.36606509 344.04760281 227.625 345 C223.34585421 347.22861576 219.34489899 348.88070114 214.6875 350.125 C209.38454813 351.64282827 205.02468904 353.78314454 200.3125 356.5625 C182.29517879 367.10007388 162.77548793 372.85612771 142.625 377.90625 C141.61671143 378.1645459 140.60842285 378.4228418 139.56958008 378.68896484 C137.65211592 379.17639915 135.73011167 379.6464131 133.8034668 380.09619141 C128.7623411 381.36896275 128.7623411 381.36896275 124.76953125 384.5546875 C123.69810088 388.1060013 124.16299321 390.7216049 124.9375 394.3125 C163.4949664 384.18061767 163.4949664 384.18061767 199.9375 368.3125 C200.96746094 367.76851563 201.99742187 367.22453125 203.05859375 366.6640625 C214.58043762 360.25435288 225.03568535 351.9797031 234.9375 343.3125 C233.9475 342.8175 233.9475 342.8175 232.9375 342.3125 Z M239.9375 387.3125 C239.41285156 387.70179688 238.88820313 388.09109375 238.34765625 388.4921875 C227.29894099 396.47079386 215.50191778 403.18388794 203.25292969 409.12597656 C196.48424915 412.44902432 189.98009328 416.21363059 183.46972656 420.01318359 C178.39612492 422.96215321 173.29114557 425.66296541 167.96435547 428.13012695 C165.63537373 429.28989301 165.63537373 429.28989301 163.9375 432.3125 C163.65087567 436.46026273 163.65087567 436.46026273 164.9375 440.3125 C178.97675494 434.89791997 192.78075513 427.16052838 204.9375 418.3125 C206.32582031 417.33023437 206.32582031 417.33023437 207.7421875 416.328125 C216.83045889 409.83290611 225.41028211 402.89192735 233.6640625 395.3671875 C236.35907001 392.93149342 239.12317675 390.60839529 241.9375 388.3125 C240.9475 387.8175 240.9475 387.8175 239.9375 387.3125 Z M274.9375 408.3125 C273.751871 410.12035205 272.61660833 411.9612218 271.5 413.8125 C270.76985688 415.01061517 270.03937277 416.20852258 269.30859375 417.40625 C268.11796853 419.36599631 266.92893448 421.32666969 265.74267578 423.2890625 C259.99507162 432.7715635 253.89291743 441.67703004 246.9375 450.3125 C246.20917969 451.23417969 245.48085938 452.15585937 244.73046875 453.10546875 C240.06162171 458.93521829 235.12788756 464.46366832 230.01025391 469.8984375 C224.55535775 475.33318765 224.55535775 475.33318765 221.9375 482.3125 C222.2675 483.3025 222.5975 484.2925 222.9375 485.3125 C242.28377038 477.28445583 258.99815159 442.98594737 268.5625 425.625 C269.07176025 424.70436768 269.58102051 423.78373535 270.10571289 422.83520508 C272.68462043 418.05032348 274.70488731 413.61273456 275.9375 408.3125 C275.6075 408.3125 275.2775 408.3125 274.9375 408.3125 Z " fill="#010100" transform="translate(147.0625,1.6875)"/>
<path d="M0 0 C0.34137702 3.17312742 0.28029598 4.60066474 -1.58203125 7.25390625 C-2.31808594 8.01574219 -3.05414063 8.77757812 -3.8125 9.5625 C-4.64136719 10.44292969 -5.47023437 11.32335938 -6.32421875 12.23046875 C-7.20722656 13.14441406 -8.09023437 14.05835938 -9 15 C-28.37467567 35.09559383 -60.43738158 71.53755129 -62.5625 100.75 C-62.37499345 104.08996044 -61.91212236 105.14173813 -60.0625 108.125 C-56.48850276 110.31316157 -54.65292201 110.7848273 -50.55859375 110.12890625 C-44.99113017 107.67242232 -40.96386402 102.49731862 -37 98 C-36.67 98.66 -36.34 99.32 -36 100 C-36.99609375 102.3828125 -36.99609375 102.3828125 -38.4375 105.125 C-39.14712891 106.49011719 -39.14712891 106.49011719 -39.87109375 107.8828125 C-40.24363281 108.58148438 -40.61617188 109.28015625 -41 110 C-40.67 110.33 -40.34 110.66 -40 111 C-39.57291748 110.56244385 -39.14583496 110.1248877 -38.70581055 109.67407227 C-30.48361756 101.27752598 -22.33061211 93.16797753 -13 86 C-12.03320312 85.22785156 -11.06640625 84.45570312 -10.0703125 83.66015625 C38.78823089 45.09724108 38.78823089 45.09724108 59 46 C58.76323671 49.47252827 58.60435112 51.41267286 56.05859375 53.88671875 C51.98350798 56.70232718 47.67085405 58.84329986 43.25 61.0625 C25.54412967 70.14602038 9.34848648 81.34696615 -6 94 C-7.00160156 94.8146875 -8.00320312 95.629375 -9.03515625 96.46875 C-17.48234429 103.45453041 -25.22118814 111.05986432 -32.89599609 118.88183594 C-37.22254625 123.2819816 -41.60558949 127.50916821 -46.28955078 131.52758789 C-55.2777962 138.9855748 -55.2777962 138.9855748 -60.41015625 149.0078125 C-60.67384778 152.67244859 -60.2992435 154.62594563 -58 157.5 C-54.17798936 159.41100532 -51.11843766 160.12113025 -47 159 C-41.73689649 155.67540599 -37.88453744 150.76280822 -33.875 146.08203125 C-20.85854834 131.62834639 -3.72436591 120.63931635 13 111 C14.21816406 110.27876953 14.21816406 110.27876953 15.4609375 109.54296875 C16.26789063 109.07503906 17.07484375 108.60710937 17.90625 108.125 C18.64166016 107.69445312 19.37707031 107.26390625 20.13476562 106.8203125 C20.75029297 106.54960937 21.36582031 106.27890625 22 106 C22.66 106.33 23.32 106.66 24 107 C23.10539063 107.68964844 22.21078125 108.37929687 21.2890625 109.08984375 C12.4327015 115.95751564 3.89137708 123.01935395 -4 131 C-3.54488037 130.69408936 -3.08976074 130.38817871 -2.62084961 130.07299805 C10.36357379 121.42369406 23.70417293 114.24471954 38 108 C38.76119141 107.66661621 39.52238281 107.33323242 40.30664062 106.98974609 C51.60680283 102.16995444 63.45003462 99.14490383 75.3125 96.0625 C76.0924231 95.85864685 76.87234619 95.6547937 77.67590332 95.44476318 C79.92358853 94.86132174 82.17390565 94.28968575 84.42578125 93.72265625 C85.10008682 93.54804367 85.7743924 93.37343109 86.46913147 93.19352722 C90.39476745 92.2245644 93.96078989 91.8278779 98 92 C98.3125 94.75 98.3125 94.75 98 98 C94.21405961 101.85509208 90.09179893 103.11766934 84.98046875 104.3671875 C84.2042366 104.56925812 83.42800446 104.77132874 82.62825012 104.97952271 C80.15089444 105.62330131 77.66980833 106.25061421 75.1875 106.875 C59.74661579 110.78490363 44.90674372 115.34097705 30.5 122.25 C29.71157715 122.62713135 28.9231543 123.0042627 28.11083984 123.39282227 C10.06006048 132.22244129 -5.52579952 144.13851107 -20 158 C-20.57427734 158.54172852 -21.14855469 159.08345703 -21.74023438 159.64160156 C-29.99975888 167.45912989 -37.0407515 175.27701561 -43 185 C-43.4846875 185.7734375 -43.969375 186.546875 -44.46875 187.34375 C-46.37879841 190.69924044 -47.00115629 192.92946624 -46.9375 196.8125 C-45.98530622 200.04995885 -45.55067346 200.97224365 -43 203 C-39.9891973 203.99232449 -37.15781724 204.24635454 -34 204 C-30.05501068 201.37000712 -28.23145157 197.80661725 -25.75 193.8125 C-16.65384992 179.27037165 -3.27388464 168.63837036 13 163 C15.875 162.84765625 15.875 162.84765625 18 163 C17.31550781 163.54140625 16.63101563 164.0828125 15.92578125 164.640625 C12.63561914 167.29383984 9.40855573 170.01371854 6.1875 172.75 C5.59001953 173.25660156 4.99253906 173.76320312 4.37695312 174.28515625 C2.91744451 175.52281956 1.45864863 176.76132327 0 178 C0.88558594 177.54109375 1.77117187 177.0821875 2.68359375 176.609375 C23.00170017 166.39746801 45.54181072 163.25112926 67.6328125 169.82421875 C69.29957031 170.40623047 69.29957031 170.40623047 71 171 C71.90492188 171.31582031 72.80984375 171.63164062 73.7421875 171.95703125 C81.12698095 175.10677542 91.34516895 182.6903379 95 190 C95.49055907 194.33327174 95.47744439 196.32000344 92.9375 199.9375 C90 202 90 202 86.8125 202.875 C80.77624013 201.48962888 77.36646256 197.20780753 73 193 C58.48934052 180.65633882 43.34182647 177.78880317 24.8828125 179.24609375 C12.41528521 180.99877512 0.10871554 188.22112094 -7.5 198.25 C-10.7175181 203.14786128 -13.27508477 208.35295056 -15.8125 213.625 C-16.19792969 214.42454102 -16.58335938 215.22408203 -16.98046875 216.04785156 C-22.97366654 228.92153796 -23.6857634 241.52686852 -18.96484375 254.94140625 C-11.38455614 274.41616445 4.0418631 283.09274678 21.9140625 292.08984375 C31.51471477 296.2788924 43.46826022 294.60240462 53.0546875 291.26953125 C65.91075413 285.72812322 74.79391163 275.34000946 79.91015625 262.4921875 C81.391257 257.74629478 82.23488929 252.96978102 82.92456055 248.05102539 C83.80393338 242.02195428 85.0179117 236.79770799 89.6875 232.5625 C90.8321875 231.7890625 90.8321875 231.7890625 92 231 C90.35 230.01 88.7 229.02 87 228 C87.3125 226.125 87.3125 226.125 88 224 C91.7205836 221.51961093 93.59796571 221.53662797 98 222 C100.90717073 224.21863029 101.83981643 225.51944929 103 229 C104.69503896 246.00596467 97.65766954 263.43814538 87.5625 276.9375 C86.40074312 278.31381558 85.21257528 279.66823997 84 281 C83.33484375 281.74507813 82.6696875 282.49015625 81.984375 283.2578125 C69.33149487 296.6844299 52.38170835 305.0697836 33.90616226 306.18710136 C30.50718197 306.26255748 27.11318919 306.27855305 23.71337891 306.27124023 C21.747127 306.27926266 19.78087511 306.28728754 17.81462359 306.29540551 C15.72438261 306.30221337 13.63418533 306.30425727 11.54393387 306.30496025 C7.17296758 306.30691673 2.8021564 306.3250514 -1.5687561 306.34571838 C-12.41501599 306.39467364 -23.26131718 306.42583065 -34.10766602 306.44702148 C-42.5600465 306.46355122 -51.01229149 306.48634501 -59.46458113 306.53004223 C-63.80778729 306.55178671 -68.15073573 306.55987977 -72.49399257 306.55764949 C-75.8259843 306.55970829 -79.15780504 306.5810628 -82.48974609 306.59936523 C-83.68878571 306.59478806 -84.88782532 306.59021088 -86.12319946 306.585495 C-87.22484436 306.59514282 -88.32648926 306.60479065 -89.46151733 306.61473083 C-90.89329347 306.61774783 -90.89329347 306.61774783 -92.35399437 306.62082577 C-95.68172131 307.09769108 -97.38805717 307.86543813 -100 310 C-100.99 312.31 -101.98 314.62 -103 317 C-109.6 317 -116.2 317 -123 317 C-123.33 318.65 -123.66 320.3 -124 322 C-126.24447356 325.10773262 -127.65429694 325.90397137 -131.375 326.9375 C-135.53315085 327.00919226 -137.53998772 326.25303125 -141 324 C-143.6790573 319.98141405 -143.69610694 316.72358279 -143 312 C-141.20606332 309.12970131 -140.01736724 307.50868362 -137 306 C-129.53333333 305.64444444 -129.53333333 305.64444444 -126 308 C-126.01784798 306.4980735 -126.01784798 306.4980735 -126.03605652 304.96580505 C-126.14208082 295.42197688 -126.18809698 285.87939048 -126.17878246 276.33495998 C-126.17583251 271.43048841 -126.19234996 266.52786161 -126.25708008 261.6237793 C-126.76347847 221.23313502 -126.76347847 221.23313502 -115.28060913 203.09310913 C-112.43529345 198.44254395 -110.70596751 193.28133921 -108.8125 188.1875 C-108.37873047 187.03773682 -107.94496094 185.88797363 -107.49804688 184.70336914 C-102.8814238 172.26657276 -98.99169853 159.58465837 -95 146.9375 C-79.59429633 98.15719207 -59.11809924 48.87852906 -21.58911133 12.61450195 C-19.93218969 10.93110622 -18.46703388 9.16229448 -17 7.3125 C-12.24558851 1.71314005 -7.53607818 -0.61519006 0 0 Z " fill="#FAC29C" transform="translate(143,27)"/>
<path d="M0 0 C1.63765955 0.00084868 3.27532023 0.00036644 4.91297913 -0.00132751 C9.30874793 -0.00217949 13.70426533 0.01531509 18.0999763 0.03639436 C22.71235385 0.05529604 27.32473874 0.05692213 31.93714905 0.06047058 C40.64903235 0.06975176 49.36080114 0.09431171 58.07263428 0.12451905 C69.8607284 0.16449563 81.64885439 0.18054971 93.43699932 0.1980257 C111.97769775 0.22613616 130.51815468 0.28593165 149.05883789 0.34057617 C149.05883789 25.75057617 149.05883789 51.16057617 149.05883789 77.34057617 C146.74883789 78.33057617 144.43883789 79.32057617 142.05883789 80.34057617 C140.52391703 81.8191634 140.52391703 81.8191634 139.72290039 83.61401367 C139.38589111 84.26217041 139.04888184 84.91032715 138.70166016 85.578125 C138.19783813 86.63616333 138.19783813 86.63616333 137.68383789 87.71557617 C137.30864014 88.46669678 136.93344238 89.21781738 136.546875 89.99169922 C135.35020726 92.42667745 134.1980815 94.87824659 133.05883789 97.34057617 C132.50558838 98.52949463 132.50558838 98.52949463 131.94116211 99.74243164 C123.27165226 118.62533666 116.49840891 138.33468504 110.3581543 158.16503906 C103.69798401 179.64113496 96.87569099 201.06647947 87.05883789 221.34057617 C86.60573242 222.2811084 86.15262695 223.22164062 85.68579102 224.19067383 C76.22739198 243.58428419 64.67722433 261.60313993 51.05883789 278.34057617 C50.62506836 278.87585938 50.19129883 279.41114258 49.74438477 279.96264648 C46.5965831 283.8283281 43.36701643 287.61139855 40.05883789 291.34057617 C39.58768555 291.87585938 39.1165332 292.41114258 38.63110352 292.96264648 C29.84212969 302.81277199 29.84212969 302.81277199 24.55883789 303.65307617 C21.05883789 303.34057617 21.05883789 303.34057617 18.05883789 301.34057617 C18.56999418 297.12353676 20.91629567 295.11667796 23.80883789 292.15307617 C40.98588476 274.00770843 63.09401377 246.97452513 69.05883789 222.34057617 C68.72883789 221.68057617 68.39883789 221.02057617 68.05883789 220.34057617 C68.86328125 218.32861328 68.86328125 218.32861328 70.14868164 215.86791992 C70.60307617 214.96750977 71.0574707 214.06709961 71.52563477 213.1394043 C72.49417858 211.2550528 73.4705597 209.37470584 74.45532227 207.4987793 C77.29765182 201.826181 79.38600598 196.75778405 78.05883789 190.34057617 C75.47073385 187.12505297 73.7607835 186.486263 69.74633789 185.65307617 C64.30490833 186.66757999 61.88477951 189.46658505 58.05883789 193.34057617 C55.62251019 195.80007252 53.18483707 198.2582328 50.74633789 200.71557617 C50.09157471 201.37662354 49.43681152 202.0376709 48.76220703 202.71875 C43.48749627 208.00523321 37.95773722 212.75898722 32.05883789 217.34057617 C31.00512821 218.1940409 29.95312458 219.04961507 28.90258789 219.90698242 C16.40154177 230.03858493 3.06124609 238.75735955 -10.87866211 246.77807617 C-11.71792236 247.26203857 -12.55718262 247.74600098 -13.421875 248.24462891 C-30.57946069 257.9456206 -30.57946069 257.9456206 -36.12866211 257.15307617 C-37.05678711 256.88495117 -37.98491211 256.61682617 -38.94116211 256.34057617 C-38.94116211 255.02057617 -38.94116211 253.70057617 -38.94116211 252.34057617 C-38.35850586 252.02942871 -37.77584961 251.71828125 -37.17553711 251.39770508 C-12.17242766 238.00669225 11.84892312 223.55049095 32.05883789 203.34057617 C31.5921167 203.6319043 31.12539551 203.92323242 30.64453125 204.22338867 C22.40416042 209.35207452 14.14253826 214.43858227 5.62133789 219.09057617 C5.00186279 219.43733398 4.3823877 219.7840918 3.74414062 220.14135742 C2.00024414 221.07495117 2.00024414 221.07495117 -0.94116211 222.34057617 C-1.93116211 222.01057617 -2.92116211 221.68057617 -3.94116211 221.34057617 C-2.9137793 220.65092773 -1.88639648 219.9612793 -0.82788086 219.25073242 C10.31886334 211.71433529 20.66415172 203.64321308 30.61352539 194.56713867 C32.18989763 193.13178376 33.7777075 191.70884228 35.37915039 190.30151367 C41.38445412 185.00971138 47.02725173 179.41205071 52.65332031 173.72460938 C56.41998297 169.93103168 60.26794141 166.3396074 64.35180664 162.88745117 C67.55587304 159.98399512 70.33186216 156.68888815 73.05883789 153.34057617 C73.8902832 152.35637695 73.8902832 152.35637695 74.73852539 151.35229492 C76.21202258 149.10717346 76.43864269 147.9913497 76.37133789 145.34057617 C76.3674707 144.68057617 76.36360352 144.02057617 76.35961914 143.34057617 C75.9955459 140.91972556 75.45523588 139.36098952 74.05883789 137.34057617 C72.05490357 136.52765622 72.05490357 136.52765622 69.74633789 136.40307617 C68.98708008 136.31155273 68.22782227 136.2200293 67.44555664 136.12573242 C62.05090072 136.61133975 58.66652971 140.50641802 55.05883789 144.21557617 C54.23383789 145.05862305 53.40883789 145.90166992 52.55883789 146.77026367 C51.73383789 147.6184668 50.90883789 148.46666992 50.05883789 149.34057617 C48.39491019 151.00997731 46.72798656 152.67639521 45.05883789 154.34057617 C44.52766357 154.89044189 43.99648926 155.44030762 43.44921875 156.00683594 C39.43163221 160.12826233 35.24837586 163.73457991 30.62133789 167.15307617 C29.93177002 167.66515625 29.24220215 168.17723633 28.53173828 168.70483398 C21.29610538 174.00620503 13.79924955 178.81312873 6.05883789 183.34057617 C5.45249512 183.69603516 4.84615234 184.05149414 4.22143555 184.41772461 C-6.36208996 190.5352034 -17.50515116 195.07161309 -28.94116211 199.34057617 C-30.1722168 199.80334961 -31.40327148 200.26612305 -32.67163086 200.74291992 C-40.59296998 203.54447828 -48.66504162 205.63468093 -56.81616211 207.65307617 C-58.40400513 208.05357178 -58.40400513 208.05357178 -60.02392578 208.4621582 C-66.16502405 209.9329234 -71.62788103 210.62394891 -77.94116211 210.34057617 C-78.60116211 209.02057617 -79.26116211 207.70057617 -79.94116211 206.34057617 C-71.97897336 203.8060103 -63.98591467 201.52732248 -55.89282227 199.44995117 C-44.26261165 196.45818078 -32.84452294 193.48902703 -21.94116211 188.34057617 C-21.2958252 188.03651855 -20.65048828 187.73246094 -19.9855957 187.41918945 C-15.24641458 185.16676105 -10.57809385 182.79600567 -5.94116211 180.34057617 C-4.9137793 179.79788086 -3.88639648 179.25518555 -2.82788086 178.69604492 C7.92414474 172.71623096 18.55645357 165.28528107 27.05883789 156.34057617 C26.33180664 156.73889648 25.60477539 157.1372168 24.85571289 157.54760742 C17.72324891 161.30586729 10.95688979 163.74416143 3.05883789 165.34057617 C6.0710311 162.11219685 9.25141149 159.76491674 12.93383789 157.34057617 C32.23109833 144.25833798 54.33137643 125.55593261 63.05883789 103.34057617 C63.72770962 100.1693452 63.72770962 100.1693452 63.05883789 97.34057617 C60.20436376 93.82005808 58.2580114 92.47633166 53.74633789 91.96557617 C49.03198419 92.44500197 48.1484178 93.84738084 45.05883789 97.34057617 C43.71907784 99.24513702 42.42748021 101.18440586 41.18383789 103.15307617 C30.22977213 119.8187591 14.51089994 130.48940854 -4.94116211 135.34057617 C-9.48037777 135.8431906 -13.94123391 135.85820947 -18.50366211 135.77807617 C-19.64512695 135.78516602 -20.7865918 135.79225586 -21.96264648 135.79956055 C-44.17894246 135.63461946 -61.4573622 124.28392932 -76.94116211 109.34057617 C-76.61116211 108.35057617 -76.28116211 107.36057617 -75.94116211 106.34057617 C-76.93116211 106.01057617 -77.92116211 105.68057617 -78.94116211 105.34057617 C-79.41979459 99.11835395 -79.41979459 99.11835395 -77.44116211 95.90307617 C-74.58642119 94.1188631 -72.34260739 93.72309819 -68.98022461 93.86791992 C-65.41145282 94.69516396 -63.49548565 96.78625263 -60.94116211 99.34057617 C-61.93116211 100.66057617 -62.92116211 101.98057617 -63.94116211 103.34057617 C-63.31209961 103.60870117 -62.68303711 103.87682617 -62.03491211 104.15307617 C-56.25406956 106.79972698 -52.32971232 109.67863908 -47.99194336 114.28588867 C-39.27439608 123.0200408 -28.40570958 127.79740014 -16.11303711 128.43432617 C-3.14482151 128.05102916 8.30875262 123.6631141 17.35693359 114.33911133 C20.20907854 110.98985605 22.19983597 107.31211352 24.18383789 103.40307617 C24.61196777 102.57477295 25.04009766 101.74646973 25.48120117 100.89306641 C28.72391712 94.43050535 31.10945058 87.94295785 33.03149414 80.98510742 C33.9850977 77.60217159 35.13859052 74.37932434 36.37133789 71.09057617 C40.04870889 59.99866851 38.47613637 47.42333535 33.95727539 36.73510742 C32.76774891 34.50570457 31.47590847 32.43166886 30.05883789 30.34057617 C29.63989258 29.66639648 29.22094727 28.9922168 28.78930664 28.29760742 C21.83563463 17.9372373 10.74108425 12.50089359 -0.82006836 8.72729492 C-16.50626093 5.86738136 -31.53155964 10.26022955 -44.94116211 18.34057617 C-56.76386032 26.88904828 -63.88999429 39.50480812 -67.94116211 53.34057617 C-68.253825 56.63738865 -68.37894034 59.91069611 -68.49975586 63.21948242 C-68.98287653 66.63553038 -69.98918702 68.53151558 -71.94116211 71.34057617 C-72.33303711 71.95932617 -72.72491211 72.57807617 -73.12866211 73.21557617 C-75.82283388 74.88782072 -78.01813254 74.37139034 -81.07006836 73.85620117 C-83.4552689 73.19890165 -84.58539116 72.41410821 -85.94116211 70.34057617 C-88.5015458 62.65942511 -87.34489534 54.51214849 -84.33959961 47.13745117 C-74.12932159 26.71689514 -57.05195708 13.05119232 -36.19506836 4.62963867 C-24.21253843 0.68309647 -12.48617771 -0.0921566 0 0 Z " fill="#FAC29C" transform="translate(352.941162109375,188.659423828125)"/>
<path d="M0 0 C5.57894737 3.15789474 5.57894737 3.15789474 7 6 C7.42071592 9.05920574 7.48514117 11.9467746 7 15 C4.81840855 17.75569447 3.12822506 19.43588747 0 21 C-5.26883876 21.59873168 -7.8846468 20.25400021 -12 17 C-13.73631636 13.52736727 -13.60190402 9.78806987 -13 6 C-9.08606917 1.05608737 -6.27104539 -0.60298513 0 0 Z " fill="#000000" transform="translate(505,158)"/>
<path d="M0 0 C2.69105198 2.17574416 4.45532928 3.91065856 6 7 C6.69019608 14.01699346 6.69019608 14.01699346 3.9375 17.9375 C0.40171712 20.42007096 -1.68713322 21 -6 21 C-10.01519063 19.48483372 -11.60368353 18.5944747 -14 15 C-14.73965025 10.40728797 -14.60961194 6.97537911 -12.125 3 C-8.49799372 -0.41365296 -4.84659926 -0.85418991 0 0 Z " fill="#010000" transform="translate(14,333)"/>
<path d="M0 0 C0.66 0.33 1.32 0.66 2 1 C-3.53846154 6.84615385 -3.53846154 6.84615385 -7 8 C-7.99 7.67 -8.98 7.34 -10 7 C-6.7 4.69 -3.4 2.38 0 0 Z " fill="#E7B490" transform="translate(359,403)"/>
</svg>
