<?xml version="1.0" encoding="UTF-8"?>
<svg version="1.1" xmlns="http://www.w3.org/2000/svg" width="512" height="512">
<path d="M0 0 C0.74156342 0.00087616 1.48312683 0.00175232 2.24716187 0.00265503 C35.22036823 0.13048044 72.54169816 10.35013129 97.1875 33.5625 C97.72761719 34.13355469 98.26773438 34.70460937 98.82421875 35.29296875 C100.50891473 36.60961405 100.50891473 36.60961405 102.93359375 36.26953125 C105.88784898 35.23981367 107.53478098 33.94424629 109.875 31.875 C126.9008914 17.80795276 148.16913252 8.54820957 169.5 3.375 C170.23025391 3.19710937 170.96050781 3.01921875 171.71289062 2.8359375 C192.64276819 -1.96327009 217.70197708 -1.78913494 238.5 3.375 C239.3034082 3.56304199 240.10681641 3.75108398 240.93457031 3.94482422 C251.43536847 6.4494738 261.28035131 9.86048456 271.0625 14.4375 C271.9491333 14.8487915 272.8357666 15.26008301 273.74926758 15.68383789 C278.30098337 17.91244384 281.93571593 19.80008411 284.5 24.375 C284.43359375 26.48046875 284.43359375 26.48046875 283.9375 28.5625 C283.655184 30.94122247 283.655184 30.94122247 284.5 33.375 C288.42892826 37.34819788 292.70524574 40.51486639 297.5 43.375 C300.60705964 43.54659648 300.60705964 43.54659648 303.75 42.1875 C308.45476472 41.16813431 310.38007989 41.99812302 314.5 44.375 C317.47625922 46.96722577 317.49392384 48.29844035 317.8125 52.3125 C317.79226025 55.70603145 316.85302583 58.27543883 315.5 61.375 C316.79015746 63.00119848 318.08217697 64.62591983 319.375 66.25 C320.45394531 67.60738281 320.45394531 67.60738281 321.5546875 68.9921875 C323.43560474 71.37765176 323.43560474 71.37765176 325.5 73.375 C327.73258851 73.39693112 329.89257713 73.17947869 332.11328125 72.95703125 C335.7951714 73.60181398 337.13731573 75.55259087 339.5 78.375 C340.929697 80.70736845 342.18284864 82.93010548 343.375 85.375 C343.71305664 86.06505127 344.05111328 86.75510254 344.39941406 87.46606445 C348.65886668 96.4652021 351.79434423 105.80535532 354.5 115.375 C354.7273584 116.17405762 354.9547168 116.97311523 355.18896484 117.79638672 C365.69678881 156.76660243 357.08279161 199.29430775 337.56640625 233.79296875 C328.91767801 248.35833201 318.26785195 259.97592439 306.1875 271.6875 C303.51575413 274.27875813 300.85466452 276.88033348 298.19921875 279.48828125 C297.60018234 280.06242264 297.00114594 280.63656403 296.38395691 281.22810364 C292.81972387 284.73014943 290.1040087 288.26817983 287.60237122 292.59855652 C285.9379442 295.28073878 283.83580688 297.27277381 281.5 299.375 C280.7575 300.055625 280.015 300.73625 279.25 301.4375 C273.322895 305.61341488 266.568464 308.5594744 259.25 308.4375 C257.39375 308.4065625 257.39375 308.4065625 255.5 308.375 C255.5825 309.468125 255.665 310.56125 255.75 311.6875 C255.75 320.89484239 251.19600552 329.39468636 245.0625 336 C236.86116658 343.60123585 229.60046724 347.71123797 218.22265625 347.4453125 C217.36994141 347.41050781 217.36994141 347.41050781 216.5 347.375 C216.47421875 348.05304688 216.4484375 348.73109375 216.421875 349.4296875 C215.79130541 359.77676121 212.82801593 368.81160883 205.5 376.375 C196.48007931 384.02733476 188.25242551 387.03745405 176.5 386.375 C176.55800781 386.95765625 176.61601562 387.5403125 176.67578125 388.140625 C177.21987893 398.02765706 173.427711 406.9808231 167.2265625 414.62890625 C159.66106285 422.27998847 149.63257941 426.17467463 139 426.6875 C122.89520633 426.44748817 113.09541768 417.33827996 102.4375 406.4375 C101.66728516 405.65826172 100.89707031 404.87902344 100.10351562 404.07617188 C98.23094656 402.18034108 96.36326028 400.27997267 94.5 398.375 C90.60045575 400.17280497 88.27502194 402.49575604 85.3125 405.625 C76.14630778 415.0555425 66.25641402 421.40961019 52.8125 421.625 C41.76540958 421.50300759 33.03354681 417.64983641 24.875 410.3125 C17.31239135 402.43767356 14.32355207 392.9618759 14.5 382.375 C13.84515625 382.36082031 13.1903125 382.34664063 12.515625 382.33203125 C0.65316708 381.71210054 -8.22290668 377.87802853 -16.3671875 369.14453125 C-21.06738366 363.04116297 -24.67535003 355.47415235 -24.5625 347.6875 C-24.55347656 346.87925781 -24.54445312 346.07101562 -24.53515625 345.23828125 C-24.51775391 344.31595703 -24.51775391 344.31595703 -24.5 343.375 C-25.17804688 343.34921875 -25.85609375 343.3234375 -26.5546875 343.296875 C-36.88548245 342.66729747 -45.9528979 339.71110784 -53.5 332.375 C-58.89539108 325.67052311 -63.68985022 317.47466486 -63.5625 308.6875 C-63.55347656 307.87925781 -63.54445313 307.07101562 -63.53515625 306.23828125 C-63.52355469 305.62339844 -63.51195313 305.00851562 -63.5 304.375 C-64.84191406 304.24544922 -64.84191406 304.24544922 -66.2109375 304.11328125 C-77.12311941 302.84523453 -87.07909206 300.06927558 -94.24609375 291.21875 C-98.93875823 284.89682363 -101.33076943 278.99653769 -103.2421875 271.44140625 C-104.7978708 267.6488243 -106.79411469 265.82502218 -109.8125 263.0625 C-129.18877918 244.54127422 -141.3368285 221.18039271 -148.8125 195.6875 C-149.17637817 194.46027222 -149.17637817 194.46027222 -149.54760742 193.20825195 C-153.10806671 180.4754253 -153.88088353 167.75792923 -153.8125 154.625 C-153.81034485 153.87732361 -153.8081897 153.12964722 -153.80596924 152.35931396 C-153.75409153 141.130039 -153.34128552 130.28574063 -150.5 119.375 C-150.30132324 118.59092773 -150.10264648 117.80685547 -149.89794922 116.99902344 C-143.80395408 93.5633897 -133.38254181 72.74516884 -117.5 54.375 C-116.81679687 53.570625 -116.13359375 52.76625 -115.4296875 51.9375 C-105.57637104 40.63620514 -94.77926731 31.67281847 -82.26708984 23.52636719 C-80.81000896 22.57698981 -79.3660242 21.60754445 -77.92578125 20.6328125 C-66.64249264 13.34691933 -53.51246671 8.73226341 -40.6875 5 C-39.87756592 4.76152344 -39.06763184 4.52304687 -38.2331543 4.27734375 C-25.66081393 0.79557905 -12.9765948 -0.03776349 0 0 Z M-31.5 24.375 C-32.71792236 24.71362061 -32.71792236 24.71362061 -33.96044922 25.05908203 C-70.06307363 35.45744238 -99.16716219 58.59859719 -117.5 91.375 C-121.92050701 99.42967383 -125.11852947 107.72222885 -127.8125 116.5 C-128.05516602 117.28665039 -128.29783203 118.07330078 -128.54785156 118.88378906 C-131.92959056 130.51180533 -132.86749617 142.05450233 -132.8125 154.125 C-132.81001251 154.7824118 -132.80752502 155.43982361 -132.80496216 156.11715698 C-132.74425107 166.52114579 -132.29157239 176.32112394 -129.5 186.375 C-129.27957031 187.17631348 -129.05914062 187.97762695 -128.83203125 188.80322266 C-123.63444928 207.04632288 -115.65762317 223.73953744 -103.5 238.375 C-102.56220703 239.50421875 -102.56220703 239.50421875 -101.60546875 240.65625 C-100.25775013 242.24699985 -98.88293343 243.81476742 -97.5 245.375 C-95.01449729 242.9889174 -92.73190015 240.49434492 -90.5 237.875 C-83.53727303 229.89625278 -76.3657181 221.97515929 -67.2421875 216.4609375 C-65.34188656 215.36757891 -65.34188656 215.36757891 -63.5 213.375 C-63.97336396 210.85949537 -64.54255144 208.51330394 -65.25 206.0625 C-68.72329545 193.82035652 -69.86751614 181.83608531 -69.8125 169.125 C-69.81034485 168.44424408 -69.8081897 167.76348816 -69.80596924 167.06210327 C-69.75255655 156.52606486 -69.2085273 146.58840503 -66.5 136.375 C-66.30664062 135.60752441 -66.11328125 134.84004883 -65.9140625 134.04931641 C-59.54386072 109.21241087 -47.59671121 88.32343215 -30.5 69.375 C-29.79617187 68.58738281 -29.09234375 67.79976562 -28.3671875 66.98828125 C-9.35666958 46.85737159 16.0916475 35.2106025 42.5 28.375 C39.06472107 26.08481405 35.76192168 25.26630891 31.8125 24.3125 C31.12994141 24.13912109 30.44738281 23.96574219 29.74414062 23.78710938 C10.82580419 19.12451654 -12.67738647 19.1312146 -31.5 24.375 Z M107.5 360.375 C107.43941406 361.32761719 107.37882812 362.28023438 107.31640625 363.26171875 C107.23261719 364.51597656 107.14882813 365.77023437 107.0625 367.0625 C106.98128906 368.30386719 106.90007812 369.54523438 106.81640625 370.82421875 C106.5 374.375 106.5 374.375 105.68725586 376.75854492 C105.20672293 379.55796786 105.20672293 379.55796786 107.38671875 382.00634766 C108.31097656 382.92464355 109.23523438 383.84293945 110.1875 384.7890625 C110.9304834 385.53354141 110.9304834 385.53354141 111.68847656 386.2930603 C112.74072802 387.34063188 113.80036954 388.3808247 114.86669922 389.4140625 C116.48384836 390.98431673 118.07299218 392.57919422 119.66015625 394.1796875 C128.01249712 402.46315065 128.01249712 402.46315065 139.0625 405.75 C145.47944351 405.0499698 149.30673492 402.150663 153.5 397.375 C155.18236531 394.65117044 155.5 393.63615629 155.5 390.375 C153.21706676 388.72809258 150.98239281 387.29522598 148.5625 385.875 C147.08638667 384.98187689 145.61115442 384.08729627 144.13671875 383.19140625 C142.98695557 382.49748779 142.98695557 382.49748779 141.81396484 381.78955078 C138.12263077 379.53299986 134.49939883 377.1745379 130.875 374.8125 C129.46621154 373.89833624 128.05735784 372.984273 126.6484375 372.0703125 C124.5678252 370.71874519 122.48743719 369.36683388 120.40722656 368.01464844 C118.43951869 366.73680679 116.4699608 365.46186473 114.5 364.1875 C113.90622559 363.80070068 113.31245117 363.41390137 112.70068359 363.01538086 C110.28684061 361.16624599 110.28684061 361.16624599 107.5 360.375 Z " fill="#010101" transform="translate(153.5,43.625)"/>
<path d="M0 0 C4.50480786 3.0911444 8.66758818 6.60728616 12.76757812 10.21289062 C11.14334633 14.34205395 8.14843259 17.07133998 5.03613281 20.10791016 C4.45051071 20.68739914 3.86488861 21.26688812 3.26152039 21.86393738 C1.99067161 23.1204947 0.71759454 24.37480147 -0.55744171 25.62710953 C-2.58101344 27.61581707 -4.59734488 29.61160448 -6.61175537 31.60958862 C-12.33998944 37.28901032 -18.07910264 42.95733838 -23.82763672 48.61621094 C-27.34638095 52.08107057 -30.85506042 55.55586891 -34.35793304 59.03676987 C-35.68886191 60.35536071 -37.02356358 61.6701556 -38.36222076 62.98089981 C-48.98815199 73.38736017 -59.35004196 84.26032193 -59.80273438 99.96142578 C-59.75968741 113.05577296 -56.88993292 123.60746898 -47.43554688 133.31445312 C-38.94916777 140.62718406 -29.48211001 144.7953257 -18.29492188 144.58789062 C-17.50150391 144.57773926 -16.70808594 144.56758789 -15.890625 144.55712891 C-10.14794914 144.40469986 -5.43690132 143.72178044 -0.23242188 141.21289062 C0.47624023 140.89118896 1.18490234 140.5694873 1.91503906 140.23803711 C7.81507663 137.16659047 11.43612092 133.44796565 15.47070312 128.31835938 C25.62041601 115.48253147 36.83317913 104.17395831 53.66348267 101.82594299 C55.51099437 101.66119614 57.3612767 101.52540896 59.21289062 101.41601562 C60.18472668 101.35827909 61.15656273 101.30054256 62.15784836 101.24105644 C80.89128804 100.76096544 92.8932921 109.71611273 105.92907715 121.88557434 C116.64997268 132.11814571 126.80988714 142.89564016 136.84668398 153.79363269 C143.02530968 160.49176647 149.34940372 167.04518291 155.68489766 173.59454834 C165.02294496 183.25599691 174.30472002 192.9697499 183.45248413 202.81179237 C184.4331608 203.86674554 185.41513994 204.92048973 186.3985405 205.97290421 C187.74358218 207.41392381 189.08197964 208.86113643 190.42007446 210.30860901 C191.16781946 211.1155549 191.91556446 211.92250078 192.6859684 212.75389957 C198.0189556 219.05372016 199.42383786 222.97660425 199.15429688 231.14648438 C198.47517108 236.53147174 196.0849499 239.05234882 192.14257812 242.52539062 C188.54166619 245.08393332 186.18091202 245.55685285 181.76757812 245.83789062 C180.15882813 245.98097656 180.15882813 245.98097656 178.51757812 246.12695312 C167.79379235 243.51303034 157.56777195 229.12858606 149.94284439 221.46332169 C147.48180398 218.98938814 145.01753955 216.51870582 142.55245972 214.04879761 C137.32966558 208.81464985 132.11084276 203.57655363 126.89257812 198.33789062 C120.82132813 192.24301222 114.7484466 186.14977788 108.67135239 180.06072617 C106.24524587 177.62814472 103.82217195 175.19256995 101.39920044 172.75686646 C99.91553258 171.26956705 98.4317247 169.78240731 96.94775391 168.29541016 C95.94093315 167.28083992 95.94093315 167.28083992 94.91377258 166.24577332 C94.29166397 165.62359421 93.66955536 165.0014151 93.02859497 164.36038208 C92.49219454 163.82176104 91.95579411 163.28313999 91.40313911 162.7281971 C88.09560941 159.6638533 86.4375607 158.29796778 81.83007812 157.71289062 C78.5374816 157.86059589 77.66691674 158.27999822 74.76757812 160.21289062 C72.74781631 163.24253335 71.77072742 165.342424 72.05882263 169.02597046 C75.28414384 178.97794975 89.44840979 188.99091562 96.73290825 196.22282028 C99.24474265 198.71709429 101.75287086 201.21504189 104.26002502 203.71401978 C111.38154759 210.81122247 118.50884829 217.90260232 125.64038086 224.98974609 C130.01862569 229.34124677 134.3920176 233.6975758 138.76243782 238.05693436 C140.42515967 239.71344715 142.08977675 241.36805987 143.75631523 243.02073288 C146.07769091 245.32294175 148.3928865 247.63119972 150.70678711 249.94091797 C151.74077637 250.96176483 151.74077637 250.96176483 152.7956543 252.00323486 C153.42487289 252.63375763 154.05409149 253.2642804 154.70237732 253.91390991 C155.2492945 254.45768469 155.79621168 255.00145947 156.35970211 255.56171227 C160.10200112 259.95073734 160.13977198 263.94731518 160.01367188 269.52539062 C159.54726589 274.61884016 157.58285984 277.67564385 153.83007812 280.96289062 C148.76636065 284.68317285 145.18113321 286.136643 138.76757812 285.21289062 C131.90113131 282.90114624 127.23944115 278.22946423 122.27197266 273.15551758 C121.46447067 272.34699341 120.65696869 271.53846924 119.82499695 270.70544434 C117.17399059 268.0465909 114.53732179 265.37397861 111.90039062 262.70117188 C110.05668448 260.84745936 108.21201468 258.99470484 106.36642456 257.14286804 C102.01565244 252.77455805 97.67475835 248.39657623 93.33775413 244.01460093 C86.96208854 237.57354419 80.5735217 231.14530221 74.18260002 224.7193861 C73.71396668 224.24818334 73.24533333 223.77698059 72.76249897 223.29149896 C71.36731455 221.88870121 69.97212281 220.48591075 68.576931 219.08312035 C65.86275358 216.35119739 63.15280875 213.61513325 60.44363403 210.87825012 C58.79140895 209.21281303 57.13913889 207.54742054 55.48681641 205.88208008 C54.73046402 205.11584824 53.97411163 204.34961639 53.19483948 203.56016541 C52.50527664 202.86619659 51.81571381 202.17222778 51.10525513 201.45722961 C50.50541872 200.85127614 49.90558231 200.24532267 49.28756905 199.62100697 C46.93875978 197.44507508 45.71773978 197.20724855 42.45507812 196.83789062 C38.6889653 196.92514817 38.6889653 196.92514817 35.83007812 199.21289062 C33.71125365 202.29481714 32.90840474 204.35438825 33.15455246 208.12191296 C33.9091521 210.69578724 35.01747706 212.00705343 36.82598877 213.98103333 C37.78029659 215.02583579 37.78029659 215.02583579 38.75388336 216.09174538 C41.97700786 219.48685537 45.25663409 222.81620744 48.58300781 226.11010742 C49.33023605 226.8542691 50.07746429 227.59843079 50.84733582 228.36514282 C52.45582354 229.96652436 54.06543783 231.56677499 55.6760788 233.16599083 C58.22580566 235.69821233 60.77187358 238.23406088 63.31695557 240.77095032 C70.54867221 247.97830542 77.78607976 255.17992613 85.02783203 262.37719727 C89.46862885 266.79122103 93.90455003 271.21009609 98.33750153 275.63199806 C100.02451453 277.31280611 101.71342229 278.99171463 103.40425873 280.66867638 C105.76398603 283.00919702 108.11749746 285.35580464 110.46972656 287.70385742 C111.51706215 288.73805061 111.51706215 288.73805061 112.58555603 289.7931366 C120.38017074 297.60358793 120.38017074 297.60358793 121.16601562 302.89648438 C121.11130233 309.32529702 120.88539353 314.08770449 116.11523438 318.86914062 C112.12054941 322.44999988 109.05783152 324.33581702 103.58007812 324.58789062 C102.86464844 324.636875 102.14921875 324.68585938 101.41210938 324.73632812 C92.97999534 323.06734248 86.82338639 315.65198848 81.08007812 309.78320312 C79.7015918 308.39460441 78.32310299 307.00600815 76.94447327 305.6175518 C75.02996865 303.68561355 73.12250199 301.74679858 71.21496582 299.8079834 C67.87991343 296.42061426 64.53500269 293.04299282 61.18823242 289.66720581 C59.41296811 287.87515221 57.64081061 286.08001363 55.87231445 284.28128052 C51.52058017 279.8774042 47.10610279 275.63626125 42.39596558 271.6161499 C40.46092158 269.94863003 38.66411872 268.17724138 36.89257812 266.33789062 C33.81626145 263.14710635 32.55544811 262.29038603 27.95507812 261.83789062 C24.52638499 261.89409871 23.76428468 262.21515487 20.76757812 264.27539062 C18.6143232 267.09710941 18.6143232 267.09710941 17.89257812 270.40039062 C20.08687756 279.96126673 31.15978095 287.71635246 38.07244492 294.53179169 C39.74070144 296.17761741 41.40461654 297.82772424 43.06741333 299.47906494 C47.7873448 304.16576065 52.51173581 308.84789458 57.24609375 313.52001953 C60.16123977 316.39744677 63.06896036 319.28220264 65.97211075 322.17173004 C67.07210252 323.26370384 68.17485749 324.35290183 69.28048325 325.43917084 C70.82339284 326.95548937 72.35666823 328.48097475 73.88818359 330.00878906 C74.76038544 330.87131287 75.63258728 331.73383667 76.53121948 332.62249756 C80.87928918 337.65890334 82.16462132 341.595504 81.76757812 348.21289062 C78.7897415 347.59537831 76.55302489 346.65018671 73.96679688 345.06054688 C73.24443848 344.61880127 72.52208008 344.17705566 71.77783203 343.72192383 C70.62806885 343.00588989 70.62806885 343.00588989 69.45507812 342.27539062 C68.25890869 341.53712036 68.25890869 341.53712036 67.03857422 340.78393555 C60.68335394 336.8376813 54.42681956 332.75937613 48.25195312 328.53710938 C45.98305188 326.99443319 43.72906449 325.61183308 41.34570312 324.23242188 C34.33720386 320.08715097 31.47156547 316.82214046 28.83007812 309.11132812 C25.90510357 301.1321696 19.44356707 294.62925363 11.97070312 290.76757812 C5.84665974 288.04750809 0.45481041 286.54725224 -6.23242188 286.21289062 C-6.33039063 285.53484375 -6.42835938 284.85679687 -6.52929688 284.15820312 C-8.61064416 271.20361051 -12.79465915 261.86035314 -23.34960938 253.54492188 C-30.13105497 249.04594727 -37.26593669 247.89934513 -45.23242188 247.21289062 C-45.379375 246.41367187 -45.52632813 245.61445313 -45.67773438 244.79101562 C-48.23626939 232.2630166 -52.4919318 221.08172956 -63.40820312 213.75195312 C-70.30428532 209.84680675 -77.43013026 208.9661378 -85.23242188 208.21289062 C-85.3071875 207.32988281 -85.38195312 206.446875 -85.45898438 205.53710938 C-86.6666486 194.51421334 -89.89047077 185.40095237 -98.16992188 177.71289062 C-105.80382022 172.16096455 -113.7795749 170.03394589 -123.04492188 170.02539062 C-124.07456055 170.00702148 -124.07456055 170.00702148 -125.125 169.98828125 C-129.85814912 169.97484752 -133.73712619 170.72621114 -138.23242188 172.21289062 C-147.64071966 148.73258298 -148.70828941 118.63230778 -142.23242188 94.21289062 C-142.0390625 93.44541504 -141.84570312 92.67793945 -141.64648438 91.88720703 C-135.28967528 67.10251847 -123.37001674 46.07880591 -106.23242188 27.21289062 C-105.45511719 26.35179687 -104.6778125 25.49070313 -103.87695312 24.60351562 C-87.8801436 7.776051 -67.91691031 -3.15203315 -46.23242188 -10.78710938 C-45.22824219 -11.14933594 -44.2240625 -11.5115625 -43.18945312 -11.88476562 C-27.01547301 -17.27609233 -13.39160075 -8.71104126 0 0 Z " fill="#F8C49B" transform="translate(228.232421875,85.787109375)"/>
<path d="M0 0 C3.01858498 1.39013782 5.52271417 1.16331627 8.78125 0.8203125 C11.68934543 -1.03684937 11.68934543 -1.03684937 13.78125 -3.1796875 C18.19041217 -1.76019105 20.70254907 0.46470679 24.03125 3.6328125 C27.65896494 6.98217906 27.65896494 6.98217906 32.25 7.63671875 C33.75833755 7.01427124 35.24730657 6.34241724 36.7109375 5.62109375 C39.23230062 4.64584952 40.1893972 4.86613886 42.65625 5.8828125 C47.40634448 8.82787108 47.40634448 8.82787108 48.78125 11.8203125 C49.18968099 16.96654292 48.85418538 20.07155616 46.78125 24.8203125 C47.34714844 25.49578125 47.91304688 26.17125 48.49609375 26.8671875 C49.22957031 27.75921875 49.96304687 28.65125 50.71875 29.5703125 C51.44964844 30.45203125 52.18054688 31.33375 52.93359375 32.2421875 C54.61008737 34.58148093 55.53206435 35.97959614 55.78125 38.8203125 C55.0696875 39.6865625 55.0696875 39.6865625 54.34375 40.5703125 C52.07118826 43.8428014 52.29420354 46.99992176 52.78125 50.8203125 C53.71859477 53.57647399 55.03690927 56.06888148 56.40625 58.6328125 C60.95898638 67.73929721 64.14007874 76.99892544 66.78125 86.8203125 C66.96059082 87.47789551 67.13993164 88.13547852 67.32470703 88.81298828 C75.69077313 120.90644742 68.15182043 157.52384838 51.78125 185.8203125 C43.97606591 198.67680481 34.52038907 209.4033476 23.78125 219.8203125 C21.90358775 218.02132325 20.56487003 216.47909793 19.15625 214.2578125 C13.45982998 205.51315675 5.30493158 198.19989743 -2.05297852 190.87255859 C-3.00032206 189.92549806 -3.94744362 188.97821543 -4.8943634 188.0307312 C-7.43283923 185.4919718 -9.97435706 182.95627866 -12.51648831 180.42118025 C-15.1848405 177.75913572 -17.85030696 175.09420475 -20.51609802 172.42959595 C-25.54993908 167.39884656 -30.58632069 162.37064878 -35.62365049 157.34339297 C-41.36456277 151.61370953 -47.10259077 145.88114124 -52.84039414 140.14834476 C-64.63000303 128.36915118 -76.42317722 116.59353395 -88.21875 104.8203125 C-84.93083786 102.16828863 -81.60231894 99.6804095 -78.12890625 97.27734375 C-72.24618297 93.01757685 -67.16114922 88.15458291 -62.09936523 82.98217773 C-60.63348436 81.48455388 -59.15665054 79.99841533 -57.67773438 78.51367188 C-51.01696143 72.45217704 -51.01696143 72.45217704 -47.78125 64.4453125 C-47.94723087 60.73532107 -47.94723087 60.73532107 -50.21875 57.8828125 C-53.30064269 55.76401127 -55.36011397 54.96055115 -59.12768555 55.20800781 C-61.69883515 55.96089085 -63.01352305 57.06382533 -64.98828125 58.8671875 C-65.68300537 59.50108398 -66.37772949 60.13498047 -67.09350586 60.78808594 C-69.82016116 63.39540113 -72.47446252 66.06362585 -75.10229492 68.77026367 C-87.92045112 81.96556312 -100.62340905 91.39886371 -119.68821716 91.88302612 C-122.32263424 91.88280319 -124.95564898 91.85379139 -127.58984375 91.8203125 C-129.5657553 91.81915458 -131.54166967 91.82053443 -133.51757812 91.82421875 C-136.59042157 91.82863622 -139.660209 91.82024652 -142.73266602 91.76904297 C-156.17573677 91.05659072 -156.17573677 91.05659072 -167.828125 96.578125 C-169.3276782 98.29471656 -170.78883777 100.0452921 -172.21875 101.8203125 C-173.73131625 103.39033833 -175.28162817 104.91593313 -176.83790588 106.44256592 C-178.48882349 108.06303223 -180.11734193 109.70305962 -181.74023438 111.3515625 C-182.5517395 112.17527344 -182.5517395 112.17527344 -183.37963867 113.015625 C-184.49048398 114.14535386 -185.60049631 115.27590233 -186.7097168 116.40722656 C-188.33982021 118.0675744 -189.9761323 119.72160304 -191.61328125 121.375 C-192.10294876 121.87812714 -192.59261627 122.38125427 -193.09712219 122.89962769 C-198.92106893 128.76563295 -203.77542018 130.91897057 -211.90625 131.1953125 C-218.10526313 131.11225629 -222.48110834 129.89318626 -227.21875 125.8203125 C-231.79820838 120.30370757 -234.350997 115.42188251 -234.59375 108.1953125 C-234.64273438 107.21304688 -234.69171875 106.23078125 -234.7421875 105.21875 C-233.46771107 96.94416421 -227.85584515 90.87005606 -222.08032227 85.18017578 C-221.38031601 84.47476654 -220.68030975 83.7693573 -219.95909119 83.04257202 C-217.66087868 80.73193742 -215.34857493 78.43602716 -213.03515625 76.140625 C-211.41608545 74.52139896 -209.79768343 72.90150396 -208.17991638 71.28097534 C-204.79104644 67.89072396 -201.39533887 64.50752241 -197.99438477 61.12939453 C-193.66913576 56.83240321 -189.35948345 52.52017076 -185.05473423 48.20265388 C-181.71345953 44.85436632 -178.364763 41.51358035 -175.0138073 38.17498398 C-173.42400857 36.58965435 -171.83622871 35.00229716 -170.25064278 33.41275406 C-123.77583671 -13.12367454 -61.17870129 -32.52811231 0 0 Z " fill="#F9C49B" transform="translate(422.21875,80.1796875)"/>
<path d="M0 0 C3.01858498 1.39013782 5.52271417 1.16331627 8.78125 0.8203125 C11.68934543 -1.03684937 11.68934543 -1.03684937 13.78125 -3.1796875 C18.03550145 -1.73308646 21.10409405 0.38303287 24.59375 3.1953125 C26.05748047 4.35160156 26.05748047 4.35160156 27.55078125 5.53125 C31.31438016 9.39371753 29.78125 16.50805167 29.78125 21.8203125 C29.22252197 21.70437744 28.66379395 21.58844238 28.08813477 21.46899414 C25.50752597 20.93603943 22.92566541 20.40939934 20.34375 19.8828125 C19.46525391 19.70041016 18.58675781 19.51800781 17.68164062 19.33007812 C-19.85422723 11.71209756 -58.0455906 19.17363321 -90.21875 39.8203125 C-102.17467642 47.8828013 -112.61225351 57.95000083 -122.4609375 68.421875 C-124.36321748 70.42024573 -126.26755068 72.41664106 -128.17236328 74.41259766 C-129.46057644 75.77545188 -130.7378765 77.14869929 -132.00439453 78.53173828 C-143.9763879 91.55891118 -143.9763879 91.55891118 -152.7265625 91.96875 C-153.80824707 91.88544434 -154.88993164 91.80213867 -156.00439453 91.71630859 C-163.60193125 91.96213501 -168.53957975 97.74587971 -173.5078125 102.88671875 C-174.50728409 103.89967262 -174.50728409 103.89967262 -175.52694702 104.93309021 C-177.63992016 107.07589833 -179.74262632 109.22838896 -181.84375 111.3828125 C-183.95289083 113.53988835 -186.06426672 115.69458092 -188.18197632 117.84324646 C-189.49498752 119.17591113 -190.80304617 120.51347899 -192.1053772 121.85658264 C-198.2151542 128.06689038 -203.13102384 130.89706952 -211.90625 131.1953125 C-218.10526313 131.11225629 -222.48110834 129.89318626 -227.21875 125.8203125 C-231.79820838 120.30370757 -234.350997 115.42188251 -234.59375 108.1953125 C-234.64273438 107.21304688 -234.69171875 106.23078125 -234.7421875 105.21875 C-233.46771107 96.94416421 -227.85584515 90.87005606 -222.08032227 85.18017578 C-221.38031601 84.47476654 -220.68030975 83.7693573 -219.95909119 83.04257202 C-217.66087868 80.73193742 -215.34857493 78.43602716 -213.03515625 76.140625 C-211.41608545 74.52139896 -209.79768343 72.90150396 -208.17991638 71.28097534 C-204.79104644 67.89072396 -201.39533887 64.50752241 -197.99438477 61.12939453 C-193.66913576 56.83240321 -189.35948345 52.52017076 -185.05473423 48.20265388 C-181.71345953 44.85436632 -178.364763 41.51358035 -175.0138073 38.17498398 C-173.42400857 36.58965435 -171.83622871 35.00229716 -170.25064278 33.41275406 C-123.77583671 -13.12367454 -61.17870129 -32.52811231 0 0 Z " fill="#FDFDFD" transform="translate(422.21875,80.1796875)"/>
<path d="M0 0 C3.7229703 2.6592645 6.55543557 5.73587115 8.625 9.875 C8.77332685 11.62069287 8.84628283 13.37325237 8.875 15.125 C8.90078125 16.05828125 8.9265625 16.9915625 8.953125 17.953125 C8.04805195 26.01258506 1.94455316 31.28652788 -3.375 36.875 C-4.16003906 37.70128906 -4.94507813 38.52757812 -5.75390625 39.37890625 C-12.11180535 45.90893122 -16.9101464 50.5224288 -26.25 51.125 C-31.12609684 51.0256721 -34.51647513 49.7161148 -38.04296875 46.22265625 C-42.51290256 41.2006166 -43.9055579 37.29220251 -43.75 30.53515625 C-42.60781323 22.43276885 -35.47020595 16.70454258 -30 11.125 C-29.06401978 10.16750854 -29.06401978 10.16750854 -28.10913086 9.19067383 C-19.65521529 0.82665854 -12.05401761 -4.01800587 0 0 Z " fill="#F6C299" transform="translate(114.375,276.125)"/>
<path d="M0 0 C4.34755147 1.99161576 7.13784827 4.20065599 9.78515625 8.2734375 C10.19765625 8.8715625 10.61015625 9.4696875 11.03515625 10.0859375 C12.74609443 15.07617386 12.24764344 19.06385561 10.4140625 23.859375 C7.54714134 29.33351399 3.16713324 33.45470795 -1.21411133 37.73925781 C-2.65831063 39.15428385 -4.08268398 40.58729969 -5.50585938 42.0234375 C-11.28286631 47.74744437 -15.23715812 51.52907316 -23.65234375 51.6484375 C-28.63955572 51.54788887 -31.42174295 50.69647969 -35.21484375 47.2734375 C-39.51088129 42.50006245 -41.74929345 38.9885402 -41.51367188 32.39038086 C-40.27953362 23.64755995 -33.31218209 17.79969541 -27.33984375 11.9609375 C-26.45425781 11.06826172 -25.56867188 10.17558594 -24.65625 9.25585938 C-17.40001182 2.06991263 -10.54756595 -3.46004809 0 0 Z " fill="#F7C29A" transform="translate(190.21484375,353.7265625)"/>
<path d="M0 0 C5.01791684 2.41935276 8.49958655 5.9991731 11 11 C11.17500341 12.89061062 11.26724916 14.7893464 11.3125 16.6875 C11.36857422 18.20923828 11.36857422 18.20923828 11.42578125 19.76171875 C10.29176214 28.38650632 3.57758741 33.90956083 -2.3125 39.75 C-3.14201172 40.59949219 -3.97152344 41.44898438 -4.82617188 42.32421875 C-10.61746461 48.11094061 -15.48134598 52.4235469 -24.0625 52.4375 C-28.75748811 52.28076292 -31.41321646 51.1597855 -35 48 C-38.67888843 43.91234619 -41.27554236 40.28696539 -41.375 34.6875 C-41.40335937 33.96949219 -41.43171875 33.25148438 -41.4609375 32.51171875 C-39.98205443 24.45305933 -33.5396051 19.10526982 -27.94580078 13.60961914 C-26.49452478 12.18211446 -25.05721851 10.74155857 -23.62109375 9.29882812 C-15.71563457 1.45452228 -11.36219758 -1.23369706 0 0 Z " fill="#F7C29A" transform="translate(151,314)"/>
<path d="M0 0 C5.04714221 3.01505312 8.86966463 6.34727515 10.7734375 12.05859375 C11.01171875 14.07421875 11.01171875 14.07421875 11.0859375 16.30859375 C11.14201172 17.39914062 11.14201172 17.39914062 11.19921875 18.51171875 C9.85392308 26.55880846 3.31895472 31.97818351 -2.22583008 37.44897461 C-3.66790377 38.87489198 -5.09315008 40.31624403 -6.51757812 41.75976562 C-7.43087891 42.66919922 -8.34417969 43.57863281 -9.28515625 44.515625 C-10.11329834 45.3403833 -10.94144043 46.1651416 -11.79467773 47.01489258 C-16.71432903 51.1492567 -21.34627685 51.50048459 -27.5703125 51.375 C-32.62461752 50.77294308 -35.24954634 48.14123328 -38.5390625 44.49609375 C-42.19055362 39.22171768 -42.11200522 33.24115869 -41.2265625 27.05859375 C-39.53380613 23.42596329 -37.02667339 20.89420525 -34.2265625 18.05859375 C-33.10274141 16.88293023 -31.97905422 15.7071387 -30.85546875 14.53125 C-11.87775967 -5.02200014 -11.87775967 -5.02200014 0 0 Z " fill="#F7C29A" transform="translate(230.2265625,392.94140625)"/>
<path d="M0 0 C2.48163601 2.16347755 3.76968269 3.6835272 4.34375 6.96484375 C4.48426448 10.10885526 4.22382856 12.55234287 2.8125 15.375 C-0.23076964 18.10344864 -2.9981863 18.85390217 -7 19.4375 C-11.03670092 18.84881445 -12.40519923 17.03962376 -15 14 C-15.33 13.67 -15.66 13.34 -16 13 C-16.27689693 8.84654612 -16.39280695 6.00383997 -14.875 2.125 C-10.48621767 -2.84895331 -5.77897221 -2.46141409 0 0 Z " fill="#030202" transform="translate(467,87)"/>
<path d="M0 0 C2.9375 2.4375 2.9375 2.4375 5 5 C5.33 5.33 5.66 5.66 6 6 C6.40038554 10.16400962 6.44184328 12.32250696 4.125 15.875 C1.21289342 18.78710658 0.3997223 18.96068305 -3.8125 19.375 C-7.45869525 19.35511166 -7.92035679 19.06608692 -10.9375 16.5625 C-11.618125 15.716875 -12.29875 14.87125 -13 14 C-13.33 13.67 -13.66 13.34 -14 13 C-14.40038554 8.83599038 -14.44184328 6.67749304 -12.125 3.125 C-8.55992016 -0.44007984 -4.89625656 -0.87232157 0 0 Z " fill="#070604" transform="translate(235,322)"/>
</svg>
