<?xml version="1.0" encoding="UTF-8"?>
<!-- Generator: visioncortex VTracer 0.6.12 -->
<svg version="1.1" xmlns="http://www.w3.org/2000/svg" width="512" height="512">
<path d="M0 0 C0.819 -0.003 1.639 -0.006 2.483 -0.009 C4.205 -0.011 5.927 -0.005 7.649 0.007 C10.273 0.023 12.897 0.007 15.521 -0.012 C17.202 -0.01 18.882 -0.006 20.562 0 C21.341 -0.006 22.119 -0.012 22.921 -0.018 C28.882 0.058 33.121 1.304 37.465 5.648 C42.783 14.005 42.37 24.81 42.215 34.398 C42.483 34.406 42.483 34.406 43.84 34.441 C63.151 35.617 81.579 45.251 96.215 57.398 C96.645 57.747 96.645 57.747 98.824 59.512 C110.463 69.398 117.346 81.117 124.389 94.44 C131.105 107.101 138.778 118.573 148.215 129.398 C149.068 130.386 149.922 131.373 150.801 132.391 C161.919 145.026 175.02 154.642 189.367 163.301 C195.3 166.89 200.411 170.494 204.215 176.398 C204.547 176.91 204.879 177.422 205.221 177.949 C209.6 185.997 208.793 195.009 208.746 203.898 C208.749 205.702 208.753 207.507 208.758 209.311 C208.764 213.08 208.755 216.848 208.736 220.617 C208.714 225.429 208.727 230.24 208.751 235.051 C208.765 238.773 208.76 242.494 208.75 246.216 C208.747 247.989 208.751 249.763 208.76 251.536 C208.811 263.985 207.923 273.185 199.137 282.609 C190.268 290.865 181.374 291.666 169.711 291.496 C167.255 291.492 164.798 291.49 162.342 291.49 C158.488 291.482 154.635 291.461 150.781 291.402 C147.049 291.351 143.319 291.356 139.586 291.371 C139.011 291.356 139.011 291.356 136.101 291.278 C128.263 291.371 128.263 291.371 125.186 294.386 C123.664 296.664 122.427 298.945 121.215 301.398 C111.851 312.808 97.754 319.614 83.215 321.398 C67.382 322.891 53.264 317.975 40.723 308.52 C36.594 305.079 33.923 301.944 31.373 297.219 C29.131 293.993 27.952 292.625 24.164 291.461 C20.26 291.088 16.417 291.033 12.502 291.089 C11.007 291.073 9.511 291.054 8.016 291.031 C3.968 290.981 -0.078 290.994 -4.127 291.022 C-7.511 291.04 -10.896 291.025 -14.28 291.01 C-22.268 290.975 -30.255 290.991 -38.242 291.04 C-46.471 291.089 -54.698 291.063 -62.926 290.998 C-70.003 290.944 -77.078 290.933 -84.155 290.957 C-88.377 290.971 -92.597 290.97 -96.818 290.93 C-100.79 290.894 -104.758 290.912 -108.729 290.971 C-110.182 290.984 -111.635 290.979 -113.087 290.953 C-124.056 290.773 -124.056 290.773 -128.332 294.792 C-130.455 297.721 -130.455 297.721 -132.154 300.627 C-138.016 310.588 -149.531 316.025 -160.152 319.5 C-174.978 323.304 -189.997 321.649 -203.66 314.711 C-212.577 309.388 -221.08 301.808 -225.785 292.398 C-226.15 292.394 -226.15 292.394 -227.997 292.37 C-231.365 292.316 -234.731 292.232 -238.098 292.148 C-239.246 292.134 -240.393 292.12 -241.576 292.105 C-252.691 291.791 -261.683 289.494 -269.84 281.688 C-276.151 274.261 -277.935 266.662 -277.932 257.171 C-277.936 256.334 -277.94 255.497 -277.943 254.635 C-277.954 251.826 -277.958 249.017 -277.962 246.209 C-277.968 244.196 -277.975 242.184 -277.982 240.172 C-278.003 233.559 -278.013 226.945 -278.023 220.332 C-278.027 218.054 -278.032 215.776 -278.036 213.498 C-278.055 202.793 -278.069 192.088 -278.077 181.383 C-278.087 169.035 -278.113 156.687 -278.154 144.339 C-278.184 134.79 -278.199 125.241 -278.202 115.692 C-278.205 109.991 -278.213 104.29 -278.239 98.59 C-278.262 93.222 -278.266 87.855 -278.256 82.488 C-278.255 80.524 -278.262 78.559 -278.275 76.595 C-278.365 63.048 -277.935 51.663 -268.078 41.344 C-260.736 35.115 -253.094 33.247 -243.693 33.278 C-242.751 33.277 -241.809 33.276 -240.839 33.276 C-237.67 33.274 -234.5 33.279 -231.331 33.285 C-229.065 33.285 -226.798 33.285 -224.532 33.284 C-218.367 33.284 -212.202 33.29 -206.037 33.297 C-199.599 33.303 -193.161 33.304 -186.723 33.305 C-175.912 33.308 -165.102 33.314 -154.292 33.323 C-143.157 33.332 -132.022 33.339 -120.887 33.344 C-120.544 33.344 -120.544 33.344 -118.808 33.344 C-115.365 33.346 -111.922 33.347 -108.48 33.348 C-79.915 33.358 -51.35 33.376 -22.785 33.398 C-22.751 32.774 -22.716 32.149 -22.681 31.506 C-22.51 28.635 -22.304 25.767 -22.098 22.898 C-22.044 21.916 -21.991 20.934 -21.936 19.922 C-21.436 13.402 -20.209 8.381 -15.785 3.398 C-10.581 0.249 -5.905 -0.046 0 0 Z " fill="#FE243E" transform="translate(291.78515625,85.6015625)"/>
<path d="M0 0 C0.819 -0.003 1.639 -0.006 2.483 -0.009 C4.205 -0.011 5.927 -0.005 7.649 0.007 C10.273 0.023 12.897 0.007 15.521 -0.012 C17.202 -0.01 18.882 -0.006 20.562 0 C21.341 -0.006 22.119 -0.012 22.921 -0.018 C28.882 0.058 33.121 1.304 37.465 5.648 C42.783 14.005 42.37 24.81 42.215 34.398 C42.483 34.406 42.483 34.406 43.84 34.441 C63.151 35.617 81.579 45.251 96.215 57.398 C96.645 57.747 96.645 57.747 98.824 59.512 C110.463 69.398 117.346 81.117 124.389 94.44 C131.105 107.101 138.778 118.573 148.215 129.398 C149.068 130.386 149.922 131.373 150.801 132.391 C161.919 145.026 175.02 154.642 189.367 163.301 C195.3 166.89 200.411 170.494 204.215 176.398 C204.547 176.91 204.879 177.422 205.221 177.949 C209.6 185.997 208.793 195.009 208.746 203.898 C208.749 205.702 208.753 207.507 208.758 209.311 C208.764 213.08 208.755 216.848 208.736 220.617 C208.714 225.429 208.727 230.24 208.751 235.051 C208.765 238.773 208.76 242.494 208.75 246.216 C208.747 247.989 208.751 249.763 208.76 251.536 C208.811 263.985 207.923 273.185 199.137 282.609 C190.268 290.865 181.374 291.666 169.711 291.496 C167.255 291.492 164.798 291.49 162.342 291.49 C158.488 291.482 154.635 291.461 150.781 291.402 C147.049 291.351 143.319 291.356 139.586 291.371 C139.011 291.356 139.011 291.356 136.101 291.278 C128.263 291.371 128.263 291.371 125.186 294.386 C123.664 296.664 122.427 298.945 121.215 301.398 C111.851 312.808 97.754 319.614 83.215 321.398 C67.382 322.891 53.264 317.975 40.723 308.52 C36.594 305.079 33.923 301.944 31.373 297.219 C29.131 293.993 27.952 292.625 24.164 291.461 C20.26 291.088 16.417 291.033 12.502 291.089 C11.007 291.073 9.511 291.054 8.016 291.031 C3.968 290.981 -0.078 290.994 -4.127 291.022 C-7.511 291.04 -10.896 291.025 -14.28 291.01 C-22.268 290.975 -30.255 290.991 -38.242 291.04 C-46.471 291.089 -54.698 291.063 -62.926 290.998 C-70.003 290.944 -77.078 290.933 -84.155 290.957 C-88.377 290.971 -92.597 290.97 -96.818 290.93 C-100.79 290.894 -104.758 290.912 -108.729 290.971 C-110.182 290.984 -111.635 290.979 -113.087 290.953 C-124.056 290.773 -124.056 290.773 -128.332 294.792 C-130.455 297.721 -130.455 297.721 -132.154 300.627 C-138.016 310.588 -149.531 316.025 -160.152 319.5 C-174.978 323.304 -189.997 321.649 -203.66 314.711 C-212.577 309.388 -221.08 301.808 -225.785 292.398 C-226.15 292.394 -226.15 292.394 -227.997 292.37 C-231.365 292.316 -234.731 292.232 -238.098 292.148 C-239.246 292.134 -240.393 292.12 -241.576 292.105 C-252.691 291.791 -261.683 289.494 -269.84 281.688 C-276.151 274.261 -277.935 266.662 -277.932 257.171 C-277.936 256.334 -277.94 255.497 -277.943 254.635 C-277.954 251.826 -277.958 249.017 -277.962 246.209 C-277.968 244.196 -277.975 242.184 -277.982 240.172 C-278.003 233.559 -278.013 226.945 -278.023 220.332 C-278.027 218.054 -278.032 215.776 -278.036 213.498 C-278.055 202.793 -278.069 192.088 -278.077 181.383 C-278.087 169.035 -278.113 156.687 -278.154 144.339 C-278.184 134.79 -278.199 125.241 -278.202 115.692 C-278.205 109.991 -278.213 104.29 -278.239 98.59 C-278.262 93.222 -278.266 87.855 -278.256 82.488 C-278.255 80.524 -278.262 78.559 -278.275 76.595 C-278.365 63.048 -277.935 51.663 -268.078 41.344 C-260.736 35.115 -253.094 33.247 -243.693 33.278 C-242.751 33.277 -241.809 33.276 -240.839 33.276 C-237.67 33.274 -234.5 33.279 -231.331 33.285 C-229.065 33.285 -226.798 33.285 -224.532 33.284 C-218.367 33.284 -212.202 33.29 -206.037 33.297 C-199.599 33.303 -193.161 33.304 -186.723 33.305 C-175.912 33.308 -165.102 33.314 -154.292 33.323 C-143.157 33.332 -132.022 33.339 -120.887 33.344 C-120.544 33.344 -120.544 33.344 -118.808 33.344 C-115.365 33.346 -111.922 33.347 -108.48 33.348 C-79.915 33.358 -51.35 33.376 -22.785 33.398 C-22.751 32.774 -22.716 32.149 -22.681 31.506 C-22.51 28.635 -22.304 25.767 -22.098 22.898 C-22.044 21.916 -21.991 20.934 -21.936 19.922 C-21.436 13.402 -20.209 8.381 -15.785 3.398 C-10.581 0.249 -5.905 -0.046 0 0 Z M-262.66 51.336 C-263.214 51.984 -263.769 52.633 -264.34 53.301 C-267.729 58.22 -268.076 62.758 -268.053 68.601 C-268.057 69.423 -268.062 70.245 -268.066 71.092 C-268.079 73.845 -268.077 76.598 -268.076 79.35 C-268.082 81.325 -268.088 83.3 -268.096 85.274 C-268.114 90.638 -268.118 96.002 -268.12 101.366 C-268.121 104.719 -268.125 108.071 -268.131 111.424 C-268.149 123.126 -268.157 134.828 -268.156 146.53 C-268.155 157.429 -268.176 168.328 -268.207 179.227 C-268.233 188.59 -268.244 197.953 -268.243 207.316 C-268.242 212.906 -268.248 218.495 -268.269 224.084 C-268.289 229.345 -268.289 234.605 -268.274 239.866 C-268.272 241.792 -268.277 243.718 -268.289 245.644 C-268.413 266.658 -268.413 266.658 -261.82 274.836 C-261.169 275.352 -260.518 275.867 -259.848 276.398 C-259.523 276.667 -259.523 276.667 -257.883 278.023 C-253.905 280.631 -250.446 281.652 -245.703 281.594 C-244.772 281.587 -243.84 281.581 -242.881 281.574 C-241.921 281.557 -240.961 281.541 -239.973 281.523 C-238.994 281.514 -238.015 281.505 -237.006 281.496 C-234.599 281.473 -232.192 281.44 -229.785 281.398 C-229.942 280.637 -230.1 279.875 -230.262 279.09 C-232.18 265.559 -232.426 251.608 -225.785 239.398 C-225.562 238.956 -225.562 238.956 -224.434 236.715 C-217.063 223.188 -205.085 215.29 -190.785 210.398 C-176.041 206.167 -159.59 209.519 -146.473 216.648 C-133.644 224.616 -125.458 236.809 -121.248 251.239 C-120.743 253.597 -120.656 255.726 -120.652 258.137 C-120.651 259.04 -120.65 259.943 -120.648 260.873 C-120.652 261.81 -120.656 262.746 -120.66 263.711 C-120.656 264.636 -120.652 265.561 -120.648 266.514 C-120.649 266.967 -120.649 266.967 -120.652 269.262 C-120.653 270.079 -120.655 270.897 -120.656 271.74 C-120.813 274.977 -121.327 278.189 -121.785 281.398 C-73.935 281.398 -26.085 281.398 23.215 281.398 C22.885 278.758 22.555 276.118 22.215 273.398 C20.888 255.062 24.365 240.484 36.402 226.211 C44.423 217.638 56.394 210.197 68.39 209.221 C79.667 208.928 89.713 208.805 100.215 213.398 C101.018 213.749 101.821 214.1 102.648 214.461 C115.337 220.794 125.011 232.353 130.215 245.398 C133.476 255.77 134.171 265.436 132.196 276.101 C132.013 277.093 131.83 278.084 131.642 279.106 C131.571 279.484 131.571 279.484 131.215 281.398 C138.152 281.526 145.089 281.613 152.028 281.673 C154.385 281.698 156.742 281.732 159.098 281.776 C162.499 281.837 165.899 281.865 169.301 281.887 C169.822 281.9 169.822 281.9 172.459 281.965 C179.735 281.968 185.107 280.421 191.215 276.398 C193.469 274.012 193.469 274.012 194.777 271.711 C195.232 270.944 195.687 270.177 196.156 269.387 C198.225 265.5 198.382 262.49 198.408 258.138 C198.416 257.39 198.424 256.642 198.432 255.871 C198.457 253.388 198.474 250.905 198.488 248.422 C198.494 247.573 198.499 246.724 198.504 245.85 C198.531 241.354 198.551 236.858 198.565 232.362 C198.582 227.728 198.626 223.095 198.677 218.462 C198.711 214.891 198.723 211.321 198.728 207.75 C198.735 206.043 198.75 204.335 198.774 202.628 C198.906 192.652 198.891 185.247 191.63 177.765 C187.466 173.738 182.4 171.15 177.398 168.309 C169.001 163.27 161.568 157.015 154.391 150.387 C152.645 148.791 150.882 147.299 149.027 145.836 C133.665 132.522 122.531 113.63 113.328 95.766 C101.253 72.404 82.356 55.683 57.152 47.648 C46.784 44.439 36.824 43.1 25.974 43.131 C24.79 43.126 23.607 43.122 22.387 43.117 C19.132 43.107 15.877 43.105 12.622 43.108 C9.1 43.108 5.578 43.097 2.056 43.088 C-4.831 43.071 -11.717 43.065 -18.604 43.064 C-24.202 43.063 -29.8 43.059 -35.398 43.053 C-51.285 43.035 -67.172 43.026 -83.059 43.028 C-83.486 43.028 -83.486 43.028 -85.65 43.028 C-86.506 43.028 -87.362 43.028 -88.244 43.028 C-102.131 43.029 -116.018 43.01 -129.905 42.982 C-144.18 42.953 -158.455 42.939 -172.729 42.941 C-180.738 42.941 -188.746 42.936 -196.754 42.914 C-203.568 42.896 -210.381 42.892 -217.195 42.905 C-220.669 42.912 -224.144 42.912 -227.618 42.895 C-231.388 42.879 -235.156 42.889 -238.926 42.904 C-239.472 42.899 -239.472 42.899 -242.24 42.873 C-250.562 42.948 -257.111 44.632 -262.66 51.336 Z " fill="#401034" transform="translate(291.78515625,85.6015625)"/>
<path d="M0 0 C29.903 -0.091 59.806 -0.162 89.709 -0.204 C93.247 -0.209 96.785 -0.214 100.323 -0.22 C101.028 -0.221 101.732 -0.222 102.458 -0.223 C113.831 -0.24 125.203 -0.272 136.576 -0.309 C148.264 -0.346 159.952 -0.368 171.64 -0.376 C178.197 -0.382 184.754 -0.394 191.311 -0.423 C197.494 -0.45 203.677 -0.458 209.86 -0.452 C212.119 -0.454 214.377 -0.461 216.636 -0.477 C243.962 -0.654 265.925 5.859 287 24 C287.605 24.519 288.209 25.039 288.832 25.574 C298.682 34.732 304.995 46.561 311.034 58.384 C320.871 77.565 335.14 96.43 352 110 C352.967 110.781 353.934 111.562 354.93 112.367 C361.542 117.618 368.335 122.223 375.613 126.504 C376.401 126.998 377.189 127.491 378 128 C378 128.33 378 128.66 378 129 C341.787 129.412 305.575 129.729 269.36 129.919 C265.08 129.942 260.801 129.965 256.522 129.989 C255.67 129.993 254.818 129.998 253.94 130.003 C240.162 130.081 226.384 130.223 212.607 130.389 C198.46 130.557 184.314 130.657 170.167 130.694 C161.442 130.718 152.721 130.796 143.998 130.942 C138.008 131.038 132.021 131.066 126.031 131.043 C122.578 131.032 119.131 131.049 115.679 131.146 C95.474 131.631 95.474 131.631 89.602 127.184 C85.542 122.94 82.57 118.214 79.98 112.96 C79 111 79 111 77 108 C76.773 106.007 76.773 106.007 76.805 103.77 C76.811 102.967 76.818 102.165 76.824 101.338 C76.833 100.921 76.833 100.921 76.875 98.812 C76.884 97.968 76.893 97.123 76.902 96.252 C76.926 94.168 76.962 92.084 77 90 C77.449 89.99 77.449 89.99 79.722 89.94 C83.051 89.862 86.379 89.775 89.708 89.683 C91.149 89.644 92.59 89.609 94.032 89.578 C96.102 89.533 98.172 89.475 100.242 89.414 C101.489 89.383 102.735 89.351 104.019 89.319 C107 89 107 89 109 87 C109.175 84.275 109.231 81.653 109.195 78.93 C109.194 78.532 109.194 78.532 109.187 76.517 C109.176 73.969 109.15 71.422 109.125 68.875 C109.115 67.15 109.106 65.424 109.098 63.699 C109.076 59.466 109.041 55.233 109 51 C106.101 49.55 103.477 49.779 100.242 49.684 C99.911 49.673 99.911 49.673 98.233 49.621 C96.114 49.555 93.994 49.496 91.875 49.438 C90.439 49.394 89.003 49.351 87.566 49.307 C84.044 49.2 80.522 49.098 77 49 C76.975 48.066 76.95 47.132 76.924 46.17 C76.829 42.717 76.73 39.264 76.628 35.81 C76.584 34.314 76.543 32.817 76.503 31.32 C76.445 29.173 76.381 27.026 76.316 24.879 C76.28 23.585 76.243 22.292 76.205 20.959 C76 18 76 18 75 17 C72.357 16.887 69.741 16.836 67.098 16.832 C66.305 16.829 65.512 16.825 64.695 16.822 C63.014 16.817 61.334 16.815 59.654 16.815 C57.077 16.813 54.5 16.794 51.924 16.775 C50.294 16.772 48.665 16.77 47.035 16.77 C46.261 16.762 45.487 16.755 44.69 16.748 C39.229 16.771 39.229 16.771 37 19 C36.681 21.981 36.681 21.981 36.586 25.758 C36.567 26.421 36.547 27.084 36.527 27.767 C36.467 29.886 36.421 32.005 36.375 34.125 C36.337 35.561 36.298 36.997 36.258 38.434 C36.162 41.956 36.078 45.478 36 49 C35.34 49 34.68 49 34 49 C32.474 47.075 31.074 45.148 29.688 43.125 C28.785 41.834 27.881 40.544 26.977 39.254 C26.495 38.563 26.013 37.872 25.517 37.161 C22.902 33.435 20.231 29.75 17.562 26.062 C17.02 25.31 16.477 24.557 15.918 23.782 C13.211 20.033 10.487 16.299 7.727 12.59 C7.214 11.899 6.702 11.209 6.174 10.498 C5.203 9.193 4.229 7.892 3.25 6.594 C0 2.222 0 2.222 0 0 Z " fill="#FEFDFE" transform="translate(98,130)"/>
<path d="M0 0 C1.013 -0.002 2.025 -0.004 3.069 -0.006 C4.184 -0.003 5.3 -0 6.45 0.003 C7.632 0.002 8.815 0.001 10.034 0 C13.322 -0.001 16.61 0.002 19.899 0.007 C23.443 0.011 26.986 0.01 30.53 0.009 C36.672 0.009 42.814 0.012 48.956 0.017 C57.837 0.025 66.717 0.028 75.597 0.029 C90.004 0.031 104.411 0.038 118.818 0.048 C132.815 0.057 146.811 0.064 160.808 0.068 C161.239 0.068 161.239 0.068 163.422 0.069 C167.748 0.07 172.075 0.071 176.401 0.073 C212.307 0.083 248.212 0.101 284.117 0.123 C284.117 0.453 284.117 0.783 284.117 1.123 C207.557 1.123 130.997 1.123 52.117 1.123 C66.151 21.004 66.151 21.004 70.805 27.436 C71.338 28.175 71.871 28.914 72.421 29.676 C74.894 33.094 77.384 36.495 79.938 39.854 C80.362 40.412 80.787 40.97 81.224 41.546 C82.346 43.013 83.475 44.475 84.606 45.936 C86.117 48.123 86.117 48.123 86.117 50.123 C86.777 50.123 87.437 50.123 88.117 50.123 C88.102 49.23 88.086 48.337 88.07 47.417 C88.019 44.101 87.981 40.786 87.953 37.47 C87.938 36.036 87.917 34.601 87.891 33.167 C87.855 31.104 87.838 29.042 87.824 26.979 C87.809 25.737 87.793 24.496 87.777 23.218 C88.117 20.123 88.117 20.123 89.13 18.217 C92.332 16.454 95.654 16.717 99.215 16.76 C99.61 16.76 99.61 16.76 101.609 16.758 C103.278 16.761 104.946 16.77 106.615 16.787 C109.174 16.81 111.732 16.807 114.291 16.801 C115.912 16.806 117.532 16.813 119.153 16.822 C119.536 16.822 119.536 16.822 121.479 16.82 C126.886 16.892 126.886 16.892 129.117 19.123 C129.344 22.196 129.344 22.196 129.313 26.1 C129.31 26.785 129.307 27.47 129.304 28.176 C129.293 30.367 129.268 32.557 129.242 34.748 C129.232 36.232 129.223 37.717 129.215 39.201 C129.193 42.842 129.158 46.482 129.117 50.123 C129.564 50.118 129.564 50.118 131.824 50.091 C135.139 50.057 138.454 50.032 141.77 50.013 C143.205 50.003 144.639 49.989 146.074 49.972 C148.137 49.948 150.199 49.937 152.262 49.928 C153.503 49.917 154.744 49.907 156.023 49.896 C159.117 50.123 159.117 50.123 162.117 52.123 C162.422 54.854 162.537 57.355 162.516 60.088 C162.517 60.482 162.517 60.482 162.525 62.479 C162.527 64.149 162.521 65.82 162.509 67.49 C162.493 70.047 162.508 72.603 162.528 75.16 C162.526 76.782 162.522 78.404 162.516 80.025 C162.522 80.791 162.528 81.557 162.534 82.346 C162.496 85.23 162.432 87.553 161.021 90.111 C158.09 91.669 155.56 91.458 152.262 91.416 C151.6 91.412 150.939 91.408 150.257 91.403 C148.148 91.386 146.039 91.349 143.93 91.311 C142.498 91.295 141.067 91.282 139.635 91.27 C136.129 91.236 132.623 91.185 129.117 91.123 C128.657 103.073 129.79 110.728 137.574 120.01 C140.117 123.123 140.117 123.123 144.117 130.123 C89.667 130.123 35.217 130.123 -20.883 130.123 C-21.006 111.148 -21.13 92.173 -21.258 72.623 C-21.285 69.631 -21.285 69.631 -21.423 54.492 C-21.45 47.165 -21.45 47.165 -21.455 43.731 C-21.464 41.341 -21.485 38.951 -21.516 36.562 C-21.56 32.934 -21.566 29.308 -21.564 25.68 C-21.585 24.622 -21.607 23.564 -21.629 22.474 C-21.569 15.364 -19.969 11.154 -14.883 6.123 C-10.163 2.123 -6.228 -0.003 0 0 Z " fill="#DFDFDF" transform="translate(45.88256359100342,128.87695217132568)"/>
<path d="M0 0 C2.184 -0.002 4.367 -0.02 6.55 -0.039 C13.733 -0.069 20.603 0.017 27.521 2.185 C28.071 2.357 28.071 2.357 30.857 3.228 C48.361 9.821 60.957 20.382 69.521 37.185 C74.165 47.794 75.741 57.459 75.896 68.935 C75.914 69.452 75.914 69.452 76.009 72.068 C76.093 79.519 75.011 85.134 70.521 91.185 C62.636 98.42 53.481 98.07 43.454 97.982 C41.809 97.986 40.163 97.992 38.517 98 C35.084 98.008 31.651 97.996 28.217 97.968 C23.837 97.933 19.459 97.953 15.078 97.989 C11.685 98.011 8.292 98.004 4.899 97.988 C3.285 97.984 1.67 97.989 0.056 98.003 C-8.06 98.058 -15.015 98.094 -21.813 93.056 C-26.015 88.339 -26.857 83.996 -26.883 77.806 C-26.89 77.093 -26.897 76.38 -26.904 75.646 C-26.922 73.305 -26.919 70.964 -26.913 68.623 C-26.917 66.987 -26.923 65.351 -26.929 63.714 C-26.938 60.292 -26.935 56.869 -26.925 53.446 C-26.914 49.068 -26.934 44.69 -26.963 40.312 C-26.982 36.936 -26.981 33.559 -26.976 30.182 C-26.975 28.569 -26.981 26.955 -26.994 25.341 C-27.009 23.081 -26.998 20.824 -26.981 18.564 C-26.981 17.281 -26.981 15.998 -26.98 14.676 C-26.229 9.446 -23.792 6.399 -19.979 2.873 C-14.078 -1.111 -6.855 -0.001 0 0 Z " fill="#63E7FD" transform="translate(322.479248046875,145.814697265625)"/>
<path d="M0 0 C55.11 0 110.22 0 167 0 C166.175 1.485 166.175 1.485 162 9 C161.089 10.679 160.189 12.365 159.312 14.062 C158.917 14.817 158.521 15.571 158.113 16.348 C155.277 23.105 154.702 29.269 154.812 36.5 C154.813 37.303 154.814 38.106 154.814 38.934 C154.852 44.104 155.348 48.785 156 54 C108.15 54 60.3 54 11 54 C11.33 51.69 11.66 49.38 12 47 C13.073 31.654 11.838 19.324 3.367 6.156 C2 4 2 4 0 0 Z " fill="#DFDFDF" transform="translate(159,313)"/>
<path d="M0 0 C0.395 -0 0.395 -0 2.394 -0.002 C4.063 0.001 5.731 0.011 7.4 0.027 C9.959 0.051 12.517 0.048 15.076 0.041 C16.697 0.047 18.317 0.054 19.938 0.062 C20.705 0.062 21.473 0.061 22.264 0.06 C27.671 0.132 27.671 0.132 29.902 2.363 C30.129 5.436 30.129 5.436 30.098 9.34 C30.095 10.025 30.092 10.71 30.089 11.416 C30.078 13.607 30.053 15.798 30.027 17.988 C30.017 19.473 30.008 20.957 30 22.441 C29.978 26.082 29.943 29.723 29.902 33.363 C30.795 33.353 31.689 33.342 32.609 33.332 C35.924 33.297 39.239 33.272 42.555 33.253 C43.99 33.243 45.424 33.23 46.859 33.212 C48.921 33.188 50.984 33.177 53.047 33.168 C54.288 33.157 55.529 33.147 56.808 33.136 C59.902 33.363 59.902 33.363 62.902 35.363 C63.207 38.094 63.322 40.595 63.301 43.328 C63.304 44.117 63.307 44.906 63.309 45.719 C63.312 47.39 63.306 49.06 63.293 50.73 C63.277 53.287 63.293 55.843 63.312 58.4 C63.311 60.022 63.307 61.644 63.301 63.266 C63.307 64.031 63.313 64.797 63.319 65.586 C63.281 68.471 63.217 70.793 61.806 73.351 C58.875 74.909 56.345 74.698 53.047 74.656 C52.385 74.652 51.724 74.648 51.042 74.643 C48.932 74.627 46.824 74.589 44.715 74.551 C43.283 74.536 41.852 74.522 40.42 74.51 C36.914 74.477 33.408 74.425 29.902 74.363 C29.918 75.256 29.934 76.149 29.95 77.07 C30.001 80.385 30.039 83.7 30.067 87.016 C30.082 88.451 30.103 89.885 30.129 91.32 C30.165 93.382 30.182 95.445 30.195 97.508 C30.211 98.749 30.227 99.99 30.243 101.269 C29.902 104.363 29.902 104.363 28.876 106.269 C25.738 108.008 22.517 107.77 19.023 107.727 C18.64 107.727 18.64 107.727 16.697 107.728 C15.075 107.726 13.454 107.716 11.832 107.699 C9.346 107.676 6.86 107.679 4.373 107.686 C2.798 107.68 1.223 107.673 -0.352 107.664 C-1.097 107.665 -1.843 107.666 -2.612 107.667 C-7.867 107.594 -7.867 107.594 -10.098 105.363 C-10.325 102.291 -10.325 102.291 -10.293 98.387 C-10.29 97.701 -10.287 97.016 -10.284 96.31 C-10.273 94.119 -10.248 91.929 -10.223 89.738 C-10.213 88.254 -10.204 86.77 -10.195 85.285 C-10.173 81.644 -10.139 78.004 -10.098 74.363 C-10.542 74.374 -10.542 74.374 -12.788 74.427 C-16.091 74.495 -19.392 74.545 -22.695 74.583 C-24.123 74.603 -25.551 74.63 -26.979 74.665 C-29.034 74.714 -31.089 74.736 -33.145 74.754 C-34.38 74.775 -35.616 74.796 -36.89 74.817 C-40.098 74.363 -40.098 74.363 -42.501 72.822 C-44.675 69.474 -44.655 66.504 -44.594 62.641 C-44.595 61.899 -44.597 61.157 -44.598 60.392 C-44.597 58.828 -44.585 57.264 -44.564 55.7 C-44.535 53.305 -44.544 50.913 -44.557 48.518 C-44.55 46.996 -44.542 45.475 -44.531 43.953 C-44.534 43.237 -44.537 42.522 -44.54 41.784 C-44.488 39.016 -44.37 36.848 -42.999 34.407 C-40.075 32.802 -37.556 33.028 -34.242 33.07 C-33.581 33.075 -32.919 33.079 -32.237 33.083 C-30.128 33.1 -28.019 33.138 -25.91 33.176 C-24.479 33.191 -23.047 33.205 -21.615 33.217 C-18.109 33.25 -14.603 33.302 -11.098 33.363 C-11.113 32.47 -11.129 31.577 -11.145 30.657 C-11.196 27.341 -11.234 24.026 -11.262 20.711 C-11.278 19.276 -11.298 17.841 -11.324 16.407 C-11.36 14.344 -11.377 12.282 -11.391 10.219 C-11.406 8.978 -11.422 7.736 -11.438 6.458 C-11.098 3.363 -11.098 3.363 -10.085 1.458 C-6.883 -0.305 -3.561 -0.043 0 0 Z " fill="#431336" transform="translate(145.09765625,145.63671875)"/>
<path d="M0 0 C10.814 7.898 17.951 18.14 20.457 31.391 C21.976 44.259 20.012 56.605 12.207 67.266 C10.992 68.672 9.741 70.047 8.457 71.391 C8.123 71.745 8.123 71.745 6.43 73.539 C-3.468 83.168 -15.044 85.721 -28.352 85.778 C-39.629 85.606 -48.106 81.784 -56.543 74.391 C-56.845 74.141 -56.845 74.141 -58.375 72.875 C-66.334 65.731 -71.274 54.638 -71.914 44.008 C-72.286 29.633 -69.666 18.171 -59.543 7.391 C-44.028 -8.896 -19.035 -12.047 0 0 Z " fill="#504B67" transform="translate(141.54296875,310.609375)"/>
<path d="M0 0 C10.023 7.309 17.646 16.799 20.25 29.25 C21.57 44.225 19.8 57.182 10.25 69.25 C2.273 78.276 -7.792 84.874 -19.992 85.734 C-33.991 86.273 -44.728 84.331 -55.719 75.133 C-65.438 66.124 -70.991 55.932 -72.039 42.562 C-72.37 27.645 -68.097 16.249 -57.91 5.32 C-42.202 -9.735 -18.323 -11.367 0 0 Z " fill="#504B67" transform="translate(394.75,310.75)"/>
<path d="M0 0 C31.68 0 63.36 0 96 0 C94.35 2.97 92.7 5.94 91 9 C90.089 10.679 89.189 12.365 88.312 14.062 C87.917 14.817 87.521 15.571 87.113 16.348 C84.268 23.126 83.703 29.309 83.812 36.562 C83.813 37.374 83.814 38.185 83.814 39.021 C83.849 43.774 84.283 48.292 85 53 C78.454 53.255 71.909 53.429 65.359 53.549 C63.133 53.599 60.908 53.668 58.684 53.754 C40.256 54.455 40.256 54.455 34.913 51.009 C32.834 48.435 31.421 45.979 30 43 C29.055 41.639 28.085 40.295 27.086 38.973 C26.179 37.671 25.276 36.368 24.375 35.062 C19.295 27.772 14.06 20.61 8.72 13.508 C8.442 13.134 8.442 13.134 7.031 11.242 C6.542 10.591 6.053 9.94 5.549 9.269 C3.519 6.295 1.787 3.127 0 0 Z " fill="#FEFEFE" transform="translate(230,313)"/>
<path d="M0 0 C25.74 0 51.48 0 78 0 C78 38 78 38 72 48 C67.066 52.027 62.233 54.259 55.843 54.227 C55.342 54.227 55.342 54.227 52.81 54.227 C51.742 54.216 50.674 54.206 49.574 54.195 C48.471 54.192 47.369 54.19 46.233 54.187 C42.717 54.176 39.203 54.15 35.688 54.125 C33.301 54.115 30.915 54.106 28.529 54.098 C22.686 54.076 16.843 54.042 11 54 C11.141 53.244 11.282 52.487 11.427 51.708 C11.61 50.716 11.793 49.724 11.981 48.703 C12.072 48.211 12.072 48.211 12.533 45.723 C15.455 28.683 9.295 13.943 0 0 Z " fill="#FEFEFE" transform="translate(412,313)"/>
<path d="M0 0 C6.93 0 13.86 0 21 0 C21.049 2.215 21.098 4.429 21.148 6.711 C21.202 8.852 21.26 10.994 21.317 13.135 C21.356 14.625 21.391 16.115 21.422 17.604 C21.467 19.744 21.525 21.884 21.586 24.023 C21.617 25.312 21.649 26.6 21.681 27.927 C22 31 22 31 24 33 C27.073 33.319 27.073 33.319 30.977 33.414 C31.662 33.433 32.347 33.453 33.053 33.473 C35.244 33.533 37.434 33.579 39.625 33.625 C41.109 33.663 42.594 33.702 44.078 33.742 C47.719 33.84 51.359 33.919 55 34 C55 40.93 55 47.86 55 55 C49.555 55.165 49.555 55.165 22 56 C21.67 66.56 21.34 77.12 21 88 C14.07 88 7.14 88 0 88 C-0.061 85.774 -0.121 83.548 -0.184 81.254 C-0.245 79.106 -0.309 76.958 -0.372 74.81 C-0.416 73.314 -0.457 71.817 -0.497 70.32 C-0.555 68.173 -0.619 66.026 -0.684 63.879 C-0.702 63.232 -0.702 63.232 -0.795 59.959 C-1 57 -1 57 -2 56 C-4.29 55.841 -6.584 55.749 -8.879 55.684 C-9.566 55.663 -10.252 55.642 -10.96 55.621 C-13.161 55.555 -15.361 55.496 -17.562 55.438 C-19.051 55.394 -20.54 55.351 -22.029 55.307 C-25.686 55.199 -29.343 55.1 -33 55 C-33 48.07 -33 41.14 -33 34 C-30.858 33.939 -28.715 33.879 -26.508 33.816 C-24.436 33.755 -22.364 33.691 -20.292 33.628 C-18.851 33.584 -17.41 33.543 -15.968 33.503 C-13.898 33.445 -11.828 33.381 -9.758 33.316 C-8.511 33.28 -7.265 33.243 -5.981 33.205 C-3 33 -3 33 -1 32 C-0.67 21.44 -0.34 10.88 0 0 Z " fill="#FB213C" transform="translate(144,155)"/>
<path d="M0 0 C2.184 -0.002 4.367 -0.02 6.55 -0.039 C13.733 -0.069 20.603 0.017 27.521 2.185 C28.071 2.357 28.071 2.357 30.857 3.228 C48.361 9.821 60.957 20.382 69.521 37.185 C74.165 47.794 75.741 57.459 75.896 68.935 C75.914 69.452 75.914 69.452 76.009 72.068 C76.093 79.519 75.011 85.134 70.521 91.185 C62.636 98.42 53.481 98.07 43.454 97.982 C41.809 97.986 40.163 97.992 38.517 98 C35.084 98.008 31.651 97.996 28.217 97.968 C23.837 97.933 19.459 97.953 15.078 97.989 C11.685 98.011 8.292 98.004 4.899 97.988 C3.285 97.984 1.67 97.989 0.056 98.003 C-8.06 98.058 -15.015 98.094 -21.813 93.056 C-26.015 88.339 -26.857 83.996 -26.883 77.806 C-26.89 77.093 -26.897 76.38 -26.904 75.646 C-26.922 73.305 -26.919 70.964 -26.913 68.623 C-26.917 66.987 -26.923 65.351 -26.929 63.714 C-26.938 60.292 -26.935 56.869 -26.925 53.446 C-26.914 49.068 -26.934 44.69 -26.963 40.312 C-26.982 36.936 -26.981 33.559 -26.976 30.182 C-26.975 28.569 -26.981 26.955 -26.994 25.341 C-27.009 23.081 -26.998 20.824 -26.981 18.564 C-26.981 17.281 -26.981 15.998 -26.98 14.676 C-26.229 9.446 -23.792 6.399 -19.979 2.873 C-14.078 -1.111 -6.855 -0.001 0 0 Z M-15.64 12.307 C-17.853 15.77 -17.991 17.739 -18.013 21.824 C-18.021 22.47 -18.03 23.116 -18.039 23.782 C-18.061 25.907 -18.055 28.03 -18.046 30.154 C-18.051 31.637 -18.057 33.12 -18.064 34.603 C-18.075 37.707 -18.07 40.81 -18.056 43.913 C-18.038 47.885 -18.062 51.855 -18.097 55.827 C-18.119 58.888 -18.118 61.948 -18.109 65.009 C-18.109 66.473 -18.115 67.937 -18.13 69.401 C-18.148 71.451 -18.133 73.497 -18.11 75.547 C-18.109 76.711 -18.108 77.875 -18.107 79.074 C-17.267 83.238 -15.885 84.69 -12.479 87.185 C-9.216 87.807 -9.216 87.807 -5.473 87.801 C-5.131 87.803 -5.131 87.803 -3.397 87.817 C-1.142 87.829 1.11 87.805 3.365 87.779 C4.937 87.777 6.51 87.777 8.083 87.779 C11.375 87.778 14.666 87.759 17.958 87.727 C22.171 87.688 26.384 87.683 30.597 87.691 C33.844 87.694 37.09 87.682 40.336 87.665 C41.889 87.658 43.443 87.654 44.996 87.655 C47.169 87.654 49.342 87.632 51.515 87.605 C52.75 87.597 53.985 87.588 55.258 87.58 C58.793 87.152 60.682 86.293 63.521 84.185 C66.604 79.717 65.862 74.402 65.833 69.185 C65.828 68.146 65.822 67.107 65.816 66.036 C65.552 49.328 60.182 36.865 48.443 24.92 C35.824 12.736 20.381 9.984 3.47 9.835 C2.084 9.819 0.697 9.791 -0.69 9.753 C-2.705 9.698 -4.721 9.68 -6.737 9.662 C-7.935 9.642 -9.132 9.622 -10.366 9.602 C-13.479 10.185 -13.479 10.185 -15.64 12.307 Z " fill="#411337" transform="translate(322.479248046875,145.814697265625)"/>
<path d="M0 0 C7.998 4.656 13 11.399 15.789 20.32 C17.444 29.383 15.205 37.157 10.516 44.934 C5.962 51.413 -0.284 55.175 -7.859 57.246 C-18.486 58.368 -26.467 57.331 -34.883 50.637 C-40.74 45.249 -44.461 38.534 -45.062 30.547 C-45.214 20.862 -44.094 14.539 -37.797 6.996 C-27.523 -3.591 -13.698 -6.554 0 0 Z " fill="#3F1134" transform="translate(383.859375,322.75390625)"/>
<path d="M0 0 C6.098 4.668 10.866 10.561 13 18 C14.178 27.502 13.782 35.968 8 44 C5.5 46.875 5.5 46.875 3 49 C2.618 49.351 2.618 49.351 0.688 51.125 C-7.044 56.519 -14.784 56.932 -24 56 C-32.733 53.823 -38.628 49.51 -43.312 41.812 C-47.849 33.87 -48.059 26.037 -47 17 C-44.251 7.892 -38.12 2.579 -30.137 -2.09 C-20.902 -6.381 -8.558 -5.269 0 0 Z " fill="#3F1034" transform="translate(133,324)"/>
<path d="M0 0 C44.743 -1.136 44.743 -1.136 63.676 16.578 C75.354 28.747 79.366 42.238 79.312 58.75 C79.329 59.764 79.345 60.779 79.361 61.824 C79.367 71.162 79.367 71.162 76 75 C73.312 76.312 73.312 76.312 71 77 C70.611 76.539 70.221 76.077 69.82 75.602 C66.361 71.569 62.781 67.734 59 64 C56.11 61.145 53.315 58.285 50.688 55.188 C47.478 51.429 44.012 47.973 40.5 44.5 C36.445 40.491 32.56 36.441 28.871 32.09 C25.861 28.728 22.62 25.6 19.411 22.43 C15.997 19.042 12.778 15.554 9.668 11.883 C7.102 8.986 4.305 6.332 1.504 3.664 C0 2 0 2 0 0 Z " fill="#00B7EF" transform="translate(309,156)"/>
<path d="M0 0 C16.17 0 32.34 0 49 0 C46.36 4.62 43.72 9.24 41 14 C35.072 25.707 35.335 41.239 38 54 C34.667 54.117 31.334 54.188 28 54.25 C27.065 54.284 26.131 54.317 25.168 54.352 C17.834 54.454 12.704 53.056 7.012 48.359 C6.575 47.828 6.138 47.297 5.688 46.75 C5.238 46.229 4.788 45.708 4.324 45.172 C0.611 39.082 -0.443 33.539 -0.293 26.562 C-0.29 25.883 -0.287 25.203 -0.284 24.502 C-0.268 22.001 -0.226 19.501 -0.188 17 C-0.126 11.39 -0.064 5.78 0 0 Z " fill="#DDDDDD" transform="translate(24,313)"/>
<path d="M0 0 C4.356 3.617 7.268 8.363 9.047 13.699 C9.614 20.936 7.847 26.025 3.859 31.949 C-0.866 36.57 -5.285 38.892 -11.953 39.199 C-17.898 38.917 -22.361 37.13 -26.711 33.051 C-31.751 27.475 -33.452 22.781 -33.262 15.258 C-32.55 9.359 -29.869 5.259 -25.516 1.324 C-17.6 -4.821 -8.599 -5.321 0 0 Z " fill="#899AA2" transform="translate(127.953125,332.30078125)"/>
<path d="M0 0 C4.966 2.835 8.235 6.89 11.125 11.75 C12.678 18.427 12.527 24.59 9.086 30.617 C5.78 35.122 1.269 39.154 -4.25 40.438 C-11.382 41.486 -16.126 40.136 -22.113 36.16 C-26.582 32.557 -28.926 28.395 -29.559 22.617 C-29.828 15.713 -29.496 10.85 -25.145 5.316 C-18.073 -1.697 -9.325 -4.085 0 0 Z " fill="#899AA3" transform="translate(378.25,330.5625)"/>
<path d="M0 0 C0.383 -0.001 0.383 -0.001 2.32 -0.009 C3.937 -0.011 5.554 -0.005 7.171 0.007 C9.647 0.023 12.122 0.007 14.598 -0.012 C16.169 -0.01 17.741 -0.006 19.312 0 C20.053 -0.006 20.794 -0.012 21.557 -0.018 C25.974 0.042 26.879 0.121 30.156 3.398 C30.816 9.998 31.476 16.598 32.156 23.398 C17.636 23.398 3.116 23.398 -11.844 23.398 C-11.844 11.693 -11.844 11.693 -11.531 7.961 C-11.473 7.158 -11.415 6.355 -11.355 5.527 C-9.915 -0.464 -5.295 -0.043 0 0 Z " fill="#FB213C" transform="translate(291.84375,95.6015625)"/>
</svg>
