<?xml version="1.0" encoding="UTF-8"?>
<!-- Generator: visioncortex VTracer 0.6.12 -->
<svg version="1.1" xmlns="http://www.w3.org/2000/svg" width="512" height="512">
<path d="M0 0 C3.37 0.029 6.739 0.008 10.109 -0.015 C18.064 -0.067 26.017 -0.04 33.972 0.041 C42.156 0.123 50.334 0.087 58.518 -0.012 C65.567 -0.093 72.614 -0.108 79.663 -0.068 C83.863 -0.045 88.061 -0.044 92.261 -0.104 C117.642 -0.425 117.642 -0.425 123.904 3.859 C127.663 7.761 129.838 12.076 131.664 17.134 C132.808 20.102 134.507 22.622 136.281 25.249 C137.423 27.08 138.564 28.912 139.703 30.745 C140.983 32.798 142.263 34.851 143.543 36.905 C144.186 37.937 144.829 38.97 145.492 40.034 C148.744 45.254 152.005 50.468 155.266 55.682 C158.715 61.201 158.715 61.201 160.373 63.918 C161.849 66.234 163.339 68.416 164.963 70.619 C172.37 80.989 173.887 89.022 173.652 101.572 C173.656 103.354 173.664 105.137 173.676 106.92 C173.696 111.714 173.654 116.507 173.599 121.301 C173.551 126.352 173.557 131.404 173.556 136.455 C173.547 144.938 173.5 153.421 173.427 161.904 C173.344 171.661 173.309 181.416 173.302 191.173 C173.295 201.628 173.257 212.082 173.208 222.536 C173.195 225.518 173.188 228.499 173.182 231.481 C173.17 236.199 173.137 240.917 173.089 245.635 C173.074 247.349 173.066 249.062 173.065 250.776 C173.038 274.896 168.107 298.64 151.137 316.784 C141.618 325.291 131.173 329.182 118.453 329.182 C118.453 334.132 118.453 339.082 118.453 344.182 C110.863 344.182 103.273 344.182 95.453 344.182 C95.453 339.232 95.453 334.282 95.453 329.182 C89.843 329.182 84.233 329.182 78.453 329.182 C78.453 337.102 78.453 345.022 78.453 353.182 C71.193 353.182 63.933 353.182 56.453 353.182 C58.061 369.928 60.737 383.611 73.828 395.495 C75.014 396.42 76.224 397.315 77.453 398.182 C78.157 398.682 78.861 399.182 79.586 399.698 C97.674 411.518 120.381 413.427 141.137 409.217 C155.723 405.926 169.786 398.75 178.453 386.182 C184.452 375.906 186.569 366.965 187.453 355.182 C194.383 355.182 201.313 355.182 208.453 355.182 C209.371 373.548 203.632 390.822 191.598 404.881 C176.315 421.278 155.993 430.713 133.625 432.486 C129.791 432.617 125.976 432.65 122.141 432.62 C121.468 432.616 120.795 432.613 120.102 432.609 C99.049 432.457 79.098 427.719 62.453 414.182 C61.601 413.492 60.749 412.803 59.871 412.092 C46.024 400.28 37.051 383.399 35.453 365.182 C35.453 361.222 35.453 357.262 35.453 353.182 C27.533 353.182 19.613 353.182 11.453 353.182 C11.453 345.262 11.453 337.342 11.453 329.182 C6.173 329.182 0.893 329.182 -4.547 329.182 C-4.547 334.132 -4.547 339.082 -4.547 344.182 C-12.467 344.182 -20.387 344.182 -28.547 344.182 C-28.547 339.232 -28.547 334.282 -28.547 329.182 C-30.279 329.12 -32.012 329.058 -33.797 328.995 C-46.918 327.866 -57.227 321.489 -65.672 311.62 C-80.503 292.09 -82.795 268.981 -82.964 245.365 C-82.983 243.632 -83.003 241.898 -83.024 240.165 C-83.086 234.532 -83.127 228.898 -83.164 223.264 C-83.171 222.3 -83.177 221.335 -83.184 220.341 C-83.246 211.218 -83.299 202.094 -83.333 192.97 C-83.377 181.379 -83.461 169.789 -83.6 158.198 C-83.695 150.003 -83.743 141.807 -83.757 133.611 C-83.767 128.736 -83.796 123.863 -83.877 118.988 C-84.477 80.751 -84.477 80.751 -71.952 65.882 C-69.983 63.5 -68.422 60.91 -66.84 58.26 C-65.807 56.649 -64.772 55.04 -63.734 53.432 C-57.524 43.738 -51.405 33.99 -45.312 24.221 C-44.719 23.337 -44.126 22.454 -43.515 21.543 C-41.975 18.913 -41.099 16.989 -40.189 14.168 C-33.686 -3.1 -15.535 -0.182 0 0 Z M0.141 26.37 C-2.028 29.983 -2.14 32.029 -1.547 36.182 C0.249 38.935 1.506 40.708 4.453 42.182 C7.015 42.301 9.55 42.36 12.112 42.375 C12.508 42.379 12.508 42.379 14.508 42.4 C17.13 42.425 19.752 42.441 22.375 42.456 C22.823 42.458 22.823 42.458 25.088 42.472 C29.828 42.498 34.568 42.518 39.309 42.532 C44.203 42.549 49.096 42.594 53.99 42.645 C57.754 42.678 61.518 42.69 65.283 42.695 C67.087 42.702 68.89 42.717 70.694 42.741 C73.222 42.773 75.748 42.773 78.276 42.766 C79.018 42.782 79.76 42.798 80.525 42.815 C86.263 42.747 88.59 41.13 92.453 37.182 C93.991 33.745 93.464 32.223 92.453 28.557 C90.081 24.554 87.76 23.442 83.453 22.182 C79.76 21.808 79.76 21.808 75.761 21.81 C75.027 21.806 74.293 21.803 73.536 21.799 C71.131 21.791 68.726 21.804 66.32 21.819 C64.638 21.819 62.956 21.819 61.274 21.817 C57.759 21.817 54.244 21.828 50.729 21.846 C46.229 21.869 41.729 21.869 37.229 21.862 C33.759 21.859 30.29 21.866 26.821 21.876 C25.161 21.879 23.502 21.881 21.843 21.879 C19.524 21.879 17.205 21.891 14.886 21.907 C14.227 21.91 14.227 21.91 10.893 21.921 C6.244 22.274 3.527 23.167 0.141 26.37 Z " fill="#AF2624" transform="translate(191.54684329032898,45.81786036491394)"/>
<path d="M0 0 C3.37 0.029 6.739 0.008 10.109 -0.015 C18.064 -0.067 26.017 -0.04 33.972 0.041 C42.156 0.123 50.334 0.087 58.518 -0.012 C65.567 -0.093 72.614 -0.108 79.663 -0.068 C83.863 -0.045 88.061 -0.044 92.261 -0.104 C117.642 -0.425 117.642 -0.425 123.904 3.859 C127.663 7.761 129.838 12.076 131.664 17.134 C132.808 20.102 134.507 22.622 136.281 25.249 C137.423 27.08 138.564 28.912 139.703 30.745 C140.983 32.798 142.263 34.851 143.543 36.905 C144.186 37.937 144.829 38.97 145.492 40.034 C148.744 45.254 152.005 50.468 155.266 55.682 C158.715 61.201 158.715 61.201 160.373 63.918 C161.849 66.234 163.339 68.416 164.963 70.619 C172.37 80.989 173.887 89.022 173.652 101.572 C173.656 103.354 173.664 105.137 173.676 106.92 C173.696 111.714 173.654 116.507 173.599 121.301 C173.551 126.352 173.557 131.404 173.556 136.455 C173.547 144.938 173.5 153.421 173.427 161.904 C173.344 171.661 173.309 181.416 173.302 191.173 C173.295 201.628 173.257 212.082 173.208 222.536 C173.195 225.518 173.188 228.499 173.182 231.481 C173.17 236.199 173.137 240.917 173.089 245.635 C173.074 247.349 173.066 249.062 173.065 250.776 C173.038 274.896 168.107 298.64 151.137 316.784 C141.618 325.291 131.173 329.182 118.453 329.182 C118.453 334.132 118.453 339.082 118.453 344.182 C110.863 344.182 103.273 344.182 95.453 344.182 C95.453 339.232 95.453 334.282 95.453 329.182 C89.843 329.182 84.233 329.182 78.453 329.182 C78.453 337.102 78.453 345.022 78.453 353.182 C76.648 353.192 76.648 353.192 67.516 353.245 C66.376 353.254 65.237 353.263 64.063 353.272 C63.172 353.275 62.281 353.277 61.363 353.28 C60.905 353.282 60.905 353.282 58.586 353.296 C56.453 353.182 56.453 353.182 55.453 352.182 C55.14 347.877 55.174 343.559 55.141 339.245 C55.112 338.045 55.083 336.846 55.053 335.61 C54.992 326.981 55.836 319.591 61.453 312.745 C62.113 312.229 62.773 311.713 63.453 311.182 C63.783 310.914 63.783 310.914 65.453 309.557 C69.28 306.926 71.961 305.933 76.646 305.927 C77.681 305.92 78.715 305.913 79.782 305.906 C80.339 305.906 80.339 305.906 83.156 305.909 C85.522 305.888 87.888 305.868 90.254 305.846 C93.978 305.824 97.701 305.807 101.425 305.801 C105.023 305.792 108.621 305.758 112.219 305.721 C113.324 305.726 114.43 305.731 115.569 305.736 C123.625 305.634 129.007 304.147 135.141 298.87 C148.625 283.198 149.857 263.749 150.064 243.838 C150.091 242.191 150.119 240.545 150.148 238.898 C150.235 233.564 150.292 228.231 150.344 222.897 C150.348 222.439 150.348 222.439 150.372 220.123 C150.458 211.453 150.534 202.783 150.58 194.112 C150.64 183.126 150.757 172.144 150.954 161.159 C151.088 153.375 151.155 145.592 151.175 137.807 C151.188 133.184 151.229 128.565 151.342 123.944 C152.255 84.688 152.255 84.688 138.59 69.589 C127.153 59.851 110.246 61.597 96.121 61.857 C91.339 61.925 86.559 61.868 81.778 61.832 C73.752 61.791 65.733 61.854 57.709 61.978 C48.469 62.119 39.242 62.083 30.002 61.956 C21.062 61.838 12.128 61.856 3.189 61.932 C-0.593 61.961 -4.369 61.941 -8.151 61.88 C-38.04 61.476 -38.04 61.476 -47.455 69.287 C-61.677 84.876 -59.692 107.978 -59.268 127.601 C-59.178 132.547 -59.178 137.493 -59.168 142.439 C-59.138 150.725 -59.049 159.008 -58.919 167.293 C-58.735 178.951 -58.661 190.609 -58.608 202.269 C-58.561 211.372 -58.483 220.474 -58.402 229.577 C-58.394 230.545 -58.386 231.513 -58.378 232.51 C-58.33 238.082 -58.267 243.653 -58.179 249.225 C-58.154 250.905 -58.134 252.586 -58.12 254.266 C-58.037 263.285 -57.557 271.575 -54.547 280.182 C-54.182 281.298 -53.817 282.415 -53.441 283.565 C-49.822 292.738 -45.085 299.905 -36.006 304.331 C-31.203 305.994 -26.263 305.681 -21.234 305.616 C-18.836 305.625 -16.437 305.635 -14.039 305.645 C-10.287 305.636 -6.534 305.62 -2.782 305.597 C0.859 305.583 4.499 305.598 8.141 305.616 C8.698 305.607 8.698 305.607 11.519 305.566 C19.324 305.616 24.251 307.192 29.936 312.59 C37.145 320.544 36.869 328.327 36.703 338.557 C36.698 339.853 36.693 341.148 36.688 342.483 C36.607 352.028 36.607 352.028 35.453 353.182 C33.672 353.269 31.888 353.289 30.106 353.28 C29.133 353.277 28.161 353.275 27.16 353.272 C25.916 353.263 24.672 353.254 23.391 353.245 C19.451 353.224 15.512 353.203 11.453 353.182 C11.453 345.262 11.453 337.342 11.453 329.182 C6.173 329.182 0.893 329.182 -4.547 329.182 C-4.547 334.132 -4.547 339.082 -4.547 344.182 C-12.467 344.182 -20.387 344.182 -28.547 344.182 C-28.547 339.232 -28.547 334.282 -28.547 329.182 C-30.279 329.12 -32.012 329.058 -33.797 328.995 C-46.918 327.866 -57.227 321.489 -65.672 311.62 C-80.503 292.09 -82.795 268.981 -82.964 245.365 C-82.983 243.632 -83.003 241.898 -83.024 240.165 C-83.086 234.532 -83.127 228.898 -83.164 223.264 C-83.171 222.3 -83.177 221.335 -83.184 220.341 C-83.246 211.218 -83.299 202.094 -83.333 192.97 C-83.377 181.379 -83.461 169.789 -83.6 158.198 C-83.695 150.003 -83.743 141.807 -83.757 133.611 C-83.767 128.736 -83.796 123.863 -83.877 118.988 C-84.477 80.751 -84.477 80.751 -71.952 65.882 C-69.983 63.5 -68.422 60.91 -66.84 58.26 C-65.807 56.649 -64.772 55.04 -63.734 53.432 C-57.524 43.738 -51.405 33.99 -45.312 24.221 C-44.719 23.337 -44.126 22.454 -43.515 21.543 C-41.975 18.913 -41.099 16.989 -40.189 14.168 C-33.686 -3.1 -15.535 -0.182 0 0 Z M0.141 26.37 C-2.028 29.983 -2.14 32.029 -1.547 36.182 C0.249 38.935 1.506 40.708 4.453 42.182 C7.015 42.301 9.55 42.36 12.112 42.375 C12.508 42.379 12.508 42.379 14.508 42.4 C17.13 42.425 19.752 42.441 22.375 42.456 C22.823 42.458 22.823 42.458 25.088 42.472 C29.828 42.498 34.568 42.518 39.309 42.532 C44.203 42.549 49.096 42.594 53.99 42.645 C57.754 42.678 61.518 42.69 65.283 42.695 C67.087 42.702 68.89 42.717 70.694 42.741 C73.222 42.773 75.748 42.773 78.276 42.766 C79.018 42.782 79.76 42.798 80.525 42.815 C86.263 42.747 88.59 41.13 92.453 37.182 C93.991 33.745 93.464 32.223 92.453 28.557 C90.081 24.554 87.76 23.442 83.453 22.182 C79.76 21.808 79.76 21.808 75.761 21.81 C75.027 21.806 74.293 21.803 73.536 21.799 C71.131 21.791 68.726 21.804 66.32 21.819 C64.638 21.819 62.956 21.819 61.274 21.817 C57.759 21.817 54.244 21.828 50.729 21.846 C46.229 21.869 41.729 21.869 37.229 21.862 C33.759 21.859 30.29 21.866 26.821 21.876 C25.161 21.879 23.502 21.881 21.843 21.879 C19.524 21.879 17.205 21.891 14.886 21.907 C14.227 21.91 14.227 21.91 10.893 21.921 C6.244 22.274 3.527 23.167 0.141 26.37 Z " fill="#DDDDDD" transform="translate(191.54684329032898,45.81786036491394)"/>
<path d="M0 0 C1.107 -0.007 2.215 -0.014 3.356 -0.021 C4.567 -0.019 5.777 -0.017 7.024 -0.014 C8.303 -0.019 9.581 -0.024 10.898 -0.029 C14.402 -0.043 17.907 -0.043 21.411 -0.041 C24.338 -0.04 27.265 -0.045 30.193 -0.049 C37.101 -0.061 44.009 -0.061 50.917 -0.055 C58.038 -0.049 65.158 -0.061 72.279 -0.083 C78.398 -0.1 84.516 -0.106 90.634 -0.103 C94.286 -0.101 97.938 -0.104 101.59 -0.118 C105.665 -0.133 109.739 -0.123 113.813 -0.112 C114.416 -0.115 114.416 -0.115 117.469 -0.135 C128.099 -0.068 128.099 -0.068 132.548 3.261 C135.934 7.265 135.983 11.224 135.952 16.26 C135.959 17.051 135.966 17.842 135.973 18.657 C135.991 21.263 135.987 23.869 135.982 26.476 C135.986 28.292 135.992 30.109 135.998 31.926 C136.007 35.732 136.004 39.537 135.994 43.342 C135.983 48.213 136.003 53.082 136.032 57.953 C136.05 61.704 136.05 65.456 136.044 69.207 C136.044 71.003 136.05 72.798 136.063 74.593 C136.078 77.106 136.067 79.618 136.05 82.132 C136.055 82.5 136.055 82.5 136.079 84.366 C136.007 89.457 134.769 92.351 131.548 96.261 C128.169 98.514 127.017 98.516 123.058 98.535 C121.917 98.545 120.775 98.555 119.6 98.565 C118.347 98.566 117.094 98.566 115.803 98.567 C114.484 98.575 113.165 98.584 111.806 98.592 C108.186 98.614 104.566 98.623 100.946 98.628 C98.685 98.632 96.423 98.638 94.161 98.645 C86.271 98.67 78.381 98.683 70.491 98.686 C63.136 98.69 55.782 98.72 48.428 98.762 C42.114 98.796 35.799 98.812 29.485 98.812 C25.714 98.813 21.943 98.822 18.172 98.85 C14.624 98.877 11.077 98.879 7.529 98.863 C5.609 98.86 3.688 98.882 1.768 98.905 C-7.624 98.825 -7.624 98.825 -10.702 95.911 C-13.65 91.446 -13.611 87.552 -13.629 82.38 C-13.635 81.578 -13.642 80.776 -13.649 79.95 C-13.669 77.296 -13.68 74.642 -13.69 71.987 C-13.694 71.081 -13.698 70.174 -13.703 69.24 C-13.723 64.442 -13.738 59.645 -13.747 54.848 C-13.758 49.892 -13.793 44.937 -13.832 39.981 C-13.858 36.171 -13.867 32.36 -13.87 28.549 C-13.875 26.723 -13.887 24.896 -13.905 23.069 C-13.93 20.512 -13.929 17.957 -13.922 15.4 C-13.935 14.646 -13.947 13.893 -13.961 13.117 C-13.925 9.548 -13.562 7.439 -11.673 4.377 C-7.926 0.806 -5.142 0.011 0 0 Z " fill="#DDDCDC" transform="translate(175.45187377929688,193.7393035888672)"/>
<path d="M0 0 C0.706 -0.009 1.411 -0.017 2.139 -0.026 C4.521 -0.054 6.904 -0.074 9.287 -0.094 C10.989 -0.112 12.69 -0.13 14.391 -0.148 C29.946 -0.307 45.501 -0.391 61.056 -0.458 C72.557 -0.508 84.056 -0.594 95.557 -0.726 C103.639 -0.816 111.721 -0.864 119.804 -0.881 C124.633 -0.893 129.46 -0.923 134.288 -0.999 C138.836 -1.07 143.38 -1.089 147.927 -1.068 C149.593 -1.07 151.259 -1.09 152.924 -1.13 C165.348 -1.418 165.348 -1.418 169.792 2.201 C171.937 5.077 173.589 8.057 175.328 11.194 C176.193 12.36 177.078 13.51 177.98 14.648 C185.404 24.211 186.747 31.697 186.463 43.594 C186.46 45.281 186.462 46.968 186.468 48.655 C186.47 53.186 186.412 57.715 186.342 62.245 C186.279 66.997 186.273 71.75 186.262 76.503 C186.231 85.481 186.149 94.457 186.048 103.435 C185.936 113.665 185.881 123.894 185.831 134.125 C185.727 155.149 185.551 176.171 185.328 197.194 C184.998 197.194 184.668 197.194 184.328 197.194 C184.328 150.994 184.328 104.794 184.328 57.194 C181.358 56.864 178.388 56.534 175.328 56.194 C172.273 54.784 172.273 54.784 169.453 53.132 C163.708 50.32 158.956 49.622 152.578 49.632 C151.798 49.63 151.018 49.628 150.215 49.626 C142.938 49.83 136.651 51.824 130.328 55.382 C122.134 59.105 110.869 58.5 102.515 55.444 C100.78 54.709 99.051 53.959 97.328 53.194 C85.996 48.751 77.402 47.533 65.914 52.038 C63.328 53.194 63.328 53.194 61.304 54.351 C53.564 58.634 43.901 58.618 35.328 57.194 C32.568 56.265 30.036 55.03 27.453 53.694 C17.681 48.732 6.414 47.884 -4.184 50.912 C-7.981 52.269 -11.59 53.881 -15.203 55.663 C-18.546 57.138 -20.143 57.342 -23.672 57.194 C-25.778 35.988 -24.802 22.644 -11.27 5.417 C-7.193 0.534 -6.534 0.069 0 0 Z " fill="#F34747" transform="translate(156.67213439941406,109.80572509765625)"/>
<path d="M0 0 C2.777 3.497 4.997 7.281 7.25 11.125 C9.949 15.69 12.711 20.13 15.812 24.438 C20.422 30.944 23.825 36.187 23.445 44.414 C22.195 51.677 18.501 57.254 12.844 61.844 C6.873 65.588 0.874 65.958 -6 65 C-12.472 62.568 -16.777 58.926 -20.16 52.93 C-22.855 46.738 -23.364 39.507 -20.906 33.188 C-18.015 27.774 -14.532 22.806 -10.945 17.836 C-6.998 12.082 -3.535 6.013 0 0 Z " fill="#DC3B35" transform="translate(236,211)"/>
</svg>
