<?xml version="1.0" encoding="UTF-8"?>
<!-- Generator: visioncortex VTracer 0.6.12 -->
<svg version="1.1" xmlns="http://www.w3.org/2000/svg" width="512" height="512">
<path d="M0 0 C3.424 1.141 3.634 1.577 5.355 4.559 C5.58 4.941 5.58 4.941 6.716 6.875 C7.201 7.721 7.687 8.566 8.188 9.438 C9.269 11.281 10.353 13.123 11.438 14.965 C12.015 15.948 12.592 16.932 13.188 17.945 C16.288 23.171 19.491 28.333 22.688 33.5 C28.537 42.978 34.347 52.478 40.125 62 C40.479 62.583 40.832 63.165 41.197 63.766 C45.485 70.832 49.756 77.908 54 85 C57.644 83.785 58.309 82.549 60.562 79.5 C73.99 62.362 93.669 51.672 115 48 C119.614 47.592 124.182 47.521 128.812 47.562 C130.039 47.572 131.266 47.581 132.53 47.59 C148.508 47.894 161.171 52.155 175 60 C175.852 60.483 176.704 60.967 177.582 61.465 C197.608 73.913 210.364 94.422 216 117 C221.223 139.687 216.222 162.219 205 182 C204.517 182.852 204.033 183.704 203.535 184.582 C191.157 204.494 170.551 217.562 148 223 C127.75 226.788 106.278 224.632 88 215 C87.938 216.031 87.876 217.062 87.812 218.125 C85.115 238.831 71.059 258.448 55 271 C33.234 286.259 9.319 291.279 -16.895 287.379 C-27.056 285.464 -36.082 281.108 -45 276 C-45.851 275.517 -46.702 275.033 -47.578 274.535 C-68.412 261.608 -80.979 240.219 -86.528 216.767 C-95.227 165.731 -72.356 117.075 -46.213 75.174 C-42.615 69.398 -39.086 63.581 -35.564 57.758 C-23.859 38.413 -12.03 19.144 0 0 Z " fill="#DF4945" transform="translate(279,16)"/>
<path d="M0 0 C7.376 4.3 11.252 10.932 13.5 19 C13.214 23.692 11.267 25.693 7.938 28.875 C7.111 29.677 6.285 30.479 5.434 31.305 C3.195 33.361 0.938 35.373 -1.355 37.367 C-5.414 40.899 -9.341 44.554 -13.25 48.25 C-18.988 53.652 -24.759 59.013 -30.578 64.328 C-33.706 67.189 -36.823 70.061 -39.938 72.938 C-40.477 73.435 -41.017 73.933 -41.573 74.446 C-44.32 76.98 -47.06 79.521 -49.789 82.074 C-73.409 104.132 -96.164 118.464 -129.426 118.469 C-130.826 118.476 -132.225 118.484 -133.625 118.492 C-136.544 118.505 -139.462 118.507 -142.381 118.501 C-145.316 118.496 -148.25 118.51 -151.185 118.542 C-168.889 118.733 -185.411 117.796 -202.73 113.624 C-232.661 106.877 -261.321 112.662 -288.5 126 C-287.126 130.338 -285.46 134.179 -283.305 138.168 C-282.5 140 -282.5 140 -282.5 143 C-290.528 147.049 -298.56 151.091 -306.596 155.126 C-310.327 156.999 -314.057 158.875 -317.784 160.755 C-321.38 162.57 -324.979 164.378 -328.58 166.182 C-329.955 166.872 -331.328 167.565 -332.701 168.259 C-334.62 169.23 -336.544 170.193 -338.468 171.154 C-339.563 171.705 -340.658 172.256 -341.785 172.823 C-344.5 174 -344.5 174 -347.5 174 C-365.98 137.04 -384.46 100.08 -403.5 62 C-400.161 59.496 -397.239 57.748 -393.538 55.906 C-392.952 55.612 -392.366 55.319 -391.763 55.018 C-389.839 54.056 -387.912 53.1 -385.984 52.145 C-384.645 51.477 -383.305 50.808 -381.966 50.14 C-378.45 48.385 -374.931 46.636 -371.412 44.887 C-367.817 43.1 -364.225 41.309 -360.633 39.518 C-353.591 36.007 -346.546 32.502 -339.5 29 C-336.569 31.759 -335.071 34.553 -333.312 38.188 C-332.783 39.274 -332.253 40.361 -331.707 41.48 C-331.309 42.312 -330.91 43.143 -330.5 44 C-317.228 39.897 -305.893 31.431 -294.584 23.613 C-277.824 12.059 -262.383 5.423 -241.671 5.554 C-239.633 5.562 -237.597 5.534 -235.559 5.502 C-223.046 5.434 -211.62 8.043 -200.312 13.562 C-186.099 20.095 -172.232 21.118 -156.746 21.176 C-154.321 21.199 -151.896 21.223 -149.471 21.248 C-145.697 21.283 -141.923 21.313 -138.149 21.326 C-134.472 21.341 -130.797 21.382 -127.121 21.426 C-126.563 21.425 -126.563 21.425 -123.736 21.42 C-114.27 21.567 -106.048 23.679 -99.027 30.32 C-93.177 36.754 -91.227 43.574 -89.5 52 C-89.167 51.691 -89.167 51.691 -87.48 50.129 C-81.856 44.96 -76.131 40.015 -70.184 35.215 C-67.553 33.044 -65.021 30.798 -62.5 28.5 C-58.208 24.594 -53.79 20.888 -49.266 17.254 C-47.454 15.777 -45.671 14.265 -43.922 12.715 C-31.615 1.974 -16.476 -7.156 0 0 Z " fill="#FAE1CA" transform="translate(418.5,322)"/>
<path d="M0 0 C1.227 0.009 2.454 0.018 3.718 0.027 C19.695 0.332 32.359 4.592 46.188 12.438 C47.04 12.921 47.892 13.404 48.77 13.902 C68.795 26.351 81.551 46.86 87.188 69.438 C92.41 92.124 87.41 114.657 76.188 134.438 C75.704 135.29 75.221 136.142 74.723 137.02 C62.345 156.932 41.739 169.999 19.188 175.438 C-1.062 179.225 -22.535 177.07 -40.812 167.438 C-40.812 166.778 -40.812 166.118 -40.812 165.438 C-41.54 165.172 -42.267 164.906 -43.016 164.633 C-61.782 156.613 -74.133 138.588 -81.812 120.438 C-90.039 98.639 -89.982 75.895 -81.145 54.348 C-79.58 50.93 -77.858 47.661 -75.926 44.438 C-74.812 42.438 -74.812 42.438 -73.918 40.016 C-66.567 22.871 -46.859 11.817 -30.688 4.762 C-20.634 1.064 -10.653 -0.094 0 0 Z " fill="#F1F1F2" transform="translate(407.8125,63.5625)"/>
<path d="M0 0 C3.582 1.194 3.859 1.955 5.707 5.121 C5.959 5.548 5.959 5.548 7.236 7.709 C7.756 8.609 8.277 9.51 8.812 10.438 C9.321 11.303 9.83 12.169 10.354 13.061 C11.384 14.815 12.407 16.575 13.42 18.339 C14.495 20.15 15.623 21.93 16.794 23.68 C17.361 24.54 17.928 25.399 18.512 26.285 C19.036 27.048 19.56 27.812 20.1 28.598 C21.389 32.038 20.469 33.698 19 37 C17.989 38.854 16.917 40.675 15.797 42.465 C15.153 43.5 14.51 44.536 13.847 45.603 C13.155 46.703 12.463 47.804 11.75 48.938 C11.027 50.098 10.305 51.259 9.583 52.42 C8.107 54.796 6.628 57.17 5.148 59.543 C0.245 67.419 -4.548 75.363 -9.355 83.298 C-10.965 85.943 -12.592 88.578 -14.223 91.211 C-28.911 115.057 -39.431 140.238 -44 168 C-44.116 168.685 -44.231 169.37 -44.351 170.076 C-47.199 187.676 -47.94 206.76 -43 224 C-42.671 225.152 -42.343 226.305 -42.004 227.492 C-34.422 251.052 -18.59 267.33 2.938 278.875 C9.802 282.203 16.48 283.8 24 285 C11.929 291.964 -10.093 289.352 -23.132 285.981 C-30.881 283.688 -38.012 280.003 -45 276 C-45.851 275.517 -46.702 275.033 -47.578 274.535 C-68.412 261.608 -80.979 240.219 -86.528 216.767 C-95.227 165.731 -72.356 117.075 -46.213 75.174 C-42.615 69.398 -39.086 63.581 -35.564 57.758 C-23.859 38.413 -12.03 19.144 0 0 Z " fill="#D23E33" transform="translate(279,16)"/>
<path d="M0 0 C3.234 3.013 4.883 6.486 6.754 10.434 C7.123 11.198 7.492 11.963 7.872 12.751 C8.681 14.426 9.486 16.102 10.289 17.78 C12.497 22.388 14.727 26.985 16.957 31.582 C17.434 32.566 17.911 33.55 18.402 34.564 C23.866 45.819 29.444 57.015 35.04 68.205 C36.169 70.463 37.297 72.721 38.424 74.98 C44.011 86.176 49.603 97.344 55.681 108.283 C57 111 57 111 57 114 C48.972 118.049 40.94 122.091 32.904 126.126 C29.173 127.999 25.443 129.875 21.716 131.755 C18.12 133.57 14.521 135.378 10.92 137.182 C9.545 137.872 8.172 138.565 6.799 139.259 C4.88 140.23 2.956 141.193 1.032 142.154 C-0.063 142.705 -1.158 143.256 -2.285 143.823 C-5 145 -5 145 -8 145 C-26.48 108.04 -44.96 71.08 -64 33 C-60.661 30.496 -57.739 28.748 -54.038 26.906 C-53.452 26.612 -52.866 26.319 -52.263 26.018 C-50.339 25.056 -48.412 24.1 -46.484 23.145 C-45.145 22.477 -43.805 21.808 -42.466 21.14 C-38.95 19.385 -35.431 17.636 -31.912 15.887 C-28.317 14.1 -24.725 12.309 -21.133 10.518 C-14.091 7.007 -7.046 3.502 0 0 Z " fill="#4FB5DC" transform="translate(79,351)"/>
<path d="M0 0 C10.56 0 21.12 0 32 0 C32 10.56 32 21.12 32 32 C42.56 32 53.12 32 64 32 C64 42.56 64 53.12 64 64 C53.44 64 42.88 64 32 64 C32 74.56 32 85.12 32 96 C21.44 96 10.88 96 0 96 C0 85.44 0 74.88 0 64 C-10.56 64 -21.12 64 -32 64 C-32 53.44 -32 42.88 -32 32 C-21.44 32 -10.88 32 0 32 C0 21.44 0 10.88 0 0 Z " fill="#D23F34" transform="translate(392,104)"/>
<path d="M0 0 C0.66 0.33 1.32 0.66 2 1 C1.727 1.274 1.727 1.274 0.348 2.66 C-16.19 20.045 -24.579 42.014 -24.419 65.968 C-23.771 89.24 -14.534 110.167 1.5 126.938 C14.322 139.024 29.914 146.316 47 150 C47.381 150.096 47.381 150.096 49.309 150.582 C63.515 152.788 79.375 151.498 92.75 146.25 C96 145 96 145 99 146 C77.166 163.865 54.006 169.601 26 168 C16.082 166.836 6.83 163.653 -2 159 C-2 158.34 -2 157.68 -2 157 C-2.727 156.734 -3.454 156.469 -4.203 156.195 C-22.969 148.175 -35.321 130.15 -43 112 C-51.226 90.202 -51.17 67.457 -42.332 45.91 C-40.768 42.492 -39.046 39.223 -37.113 36 C-36 34 -36 34 -35.105 31.578 C-29.033 17.416 -13.38 6.69 0 0 Z " fill="#E2E6F5" transform="translate(369,72)"/>
<path d="M0 0 C0.66 0 1.32 0 2 0 C5.466 6.792 8.918 13.59 12.354 20.397 C13.95 23.559 15.551 26.718 17.163 29.873 C19.023 33.515 20.863 37.167 22.703 40.82 C23.273 41.929 23.843 43.038 24.43 44.181 C29.832 54.979 33.783 66.06 33.5 78.25 C33.488 79.106 33.476 79.961 33.463 80.843 C33.18 89.839 30.921 96.811 24.703 103.469 C16.48 110.862 7.766 112.582 -3.012 112.312 C-11.397 111.838 -18.403 108.225 -24 102 C-29.592 94.564 -31.361 87.698 -31.375 78.5 C-31.387 78.095 -31.387 78.095 -31.449 76.047 C-31.508 63.343 -26.408 51.921 -20.703 40.82 C-20.406 40.231 -20.406 40.231 -18.904 37.248 C-17.35 34.162 -15.781 31.083 -14.209 28.006 C-12.598 24.846 -11.001 21.679 -9.402 18.512 C-6.282 12.334 -3.146 6.165 0 0 Z " fill="#B52F27" transform="translate(135,192)"/>
<path d="M0 0 C2.188 2.026 3.602 3.849 4.891 6.533 C5.062 6.886 5.062 6.886 5.929 8.671 C6.294 9.439 6.659 10.206 7.035 10.996 C7.427 11.805 7.818 12.615 8.221 13.448 C9.066 15.197 9.909 16.947 10.748 18.698 C12.972 23.333 15.215 27.959 17.457 32.586 C17.914 33.531 18.372 34.476 18.843 35.45 C23.564 45.195 28.395 54.884 33.25 64.562 C33.645 65.351 34.041 66.14 34.448 66.952 C36.629 71.303 38.813 75.652 41 80 C35.467 85.889 26.401 90.173 18.488 91.66 C12.358 91.837 8.798 91.055 4 87 C2.007 84.159 0.522 81.113 -1 78 C-1.479 77.048 -1.958 76.097 -2.452 75.116 C-3.599 72.833 -4.738 70.548 -5.873 68.259 C-7.947 64.088 -10.069 59.941 -12.192 55.794 C-14.229 51.811 -16.255 47.821 -18.279 43.831 C-19.302 41.818 -20.328 39.807 -21.357 37.798 C-22.819 34.94 -24.265 32.075 -25.707 29.207 C-26.155 28.338 -26.604 27.469 -27.066 26.574 C-27.468 25.767 -27.87 24.96 -28.284 24.128 C-28.641 23.425 -28.998 22.721 -29.366 21.997 C-30.134 19.578 -29.873 18.355 -29 16 C-26.641 12.916 -23.453 11.555 -20.02 9.863 C-18.856 9.286 -17.693 8.71 -16.494 8.115 C-15.267 7.514 -14.04 6.913 -12.812 6.312 C-11.573 5.7 -10.334 5.088 -9.096 4.475 C-6.066 2.978 -3.034 1.486 0 0 Z " fill="#5DD2F1" transform="translate(79,351)"/>
<path d="M0 0 C14.173 17.824 22.363 41.356 20 64 C17.941 73.637 12.08 79.98 4.027 85.25 C1.267 86.271 -0.216 85.901 -3 85 C-10.935 80.19 -16.819 73.727 -19.496 64.777 C-21.316 54.748 -20.518 44.549 -17 35 C-16.694 34.153 -16.389 33.306 -16.074 32.434 C-5.563 5.563 -5.563 5.563 0 0 Z " fill="#D13E33" transform="translate(148,216)"/>
<path d="M0 0 C26.4 0 52.8 0 80 0 C80 5.28 80 10.56 80 16 C53.6 16 27.2 16 0 16 C0 10.72 0 5.44 0 0 Z " fill="#F2B9A1" transform="translate(248,368)"/>
<path d="M0 0 C5.28 0 10.56 0 16 0 C15.481 11.772 11.85 21.245 3.594 29.805 C-4.234 36.43 -13.803 40 -24 40 C-24 34.72 -24 29.44 -24 24 C-22.02 23.526 -20.04 23.051 -18 22.562 C-10.96 20.413 -6.961 17.164 -3 11 C-1.182 7.172 -0.728 4.368 0 0 Z " fill="#B52F28" transform="translate(328,232)"/>
</svg>
