<?xml version="1.0" encoding="UTF-8"?>
<!-- Generator: visioncortex VTracer 0.6.12 -->
<svg version="1.1" xmlns="http://www.w3.org/2000/svg" width="512" height="512">
<path d="M0 0 C7.022 4.028 10.713 11.446 14.688 18.188 C15.391 19.359 16.096 20.53 16.802 21.699 C18.214 24.04 19.622 26.383 21.027 28.729 C23.706 33.171 26.466 37.56 29.25 41.938 C29.72 42.679 30.191 43.421 30.676 44.186 C31.62 45.675 32.566 47.165 33.512 48.654 C36.265 52.994 39.007 57.341 41.75 61.688 C42.766 63.296 43.781 64.904 44.797 66.512 C45.531 67.674 46.266 68.837 47 70 C51.314 68.661 55.393 66.996 59.52 65.182 C84.756 54.146 111.815 49.796 138.126 59.809 C153.818 66.21 166.438 75.851 178.524 87.571 C179.887 88.891 181.267 90.192 182.648 91.492 C188.97 97.575 194.355 104.195 199.626 111.182 C200.944 112.926 202.278 114.656 203.613 116.387 C217.283 134.329 228.621 154.012 239 174 C239.15 174.288 239.15 174.288 239.91 175.747 C271.402 236.241 318.944 333.369 298.284 402.393 C289.52 429.608 272.429 451.881 246.969 465.345 C221.155 478.427 191.846 479.658 164.473 470.867 C135.88 460.6 111.652 438.429 89.496 418.261 C87.95 416.86 86.395 415.467 84.83 414.087 C77.999 408.045 71.528 401.682 65.094 395.225 C63.308 393.433 61.517 391.647 59.725 389.861 C53.934 384.074 48.306 378.239 43 372 C41.38 370.224 39.756 368.453 38.125 366.688 C33.204 361.285 28.572 355.698 24 350 C23.088 348.88 22.175 347.76 21.262 346.641 C-13.679 303.64 -52.462 250.203 -56 193 C-56.054 192.259 -56.108 191.518 -56.164 190.754 C-57.177 164.183 -45.218 141.643 -27.664 122.445 C-21.33 115.865 -14.332 110.401 -7 105 C-8.757 99.894 -11.587 95.466 -14.375 90.875 C-14.91 89.99 -15.444 89.104 -15.995 88.192 C-19.542 82.341 -23.154 76.532 -26.812 70.75 C-27.29 69.991 -27.768 69.231 -28.26 68.449 C-31.15 63.87 -34.097 59.336 -37.09 54.824 C-38.477 52.695 -39.863 50.567 -41.25 48.438 C-41.919 47.45 -42.588 46.463 -43.277 45.446 C-47.248 39.294 -49.571 34.378 -48 27 C-45.354 21.045 -40.586 18.413 -35.188 15.188 C-34.345 14.674 -33.502 14.161 -32.633 13.632 C-30.914 12.586 -29.192 11.544 -27.467 10.507 C-25.201 9.123 -22.979 7.689 -20.766 6.223 C-7.944 -2.158 -7.944 -2.158 0 0 Z " fill="#8592E0" transform="translate(101,18)"/>
<path d="M0 0 C3.935 3.4 7.685 6.974 11.372 10.641 C11.619 10.885 11.619 10.885 12.867 12.123 C27.14 26.478 38.867 43.398 49.372 60.641 C49.896 61.5 50.42 62.36 50.959 63.246 C84.885 119.363 109.419 180.887 123.81 244.828 C123.99 245.622 124.169 246.416 124.355 247.234 C124.867 249.507 125.369 251.782 125.868 254.059 C126.021 254.736 126.174 255.413 126.331 256.11 C128.417 265.804 128.417 265.804 126.263 269.59 C124.327 271.64 122.382 273.662 120.372 275.641 C119.942 276.071 119.942 276.071 117.763 278.246 C108.049 287.676 96.994 294.837 85.122 301.266 C84.49 301.609 83.858 301.952 83.207 302.305 C80.383 303.785 78.609 304.641 75.372 304.641 C76.278 291.996 76.278 291.996 76.935 287.578 C78.532 273.198 78.532 273.198 74.997 268.453 C70.144 265.102 66.195 264.744 60.372 265.641 C56.362 267.388 52.859 269.75 49.247 272.203 C47.137 273.58 45.026 274.956 42.915 276.332 C41.839 277.044 40.763 277.755 39.655 278.489 C34.349 281.967 28.952 285.297 23.56 288.641 C20.749 290.393 17.94 292.148 15.135 293.91 C13.197 295.124 11.253 296.329 9.305 297.527 C8.315 298.142 7.325 298.757 6.306 299.391 C5.41 299.942 4.515 300.494 3.593 301.062 C-0.74 304.142 -1.424 307.49 -2.315 312.516 C-2.367 313.031 -2.367 313.031 -2.628 315.641 C-25.92 313.813 -47.184 305.54 -67.628 294.641 C-68.22 294.33 -68.813 294.02 -69.423 293.701 C-82.639 286.735 -94.56 277.813 -105.479 267.637 C-107.438 265.817 -109.451 264.103 -111.503 262.391 C-141.017 236.492 -159.241 199.872 -171.128 163.141 C-171.256 162.749 -171.256 162.749 -171.902 160.768 C-173.096 156.951 -173.949 153.691 -173.628 149.641 C-169.43 153.287 -167.008 157.767 -164.253 162.516 C-158.769 171.808 -153.056 180.93 -147.226 190.008 C-144.736 193.886 -142.292 197.788 -139.874 201.711 C-139.257 202.704 -138.64 203.696 -138.004 204.719 C-136.83 206.61 -135.665 208.507 -134.509 210.41 C-130.453 216.905 -126.399 222.159 -119.128 225.016 C-107.715 227.054 -99.338 222.48 -90.003 216.328 C-88.342 215.257 -86.681 214.187 -85.019 213.117 C-84.147 212.553 -83.274 211.989 -82.376 211.407 C-77.531 208.293 -72.64 205.251 -67.753 202.203 C-67.247 201.887 -67.247 201.887 -64.685 200.287 C-57.204 195.615 -49.704 190.972 -42.199 186.337 C-36.591 182.869 -31.009 179.361 -25.44 175.828 C-17.878 171.031 -10.261 166.325 -2.628 161.641 C8.092 155.057 18.796 148.453 29.372 141.641 C30.443 140.954 31.514 140.266 32.618 139.559 C38.634 135.551 42.888 132.009 44.372 124.641 C44.681 122.012 44.681 122.012 44.81 119.078 C44.87 118.128 44.931 117.178 44.993 116.199 C43.369 106.891 36.419 98.333 31.435 90.453 C30.102 88.335 28.77 86.216 27.438 84.098 C26.763 83.026 26.088 81.954 25.392 80.85 C22.206 75.788 19.04 70.714 15.872 65.641 C14.633 63.657 13.393 61.674 12.153 59.691 C9.548 55.523 6.944 51.354 4.341 47.184 C3.676 46.119 3.012 45.055 2.327 43.959 C1.07 41.946 -0.186 39.933 -1.442 37.92 C-3.167 35.158 -4.898 32.399 -6.628 29.641 C-7.251 28.639 -7.875 27.636 -8.517 26.604 C-8.825 26.113 -8.825 26.113 -10.382 23.629 C-10.934 22.744 -11.487 21.859 -12.056 20.947 C-15.918 15.282 -21.04 12.294 -27.628 10.641 C-40.612 8.693 -53.545 20.252 -63.925 26.915 C-68.7 29.963 -73.509 32.956 -78.315 35.953 C-80.361 37.23 -82.407 38.508 -84.452 39.785 C-85.474 40.423 -86.495 41.06 -87.547 41.717 C-91.579 44.234 -95.609 46.753 -99.638 49.272 C-101.636 50.521 -103.633 51.769 -105.631 53.017 C-110.608 56.127 -115.584 59.239 -120.558 62.355 C-132.218 69.658 -143.906 76.911 -155.637 84.099 C-161.632 87.777 -167.573 91.517 -173.455 95.373 C-175.628 96.641 -175.628 96.641 -177.628 96.641 C-177.756 90.267 -177.353 84.249 -176.378 77.953 C-176.247 77.09 -176.117 76.228 -175.982 75.339 C-174.794 67.903 -172.965 60.805 -170.628 53.641 C-169.902 53.793 -169.176 53.945 -168.429 54.102 C-156.17 56.461 -148.715 52.03 -138.628 45.641 C-137.159 44.726 -135.691 43.812 -134.222 42.898 C-131.092 40.942 -127.978 38.963 -124.87 36.973 C-121.024 34.514 -117.15 32.105 -113.261 29.715 C-112.181 29.049 -111.1 28.382 -109.987 27.696 C-107.873 26.393 -105.756 25.096 -103.636 23.804 C-96.15 19.177 -90.277 15.472 -87.628 6.641 C-86.918 -0.564 -90.13 -5.289 -94.229 -10.977 C-94.46 -11.37 -94.46 -11.37 -95.628 -13.359 C-95.298 -14.349 -94.968 -15.339 -94.628 -16.359 C-92.211 -17.384 -89.946 -18.188 -87.44 -18.922 C-86.719 -19.138 -85.997 -19.354 -85.253 -19.577 C-54.036 -28.575 -24.618 -20.557 0 0 Z " fill="#C1C7F9" transform="translate(265.6279296875,103.359375)"/>
<path d="M0 0 C7.386 5.581 11.996 15.463 16.812 23.25 C18.135 25.378 19.458 27.505 20.781 29.633 C21.45 30.711 22.119 31.789 22.809 32.899 C25.966 37.981 29.14 43.053 32.312 48.125 C33.552 50.109 34.792 52.094 36.031 54.078 C38.631 58.237 41.235 62.393 43.844 66.547 C44.508 67.606 45.173 68.666 45.857 69.758 C47.112 71.759 48.369 73.759 49.627 75.758 C51.37 78.538 53.096 81.328 54.812 84.125 C55.462 85.181 56.111 86.237 56.781 87.325 C57.416 88.382 58.052 89.439 58.707 90.527 C58.996 91.006 58.996 91.006 60.46 93.426 C62.424 97.345 63.021 100.893 61.812 105.125 C58.835 112.134 54.282 114.919 47.875 118.75 C46.896 119.353 45.918 119.957 44.91 120.578 C42.876 121.83 40.838 123.076 38.796 124.314 C35.176 126.511 31.579 128.745 27.983 130.981 C25.397 132.588 22.806 134.187 20.215 135.785 C14.463 139.336 8.73 142.916 3 146.5 C2.499 146.813 2.499 146.813 -0.035 148.398 C-2.07 149.671 -4.104 150.944 -6.139 152.218 C-12.151 155.979 -18.166 159.737 -24.18 163.495 C-29.219 166.644 -34.256 169.794 -39.293 172.945 C-44.277 176.064 -49.263 179.179 -54.25 182.292 C-56.228 183.526 -58.206 184.761 -60.183 185.997 C-63.058 187.793 -65.935 189.584 -68.812 191.375 C-69.671 191.912 -70.53 192.449 -71.415 193.002 C-84.953 201.41 -84.953 201.41 -94.188 200.125 C-104.016 195.885 -109.205 182.859 -114.439 174.058 C-117.879 168.277 -121.393 162.553 -125 156.875 C-125.486 156.109 -125.972 155.344 -126.473 154.555 C-127.496 152.945 -128.518 151.335 -129.541 149.725 C-137.299 137.474 -144.965 125.163 -152.562 112.812 C-153.021 112.072 -153.479 111.331 -153.951 110.568 C-157.335 105.044 -159.047 100.664 -158.188 94.125 C-153.876 85.143 -143.351 80.22 -135.188 75.188 C-133.042 73.856 -130.896 72.524 -128.75 71.191 C-127.659 70.516 -126.569 69.841 -125.445 69.145 C-120.35 65.986 -115.269 62.805 -110.188 59.625 C-108.188 58.375 -106.188 57.125 -104.188 55.875 C-103.197 55.256 -102.208 54.637 -101.188 54 C-95.688 50.562 -95.688 50.562 -68.188 33.375 C-67.197 32.756 -66.206 32.136 -65.185 31.498 C-63.194 30.254 -61.203 29.01 -59.212 27.765 C-53.015 23.893 -46.819 20.019 -40.625 16.141 C-38.567 14.854 -36.507 13.571 -34.445 12.291 C-30.304 9.719 -26.177 7.146 -22.145 4.406 C-14.425 -0.785 -9.082 -2.493 0 0 Z " fill="#FDD7AE" transform="translate(242.1875,121.875)"/>
<path d="M0 0 C7.022 4.028 10.713 11.446 14.688 18.188 C15.391 19.359 16.096 20.53 16.802 21.699 C18.214 24.04 19.622 26.383 21.027 28.729 C23.706 33.171 26.466 37.56 29.25 41.938 C29.72 42.679 30.191 43.421 30.676 44.186 C31.62 45.675 32.566 47.165 33.512 48.654 C36.265 52.994 39.007 57.341 41.75 61.688 C42.766 63.296 43.781 64.904 44.797 66.512 C45.531 67.674 46.266 68.837 47 70 C51.314 68.661 55.393 66.996 59.52 65.182 C84.756 54.146 111.815 49.796 138.126 59.809 C153.818 66.21 166.438 75.851 178.524 87.571 C179.887 88.891 181.267 90.192 182.648 91.492 C188.97 97.575 194.355 104.195 199.626 111.182 C200.944 112.926 202.278 114.656 203.613 116.387 C217.283 134.329 228.621 154.012 239 174 C239.15 174.288 239.15 174.288 239.91 175.747 C271.402 236.241 318.944 333.369 298.284 402.393 C289.52 429.608 272.429 451.881 246.969 465.345 C221.155 478.427 191.846 479.658 164.473 470.867 C135.88 460.6 111.652 438.429 89.496 418.261 C87.95 416.86 86.395 415.467 84.83 414.087 C77.999 408.045 71.528 401.682 65.094 395.225 C63.308 393.433 61.517 391.647 59.725 389.861 C53.934 384.074 48.306 378.239 43 372 C41.38 370.224 39.756 368.453 38.125 366.688 C33.204 361.285 28.572 355.698 24 350 C23.088 348.88 22.175 347.76 21.262 346.641 C-13.679 303.64 -52.462 250.203 -56 193 C-56.054 192.259 -56.108 191.518 -56.164 190.754 C-57.177 164.183 -45.218 141.643 -27.664 122.445 C-21.33 115.865 -14.332 110.401 -7 105 C-8.757 99.894 -11.587 95.466 -14.375 90.875 C-14.91 89.99 -15.444 89.104 -15.995 88.192 C-19.542 82.341 -23.154 76.532 -26.812 70.75 C-27.29 69.991 -27.768 69.231 -28.26 68.449 C-31.15 63.87 -34.097 59.336 -37.09 54.824 C-38.477 52.695 -39.863 50.567 -41.25 48.438 C-41.919 47.45 -42.588 46.463 -43.277 45.446 C-47.248 39.294 -49.571 34.378 -48 27 C-45.354 21.045 -40.586 18.413 -35.188 15.188 C-34.345 14.674 -33.502 14.161 -32.633 13.632 C-30.914 12.586 -29.192 11.544 -27.467 10.507 C-25.201 9.123 -22.979 7.689 -20.766 6.223 C-7.944 -2.158 -7.944 -2.158 0 0 Z M70 69 C70 73.388 70.56 74.213 72.938 77.688 C76.444 83.368 77.637 87.606 76.68 94.211 C74.305 101.99 67.127 105.495 60.582 109.441 C57.602 111.24 54.645 113.074 51.688 114.91 C46.22 118.297 40.739 121.66 35.25 125.013 C31.826 127.106 28.404 129.203 24.984 131.305 C23.948 131.941 22.911 132.578 21.843 133.234 C20.033 134.358 18.233 135.498 16.446 136.659 C10.803 140.312 5.643 141.191 -1 140 C-8.428 137.37 -11.566 129.544 -15 123 C-28.333 129.134 -38.17 146.923 -43.301 160.108 C-54.039 189.158 -45.789 218.562 -34 246 C-33.661 246.79 -33.323 247.581 -32.974 248.395 C-24.709 267.353 -13.783 285.042 -2 302 C-1.527 302.684 -1.054 303.368 -0.567 304.073 C15.771 327.651 33.804 350.06 53.312 371.094 C55.055 372.978 56.785 374.873 58.5 376.781 C64.224 383.134 70.151 389.256 76.188 395.312 C76.936 396.065 77.684 396.818 78.455 397.594 C82.567 401.694 86.768 405.623 91.167 409.412 C93.775 411.671 96.287 414.023 98.812 416.375 C103.84 421.008 108.989 425.439 114.349 429.688 C115.541 430.635 116.728 431.587 117.913 432.542 C148.056 456.829 175.352 471.644 215.179 467.789 C218.934 467.256 222.423 466.237 226 465 C226.615 464.801 227.229 464.603 227.862 464.398 C252.519 456.381 271.95 440.05 284 417 C305.569 373.378 288.747 320.625 274.086 277.059 C273.393 275.038 272.697 273.019 272 271 C271.811 270.446 271.811 270.446 270.856 267.645 C247.586 199.635 209.826 104.684 141 70 C117.639 59.434 93.72 59.838 70 69 Z " fill="#111112" transform="translate(101,18)"/>
<path d="M0 0 C4.416 3.782 6.978 8.67 9.875 13.625 C10.127 14.051 10.127 14.051 11.402 16.207 C12.421 17.93 13.436 19.655 14.447 21.383 C15.509 23.172 16.594 24.949 17.698 26.713 C17.969 27.149 17.969 27.149 19.344 29.355 C19.838 30.136 20.332 30.916 20.842 31.719 C22.72 35.418 23.045 39.003 22 43 C19.037 50.013 14.465 52.797 8.062 56.625 C7.084 57.228 6.105 57.832 5.097 58.453 C3.064 59.705 1.026 60.951 -1.016 62.189 C-4.636 64.386 -8.233 66.62 -11.83 68.856 C-14.416 70.463 -17.006 72.062 -19.598 73.66 C-25.349 77.211 -31.082 80.791 -36.812 84.375 C-37.814 85.001 -38.815 85.628 -39.847 86.273 C-41.882 87.546 -43.917 88.819 -45.952 90.093 C-51.964 93.854 -57.978 97.612 -63.993 101.37 C-69.031 104.519 -74.069 107.669 -79.105 110.82 C-84.089 113.939 -89.075 117.054 -94.063 120.167 C-96.041 121.401 -98.018 122.636 -99.996 123.872 C-102.87 125.668 -105.747 127.459 -108.625 129.25 C-109.484 129.787 -110.343 130.324 -111.227 130.877 C-124.766 139.285 -124.766 139.285 -134 138 C-145.159 133.186 -151.848 116.08 -157.74 106.126 C-159.151 103.745 -160.572 101.371 -162 99 C-160.814 99.023 -159.628 99.046 -158.406 99.07 C-141.963 99.296 -126.845 97.341 -111 93 C-111.557 93.058 -112.114 93.116 -112.688 93.176 C-118.308 93.508 -121.672 92.56 -126.371 89.484 C-128.201 87.816 -129.037 86.264 -130 84 C-125.601 80.945 -125.601 80.945 -122.938 81.188 C-121 82 -121 82 -119.125 83.062 C-116.108 84.394 -114.29 84.443 -111 84 C-106.75 81.939 -103.638 79.957 -101 76 C-100.291 70.75 -100.375 66.297 -102.688 61.5 C-106.32 57.574 -108.492 56.17 -113.875 55.562 C-118.518 55.756 -121.254 57.282 -125 60 C-127.101 62.753 -127.956 64.827 -128.812 68.188 C-129.204 69.116 -129.596 70.044 -130 71 C-130.99 71.33 -130.99 71.33 -136 73 C-138.475 67.885 -138.475 67.885 -151 42 C-147.994 38.994 -145.613 36.91 -142.156 34.617 C-141.24 34.007 -140.323 33.398 -139.379 32.77 C-138.429 32.144 -137.479 31.519 -136.5 30.875 C-136.025 30.559 -136.025 30.559 -133.621 28.957 C-125.942 23.87 -125.942 23.87 -122 22 C-120.68 24.31 -119.36 26.62 -118 29 C-120.541 30.751 -123.083 32.5 -125.625 34.25 C-125.981 34.496 -125.981 34.496 -127.785 35.738 C-131.836 38.525 -135.901 41.285 -140 44 C-138.401 49.196 -136.259 54.066 -134 59 C-133.752 58.649 -133.752 58.649 -132.5 56.875 C-127.716 51.373 -122.844 47.459 -115.484 46.762 C-109.126 46.589 -104.119 46.979 -99 51 C-93.021 57.378 -90.429 63.472 -90.629 72.223 C-91.708 80.298 -97.941 85.189 -104 90 C-86.031 90 -62.622 71.377 -49 61 C-48.032 60.276 -47.064 59.551 -46.066 58.805 C-26.695 43.664 -8.644 23.38 0 0 Z " fill="#EBB47D" transform="translate(282,184)"/>
<path d="M0 0 C0.612 0.235 0.612 0.235 3.709 1.427 C4.041 1.554 4.041 1.554 5.721 2.198 C7.115 2.736 8.508 3.28 9.898 3.83 C12.009 4.662 14.128 5.468 16.25 6.273 C17.612 6.802 18.973 7.332 20.334 7.865 C21.556 8.341 22.779 8.818 24.039 9.309 C28.507 11.492 32.217 13.986 34.892 18.29 C36.226 24.663 34.095 30.676 31.67 36.526 C31.385 37.235 31.1 37.944 30.807 38.674 C29.868 41.004 28.915 43.329 27.963 45.654 C27.295 47.303 26.627 48.954 25.961 50.604 C24.201 54.956 22.43 59.302 20.657 63.648 C18.895 67.97 17.144 72.297 15.392 76.624 C13.346 81.678 11.296 86.73 9.235 91.778 C3.618 105.535 3.618 105.535 0.925 112.365 C0.158 114.311 -0.613 116.254 -1.385 118.197 C-2.301 120.505 -3.208 122.818 -4.103 125.134 C-4.303 125.636 -4.303 125.636 -5.315 128.174 C-5.652 129.037 -5.99 129.9 -6.337 130.788 C-8.165 134.102 -10.39 135.591 -13.936 136.779 C-18.977 137.163 -23.46 134.755 -28.085 132.941 C-29.912 132.226 -31.743 131.52 -33.575 130.82 C-36.946 129.531 -40.309 128.226 -43.67 126.915 C-44.773 126.492 -45.876 126.069 -47.013 125.633 C-48.057 125.219 -49.102 124.806 -50.178 124.38 C-51.115 124.014 -52.053 123.648 -53.018 123.271 C-55.997 121.747 -57.631 120.753 -59.545 117.978 C-60.693 110.859 -58.42 104.878 -55.769 98.381 C-55.367 97.362 -54.966 96.343 -54.552 95.293 C-53.228 91.946 -51.882 88.608 -50.533 85.271 C-49.603 82.939 -48.673 80.608 -47.744 78.276 C-45.798 73.399 -43.841 68.527 -41.875 63.658 C-39.607 58.037 -37.36 52.408 -35.124 46.775 C-32.967 41.34 -30.792 35.912 -28.611 30.486 C-27.687 28.183 -26.767 25.878 -25.852 23.571 C-24.572 20.351 -23.273 17.139 -21.968 13.928 C-21.594 12.974 -21.219 12.021 -20.833 11.039 C-16.748 1.106 -10.904 -3.144 0 0 Z " fill="#111212" transform="translate(410.545166015625,70.022216796875)"/>
<path d="M0 0 C3.472 3.125 4.627 5.918 5.303 10.48 C5.367 10.899 5.367 10.899 5.69 13.016 C5.821 13.926 5.953 14.835 6.088 15.773 C6.233 16.737 6.378 17.702 6.527 18.696 C7.005 21.886 7.473 25.078 7.941 28.27 C8.272 30.489 8.603 32.709 8.935 34.928 C9.807 40.775 10.67 46.624 11.532 52.473 C12.409 58.41 13.294 64.347 14.178 70.283 C15.47 78.968 16.759 87.653 18.041 96.339 C18.175 97.243 18.308 98.146 18.446 99.077 C20.686 114.26 20.686 114.26 20.812 118.938 C20.85 119.849 20.887 120.76 20.926 121.699 C20.352 125.139 19.285 126.186 16.5 128.25 C13.566 129.191 13.566 129.191 10.062 129.812 C9.423 129.928 8.783 130.043 8.124 130.161 C5.919 130.547 3.711 130.901 1.5 131.25 C0.644 131.388 -0.211 131.527 -1.093 131.669 C-3.831 132.106 -6.571 132.525 -9.312 132.938 C-10.171 133.069 -11.029 133.201 -11.914 133.336 C-16.207 133.949 -20.49 134.4 -24.824 134.582 C-25.602 134.617 -26.381 134.651 -27.182 134.687 C-30.561 134.05 -32.065 132.664 -34.5 130.25 C-35.296 127.661 -35.766 125.519 -36.103 122.871 C-36.215 122.129 -36.328 121.386 -36.444 120.621 C-36.686 119.009 -36.919 117.395 -37.144 115.781 C-37.502 113.233 -37.892 110.693 -38.292 108.152 C-39.172 102.541 -40.016 96.925 -40.855 91.309 C-41.165 89.245 -41.475 87.181 -41.784 85.116 C-42.427 80.827 -43.068 76.536 -43.708 72.246 C-44.526 66.761 -45.352 61.278 -46.179 55.794 C-46.819 51.548 -47.453 47.3 -48.086 43.052 C-48.389 41.029 -48.693 39.007 -48.999 36.985 C-49.426 34.163 -49.845 31.34 -50.262 28.517 C-50.389 27.694 -50.515 26.87 -50.645 26.022 C-52.494 13.356 -52.494 13.356 -49.938 7.938 C-44.081 1.48 -35.391 1.21 -27.188 0.062 C-26.015 -0.115 -24.843 -0.292 -23.635 -0.475 C-6.038 -3.019 -6.038 -3.019 0 0 Z " fill="#121212" transform="translate(467.5,222.75)"/>
<path d="M0 0 C7.546 4.826 12.043 13.177 16.59 20.656 C17.913 22.802 19.235 24.948 20.559 27.094 C21.228 28.184 21.897 29.275 22.586 30.398 C25.725 35.502 28.909 40.578 32.09 45.656 C33.334 47.646 34.577 49.635 35.82 51.625 C36.438 52.614 37.056 53.602 37.693 54.621 C39.634 57.727 41.575 60.832 43.516 63.938 C43.838 64.454 43.838 64.454 45.472 67.068 C46.744 69.102 48.015 71.137 49.286 73.173 C52.087 77.659 54.893 82.142 57.719 86.613 C58.188 87.357 58.656 88.101 59.139 88.867 C59.994 90.222 60.85 91.575 61.71 92.926 C65.881 99.548 66.14 104.955 65.59 112.656 C63.858 120.101 58.786 125.07 52.59 129.066 C50.596 130.294 48.596 131.511 46.59 132.719 C45.525 133.371 44.461 134.024 43.365 134.697 C41.171 136.041 38.975 137.382 36.776 138.718 C32.093 141.567 27.436 144.456 22.777 147.344 C21.915 147.876 21.053 148.409 20.165 148.958 C14.555 152.426 8.972 155.935 3.402 159.469 C-5.275 164.973 -14.027 170.353 -22.785 175.727 C-30.051 180.191 -37.279 184.708 -44.48 189.276 C-50.456 193.063 -56.458 196.807 -62.473 200.531 C-63.317 201.055 -64.162 201.578 -65.032 202.118 C-69.287 204.749 -73.553 207.362 -77.832 209.953 C-78.634 210.439 -79.435 210.924 -80.261 211.425 C-86.449 214.97 -91.827 215.187 -98.785 214.156 C-108.728 210.042 -114.001 201.296 -119.223 192.344 C-119.917 191.18 -120.614 190.017 -121.312 188.855 C-122.704 186.535 -124.091 184.212 -125.474 181.887 C-128.108 177.491 -130.841 173.163 -133.598 168.844 C-138.824 160.612 -143.967 152.33 -149.086 144.031 C-151.38 140.313 -153.692 136.606 -156.016 132.906 C-156.605 131.964 -157.194 131.023 -157.801 130.052 C-158.925 128.256 -160.053 126.462 -161.185 124.67 C-166.419 116.287 -169.5 109.766 -168.41 99.656 C-165.598 90.629 -160.141 86.056 -152.285 81.531 C-150.657 80.565 -149.029 79.598 -147.402 78.629 C-146.986 78.383 -146.986 78.383 -144.882 77.137 C-141.013 74.819 -137.213 72.394 -133.41 69.969 C-125.787 65.127 -118.108 60.379 -110.41 55.656 C-102.079 50.543 -93.775 45.392 -85.52 40.157 C-77.249 34.913 -68.941 29.728 -60.633 24.543 C-56.408 21.906 -52.187 19.262 -47.969 16.613 C-46.912 15.95 -45.855 15.288 -44.766 14.605 C-42.77 13.352 -40.774 12.098 -38.779 10.843 C-13.651 -4.906 -13.651 -4.906 0 0 Z M-28.848 12.906 C-30.002 13.647 -31.158 14.386 -32.316 15.123 C-34.627 16.598 -36.929 18.085 -39.225 19.583 C-42.726 21.862 -46.254 24.091 -49.792 26.311 C-52.064 27.737 -54.329 29.172 -56.594 30.609 C-65.14 36.025 -73.733 41.367 -82.316 46.724 C-85.39 48.644 -88.463 50.566 -91.535 52.488 C-101.084 58.463 -110.64 64.424 -120.223 70.344 C-127.066 74.577 -133.905 78.819 -140.723 83.094 C-141.481 83.566 -142.239 84.038 -143.021 84.524 C-158.274 94.122 -158.274 94.122 -161.41 100.656 C-162.93 110.79 -156.208 119.29 -150.91 127.469 C-149.843 129.137 -148.776 130.807 -147.711 132.477 C-147.165 133.33 -146.619 134.184 -146.057 135.063 C-143.366 139.3 -140.732 143.572 -138.098 147.844 C-132.122 157.518 -126.113 167.171 -120.07 176.805 C-117.684 180.611 -115.318 184.428 -112.969 188.258 C-112.43 189.129 -111.891 190 -111.336 190.898 C-110.335 192.518 -109.34 194.141 -108.353 195.77 C-105.401 200.518 -102.534 204.094 -97.41 206.656 C-91.684 207.542 -87.303 206.945 -82.262 204.062 C-81.303 203.516 -80.344 202.969 -79.357 202.406 C-74.599 199.581 -69.898 196.677 -65.223 193.719 C-63.104 192.387 -60.986 191.055 -58.867 189.723 C-57.795 189.047 -56.724 188.372 -55.62 187.676 C-50.558 184.49 -45.484 181.324 -40.41 178.156 C-38.414 176.909 -36.418 175.662 -34.422 174.414 C-33.432 173.796 -32.443 173.177 -31.423 172.54 C-28.383 170.639 -25.344 168.738 -22.305 166.836 C-12.852 160.922 -3.394 155.019 6.09 149.156 C13.81 144.384 21.517 139.59 29.215 134.781 C30.186 134.175 31.157 133.568 32.158 132.943 C34.971 131.185 37.781 129.421 40.59 127.656 C41.596 127.027 42.601 126.398 43.637 125.75 C44.618 125.132 45.599 124.515 46.609 123.879 C47.492 123.325 48.375 122.77 49.284 122.199 C53.529 119.358 56.518 116.39 58.59 111.656 C60.083 102.4 55.374 96.15 50.59 88.656 C49.549 87.007 48.509 85.357 47.469 83.707 C45.112 79.984 42.741 76.271 40.363 72.562 C36.584 66.662 32.861 60.727 29.152 54.781 C28.536 53.794 27.92 52.808 27.285 51.791 C24.035 46.584 20.792 41.372 17.555 36.156 C16.891 35.089 16.227 34.021 15.543 32.921 C14.285 30.898 13.029 28.874 11.776 26.848 C-0.384 7.31 -0.384 7.31 -6.41 5.656 C-15.614 4.137 -21.36 7.95 -28.848 12.906 Z " fill="#151515" transform="translate(245.41015625,115.34375)"/>
<path d="M0 0 C3.226 0.94 6.416 1.958 9.607 3.01 C11.918 3.749 14.229 4.488 16.541 5.225 C17.661 5.586 18.781 5.946 19.935 6.318 C23.454 7.432 26.99 8.465 30.542 9.47 C47.088 14.156 47.088 14.156 51.669 19.073 C53.813 23.92 54.036 27.782 52.169 32.885 C46.714 39.332 39.154 43.695 31.919 47.885 C23.445 52.873 15.129 58.072 6.882 63.426 C2.424 66.299 -2.076 69.088 -6.67 71.737 C-7.528 72.234 -8.385 72.731 -9.268 73.243 C-12.37 74.519 -14.566 74.632 -17.893 74.323 C-22.164 72.016 -25.531 69.592 -27.893 65.323 C-28.532 58.179 -27.641 51.126 -26.467 44.088 C-26.319 43.166 -26.171 42.244 -26.018 41.293 C-25.705 39.363 -25.388 37.434 -25.067 35.506 C-24.58 32.568 -24.112 29.627 -23.645 26.686 C-23.337 24.799 -23.028 22.912 -22.717 21.026 C-22.58 20.156 -22.442 19.286 -22.3 18.389 C-21.189 11.837 -19.8 6.457 -15.268 1.385 C-10.207 -1.708 -5.609 -1.313 0 0 Z " fill="#5A5374" transform="translate(267.89306640625,316.677490234375)"/>
<path d="M0 0 C3.855 1.997 5.598 3.397 8 7 C9.53 17.374 6.799 28.584 5.174 38.802 C4.686 41.887 4.218 44.974 3.752 48.062 C3.444 50.039 3.135 52.016 2.824 53.992 C2.687 54.908 2.549 55.824 2.407 56.767 C1.43 62.788 -0.006 67.556 -3.938 72.375 C-9.594 75.376 -15.133 75.036 -21.269 73.392 C-25.683 72.029 -30.031 70.491 -34.383 68.941 C-40.796 66.671 -47.32 64.866 -53.896 63.13 C-60.041 61.453 -66.469 59.611 -71 54.938 C-72.548 50.391 -73.029 45.713 -72 41 C-68.5 36.705 -64.138 33.916 -59.5 31 C-58.764 30.531 -58.029 30.061 -57.271 29.578 C-50.542 25.301 -43.768 21.095 -36.966 16.937 C-32.514 14.21 -28.118 11.433 -23.793 8.508 C-23.374 8.229 -23.374 8.229 -21.253 6.818 C-19.679 5.766 -18.115 4.696 -16.567 3.606 C-11.132 0.009 -6.496 -1.052 0 0 Z " fill="#5A5375" transform="translate(336,368)"/>
<path d="M0 0 C2.89 2.724 5.065 5.419 7.145 8.797 C7.732 9.744 8.319 10.691 8.924 11.667 C9.547 12.685 10.17 13.702 10.812 14.75 C12.152 16.915 13.492 19.081 14.832 21.246 C15.519 22.36 16.205 23.473 16.913 24.621 C20.254 30.031 23.628 35.421 27 40.812 C27.598 41.771 28.196 42.729 28.812 43.716 C29.101 44.178 29.101 44.178 30.562 46.52 C31.119 47.419 31.676 48.318 32.25 49.245 C33.484 51.187 34.759 53.105 36.062 55.001 C36.722 55.974 37.382 56.947 38.062 57.949 C38.672 58.823 39.282 59.696 39.91 60.596 C41 63 41 63 40.5 65.102 C38.583 67.528 36.585 68.817 33.941 70.426 C32.915 71.058 31.888 71.69 30.83 72.342 C29.752 72.992 28.673 73.642 27.562 74.312 C25.459 75.6 23.357 76.888 21.254 78.176 C20.216 78.802 19.179 79.428 18.11 80.073 C16.012 81.373 13.942 82.721 11.902 84.111 C10.933 84.769 9.963 85.427 8.965 86.105 C8.104 86.709 7.242 87.313 6.355 87.934 C4 89 4 89 1.847 88.418 C-0.224 86.828 -1.231 85.466 -2.523 83.203 C-2.98 82.421 -3.436 81.638 -3.906 80.832 C-4.391 79.98 -4.876 79.128 -5.375 78.25 C-6.443 76.422 -7.513 74.595 -8.586 72.77 C-9.144 71.819 -9.702 70.868 -10.276 69.889 C-13.088 65.177 -16.04 60.557 -19 55.938 C-19.579 55.03 -20.157 54.122 -20.754 53.187 C-23.677 48.608 -26.621 44.043 -29.59 39.492 C-30.154 38.62 -30.718 37.747 -31.299 36.848 C-32.368 35.193 -33.446 33.544 -34.533 31.9 C-34.769 31.533 -34.769 31.533 -35.965 29.676 C-36.384 29.036 -36.803 28.395 -37.234 27.736 C-38 26 -38 26 -37 23 C-34.89 21.409 -34.89 21.409 -32.109 19.707 C-31.602 19.394 -31.602 19.394 -29.035 17.807 C-27.951 17.149 -26.867 16.491 -25.75 15.812 C-24.661 15.142 -23.571 14.472 -22.449 13.781 C-19.304 11.847 -16.152 9.923 -13 8 C-10.887 6.699 -8.776 5.395 -6.665 4.091 C-4.447 2.721 -2.224 1.36 0 0 Z " fill="#FDFDFD" transform="translate(117,56)"/>
<path d="M0 0 C4.435 0.592 8.188 1.721 12.316 3.434 C13.493 3.918 14.669 4.402 15.881 4.9 C16.488 5.154 16.488 5.154 19.562 6.438 C20.781 6.941 22 7.444 23.256 7.963 C25.521 8.899 27.786 9.837 30.049 10.779 C32.692 11.873 35.342 12.944 38 14 C37.315 18.304 35.863 22.164 34.224 26.177 C33.941 26.88 33.658 27.583 33.367 28.307 C32.435 30.619 31.497 32.929 30.559 35.238 C29.909 36.845 29.261 38.452 28.612 40.06 C26.908 44.281 25.199 48.501 23.488 52.72 C21.742 57.029 20.001 61.34 18.26 65.65 C14.845 74.102 11.424 82.552 8 91 C3.626 90.193 -0.337 88.819 -4.453 87.164 C-4.804 87.024 -4.804 87.024 -6.577 86.316 C-8.05 85.724 -9.523 85.131 -10.994 84.535 C-13.252 83.624 -15.516 82.73 -17.781 81.836 C-19.214 81.259 -20.646 80.681 -22.078 80.102 C-22.757 79.836 -23.436 79.57 -24.136 79.296 C-25.794 78.614 -27.403 77.816 -29 77 C-30.324 73.028 -28.994 70.766 -27.467 67.082 C-27.186 66.382 -26.905 65.683 -26.615 64.962 C-25.682 62.647 -24.736 60.337 -23.789 58.027 C-23.139 56.422 -22.49 54.817 -21.841 53.212 C-20.131 48.982 -18.408 44.758 -16.684 40.534 C-14.93 36.233 -13.188 31.928 -11.445 27.623 C-8.9 21.343 -6.351 15.064 -3.792 8.789 C-3.522 8.127 -3.253 7.466 -2.976 6.785 C-2.039 4.49 -1.109 2.218 0 0 Z " fill="#FDFDFD" transform="translate(388,108)"/>
<path d="M0 0 C0.17 1.203 0.34 2.405 0.516 3.645 C1.958 13.809 3.431 23.969 4.938 34.125 C5.103 35.245 5.269 36.366 5.439 37.52 C6.326 43.508 7.227 49.493 8.145 55.477 C8.33 56.695 8.515 57.913 8.705 59.167 C9.06 61.498 9.418 63.828 9.781 66.157 C10.59 71.5 11.216 76.595 11 82 C-2.226 84.638 -15.464 87.195 -29 87 C-29.147 85.997 -29.294 84.994 -29.445 83.961 C-30.737 75.224 -32.074 66.495 -33.465 57.773 C-33.595 56.955 -33.725 56.136 -33.86 55.293 C-34.517 51.164 -35.178 47.035 -35.842 42.908 C-40.166 15.908 -40.166 15.908 -40 6 C-33.718 4.43 -27.456 3.508 -21.034 2.755 C-16.052 2.161 -11.151 1.36 -6.234 0.367 C-4 0 -4 0 0 0 Z " fill="#FDFDFD" transform="translate(469,262)"/>
<path d="M0 0 C3 0.25 3 0.25 5 2.25 C5.627 3.943 6.204 5.654 6.75 7.375 C9.851 16.097 14.879 22.647 23 27.25 C26.383 28.646 29.775 29.904 33.242 31.074 C36 32.25 36 32.25 38 35.25 C38.188 37.688 38.188 37.688 37 40.25 C34.15 41.925 31.065 43.027 28 44.25 C17.586 48.939 11.646 55.694 7.562 66.25 C7.08 67.561 6.602 68.873 6.129 70.188 C5 73.25 5 73.25 4 74.25 C1.125 74.625 1.125 74.625 -2 74.25 C-3.931 72.022 -4.817 69.772 -5.785 67.008 C-9.172 57.596 -14.054 51.452 -23.062 46.875 C-25.031 45.976 -27.009 45.098 -29 44.25 C-29.755 43.921 -30.511 43.593 -31.289 43.254 C-32.857 42.58 -34.428 41.914 -36 41.25 C-37 40.25 -37 40.25 -37.312 37.875 C-37 35.25 -37 35.25 -35.277 33.699 C-32.964 32.227 -30.834 31.339 -28.25 30.438 C-18.897 26.77 -12.852 21.077 -8 12.25 C-7.026 9.607 -6.251 7.021 -5.605 4.281 C-4.585 0.858 -3.518 0.293 0 0 Z " fill="#0F1010" transform="translate(68,401.75)"/>
<path d="M0 0 C3.933 2.074 6.477 3.737 8 8 C6.312 9.562 6.312 9.562 4 11 C1.302 10.743 -0.584 10.208 -3 9 C-9.813 8.319 -9.813 8.319 -12.824 10.047 C-15.681 12.399 -17.762 14.261 -18.273 17.996 C-18.579 25.343 -16.422 30.572 -13 37 C-12.608 35.783 -12.216 34.566 -11.812 33.312 C-10.271 29.228 -8.387 26.836 -5 24 C-4.588 23.618 -4.588 23.618 -2.5 21.688 C3.768 18.666 10.855 19.028 17.438 21.062 C22.54 24.921 26.928 29.898 29 36 C29.845 43.379 29.63 49.953 25 56 C19.839 61.365 15.388 64.284 7.812 64.438 C0.112 64.282 -4.463 62.252 -10.082 57.086 C-19.272 47.421 -26.857 34.314 -27.5 20.75 C-27.177 14.637 -25.375 10.247 -20.906 6.02 C-14.038 0.468 -8.789 -2.151 0 0 Z " fill="#080705" transform="translate(227,167)"/>
<path d="M0 0 C5.615 3.437 9.302 8.062 11.812 14.109 C12.698 20.987 12.887 28.271 9.219 34.363 C5.656 38.788 1.182 43.062 -4.188 45.109 C-12.031 45.94 -19.779 46.189 -26.188 41.109 C-32.223 35.53 -35.289 29.515 -35.688 21.234 C-35.485 14.203 -33.278 9.383 -28.473 4.293 C-20.611 -2.846 -9.833 -4.343 0 0 Z " fill="#141314" transform="translate(326.1875,259.890625)"/>
<path d="M0 0 C3.226 0.94 6.416 1.958 9.607 3.01 C11.918 3.749 14.229 4.488 16.541 5.225 C17.661 5.586 18.781 5.946 19.935 6.318 C23.454 7.432 26.99 8.465 30.542 9.47 C47.088 14.156 47.088 14.156 51.669 19.073 C53.813 23.92 54.036 27.782 52.169 32.885 C46.714 39.332 39.154 43.695 31.919 47.885 C23.445 52.873 15.129 58.072 6.882 63.426 C2.424 66.299 -2.076 69.088 -6.67 71.737 C-7.528 72.234 -8.385 72.731 -9.268 73.243 C-12.37 74.519 -14.566 74.632 -17.893 74.323 C-22.164 72.016 -25.531 69.592 -27.893 65.323 C-28.532 58.179 -27.641 51.126 -26.467 44.088 C-26.319 43.166 -26.171 42.244 -26.018 41.293 C-25.705 39.363 -25.388 37.434 -25.067 35.506 C-24.58 32.568 -24.112 29.627 -23.645 26.686 C-23.337 24.799 -23.028 22.912 -22.717 21.026 C-22.58 20.156 -22.442 19.286 -22.3 18.389 C-21.189 11.837 -19.8 6.457 -15.268 1.385 C-10.207 -1.708 -5.609 -1.313 0 0 Z M-11.477 7.549 C-13.206 9.714 -13.526 11.233 -13.984 13.958 C-14.147 14.896 -14.31 15.835 -14.478 16.801 C-14.56 17.307 -14.56 17.307 -14.971 19.869 C-15.147 20.914 -15.323 21.959 -15.504 23.035 C-15.872 25.246 -16.235 27.459 -16.592 29.672 C-17.139 33.048 -17.71 36.42 -18.284 39.791 C-18.639 41.942 -18.994 44.093 -19.346 46.244 C-19.517 47.249 -19.688 48.253 -19.864 49.288 C-20.703 54.592 -21.184 59.076 -19.893 64.323 C-17.893 66.323 -17.893 66.323 -15.331 66.768 C-10.405 66.13 -7.043 63.825 -2.893 61.198 C-2.027 60.663 -1.162 60.129 -0.27 59.579 C2.533 57.843 5.321 56.085 8.107 54.323 C9.049 53.729 9.991 53.136 10.961 52.525 C16.529 49.016 22.078 45.478 27.616 41.921 C29.919 40.443 32.227 38.973 34.537 37.506 C35.81 36.695 37.084 35.884 38.357 35.073 C39.435 34.387 40.512 33.701 41.623 32.994 C44.107 31.323 44.107 31.323 46.107 29.323 C46.544 26.948 46.544 26.948 46.107 24.323 C42.286 20.56 38.138 19.085 33.095 17.631 C32.711 17.515 32.711 17.515 30.767 16.93 C28.321 16.196 25.87 15.478 23.419 14.76 C21.792 14.275 20.165 13.788 18.539 13.301 C15.43 12.371 12.32 11.45 9.207 10.537 C5.165 9.348 1.146 8.091 -2.861 6.788 C-6.064 6.054 -8.758 5.443 -11.477 7.549 Z " fill="#131315" transform="translate(267.89306640625,316.677490234375)"/>
<path d="M0 0 C3.855 1.997 5.598 3.397 8 7 C9.53 17.374 6.799 28.584 5.174 38.802 C4.686 41.887 4.218 44.974 3.752 48.062 C3.444 50.039 3.135 52.016 2.824 53.992 C2.687 54.908 2.549 55.824 2.407 56.767 C1.43 62.788 -0.006 67.556 -3.938 72.375 C-9.594 75.376 -15.133 75.036 -21.269 73.392 C-25.683 72.029 -30.031 70.491 -34.383 68.941 C-40.796 66.671 -47.32 64.866 -53.896 63.13 C-60.041 61.453 -66.469 59.611 -71 54.938 C-72.548 50.391 -73.029 45.713 -72 41 C-68.5 36.705 -64.138 33.916 -59.5 31 C-58.764 30.531 -58.029 30.061 -57.271 29.578 C-50.542 25.301 -43.768 21.095 -36.966 16.937 C-32.514 14.21 -28.118 11.433 -23.793 8.508 C-23.374 8.229 -23.374 8.229 -21.253 6.818 C-19.679 5.766 -18.115 4.696 -16.567 3.606 C-11.132 0.009 -6.496 -1.052 0 0 Z M-15.125 11.75 C-15.519 11.997 -15.519 11.997 -17.512 13.248 C-20.014 14.822 -22.507 16.411 -25 18 C-26.579 18.995 -28.158 19.988 -29.738 20.98 C-32.88 22.955 -36.016 24.937 -39.148 26.926 C-42.543 29.08 -45.945 31.222 -49.352 33.355 C-50.224 33.903 -51.096 34.45 -51.994 35.014 C-53.673 36.067 -55.353 37.119 -57.035 38.168 C-57.411 38.404 -57.411 38.404 -59.316 39.602 C-59.981 40.017 -60.646 40.433 -61.33 40.862 C-63 42 -63 42 -65 44 C-65.557 49.24 -65.557 49.24 -63.856 51.561 C-61.377 53.483 -58.997 54.174 -55.996 55.086 C-54.788 55.457 -53.581 55.829 -52.336 56.211 C-51.037 56.6 -49.737 56.988 -48.438 57.375 C-47.117 57.774 -45.796 58.174 -44.476 58.574 C-41.859 59.364 -39.24 60.147 -36.62 60.924 C-33.517 61.846 -30.42 62.787 -27.324 63.734 C-25.758 64.2 -24.192 64.663 -22.625 65.125 C-21.938 65.337 -21.252 65.549 -20.545 65.767 C-16.052 67.046 -12.558 66.93 -8 66 C-5.787 61.289 -5.091 56.479 -4.273 51.387 C-4.121 50.458 -3.968 49.53 -3.811 48.573 C-3.491 46.613 -3.173 44.652 -2.858 42.691 C-2.378 39.707 -1.885 36.726 -1.391 33.744 C-1.08 31.833 -0.77 29.923 -0.461 28.012 C-0.314 27.128 -0.167 26.245 -0.016 25.334 C2.115 11.878 2.115 11.878 -0.188 8 C-5.838 4.882 -10.383 8.698 -15.125 11.75 Z " fill="#121214" transform="translate(336,368)"/>
<path d="M0 0 C2.883 3.562 5.649 7.192 8.375 10.875 C20.094 26.462 35.334 39.815 55 44 C59.984 44.636 64.979 44.863 70 45 C68.511 48.889 66.451 50.29 62.941 52.426 C61.915 53.058 60.888 53.69 59.83 54.342 C58.752 54.992 57.673 55.642 56.562 56.312 C54.459 57.6 52.357 58.888 50.254 60.176 C49.216 60.802 48.179 61.428 47.11 62.073 C45.012 63.373 42.942 64.721 40.902 66.111 C39.933 66.769 38.963 67.427 37.965 68.105 C37.104 68.709 36.242 69.313 35.355 69.934 C33 71 33 71 30.847 70.418 C28.776 68.828 27.769 67.466 26.477 65.203 C26.02 64.421 25.564 63.638 25.094 62.832 C24.609 61.98 24.124 61.128 23.625 60.25 C22.557 58.422 21.487 56.595 20.414 54.77 C19.856 53.819 19.298 52.868 18.724 51.889 C15.912 47.177 12.96 42.557 10 37.938 C9.421 37.03 8.843 36.122 8.246 35.187 C5.323 30.608 2.379 26.043 -0.59 21.492 C-1.154 20.62 -1.718 19.747 -2.299 18.848 C-3.368 17.193 -4.446 15.544 -5.533 13.9 C-6.006 13.166 -6.478 12.432 -6.965 11.676 C-7.174 11.356 -7.174 11.356 -8.234 9.736 C-9 8 -9 8 -8 5 C-6.152 3.613 -6.152 3.613 -3.938 2.312 C-3.204 1.876 -2.471 1.439 -1.715 0.988 C-1.149 0.662 -0.583 0.336 0 0 Z " fill="#DBDBDB" transform="translate(88,74)"/>
<path d="M0 0 C3.949 0.551 7.349 1.389 11 3 C10.34 3.33 9.68 3.66 9 4 C8.609 5.654 8.29 7.325 8 9 C7.373 11.297 6.726 13.588 6.062 15.875 C5.723 17.048 5.384 18.221 5.035 19.43 C4.366 21.736 3.668 24.034 2.934 26.32 C-1.655 44.405 -2.455 70.324 7 87 C7.33 87.33 7.33 87.33 9 89 C8.67 89.66 8.34 90.32 8 91 C3.612 90.304 -0.352 88.813 -4.453 87.164 C-4.804 87.024 -4.804 87.024 -6.577 86.316 C-8.05 85.724 -9.523 85.131 -10.994 84.535 C-13.252 83.624 -15.516 82.73 -17.781 81.836 C-19.214 81.259 -20.646 80.681 -22.078 80.102 C-22.757 79.836 -23.436 79.57 -24.136 79.296 C-25.794 78.614 -27.403 77.816 -29 77 C-30.324 73.028 -28.994 70.766 -27.467 67.082 C-27.186 66.382 -26.905 65.683 -26.615 64.962 C-25.682 62.647 -24.736 60.337 -23.789 58.027 C-23.139 56.422 -22.49 54.817 -21.841 53.212 C-20.131 48.982 -18.408 44.758 -16.684 40.534 C-14.93 36.233 -13.188 31.928 -11.445 27.623 C-8.9 21.343 -6.351 15.064 -3.792 8.789 C-3.522 8.127 -3.253 7.466 -2.976 6.785 C-2.039 4.49 -1.109 2.218 0 0 Z " fill="#DADADA" transform="translate(388,108)"/>
<path d="M0 0 C-0.99 0 -1.98 0 -3 0 C-0.063 21.844 7.648 44.215 22.371 61.02 C24 63 24 63 24.973 65.137 C26.295 67.534 27.507 67.949 30 69 C31.429 69.79 32.846 70.603 34.25 71.438 C34.603 71.643 34.603 71.643 36.391 72.684 C36.656 72.901 36.656 72.901 38 74 C38 74.99 38 75.98 38 77 C24.774 79.638 11.536 82.195 -2 82 C-2.147 80.997 -2.294 79.994 -2.445 78.961 C-3.737 70.224 -5.074 61.495 -6.465 52.773 C-6.595 51.955 -6.725 51.136 -6.86 50.293 C-7.517 46.164 -8.178 42.035 -8.842 37.908 C-13.166 10.908 -13.166 10.908 -13 1 C-11.586 0.634 -10.169 0.283 -8.75 -0.062 C-7.961 -0.26 -7.172 -0.457 -6.359 -0.66 C-3.896 -1.015 -2.344 -0.769 0 0 Z " fill="#DADADA" transform="translate(442,267)"/>
<path d="M0 0 C5.42 3.243 8.57 8.17 11 13.875 C12.16 21.35 11.418 27.485 7.016 33.746 C2.763 38.879 -1.76 41.924 -8.5 42.754 C-15.467 43.129 -21.212 41.332 -26.488 36.699 C-31.023 31.864 -33.284 27.691 -33.531 20.934 C-33.292 13.767 -31.228 8.834 -26.438 3.5 C-19.414 -2.595 -8.514 -3.746 0 0 Z " fill="#101010" transform="translate(313.4375,28.5)"/>
<path d="M0 0 C4.638 3.472 7.457 8.261 9.27 13.699 C10.252 21.351 8.789 27.418 4.27 33.699 C-1.929 39.645 -7.165 41.075 -15.656 40.973 C-21.913 40.416 -25.936 37.852 -30.105 33.262 C-34.616 27.831 -35.182 22.579 -35.039 15.703 C-34.404 9.524 -31.869 5.488 -27.355 1.324 C-19.001 -5.175 -9.07 -4.985 0 0 Z " fill="#121110" transform="translate(481.73046875,447.30078125)"/>
<path d="M0 0 C4 4.625 4 4.625 4 8 C1.657 9.786 -0.641 11.372 -3.125 12.938 C-3.79 13.367 -4.455 13.797 -5.141 14.24 C-6.457 15.091 -7.777 15.938 -9.099 16.781 C-11.757 18.485 -14.379 20.24 -17 22 C-15.401 27.196 -13.259 32.066 -11 37 C-10.752 36.649 -10.752 36.649 -9.5 34.875 C-4.716 29.373 0.156 25.459 7.516 24.762 C13.874 24.589 18.881 24.979 24 29 C29.979 35.378 32.571 41.472 32.371 50.223 C31.416 57.372 26.416 62.118 21.035 66.523 C16.079 70.12 11.344 71.629 5.281 71.422 C1.275 70.681 -2.005 68.729 -5 66 C-6.223 63.828 -6.223 63.828 -7 62 C-2.601 58.945 -2.601 58.945 0.062 59.188 C2 60 2 60 3.875 61.062 C6.892 62.394 8.71 62.443 12 62 C16.25 59.939 19.362 57.957 22 54 C22.709 48.75 22.625 44.297 20.312 39.5 C16.68 35.574 14.508 34.17 9.125 33.562 C4.482 33.756 1.746 35.282 -2 38 C-4.101 40.753 -4.956 42.827 -5.812 46.188 C-6.204 47.116 -6.596 48.044 -7 49 C-8.98 49.66 -10.96 50.32 -13 51 C-15.475 45.885 -15.475 45.885 -28 20 C-24.979 16.979 -22.602 14.909 -19.121 12.617 C-18.2 12.007 -17.279 11.398 -16.33 10.77 C-15.376 10.144 -14.421 9.519 -13.438 8.875 C-12.479 8.242 -11.521 7.609 -10.533 6.957 C-8.758 5.785 -6.982 4.616 -5.205 3.449 C-3.465 2.306 -1.732 1.154 0 0 Z " fill="#080706" transform="translate(159,206)"/>
<path d="M0 0 C0.413 0.052 0.413 0.052 2.5 0.312 C4.75 3.687 4.675 4.478 4.5 8.375 C3.937 47.284 21.421 86.771 42.578 118.63 C43.829 120.913 43.898 122.766 43.5 125.312 C42.675 125.642 42.675 125.642 38.5 127.312 C33.487 122.928 30.58 117.725 27.375 111.938 C26.808 110.917 26.241 109.897 25.657 108.846 C12.311 84.566 -0.131 58.146 -3.5 30.312 C-3.589 29.632 -3.678 28.951 -3.77 28.25 C-4.468 22.615 -4.683 17.051 -4.688 11.375 C-4.7 10.526 -4.712 9.677 -4.725 8.803 C-4.727 7.993 -4.728 7.182 -4.73 6.348 C-4.735 5.619 -4.739 4.891 -4.743 4.141 C-4.328 1.018 -2.98 0.372 0 0 Z " fill="#0E0E0E" transform="translate(25.5,195.6875)"/>
<path d="M0 0 C21.108 5.036 21.108 5.036 24 9 C24.285 11.427 24.285 11.427 24 14 C22.637 15.557 22.637 15.557 20.688 16.879 C20.32 17.132 20.32 17.132 18.461 18.411 C17.649 18.935 16.837 19.46 16 20 C15.167 20.541 14.335 21.082 13.477 21.64 C10.667 23.433 7.837 25.189 5 26.938 C2.883 28.251 0.766 29.565 -1.352 30.879 C-2.439 31.552 -3.526 32.225 -4.646 32.918 C-8.048 35.03 -11.443 37.151 -14.836 39.277 C-15.384 39.621 -15.384 39.621 -18.156 41.358 C-20.274 42.685 -22.391 44.012 -24.508 45.34 C-25.462 45.937 -26.416 46.533 -27.398 47.148 C-28.241 47.676 -29.083 48.204 -29.951 48.748 C-33.533 50.937 -35.752 51.433 -40 51 C-42.467 48.779 -42.962 47.564 -43.188 44.25 C-43.126 43.507 -43.064 42.765 -43 42 C-42.67 42.66 -42.34 43.32 -42 44 C-25.709 37.684 -12.328 29.956 -4 14 C-2.217 9.446 -1.025 4.78 0 0 Z " fill="#3E3A5A" transform="translate(290,332)"/>
<path d="M0 0 C1.812 1.25 1.812 1.25 3 3 C3 4.32 3 5.64 3 7 C1.996 7.389 0.992 7.779 -0.043 8.18 C-16.652 14.867 -29.432 24.128 -37 41 C-37.73 43.992 -37.73 43.992 -38.188 46.875 C-38.458 48.583 -38.729 50.292 -39 52 C-42.442 51.079 -45.878 50.135 -49.312 49.188 C-50.289 48.926 -51.265 48.665 -52.271 48.396 C-53.209 48.135 -54.147 47.874 -55.113 47.605 C-55.977 47.37 -56.841 47.134 -57.732 46.891 C-60.18 45.929 -61.383 45.058 -63 43 C-63.688 40.188 -63.688 40.188 -63 37 C-57.27 31.389 -49.495 27.501 -42.688 23.375 C-40.374 21.964 -38.062 20.551 -35.75 19.137 C-35.177 18.787 -34.604 18.437 -34.014 18.076 C-27.927 14.354 -21.897 10.545 -15.876 6.718 C-13.919 5.475 -11.96 4.237 -10 3 C-9.06 2.406 -8.121 1.811 -7.152 1.199 C-4.517 -0.269 -2.972 -0.469 0 0 Z " fill="#3E3A59" transform="translate(334,375)"/>
<path d="M0 0 C4.469 2.567 7.627 5.308 9.789 10.082 C10.631 16.017 10.293 21.06 6.789 26.082 C3.911 29.049 1.034 31.707 -3.211 32.082 C-4.448 32.206 -5.686 32.33 -6.961 32.457 C-11.988 32.373 -15.478 30.345 -19.211 27.082 C-22.809 23.009 -23.932 18.742 -23.656 13.355 C-22.716 8.554 -20.283 4.907 -16.637 1.695 C-11.502 -1.716 -5.718 -2.374 0 0 Z " fill="#FA819D" transform="translate(321.2109375,265.91796875)"/>
<path d="M0 0 C0.66 0 1.32 0 2 0 C3.262 1.723 3.262 1.723 4.688 4.062 C9.855 12.014 15.5 16.817 24 21 C21.905 23.205 19.741 24.949 17.25 26.688 C10.898 31.393 6.167 37.332 2 44 C1.425 43.277 0.85 42.554 0.258 41.809 C-6.095 33.906 -11.885 27.681 -21 23 C-18.905 20.795 -16.741 19.051 -14.25 17.312 C-7.989 12.666 -3.061 7.203 0 0 Z " fill="#A8E8EB" transform="translate(67,417)"/>
<path d="M0 0 C0.485 0.01 0.485 0.01 2.938 0.062 C5.893 5.973 3.59 14.381 2.312 20.562 C2.134 21.43 1.955 22.297 1.77 23.191 C-2.456 42.702 -10.729 60.353 -23.062 76.062 C-23.321 76.437 -23.321 76.437 -24.629 78.332 C-26.062 80.062 -26.062 80.062 -28.625 80.438 C-31.062 80.062 -31.062 80.062 -33.062 78.062 C-33.196 72.576 -30.372 69.741 -27.094 65.73 C-13.315 47.633 -7.273 25.501 -4.422 3.266 C-3.863 -0.162 -3.597 0.073 0 0 Z " fill="#0E0E0E" transform="translate(423.0625,394.9375)"/>
<path d="M0 0 C4.313 2.367 7.101 5.47 9 10 C9.688 16.074 8.372 19.129 5 24 C1.07 27.573 -2.636 28.353 -7.938 28.285 C-12.23 27.692 -15.044 25.088 -17.812 21.938 C-20.245 17.969 -20.38 14.563 -20 10 C-18.657 6.439 -16.725 3.681 -13.938 1.062 C-9.266 -0.627 -4.891 -0.875 0 0 Z " fill="#D7B9B9" transform="translate(308,35)"/>
<path d="M0 0 C4.714 1.99 7.722 5.443 10 10 C10.592 15.92 9.443 20.222 6 25 C1.791 28.207 -2.437 28.577 -7.594 28.422 C-11.624 27.715 -13.265 26.009 -16 23 C-18.879 18.319 -18.763 13.325 -18 8 C-14.272 0.469 -7.678 -0.881 0 0 Z " fill="#FCD6AD" transform="translate(473,452)"/>
<path d="M0 0 C4.408 2.761 8.084 6.088 10 11 C10.572 15.156 10.422 18.882 8.938 22.812 C5.557 26.63 1.975 28.678 -3.062 29.5 C-8.178 28.629 -11.139 25.822 -14.812 22.312 C-17.532 18.194 -18.451 14.923 -18 10 C-14.254 2.364 -8.606 -2.159 0 0 Z " fill="#FAD5AD" transform="translate(238,195)"/>
<path d="M0 0 C1.836 1.695 1.836 1.695 3.375 4.125 C3.951 5.022 4.527 5.919 5.121 6.844 C8.5 12.519 11.777 18.233 15 24 C9.72 27.3 4.44 30.6 -1 34 C-4.774 29.282 -8.056 24.509 -11.312 19.438 C-11.594 19.012 -11.594 19.012 -13.018 16.861 C-13.544 16.04 -14.071 15.218 -14.613 14.371 C-15.096 13.628 -15.578 12.885 -16.075 12.119 C-17 10 -17 10 -16.779 7.833 C-15.617 5.097 -13.839 4.245 -11.312 2.75 C-10.463 2.229 -9.614 1.708 -8.738 1.172 C-5.511 -0.209 -3.474 -0.518 0 0 Z " fill="#ACEEB3" transform="translate(99,26)"/>
<path d="M0 0 C4.98 4.388 7.996 9.611 11.312 15.312 C11.587 15.778 11.587 15.778 12.979 18.135 C14.326 20.419 15.666 22.708 17 25 C14.061 28.148 11.014 30.455 7.375 32.75 C6.413 33.364 5.452 33.977 4.461 34.609 C2 36 2 36 0 36 C-0.519 35.082 -1.039 34.164 -1.574 33.219 C-2.278 31.979 -2.983 30.739 -3.688 29.5 C-4.05 28.859 -4.413 28.219 -4.787 27.559 C-6.755 24.105 -8.79 20.743 -11 17.438 C-13.02 13.966 -13.598 12.85 -13 9 C-11.172 7.051 -11.172 7.051 -8.75 5.312 C-8.356 5.022 -8.356 5.022 -6.359 3.551 C-4.286 2.188 -2.246 1.046 0 0 Z " fill="#7DD383" transform="translate(74,38)"/>
<path d="M0 0 C2.283 2.283 2.378 3.077 2.852 6.176 C2.98 7.004 3.109 7.832 3.242 8.686 C3.369 9.552 3.495 10.419 3.625 11.312 C3.759 12.168 3.893 13.023 4.031 13.904 C4.648 17.965 5.187 21.88 5 26 C3.648 26.343 2.293 26.674 0.938 27 C0.183 27.186 -0.571 27.371 -1.348 27.562 C-4.592 28.098 -7.718 28.064 -11 28 C-12.958 18.985 -14.501 10.233 -15 1 C-9.964 0.293 -5.099 -0.306 0 0 Z " fill="#A9EBB0" transform="translate(462,229)"/>
<path d="M0 0 C3.416 0.655 6.526 1.43 9.75 2.75 C10.529 3.054 11.307 3.358 12.109 3.672 C14 5 14 5 14.713 7.295 C15.204 11.921 13.121 15.569 11.312 19.75 C11.136 20.188 11.136 20.188 10.244 22.402 C9.892 23.234 9.539 24.065 9.176 24.922 C8.855 25.681 8.535 26.44 8.204 27.222 C7 29 7 29 5.052 29.817 C1.877 30.1 -0.371 28.846 -3.25 27.562 C-4.328 27.089 -5.405 26.616 -6.516 26.129 C-7.335 25.756 -8.155 25.384 -9 25 C-8.39 21.514 -7.484 18.413 -6.152 15.137 C-5.973 14.694 -5.973 14.694 -5.068 12.451 C-4.882 11.995 -4.882 11.995 -3.938 9.688 C-3.56 8.756 -3.183 7.825 -2.795 6.865 C-1.867 4.575 -0.935 2.287 0 0 Z " fill="#ABEDB2" transform="translate(423,85)"/>
<path d="M0 0 C1.657 8.984 3.276 17.883 4 27 C1.195 27.165 1.195 27.165 -13 28 C-13.531 24.772 -14.05 21.543 -14.562 18.312 C-14.638 17.856 -14.638 17.856 -15.021 15.549 C-15.16 14.663 -15.299 13.776 -15.441 12.863 C-15.572 12.052 -15.703 11.24 -15.838 10.404 C-16.021 7.683 -15.811 5.606 -15 3 C-10.333 -0.111 -5.481 -0.057 0 0 Z " fill="#7DD283" transform="translate(440,232)"/>
<path d="M0 0 C5.015 0.358 9.371 2.164 14 4 C13.384 9.882 11.173 14.961 8.938 20.375 C8.56 21.302 8.183 22.229 7.795 23.184 C6.869 25.458 5.937 27.73 5 30 C2.68 29.269 0.371 28.517 -1.938 27.75 C-2.597 27.545 -3.256 27.34 -3.936 27.129 C-5.84 26.484 -5.84 26.484 -9 25 C-10.05 22.61 -10.097 21.357 -9.411 18.833 C-9.083 18.071 -8.756 17.309 -8.418 16.523 C-8.063 15.688 -7.708 14.853 -7.342 13.992 C-6.961 13.129 -6.58 12.265 -6.188 11.375 C-6.003 10.939 -6.003 10.939 -5.068 8.734 C-2.29 2.29 -2.29 2.29 0 0 Z " fill="#7DD283" transform="translate(402,77)"/>
<path d="M0 0 C5.562 1.457 10.039 3.836 13.152 8.859 C15.123 13.837 14.563 19.341 12.875 24.312 C10.267 28.05 7.395 30.962 3.125 32.812 C-5.974 33.615 -5.974 33.615 -9.5 31.5 C-9.995 31.005 -10.49 30.51 -11 30 C-9.928 29.608 -8.855 29.216 -7.75 28.812 C-2.769 26.679 -0.038 22.942 2 18 C2.586 11.812 2.558 5.755 0 0 Z " fill="#F25F86" transform="translate(317,265)"/>
<path d="M0 0 C1.794 1.122 3.585 2.248 5.375 3.375 C6.373 4.001 7.37 4.628 8.398 5.273 C11 7 11 7 13 9 C12.359 9.424 11.719 9.848 11.059 10.285 C2.438 16.131 -3.866 21.891 -9 31 C-11.916 27.46 -14.501 23.837 -17 20 C-15.989 19.67 -14.979 19.34 -13.938 19 C-8.302 16.554 -4.344 12.068 -1.895 6.477 C-1.173 4.33 -0.535 2.2 0 0 Z " fill="#72C0C3" transform="translate(78,430)"/>
<path d="M0 0 C1.329 1.712 1.329 1.712 2.82 4.086 C3.355 4.934 3.89 5.782 4.441 6.656 C4.997 7.553 5.553 8.451 6.125 9.375 C6.688 10.264 7.252 11.154 7.832 12.07 C12 18.731 12 18.731 12 21 C8.178 22.798 5.218 23.615 1 23 C-3.776 19.299 -6.797 14.051 -10 9 C-8.22 4.995 -4.824 0 0 0 Z " fill="#585172" transform="translate(101,129)"/>
<path d="M0 0 C3.791 4.692 6.604 9.954 7.75 15.875 C6.73 20.124 5.12 21.954 2 25 C1.34 25 0.68 25 0 25 C-1.329 23.288 -1.329 23.288 -2.82 20.914 C-3.355 20.066 -3.89 19.218 -4.441 18.344 C-4.719 17.895 -4.719 17.895 -6.125 15.625 C-6.688 14.736 -7.252 13.846 -7.832 12.93 C-12 6.269 -12 6.269 -12 4 C-10.755 3.323 -9.504 2.659 -8.25 2 C-7.554 1.629 -6.858 1.257 -6.141 0.875 C-4 0 -4 0 0 0 Z " fill="#585172" transform="translate(164,92)"/>
<path d="M0 0 C2.869 2.744 3.913 4.117 4.312 8.188 C3.869 13.6 2.037 17.148 -2.062 20.875 C-6.167 23.258 -10.36 23.657 -15 23 C-20.5 20 -20.5 20 -22 17 C-21.348 16.974 -20.695 16.948 -20.023 16.922 C-12.873 16.458 -8.849 14.929 -3.75 9.688 C-1.645 6.455 -0.88 3.741 0 0 Z " fill="#B69191" transform="translate(313,40)"/>
<path d="M0 0 C2.841 2.717 3.91 4.098 4.312 8.125 C3.932 12.849 2.769 16.158 0 20 C-4.21 23.208 -8.43 23.562 -13.586 23.438 C-17.501 22.728 -19.299 20.843 -22 18 C-19.744 16.872 -18.253 16.837 -15.75 16.688 C-11.217 16.207 -8.518 15.027 -5 12 C-1.837 8.067 -0.478 5.022 0 0 Z " fill="#E8B27C" transform="translate(479,457)"/>
<path d="M0 0 C2.472 2.966 4.256 5.512 6 9 C0.72 12.3 -4.56 15.6 -10 19 C-14.5 13.375 -14.5 13.375 -16 10 C-15.336 9.758 -14.672 9.515 -13.988 9.266 C-2.441 4.883 -2.441 4.883 0 0 Z " fill="#7DD182" transform="translate(108,41)"/>
<path d="M0 0 C4.187 3.828 7.378 7.946 10 13 C10 13.66 10 14.32 10 15 C3.384 15.551 -1.442 14.76 -7 11 C-8.727 9.488 -8.727 9.488 -10 8 C-10 7.34 -10 6.68 -10 6 C-7.812 4.492 -7.812 4.492 -5 2.875 C-4.072 2.336 -3.144 1.797 -2.188 1.242 C-1.466 0.832 -0.744 0.422 0 0 Z " fill="#AAECB1" transform="translate(74,38)"/>
<path d="M0 0 C4.556 0.556 4.556 0.556 6 2 C5.591 7.822 4.584 12.74 2 18 C-0.562 19.062 -0.562 19.062 -3 19 C-3.66 18.67 -4.32 18.34 -5 18 C-5.372 12.178 -4.376 7.352 -2 2 C-1.34 1.34 -0.68 0.68 0 0 Z " fill="#0E0E0E" transform="translate(29,167)"/>
<path d="M0 0 C2.5 0.062 2.5 0.062 5 1 C7.767 5.217 7.19 10.145 7 15 C4.688 16.125 4.688 16.125 2 17 C-1 15 -1 15 -1.688 12.875 C-2.09 9.172 -2.183 5.728 -2 2 C-1.34 1.34 -0.68 0.68 0 0 Z " fill="#0E0E0E" transform="translate(420,371)"/>
<path d="M0 0 C3.949 0.551 7.349 1.389 11 3 C10.432 8.541 8.371 13.037 6 18 C2.142 14.498 0.281 10.113 -0.188 4.922 C-0.188 3.28 -0.102 1.639 0 0 Z " fill="#ABEEB2" transform="translate(405,78)"/>
<path d="M0 0 C1.263 5.075 2.27 9.728 2 15 C-3.554 13.916 -6.152 11.119 -9.777 7.07 C-11 5 -11 5 -10.691 2.742 C-10.463 2.167 -10.235 1.592 -10 1 C-6.594 0.222 -3.492 -0.1 0 0 Z " fill="#AAECB1" transform="translate(440,232)"/>
<path d="M0 0 C1.917 0.79 3.834 1.582 5.75 2.375 C6.817 2.816 7.885 3.257 8.984 3.711 C11.376 4.733 13.694 5.802 16 7 C15.01 8.98 14.02 10.96 13 13 C7.459 12.432 2.963 10.371 -2 8 C-1.477 5.237 -0.891 2.674 0 0 Z " fill="#7BCF81" transform="translate(416,102)"/>
<path d="M0 0 C2.152 3.228 2.201 4.284 2 8 C-3.455 9.385 -8.367 10.24 -14 10 C-14.33 7.36 -14.66 4.72 -15 2 C-10.05 1.34 -5.1 0.68 0 0 Z " fill="#7DD182" transform="translate(465,247)"/>
<path d="M0 0 C2.188 3 2.188 3 4 6 C2.865 9.291 2.007 9.996 -1.125 11.75 C-2.074 12.162 -3.023 12.575 -4 13 C-4.839 11.879 -5.671 10.753 -6.5 9.625 C-6.732 9.312 -6.732 9.312 -7.906 7.727 C-9 6 -9 6 -9 4 C-3.706 0 -3.706 0 0 0 Z " fill="#0B0907" transform="translate(212,238)"/>
</svg>
