<?xml version="1.0" encoding="UTF-8"?>
<!-- Generator: visioncortex VTracer 0.6.12 -->
<svg version="1.1" xmlns="http://www.w3.org/2000/svg" width="512" height="512">
<path d="M0 0 C0.733 -0.012 1.466 -0.024 2.221 -0.037 C4.128 -0.042 6.034 0.065 7.938 0.188 C10.529 2.779 10.186 4.559 10.219 8.091 C10.217 8.924 10.214 9.758 10.212 10.617 C10.217 11.499 10.222 12.382 10.228 13.292 C10.243 16.268 10.243 19.244 10.244 22.22 C10.252 24.347 10.26 26.474 10.269 28.601 C10.291 34.395 10.3 40.189 10.305 45.983 C10.309 49.604 10.315 53.225 10.322 56.847 C10.346 69.486 10.359 82.125 10.363 94.764 C10.367 106.534 10.397 118.303 10.438 130.072 C10.473 140.18 10.489 150.288 10.489 160.397 C10.49 166.432 10.499 172.466 10.527 178.501 C10.554 184.187 10.556 189.872 10.54 195.558 C10.538 197.638 10.544 199.717 10.56 201.797 C10.674 217.518 9.261 230.207 -2.062 242.188 C-6.647 246.736 -11.341 250.208 -17.062 253.188 C-15.852 260.256 -14.41 267.207 -12.632 274.154 C-12.398 275.082 -12.164 276.01 -11.922 276.967 C-11.418 278.96 -10.913 280.953 -10.406 282.946 C-9.604 286.102 -8.807 289.26 -8.012 292.418 C-5.751 301.388 -3.482 310.357 -1.207 319.323 C0.189 324.827 1.578 330.331 2.963 335.837 C3.491 337.929 4.021 340.02 4.554 342.111 C5.298 345.028 6.033 347.948 6.766 350.868 C6.877 351.298 6.877 351.298 7.437 353.471 C8.506 357.771 9.395 361.722 8.938 366.188 C5.087 370.038 -1.809 368.557 -7 368.562 C-8.301 368.587 -9.603 368.611 -10.943 368.637 C-12.188 368.641 -13.433 368.644 -14.715 368.648 C-15.859 368.657 -17.004 368.665 -18.183 368.673 C-21.062 368.188 -21.062 368.188 -22.595 366.686 C-24.629 363.223 -25.483 359.585 -26.423 355.719 C-26.638 354.866 -26.853 354.014 -27.074 353.135 C-27.781 350.322 -28.475 347.505 -29.168 344.688 C-29.656 342.73 -30.145 340.772 -30.635 338.814 C-31.658 334.714 -32.676 330.611 -33.688 326.508 C-34.987 321.246 -36.297 315.988 -37.613 310.73 C-38.623 306.689 -39.628 302.646 -40.631 298.603 C-41.113 296.664 -41.596 294.724 -42.08 292.785 C-42.755 290.077 -43.424 287.367 -44.091 284.656 C-44.292 283.854 -44.493 283.052 -44.7 282.225 C-45.549 278.747 -46.062 275.791 -46.062 272.188 C-64.543 272.188 -83.022 272.188 -102.062 272.188 C-102.062 303.868 -102.062 335.548 -102.062 368.188 C-115.366 368.249 -128.669 368.311 -142.375 368.375 C-144.476 368.389 -144.476 368.389 -155.107 368.458 C-160.235 368.471 -160.235 368.471 -162.635 368.474 C-164.312 368.478 -165.99 368.489 -167.667 368.504 C-170.207 368.526 -172.746 368.529 -175.286 368.528 C-176.034 368.539 -176.782 368.55 -177.553 368.561 C-180.467 368.543 -182.548 368.526 -185.021 366.897 C-186.858 363.881 -186.546 360.488 -186.5 357.062 C-186.494 356.297 -186.488 355.532 -186.481 354.743 C-186.318 348.836 -185.332 344.2 -182.062 339.188 C-181.506 338.28 -180.949 337.373 -180.375 336.438 C-176.497 332.664 -171.589 329.188 -166.062 329.188 C-166.062 278.697 -166.062 228.207 -166.062 176.188 C-218.863 176.188 -271.663 176.188 -326.062 176.188 C-326.062 226.678 -326.062 277.168 -326.062 329.188 C-324.413 329.517 -322.762 329.848 -321.062 330.188 C-314.567 333.402 -310.066 337.563 -307.062 344.188 C-305.845 348.389 -305.842 352.404 -305.812 356.75 C-305.802 357.134 -305.802 357.134 -305.75 359.076 C-305.711 364.604 -305.711 364.604 -307.097 366.908 C-310.156 368.899 -313.31 368.579 -316.839 368.528 C-317.642 368.528 -318.445 368.529 -319.273 368.529 C-321.873 368.527 -324.474 368.504 -327.074 368.48 C-328.68 368.476 -330.285 368.473 -331.89 368.471 C-337.844 368.456 -343.797 368.414 -349.75 368.375 C-356.402 368.344 -356.402 368.344 -390.062 368.188 C-390.062 331.228 -390.062 294.267 -390.062 256.188 C-407.222 256.188 -424.382 256.188 -442.062 256.188 C-442.392 258.827 -442.722 261.467 -443.062 264.188 C-443.378 265.772 -443.723 267.351 -444.112 268.919 C-444.319 269.766 -444.526 270.612 -444.74 271.485 C-444.853 271.935 -444.853 271.935 -445.423 274.212 C-445.663 275.182 -445.902 276.152 -446.148 277.152 C-446.935 280.337 -447.729 283.52 -448.523 286.703 C-449.075 288.924 -449.627 291.145 -450.179 293.366 C-451.334 298.01 -452.493 302.653 -453.654 307.296 C-455.142 313.248 -456.617 319.203 -458.089 325.158 C-459.224 329.741 -460.367 334.321 -461.512 338.901 C-462.06 341.097 -462.604 343.293 -463.146 345.49 C-463.903 348.556 -464.671 351.618 -465.443 354.681 C-465.664 355.589 -465.886 356.497 -466.114 357.433 C-468.154 365.432 -468.154 365.432 -471.062 368.188 C-473.942 368.673 -473.942 368.673 -477.41 368.648 C-478.032 368.647 -478.032 368.647 -481.182 368.637 C-482.483 368.612 -483.784 368.588 -485.125 368.562 C-485.778 368.562 -485.778 368.562 -489.08 368.559 C-498.782 368.468 -498.782 368.468 -501.062 366.188 C-501.269 359.356 -499.344 352.486 -497.654 345.92 C-497.41 344.948 -497.166 343.976 -496.915 342.975 C-496.115 339.795 -495.305 336.618 -494.496 333.441 C-493.936 331.221 -493.377 329 -492.819 326.78 C-491.354 320.958 -489.88 315.139 -488.405 309.32 C-486.038 299.982 -483.681 290.642 -481.328 281.301 C-480.505 278.039 -479.677 274.778 -478.848 271.517 C-478.346 269.528 -477.844 267.539 -477.342 265.549 C-477.225 265.095 -477.225 265.095 -476.638 262.796 C-476.429 261.965 -476.22 261.134 -476.005 260.277 C-475.913 259.917 -475.913 259.917 -475.45 258.09 C-475.062 256.188 -475.062 256.188 -475.062 253.188 C-477.223 251.609 -477.223 251.609 -480.125 249.938 C-490.667 243.463 -497.543 234.981 -501.416 223.085 C-502.81 216.84 -502.487 210.376 -502.467 204.007 C-502.472 202.378 -502.479 200.75 -502.487 199.121 C-502.505 194.72 -502.504 190.32 -502.498 185.919 C-502.495 182.241 -502.501 178.563 -502.507 174.885 C-502.521 166.21 -502.52 157.535 -502.509 148.86 C-502.497 139.914 -502.511 130.968 -502.538 122.022 C-502.56 114.332 -502.567 106.642 -502.561 98.951 C-502.557 94.362 -502.56 89.773 -502.577 85.184 C-502.593 80.873 -502.589 76.562 -502.57 72.251 C-502.566 70.67 -502.569 69.088 -502.58 67.507 C-502.593 65.347 -502.581 63.189 -502.564 61.03 C-502.563 59.822 -502.563 58.615 -502.563 57.37 C-501.964 53.564 -500.734 51.912 -498.062 49.188 C-494.443 47.378 -490.236 47.917 -486.25 47.875 C-485.799 47.86 -485.799 47.86 -483.514 47.787 C-479.076 47.745 -476.74 47.751 -472.926 50.207 C-472.311 50.861 -471.696 51.514 -471.062 52.188 C-470.988 51.149 -470.913 50.11 -470.836 49.039 C-469.903 38.406 -467.804 30.445 -459.812 22.812 C-451.28 16.45 -442.585 15.541 -432.186 15.666 C-430.065 15.687 -427.948 15.666 -425.828 15.641 C-414.944 15.618 -405.999 17.365 -397.887 25 C-393.574 30.171 -390.394 36.297 -389.625 43 C-388.885 47.193 -386.984 48.946 -384.047 51.902 C-381.462 53.576 -380.106 53.544 -377.062 53.188 C-374.983 51.676 -374.983 51.676 -372.918 49.531 C-372.137 48.734 -371.356 47.936 -370.551 47.115 C-369.721 46.243 -368.891 45.371 -368.035 44.473 C-367.169 43.587 -366.302 42.702 -365.409 41.789 C-362.166 38.474 -358.945 35.137 -355.726 31.799 C-352.572 28.53 -349.399 25.281 -346.223 22.035 C-345.394 21.165 -344.566 20.296 -343.713 19.399 C-342.928 18.599 -342.144 17.798 -341.336 16.973 C-340.995 16.619 -340.995 16.619 -339.269 14.826 C-336.52 12.785 -334.453 12.411 -331.062 12.188 C-328.938 13.375 -328.938 13.375 -327.062 15.188 C-326.391 15.832 -325.719 16.477 -325.027 17.141 C-316.314 26.218 -316.314 26.218 -315.75 32.875 C-315.991 43.044 -323.737 49.441 -330.488 56.109 C-331.52 57.141 -332.551 58.174 -333.582 59.208 C-335.735 61.362 -337.895 63.51 -340.06 65.652 C-342.823 68.386 -345.569 71.135 -348.311 73.889 C-350.435 76.021 -352.567 78.145 -354.702 80.267 C-355.717 81.278 -356.73 82.29 -357.74 83.305 C-369.956 95.546 -369.956 95.546 -377.012 96.648 C-377.915 96.62 -378.819 96.592 -379.75 96.562 C-380.661 96.55 -381.573 96.537 -382.512 96.523 C-385.062 96.188 -385.062 96.188 -389.062 94.188 C-389.392 105.407 -389.722 116.627 -390.062 128.188 C-310.863 128.188 -231.663 128.188 -150.062 128.188 C-150.062 120.928 -150.062 113.668 -150.062 106.188 C-145.057 98.679 -145.057 98.679 -140.062 96.188 C-137.079 95.688 -134.182 95.719 -131.164 95.797 C-130.329 95.803 -129.494 95.808 -128.634 95.814 C-125.984 95.836 -123.336 95.886 -120.688 95.938 C-118.884 95.958 -117.081 95.976 -115.277 95.992 C-110.872 96.036 -106.467 96.105 -102.062 96.188 C-102.071 95.508 -102.08 94.829 -102.089 94.129 C-102.178 87.023 -102.238 79.917 -102.282 72.811 C-102.302 70.163 -102.33 67.515 -102.364 64.868 C-102.413 61.05 -102.436 57.232 -102.453 53.414 C-102.474 52.241 -102.494 51.067 -102.516 49.859 C-102.518 39.579 -100.195 31.538 -93.062 23.945 C-84.348 16.286 -75.747 15.953 -64.638 15.892 C-63.182 15.881 -61.725 15.86 -60.269 15.831 C-48.334 15.588 -39.28 16.923 -29.949 24.918 C-27.095 28.351 -25.133 32.247 -23.062 36.188 C-23.048 35.552 -23.033 34.917 -23.018 34.263 C-22.943 31.362 -22.847 28.463 -22.75 25.562 C-22.727 24.563 -22.705 23.564 -22.682 22.535 C-22.44 15.9 -21.816 11.146 -17.125 6.105 C-16.444 5.534 -15.764 4.963 -15.062 4.375 C-14.382 3.791 -13.701 3.207 -13 2.605 C-8.981 -0.336 -4.764 0.004 0 0 Z " fill="#FAAE34" transform="translate(502.0625,143.8125)"/>
<path d="M0 0 C0.366 -0.006 0.366 -0.006 2.221 -0.037 C4.128 -0.042 6.034 0.065 7.938 0.188 C10.529 2.779 10.186 4.559 10.219 8.091 C10.217 8.924 10.214 9.758 10.212 10.617 C10.217 11.499 10.222 12.382 10.228 13.292 C10.243 16.268 10.243 19.244 10.244 22.22 C10.252 24.347 10.26 26.474 10.269 28.601 C10.291 34.395 10.3 40.189 10.305 45.983 C10.309 49.604 10.315 53.225 10.322 56.847 C10.346 69.486 10.359 82.125 10.363 94.764 C10.367 106.534 10.397 118.303 10.438 130.072 C10.473 140.18 10.489 150.288 10.489 160.397 C10.49 166.432 10.499 172.466 10.527 178.501 C10.554 184.187 10.556 189.872 10.54 195.558 C10.538 197.638 10.544 199.717 10.56 201.797 C10.674 217.518 9.261 230.207 -2.062 242.188 C-6.647 246.736 -11.341 250.208 -17.062 253.188 C-15.852 260.256 -14.41 267.207 -12.632 274.154 C-12.398 275.082 -12.164 276.01 -11.922 276.967 C-11.418 278.96 -10.913 280.953 -10.406 282.946 C-9.604 286.102 -8.807 289.26 -8.012 292.418 C-5.751 301.388 -3.482 310.357 -1.207 319.323 C0.189 324.827 1.578 330.331 2.963 335.837 C3.491 337.929 4.021 340.02 4.554 342.111 C5.298 345.028 6.033 347.948 6.766 350.868 C6.877 351.298 6.877 351.298 7.437 353.471 C8.506 357.771 9.395 361.722 8.938 366.188 C5.087 370.038 -1.809 368.557 -7 368.562 C-8.301 368.587 -9.603 368.611 -10.943 368.637 C-12.188 368.641 -13.433 368.644 -14.715 368.648 C-15.859 368.657 -17.004 368.665 -18.183 368.673 C-21.062 368.188 -21.062 368.188 -22.595 366.686 C-24.629 363.223 -25.483 359.585 -26.423 355.719 C-26.638 354.866 -26.853 354.014 -27.074 353.135 C-27.781 350.322 -28.475 347.505 -29.168 344.688 C-29.656 342.73 -30.145 340.772 -30.635 338.814 C-31.658 334.714 -32.676 330.611 -33.688 326.508 C-34.987 321.246 -36.297 315.988 -37.613 310.73 C-38.623 306.689 -39.628 302.646 -40.631 298.603 C-41.113 296.664 -41.596 294.724 -42.08 292.785 C-42.755 290.077 -43.424 287.367 -44.091 284.656 C-44.292 283.854 -44.493 283.052 -44.7 282.225 C-45.549 278.747 -46.062 275.791 -46.062 272.188 C-64.543 272.188 -83.023 272.188 -102.062 272.188 C-102.062 224.668 -102.062 177.147 -102.062 128.188 C-117.903 128.188 -133.743 128.188 -150.062 128.188 C-150.062 106.188 -150.062 106.188 -146.062 100.188 C-141.162 95.912 -137.361 95.637 -131.164 95.797 C-130.329 95.803 -129.494 95.808 -128.634 95.814 C-125.984 95.836 -123.336 95.886 -120.688 95.938 C-118.884 95.958 -117.081 95.976 -115.277 95.992 C-110.872 96.036 -106.467 96.105 -102.062 96.188 C-102.071 95.508 -102.08 94.829 -102.089 94.129 C-102.178 87.023 -102.238 79.917 -102.282 72.811 C-102.302 70.163 -102.33 67.515 -102.364 64.868 C-102.413 61.05 -102.436 57.232 -102.453 53.414 C-102.474 52.241 -102.494 51.067 -102.516 49.859 C-102.518 39.579 -100.195 31.538 -93.062 23.945 C-84.348 16.286 -75.747 15.953 -64.638 15.892 C-63.182 15.881 -61.725 15.86 -60.269 15.831 C-48.334 15.588 -39.28 16.923 -29.949 24.918 C-27.095 28.351 -25.133 32.247 -23.062 36.188 C-23.048 35.552 -23.033 34.917 -23.018 34.263 C-22.943 31.362 -22.847 28.463 -22.75 25.562 C-22.727 24.563 -22.705 23.564 -22.682 22.535 C-22.44 15.9 -21.816 11.146 -17.125 6.105 C-16.444 5.534 -15.764 4.963 -15.062 4.375 C-14.382 3.791 -13.701 3.207 -13 2.605 C-8.981 -0.336 -4.764 0.004 0 0 Z " fill="#C3E1FE" transform="translate(502.0625,143.8125)"/>
<path d="M0 0 C19.493 14.498 32.403 34.491 36.625 58.562 C37.916 78.807 36.541 96.225 27.016 114.195 C23.706 122.21 26.835 128.851 29.625 136.562 C34.387 149.722 34.387 149.722 33.625 155.562 C31.625 157.562 31.625 157.562 28.75 157.938 C22.054 157.743 15.648 154.656 9.43 152.406 C-2.838 148.102 -2.838 148.102 -9.742 150.953 C-10.9 151.567 -12.057 152.18 -13.25 152.812 C-32.692 162.368 -56.208 164.009 -76.984 157.75 C-78.103 157.358 -79.222 156.966 -80.375 156.562 C-81.411 156.212 -82.448 155.861 -83.516 155.5 C-105.915 147.056 -122.58 129.976 -132.648 108.543 C-141.068 89.729 -142.717 66.015 -136.773 46.203 C-134.15 39.374 -130.983 32.922 -127.375 26.562 C-126.892 25.71 -126.408 24.858 -125.91 23.98 C-113.532 4.068 -92.926 -8.999 -70.375 -14.438 C-45.004 -19.183 -21.223 -14.237 0 0 Z " fill="#FE646F" transform="translate(331.375,15.4375)"/>
<path d="M0 0 C2.668 2.074 2.668 2.074 5.188 4.688 C6.027 5.537 6.866 6.386 7.73 7.262 C11.512 11.824 13.638 15.909 13.332 21.956 C11.875 30.923 4.711 36.861 -1.426 42.922 C-2.458 43.954 -3.489 44.987 -4.52 46.02 C-6.673 48.175 -8.833 50.322 -10.998 52.464 C-13.76 55.198 -16.506 57.947 -19.248 60.702 C-21.373 62.833 -23.505 64.958 -25.639 67.079 C-26.654 68.09 -27.667 69.103 -28.678 70.117 C-40.893 82.358 -40.893 82.358 -47.949 83.461 C-48.853 83.433 -49.756 83.404 -50.688 83.375 C-51.599 83.362 -52.51 83.349 -53.449 83.336 C-56 83 -56 83 -60 81 C-60.33 92.22 -60.66 103.44 -61 115 C27.11 115 115.22 115 206 115 C206 123.25 206 131.5 206 140 C204 142 204 142 202.052 142.248 C201.248 142.248 200.444 142.247 199.615 142.246 C199.152 142.248 199.152 142.248 196.806 142.258 C195.781 142.252 194.755 142.247 193.699 142.241 C193.157 142.241 193.157 142.241 190.415 142.246 C186.759 142.249 183.103 142.238 179.447 142.227 C176.836 142.226 174.225 142.227 171.613 142.228 C165.98 142.229 160.346 142.223 154.712 142.211 C146.566 142.195 138.42 142.19 130.274 142.187 C117.059 142.183 103.844 142.17 90.629 142.151 C77.789 142.133 64.95 142.118 52.11 142.11 C51.319 142.109 50.528 142.109 49.713 142.108 C45.745 142.106 41.777 142.103 37.809 142.101 C4.872 142.08 -28.064 142.044 -61 142 C-61 148.93 -61 155.86 -61 163 C-76.84 163 -92.68 163 -109 163 C-109 131.32 -109 99.64 -109 67 C-119.56 67 -130.12 67 -141 67 C-141.092 61.486 -141.172 55.974 -141.22 50.459 C-141.24 48.588 -141.267 46.716 -141.302 44.844 C-141.541 31.636 -141.536 20.911 -132 10.758 C-123.285 3.098 -114.684 2.766 -103.576 2.705 C-102.119 2.693 -100.663 2.673 -99.207 2.643 C-87.546 2.406 -77.694 3.464 -68.824 11.812 C-64.512 16.984 -61.332 23.11 -60.562 29.812 C-59.822 34.006 -57.921 35.758 -54.984 38.715 C-52.398 40.39 -51.045 40.356 -48 40 C-45.894 38.488 -45.894 38.488 -43.792 36.344 C-42.998 35.546 -42.204 34.749 -41.386 33.927 C-40.965 33.491 -40.965 33.491 -38.832 31.285 C-38.394 30.842 -38.394 30.842 -36.177 28.602 C-33.853 26.248 -31.539 23.885 -29.231 21.516 C-25.972 18.176 -22.692 14.856 -19.415 11.534 C-17.672 9.764 -15.932 7.99 -14.197 6.212 C-13.805 5.812 -13.805 5.812 -11.82 3.785 C-11.129 3.077 -10.437 2.369 -9.725 1.639 C-6.394 -1.525 -4.348 -1.163 0 0 Z " fill="#FD4755" transform="translate(173,157)"/>
<path d="M0 0 C0.903 -0.029 1.806 -0.058 2.736 -0.088 C7.069 -0.129 9.502 -0.11 13.262 2.207 C16.467 5.711 16.314 7.87 16.319 12.549 C16.321 13.196 16.323 13.842 16.325 14.509 C16.331 16.686 16.33 18.863 16.329 21.04 C16.332 22.597 16.336 24.154 16.34 25.711 C16.348 29.07 16.353 32.428 16.356 35.787 C16.362 41.098 16.379 46.409 16.398 51.721 C16.404 53.538 16.41 55.356 16.416 57.174 C16.42 58.084 16.423 58.994 16.426 59.932 C16.468 72.301 16.501 84.669 16.513 97.038 C16.522 105.376 16.544 113.715 16.583 122.053 C16.603 126.466 16.615 130.88 16.61 135.293 C16.605 139.446 16.619 143.599 16.647 147.753 C16.654 149.276 16.654 150.799 16.647 152.321 C16.638 154.404 16.654 156.486 16.675 158.568 C16.678 159.733 16.68 160.897 16.682 162.097 C17.496 167.279 20.037 170.355 23.999 173.653 C27.688 175.573 30.061 175.828 34.203 175.858 C34.54 175.864 34.54 175.864 36.245 175.89 C38.452 175.919 40.659 175.921 42.867 175.922 C44.406 175.937 45.944 175.954 47.482 175.972 C51.517 176.016 55.551 176.036 59.585 176.051 C64.434 176.074 69.282 176.126 74.131 176.174 C81.483 176.242 88.835 176.274 96.188 176.312 C96.188 186.873 96.188 197.433 96.188 208.312 C79.028 208.312 61.868 208.312 44.188 208.312 C44.023 209.632 44.023 209.632 43.188 216.312 C42.872 217.897 42.527 219.476 42.138 221.044 C41.931 221.891 41.724 222.737 41.51 223.61 C41.284 224.51 41.059 225.41 40.827 226.337 C40.587 227.307 40.348 228.277 40.102 229.277 C39.315 232.462 38.521 235.645 37.727 238.828 C37.175 241.049 36.623 243.27 36.071 245.491 C34.916 250.135 33.757 254.778 32.596 259.421 C31.108 265.373 29.633 271.328 28.161 277.283 C27.026 281.866 25.883 286.446 24.738 291.026 C24.19 293.222 23.646 295.418 23.104 297.615 C22.347 300.681 21.579 303.743 20.807 306.806 C20.586 307.714 20.364 308.622 20.136 309.558 C18.096 317.557 18.096 317.557 15.188 320.312 C12.308 320.798 12.308 320.798 8.84 320.773 C8.218 320.772 8.218 320.772 5.068 320.762 C3.767 320.737 2.466 320.713 1.125 320.688 C0.472 320.687 0.472 320.687 -2.83 320.684 C-12.532 320.593 -12.532 320.593 -14.812 318.312 C-15.019 311.481 -13.094 304.611 -11.404 298.045 C-11.16 297.073 -10.916 296.101 -10.665 295.1 C-9.865 291.92 -9.055 288.743 -8.246 285.566 C-7.686 283.346 -7.127 281.125 -6.569 278.905 C-5.104 273.083 -3.63 267.264 -2.155 261.445 C0.212 252.107 2.569 242.767 4.922 233.426 C5.745 230.164 6.573 226.903 7.402 223.642 C7.904 221.653 8.406 219.664 8.908 217.674 C9.141 216.765 9.373 215.857 9.612 214.921 C9.717 214.505 9.717 214.505 10.245 212.402 C10.337 212.042 10.337 212.042 10.8 210.215 C11.188 208.312 11.188 208.312 11.188 205.312 C9.027 203.734 9.027 203.734 6.125 202.062 C-4.417 195.588 -11.293 187.106 -15.166 175.21 C-16.56 168.965 -16.237 162.501 -16.217 156.132 C-16.222 154.503 -16.229 152.875 -16.237 151.246 C-16.255 146.845 -16.254 142.445 -16.248 138.044 C-16.245 134.366 -16.251 130.688 -16.257 127.01 C-16.271 118.335 -16.27 109.66 -16.259 100.985 C-16.247 92.039 -16.261 83.093 -16.288 74.147 C-16.31 66.457 -16.317 58.767 -16.311 51.076 C-16.307 46.487 -16.31 41.898 -16.327 37.309 C-16.343 32.998 -16.339 28.687 -16.32 24.376 C-16.316 22.795 -16.319 21.213 -16.33 19.632 C-16.343 17.472 -16.331 15.314 -16.314 13.155 C-16.313 11.947 -16.313 10.74 -16.313 9.495 C-15.714 5.689 -14.484 4.037 -11.812 1.312 C-8.193 -0.497 -3.986 0.042 0 0 Z " fill="#0055A3" transform="translate(15.8125,191.6875)"/>
<path d="M0 0 C1.456 -0.011 2.913 -0.032 4.369 -0.062 C16.23 -0.303 25.82 0.844 34.818 9.295 C41.178 16.532 42.731 23.434 42.689 32.827 C42.689 33.7 42.689 34.573 42.69 35.472 C42.689 38.293 42.681 41.115 42.673 43.936 C42.672 45.679 42.671 47.422 42.67 49.166 C42.665 55.626 42.651 62.085 42.638 68.545 C42.618 82.983 42.597 97.42 42.576 112.295 C0.336 112.295 -41.904 112.295 -85.424 112.295 C-85.424 90.295 -85.424 90.295 -81.424 84.295 C-76.524 80.019 -72.723 79.745 -66.526 79.905 C-65.691 79.91 -64.856 79.916 -63.996 79.922 C-61.346 79.944 -58.698 79.994 -56.049 80.045 C-54.246 80.065 -52.443 80.083 -50.639 80.1 C-46.234 80.144 -41.829 80.213 -37.424 80.295 C-37.433 79.616 -37.442 78.936 -37.451 78.236 C-37.54 71.131 -37.6 64.025 -37.644 56.919 C-37.664 54.271 -37.691 51.623 -37.726 48.975 C-37.775 45.157 -37.797 41.34 -37.815 37.522 C-37.836 36.348 -37.856 35.175 -37.878 33.966 C-37.88 23.686 -35.556 15.646 -28.424 8.053 C-19.709 0.393 -11.108 0.061 0 0 Z " fill="#E9F5FF" transform="translate(437.42431640625,159.704833984375)"/>
<path d="M0 0 C0.733 -0.012 1.466 -0.024 2.221 -0.037 C4.128 -0.042 6.034 0.065 7.938 0.188 C10.529 2.779 10.186 4.559 10.219 8.091 C10.217 8.924 10.214 9.758 10.212 10.617 C10.214 11.058 10.214 11.058 10.228 13.292 C10.243 16.268 10.243 19.244 10.244 22.22 C10.252 24.347 10.26 26.474 10.269 28.601 C10.291 34.395 10.3 40.189 10.305 45.983 C10.309 49.604 10.315 53.225 10.322 56.847 C10.346 69.486 10.359 82.125 10.363 94.764 C10.367 106.534 10.397 118.303 10.438 130.072 C10.473 140.18 10.489 150.288 10.489 160.397 C10.49 166.432 10.499 172.466 10.527 178.501 C10.554 184.187 10.556 189.872 10.54 195.558 C10.538 197.638 10.544 199.717 10.56 201.797 C10.674 217.518 9.261 230.207 -2.062 242.188 C-13.002 253.041 -13.002 253.041 -19.77 253.285 C-20.526 253.253 -21.283 253.221 -22.062 253.188 C-22.131 222.842 -22.184 192.497 -22.216 162.152 C-22.219 158.57 -22.223 154.988 -22.227 151.405 C-22.228 150.692 -22.229 149.979 -22.23 149.244 C-22.243 137.696 -22.266 126.147 -22.294 114.599 C-22.322 102.75 -22.339 90.9 -22.345 79.051 C-22.349 72.395 -22.358 65.739 -22.38 59.084 C-22.4 52.821 -22.406 46.559 -22.402 40.296 C-22.403 37.996 -22.409 35.696 -22.42 33.395 C-22.435 30.258 -22.431 27.12 -22.423 23.982 C-22.428 23.526 -22.428 23.526 -22.45 21.217 C-22.406 15.088 -21.444 10.747 -17.125 6.105 C-16.444 5.534 -15.764 4.963 -15.062 4.375 C-14.382 3.791 -13.701 3.207 -13 2.605 C-8.981 -0.336 -4.764 0.004 0 0 Z " fill="#0054A3" transform="translate(502.0625,143.8125)"/>
<path d="M0 0 C88.11 0 176.22 0 267 0 C267 8.25 267 16.5 267 25 C265 27 265 27 263.052 27.248 C262.248 27.248 261.444 27.247 260.615 27.246 C260.152 27.248 260.152 27.248 257.806 27.258 C256.781 27.252 255.755 27.247 254.699 27.241 C254.157 27.241 254.157 27.241 251.415 27.246 C247.759 27.249 244.103 27.238 240.447 27.227 C237.836 27.226 235.225 27.227 232.613 27.228 C226.98 27.229 221.346 27.223 215.712 27.211 C207.566 27.195 199.42 27.19 191.274 27.187 C178.059 27.183 164.844 27.17 151.629 27.151 C138.789 27.133 125.95 27.118 113.11 27.11 C112.319 27.109 111.528 27.109 110.713 27.108 C106.745 27.106 102.777 27.103 98.809 27.101 C65.872 27.08 32.936 27.044 0 27 C0 18.09 0 9.18 0 0 Z " fill="#FFD05A" transform="translate(112,272)"/>
<path d="M0 0 C10.56 0 21.12 0 32 0 C32 31.68 32 63.36 32 96 C47.84 96 63.68 96 80 96 C80 111.84 80 127.68 80 144 C63.021 144.16 63.021 144.16 55.766 144.195 C50.821 144.219 45.877 144.247 40.933 144.302 C36.945 144.345 32.958 144.369 28.97 144.38 C27.451 144.387 25.932 144.401 24.413 144.423 C22.28 144.452 20.148 144.456 18.015 144.454 C16.803 144.463 15.59 144.472 14.341 144.481 C9.153 143.734 6.092 141.24 2.688 137.375 C0.17 133.832 -0.124 132.024 -0.12 127.71 C-0.122 126.588 -0.123 125.467 -0.124 124.311 C-0.121 123.074 -0.117 121.838 -0.114 120.564 C-0.114 119.266 -0.114 117.969 -0.114 116.632 C-0.114 113.068 -0.108 109.504 -0.101 105.941 C-0.095 102.218 -0.095 98.496 -0.093 94.774 C-0.09 87.723 -0.082 80.671 -0.072 73.62 C-0.061 65.594 -0.055 57.567 -0.05 49.541 C-0.04 33.027 -0.022 16.514 0 0 Z " fill="#FEDECE" transform="translate(32,224)"/>
<path d="M0 0 C10.56 0 21.12 0 32 0 C32 50.49 32 100.98 32 153 C33.65 153.33 35.3 153.66 37 154 C43.496 157.214 47.996 161.376 51 168 C52.218 172.202 52.221 176.217 52.25 180.562 C52.271 181.33 52.291 182.098 52.312 182.889 C52.328 185.129 52.328 185.129 52 189 C51.01 189.99 50.02 190.98 49 192 C32.83 192 16.66 192 0 192 C0 128.64 0 65.28 0 0 Z " fill="#8AC9FE" transform="translate(144,320)"/>
<path d="M0 0 C10.56 0 21.12 0 32 0 C32 63.36 32 126.72 32 192 C15.83 192 -0.34 192 -17 192 C-20.301 188.699 -20.397 187.628 -20.468 183.147 C-20.458 182.398 -20.448 181.648 -20.438 180.875 C-20.431 180.11 -20.425 179.344 -20.419 178.556 C-20.256 172.649 -19.269 168.012 -16 163 C-15.722 162.546 -15.722 162.546 -14.312 160.25 C-10.434 156.477 -5.527 153 0 153 C0 102.51 0 52.02 0 0 Z " fill="#8AC9FE" transform="translate(336,320)"/>
<path d="M0 0 C8.193 5.938 14.012 13.591 16.543 23.457 C17.199 28.878 17.161 34.335 17.119 39.788 C17.106 42.321 17.14 44.85 17.178 47.383 C17.24 60.354 15.098 70.789 5.789 80.484 C-3.663 88.786 -12.863 90.848 -25.178 90.883 C-27.189 90.894 -29.197 90.944 -31.207 90.994 C-39.307 91.039 -45.798 90.365 -52.457 85.457 C-59.366 78.132 -60.771 71.696 -60.793 61.855 C-60.8 60.823 -60.806 59.791 -60.813 58.727 C-60.823 56.544 -60.828 54.36 -60.828 52.176 C-60.832 48.864 -60.868 45.554 -60.906 42.242 C-60.912 40.113 -60.916 37.984 -60.918 35.855 C-60.932 34.878 -60.947 33.901 -60.962 32.893 C-60.889 21.836 -57.276 12.366 -49.457 4.457 C-35.46 -7.455 -15.911 -9.992 0 0 Z " fill="#FCE3C1" transform="translate(463.45703125,37.54296875)"/>
<path d="M0 0 C9.893 6.025 16.206 14.811 19 26 C19.422 29.68 19.468 33.325 19.469 37.027 C19.473 37.542 19.473 37.542 19.492 40.145 C19.503 42.309 19.505 44.473 19.501 46.637 C19.5 49.925 19.542 53.211 19.586 56.498 C19.591 58.612 19.594 60.726 19.594 62.84 C19.61 63.81 19.627 64.78 19.643 65.78 C19.574 72.755 17.969 78.204 14 84 C6.182 91.437 -0.991 92.396 -11.535 92.426 C-13.532 92.437 -15.529 92.487 -17.525 92.537 C-29.598 92.603 -39.206 89.715 -48.027 81.246 C-55.002 73.305 -58.297 65.068 -58.371 54.523 C-58.38 53.717 -58.389 52.91 -58.398 52.079 C-58.413 50.377 -58.422 48.674 -58.426 46.971 C-58.437 44.403 -58.487 41.837 -58.537 39.27 C-58.667 26.185 -56.65 15.768 -47.246 5.973 C-34.476 -5.243 -15.22 -8.395 0 0 Z " fill="#FFCEBF" transform="translate(90,36)"/>
<path d="M0 0 C19.47 0 38.94 0 59 0 C59.12 26.084 59.12 26.084 59.146 37.178 C59.164 44.756 59.186 52.334 59.226 59.913 C59.259 66.021 59.277 72.128 59.285 78.236 C59.29 80.57 59.301 82.904 59.317 85.237 C59.339 88.499 59.342 91.759 59.341 95.021 C59.351 95.992 59.362 96.963 59.373 97.963 C59.371 98.407 59.371 98.407 59.361 100.653 C59.364 101.425 59.366 102.196 59.369 102.991 C58.899 105.549 58.043 106.435 56 108 C53.513 108.361 53.513 108.361 50.519 108.341 C49.382 108.34 48.246 108.34 47.075 108.339 C46.478 108.332 46.478 108.332 43.457 108.293 C42.908 108.291 42.908 108.291 40.13 108.284 C36.024 108.268 31.918 108.226 27.812 108.188 C23.223 108.157 23.223 108.157 0 108 C0 72.36 0 36.72 0 0 Z " fill="#E9F5FE" transform="translate(400,287)"/>
<path d="M0 0 C10.56 0 21.12 0 32 0 C32 63.36 32 126.72 32 192 C21.44 192 10.88 192 0 192 C0 128.64 0 65.28 0 0 Z " fill="#F6AA31" transform="translate(112,320)"/>
<path d="M0 0 C2.238 -0.002 4.476 -0.02 6.715 -0.039 C8.142 -0.042 9.569 -0.044 10.996 -0.045 C12.29 -0.049 13.585 -0.053 14.918 -0.058 C18.092 0.174 19.539 0.698 22.246 2.185 C22.162 19.753 22.067 37.32 21.959 54.887 C21.908 63.043 21.862 71.2 21.824 79.356 C21.791 86.463 21.752 93.571 21.703 100.678 C21.678 104.443 21.656 108.207 21.643 111.972 C21.628 116.17 21.597 120.368 21.565 124.566 C21.563 125.821 21.561 127.076 21.558 128.369 C21.547 129.508 21.536 130.647 21.525 131.82 C21.522 132.317 21.522 132.317 21.508 134.831 C21.246 137.185 21.246 137.185 19.246 139.185 C10.996 139.185 2.746 139.185 -5.754 139.185 C-5.754 114.435 -5.754 89.685 -5.754 64.185 C-16.314 64.185 -26.874 64.185 -37.754 64.185 C-37.846 58.671 -37.926 53.159 -37.974 47.645 C-37.994 45.773 -38.021 43.901 -38.056 42.03 C-38.295 28.822 -38.29 18.096 -28.754 7.943 C-19.907 0.167 -11.262 -0.001 0 0 Z " fill="#FD636E" transform="translate(69.75390625,159.814697265625)"/>
<path d="M0 0 C15.042 9.958 25.055 25.181 31 42 C31.393 43.035 31.786 44.07 32.191 45.137 C38.902 65.641 36.698 89.88 27.25 109.125 C26.943 109.704 26.943 109.704 25.391 112.633 C22.081 120.648 25.21 127.289 28 135 C32.762 148.159 32.762 148.159 32 154 C30 156 30 156 27.125 156.375 C20.429 156.181 14.023 153.094 7.805 150.844 C-4.463 146.539 -4.463 146.539 -11.367 149.391 C-12.525 150.004 -13.682 150.618 -14.875 151.25 C-34.317 160.805 -57.833 162.447 -78.609 156.188 C-79.728 155.796 -80.847 155.404 -82 155 C-83.036 154.649 -84.073 154.299 -85.141 153.938 C-100.197 148.262 -115.349 137.722 -124 124 C-120.481 125.31 -117.423 126.874 -114.25 128.875 C-106.14 133.799 -98.192 136.722 -89 139 C-88.306 139.208 -87.613 139.415 -86.898 139.629 C-69.199 144.515 -47.018 140.239 -31 132 C-30.02 131.497 -29.041 130.995 -28.031 130.477 C-6.799 118.821 7.132 100.254 14.125 77.309 C20.543 54.33 17.128 31.796 6.098 10.874 C4.922 8.867 3.62 7.013 2.246 5.137 C0 2 0 2 0 0 Z " fill="#FD4755" transform="translate(333,17)"/>
<path d="M0 0 C1.15 -0.004 2.3 -0.008 3.484 -0.012 C4.686 -0 5.887 0.011 7.125 0.023 C8.326 0.012 9.528 0 10.766 -0.012 C11.341 -0.01 11.341 -0.01 14.25 0 C15.304 0.003 16.359 0.007 17.445 0.01 C20.125 0.398 20.125 0.398 21.965 1.554 C23.615 4.177 23.527 6.223 23.566 9.309 C23.58 9.886 23.58 9.886 23.646 12.807 C23.66 14.013 23.674 15.218 23.688 16.461 C23.722 18.848 23.764 21.235 23.816 23.621 C23.823 24.151 23.823 24.151 23.854 26.832 C24.125 29.398 24.125 29.398 26.125 31.398 C28.691 31.67 28.691 31.67 31.902 31.707 C33.055 31.732 34.208 31.757 35.396 31.783 C37.837 31.818 40.277 31.85 42.717 31.877 C43.871 31.903 45.026 31.93 46.215 31.957 C46.745 31.964 46.745 31.964 49.429 31.998 C52.125 32.398 52.125 32.398 53.969 33.559 C55.615 36.179 55.514 38.193 55.523 41.273 C55.527 42.423 55.531 43.573 55.535 44.758 C55.524 45.959 55.512 47.161 55.5 48.398 C55.512 49.6 55.523 50.801 55.535 52.039 C55.531 53.189 55.527 54.339 55.523 55.523 C55.52 56.578 55.517 57.632 55.513 58.719 C55.125 61.398 55.125 61.398 53.969 63.238 C51.346 64.888 49.3 64.801 46.215 64.84 C45.638 64.853 45.638 64.853 42.717 64.92 C41.511 64.933 40.305 64.947 39.062 64.961 C36.676 64.995 34.289 65.038 31.902 65.09 C31.372 65.096 31.372 65.096 28.691 65.127 C26.125 65.398 26.125 65.398 24.125 67.398 C23.854 69.965 23.854 69.965 23.816 73.176 C23.791 74.329 23.766 75.482 23.74 76.67 C23.705 79.11 23.674 81.55 23.646 83.99 C23.62 85.145 23.594 86.299 23.566 87.488 C23.553 88.549 23.539 89.61 23.526 90.703 C23.125 93.398 23.125 93.398 21.965 95.243 C19.345 96.888 17.33 96.787 14.25 96.797 C13.1 96.801 11.95 96.805 10.766 96.809 C9.564 96.797 8.363 96.785 7.125 96.773 C5.924 96.785 4.722 96.797 3.484 96.809 C2.909 96.807 2.909 96.807 0 96.797 C-0.527 96.795 -0.527 96.795 -3.195 96.787 C-5.875 96.398 -5.875 96.398 -7.715 95.243 C-9.365 92.62 -9.277 90.574 -9.316 87.488 C-9.343 86.334 -9.369 85.18 -9.396 83.99 C-9.41 82.784 -9.424 81.578 -9.438 80.336 C-9.472 77.949 -9.514 75.562 -9.566 73.176 C-9.579 72.116 -9.591 71.056 -9.604 69.965 C-9.875 67.398 -9.875 67.398 -11.875 65.398 C-14.441 65.127 -14.441 65.127 -17.652 65.09 C-18.805 65.065 -19.958 65.04 -21.146 65.014 C-23.587 64.979 -26.027 64.947 -28.467 64.92 C-29.044 64.907 -29.044 64.907 -31.965 64.84 C-33.026 64.826 -34.086 64.813 -35.179 64.799 C-37.875 64.398 -37.875 64.398 -39.719 63.238 C-41.365 60.618 -41.264 58.603 -41.273 55.523 C-41.277 54.374 -41.281 53.224 -41.285 52.039 C-41.274 50.838 -41.262 49.636 -41.25 48.398 C-41.262 47.197 -41.273 45.996 -41.285 44.758 C-41.281 43.608 -41.277 42.458 -41.273 41.273 C-41.27 40.219 -41.267 39.165 -41.263 38.078 C-40.875 35.398 -40.875 35.398 -39.719 33.559 C-37.096 31.909 -35.05 31.996 -31.965 31.957 C-30.81 31.931 -29.656 31.904 -28.467 31.877 C-27.261 31.863 -26.055 31.85 -24.812 31.836 C-22.426 31.802 -20.039 31.759 -17.652 31.707 C-17.122 31.701 -17.122 31.701 -14.441 31.67 C-11.875 31.398 -11.875 31.398 -9.875 29.398 C-9.604 26.832 -9.604 26.832 -9.566 23.621 C-9.541 22.468 -9.516 21.315 -9.49 20.127 C-9.455 17.687 -9.424 15.247 -9.396 12.807 C-9.37 11.652 -9.344 10.498 -9.316 9.309 C-9.303 8.248 -9.289 7.187 -9.276 6.094 C-8.875 3.398 -8.875 3.398 -7.715 1.554 C-5.095 -0.092 -3.08 0.01 0 0 Z " fill="#FFFEFE" transform="translate(272.875,39.6015625)"/>
<path d="M0 0 C0.587 0.137 1.174 0.274 1.779 0.416 C8.415 1.866 14.846 2.408 21.625 2.625 C22.629 2.664 23.633 2.702 24.668 2.742 C27.112 2.835 29.556 2.921 32 3 C31.356 9.166 30.144 15.015 28.639 21.024 C28.4 21.995 28.161 22.965 27.914 23.964 C27.128 27.149 26.334 30.332 25.539 33.516 C24.987 35.737 24.435 37.958 23.883 40.179 C22.728 44.823 21.569 49.466 20.408 54.108 C18.92 60.06 17.445 66.015 15.973 71.971 C14.839 76.553 13.696 81.134 12.55 85.714 C12.003 87.909 11.458 90.105 10.917 92.302 C10.16 95.368 9.391 98.431 8.62 101.493 C8.398 102.401 8.177 103.309 7.949 104.245 C5.909 112.245 5.909 112.245 3 115 C0.121 115.486 0.121 115.486 -3.348 115.461 C-4.592 115.457 -5.837 115.453 -7.119 115.449 C-8.42 115.425 -9.722 115.4 -11.062 115.375 C-12.368 115.374 -13.673 115.372 -15.018 115.371 C-24.719 115.281 -24.719 115.281 -27 113 C-27.205 106.172 -25.286 99.298 -23.607 92.733 C-23.365 91.761 -23.123 90.789 -22.873 89.787 C-22.078 86.608 -21.274 83.431 -20.469 80.254 C-19.911 78.034 -19.355 75.813 -18.799 73.592 C-17.339 67.771 -15.871 61.951 -14.401 56.132 C-13.199 51.37 -12.004 46.607 -10.809 41.843 C-9.385 36.167 -7.959 30.492 -6.531 24.816 C-6.259 23.732 -5.986 22.648 -5.705 21.531 C-4.936 18.474 -4.164 15.418 -3.393 12.362 C-3.164 11.453 -2.935 10.544 -2.7 9.608 C-2.49 8.777 -2.279 7.946 -2.063 7.09 C-1.88 6.368 -1.698 5.646 -1.511 4.903 C-1.067 3.251 -0.541 1.622 0 0 Z " fill="#B1C9EC" transform="translate(28,397)"/>
<path d="M0 0 C1.32 0 2.64 0 4 0 C5.207 4.755 6.414 9.51 7.621 14.266 C7.807 14.999 7.994 15.733 8.185 16.489 C10.435 25.355 12.684 34.221 14.929 43.088 C15.134 43.895 15.338 44.703 15.549 45.535 C16.369 48.774 17.189 52.012 18.009 55.25 C20.162 63.758 22.32 72.266 24.496 80.768 C25.357 84.135 26.213 87.503 27.067 90.872 C27.436 92.319 27.807 93.766 28.181 95.213 C28.682 97.152 29.173 99.093 29.664 101.035 C29.927 102.06 30.189 103.085 30.459 104.141 C31.037 107.196 31.235 109.899 31 113 C27.15 116.85 20.253 115.37 15.062 115.375 C14.412 115.387 14.412 115.387 11.119 115.449 C9.875 115.453 8.63 115.457 7.348 115.461 C6.775 115.465 6.775 115.465 3.879 115.486 C1 115 1 115 -0.532 113.499 C-2.566 110.036 -3.421 106.398 -4.36 102.531 C-4.575 101.679 -4.79 100.826 -5.012 99.948 C-5.719 97.134 -6.412 94.317 -7.105 91.5 C-7.594 89.542 -8.083 87.584 -8.572 85.627 C-9.596 81.526 -10.613 77.424 -11.626 73.32 C-12.924 68.059 -14.235 62.8 -15.55 57.543 C-16.56 53.501 -17.565 49.459 -18.569 45.416 C-19.051 43.476 -19.533 41.537 -20.017 39.598 C-20.692 36.889 -21.361 34.179 -22.028 31.469 C-22.229 30.667 -22.43 29.864 -22.637 29.038 C-23.487 25.56 -24 22.603 -24 19 C-23.374 18.98 -22.749 18.96 -22.104 18.94 C-19.277 18.845 -16.451 18.735 -13.625 18.625 C-12.64 18.594 -11.655 18.563 -10.641 18.531 C-10.17 18.512 -10.17 18.512 -7.789 18.414 C-7.354 18.398 -7.354 18.398 -5.155 18.319 C-3 18 -3 18 -1 16 C-0.694 13.266 -0.489 10.617 -0.375 7.875 C-0.336 7.121 -0.298 6.367 -0.258 5.59 C-0.163 3.727 -0.081 1.864 0 0 Z " fill="#B2CAEC" transform="translate(480,397)"/>
<path d="M0 0 C8.175 5.924 14.053 13.595 16.543 23.457 C17.16 28.952 17.078 34.486 17.01 40.007 C16.98 42.584 16.989 45.158 17.002 47.734 C16.996 49.395 16.987 51.055 16.977 52.715 C16.979 53.473 16.982 54.232 16.985 55.013 C16.891 60.411 15.662 64.489 13.543 69.457 C9.386 67.832 6.647 64.785 3.605 61.645 C3.093 61.123 2.581 60.602 2.053 60.064 C1.082 59.077 0.114 58.087 -0.851 57.094 C-3.037 54.866 -5.249 52.663 -7.457 50.457 C-9.043 48.86 -10.629 47.262 -12.215 45.664 C-14.004 43.866 -15.793 42.068 -17.582 40.27 C-18.035 39.812 -18.035 39.812 -20.328 37.498 C-21.198 36.625 -22.068 35.751 -22.965 34.852 C-23.755 34.056 -24.546 33.26 -25.36 32.441 C-27.457 30.457 -27.457 30.457 -30.457 28.457 C-34.735 28.784 -38.003 29.997 -41.785 31.961 C-42.749 32.454 -43.714 32.947 -44.707 33.455 C-45.697 33.971 -46.687 34.488 -47.707 35.02 C-49.69 36.045 -51.674 37.067 -53.66 38.086 C-54.533 38.54 -55.406 38.995 -56.306 39.463 C-58.457 40.457 -58.457 40.457 -60.457 40.457 C-61.046 27.42 -60.268 16.977 -51.504 6.527 C-37.829 -7.305 -16.704 -10.49 0 0 Z " fill="#0055A3" transform="translate(463.45703125,37.54296875)"/>
<path d="M0 0 C2.668 2.074 2.668 2.074 5.188 4.688 C6.027 5.537 6.866 6.386 7.73 7.262 C11.512 11.824 13.638 15.909 13.332 21.956 C11.875 30.923 4.711 36.861 -1.426 42.922 C-2.458 43.954 -3.489 44.987 -4.52 46.02 C-6.673 48.175 -8.833 50.322 -10.998 52.464 C-13.76 55.198 -16.506 57.947 -19.248 60.702 C-21.373 62.833 -23.505 64.958 -25.639 67.079 C-26.654 68.09 -27.667 69.103 -28.678 70.117 C-40.825 82.289 -40.825 82.289 -47.914 83.496 C-48.361 83.486 -48.361 83.486 -50.625 83.438 C-51.525 83.436 -52.425 83.435 -53.352 83.434 C-56.817 82.866 -58.356 82.386 -61 80 C-61.734 76.484 -61.579 73.003 -61.488 69.426 C-61.481 68.387 -61.474 67.348 -61.467 66.277 C-61.439 62.955 -61.376 59.634 -61.312 56.312 C-61.287 54.062 -61.265 51.811 -61.244 49.561 C-61.189 44.04 -61.105 38.52 -61 33 C-59.854 33.979 -58.708 34.958 -57.562 35.938 C-56.924 36.483 -56.286 37.028 -55.629 37.59 C-54.73 38.368 -53.841 39.159 -53 40 C-49.895 40.393 -48.469 40.337 -45.894 38.488 C-45.2 37.781 -44.507 37.073 -43.792 36.344 C-42.998 35.546 -42.204 34.749 -41.386 33.927 C-40.543 33.055 -39.7 32.183 -38.832 31.285 C-37.956 30.4 -37.08 29.514 -36.177 28.602 C-33.853 26.248 -31.539 23.885 -29.231 21.516 C-25.972 18.176 -22.692 14.856 -19.415 11.534 C-17.672 9.764 -15.932 7.99 -14.197 6.212 C-13.412 5.411 -12.628 4.61 -11.82 3.785 C-11.129 3.077 -10.437 2.369 -9.725 1.639 C-6.394 -1.525 -4.348 -1.163 0 0 Z " fill="#FFCEBF" transform="translate(173,157)"/>
<path d="M0 0 C9.276 5.65 15.489 13.789 18.59 24.188 C19 26 19 26 19 28 C17.738 28.02 16.476 28.04 15.176 28.06 C10.506 28.136 5.836 28.225 1.166 28.317 C-0.858 28.356 -2.881 28.391 -4.905 28.422 C-7.809 28.467 -10.713 28.525 -13.617 28.586 C-14.526 28.597 -15.434 28.609 -16.37 28.621 C-16.79 28.631 -16.79 28.631 -18.917 28.681 C-19.659 28.694 -20.401 28.708 -21.165 28.722 C-23 29 -23 29 -25 31 C-25.314 33.137 -25.552 35.286 -25.75 37.438 C-27.094 47.539 -31.272 55.303 -38.715 62.273 C-43.886 66.181 -49.484 69 -56 69 C-57.919 64.146 -58.335 59.685 -58.371 54.523 C-58.38 53.717 -58.389 52.91 -58.398 52.079 C-58.413 50.377 -58.422 48.674 -58.426 46.971 C-58.437 44.403 -58.487 41.837 -58.537 39.27 C-58.667 26.185 -56.65 15.768 -47.246 5.973 C-34.476 -5.243 -15.22 -8.395 0 0 Z " fill="#FFD15B" transform="translate(90,36)"/>
<path d="M0 0 C10.56 0 21.12 0 32 0 C32 8.25 32 16.5 32 25 C33.65 25.33 35.3 25.66 37 26 C43.496 29.214 47.996 33.376 51 40 C52.218 44.202 52.221 48.217 52.25 52.562 C52.271 53.33 52.291 54.098 52.312 54.889 C52.352 60.503 52.352 60.503 50.782 62.721 C48.444 64.399 47.026 64.363 44.161 64.341 C43.167 64.34 42.172 64.34 41.148 64.339 C40.627 64.332 40.627 64.332 37.988 64.293 C37.028 64.29 36.068 64.287 35.078 64.284 C31.49 64.268 27.901 64.226 24.312 64.188 C20.301 64.157 20.301 64.157 0 64 C0 42.88 0 21.76 0 0 Z " fill="#0054A3" transform="translate(144,448)"/>
<path d="M0 0 C10.56 0 21.12 0 32 0 C32 21.12 32 42.24 32 64 C23.977 64.062 15.954 64.124 7.688 64.188 C6.422 64.201 6.422 64.201 0.018 64.27 C-1.984 64.279 -3.986 64.287 -5.988 64.293 C-7.031 64.308 -8.074 64.324 -9.148 64.339 C-9.645 64.34 -9.645 64.34 -12.161 64.341 C-13.025 64.347 -13.889 64.354 -14.779 64.361 C-17 64 -17 64 -18.775 62.71 C-20.878 59.774 -20.484 56.352 -20.438 52.875 C-20.431 52.11 -20.425 51.344 -20.419 50.556 C-20.256 44.649 -19.269 40.012 -16 35 C-15.722 34.546 -15.722 34.546 -14.312 32.25 C-10.434 28.477 -5.527 25 0 25 C0 16.75 0 8.5 0 0 Z " fill="#0055A2" transform="translate(336,448)"/>
<path d="M0 0 C15.84 0 31.68 0 48 0 C48 15.84 48 31.68 48 48 C32.16 48 16.32 48 0 48 C0 32.16 0 16.32 0 0 Z " fill="#8AC9FE" transform="translate(64,320)"/>
<path d="M0 0 C15.84 0 31.68 0 48 0 C48.103 6.641 48.206 13.283 48.312 20.125 C48.358 22.211 48.404 24.297 48.45 26.446 C48.465 28.112 48.478 29.779 48.488 31.445 C48.501 31.873 48.501 31.873 48.566 34.035 C48.569 38.335 48.354 41.122 45.594 44.535 C41.222 48.69 37.606 48.131 31.836 48.098 C31.032 48.097 30.228 48.096 29.4 48.095 C26.391 48.089 23.383 48.075 20.375 48.062 C13.651 48.042 6.928 48.021 0 48 C0 32.16 0 16.32 0 0 Z " fill="#FEFEFF" transform="translate(400,304)"/>
<path d="M0 0 C2.411 2.149 3.812 3.889 4.359 7.124 C4.497 9.749 4.502 12.344 4.461 14.973 C4.46 15.453 4.46 15.453 4.458 17.882 C4.452 19.907 4.436 21.932 4.412 23.956 C4.375 27.055 4.371 30.153 4.371 33.252 C4.361 35.221 4.35 37.191 4.336 39.16 C4.334 40.086 4.331 41.012 4.329 41.967 C4.316 42.831 4.304 43.696 4.291 44.586 C4.287 44.965 4.287 44.965 4.267 46.882 C3.957 49.34 3.323 50.908 2 53 C-1.285 55.19 -2.218 55.246 -6.022 55.227 C-7.043 55.227 -8.064 55.227 -9.116 55.227 C-10.216 55.216 -11.316 55.206 -12.449 55.195 C-13.013 55.194 -13.013 55.194 -15.867 55.187 C-19.474 55.176 -23.081 55.15 -26.688 55.125 C-29.131 55.115 -31.574 55.106 -34.018 55.098 C-40.012 55.076 -46.006 55.041 -52 55 C-52 50.05 -52 45.1 -52 40 C-38.8 40 -25.6 40 -12 40 C-12.25 22.813 -12.25 22.813 -12.36 17.413 C-12.372 15.99 -12.382 14.567 -12.391 13.145 C-12.411 12.414 -12.432 11.684 -12.453 10.932 C-12.455 7.23 -12.127 5.196 -10.101 2.053 C-6.58 -1.388 -4.708 -1.318 0 0 Z " fill="#C4E2FF" transform="translate(452,185)"/>
<path d="M0 0 C2.932 1.321 4.987 2.746 7.234 5.039 C7.808 5.619 8.382 6.199 8.973 6.797 C9.559 7.4 10.146 8.003 10.75 8.625 C11.352 9.236 11.954 9.847 12.574 10.477 C14.054 11.98 15.528 13.489 17 15 C13.658 24.272 6.691 29.782 -2 34 C-8.258 36.412 -14.079 36.407 -20.721 36.426 C-22.732 36.437 -24.74 36.487 -26.75 36.537 C-34.85 36.581 -41.341 35.908 -48 31 C-52.299 26.455 -56 21.45 -56 15 C-54.704 14.991 -53.408 14.981 -52.072 14.972 C-47.243 14.932 -42.414 14.866 -37.586 14.792 C-35.5 14.764 -33.413 14.743 -31.327 14.729 C-28.32 14.707 -25.315 14.661 -22.309 14.609 C-21.382 14.608 -20.456 14.607 -19.502 14.606 C-13.505 14.471 -9.93 13.467 -5 10 C-2.537 7.063 -1.209 3.628 0 0 Z " fill="#FCD1A4" transform="translate(459,92)"/>
<path d="M0 0 C0.469 0.005 0.469 0.005 2.842 0.029 C3.818 0.054 4.795 0.08 5.801 0.105 C6.789 0.119 7.777 0.133 8.795 0.146 C11.235 0.182 13.674 0.231 16.113 0.293 C16.138 6.256 16.156 12.219 16.168 18.182 C16.173 20.213 16.18 22.243 16.189 24.273 C16.201 27.185 16.207 30.096 16.211 33.008 C16.216 33.921 16.221 34.835 16.227 35.776 C16.227 37.949 16.175 40.121 16.113 42.293 C15.113 43.293 15.113 43.293 13.095 43.413 C12.209 43.411 11.323 43.409 10.41 43.406 C9.409 43.406 8.408 43.406 7.377 43.406 C6.288 43.401 5.2 43.396 4.078 43.391 C2.97 43.389 1.861 43.388 0.719 43.386 C-2.837 43.381 -6.393 43.368 -9.949 43.355 C-12.354 43.35 -14.758 43.346 -17.162 43.342 C-23.07 43.331 -28.979 43.314 -34.887 43.293 C-33.887 40.293 -33.887 40.293 -31.41 38.934 C-30.891 38.704 -30.891 38.704 -28.262 37.543 C-19.859 33.476 -14.875 28.66 -10.875 20.191 C-9.327 15.652 -8.87 11.058 -8.441 6.297 C-7.468 1.023 -5.161 -0.094 0 0 Z " fill="#FFDECE" transform="translate(71.88671875,63.70703125)"/>
<path d="M0 0 C9.295 3.718 14.668 10.073 19 19 C21.019 23.999 21.307 28.315 21.301 33.617 C21.305 34.433 21.309 35.249 21.314 36.09 C21.319 37.809 21.32 39.529 21.316 41.249 C21.313 43.86 21.336 46.471 21.361 49.082 C21.364 50.76 21.364 52.439 21.363 54.117 C21.372 54.888 21.382 55.659 21.391 56.454 C21.345 61.911 20.152 65.981 18 71 C13.704 69.35 10.995 66.183 7.875 62.938 C2.24 57.12 2.24 57.12 0 56 C0 37.52 0 19.04 0 0 Z " fill="#004281" transform="translate(459,36)"/>
<path d="M0 0 C1.753 0.041 1.753 0.041 10.625 0.25 C10.625 10.81 10.625 21.37 10.625 32.25 C0.065 32.25 -10.495 32.25 -21.375 32.25 C-21.457 28.744 -21.54 25.238 -21.625 21.625 C-21.661 20.531 -21.698 19.437 -21.735 18.31 C-21.802 12.458 -21.539 8.731 -17.375 4.25 C-12.048 -0.7 -6.857 -0.228 0 0 Z " fill="#FFE5C2" transform="translate(373.375,239.75)"/>
<path d="M0 0 C3.467 1.18 4.733 2.078 6.938 5 C7.287 7.82 7.406 10.237 7.328 13.047 C7.322 13.818 7.317 14.589 7.311 15.384 C7.289 17.84 7.238 20.294 7.188 22.75 C7.167 24.418 7.149 26.086 7.133 27.754 C7.089 31.837 7.02 35.918 6.938 40 C1.987 40 -2.962 40 -8.062 40 C-8.186 34.946 -8.277 29.894 -8.337 24.839 C-8.362 23.12 -8.396 21.401 -8.44 19.683 C-8.5 17.21 -8.529 14.739 -8.551 12.266 C-8.577 11.499 -8.602 10.732 -8.629 9.942 C-8.631 6.062 -8.408 4.372 -5.723 1.483 C-3.062 0 -3.062 0 0 0 Z " fill="#FD4755" transform="translate(57.0625,184)"/>
<path d="M0 0 C8.533 3.413 13.644 8.947 18 17 C21 24.241 21 24.241 21 28 C14.07 28 7.14 28 0 28 C0 18.76 0 9.52 0 0 Z " fill="#FEB336" transform="translate(88,36)"/>
</svg>
