<?xml version="1.0" encoding="UTF-8"?>
<!-- Generator: visioncortex VTracer 0.6.12 -->
<svg version="1.1" xmlns="http://www.w3.org/2000/svg" width="512" height="512">
<path d="M0 0 C1.308 -0.006 2.615 -0.012 3.963 -0.019 C6.72 -0.029 9.478 -0.025 12.236 -0.01 C15.759 0.007 19.28 -0.016 22.803 -0.051 C26.181 -0.079 29.559 -0.069 32.938 -0.062 C34.197 -0.076 35.456 -0.089 36.754 -0.103 C46.488 0.001 46.488 0.001 50.158 2.883 C53.759 7.189 54.402 11.049 54.402 16.566 C54.796 16.559 54.796 16.559 56.786 16.519 C60.366 16.456 63.947 16.417 67.527 16.379 C68.146 16.366 68.146 16.366 71.277 16.303 C71.877 16.298 71.877 16.298 74.91 16.273 C76.01 16.258 77.11 16.242 78.243 16.226 C83.343 16.776 86.523 18.707 90.152 22.254 C93.271 26.289 93.881 30.738 94.785 35.645 C96.146 42.128 99.22 46.189 104.59 50.191 C108.546 53.532 109.264 55.264 109.816 60.457 C109.896 61.91 109.966 63.363 110.027 64.816 C110.066 65.561 110.105 66.307 110.145 67.074 C110.238 68.905 110.321 70.735 110.402 72.566 C111.021 71.535 111.64 70.504 112.277 69.441 C117.315 62.451 125.264 59.027 133.441 57.023 C138.753 56.204 144.046 56.336 149.402 56.566 C150.137 82.089 149.16 114.429 134.402 136.566 C141.992 136.566 149.582 136.566 157.402 136.566 C154.267 158.514 140.309 180.517 123.141 194.395 C108.936 204.916 95.031 208.566 77.402 208.566 C77.402 298.656 77.402 388.746 77.402 481.566 C7.271 499.099 7.271 499.099 -28.804 498.651 C-30.792 498.64 -32.779 498.63 -34.767 498.621 C-36.808 498.611 -38.85 498.596 -40.891 498.581 C-45.103 498.554 -49.314 498.56 -53.526 498.574 C-53.882 498.575 -53.882 498.575 -55.683 498.581 C-57.131 498.585 -58.58 498.59 -60.028 498.595 C-73.373 498.637 -86.717 498.59 -100.062 498.508 C-111.459 498.441 -122.854 498.453 -134.251 498.522 C-147.637 498.602 -161.022 498.634 -174.409 498.588 C-175.836 498.583 -177.264 498.578 -178.691 498.574 C-179.393 498.571 -180.095 498.569 -180.817 498.567 C-185.715 498.554 -190.612 498.575 -195.509 498.611 C-202.084 498.658 -208.654 498.624 -215.228 498.537 C-217.626 498.518 -220.024 498.523 -222.422 498.556 C-233.682 498.698 -243.828 498.55 -252.536 490.618 C-261.87 480.574 -260.585 467.66 -260.301 454.803 C-260.296 452.111 -260.298 449.419 -260.307 446.727 C-260.315 440.958 -260.268 435.191 -260.184 429.422 C-260.061 421.082 -260.023 412.743 -260.004 404.402 C-259.971 390.866 -259.871 377.332 -259.729 363.797 C-259.591 350.658 -259.485 337.52 -259.422 324.381 C-259.418 323.569 -259.414 322.758 -259.41 321.921 C-259.39 317.85 -259.371 313.778 -259.353 309.707 C-259.197 275.992 -258.932 242.28 -258.598 208.566 C-252.988 208.236 -247.378 207.906 -241.598 207.566 C-243.701 205.937 -245.805 204.308 -247.973 202.629 C-269.934 185.4 -269.934 185.4 -272.598 172.566 C-272.624 170.9 -272.629 169.233 -272.598 167.566 C-273.563 167.529 -274.529 167.492 -275.523 167.453 C-286.206 166.99 -296.877 166.261 -307.537 165.434 C-309.113 165.314 -310.69 165.201 -312.267 165.094 C-314.521 164.939 -316.772 164.761 -319.023 164.578 C-320.337 164.48 -321.651 164.381 -323.005 164.28 C-329.833 162.924 -333.569 158.861 -337.598 153.566 C-339.572 149.617 -339.035 144.871 -338.598 140.566 C-336.461 136.135 -334.222 133.337 -329.598 131.566 C-318.944 129.938 -308.477 134.077 -298.41 137.066 C-296.582 137.598 -294.753 138.128 -292.924 138.656 C-288.477 139.944 -284.036 141.25 -279.598 142.566 C-279.268 142.236 -278.938 141.906 -278.598 141.566 C-279.218 141.068 -279.838 140.569 -280.477 140.055 C-286.772 134.951 -292.926 129.713 -299.027 124.38 C-302.839 121.058 -306.707 117.843 -310.66 114.691 C-321.564 105.753 -321.564 105.753 -322.66 99.066 C-322.928 93.231 -320.963 89.228 -317.285 84.754 C-313.111 81.356 -309.545 80.33 -304.223 80.504 C-291.436 82.461 -280.475 101.418 -272.844 110.812 C-268.804 115.766 -264.697 120.663 -260.598 125.566 C-262.348 118.174 -264.177 110.841 -266.422 103.582 C-266.58 103.064 -266.58 103.064 -267.383 100.443 C-268.011 98.406 -268.653 96.374 -269.311 94.346 C-271.753 86.389 -273.596 77.786 -269.91 70.004 C-265.811 65.684 -263.112 64.379 -257.16 64.129 C-250.553 64.333 -247.549 66.704 -242.848 71.191 C-238.034 77.316 -238.249 86.807 -237.746 94.293 C-237.714 94.73 -237.714 94.73 -237.553 96.941 C-237.354 99.69 -237.163 102.441 -236.973 105.191 C-236.838 107.073 -236.702 108.954 -236.566 110.836 C-236.237 115.412 -235.915 119.989 -235.598 124.566 C-235.594 123.753 -235.59 122.939 -235.587 122.101 C-235.549 114.421 -235.492 106.741 -235.414 99.061 C-235.374 95.113 -235.342 91.165 -235.327 87.217 C-235.311 83.404 -235.277 79.592 -235.229 75.78 C-235.215 74.328 -235.207 72.876 -235.206 71.424 C-235.203 69.384 -235.176 67.346 -235.144 65.306 C-235.139 64.727 -235.139 64.727 -235.117 61.794 C-234.313 56.794 -231.738 53.707 -228.223 50.191 C-224.598 48.566 -224.598 48.566 -210.598 48.566 C-210.598 38.006 -210.598 27.446 -210.598 16.566 C-200.038 16.566 -189.478 16.566 -178.598 16.566 C-178.598 27.126 -178.598 37.686 -178.598 48.566 C-173.978 48.566 -169.358 48.566 -164.598 48.566 C-160.91 50.566 -160.91 50.566 -158.598 52.566 C-155.068 52.566 -154.268 51.832 -151.41 49.879 C-140.23 43.005 -127.47 40.806 -114.598 39.566 C-115.348 39.275 -116.098 38.984 -116.871 38.684 C-128.235 34.132 -138.716 29.126 -145.535 18.566 C-146.77 15.08 -146.671 12.24 -146.598 8.566 C-142.366 8.441 -138.135 8.351 -133.902 8.292 C-132.467 8.267 -131.032 8.233 -129.597 8.189 C-119.207 7.881 -111.515 8.879 -103.117 15.531 C-97.635 21.866 -90.961 30.899 -90.41 39.488 C-90.472 40.174 -90.534 40.86 -90.598 41.566 C-89.546 41.484 -88.494 41.401 -87.41 41.316 C-73.095 41.367 -61.777 49.453 -51.598 58.566 C-51.593 58.158 -51.593 58.158 -51.569 56.091 C-51.516 52.374 -51.432 48.658 -51.348 44.941 C-51.333 43.656 -51.319 42.371 -51.305 41.047 C-50.996 29.132 -50.996 29.132 -46.598 24.566 C-43.175 21.375 -39.805 19.6 -35.473 17.879 C-34.956 17.671 -34.956 17.671 -32.34 16.617 C-30.442 15.89 -28.526 15.209 -26.598 14.566 C-25.66 12.879 -25.66 12.879 -24.598 10.566 C-18.664 0.018 -11.137 -0.044 0 0 Z " fill="#F9D179" transform="translate(346.59765625,7.43359375)"/>
<path d="M0 0 C1.308 -0.006 2.615 -0.012 3.963 -0.019 C6.72 -0.029 9.478 -0.025 12.236 -0.01 C15.759 0.007 19.28 -0.016 22.803 -0.051 C26.181 -0.079 29.559 -0.069 32.938 -0.062 C34.197 -0.076 35.456 -0.089 36.754 -0.103 C46.488 0.001 46.488 0.001 50.158 2.883 C53.759 7.189 54.402 11.049 54.402 16.566 C54.796 16.559 54.796 16.559 56.786 16.519 C60.366 16.456 63.947 16.417 67.527 16.379 C68.765 16.354 70.002 16.329 71.277 16.303 C71.877 16.298 71.877 16.298 74.91 16.273 C76.01 16.258 77.11 16.242 78.243 16.226 C83.343 16.776 86.523 18.707 90.152 22.254 C93.271 26.289 93.881 30.738 94.785 35.645 C96.146 42.128 99.22 46.189 104.59 50.191 C108.546 53.532 109.264 55.264 109.816 60.457 C109.896 61.91 109.966 63.363 110.027 64.816 C110.066 65.561 110.105 66.307 110.145 67.074 C110.238 68.905 110.321 70.735 110.402 72.566 C111.021 71.535 111.64 70.504 112.277 69.441 C117.315 62.451 125.264 59.027 133.441 57.023 C138.753 56.204 144.046 56.336 149.402 56.566 C150.137 82.089 149.16 114.429 134.402 136.566 C141.992 136.566 149.582 136.566 157.402 136.566 C154.267 158.514 140.309 180.517 123.141 194.395 C108.936 204.916 95.031 208.566 77.402 208.566 C77.402 298.656 77.402 388.746 77.402 481.566 C17.402 496.566 17.402 496.566 13.402 495.566 C13.761 495.037 14.12 494.507 14.49 493.961 C18.224 488.447 21.954 482.932 25.683 477.415 C27.075 475.356 28.468 473.297 29.861 471.24 C31.864 468.282 33.864 465.323 35.863 462.363 C36.175 461.903 36.175 461.903 37.754 459.576 C38.335 458.715 38.915 457.854 39.513 456.968 C39.769 456.59 39.769 456.59 41.061 454.68 C43.302 451.149 44.651 448.562 44.664 444.326 C44.672 443.482 44.679 442.638 44.687 441.769 C44.685 440.846 44.683 439.924 44.681 438.974 C44.684 438.482 44.684 438.482 44.698 435.994 C44.715 432.69 44.718 429.385 44.721 426.081 C44.73 423.716 44.741 421.351 44.752 418.986 C44.779 412.556 44.794 406.127 44.807 399.698 C44.82 393.662 44.844 387.626 44.867 381.591 C44.913 369.636 44.949 357.681 44.98 345.726 C45.011 334.112 45.045 322.499 45.085 310.886 C45.087 310.163 45.09 309.439 45.092 308.694 C45.114 302.404 45.136 296.114 45.158 289.824 C45.252 262.738 45.326 235.652 45.402 208.566 C-21.258 208.566 -87.918 208.566 -156.598 208.566 C-160.505 198.798 -162.088 188.054 -162.598 177.566 C-162.63 177.053 -162.63 177.053 -162.793 174.457 C-163.126 165.176 -161.679 156.305 -156.543 148.407 C-154.158 144.258 -154.077 140.75 -154.204 136.048 C-154.21 135.226 -154.216 134.404 -154.222 133.557 C-154.246 130.859 -154.3 128.163 -154.355 125.465 C-154.38 123.581 -154.404 121.697 -154.426 119.814 C-154.475 115.874 -154.539 111.936 -154.613 107.997 C-154.708 102.952 -154.776 97.908 -154.835 92.862 C-154.882 88.976 -154.939 85.09 -155 81.204 C-155.029 79.343 -155.055 77.483 -155.079 75.623 C-155.114 73.023 -155.163 70.425 -155.215 67.826 C-155.224 67.06 -155.232 66.294 -155.241 65.505 C-155.338 61.44 -155.795 58.23 -157.598 54.566 C-145.363 44.095 -130.236 41.162 -114.598 39.566 C-115.348 39.275 -116.098 38.984 -116.871 38.684 C-128.235 34.132 -138.716 29.126 -145.535 18.566 C-146.77 15.08 -146.671 12.24 -146.598 8.566 C-142.366 8.441 -138.135 8.351 -133.902 8.292 C-132.467 8.267 -131.032 8.233 -129.597 8.189 C-119.207 7.881 -111.515 8.879 -103.117 15.531 C-97.635 21.866 -90.961 30.899 -90.41 39.488 C-90.472 40.174 -90.534 40.86 -90.598 41.566 C-89.546 41.484 -88.494 41.401 -87.41 41.316 C-73.095 41.367 -61.777 49.453 -51.598 58.566 C-51.588 57.75 -51.579 56.933 -51.569 56.091 C-51.516 52.374 -51.432 48.658 -51.348 44.941 C-51.333 43.656 -51.319 42.371 -51.305 41.047 C-50.996 29.132 -50.996 29.132 -46.598 24.566 C-43.175 21.375 -39.805 19.6 -35.473 17.879 C-34.439 17.463 -33.405 17.046 -32.34 16.617 C-30.442 15.89 -28.526 15.209 -26.598 14.566 C-25.66 12.879 -25.66 12.879 -24.598 10.566 C-18.664 0.018 -11.137 -0.044 0 0 Z " fill="#D18D42" transform="translate(346.59765625,7.43359375)"/>
<path d="M0 0 C4.623 2.226 8.42 5.516 11 10 C14.159 19.469 13.895 30.371 14.562 40.25 C14.75 42.974 14.94 45.699 15.133 48.423 C15.252 50.108 15.368 51.793 15.481 53.478 C15.775 57.707 16.217 61.826 17 66 C17.846 66.219 18.691 66.438 19.562 66.664 C35.045 70.992 42.452 80.208 51.944 92.718 C55.307 97.141 58.789 101.454 62.312 105.75 C67.474 112.052 72.461 118.467 77.377 124.962 C81.275 130.099 85.31 135.083 89.488 139.996 C91 142 91 142 91 144 C71.86 144 52.72 144 33 144 C33.04 163.995 33.097 183.989 33.184 203.983 C33.224 213.269 33.256 222.555 33.271 231.841 C33.284 239.944 33.311 248.046 33.355 256.149 C33.377 260.431 33.393 264.713 33.392 268.995 C33.392 292.162 33.948 313.638 44 335 C44.289 335.617 44.577 336.234 44.875 336.869 C50.938 349.606 59.259 361.736 70 371 C70.874 371.754 71.748 372.508 72.648 373.285 C93.304 390.396 118.369 399.079 145.004 399.205 C146.323 399.215 147.642 399.225 149.001 399.236 C152.554 399.263 156.107 399.284 159.66 399.304 C162.999 399.324 166.339 399.348 169.679 399.373 C179.432 399.441 189.185 399.501 198.938 399.562 C220.738 399.707 242.539 399.851 265 400 C265 315.52 265 231.04 265 144 C275.56 144 286.12 144 297 144 C297.226 174.302 297.405 204.604 297.511 234.907 C297.523 238.491 297.536 242.076 297.549 245.66 C297.551 246.017 297.551 246.017 297.557 247.822 C297.601 259.348 297.679 270.873 297.772 282.399 C297.865 294.241 297.921 306.084 297.941 317.927 C297.953 324.572 297.984 331.216 298.057 337.861 C298.126 344.126 298.146 350.389 298.131 356.654 C298.134 358.944 298.153 361.233 298.192 363.523 C298.434 378.657 296.4 388.024 287 400 C285.968 401.538 284.947 403.084 283.953 404.646 C283.126 405.869 282.297 407.09 281.465 408.309 C281.24 408.64 281.24 408.64 280.102 410.318 C279.179 411.678 278.254 413.038 277.328 414.397 C275.904 416.487 274.484 418.58 273.064 420.674 C272.157 422.011 271.248 423.347 270.34 424.684 C269.917 425.306 269.494 425.929 269.059 426.571 C266.117 430.883 266.117 430.883 265 432 C263.638 432.11 262.271 432.151 260.905 432.165 C260.017 432.176 259.129 432.187 258.214 432.199 C257.228 432.206 256.241 432.214 255.224 432.221 C254.184 432.233 253.144 432.244 252.073 432.256 C248.56 432.293 245.046 432.322 241.533 432.352 C239.025 432.376 236.517 432.4 234.009 432.425 C211.063 432.642 188.116 432.763 165.169 432.859 C162.095 432.872 159.021 432.886 155.946 432.899 C155.182 432.903 154.418 432.906 153.631 432.91 C141.28 432.966 128.93 433.078 116.579 433.211 C103.89 433.348 91.202 433.427 78.512 433.452 C71.391 433.468 64.271 433.509 57.151 433.617 C50.441 433.718 43.735 433.742 37.023 433.715 C34.569 433.717 32.114 433.745 29.66 433.802 C18.272 434.049 7.852 434.122 -0.973 426.065 C-10.268 416.017 -8.987 403.072 -8.703 390.237 C-8.699 387.545 -8.7 384.853 -8.71 382.161 C-8.717 376.391 -8.671 370.624 -8.586 364.856 C-8.463 356.515 -8.425 348.176 -8.406 339.835 C-8.373 326.3 -8.274 312.765 -8.132 299.23 C-7.994 286.092 -7.888 272.953 -7.824 259.814 C-7.82 259.003 -7.816 258.191 -7.812 257.355 C-7.792 253.284 -7.774 249.212 -7.755 245.14 C-7.6 211.426 -7.335 177.713 -7 144 C-1.39 143.67 4.22 143.34 10 143 C7.896 141.371 5.793 139.741 3.625 138.062 C-18.337 120.833 -18.337 120.833 -21 108 C-21.026 106.334 -21.031 104.666 -21 103 C-21.966 102.963 -22.931 102.925 -23.926 102.887 C-34.608 102.423 -45.279 101.694 -55.94 100.868 C-57.516 100.748 -59.092 100.634 -60.67 100.527 C-62.923 100.372 -65.174 100.195 -67.426 100.012 C-68.74 99.913 -70.054 99.815 -71.407 99.714 C-78.235 98.357 -81.971 94.295 -86 89 C-87.974 85.051 -87.438 80.304 -87 76 C-84.864 71.569 -82.624 68.771 -78 67 C-67.346 65.371 -56.879 69.511 -46.812 72.5 C-44.984 73.031 -43.155 73.561 -41.326 74.09 C-36.88 75.378 -32.438 76.684 -28 78 C-27.67 77.67 -27.34 77.34 -27 77 C-27.62 76.501 -28.24 76.002 -28.879 75.488 C-35.174 70.384 -41.328 65.146 -47.43 59.813 C-51.241 56.491 -55.109 53.277 -59.062 50.125 C-69.967 41.187 -69.967 41.187 -71.062 34.5 C-71.33 28.665 -69.366 24.661 -65.688 20.188 C-61.513 16.79 -57.948 15.764 -52.625 15.938 C-39.838 17.895 -28.877 36.851 -21.246 46.246 C-17.206 51.199 -13.099 56.096 -9 61 C-10.75 53.608 -12.579 46.275 -14.824 39.016 C-15.141 37.98 -15.458 36.944 -15.785 35.877 C-16.414 33.84 -17.056 31.807 -17.713 29.779 C-20.155 21.822 -21.999 13.219 -18.312 5.438 C-12.819 -0.353 -7.796 -1.022 0 0 Z " fill="#F5B662" transform="translate(95,72)"/>
<path d="M0 0 C4.232 -0.125 8.462 -0.215 12.695 -0.275 C14.131 -0.3 15.566 -0.334 17.001 -0.377 C27.391 -0.685 35.082 0.312 43.48 6.965 C48.963 13.3 55.636 22.333 56.188 30.922 C56.157 31.265 56.157 31.265 56 33 C57.052 32.917 58.104 32.835 59.188 32.75 C69.398 32.786 78.784 37.293 87 43 C87.864 43.471 88.727 43.941 89.617 44.426 C92.697 46.436 94.194 47.759 96 51 C97.098 57.929 96.552 65.037 96 72 C93.559 72.781 91.117 73.562 88.676 74.344 C84.711 76.798 82.709 79.677 81 84 C80.389 87.904 80.433 91.684 80.562 95.625 C80.568 96.636 80.574 97.646 80.58 98.688 C80.664 103.82 80.963 108.206 83 113 C84.165 112.969 85.331 112.938 86.531 112.906 C102.584 112.934 119.629 120.703 130.957 131.859 C131.294 132.213 131.294 132.213 133 134 C133.581 134.562 134.163 135.124 134.762 135.703 C143.369 144.635 144.647 155.02 144.534 166.909 C144.177 178.013 142.523 189.43 139 200 C89.83 200 40.66 200 -10 200 C-13.907 190.232 -15.491 179.488 -16 169 C-16.032 168.487 -16.032 168.487 -16.195 165.891 C-16.528 156.61 -15.081 147.738 -9.946 139.84 C-7.56 135.692 -7.479 132.183 -7.606 127.482 C-7.612 126.66 -7.618 125.838 -7.624 124.991 C-7.649 122.293 -7.703 119.596 -7.758 116.898 C-7.783 115.015 -7.806 113.131 -7.828 111.247 C-7.878 107.308 -7.941 103.369 -8.016 99.431 C-8.11 94.386 -8.178 89.341 -8.237 84.296 C-8.284 80.41 -8.342 76.523 -8.402 72.637 C-8.431 70.777 -8.457 68.917 -8.481 67.056 C-8.517 64.457 -8.565 61.858 -8.618 59.259 C-8.626 58.493 -8.635 57.728 -8.643 56.939 C-8.74 52.874 -9.197 49.664 -11 46 C1.235 35.528 16.362 32.596 32 31 C31.25 30.709 30.5 30.417 29.727 30.117 C18.363 25.566 7.882 20.559 1.062 10 C-0.172 6.513 -0.074 3.674 0 0 Z " fill="#DA3744" transform="translate(200,16)"/>
<path d="M0 0 C1.308 -0.006 2.615 -0.012 3.963 -0.019 C6.72 -0.029 9.478 -0.025 12.236 -0.01 C15.759 0.007 19.28 -0.016 22.803 -0.051 C26.181 -0.079 29.559 -0.069 32.938 -0.062 C34.197 -0.076 35.456 -0.089 36.754 -0.103 C46.488 0.001 46.488 0.001 50.158 2.883 C53.759 7.189 54.402 11.049 54.402 16.566 C54.796 16.559 54.796 16.559 56.786 16.519 C60.366 16.456 63.947 16.417 67.527 16.379 C68.146 16.366 68.146 16.366 71.277 16.303 C72.476 16.293 73.675 16.283 74.91 16.273 C76.01 16.258 77.11 16.242 78.243 16.226 C83.343 16.776 86.523 18.707 90.152 22.254 C93.271 26.289 93.881 30.738 94.785 35.645 C96.146 42.128 99.22 46.189 104.59 50.191 C107.857 52.95 109.193 54.727 109.677 58.986 C109.706 61.951 109.73 64.914 109.715 67.879 C109.711 68.961 109.706 70.043 109.702 71.158 C109.565 80.922 108.162 89.703 105.348 99.082 C102.497 109.027 101.873 118.463 101.73 128.812 C101.57 138.649 100.666 147.632 96.59 156.691 C96.303 157.33 96.016 157.968 95.72 158.625 C82.411 187.558 82.411 187.558 78.402 191.566 C77.862 194.825 77.436 198.093 77 201.367 C76.474 204.183 75.844 206.124 74.402 208.566 C74.072 208.566 73.742 208.566 73.402 208.566 C73.567 207.391 73.732 206.215 73.902 205.004 C74.083 203.193 74.247 201.38 74.402 199.566 C74.517 198.36 74.632 197.153 74.75 195.91 C75.282 186.238 75.282 186.238 73.145 182.176 C71.061 179.956 68.901 178.309 66.402 176.566 C65.392 175.803 64.381 175.04 63.34 174.254 C48.341 163.323 30.779 155.801 13.144 150.291 C12.273 150.003 11.402 149.715 10.504 149.418 C10.119 149.298 10.119 149.298 8.17 148.694 C6.402 147.566 6.402 147.566 5.646 144.951 C5.606 144.557 5.606 144.557 5.402 142.566 C12.802 144.431 19.853 146.711 26.902 149.629 C27.845 150.018 28.788 150.407 29.759 150.808 C43.487 156.59 56.773 163.167 68.402 172.566 C69.06 173.096 69.717 173.626 70.395 174.172 C71.747 175.284 73.078 176.421 74.402 177.566 C75.209 162.332 73.088 141.595 64.402 128.566 C62.498 127.615 62.498 127.615 60.184 126.812 C59.333 126.515 58.482 126.218 57.605 125.912 C56.713 125.612 55.821 125.313 54.902 125.004 C54.041 124.7 53.18 124.397 52.293 124.084 C44.379 121.365 36.461 119.504 28.09 119.004 C26.842 118.928 25.594 118.852 24.309 118.773 C20.226 118.578 16.144 118.483 12.059 118.391 C10.07 118.34 8.081 118.289 6.092 118.238 C4.105 118.192 2.117 118.163 0.13 118.135 C-1.097 118.104 -2.323 118.074 -3.586 118.043 C-4.695 118.023 -5.804 118.003 -6.947 117.983 C-7.821 117.845 -8.696 117.708 -9.598 117.566 C-10.258 116.576 -10.918 115.586 -11.598 114.566 C-8.06 113.387 -4.818 113.367 -1.133 113.328 C-0.392 113.318 0.35 113.309 1.113 113.299 C3.522 113.274 5.931 113.261 8.34 113.254 C9.157 113.251 9.974 113.249 10.815 113.246 C23.413 113.242 35.245 114.01 47.402 117.566 C48.073 117.758 48.744 117.951 49.435 118.148 C52.332 118.989 55.205 119.876 58.066 120.832 C60.402 121.566 60.402 121.566 62.402 121.566 C62.286 121.309 62.286 121.309 61.7 120.009 C60.639 117.655 59.583 115.298 58.527 112.941 C58.345 112.537 58.345 112.537 57.422 110.492 C55.877 107.038 54.455 103.746 53.395 100.105 C52.402 97.566 52.402 97.566 50.738 96.453 C49.967 96.161 49.197 95.868 48.402 95.566 C47.301 94.933 46.201 94.301 45.066 93.648 C23.349 81.302 0.955 77.719 -23.598 75.566 C-23.598 74.246 -23.598 72.926 -23.598 71.566 C-0.494 70.646 20.599 76.652 41.473 86.246 C44.402 87.566 44.402 87.566 45.402 87.566 C33.145 66.303 18.364 47.153 2.402 28.566 C1.964 29.002 1.526 29.438 1.074 29.887 C-2.941 33.657 -6.692 36.227 -11.723 38.504 C-18.316 41.626 -21.779 45.333 -24.64 51.993 C-25.972 56.964 -25.955 61.744 -26.012 66.871 C-26.031 67.95 -26.05 69.029 -26.07 70.141 C-26.13 73.574 -26.177 77.008 -26.223 80.441 C-26.261 82.775 -26.3 85.108 -26.34 87.441 C-26.436 93.15 -26.521 98.858 -26.598 104.566 C-28.211 104.265 -29.824 103.957 -31.436 103.647 C-31.885 103.562 -31.885 103.562 -34.158 103.131 C-39.777 101.831 -43.445 97.992 -46.973 93.629 C-50.841 86.339 -50.917 79.612 -50.934 71.5 C-50.94 70.348 -50.947 69.195 -50.954 68.008 C-50.964 65.58 -50.969 63.152 -50.968 60.724 C-50.973 57.013 -51.009 53.303 -51.047 49.592 C-51.053 47.228 -51.057 44.864 -51.059 42.5 C-51.073 41.394 -51.087 40.287 -51.102 39.147 C-51.065 32.958 -50.759 29.264 -46.598 24.566 C-43.175 21.375 -39.805 19.6 -35.473 17.879 C-34.439 17.463 -33.405 17.046 -32.34 16.617 C-30.442 15.89 -28.526 15.209 -26.598 14.566 C-25.66 12.879 -25.66 12.879 -24.598 10.566 C-18.664 0.018 -11.137 -0.044 0 0 Z " fill="#9EC63D" transform="translate(346.59765625,7.43359375)"/>
<path d="M0 0 C4.427 3.469 7.864 7.026 11.25 11.5 C11.724 12.117 12.198 12.733 12.686 13.369 C13.662 14.638 14.634 15.91 15.605 17.183 C16.866 18.825 18.152 20.447 19.441 22.066 C24.729 28.747 29.574 35.669 34.312 42.75 C34.899 43.625 35.486 44.501 36.091 45.403 C39.666 50.8 42.951 56.289 46 62 C42.969 60.823 39.99 59.558 37.023 58.23 C16.956 49.347 -2.989 44.452 -25 45 C-25 45.66 -25 46.32 -25 47 C-24.633 47.035 -24.633 47.035 -22.775 47.212 C2.567 49.679 29.38 53.368 50.098 69.648 C53.01 73.249 54.768 77.307 56.688 81.5 C56.889 81.927 56.889 81.927 57.908 84.09 C59.592 87.706 61.139 91.091 62 95 C55.299 93.589 48.728 91.856 42.137 90 C31.316 87.276 20.922 86.708 9.824 86.794 C7.345 86.813 4.866 86.815 2.387 86.814 C0.807 86.819 -0.772 86.825 -2.352 86.832 C-2.721 86.833 -2.721 86.833 -4.592 86.835 C-9.768 86.884 -9.768 86.884 -12 88 C-10.208 89.792 -7.51 89.215 -5.086 89.281 C-3.857 89.318 -2.628 89.354 -1.362 89.392 C-0.046 89.428 1.269 89.463 2.625 89.5 C5.298 89.584 7.971 89.673 10.645 89.762 C17.604 89.988 17.604 89.988 20.583 90.077 C30.5 90.395 39.536 92.186 49 95 C49.33 95.096 49.33 95.096 51.001 95.579 C62.061 98.848 62.061 98.848 65.262 102.773 C72.729 116.634 74.741 135.457 74 151 C73.539 150.648 73.077 150.296 72.602 149.934 C63.962 143.394 55.305 137.279 45.688 132.25 C44.727 131.746 43.767 131.243 42.777 130.724 C30.307 124.382 17.158 119.693 4 115 C4.244 116.89 4.244 116.89 5 119 C6.768 120.014 6.768 120.014 9.102 120.754 C9.973 121.045 10.845 121.337 11.743 121.637 C12.218 121.789 12.218 121.789 14.625 122.562 C36.985 130.223 57.162 140.162 74 157 C74.266 160.16 74.266 160.16 74.25 164.062 C74.253 164.697 74.253 164.697 74.266 167.91 C74 172 74 172 72 181 C45.27 181 18.54 181 -9 181 C-7 169 -7 169 -5.875 163.688 C-3.712 150.376 -2.193 133.647 -10 122 C-12.743 118.35 -15.69 115.141 -19 112 C-19.666 111.363 -20.333 110.726 -21.02 110.07 C-31.861 100.742 -47.529 95.533 -61.625 94.688 C-65 94 -65 94 -66.68 91.668 C-68.504 86.601 -68.514 81.972 -68.5 76.625 C-68.528 75.622 -68.557 74.619 -68.586 73.586 C-68.604 66.875 -67.564 62.082 -63 57 C-59.42 54.172 -56.657 53 -52 53 C-51.769 53.797 -51.539 54.593 -51.301 55.414 C-48.821 63.47 -46.856 69.131 -39.125 73.25 C-35.546 74.957 -31.809 75.927 -28 77 C-28.009 76.406 -28.018 75.812 -28.027 75.2 C-28.116 68.987 -28.176 62.773 -28.22 56.559 C-28.24 54.244 -28.267 51.929 -28.302 49.614 C-28.351 46.275 -28.373 42.937 -28.391 39.598 C-28.411 38.572 -28.432 37.547 -28.453 36.49 C-28.456 28.452 -26.559 22.161 -21.723 15.691 C-18.541 12.546 -15.446 10.826 -11.438 8.938 C-6.478 6.586 -3.187 4.679 0 0 Z " fill="#4D6E15" transform="translate(348,35)"/>
<path d="M0 0 C10.56 0 21.12 0 32 0 C32 10.56 32 21.12 32 32 C36.62 32 41.24 32 46 32 C51.23 34.254 53.81 37.835 56 43 C56.562 45.862 56.615 48.651 56.625 51.562 C56.634 51.976 56.634 51.976 56.681 54.068 C56.736 56.784 56.762 59.499 56.785 62.215 C56.813 64.114 56.842 66.013 56.871 67.912 C56.928 71.885 56.971 75.858 57.004 79.832 C57.047 84.911 57.131 89.988 57.227 95.067 C57.295 98.986 57.34 102.906 57.378 106.826 C57.399 108.698 57.428 110.57 57.466 112.441 C57.515 115.064 57.531 117.685 57.539 120.308 C57.56 121.073 57.581 121.837 57.603 122.625 C57.572 127.858 56.198 131.019 53.187 135.289 C44.936 147.186 49.005 165.861 51.389 179.173 C52.199 183.461 53.08 187.733 54 192 C50.797 191.732 49.857 190.854 47.555 188.516 C46.651 187.436 45.759 186.346 44.875 185.25 C44.393 184.666 43.91 184.082 43.414 183.48 C39.813 179.088 36.338 174.603 32.905 170.08 C29.592 165.725 26.157 161.481 22.688 157.25 C18.081 151.632 13.629 145.921 9.25 140.125 C-6.648 119.26 -6.648 119.26 -20.166 115.941 C-21.431 115.631 -22.696 115.32 -24 115 C-24.093 105.586 -24.164 96.172 -24.207 86.757 C-24.228 82.385 -24.256 78.013 -24.302 73.642 C-24.345 69.421 -24.369 65.2 -24.38 60.979 C-24.387 59.37 -24.401 57.762 -24.423 56.154 C-24.452 53.896 -24.456 51.64 -24.454 49.382 C-24.463 48.099 -24.472 46.815 -24.481 45.493 C-23.764 40.286 -21.27 37.27 -17.625 33.625 C-14 32 -14 32 0 32 C0 21.44 0 10.88 0 0 Z " fill="#02A3EB" transform="translate(136,24)"/>
<path d="M0 0 C10.56 0 21.12 0 32 0 C32.226 30.302 32.405 60.604 32.511 90.907 C32.523 94.491 32.536 98.076 32.549 101.66 C32.552 102.374 32.555 103.087 32.557 103.822 C32.601 115.348 32.679 126.873 32.772 138.399 C32.865 150.241 32.921 162.084 32.941 173.927 C32.953 180.572 32.984 187.216 33.057 193.861 C33.126 200.126 33.146 206.389 33.131 212.654 C33.134 214.944 33.153 217.233 33.192 219.523 C33.434 234.659 31.397 244.021 22 256 C20.968 257.543 19.947 259.094 18.953 260.662 C18.126 261.891 17.297 263.119 16.465 264.344 C16.015 265.009 15.566 265.675 15.102 266.36 C14.179 267.725 13.254 269.089 12.328 270.452 C10.902 272.552 9.483 274.657 8.064 276.762 C7.157 278.102 6.248 279.442 5.34 280.781 C4.917 281.409 4.494 282.037 4.059 282.684 C3.065 284.141 2.036 285.573 1 287 C0.67 287 0.34 287 0 287 C0 192.29 0 97.58 0 0 Z " fill="#E4A95B" transform="translate(360,216)"/>
<path d="M0 0 C0.734 25.522 -0.242 57.863 -15 80 C-7.41 80 0.18 80 8 80 C4.865 101.948 -9.093 123.951 -26.262 137.828 C-40.923 148.688 -56.091 152.661 -74 152 C-73.924 137.63 -68.639 127.76 -61.464 115.556 C-54.392 103.207 -49.037 90.604 -48.895 76.254 C-48.744 61.25 -46.799 48.005 -42.693 33.6 C-41.71 29.913 -41.074 26.196 -40.438 22.438 C-39.085 15.551 -37.447 11.612 -31.84 7.363 C-21.714 0.736 -11.907 -0.511 0 0 Z " fill="#346C2E" transform="translate(496,64)"/>
<path d="M0 0 C4.623 2.226 8.421 5.516 11 10 C13.877 18.653 13.798 28.487 14.433 37.515 C14.626 40.258 14.828 43 15.031 45.742 C15.159 47.5 15.287 49.258 15.414 51.016 C15.444 51.422 15.444 51.422 15.594 53.478 C15.886 57.662 16.063 61.802 16 66 C15.033 66.147 14.066 66.294 13.07 66.445 C2.364 68.226 -6.835 71.145 -13.758 80.102 C-18.446 87.267 -19.918 94.585 -21 103 C-32.661 102.549 -44.306 101.77 -55.94 100.868 C-57.516 100.748 -59.092 100.634 -60.67 100.527 C-62.923 100.372 -65.174 100.195 -67.426 100.012 C-68.74 99.913 -70.054 99.815 -71.407 99.714 C-78.235 98.357 -81.971 94.295 -86 89 C-87.974 85.051 -87.438 80.304 -87 76 C-84.864 71.569 -82.624 68.771 -78 67 C-67.346 65.371 -56.879 69.511 -46.812 72.5 C-44.984 73.031 -43.155 73.561 -41.326 74.09 C-36.88 75.378 -32.438 76.684 -28 78 C-27.67 77.67 -27.34 77.34 -27 77 C-27.62 76.501 -28.24 76.002 -28.879 75.488 C-35.174 70.384 -41.328 65.146 -47.43 59.813 C-51.241 56.491 -55.109 53.277 -59.062 50.125 C-69.967 41.187 -69.967 41.187 -71.062 34.5 C-71.33 28.665 -69.366 24.661 -65.688 20.188 C-61.513 16.79 -57.948 15.764 -52.625 15.938 C-39.838 17.895 -28.877 36.851 -21.246 46.246 C-17.206 51.199 -13.099 56.096 -9 61 C-10.75 53.608 -12.579 46.275 -14.824 39.016 C-15.141 37.98 -15.458 36.944 -15.785 35.877 C-16.414 33.84 -17.056 31.807 -17.713 29.779 C-20.155 21.822 -21.999 13.219 -18.312 5.438 C-12.819 -0.353 -7.796 -1.022 0 0 Z " fill="#638D19" transform="translate(95,72)"/>
<path d="M0 0 C6.868 5.764 12.239 12.924 17.631 20.031 C20.994 24.453 24.476 28.767 28 33.062 C33.161 39.364 38.149 45.78 43.064 52.275 C46.963 57.412 50.998 62.395 55.176 67.309 C56.688 69.312 56.688 69.312 56.688 71.312 C46.534 71.616 36.382 71.846 26.224 71.986 C21.506 72.053 16.791 72.145 12.074 72.293 C-24.287 73.409 -24.287 73.409 -33.586 64.996 C-35.202 63.333 -36.678 61.654 -38.098 59.821 C-39.785 57.725 -41.797 56.175 -43.938 54.562 C-50.536 48.665 -54.833 41.455 -55.527 32.562 C-55.873 21.728 -53.44 12.646 -46.312 4.312 C-33.201 -7.987 -15.306 -10.838 0 0 Z " fill="#FE9A00" transform="translate(129.3125,144.6875)"/>
<path d="M0 0 C1.462 0.02 2.923 0.038 4.385 0.055 C7.945 0.098 11.503 0.167 15.062 0.25 C14.072 0.91 13.082 1.57 12.062 2.25 C6.34 6.437 4.822 9.969 3.375 16.875 C2.552 23.336 2.552 23.336 4.484 26.793 C6.447 28.874 8.493 30.823 10.588 32.768 C13.475 35.67 15.859 38.983 18.312 42.25 C18.861 42.975 19.409 43.7 19.974 44.446 C21.679 46.708 23.372 48.977 25.062 51.25 C25.621 51.999 26.179 52.748 26.753 53.52 C34.377 63.797 41.451 74.295 48.062 85.25 C48.16 83.992 48.258 82.734 48.359 81.438 C51.598 43.047 51.598 43.047 64.062 32.25 C64.558 32.415 64.558 32.415 67.062 33.25 C66.463 36.262 65.535 38.207 63.75 40.688 C57.539 50.406 55.431 62.932 54.062 74.25 C54.013 74.661 54.013 74.661 53.761 76.739 C52.283 91.112 55.402 100.729 62.09 113.348 C65.255 119.39 67.515 125.586 69.625 132.062 C69.786 132.548 69.786 132.548 70.6 135.007 C73.731 144.787 75.373 153.948 75.363 164.227 C75.368 165.237 75.372 166.247 75.376 167.287 C75.382 169.407 75.383 171.526 75.378 173.646 C75.375 176.873 75.399 180.1 75.424 183.328 C75.426 185.398 75.427 187.469 75.426 189.539 C75.435 190.494 75.444 191.45 75.454 192.434 C75.413 198.392 74.482 202.795 72.062 208.25 C71.733 208.25 71.403 208.25 71.062 208.25 C71.228 207.074 71.392 205.899 71.562 204.688 C71.743 202.876 71.907 201.064 72.062 199.25 C72.177 198.043 72.292 196.837 72.41 195.594 C72.942 185.922 72.942 185.922 70.805 181.859 C68.721 179.64 66.561 177.993 64.062 176.25 C63.052 175.487 62.041 174.724 61 173.938 C46.001 163.006 28.439 155.484 10.804 149.974 C9.933 149.686 9.062 149.398 8.164 149.102 C7.779 148.982 7.779 148.982 5.831 148.377 C4.062 147.25 4.062 147.25 3.306 144.634 C3.266 144.241 3.266 144.241 3.062 142.25 C10.462 144.115 17.513 146.395 24.562 149.312 C25.505 149.702 26.448 150.091 27.419 150.492 C41.147 156.274 54.433 162.851 66.062 172.25 C66.72 172.78 67.377 173.31 68.055 173.855 C69.407 174.968 70.738 176.105 72.062 177.25 C72.869 162.016 70.748 141.279 62.062 128.25 C60.158 127.299 60.158 127.299 57.844 126.496 C56.993 126.199 56.142 125.902 55.266 125.596 C54.374 125.296 53.482 124.996 52.562 124.688 C51.701 124.384 50.84 124.08 49.953 123.768 C42.039 121.049 34.121 119.187 25.75 118.688 C24.502 118.611 23.254 118.535 21.969 118.457 C17.887 118.261 13.804 118.167 9.719 118.074 C7.73 118.023 5.741 117.973 3.752 117.921 C1.765 117.875 -0.223 117.847 -2.21 117.818 C-3.436 117.788 -4.662 117.758 -5.926 117.727 C-7.035 117.707 -8.144 117.687 -9.286 117.667 C-10.161 117.529 -11.036 117.392 -11.938 117.25 C-12.597 116.26 -13.257 115.27 -13.938 114.25 C-10.399 113.071 -7.158 113.051 -3.473 113.012 C-2.731 113.002 -1.99 112.992 -1.227 112.982 C1.182 112.957 3.591 112.945 6 112.938 C6.817 112.935 7.634 112.932 8.476 112.93 C21.073 112.925 32.905 113.694 45.062 117.25 C45.733 117.442 46.404 117.634 47.095 117.832 C49.992 118.673 52.866 119.56 55.727 120.516 C58.062 121.25 58.062 121.25 60.062 121.25 C59.947 120.993 59.947 120.993 59.36 119.693 C58.299 117.338 57.243 114.982 56.188 112.625 C56.005 112.221 56.005 112.221 55.082 110.176 C53.537 106.721 52.115 103.43 51.055 99.789 C50.062 97.25 50.062 97.25 48.398 96.137 C47.628 95.844 46.857 95.551 46.062 95.25 C44.962 94.617 43.861 93.984 42.727 93.332 C21.009 80.985 -1.385 77.403 -25.938 75.25 C-25.938 73.93 -25.938 72.61 -25.938 71.25 C-2.834 70.33 18.259 76.336 39.133 85.93 C42.062 87.25 42.062 87.25 43.062 87.25 C30.806 65.986 16.025 46.836 0.062 28.25 C-0.376 28.686 -0.814 29.121 -1.266 29.57 C-5.28 33.34 -9.032 35.911 -14.062 38.188 C-20.655 41.309 -24.119 45.016 -26.979 51.676 C-28.312 56.648 -28.295 61.427 -28.352 66.555 C-28.371 67.634 -28.39 68.713 -28.41 69.825 C-28.47 73.258 -28.516 76.691 -28.562 80.125 C-28.601 82.458 -28.64 84.792 -28.68 87.125 C-28.776 92.833 -28.861 98.542 -28.938 104.25 C-30.551 103.948 -32.164 103.641 -33.776 103.331 C-34.225 103.246 -34.225 103.246 -36.497 102.814 C-42.117 101.515 -45.785 97.676 -49.312 93.312 C-53.181 86.023 -53.257 79.295 -53.273 71.184 C-53.28 70.031 -53.287 68.879 -53.294 67.692 C-53.304 65.264 -53.308 62.836 -53.308 60.407 C-53.312 56.696 -53.349 52.986 -53.387 49.275 C-53.393 46.911 -53.397 44.548 -53.398 42.184 C-53.413 41.077 -53.427 39.971 -53.442 38.831 C-53.405 32.641 -53.099 28.947 -48.938 24.25 C-45.515 21.059 -42.145 19.283 -37.812 17.562 C-36.779 17.146 -35.745 16.73 -34.68 16.301 C-32.782 15.574 -30.866 14.893 -28.938 14.25 C-28 12.563 -28 12.563 -26.938 10.25 C-20.538 -1.126 -11.703 -0.28 0 0 Z " fill="#9EC63D" transform="translate(348.9375,7.75)"/>
<path d="M0 0 C-2.401 1.601 -4.695 2.879 -7.25 4.188 C-16.16 9.163 -21.509 16.177 -24.613 25.926 C-26.341 35.194 -25.279 44.602 -21 53 C-15.243 61.099 -8.404 67.193 1.355 69.565 C7.261 70.536 13.298 70.33 19.27 70.336 C20.756 70.342 22.243 70.349 23.73 70.356 C26.837 70.368 29.945 70.372 33.052 70.371 C37.006 70.37 40.959 70.398 44.913 70.432 C47.982 70.455 51.05 70.458 54.119 70.457 C55.576 70.46 57.032 70.468 58.488 70.484 C70.633 70.602 81.616 68.994 90.773 60.32 C94.858 56.029 97.213 51.874 99.176 46.297 C99.968 44.09 100.935 42.085 102 40 C102.57 55.962 102.099 71.702 97 87 C47.83 87 -1.34 87 -52 87 C-55.907 77.232 -57.491 66.488 -58 56 C-58.032 55.487 -58.032 55.487 -58.195 52.891 C-58.596 41.728 -56.385 31.661 -48.977 23.055 C-36.475 10.059 -18.657 -0.549 0 0 Z " fill="#AD313B" transform="translate(242,129)"/>
<path d="M0 0 C4.427 3.469 7.864 7.026 11.25 11.5 C11.724 12.117 12.198 12.733 12.686 13.369 C13.662 14.638 14.634 15.91 15.605 17.183 C16.866 18.825 18.152 20.447 19.441 22.066 C24.729 28.747 29.574 35.669 34.312 42.75 C34.899 43.625 35.486 44.501 36.091 45.403 C39.666 50.8 42.951 56.289 46 62 C42.969 60.823 39.99 59.558 37.023 58.23 C16.956 49.347 -2.989 44.452 -25 45 C-25 45.66 -25 46.32 -25 47 C-24.266 47.07 -23.532 47.14 -22.775 47.212 C2.567 49.679 29.38 53.368 50.098 69.648 C53.01 73.249 54.768 77.307 56.688 81.5 C56.889 81.927 56.889 81.927 57.908 84.09 C59.592 87.706 61.139 91.091 62 95 C55.299 93.589 48.728 91.856 42.137 90 C31.353 87.284 20.995 86.708 9.934 86.794 C7.476 86.813 5.02 86.815 2.562 86.814 C0.99 86.819 -0.583 86.825 -2.156 86.832 C-2.885 86.833 -3.615 86.834 -4.366 86.835 C-7.118 86.861 -9.628 86.896 -12.29 87.639 C-14 88 -14 88 -17.199 85.945 C-18.372 85.018 -19.535 84.077 -20.688 83.125 C-21.281 82.652 -21.875 82.179 -22.486 81.691 C-26.607 78.393 -26.607 78.393 -28 77 C-28.114 75.514 -28.16 74.022 -28.177 72.531 C-28.19 71.579 -28.203 70.627 -28.216 69.647 C-28.223 68.608 -28.231 67.57 -28.238 66.5 C-28.246 65.435 -28.254 64.37 -28.263 63.273 C-28.277 61.01 -28.287 58.747 -28.295 56.484 C-28.312 53.042 -28.356 49.602 -28.4 46.16 C-28.411 43.961 -28.419 41.762 -28.426 39.562 C-28.443 38.54 -28.461 37.518 -28.479 36.465 C-28.455 28.448 -26.548 22.144 -21.723 15.691 C-18.541 12.546 -15.446 10.826 -11.438 8.938 C-6.478 6.586 -3.187 4.679 0 0 Z " fill="#80A100" transform="translate(348,35)"/>
<path d="M0 0 C18.998 -0.474 41.582 1.688 56.484 14.633 C59.795 18.18 60.789 21.37 60.789 26.16 C58.697 32.567 54.143 36.169 48.52 39.508 C37.182 45.203 23.411 47.738 10.789 48.16 C9.717 48.2 8.644 48.24 7.539 48.281 C-10.745 48.628 -31.576 46.174 -46.395 34.43 C-49.101 31.593 -50.553 28.947 -51.336 25.098 C-51.184 20.301 -50.39 18.727 -47.211 15.16 C-34.707 3.436 -16.471 0.822 0 0 Z " fill="#88AB00" transform="translate(219.2109375,279.83984375)"/>
<path d="M0 0 C10.56 0 21.12 0 32 0 C32 10.56 32 21.12 32 32 C36.62 32 41.24 32 46 32 C50.575 33.972 52.76 36.505 55.175 40.84 C56.792 45.075 56.409 49.471 56.25 53.938 C56.232 54.908 56.214 55.878 56.195 56.877 C56.149 59.252 56.083 61.626 56 64 C53.36 64 50.72 64 48 64 C48.016 65.004 48.031 66.008 48.048 67.042 C48.102 70.778 48.136 74.515 48.165 78.252 C48.18 79.867 48.2 81.482 48.226 83.096 C48.263 85.422 48.28 87.748 48.293 90.074 C48.308 90.792 48.324 91.51 48.34 92.25 C48.341 96.68 47.739 99.483 45 103 C42.371 104.123 39.839 104.206 37 104 C33.733 102.325 33.172 101.517 32 98 C31.915 95.414 31.884 92.855 31.902 90.27 C31.903 89.604 31.904 88.939 31.905 88.253 C31.911 85.773 31.925 83.293 31.938 80.812 C31.958 75.264 31.979 69.716 32 64 C13.52 64 -4.96 64 -24 64 C-24 40 -24 40 -17.625 33.625 C-14 32 -14 32 0 32 C0 21.44 0 10.88 0 0 Z " fill="#E6F4F4" transform="translate(136,24)"/>
<path d="M0 0 C0.728 25.307 0.247 62.21 -17 83 C-19.637 83.664 -19.637 83.664 -22.688 83.625 C-29.967 83.832 -36.525 85.39 -43.543 87.16 C-47 88 -47 88 -49 88 C-49.024 69.048 -48.134 51.803 -42.693 33.503 C-41.683 29.854 -41.065 26.168 -40.438 22.438 C-39.085 15.551 -37.447 11.612 -31.84 7.363 C-21.714 0.736 -11.907 -0.511 0 0 Z " fill="#335E32" transform="translate(496,64)"/>
<path d="M0 0 C4.232 -0.125 8.462 -0.215 12.695 -0.275 C14.131 -0.3 15.566 -0.334 17.001 -0.377 C27.391 -0.685 35.082 0.312 43.48 6.965 C48.963 13.3 55.636 22.333 56.188 30.922 C56.157 31.265 56.157 31.265 56 33 C57.052 32.917 58.104 32.835 59.188 32.75 C69.341 32.786 78.862 37.239 87 43 C87.864 43.563 88.727 44.127 89.617 44.707 C93.559 47.623 95.743 49.435 96.559 54.402 C96.562 57.652 96.398 60.777 96 64 C68.904 64.97 32.99 61.138 12 42 C10.988 40.676 9.986 39.344 9 38 C8.01 37.34 7.02 36.68 6 36 C14.605 33.316 23.073 32.024 32 31 C31.25 30.709 30.5 30.417 29.727 30.117 C18.363 25.566 7.882 20.559 1.062 10 C-0.172 6.513 -0.074 3.674 0 0 Z " fill="#FE9A00" transform="translate(200,16)"/>
<path d="M0 0 C2.008 -0.025 4.016 -0.081 6.024 -0.138 C16.897 -0.237 16.897 -0.237 20.549 2.663 C23.91 6.836 24.572 10.718 25.026 15.975 C25.9 20.266 27.436 21.51 30.713 24.35 C32.891 26.272 34.764 28.169 36.713 30.35 C36.43 33.716 34.74 36.026 32.901 38.788 C24.191 53.039 22.387 70.959 21.713 87.35 C18.279 83.254 15.441 78.917 12.588 74.413 C5.928 64.024 -1.134 54.017 -8.724 44.288 C-9.173 43.707 -9.621 43.127 -10.083 42.529 C-12.42 39.548 -14.821 36.755 -17.498 34.073 C-25.085 26.31 -25.085 26.31 -25.67 20.635 C-24.772 13.127 -22.937 7.558 -17.224 2.538 C-11.986 -0.673 -5.945 0.053 0 0 Z " fill="#93BD2C" transform="translate(376.286865234375,7.64990234375)"/>
<path d="M0 0 C-0.907 0.639 -1.815 1.279 -2.75 1.938 C-7.174 5.648 -9.328 10.414 -10.383 16.043 C-10.712 21.543 -8.766 26.31 -6 31 C-5.46 31.54 -4.92 32.08 -4.363 32.637 C-3 34 -3 34 -3 36 C-2.505 36.165 -2.505 36.165 0 37 C0 37.66 0 38.32 0 39 C0.495 39.165 0.495 39.165 3 40 C3 40.66 3 41.32 3 42 C3.495 42.165 3.495 42.165 6 43 C6 43.66 6 44.32 6 45 C6.99 45.33 7.98 45.66 9 46 C9 46.66 9 47.32 9 48 C9.66 48 10.32 48 11 48 C11 48.66 11 49.32 11 50 C11.99 50.33 12.98 50.66 14 51 C14 51.66 14 52.32 14 53 C23.28 58.027 32.949 60.132 43.456 58.759 C51.014 56.505 56.359 49.031 61 43 C64.178 44.363 65.871 45.755 67.918 48.527 C68.446 49.232 68.975 49.937 69.519 50.664 C70.069 51.414 70.62 52.164 71.188 52.938 C72.339 54.48 73.493 56.022 74.648 57.562 C75.214 58.318 75.78 59.073 76.362 59.852 C79.276 63.674 82.375 67.335 85.488 70.996 C87 73 87 73 87 75 C76.846 75.303 66.694 75.533 56.537 75.674 C51.819 75.741 47.103 75.832 42.387 75.981 C6.025 77.096 6.025 77.096 -3.273 68.684 C-4.889 67.02 -6.366 65.341 -7.786 63.509 C-9.473 61.412 -11.484 59.863 -13.625 58.25 C-20.223 52.353 -24.52 45.143 -25.215 36.25 C-25.56 25.434 -23.14 16.31 -16 8 C-5.274 -1.758 -5.274 -1.758 0 0 Z " fill="#F27923" transform="translate(99,141)"/>
<path d="M0 0 C7.839 8.212 10.981 16.967 10.75 28.125 C10.741 28.956 10.732 29.788 10.723 30.645 C10.699 32.68 10.663 34.715 10.625 36.75 C-14.027 37.528 -38.536 33.587 -57.253 16.095 C-62.611 10.807 -67.919 4.313 -69.375 -3.25 C-46.64 -13.614 -21.151 -15.413 0 0 Z " fill="#80A000" transform="translate(261.375,91.25)"/>
<path d="M0 0 C10.56 0 21.12 0 32 0 C32.049 2.408 32.098 4.816 32.148 7.297 C32.202 9.634 32.26 11.97 32.317 14.307 C32.356 15.928 32.39 17.55 32.422 19.172 C32.468 21.506 32.526 23.839 32.586 26.172 C32.597 26.895 32.609 27.618 32.621 28.363 C32.818 35.118 32.818 35.118 35 38 C38.468 38.899 40.927 39.339 44.375 38.25 C46 37 46 37 47 34 C47.153 31.417 47.257 28.855 47.316 26.27 C47.337 25.519 47.358 24.769 47.379 23.996 C47.445 21.601 47.504 19.207 47.562 16.812 C47.606 15.188 47.649 13.564 47.693 11.939 C47.8 7.96 47.902 3.98 48 0 C50.64 0 53.28 0 56 0 C56.099 5.817 56.172 11.633 56.22 17.45 C56.24 19.426 56.267 21.401 56.302 23.377 C56.351 26.229 56.373 29.081 56.391 31.934 C56.411 32.806 56.432 33.678 56.453 34.577 C56.456 43.684 53.069 50.64 46.938 57.273 C40.607 62.915 33.396 64.373 25.133 64.273 C16.953 63.56 10.387 59.033 5 53 C1.711 47.914 -0.132 42.862 -0.114 36.782 C-0.113 35.962 -0.113 35.141 -0.113 34.296 C-0.108 33.42 -0.103 32.543 -0.098 31.641 C-0.096 30.736 -0.095 29.832 -0.093 28.9 C-0.088 26.017 -0.075 23.133 -0.062 20.25 C-0.057 18.293 -0.053 16.336 -0.049 14.379 C-0.039 9.586 -0.019 4.793 0 0 Z " fill="#2FCEFE" transform="translate(136,88)"/>
<path d="M0 0 C40.224 -0.285 40.224 -0.285 58 5 C58.66 5.191 59.321 5.382 60.001 5.579 C71.061 8.848 71.061 8.848 74.262 12.773 C81.729 26.634 83.741 45.457 83 61 C82.769 60.824 82.769 60.824 81.602 59.934 C72.962 53.394 64.305 47.279 54.688 42.25 C54.207 41.998 54.207 41.998 51.777 40.724 C39.307 34.382 26.158 29.693 13 25 C12.959 24.411 12.918 23.822 12.876 23.216 C12.213 15.601 9.813 9.761 4.27 4.293 C2.883 3.15 1.446 2.067 0 1 C0 0.67 0 0.34 0 0 Z " fill="#88AB01" transform="translate(339,125)"/>
<path d="M0 0 C7.254 1.371 13.713 3.683 20.5 6.562 C21.552 7.007 22.603 7.451 23.687 7.908 C37.569 13.858 50.306 20.357 62 30 C62.755 30.526 63.511 31.052 64.289 31.594 C67.756 34.301 68.862 36.025 69.488 40.453 C69.627 47.8 68.62 53.712 67 61 C54.13 61 41.26 61 28 61 C27.175 57.844 26.35 54.689 25.5 51.438 C21.675 37.67 15.753 26.904 6.984 15.656 C3.43 10.898 0.748 5.981 0 0 Z " fill="#80A100" transform="translate(353,155)"/>
<path d="M0 0 C1.385 1.624 2.708 3.301 4 5 C26.766 23.541 59.107 25.195 87 27 C87 29.64 87 32.28 87 35 C86.668 35.098 86.668 35.098 84.988 35.594 C84.105 35.893 83.222 36.192 82.312 36.5 C81.442 36.778 80.572 37.057 79.676 37.344 C75.711 39.798 73.709 42.677 72 47 C71.389 50.904 71.433 54.684 71.562 58.625 C71.568 59.636 71.574 60.646 71.58 61.688 C71.664 66.82 71.963 71.206 74 76 C72.185 75.835 72.185 75.835 63 75 C62.986 73.84 62.972 72.68 62.957 71.484 C62.678 60.443 61.473 50.869 54.812 41.625 C43.111 30.703 27.46 27.611 11.898 27.711 C1.926 28.45 -7.589 31.79 -17 35 C-17.02 34.39 -17.04 33.78 -17.06 33.152 C-17.156 30.371 -17.265 27.592 -17.375 24.812 C-17.406 23.853 -17.437 22.893 -17.469 21.904 C-17.507 20.973 -17.546 20.042 -17.586 19.082 C-17.617 18.228 -17.649 17.375 -17.681 16.495 C-18.033 13.738 -18.871 11.53 -20 9 C-6.977 -1.213 -6.977 -1.213 0 0 Z " fill="#F0681B" transform="translate(209,53)"/>
<path d="M0 0 C4.427 3.469 7.864 7.026 11.25 11.5 C11.724 12.117 12.198 12.733 12.686 13.369 C13.662 14.638 14.634 15.91 15.605 17.183 C16.866 18.825 18.152 20.447 19.441 22.066 C24.729 28.747 29.574 35.669 34.312 42.75 C34.899 43.625 35.486 44.501 36.091 45.403 C39.666 50.8 42.951 56.289 46 62 C42.969 60.823 39.99 59.558 37.023 58.23 C19.011 50.257 -8.169 39.39 -28 46 C-28.843 24.296 -28.843 24.296 -20.505 14.458 C-17.873 11.908 -14.726 10.486 -11.438 8.938 C-6.478 6.586 -3.187 4.679 0 0 Z " fill="#88AB01" transform="translate(348,35)"/>
<path d="M0 0 C5.049 3.832 8.67 8.245 12.578 13.198 C13.588 14.478 14.601 15.754 15.617 17.028 C23.598 27.045 31.092 37.217 38 48 C38.871 49.348 39.742 50.696 40.613 52.043 C42.752 55.356 44.879 58.676 47 62 C47.098 60.742 47.196 59.484 47.297 58.188 C50.536 19.797 50.536 19.797 63 9 C63.99 9.33 64.98 9.66 66 10 C65.4 13.012 64.472 14.957 62.688 17.438 C56.477 27.156 54.369 39.682 53 51 C52.95 51.411 52.95 51.411 52.698 53.489 C51.221 67.862 54.34 77.479 61.027 90.098 C64.193 96.14 66.453 102.336 68.562 108.812 C68.884 109.784 69.206 110.756 69.537 111.757 C72.668 121.537 74.311 130.698 74.301 140.977 C74.305 141.987 74.309 142.997 74.314 144.037 C74.319 146.157 74.32 148.276 74.316 150.396 C74.313 153.623 74.336 156.85 74.361 160.078 C74.364 162.148 74.364 164.219 74.363 166.289 C74.372 167.244 74.382 168.2 74.391 169.184 C74.35 175.142 73.42 179.545 71 185 C70.67 185 70.34 185 70 185 C70.165 183.824 70.33 182.649 70.5 181.438 C70.681 179.626 70.845 177.814 71 176 C71.115 174.793 71.229 173.587 71.348 172.344 C71.88 162.672 71.88 162.672 69.742 158.609 C67.658 156.39 65.498 154.743 63 153 C61.989 152.237 60.979 151.474 59.938 150.688 C44.939 139.756 27.376 132.234 9.742 126.724 C8.871 126.436 7.999 126.148 7.102 125.852 C6.332 125.613 5.561 125.374 4.768 125.127 C3 124 3 124 2.244 121.384 C2.163 120.597 2.083 119.811 2 119 C9.4 120.865 16.45 123.145 23.5 126.062 C24.443 126.452 25.385 126.841 26.357 127.242 C40.085 133.024 53.371 139.601 65 149 C65.657 149.53 66.315 150.06 66.992 150.605 C68.344 151.718 69.676 152.855 71 154 C71.807 138.766 69.686 118.029 61 105 C59.096 104.049 59.096 104.049 56.781 103.246 C55.93 102.949 55.08 102.652 54.203 102.346 C53.311 102.046 52.419 101.746 51.5 101.438 C50.639 101.134 49.778 100.83 48.891 100.518 C40.977 97.799 33.059 95.937 24.688 95.438 C23.44 95.361 22.192 95.285 20.906 95.207 C16.824 95.011 12.742 94.917 8.656 94.824 C6.667 94.773 4.679 94.723 2.69 94.671 C0.703 94.625 -1.285 94.597 -3.273 94.568 C-4.499 94.538 -5.725 94.508 -6.988 94.477 C-8.097 94.457 -9.206 94.437 -10.349 94.417 C-11.224 94.279 -12.099 94.142 -13 94 C-13.66 93.01 -14.32 92.02 -15 91 C-11.462 89.821 -8.22 89.801 -4.535 89.762 C-3.794 89.752 -3.053 89.742 -2.289 89.732 C0.12 89.707 2.528 89.695 4.938 89.688 C5.754 89.685 6.571 89.682 7.413 89.68 C20.011 89.675 31.843 90.444 44 94 C44.671 94.192 45.342 94.384 46.033 94.582 C48.93 95.423 51.803 96.31 54.664 97.266 C57 98 57 98 59 98 C58.884 97.743 58.884 97.743 58.297 96.443 C57.237 94.088 56.181 91.732 55.125 89.375 C54.943 88.971 54.943 88.971 54.02 86.926 C52.475 83.471 51.052 80.18 49.992 76.539 C49 74 49 74 47.336 72.887 C46.565 72.594 45.794 72.301 45 72 C43.899 71.367 42.798 70.734 41.664 70.082 C19.946 57.735 -2.448 54.153 -27 52 C-27 50.68 -27 49.36 -27 48 C-3.896 47.08 17.197 53.086 38.07 62.68 C41 64 41 64 42 64 C31.886 46.454 20.334 29.555 6.832 14.418 C6.316 13.834 5.801 13.249 5.27 12.647 C4.281 11.535 3.28 10.435 2.263 9.349 C0.922 7.84 0.922 7.84 -1 5 C-0.797 2.129 -0.797 2.129 0 0 Z " fill="#B5D36A" transform="translate(350,31)"/>
<path d="M0 0 C5.846 0.093 9.244 1.638 13.359 5.867 C16.665 9.932 17.268 14.293 18.195 19.328 C19.556 25.812 22.63 29.873 28 33.875 C31.267 36.634 32.604 38.41 33.087 42.669 C33.116 45.634 33.14 48.597 33.125 51.562 C33.123 52.104 33.123 52.104 33.112 54.842 C32.975 64.605 31.572 73.386 28.758 82.766 C25.851 92.908 25.279 102.557 25.14 113.11 C25.122 114.234 25.104 115.358 25.086 116.516 C25.08 117.524 25.074 118.532 25.068 119.571 C24.804 122.343 24.401 123.97 22.812 126.25 C19.5 127.312 19.5 127.312 15.812 127.25 C12.612 124.745 11.1 123.112 9.812 119.25 C8.966 108.698 10.394 100.354 15.562 91.125 C17.341 87.035 17.588 83.642 16.812 79.25 C16.036 77.454 15.198 75.683 14.312 73.938 C10.821 66.906 11.204 60.436 12.312 52.812 C13.555 43.958 14.068 35.825 8.812 28.25 C8.308 27.618 7.804 26.987 7.285 26.336 C5.692 24.079 4.935 22.051 4.062 19.438 C2.282 14.7 -0.061 12.192 -3.766 8.852 C-5.188 7.25 -5.188 7.25 -5.688 3.875 C-4.912 -0.194 -3.876 0.078 0 0 Z " fill="#B8D570" transform="translate(423.1875,23.75)"/>
<path d="M0 0 C5.761 5.163 7.547 11.866 8.212 19.407 C8.555 26.244 8.459 33.083 8.391 39.926 C8.383 42.127 8.377 44.328 8.373 46.529 C8.358 52.281 8.319 58.033 8.275 63.785 C8.234 69.671 8.215 75.557 8.195 81.443 C8.153 92.962 8.084 104.481 8 116 C6.638 113.337 5.585 110.864 4.809 107.973 C1.034 94.428 -3.505 80.871 -10.373 68.535 C-13.815 62.299 -14.74 57.463 -14.5 50.375 C-14.482 49.419 -14.465 48.462 -14.446 47.477 C-14.196 39.065 -13.054 31.162 -11 23 C-10.71 21.827 -10.42 20.654 -10.121 19.445 C-8.128 12.222 -5.4 5.4 0 0 Z " fill="#89B029" transform="translate(416,43)"/>
<path d="M0 0 C0.66 0 1.32 0 2 0 C2.086 0.701 2.173 1.403 2.262 2.125 C3.378 9.66 5.034 15.376 10.766 20.613 C15.444 24.069 20.45 26.005 25.875 27.938 C37.163 31.96 46.714 37.027 52.081 48.263 C53.046 50.659 53.94 53.07 54.812 55.5 C57.647 63.046 60.922 69.966 65.206 76.799 C67.58 80.701 68.647 83.428 68 88 C65.812 90.875 65.812 90.875 63 93 C60.324 93.133 60.324 93.133 58 93 C57.986 92.056 57.972 91.113 57.957 90.141 C57.427 75.865 53.571 66.029 43 56 C42.334 55.363 41.667 54.726 40.98 54.07 C30.139 44.742 14.471 39.533 0.375 38.688 C-3 38 -3 38 -4.68 35.668 C-6.504 30.601 -6.514 25.972 -6.5 20.625 C-6.528 19.622 -6.557 18.619 -6.586 17.586 C-6.604 10.727 -5.359 6.343 -1 1 C-0.67 0.67 -0.34 0.34 0 0 Z " fill="#628B1B" transform="translate(286,91)"/>
<path d="M0 0 C0.533 0.009 0.533 0.009 3.229 0.055 C5.841 0.102 8.451 0.167 11.062 0.25 C8.588 1.49 6.109 2.718 3.625 3.938 C-1.769 7.061 -4.331 11.85 -6.875 17.375 C-9.806 23.387 -14.049 25.892 -19.938 28.562 C-25.151 31.039 -28.108 34.259 -30.938 39.25 C-31.948 42.282 -32.09 44.442 -32.148 47.617 C-32.163 48.142 -32.163 48.142 -32.234 50.801 C-32.286 53.009 -32.331 55.217 -32.367 57.426 C-32.383 57.952 -32.383 57.952 -32.461 60.617 C-32.481 61.577 -32.501 62.538 -32.521 63.527 C-33.009 66.719 -34.055 68.646 -35.938 71.25 C-38.566 72.373 -41.098 72.456 -43.938 72.25 C-47.205 70.575 -47.765 69.767 -48.938 66.25 C-49.07 63.589 -49.15 60.955 -49.176 58.293 C-49.184 57.512 -49.192 56.732 -49.2 55.928 C-49.214 54.276 -49.225 52.624 -49.233 50.972 C-49.244 49.288 -49.265 47.603 -49.294 45.919 C-49.337 43.481 -49.353 41.044 -49.363 38.605 C-49.381 37.858 -49.398 37.111 -49.416 36.342 C-49.395 31.142 -48.193 28.264 -44.938 24.25 C-41.515 21.059 -38.145 19.283 -33.812 17.562 C-32.779 17.146 -31.745 16.73 -30.68 16.301 C-28.782 15.574 -26.866 14.893 -24.938 14.25 C-24 12.563 -24 12.563 -22.938 10.25 C-17.322 0.266 -10.584 -0.342 0 0 Z " fill="#B8D670" transform="translate(344.9375,7.75)"/>
<path d="M0 0 C3.192 0.581 4.832 1.457 7.116 3.744 C7.697 4.318 8.277 4.892 8.875 5.484 C9.182 5.795 9.182 5.795 10.734 7.371 C11.372 8.009 12.01 8.646 12.668 9.303 C14.013 10.65 15.354 12.001 16.692 13.356 C18.747 15.435 20.816 17.5 22.887 19.564 C24.191 20.874 25.494 22.185 26.797 23.496 C27.419 24.117 28.04 24.738 28.681 25.378 C33 29.769 33 29.769 33 32 C25.249 33.984 17.495 35.958 9.738 37.919 C6.136 38.83 2.535 39.744 -1.063 40.667 C-4.537 41.557 -8.012 42.438 -11.49 43.312 C-12.816 43.647 -14.141 43.986 -15.465 44.328 C-17.321 44.806 -19.179 45.272 -21.038 45.737 C-21.567 45.871 -21.567 45.871 -24.241 46.551 C-26.932 46.989 -28.462 46.903 -31 46 C-30.821 45.734 -30.821 45.734 -29.913 44.388 C-26.181 38.856 -22.451 33.325 -18.72 27.793 C-17.327 25.728 -15.934 23.663 -14.541 21.598 C-12.54 18.632 -10.54 15.665 -8.539 12.699 C-7.915 11.774 -7.291 10.849 -6.648 9.896 C-6.068 9.035 -5.487 8.175 -4.889 7.288 C-4.378 6.531 -3.868 5.773 -3.341 4.993 C-2.223 3.332 -1.111 1.666 0 0 Z " fill="#A15C27" transform="translate(391,457)"/>
<path d="M0 0 C7.839 8.212 10.981 16.967 10.75 28.125 C10.741 28.956 10.732 29.788 10.723 30.645 C10.699 32.68 10.663 34.715 10.625 36.75 C9.893 36.013 9.161 35.275 8.406 34.516 C-13.534 12.699 -37.215 1.715 -67.375 -3.25 C-64.579 -6.046 -61.26 -6.703 -57.562 -7.812 C-56.85 -8.034 -56.138 -8.255 -55.404 -8.482 C-36.637 -14.229 -16.071 -11.711 0 0 Z " fill="#A1C103" transform="translate(261.375,91.25)"/>
<path d="M0 0 C4.232 -0.125 8.462 -0.215 12.695 -0.275 C14.131 -0.3 15.566 -0.334 17.001 -0.377 C27.391 -0.685 35.082 0.312 43.48 6.965 C48.963 13.3 55.636 22.333 56.188 30.922 C56.157 31.265 56.157 31.265 56 33 C37.642 32.637 20.332 30.307 6.375 16.938 C1.337 11.41 -0.141 7.489 0 0 Z " fill="#A1C102" transform="translate(200,16)"/>
<path d="M0 0 C10.635 6.202 19.139 19.828 26.75 29.258 C28.411 31.282 30.092 33.269 31.812 35.242 C32.281 35.785 32.749 36.329 33.232 36.888 C34.557 38.421 35.891 39.945 37.227 41.469 C37.519 41.886 37.519 41.886 39 44 C38 47 38 47 35.562 48.688 C31.012 50.364 26.791 50.928 22 50 C17.145 47.113 13.327 43.62 9.359 39.625 C8.751 39.019 8.143 38.412 7.516 37.788 C6.24 36.513 4.966 35.235 3.694 33.955 C1.749 31.999 -0.207 30.054 -2.164 28.109 C-3.407 26.865 -4.649 25.62 -5.891 24.375 C-6.474 23.796 -7.057 23.216 -7.658 22.62 C-11.674 18.558 -14.282 15.494 -14.312 9.562 C-14.228 5.614 -13.549 3.137 -11 0 C-7.401 -1.8 -3.784 -1.045 0 0 Z " fill="#87AA00" transform="translate(47,89)"/>
<path d="M0 0 C1.196 1.794 2.366 3.607 3.48 5.453 C13.113 21.236 27.493 30.332 45.23 35.375 C50.759 36.623 56.378 37.311 62 38 C62 38.33 62 38.66 62 39 C60.924 39.11 59.847 39.219 58.738 39.332 C38.759 41.458 17.268 45.91 3.305 61.715 C2 63 2 63 0 63 C0 42.21 0 21.42 0 0 Z " fill="#F0671C" transform="translate(192,89)"/>
<path d="M0 0 C2.283 2.052 4.179 4.085 5.852 6.664 C6.264 7.262 6.677 7.86 7.102 8.477 C8.551 12.705 8.67 16.578 7.047 20.715 C1.336 30.857 -8.435 35.33 -19.148 38.664 C-45.346 45.729 -76.036 45.923 -100.348 32.559 C-105.686 28.948 -110.654 24.138 -112.148 17.664 C-112.779 11.991 -111.613 8.132 -108.148 3.664 C-85.321 -21.77 -25.567 -19.944 0 0 Z M-104.961 6.164 C-107.407 9.538 -108.225 12.449 -108.148 16.664 C-105.937 23.435 -101.193 27.076 -95.07 30.27 C-70.208 41.558 -39.847 41.541 -14.148 32.664 C-7.356 29.775 -0.843 26.311 2.852 19.664 C4.316 15.566 4.264 12.562 2.414 8.539 C-8.945 -4.206 -26.059 -7.906 -42.512 -9.211 C-62.288 -10.148 -90.218 -9.533 -104.961 6.164 Z " fill="#F7AD20" transform="translate(276.1484375,289.3359375)"/>
<path d="M0 0 C2 1 2 1 2.938 3.438 C5.372 6.462 6.05 6.446 9.75 7.027 C10.244 7.107 10.244 7.107 12.744 7.511 C13.281 7.592 13.281 7.592 16 8 C16.555 8.087 16.555 8.087 19.364 8.53 C22.927 9.083 26.494 9.607 30.062 10.125 C30.664 10.216 30.664 10.216 33.705 10.676 C49.099 12.91 49.099 12.91 54 12 C55.503 10.633 55.503 10.633 56.75 8.938 C57.493 7.968 58.235 6.999 59 6 C62.304 5.934 64.104 6.48 66.938 8.125 C68.63 11.112 67.656 13.796 67 17 C66.641 19.145 66.287 21.291 65.938 23.438 C65.626 25.292 65.314 27.146 65 29 C53.339 28.549 41.694 27.77 30.06 26.868 C28.484 26.748 26.908 26.634 25.33 26.527 C23.077 26.372 20.826 26.195 18.574 26.012 C17.26 25.913 15.946 25.815 14.593 25.714 C7.765 24.357 4.029 20.295 0 15 C-1.305 12.391 -1.133 10.411 -1.125 7.5 C-1.128 6.52 -1.13 5.541 -1.133 4.531 C-1 2 -1 2 0 0 Z " fill="#638C1A" transform="translate(9,146)"/>
<path d="M0 0 C10.56 0 21.12 0 32 0 C32 10.56 32 21.12 32 32 C21.44 32 10.88 32 0 32 C0 21.44 0 10.88 0 0 Z " fill="#01A3EC" transform="translate(136,24)"/>
<path d="M0 0 C0.986 0.003 1.972 0.006 2.988 0.01 C4.021 0.018 5.053 0.027 6.117 0.035 C6.637 0.037 6.637 0.037 9.27 0.049 C11.844 0.061 14.418 0.077 16.992 0.098 C12.564 4.845 7.546 8.64 2.367 12.535 C1.907 12.882 1.907 12.882 -0.42 14.635 C-2.332 16.073 -4.245 17.51 -6.158 18.945 C-8.913 21.026 -11.642 23.137 -14.367 25.258 C-16.039 26.538 -17.711 27.818 -19.383 29.098 C-20.148 29.703 -20.913 30.308 -21.702 30.931 C-25.273 33.631 -27.336 35.011 -31.859 35.594 C-35.008 35.098 -35.008 35.098 -38.008 33.16 C-40.41 29.481 -40.415 27.975 -39.645 23.777 C-39.434 22.893 -39.224 22.009 -39.008 21.098 C-38.767 19.986 -38.526 18.875 -38.277 17.73 C-35.989 8.758 -35.989 8.758 -31.758 5.91 C-30.52 5.642 -29.283 5.374 -28.008 5.098 C-27.41 4.902 -27.41 4.902 -24.383 3.91 C-18.695 2.55 -12.814 2.938 -7.008 3.098 C-7.008 2.438 -7.008 1.778 -7.008 1.098 C-4.503 -0.155 -2.799 -0.016 0 0 Z " fill="#587F19" transform="translate(486.0078125,143.90234375)"/>
<path d="M0 0 C-2.384 7.869 -5.656 15.284 -9.043 22.759 C-10.006 24.888 -10.956 27.022 -11.906 29.156 C-12.52 30.519 -13.135 31.881 -13.75 33.242 C-14.031 33.877 -14.313 34.511 -14.603 35.165 C-17.279 41.018 -17.279 41.018 -20 43 C-23.707 43.404 -26.078 43.509 -29.375 41.688 C-32.437 38.508 -32.118 35.204 -32.098 31.02 C-32.094 29.856 -32.091 28.693 -32.088 27.494 C-32.08 26.279 -32.071 25.064 -32.062 23.812 C-32.058 22.586 -32.053 21.359 -32.049 20.096 C-32.037 17.064 -32.021 14.032 -32 11 C-32.66 11 -33.32 11 -34 11 C-34 10.34 -34 9.68 -34 9 C-23.675 0.96 -12.726 -0.546 0 0 Z " fill="#336B2E" transform="translate(496,64)"/>
<path d="M0 0 C7.903 1.813 15.855 6.399 20.5 13.188 C22.833 17.854 22.77 22.929 22 28 C20.5 30.688 20.5 30.688 18 32 C11.912 32.707 8.965 31.893 4.165 28.138 C3.512 27.598 2.86 27.057 2.188 26.5 C0.792 25.396 -0.604 24.294 -2 23.191 C-2.677 22.648 -3.354 22.104 -4.051 21.543 C-6.742 19.413 -9.516 17.427 -12.312 15.438 C-18.233 11.221 -18.233 11.221 -20 9 C-19.875 5.438 -19.875 5.438 -19 2 C-13.694 -1.537 -6.229 -0.621 0 0 Z " fill="#FE6565" transform="translate(303,142)"/>
<path d="M0 0 C4.036 0.528 6.177 1.593 9.188 4.312 C9.862 4.907 10.536 5.501 11.23 6.113 C15.01 10.143 15.429 14.229 15.852 19.582 C15.883 19.948 15.883 19.948 16.045 21.801 C16.178 23.349 16.307 24.896 16.433 26.444 C16.624 28.795 16.826 31.144 17.031 33.494 C17.16 35.003 17.287 36.511 17.414 38.02 C17.473 38.715 17.533 39.41 17.594 40.126 C17.94 44.428 18.053 48.685 18 53 C14.301 54.233 10.839 54.712 7 54 C-2.448 44.794 -2.126 23.993 -2.377 11.459 C-2.37 3.555 -2.37 3.555 0 0 Z " fill="#87AA00" transform="translate(92,72)"/>
<path d="M0 0 C1.261 0.018 2.521 0.036 3.82 0.055 C6.923 0.102 10.023 0.167 13.125 0.25 C12.529 0.534 11.934 0.817 11.32 1.109 C7.281 3.208 3.871 5.58 1.984 9.805 C0.873 14.259 0.666 18.551 0.5 23.125 C0.376 26.136 0.252 29.148 0.125 32.25 C-7.795 32.25 -15.715 32.25 -23.875 32.25 C-23.957 28.744 -24.04 25.237 -24.125 21.625 C-24.161 20.531 -24.198 19.437 -24.235 18.31 C-24.302 12.458 -24.039 8.731 -19.875 4.25 C-14.265 -1.304 -7.374 -0.2 0 0 Z " fill="#CEDADA" transform="translate(135.875,55.75)"/>
<path d="M0 0 C2.711 0.784 5.429 1.539 8.148 2.291 C9.873 2.781 11.597 3.273 13.32 3.766 C14.134 3.991 14.947 4.216 15.785 4.448 C17.741 5.026 19.658 5.734 21.562 6.465 C21.727 6.96 21.727 6.96 22.562 9.465 C20.968 12.269 20.114 13.66 17.562 15.465 C9.426 17.026 -0.172 14.633 -8.298 13.494 C-10.76 13.151 -13.225 12.828 -15.689 12.506 C-17.268 12.289 -18.847 12.071 -20.426 11.852 C-21.156 11.758 -21.886 11.664 -22.639 11.567 C-26.857 10.955 -30.045 10.094 -33.438 7.465 C-34.75 4.278 -34.75 4.278 -35.438 1.465 C-25.144 -9.099 -12.735 -3.698 0 0 Z " fill="#87AA00" transform="translate(45.4375,143.534912109375)"/>
<path d="M0 0 C5.28 0 10.56 0 16 0 C16.069 4.751 16.129 9.5 16.165 14.252 C16.18 15.867 16.2 17.482 16.226 19.096 C16.263 21.422 16.28 23.748 16.293 26.074 C16.308 26.792 16.324 27.51 16.34 28.25 C16.341 32.68 15.739 35.483 13 39 C10.371 40.123 7.839 40.206 5 40 C1.733 38.325 1.172 37.517 0 34 C-0.085 31.414 -0.116 28.855 -0.098 26.27 C-0.096 25.519 -0.095 24.769 -0.093 23.996 C-0.088 21.601 -0.075 19.207 -0.062 16.812 C-0.057 15.188 -0.053 13.564 -0.049 11.939 C-0.039 7.96 -0.019 3.98 0 0 Z " fill="#98EEFF" transform="translate(168,88)"/>
<path d="M0 0 C33.608 18.28 33.608 18.28 47.125 26.312 C47.727 26.667 48.33 27.021 48.95 27.386 C52.878 29.755 52.878 29.755 54 32 C36.908 32.684 22.309 30.164 8.508 18.98 C3.593 14.273 0.152 10.148 -0.188 3.125 C-0.126 2.094 -0.064 1.062 0 0 Z " fill="#89AC00" transform="translate(200,16)"/>
<path d="M0 0 C3.06 1.233 6.039 2.575 7.77 5.426 C8.145 8.988 8.145 8.988 7.77 12.426 C3.613 15.197 0.448 14.339 -4.23 13.426 C-17.497 10.159 -17.497 10.159 -20.23 7.426 C-20.168 4.988 -20.168 4.988 -19.23 2.426 C-13.571 -1.801 -6.703 -1.726 0 0 Z " fill="#FBC900" transform="translate(119.23046875,147.57421875)"/>
<path d="M0 0 C3.736 1.245 4.188 2.634 6 6 C2.835 9.313 -0.349 12.606 -3.552 15.882 C-4.639 16.999 -5.72 18.121 -6.796 19.249 C-8.344 20.869 -9.91 22.469 -11.48 24.066 C-11.958 24.575 -12.435 25.083 -12.927 25.607 C-14.321 27.002 -14.321 27.002 -17 29 C-19.845 28.808 -19.845 28.808 -22 28 C-22.808 25.845 -22.808 25.845 -23 23 C-21.414 20.874 -19.975 19.273 -18.066 17.48 C-17.554 16.977 -17.043 16.474 -16.515 15.955 C-14.878 14.351 -13.221 12.769 -11.562 11.188 C-10.449 10.104 -9.336 9.018 -8.225 7.932 C-5.498 5.272 -2.754 2.631 0 0 Z " fill="#F27923" transform="translate(138,156)"/>
<path d="M0 0 C2.875 1.812 2.875 1.812 5 5 C5.418 8.771 5.23 12.185 5 16 C-0.28 16 -5.56 16 -11 16 C-11.608 5.912 -11.608 5.912 -8.875 1.812 C-5.45 -0.347 -3.966 -0.826 0 0 Z " fill="#FEFEFE" transform="translate(179,72)"/>
<path d="M0 0 C2.64 0 5.28 0 8 0 C8 7.92 8 15.84 8 24 C5.36 24 2.72 24 0 24 C0 16.08 0 8.16 0 0 Z " fill="#30CFFF" transform="translate(160,24)"/>
<path d="M0 0 C2.64 0 5.28 0 8 0 C8 7.92 8 15.84 8 24 C3 23 3 23 1.199 21.02 C-0.461 16.84 -0.324 13.137 -0.188 8.688 C-0.174 7.852 -0.16 7.016 -0.146 6.154 C-0.111 4.103 -0.058 2.051 0 0 Z " fill="#2FCEFE" transform="translate(144,24)"/>
<path d="M0 0 C4.859 1.62 6.31 5.755 9 10 C3.06 10 -2.88 10 -9 10 C-2.973 2.902 -2.973 2.902 0 0 Z " fill="#FB9B03" transform="translate(165,190)"/>
<path d="M0 0 C0.994 0.027 1.988 0.054 3.012 0.082 C3.391 0.099 3.391 0.099 5.312 0.188 C4.355 1.313 3.397 2.438 2.438 3.562 C1.904 4.189 1.37 4.815 0.82 5.461 C-2.41 9.16 -2.41 9.16 -5.188 9.438 C-7.688 9.188 -7.688 9.188 -9.688 7.188 C-9.46 4.832 -8.898 3.472 -7.492 1.57 C-4.955 -0.374 -3.152 -0.111 0 0 Z " fill="#E95510" transform="translate(149.6875,199.8125)"/>
<path d="M0 0 C-1 3 -1 3 -2.75 3.938 C-3.492 4.288 -4.235 4.639 -5 5 C-6.689 6.305 -8.36 7.634 -10 9 C-8.979 5.324 -8.086 4.066 -5 1.688 C-2 0 -2 0 0 0 Z " fill="#769C10" transform="translate(36,89)"/>
</svg>
