<?xml version="1.0" encoding="UTF-8"?>
<!-- Generator: visioncortex VTracer 0.6.12 -->
<svg version="1.1" xmlns="http://www.w3.org/2000/svg" width="512" height="512">
<path d="M0 0 C1.548 1.21 3.096 2.42 4.632 3.646 C6.29 4.97 7.96 6.277 9.633 7.582 C12.586 9.888 15.528 12.207 18.468 14.53 C20.779 16.355 23.094 18.174 25.41 19.993 C27.108 21.326 28.806 22.66 30.503 23.994 C31.111 24.471 31.719 24.949 32.346 25.441 C32.974 25.935 33.603 26.429 34.25 26.938 C35.499 27.919 36.747 28.9 37.996 29.881 C41.414 32.566 44.832 35.252 48.25 37.938 C48.255 37.312 48.255 37.312 48.278 34.146 C48.318 29.501 48.384 24.857 48.458 20.213 C48.486 18.203 48.507 16.193 48.521 14.184 C48.542 11.294 48.589 8.405 48.641 5.516 C48.642 4.618 48.643 3.72 48.644 2.794 C48.664 1.954 48.684 1.113 48.704 0.247 C48.713 -0.49 48.722 -1.227 48.731 -1.987 C49.498 -5.056 50.711 -6.2 53.25 -8.062 C56.438 -8.57 56.438 -8.57 60.25 -8.58 C60.946 -8.587 61.643 -8.594 62.36 -8.601 C64.657 -8.619 66.953 -8.607 69.25 -8.594 C70.849 -8.596 72.448 -8.6 74.047 -8.605 C77.396 -8.611 80.745 -8.603 84.094 -8.584 C88.385 -8.561 92.675 -8.574 96.966 -8.598 C100.267 -8.613 103.568 -8.608 106.869 -8.598 C108.451 -8.595 110.033 -8.598 111.615 -8.608 C113.827 -8.618 116.038 -8.602 118.25 -8.58 C118.879 -8.578 118.879 -8.578 122.062 -8.57 C125.25 -8.062 125.25 -8.062 127.667 -6.656 C130.151 -2.587 129.705 1.277 129.574 5.948 C129.562 6.964 129.549 7.981 129.537 9.029 C129.509 11.238 129.473 13.446 129.43 15.655 C129.367 19.158 129.336 22.659 129.317 26.162 C129.259 36.122 129.177 46.081 128.986 56.039 C128.872 62.133 128.827 68.224 128.825 74.318 C128.812 76.634 128.773 78.951 128.707 81.266 C128.181 100.332 128.181 100.332 133.218 105.681 C136.065 108.139 139.106 110.048 142.397 111.852 C145.593 113.724 148.388 116.098 151.25 118.438 C152.403 119.348 153.558 120.258 154.715 121.164 C155.291 121.617 155.867 122.07 156.46 122.536 C158.325 123.996 160.195 125.448 162.066 126.898 C162.38 127.142 162.38 127.142 163.967 128.377 C165.157 129.303 166.35 130.226 167.545 131.146 C169.134 132.385 170.692 133.66 172.25 134.938 C173.208 135.703 174.166 136.469 175.152 137.258 C177.489 140.243 177.937 142.185 177.677 145.97 C176.963 149.261 175.274 151.262 173.125 153.812 C172.214 154.92 171.304 156.028 170.395 157.137 C169.895 157.734 169.396 158.331 168.881 158.947 C167.064 161.165 165.316 163.429 163.574 165.707 C162.951 166.521 162.328 167.335 161.686 168.174 C160.452 169.789 159.218 171.405 157.986 173.021 C157.7 173.391 157.7 173.391 156.254 175.262 C155.747 175.923 155.24 176.583 154.717 177.264 C152.327 179.991 150.583 180.893 146.996 181.375 C142.181 180.813 139.922 179.004 136.312 175.938 C135.724 175.461 135.136 174.984 134.529 174.492 C133.09 173.322 131.668 172.132 130.25 170.938 C130.245 171.23 130.245 171.23 130.222 172.71 C130.168 175.37 130.084 178.028 130 180.688 C129.986 181.608 129.972 182.528 129.957 183.477 C129.711 190.26 129.711 190.26 127.453 193.578 C125.25 194.938 125.25 194.938 121.25 194.938 C121.25 200.877 121.25 206.817 121.25 212.938 C123.622 211.7 125.994 210.463 128.438 209.188 C148.704 198.878 173.601 195.936 195.609 202.539 C202.438 205.162 208.891 208.33 215.25 211.938 C216.102 212.421 216.954 212.904 217.832 213.402 C237.858 225.851 250.614 246.36 256.25 268.938 C261.473 291.624 256.472 314.157 245.25 333.938 C244.767 334.79 244.283 335.642 243.785 336.52 C231.407 356.432 210.801 369.499 188.25 374.938 C182.012 376.119 175.955 376.121 169.625 376.125 C168.513 376.137 167.4 376.149 166.254 376.162 C165.7 376.163 165.7 376.163 162.898 376.168 C162.34 376.17 162.34 376.17 159.514 376.182 C156.25 375.938 156.25 375.938 153.341 374.906 C149.848 373.684 147.925 373.288 144.25 373.938 C137.621 378.18 132.418 384.51 127.125 390.25 C125.61 391.844 124.092 393.434 122.57 395.021 C120.435 397.251 118.305 399.483 116.2 401.742 C115.578 402.409 114.957 403.076 114.316 403.763 C113.77 404.353 113.225 404.943 112.663 405.551 C109.67 408.488 106.972 408.053 102.93 408.035 C101.673 408.032 100.416 408.029 99.121 408.025 C97.802 408.017 96.484 408.009 95.125 408 C93.785 407.995 92.445 407.99 91.105 407.986 C87.82 407.975 84.535 407.958 81.25 407.938 C81.271 408.765 81.292 409.592 81.313 410.444 C81.397 414.192 81.449 417.939 81.5 421.688 C81.534 422.989 81.567 424.291 81.602 425.633 C81.614 426.883 81.627 428.134 81.641 429.422 C81.662 430.574 81.683 431.726 81.704 432.913 C81.25 435.938 81.25 435.938 79.633 438.32 C76.492 440.452 74.511 440.397 70.734 440.328 C69.484 440.315 68.234 440.302 66.945 440.289 C66.294 440.272 66.294 440.272 63 440.188 C61.683 440.169 60.365 440.151 59.008 440.133 C55.754 440.086 52.503 440.02 49.25 439.938 C49.271 440.765 49.292 441.592 49.313 442.444 C49.397 446.192 49.449 449.939 49.5 453.688 C49.534 454.989 49.567 456.291 49.602 457.633 C49.614 458.883 49.627 460.134 49.641 461.422 C49.662 462.574 49.683 463.726 49.704 464.913 C49.14 468.67 48.189 469.6 45.25 471.938 C42.67 472.445 42.67 472.445 39.719 472.455 C38.611 472.468 37.503 472.48 36.361 472.493 C35.17 472.485 33.978 472.477 32.75 472.469 C32.136 472.471 32.136 472.471 29.029 472.48 C26.434 472.483 23.838 472.476 21.242 472.459 C17.265 472.438 13.29 472.459 9.312 472.484 C6.792 472.482 4.271 472.477 1.75 472.469 C0.558 472.477 -0.633 472.485 -1.861 472.493 C-2.415 472.487 -2.415 472.487 -5.219 472.455 C-6.193 472.452 -7.167 472.449 -8.17 472.445 C-11.559 471.778 -12.723 470.709 -14.75 467.938 C-15.278 465.384 -15.278 465.384 -15.315 462.47 C-15.326 461.922 -15.326 461.922 -15.383 459.151 C-15.384 457.972 -15.385 456.793 -15.387 455.578 C-15.392 454.969 -15.392 454.969 -15.42 451.886 C-15.436 449.307 -15.441 446.728 -15.436 444.149 C-15.437 440.215 -15.497 436.285 -15.561 432.352 C-15.569 429.844 -15.573 427.336 -15.574 424.828 C-15.598 423.657 -15.621 422.486 -15.646 421.279 C-15.584 415.782 -15.377 411.933 -11.72 407.659 C-10.419 406.395 -9.095 405.154 -7.75 403.938 C-6.409 402.568 -5.074 401.195 -3.742 399.816 C-2.301 398.375 -0.857 396.936 0.59 395.5 C1.357 394.734 2.124 393.969 2.914 393.18 C5.336 390.764 7.762 388.35 10.188 385.938 C11.842 384.288 13.496 382.638 15.15 380.988 C19.181 376.968 23.215 372.953 27.25 368.938 C18.67 368.608 10.09 368.277 1.25 367.938 C0.92 369.918 0.59 371.897 0.25 373.938 C-3.412 376.379 -6.139 376.223 -10.373 376.205 C-11.157 376.209 -11.94 376.214 -12.748 376.219 C-15.383 376.231 -18.017 376.23 -20.652 376.228 C-22.538 376.234 -24.423 376.241 -26.309 376.248 C-31.437 376.266 -36.565 376.271 -41.693 376.272 C-45.97 376.274 -50.247 376.281 -54.524 376.288 C-64.612 376.305 -74.7 376.31 -84.788 376.308 C-95.204 376.307 -105.62 376.328 -116.036 376.36 C-124.971 376.386 -133.906 376.396 -142.841 376.395 C-148.181 376.395 -153.521 376.4 -158.861 376.422 C-163.882 376.441 -168.903 376.441 -173.923 376.427 C-175.768 376.424 -177.613 376.429 -179.457 376.441 C-181.972 376.457 -184.485 376.447 -187 376.432 C-187.367 376.437 -187.367 376.437 -189.222 376.463 C-192.67 376.416 -194.444 376.175 -197.203 374.03 C-198.906 371.727 -199.255 370.7 -199.268 367.875 C-199.28 367.087 -199.293 366.3 -199.306 365.488 C-199.298 364.647 -199.29 363.805 -199.281 362.938 C-199.285 362.065 -199.289 361.192 -199.293 360.293 C-199.296 358.451 -199.288 356.608 -199.271 354.766 C-199.25 351.947 -199.271 349.131 -199.297 346.312 C-199.294 344.521 -199.289 342.729 -199.281 340.938 C-199.289 340.096 -199.297 339.254 -199.306 338.387 C-199.293 337.599 -199.281 336.811 -199.268 336 C-199.266 335.655 -199.266 335.655 -199.258 333.91 C-198.75 331.937 -198.75 331.937 -194.75 327.938 C-188.15 327.938 -181.55 327.938 -174.75 327.938 C-175.08 276.127 -175.41 224.317 -175.75 170.938 C-180.04 174.238 -184.33 177.537 -188.75 180.938 C-195.75 180.938 -195.75 180.938 -198.402 178.77 C-199.177 177.835 -199.952 176.9 -200.75 175.938 C-201.494 175.096 -202.238 174.254 -203.004 173.387 C-205.117 170.859 -207.212 168.321 -209.281 165.757 C-210.309 164.484 -211.342 163.215 -212.379 161.95 C-214.066 159.879 -215.723 157.787 -217.375 155.688 C-217.908 155.039 -218.441 154.39 -218.99 153.721 C-221.491 150.484 -223.117 147.911 -223.398 143.766 C-222.596 139.031 -221.456 137.917 -217.75 134.938 C-217.469 134.7 -217.469 134.7 -216.047 133.499 C-214.136 131.887 -212.198 130.316 -210.25 128.75 C-209.541 128.178 -208.833 127.605 -208.103 127.015 C-202.322 122.361 -196.459 117.826 -190.559 113.324 C-186.963 110.568 -183.389 107.783 -179.812 105 C-179.428 104.701 -179.428 104.701 -177.482 103.187 C-170.554 97.792 -163.648 92.37 -156.75 86.938 C-148.332 80.309 -139.892 73.71 -131.432 67.136 C-124.518 61.762 -117.63 56.355 -110.75 50.938 C-102.332 44.309 -93.892 37.71 -85.432 31.136 C-80.778 27.519 -76.133 23.893 -71.5 20.25 C-71.22 20.03 -71.22 20.03 -69.801 18.915 C-66.93 16.656 -64.062 14.394 -61.195 12.129 C-58.281 9.827 -55.356 7.537 -52.427 5.253 C-50.783 3.963 -49.151 2.658 -47.52 1.352 C-32.207 -10.642 -15.995 -11.775 0 0 Z " fill="#010000" transform="translate(238.75,24.0625)"/>
<path d="M0 0 C3.544 1.337 6.196 3.483 9.078 5.871 C10.332 6.883 11.586 7.895 12.84 8.906 C13.475 9.423 14.109 9.94 14.763 10.473 C17.613 12.785 20.501 15.047 23.391 17.309 C23.674 17.531 23.674 17.531 25.107 18.658 C29.938 22.454 34.789 26.226 39.641 29.996 C47.887 36.403 56.104 42.849 64.309 49.31 C71.402 54.894 78.512 60.457 85.641 65.996 C93.915 72.425 102.16 78.889 110.389 85.374 C111.579 86.311 112.768 87.248 113.958 88.185 C118.715 91.929 118.715 91.929 120.486 93.383 C122.641 94.996 122.641 94.996 125.927 96.969 C131.127 100.23 134.989 102.742 136.748 108.829 C137.221 113.186 137.044 117.503 136.828 121.871 C136.777 124.117 136.745 126.362 136.718 128.608 C136.685 130.63 136.608 132.651 136.528 134.671 C136.635 137.84 136.811 139.449 138.641 141.996 C141.266 143.246 141.266 143.246 143.641 143.996 C145.444 161.652 145.444 161.652 141.438 166.859 C138.589 168.801 135.699 170.411 132.641 171.996 C117.189 184.174 107.606 205.967 104.641 224.996 C103.703 234.807 104.344 244.566 106.203 254.234 C106.9 258.63 107.372 261.729 105.081 265.697 C102.619 268.67 100.109 271.571 97.453 274.371 C96.979 274.877 96.505 275.383 96.016 275.904 C89.596 282.536 84.074 286.124 74.717 286.518 C68.32 286.556 61.96 285.95 55.641 284.996 C55.207 284.027 54.774 283.057 54.328 282.059 C52.641 278.996 52.641 278.996 49.641 277.996 C47.51 277.878 45.375 277.819 43.241 277.791 C42.597 277.781 41.953 277.771 41.289 277.761 C39.163 277.729 37.037 277.704 34.91 277.68 C33.435 277.659 31.959 277.638 30.484 277.617 C26.602 277.562 22.721 277.512 18.84 277.464 C14.878 277.414 10.917 277.358 6.955 277.303 C-0.816 277.195 -8.588 277.094 -16.359 276.996 C-16.363 276.282 -16.366 275.569 -16.369 274.834 C-16.451 257.483 -16.543 240.132 -16.647 222.781 C-16.697 214.391 -16.744 206 -16.781 197.61 C-16.814 190.298 -16.854 182.986 -16.902 175.674 C-16.927 171.801 -16.949 167.928 -16.963 164.056 C-16.976 160.412 -16.998 156.769 -17.027 153.125 C-17.04 151.147 -17.044 149.169 -17.047 147.19 C-17.058 146.017 -17.069 144.843 -17.081 143.634 C-17.086 142.612 -17.092 141.589 -17.098 140.536 C-17.359 137.996 -17.359 137.996 -19.359 134.996 C-23.085 133.754 -26.558 133.833 -30.439 133.819 C-31.262 133.813 -32.085 133.806 -32.933 133.799 C-35.657 133.779 -38.381 133.768 -41.105 133.758 C-42.035 133.754 -42.966 133.75 -43.924 133.745 C-48.843 133.725 -53.762 133.71 -58.682 133.701 C-63.768 133.69 -68.853 133.655 -73.938 133.616 C-77.846 133.59 -81.754 133.581 -85.661 133.578 C-87.536 133.573 -89.411 133.561 -91.286 133.543 C-93.908 133.518 -96.528 133.519 -99.15 133.526 C-99.926 133.513 -100.702 133.501 -101.501 133.487 C-104.811 133.519 -106.881 133.633 -109.557 135.667 C-111.809 138.578 -111.865 140.1 -111.878 143.754 C-111.885 144.342 -111.885 144.342 -111.921 147.315 C-111.915 148.6 -111.91 149.886 -111.905 151.21 C-111.914 152.58 -111.924 153.95 -111.937 155.32 C-111.964 159.037 -111.968 162.753 -111.967 166.47 C-111.97 170.355 -111.996 174.24 -112.019 178.125 C-112.059 185.481 -112.08 192.836 -112.093 200.192 C-112.109 208.567 -112.147 216.942 -112.187 225.317 C-112.27 242.543 -112.323 259.77 -112.359 276.996 C-120.279 276.996 -128.199 276.996 -136.359 276.996 C-136.684 254.76 -136.933 232.525 -137.085 210.288 C-137.157 199.962 -137.255 189.637 -137.416 179.312 C-137.555 170.31 -137.645 161.308 -137.677 152.305 C-137.695 147.539 -137.737 142.777 -137.84 138.013 C-137.935 133.521 -137.964 129.034 -137.943 124.541 C-137.947 122.899 -137.974 121.257 -138.028 119.616 C-138.405 107.575 -138.405 107.575 -134.987 103.265 C-131.663 100.037 -127.966 97.487 -124.035 95.056 C-121.745 93.608 -119.653 91.946 -117.547 90.246 C-116.151 89.162 -114.755 88.079 -113.359 86.996 C-105.671 81.023 -98.008 75.019 -90.359 68.996 C-81.942 62.367 -73.502 55.768 -65.041 49.195 C-58.127 43.821 -51.239 38.414 -44.359 32.996 C-38.193 28.141 -32.026 23.288 -25.828 18.473 C-25.051 17.869 -24.273 17.264 -23.472 16.642 C-21.91 15.43 -20.345 14.219 -18.78 13.01 C-15.525 10.493 -12.29 7.973 -9.168 5.293 C-8.735 4.924 -8.735 4.924 -6.547 3.059 C-5.839 2.431 -5.131 1.803 -4.402 1.156 C-2.359 -0.004 -2.359 -0.004 0 0 Z " fill="#EDEDED" transform="translate(216.359375,75.00390625)"/>
<path d="M0 0 C0.88 0.005 1.76 0.01 2.666 0.015 C9.243 0.133 14.946 0.983 21.125 3.312 C21.635 3.477 21.635 3.477 24.215 4.309 C42.441 10.572 56.098 23.491 65.125 40.312 C73.75 58.78 74.398 78.021 68.125 97.312 C64.884 105.849 60.211 113.51 54.125 120.312 C53.47 121.06 52.815 121.808 52.141 122.578 C46.275 128.872 39.628 133.17 32.125 137.312 C31.376 137.735 30.627 138.158 29.855 138.594 C14.252 146.47 -4.973 146.039 -21.254 141.09 C-25.462 140.186 -27.712 140.16 -31.875 141.312 C-34.632 143.587 -36.814 146.286 -39.09 149.031 C-40.492 150.626 -41.9 152.214 -43.314 153.799 C-43.681 154.21 -43.681 154.21 -45.537 156.293 C-65.04 177.889 -65.04 177.889 -78.384 178.88 C-84.311 179.025 -90.214 178.394 -96.039 177.322 C-98.875 177.312 -98.875 177.312 -101.222 178.88 C-103.318 181.964 -103.414 183.897 -103.484 187.609 C-103.517 188.815 -103.549 190.02 -103.582 191.262 C-103.596 192.516 -103.61 193.77 -103.625 195.062 C-103.64 195.697 -103.64 195.697 -103.715 198.91 C-103.786 202.044 -103.838 205.178 -103.875 208.312 C-104.672 208.322 -105.469 208.331 -106.29 208.341 C-109.902 208.395 -113.513 208.478 -117.125 208.562 C-118.379 208.577 -119.634 208.591 -120.926 208.605 C-122.131 208.638 -123.336 208.67 -124.578 208.703 C-125.688 208.724 -126.799 208.745 -127.942 208.767 C-131.583 209.444 -132.762 210.286 -134.875 213.312 C-135.421 216.245 -135.421 216.245 -135.484 219.609 C-135.515 220.696 -135.546 221.782 -135.577 222.901 C-135.593 224.275 -135.609 225.648 -135.625 227.062 C-135.707 231.435 -135.79 235.808 -135.875 240.312 C-146.435 240.312 -156.995 240.312 -167.875 240.312 C-173.496 212.535 -173.496 212.535 -166.041 200.304 C-160.184 192.244 -153.306 185.125 -146.254 178.113 C-145.712 177.575 -145.171 177.036 -144.613 176.481 C-137.809 169.747 -130.853 163.182 -123.839 156.668 C-117.79 151.044 -111.848 145.313 -105.911 139.572 C-98.671 132.571 -91.418 125.585 -84.082 118.684 C-83.568 118.2 -83.054 117.716 -82.524 117.217 C-80.114 114.951 -77.701 112.69 -75.282 110.433 C-74.448 109.651 -73.613 108.868 -72.754 108.062 C-72.025 107.382 -71.295 106.702 -70.544 106.001 C-68.875 104.312 -68.875 104.312 -67.875 102.312 C-68.188 97.39 -68.883 93.17 -70.438 88.5 C-75.444 70.827 -71.167 52.386 -62.797 36.539 C-59.922 31.712 -56.625 27.484 -52.875 23.312 C-52.357 22.701 -51.839 22.09 -51.305 21.461 C-38.521 7.393 -18.713 -0.125 0 0 Z " fill="#FDB64C" transform="translate(407.875,239.6875)"/>
<path d="M0 0 C0.852 0.483 1.704 0.967 2.582 1.465 C22.608 13.913 35.364 34.422 41 57 C46.223 79.687 41.222 102.219 30 122 C29.517 122.852 29.033 123.704 28.535 124.582 C16.157 144.494 -4.449 157.562 -27 163 C-33.238 164.181 -39.295 164.184 -45.625 164.188 C-46.737 164.2 -47.85 164.212 -48.996 164.225 C-49.55 164.226 -49.55 164.226 -52.352 164.23 C-52.91 164.233 -52.91 164.233 -55.736 164.245 C-59 164 -59 164 -61.909 162.968 C-65.402 161.746 -67.325 161.35 -71 162 C-77.629 166.243 -82.832 172.572 -88.125 178.312 C-89.64 179.906 -91.158 181.497 -92.68 183.084 C-94.815 185.313 -96.945 187.546 -99.05 189.804 C-99.672 190.471 -100.293 191.138 -100.934 191.825 C-101.207 192.12 -101.207 192.12 -102.587 193.613 C-105.58 196.551 -108.278 196.116 -112.32 196.098 C-113.577 196.094 -114.834 196.091 -116.129 196.088 C-117.448 196.08 -118.766 196.071 -120.125 196.062 C-121.465 196.057 -122.805 196.053 -124.145 196.049 C-127.43 196.037 -130.715 196.021 -134 196 C-133.99 196.414 -133.99 196.414 -133.937 198.507 C-133.853 202.254 -133.801 206.002 -133.75 209.75 C-133.716 211.052 -133.683 212.354 -133.648 213.695 C-133.642 214.321 -133.642 214.321 -133.609 217.484 C-133.599 218.06 -133.599 218.06 -133.546 220.976 C-134 224 -134 224 -135.617 226.383 C-138.758 228.514 -140.739 228.459 -144.516 228.391 C-145.141 228.384 -145.141 228.384 -148.305 228.352 C-148.956 228.335 -148.956 228.335 -152.25 228.25 C-153.567 228.232 -154.885 228.214 -156.242 228.195 C-159.496 228.148 -162.747 228.082 -166 228 C-165.99 228.414 -165.99 228.414 -165.937 230.507 C-165.853 234.254 -165.801 238.002 -165.75 241.75 C-165.716 243.052 -165.683 244.354 -165.648 245.695 C-165.636 246.946 -165.623 248.196 -165.609 249.484 C-165.599 250.06 -165.599 250.06 -165.546 252.976 C-166.11 256.733 -167.061 257.662 -170 260 C-172.58 260.508 -172.58 260.508 -175.531 260.518 C-176.639 260.53 -177.747 260.543 -178.889 260.556 C-180.08 260.548 -181.272 260.54 -182.5 260.531 C-183.114 260.533 -183.114 260.533 -186.221 260.543 C-188.816 260.546 -191.412 260.538 -194.008 260.521 C-197.985 260.5 -201.96 260.521 -205.938 260.547 C-208.458 260.544 -210.979 260.539 -213.5 260.531 C-214.692 260.539 -215.883 260.547 -217.111 260.556 C-217.665 260.549 -217.665 260.549 -220.469 260.518 C-221.443 260.514 -222.417 260.511 -223.42 260.508 C-226.809 259.841 -227.973 258.771 -230 256 C-230.528 253.447 -230.528 253.447 -230.565 250.532 C-230.576 249.985 -230.576 249.985 -230.633 247.214 C-230.633 246.624 -230.633 246.624 -230.637 243.641 C-230.642 243.031 -230.642 243.031 -230.67 239.949 C-230.686 237.37 -230.691 234.791 -230.686 232.212 C-230.687 228.278 -230.747 224.348 -230.811 220.414 C-230.819 217.906 -230.823 215.398 -230.824 212.891 C-230.848 211.72 -230.871 210.548 -230.896 209.342 C-230.834 203.841 -230.626 199.994 -226.966 195.72 C-225.666 194.456 -224.343 193.217 -223 192 C-221.671 190.638 -220.347 189.27 -219.028 187.898 C-217.595 186.459 -216.16 185.023 -214.723 183.59 C-213.952 182.819 -213.182 182.048 -212.389 181.253 C-210.771 179.634 -209.151 178.017 -207.531 176.4 C-205.069 173.944 -202.614 171.483 -200.158 169.021 C-198.576 167.44 -196.993 165.858 -195.41 164.277 C-194.686 163.551 -193.962 162.825 -193.216 162.077 C-189.95 158.826 -186.658 155.657 -183.168 152.646 C-175.077 145.661 -167.526 138.052 -159.907 130.559 C-157.142 127.84 -154.366 125.133 -151.566 122.45 C-148.835 119.834 -146.132 117.192 -143.446 114.529 C-142.425 113.525 -141.394 112.531 -140.354 111.548 C-132.277 103.891 -132.277 103.891 -131.597 99.252 C-131.837 96.71 -132.323 94.457 -133 92 C-133.204 90.48 -133.387 88.956 -133.539 87.43 C-133.621 86.695 -133.702 85.96 -133.786 85.202 C-136.19 60.454 -129.155 37.959 -113.379 18.773 C-108.223 12.762 -102.752 7.238 -96 3 C-95.34 3 -94.68 3 -94 3 C-94 2.34 -94 1.68 -94 1 C-63.125 -15.329 -30.874 -17.516 0 0 Z M-95 23 C-95.611 23.518 -96.222 24.036 -96.852 24.57 C-108.698 35.335 -116.857 52.551 -118.205 68.416 C-118.302 70.906 -118.328 73.383 -118.312 75.875 C-118.31 76.752 -118.308 77.629 -118.306 78.532 C-118.205 85.104 -117.054 90.763 -115 97 C-114.118 100.136 -113.604 102.753 -114 106 C-118.21 112.441 -124.726 117.662 -130.332 122.858 C-132.213 124.617 -134.093 126.376 -135.972 128.137 C-136.462 128.595 -136.952 129.054 -137.457 129.526 C-144.352 135.989 -151.15 142.556 -157.952 149.117 C-163.471 154.435 -169.02 159.714 -174.651 164.914 C-181.171 170.946 -187.602 177.062 -193.902 183.324 C-194.407 183.825 -194.911 184.327 -195.431 184.843 C-206.634 196.06 -216.535 206.498 -217.237 223.133 C-216.77 230.156 -215.287 237.08 -214 244 C-203.44 244 -192.88 244 -182 244 C-181.75 230.75 -181.75 230.75 -181.702 226.589 C-181.672 225.503 -181.641 224.416 -181.609 223.297 C-181.588 222.187 -181.567 221.076 -181.546 219.933 C-180.868 216.292 -180.026 215.113 -177 213 C-174.067 212.454 -174.067 212.454 -170.703 212.391 C-169.498 212.358 -168.293 212.326 -167.051 212.293 C-165.797 212.279 -164.542 212.265 -163.25 212.25 C-161.98 212.22 -160.711 212.191 -159.402 212.16 C-156.268 212.089 -153.135 212.037 -150 212 C-149.991 211.203 -149.981 210.406 -149.972 209.585 C-149.918 205.973 -149.834 202.362 -149.75 198.75 C-149.736 197.496 -149.722 196.241 -149.707 194.949 C-149.675 193.744 -149.643 192.539 -149.609 191.297 C-149.588 190.187 -149.567 189.076 -149.546 187.933 C-149 185 -149 185 -147.347 182.568 C-144.144 180.428 -142.589 180.931 -138.84 181.621 C-127.769 182.932 -117.427 183.784 -108.18 176.551 C-101.421 170.689 -95.384 164.157 -89.439 157.486 C-88.726 156.687 -88.013 155.888 -87.278 155.065 C-85.934 153.537 -84.611 151.99 -83.312 150.424 C-80.324 146.94 -78.799 145.221 -74.275 143.969 C-70.394 144.006 -67.275 144.809 -63.562 145.938 C-45.452 150.928 -26.895 148.084 -10.562 139.105 C-6.001 136.47 -1.902 133.545 2 130 C2.745 129.346 3.49 128.693 4.258 128.02 C18.364 114.894 25.558 96.394 26.334 77.347 C26.714 58.318 19.715 41.144 7 27 C6.482 26.389 5.964 25.778 5.43 25.148 C-5.88 12.702 -24.024 4.469 -40.727 3.664 C-61.486 3.28 -79.339 8.922 -95 23 Z " fill="#010100" transform="translate(454,236)"/>
<path d="M0 0 C6.024 3.296 11.269 7.894 16.591 12.2 C19.517 14.558 22.478 16.871 25.438 19.188 C26.61 20.108 27.781 21.028 28.953 21.949 C29.531 22.403 30.109 22.858 30.705 23.326 C32.403 24.66 34.1 25.996 35.797 27.332 C42.327 32.472 48.875 37.589 55.438 42.688 C63.684 49.095 71.901 55.54 80.105 62.001 C87.199 67.586 94.308 73.149 101.438 78.688 C109.684 85.095 117.901 91.54 126.105 98.001 C133.199 103.586 140.309 109.148 147.438 114.688 C149.709 116.454 151.98 118.221 154.251 119.987 C155.679 121.098 157.108 122.208 158.538 123.317 C160.465 124.813 162.389 126.312 164.312 127.812 C164.877 128.249 165.442 128.686 166.023 129.137 C169.067 131.516 171.685 133.935 174.438 136.688 C170.478 141.637 166.517 146.588 162.438 151.688 C157.826 149.843 155.593 148.361 151.938 145.188 C147.73 141.588 143.468 138.104 139.062 134.75 C134.516 131.282 129.993 127.788 125.5 124.25 C124.916 123.79 124.332 123.331 123.73 122.857 C121.965 121.468 120.201 120.078 118.438 118.688 C110.018 112.056 101.574 105.455 93.11 98.88 C87.982 94.894 82.869 90.889 77.766 86.871 C73.004 83.125 68.222 79.404 63.438 75.688 C55.191 69.28 46.974 62.835 38.77 56.374 C29.382 48.983 19.974 41.617 10.521 34.311 C8.611 32.823 6.721 31.315 4.836 29.797 C3.787 28.969 2.737 28.14 1.688 27.312 C0.806 26.604 -0.076 25.895 -0.984 25.164 C-4.22 23.311 -5.885 23.089 -9.562 23.688 C-12.5 25.488 -12.5 25.488 -15.562 28 C-16.123 28.451 -16.684 28.903 -17.261 29.368 C-18.445 30.322 -19.624 31.282 -20.799 32.247 C-23.582 34.521 -26.419 36.725 -29.25 38.938 C-30.421 39.859 -31.591 40.781 -32.762 41.703 C-37.015 45.048 -41.289 48.368 -45.562 51.688 C-53.251 57.661 -60.914 63.664 -68.562 69.688 C-76.98 76.316 -85.42 82.915 -93.881 89.489 C-100.795 94.863 -107.683 100.27 -114.562 105.688 C-122.979 112.316 -131.418 118.915 -139.879 125.487 C-143.977 128.672 -148.07 131.865 -152.147 135.077 C-153.838 136.408 -155.532 137.736 -157.227 139.062 C-159.569 140.899 -161.893 142.757 -164.211 144.625 C-165.39 145.563 -166.57 146.5 -167.75 147.438 C-168.291 147.881 -168.832 148.324 -169.39 148.78 C-170.918 149.984 -170.918 149.984 -173.562 151.688 C-176.775 150.617 -177.294 150.097 -179.262 147.527 C-179.748 146.899 -180.235 146.271 -180.736 145.623 C-181.236 144.964 -181.735 144.304 -182.25 143.625 C-182.761 142.962 -183.272 142.299 -183.799 141.615 C-185.06 139.977 -186.312 138.333 -187.562 136.688 C-183.431 132.319 -178.895 128.711 -174.125 125.062 C-172.506 123.814 -170.888 122.565 -169.27 121.316 C-168.471 120.702 -167.673 120.087 -166.85 119.454 C-163.656 116.988 -160.482 114.497 -157.312 112 C-156.748 111.556 -156.184 111.112 -155.603 110.655 C-153.922 109.333 -152.242 108.01 -150.562 106.688 C-142.145 100.059 -133.705 93.46 -125.244 86.886 C-118.33 81.512 -111.442 76.105 -104.562 70.688 C-96.145 64.059 -87.705 57.46 -79.244 50.886 C-72.33 45.512 -65.442 40.105 -58.562 34.688 C-48.639 26.873 -38.687 19.095 -28.706 11.354 C-26.678 9.777 -24.655 8.194 -22.633 6.609 C-21.464 5.698 -20.294 4.786 -19.125 3.875 C-18.116 3.085 -17.106 2.295 -16.066 1.48 C-10.866 -2.244 -5.899 -2.173 0 0 Z " fill="#EC514F" transform="translate(222.5625,33.3125)"/>
<path d="M0 0 C0.9 -0.006 1.8 -0.011 2.727 -0.017 C5.695 -0.029 8.662 -0.004 11.631 0.021 C13.697 0.023 15.763 0.023 17.829 0.021 C22.156 0.023 26.484 0.042 30.811 0.073 C36.356 0.113 41.901 0.117 47.446 0.11 C51.711 0.107 55.977 0.119 60.242 0.136 C62.287 0.143 64.331 0.146 66.376 0.145 C69.234 0.147 72.091 0.168 74.949 0.195 C75.793 0.192 76.637 0.189 77.506 0.186 C82.138 0.254 85.214 0.607 88.975 3.615 C91.073 7.812 90.201 13.266 90.215 17.882 C90.225 19.91 90.256 21.937 90.287 23.965 C90.29 24.606 90.29 24.606 90.303 27.854 C90.312 29.03 90.321 30.206 90.331 31.417 C89.932 35.001 89.287 36.853 86.975 39.615 C85.325 39.945 83.675 40.275 81.975 40.615 C81.975 53.815 81.975 67.015 81.975 80.615 C76.695 80.615 71.415 80.615 65.975 80.615 C65.645 82.265 65.315 83.915 64.975 85.615 C61.187 88.787 57.969 88.994 53.136 89.003 C52.469 89.009 51.802 89.014 51.114 89.019 C48.92 89.032 46.727 89.024 44.533 89.014 C43.003 89.016 41.473 89.019 39.942 89.022 C36.741 89.027 33.539 89.02 30.337 89.006 C26.236 88.989 22.135 88.999 18.034 89.017 C14.876 89.028 11.718 89.024 8.56 89.017 C7.048 89.015 5.535 89.017 4.023 89.024 C1.91 89.032 -0.203 89.02 -2.317 89.003 C-3.518 89.001 -4.72 88.999 -5.959 88.996 C-9.302 88.581 -10.677 87.992 -13.025 85.615 C-14.194 82.11 -14.196 78.934 -14.218 75.286 C-14.222 74.914 -14.222 74.914 -14.243 73.033 C-14.268 70.573 -14.284 68.114 -14.299 65.654 C-14.304 64.814 -14.309 63.973 -14.315 63.107 C-14.342 58.66 -14.361 54.213 -14.375 49.766 C-14.389 46.085 -14.417 42.406 -14.458 38.726 C-14.507 34.281 -14.532 29.836 -14.539 25.391 C-14.545 23.698 -14.561 22.005 -14.585 20.312 C-14.616 17.942 -14.616 15.574 -14.609 13.204 C-14.625 12.506 -14.642 11.809 -14.659 11.091 C-14.613 7.527 -14.051 5.654 -12.053 2.679 C-7.93 -0.132 -4.884 -0.077 0 0 Z " fill="#42A4F4" transform="translate(238.025390625,207.384765625)"/>
<path d="M0 0 C21.12 0 42.24 0 64 0 C64 42.24 64 84.48 64 128 C42.88 128 21.76 128 0 128 C0 85.76 0 43.52 0 0 Z " fill="#747474" transform="translate(120,224)"/>
<path d="M0 0 C3.544 1.337 6.196 3.483 9.078 5.871 C10.332 6.883 11.586 7.895 12.84 8.906 C13.475 9.423 14.109 9.94 14.763 10.473 C17.613 12.785 20.501 15.047 23.391 17.309 C23.674 17.531 23.674 17.531 25.107 18.658 C29.938 22.454 34.789 26.226 39.641 29.996 C47.887 36.403 56.104 42.849 64.309 49.31 C71.402 54.894 78.512 60.457 85.641 65.996 C93.915 72.425 102.16 78.889 110.389 85.374 C111.579 86.311 112.768 87.248 113.958 88.185 C118.715 91.929 118.715 91.929 120.486 93.383 C122.641 94.996 122.641 94.996 125.927 96.969 C131.127 100.23 134.989 102.742 136.748 108.829 C137.221 113.186 137.044 117.503 136.828 121.871 C136.777 124.117 136.745 126.362 136.718 128.608 C136.685 130.63 136.608 132.651 136.528 134.671 C136.635 137.84 136.811 139.449 138.641 141.996 C141.266 143.246 141.266 143.246 143.641 143.996 C145.444 161.652 145.444 161.652 141.438 166.859 C138.59 168.801 135.692 170.399 132.641 171.996 C127.787 176.052 124.226 180.829 120.641 185.996 C120.311 185.996 119.981 185.996 119.641 185.996 C119.659 185.106 119.678 184.216 119.697 183.299 C119.86 174.87 119.955 166.443 119.975 158.012 C119.987 153.678 120.026 149.348 120.124 145.015 C120.218 140.825 120.243 136.64 120.221 132.449 C120.225 130.859 120.253 129.268 120.306 127.678 C120.689 115.612 120.689 115.612 117.299 111.283 C114.02 108.088 110.355 105.595 106.477 103.185 C103.447 101.223 100.697 98.95 97.891 96.684 C92.489 92.435 87.067 88.212 81.641 83.996 C73.394 77.589 65.177 71.144 56.973 64.683 C49.112 58.494 41.229 52.335 33.327 46.199 C29.208 42.999 25.098 39.788 21.006 36.555 C19.309 35.218 17.606 33.888 15.902 32.559 C13.671 30.817 11.472 29.042 9.285 27.246 C8.217 26.391 7.148 25.537 6.078 24.684 C5.149 23.924 4.219 23.165 3.262 22.383 C0.641 20.996 0.641 20.996 -1.73 21.391 C-5.382 23.621 -8.589 26.245 -11.859 28.996 C-13.298 30.186 -14.739 31.375 -16.18 32.562 C-16.89 33.149 -17.601 33.736 -18.333 34.34 C-22.655 37.872 -27.114 41.224 -31.55 44.609 C-35.147 47.366 -38.721 50.151 -42.297 52.934 C-42.683 53.234 -42.683 53.234 -44.636 54.754 C-49.779 58.758 -54.909 62.78 -60.031 66.812 C-64.793 70.559 -69.575 74.279 -74.359 77.996 C-82.047 83.969 -89.711 89.973 -97.359 95.996 C-105.96 102.769 -114.582 109.514 -123.231 116.226 C-123.956 116.788 -124.68 117.35 -125.426 117.93 C-126.108 118.458 -126.79 118.986 -127.493 119.531 C-129.104 120.796 -130.686 122.098 -132.262 123.406 C-134.359 124.996 -134.359 124.996 -136.359 124.996 C-138.548 108.632 -138.548 108.632 -135.275 103.195 C-132.185 99.921 -128.357 97.677 -124.524 95.368 C-120.584 92.871 -117.006 89.899 -113.359 86.996 C-111.824 85.8 -110.288 84.606 -108.75 83.414 C-102.601 78.632 -96.479 73.815 -90.359 68.996 C-81.942 62.367 -73.502 55.768 -65.041 49.195 C-58.127 43.821 -51.239 38.414 -44.359 32.996 C-38.193 28.141 -32.026 23.288 -25.828 18.473 C-25.051 17.869 -24.273 17.264 -23.472 16.642 C-21.91 15.43 -20.345 14.219 -18.78 13.01 C-15.525 10.493 -12.29 7.973 -9.168 5.293 C-8.735 4.924 -8.735 4.924 -6.547 3.059 C-5.839 2.431 -5.131 1.803 -4.402 1.156 C-2.359 -0.004 -2.359 -0.004 0 0 Z " fill="#DEDEDE" transform="translate(216.359375,75.00390625)"/>
<path d="M0 0 C12.644 11.494 18.91 27.008 20.32 43.816 C20.907 63.514 15.284 82.154 2 97 C1.345 97.748 0.69 98.495 0.016 99.266 C-5.85 105.56 -12.497 109.858 -20 114 C-20.749 114.423 -21.498 114.846 -22.27 115.281 C-37.873 123.158 -57.098 122.727 -73.379 117.777 C-77.587 116.874 -79.837 116.848 -84 118 C-86.757 120.274 -88.939 122.974 -91.215 125.719 C-92.617 127.313 -94.025 128.902 -95.439 130.486 C-95.806 130.898 -95.806 130.898 -97.662 132.98 C-117.165 154.576 -117.165 154.576 -130.509 155.568 C-136.436 155.712 -142.339 155.081 -148.164 154.01 C-151 154 -151 154 -153.347 155.568 C-155.443 158.651 -155.539 160.584 -155.609 164.297 C-155.642 165.502 -155.674 166.707 -155.707 167.949 C-155.721 169.203 -155.735 170.458 -155.75 171.75 C-155.765 172.385 -155.765 172.385 -155.84 175.598 C-155.911 178.732 -155.963 181.865 -156 185 C-156.797 185.009 -157.594 185.019 -158.415 185.028 C-162.027 185.082 -165.638 185.166 -169.25 185.25 C-170.504 185.264 -171.759 185.278 -173.051 185.293 C-174.256 185.325 -175.461 185.357 -176.703 185.391 C-177.813 185.412 -178.924 185.433 -180.067 185.454 C-183.708 186.132 -184.887 186.974 -187 190 C-187.546 192.933 -187.546 192.933 -187.609 196.297 C-187.64 197.383 -187.671 198.47 -187.702 199.589 C-187.718 200.962 -187.734 202.335 -187.75 203.75 C-187.832 208.123 -187.915 212.495 -188 217 C-198.56 217 -209.12 217 -220 217 C-220 211.72 -220 206.44 -220 201 C-218.041 200.773 -216.081 200.546 -214.062 200.312 C-194.593 197.201 -180.426 177.577 -167.145 164.277 C-165.348 162.482 -163.552 160.686 -161.755 158.891 C-158.016 155.153 -154.279 151.414 -150.543 147.673 C-146.225 143.35 -141.904 139.03 -137.581 134.713 C-133.403 130.54 -129.228 126.365 -125.054 122.188 C-123.284 120.417 -121.512 118.646 -119.74 116.876 C-117.277 114.416 -114.817 111.952 -112.359 109.488 C-111.991 109.122 -111.991 109.122 -110.131 107.267 C-109.466 106.599 -108.8 105.93 -108.115 105.242 C-107.534 104.66 -106.953 104.079 -106.355 103.48 C-105 102 -105 102 -104 100 C-103.238 100.205 -102.476 100.41 -101.691 100.621 C-95.45 102.25 -89.447 103.677 -83 104 C-81.755 104.064 -80.51 104.129 -79.227 104.195 C-58.571 104.908 -39.436 98.335 -23.812 84.625 C-8.704 70.474 2.157 52.401 3.18 31.293 C3.39 22.681 2.583 14.479 1 6 C0.664 4.001 0.329 2.001 0 0 Z " fill="#FDA625" transform="translate(460,263)"/>
<path d="M0 0 C9.24 0 18.48 0 28 0 C26.02 2.31 24.04 4.62 22 7 C21.585 7.51 21.585 7.51 19.484 10.09 C1.565 31.875 1.565 31.875 -9.048 33.458 C-16.735 34.114 -24.42 33.328 -32 32 C-32.433 31.031 -32.866 30.061 -33.312 29.062 C-35 26 -35 26 -38 25 C-40.371 24.896 -42.745 24.853 -45.118 24.842 C-45.848 24.837 -46.577 24.832 -47.329 24.827 C-49.779 24.811 -52.23 24.803 -54.68 24.795 C-56.435 24.785 -58.189 24.775 -59.943 24.765 C-64.711 24.738 -69.479 24.717 -74.248 24.697 C-79.228 24.675 -84.209 24.647 -89.19 24.621 C-98.625 24.571 -108.059 24.526 -117.494 24.483 C-128.234 24.433 -138.974 24.378 -149.714 24.323 C-171.809 24.209 -193.905 24.102 -216 24 C-216 18.72 -216 13.44 -216 8 C-213.378 7.992 -210.756 7.984 -208.055 7.975 C-183.391 7.898 -158.728 7.811 -134.065 7.712 C-121.385 7.662 -108.704 7.616 -96.023 7.578 C-84.973 7.545 -73.923 7.505 -62.873 7.457 C-57.02 7.432 -51.167 7.41 -45.314 7.397 C-39.808 7.384 -34.303 7.362 -28.797 7.333 C-26.773 7.324 -24.749 7.318 -22.726 7.316 C-19.968 7.312 -17.211 7.297 -14.453 7.278 C-13.648 7.28 -12.843 7.282 -12.013 7.284 C-4.726 7.211 -4.726 7.211 -2 5 C-1.34 3.35 -0.68 1.7 0 0 Z " fill="#E43834" transform="translate(272,360)"/>
<path d="M0 0 C0.9 -0.006 1.8 -0.011 2.727 -0.017 C5.695 -0.029 8.662 -0.004 11.631 0.021 C13.697 0.023 15.763 0.023 17.829 0.021 C22.156 0.023 26.484 0.042 30.811 0.073 C36.356 0.113 41.901 0.117 47.446 0.11 C51.711 0.107 55.977 0.119 60.242 0.136 C62.287 0.143 64.331 0.146 66.376 0.145 C69.234 0.147 72.091 0.168 74.949 0.195 C75.793 0.192 76.637 0.189 77.506 0.186 C82.138 0.254 85.214 0.607 88.975 3.615 C91.073 7.812 90.201 13.266 90.215 17.882 C90.225 19.91 90.256 21.937 90.287 23.965 C90.29 24.606 90.29 24.606 90.303 27.854 C90.312 29.03 90.321 30.206 90.331 31.417 C89.939 34.935 89.084 36.802 86.975 39.615 C84.165 41.02 82.087 40.864 78.975 40.615 C75.839 38.835 75.134 38.092 73.975 34.615 C73.975 28.675 73.975 22.735 73.975 16.615 C50.215 16.615 26.455 16.615 1.975 16.615 C1.975 35.095 1.975 53.575 1.975 72.615 C6.103 72.58 10.232 72.546 14.486 72.51 C17.785 72.49 21.083 72.474 24.382 72.46 C27.86 72.444 31.339 72.423 34.817 72.389 C38.811 72.35 42.805 72.336 46.799 72.322 C48.042 72.307 49.285 72.291 50.565 72.275 C51.726 72.275 52.887 72.275 54.083 72.275 C54.592 72.271 54.592 72.271 57.171 72.254 C60.447 72.676 62.323 73.677 64.975 75.615 C66.379 78.424 66.224 80.503 65.975 83.615 C64.195 86.751 63.452 87.456 59.975 88.615 C57.773 88.72 55.568 88.764 53.364 88.776 C52.697 88.781 52.03 88.786 51.342 88.791 C49.138 88.806 46.933 88.813 44.729 88.818 C43.195 88.824 41.662 88.83 40.129 88.836 C36.915 88.846 33.702 88.852 30.488 88.855 C26.371 88.861 22.254 88.885 18.137 88.913 C14.971 88.932 11.804 88.937 8.638 88.939 C7.12 88.942 5.602 88.95 4.084 88.963 C1.961 88.98 -0.162 88.978 -2.285 88.972 C-3.493 88.975 -4.701 88.979 -5.945 88.983 C-9.304 88.582 -10.671 88.004 -13.025 85.615 C-14.194 82.11 -14.196 78.934 -14.218 75.286 C-14.222 74.914 -14.222 74.914 -14.243 73.033 C-14.268 70.573 -14.284 68.114 -14.299 65.654 C-14.304 64.814 -14.309 63.973 -14.315 63.107 C-14.342 58.66 -14.361 54.213 -14.375 49.766 C-14.389 46.085 -14.417 42.406 -14.458 38.726 C-14.507 34.281 -14.532 29.836 -14.539 25.391 C-14.545 23.698 -14.561 22.005 -14.585 20.312 C-14.616 17.942 -14.616 15.574 -14.609 13.204 C-14.625 12.506 -14.642 11.809 -14.659 11.091 C-14.613 7.527 -14.051 5.654 -12.053 2.679 C-7.93 -0.132 -4.884 -0.077 0 0 Z " fill="#000000" transform="translate(238.025390625,207.384765625)"/>
<path d="M0 0 C6.998 4.558 12.262 11.783 14 20 C15.041 30.871 12.788 40.622 5.836 49.215 C-0.73 55.6 -9.187 59.264 -18.312 59.375 C-24.432 59.264 -28.791 58.169 -34 55 C-34.349 54.794 -34.349 54.794 -36.117 53.75 C-42.811 49.304 -47.101 42.752 -49.375 35.062 C-51.319 25.021 -49.954 17.538 -44.715 8.875 C-34.15 -6.663 -15.82 -8.804 0 0 Z " fill="#030201" transform="translate(442,269)"/>
<path d="M0 0 C5.28 0 10.56 0 16 0 C16 42.24 16 84.48 16 128 C-5.12 128 -26.24 128 -48 128 C-48 122.72 -48 117.44 -48 112 C-46.528 111.974 -45.056 111.948 -43.539 111.922 C-41.568 111.866 -39.596 111.808 -37.625 111.75 C-37.142 111.743 -37.142 111.743 -34.699 111.707 C-24.759 111.373 -15.039 108.371 -8 101 C-2.774 93.155 -0.863 86.982 -0.795 77.651 C-0.785 76.812 -0.775 75.973 -0.765 75.108 C-0.733 72.337 -0.708 69.567 -0.684 66.797 C-0.663 64.874 -0.642 62.952 -0.621 61.03 C-0.565 55.973 -0.516 50.916 -0.468 45.859 C-0.418 40.698 -0.362 35.536 -0.307 30.375 C-0.199 20.25 -0.098 10.125 0 0 Z " fill="#616161" transform="translate(168,224)"/>
<path d="M0 0 C15.84 0 31.68 0 48 0 C48 27.06 48 54.12 48 82 C35.987 72.99 24.018 63.969 12.441 54.402 C11.829 53.898 11.217 53.394 10.586 52.875 C10.06 52.439 9.535 52.004 8.994 51.555 C7 50 7 50 5.242 49.071 C2.294 47.378 0.334 46.191 -0.612 42.817 C-0.811 40.076 -0.788 37.414 -0.684 34.668 C-0.677 33.788 -0.669 32.909 -0.662 32.003 C-0.626 28.73 -0.528 25.459 -0.438 22.188 C-0.293 14.866 -0.149 7.544 0 0 Z " fill="#747474" transform="translate(304,32)"/>
<path d="M0 0 C9.24 0 18.48 0 28 0 C26.02 2.31 24.04 4.62 22 7 C21.413 7.863 20.825 8.727 20.22 9.616 C17.637 13.011 15.17 15.485 10.903 16.498 C4.283 17.35 -2.385 17.126 -9.043 17.022 C-11.301 17.019 -13.558 17.021 -15.816 17.026 C-21.929 17.028 -28.041 16.975 -34.154 16.913 C-40.548 16.856 -46.942 16.851 -53.337 16.84 C-64.064 16.816 -74.791 16.759 -85.518 16.679 C-96.564 16.596 -107.609 16.533 -118.655 16.494 C-119.337 16.492 -120.018 16.49 -120.721 16.487 C-124.141 16.475 -127.56 16.464 -130.98 16.453 C-159.321 16.36 -187.66 16.201 -216 16 C-216 13.36 -216 10.72 -216 8 C-215.461 7.998 -215.461 7.998 -212.732 7.99 C-186.509 7.909 -160.287 7.817 -134.065 7.712 C-121.385 7.662 -108.704 7.616 -96.023 7.578 C-84.973 7.545 -73.923 7.505 -62.873 7.457 C-57.02 7.432 -51.167 7.41 -45.314 7.397 C-39.808 7.384 -34.303 7.362 -28.797 7.333 C-26.773 7.324 -24.749 7.318 -22.726 7.316 C-19.968 7.312 -17.211 7.297 -14.453 7.278 C-13.648 7.28 -12.843 7.282 -12.013 7.284 C-4.726 7.211 -4.726 7.211 -2 5 C-1.34 3.35 -0.68 1.7 0 0 Z " fill="#EE524F" transform="translate(272,360)"/>
<path d="M0 0 C18.48 0 36.96 0 56 0 C56 14.027 55.516 22.051 46 32 C36.729 40.392 26.88 40.397 15 40.188 C10.05 40.126 5.1 40.064 0 40 C0 26.8 0 13.6 0 0 Z " fill="#63B4F5" transform="translate(240,224)"/>
<path d="M0 0 C2.753 1.298 5.132 2.733 7.547 4.582 C8.219 5.095 8.891 5.609 9.583 6.138 C9.941 6.414 9.941 6.414 11.75 7.812 C12.497 8.386 13.244 8.96 14.014 9.552 C19.888 14.086 25.693 18.705 31.364 23.491 C35.234 26.726 39.044 29.101 43.5 31.5 C46.113 33.281 46.113 33.281 48 36 C49.307 42.908 48.674 50.047 48 57 C35.982 48.004 24.016 38.967 12.441 29.402 C11.829 28.898 11.217 28.394 10.586 27.875 C9.997 27.382 9.409 26.889 8.802 26.382 C7 25 7 25 5.001 23.878 C2.984 22.722 1.517 21.767 0 20 C-0.843 16.522 -0.666 13.239 -0.438 9.688 C-0.406 8.756 -0.374 7.825 -0.342 6.865 C-0.26 4.574 -0.145 2.288 0 0 Z " fill="#606060" transform="translate(304,57)"/>
<path d="M0 0 C5.675 1.964 9.314 5.628 12 11 C12.544 15.955 12.564 19.871 10.312 24.375 C7.147 27.968 3.788 31.694 -1.172 32.238 C-7.018 32.407 -10.432 32.024 -15 28 C-19.302 23.233 -20.363 19.563 -20.281 13.281 C-19.692 8.5 -16.852 5.75 -13.375 2.688 C-8.923 -0.476 -5.354 -0.488 0 0 Z " fill="#E8E8E8" transform="translate(428,280)"/>
</svg>
