<?xml version="1.0" encoding="UTF-8"?>
<!-- Generator: visioncortex VTracer 0.6.12 -->
<svg version="1.1" xmlns="http://www.w3.org/2000/svg" width="512" height="512">
<path d="M0 0 C0.978 -0.005 1.956 -0.009 2.964 -0.014 C6.239 -0.026 9.513 -0.025 12.788 -0.023 C15.137 -0.029 17.486 -0.036 19.836 -0.043 C26.216 -0.061 32.596 -0.066 38.976 -0.067 C43.633 -0.069 48.289 -0.075 52.945 -0.081 C65.471 -0.097 77.997 -0.105 90.523 -0.103 C91.234 -0.103 91.944 -0.103 92.677 -0.103 C93.033 -0.103 93.033 -0.103 94.834 -0.103 C106.363 -0.102 117.892 -0.121 129.421 -0.149 C141.271 -0.178 153.12 -0.192 164.97 -0.19 C171.618 -0.19 178.266 -0.195 184.914 -0.217 C191.168 -0.236 197.422 -0.236 203.677 -0.222 C205.969 -0.22 208.261 -0.224 210.553 -0.236 C213.689 -0.252 216.825 -0.242 219.961 -0.227 C220.411 -0.232 220.411 -0.232 222.69 -0.258 C231.427 -0.164 239.256 2.543 245.703 8.564 C252.496 16.12 254.543 23.803 254.461 33.761 C254.462 34.698 254.462 35.636 254.462 36.601 C254.461 39.685 254.445 42.769 254.43 45.853 C254.426 47.997 254.423 50.141 254.421 52.285 C254.414 57.917 254.394 63.549 254.372 69.181 C254.351 74.933 254.342 80.684 254.332 86.435 C254.311 97.713 254.277 108.99 254.234 120.267 C255.014 120.259 255.794 120.25 256.597 120.241 C263.981 120.16 271.365 120.099 278.75 120.06 C282.546 120.039 286.341 120.011 290.136 119.966 C293.806 119.922 297.476 119.898 301.146 119.888 C302.539 119.881 303.932 119.866 305.325 119.845 C316.258 119.681 325.461 120.867 333.703 128.564 C339.242 134.725 342.487 141.639 342.481 150.003 C342.485 151.13 342.488 152.257 342.493 153.418 C342.49 154.032 342.49 154.032 342.475 157.137 C342.476 157.792 342.476 157.792 342.48 161.103 C342.485 164.737 342.477 168.37 342.467 172.003 C342.458 175.982 342.461 179.96 342.462 183.938 C342.463 191.659 342.454 199.381 342.441 207.102 C342.427 216.034 342.425 224.966 342.424 233.898 C342.413 257.479 342.385 281.061 342.359 304.642 C342.318 357.319 342.277 409.995 342.234 464.267 C189.114 464.267 35.994 464.267 -121.766 464.267 C-121.848 411.674 -121.931 359.08 -122.016 304.892 C-122.052 288.277 -122.088 271.662 -122.126 254.543 C-122.144 234.276 -122.144 234.276 -122.147 224.792 C-122.151 218.159 -122.166 211.526 -122.188 204.893 C-122.213 197.242 -122.225 189.591 -122.219 181.94 C-122.217 178.027 -122.221 174.114 -122.242 170.2 C-122.266 166.006 -122.258 161.813 -122.247 157.618 C-122.252 157.011 -122.252 157.011 -122.282 153.935 C-122.214 144.243 -120.221 136.028 -113.469 128.799 C-106.981 122.966 -99.976 120.006 -91.209 120.04 C-90.569 120.04 -90.569 120.04 -87.328 120.041 C-85.945 120.051 -84.562 120.061 -83.18 120.072 C-81.753 120.076 -80.327 120.079 -78.901 120.081 C-75.162 120.088 -71.424 120.108 -67.686 120.13 C-63.865 120.151 -60.044 120.16 -56.223 120.17 C-48.737 120.191 -41.251 120.225 -33.766 120.267 C-33.774 119.087 -33.783 117.906 -33.792 116.69 C-33.874 105.539 -33.934 94.387 -33.973 83.235 C-33.994 77.502 -34.022 71.77 -34.067 66.037 C-34.111 60.5 -34.135 54.963 -34.145 49.426 C-34.152 47.318 -34.167 45.211 -34.188 43.104 C-34.218 40.14 -34.222 37.178 -34.22 34.215 C-34.234 33.353 -34.248 32.492 -34.263 31.604 C-34.205 22.957 -31.417 15.168 -25.469 8.799 C-17.823 1.925 -10.064 -0.034 0 0 Z " fill="#00A99D" transform="translate(145.76556396484375,23.732574462890625)"/>
<path d="M0 0 C15.571 -0.16 15.571 -0.16 22.262 -0.195 C26.809 -0.219 31.355 -0.247 35.902 -0.302 C39.572 -0.346 43.241 -0.369 46.912 -0.38 C48.304 -0.387 49.697 -0.401 51.09 -0.423 C62.024 -0.587 71.227 0.599 79.469 8.297 C85.008 14.458 88.253 21.372 88.246 29.736 C88.25 30.862 88.254 31.989 88.258 33.15 C88.255 33.764 88.255 33.764 88.241 36.87 C88.242 38.182 88.244 39.494 88.246 40.845 C88.25 44.48 88.242 48.115 88.232 51.75 C88.223 55.672 88.226 59.595 88.228 63.517 C88.229 70.31 88.223 77.104 88.211 83.897 C88.195 93.719 88.19 103.541 88.187 113.363 C88.183 129.299 88.17 145.235 88.151 161.171 C88.133 176.651 88.118 192.131 88.11 207.611 C88.109 208.565 88.109 209.519 88.108 210.503 C88.106 215.29 88.103 220.077 88.101 224.864 C88.08 264.576 88.043 304.288 88 344 C58.96 344 29.92 344 0 344 C0 328.16 0 312.32 0 296 C20.75 295.625 20.75 295.625 27.284 295.522 C28.997 295.487 30.709 295.451 32.422 295.414 C33.308 295.403 34.195 295.391 35.108 295.38 C35.96 295.36 36.812 295.34 37.69 295.319 C38.059 295.312 38.059 295.312 39.924 295.278 C42.352 294.953 43.948 294.336 46 293 C47.261 289.216 47.162 285.661 47.168 281.719 C47.171 280.909 47.175 280.099 47.178 279.265 C47.183 277.553 47.185 275.842 47.185 274.13 C47.187 271.51 47.206 268.89 47.225 266.27 C47.228 264.607 47.23 262.944 47.23 261.281 C47.238 260.497 47.245 259.712 47.252 258.904 C47.236 255.068 47.179 253.268 45 250 C42.291 249.097 40.599 248.853 37.804 248.795 C36.952 248.774 36.099 248.754 35.221 248.734 C34.33 248.717 33.438 248.701 32.52 248.684 C31.697 248.665 30.874 248.646 30.027 248.627 C26.955 248.559 23.884 248.499 20.812 248.438 C13.944 248.293 7.076 248.149 0 248 C0 232.16 0 216.32 0 200 C20.75 199.625 20.75 199.625 27.284 199.522 C28.997 199.487 30.709 199.451 32.422 199.414 C33.308 199.403 34.195 199.391 35.108 199.38 C35.96 199.36 36.812 199.34 37.69 199.319 C38.059 199.312 38.059 199.312 39.924 199.278 C42.352 198.953 43.948 198.336 46 197 C47.261 193.216 47.162 189.661 47.168 185.719 C47.171 184.909 47.175 184.099 47.178 183.265 C47.183 181.553 47.185 179.842 47.185 178.13 C47.187 175.51 47.206 172.89 47.225 170.27 C47.228 168.607 47.23 166.944 47.23 165.281 C47.238 164.497 47.245 163.712 47.252 162.904 C47.236 159.068 47.179 157.268 45 154 C42.291 153.097 40.599 152.853 37.804 152.795 C36.952 152.774 36.099 152.754 35.221 152.734 C34.33 152.717 33.438 152.701 32.52 152.684 C31.697 152.665 30.874 152.646 30.027 152.627 C26.955 152.559 23.884 152.499 20.812 152.438 C13.944 152.293 7.076 152.149 0 152 C0 136.16 0 120.32 0 104 C20.75 103.625 20.75 103.625 27.284 103.522 C28.997 103.487 30.709 103.451 32.422 103.414 C33.308 103.403 34.195 103.391 35.108 103.38 C35.96 103.36 36.812 103.34 37.69 103.319 C38.428 103.306 39.165 103.292 39.924 103.278 C42.352 102.953 43.948 102.336 46 101 C47.261 97.216 47.162 93.661 47.168 89.719 C47.171 88.909 47.175 88.099 47.178 87.265 C47.183 85.553 47.185 83.842 47.185 82.13 C47.187 79.51 47.206 76.89 47.225 74.27 C47.228 72.607 47.23 70.944 47.23 69.281 C47.238 68.497 47.245 67.712 47.252 66.904 C47.236 63.068 47.179 61.268 45 58 C42.291 57.097 40.599 56.853 37.804 56.795 C36.952 56.774 36.099 56.754 35.221 56.734 C34.33 56.717 33.438 56.701 32.52 56.684 C31.697 56.665 30.874 56.646 30.027 56.627 C26.955 56.559 23.884 56.499 20.812 56.438 C13.944 56.293 7.076 56.149 0 56 C0 37.52 0 19.04 0 0 Z " fill="#008B81" transform="translate(400,144)"/>
<path d="M0 0 C0.64 0 0.64 0 3.881 0 C5.264 0.011 6.647 0.021 8.03 0.032 C9.456 0.035 10.882 0.038 12.309 0.04 C16.047 0.048 19.785 0.068 23.524 0.09 C28.018 0.114 32.511 0.123 37.005 0.135 C43.818 0.154 50.631 0.192 57.444 0.227 C57.444 18.707 57.444 37.187 57.444 56.227 C36.194 56.477 36.194 56.477 29.501 56.525 C27.748 56.554 25.994 56.585 24.241 56.618 C23.787 56.618 23.787 56.618 21.489 56.621 C17.694 56.707 15.17 56.801 11.86 58.744 C9.836 62.293 9.909 65.597 9.983 69.571 C9.984 70.377 9.985 71.183 9.986 72.014 C9.992 73.715 10.007 75.416 10.032 77.117 C10.069 79.718 10.073 82.317 10.073 84.918 C10.083 86.573 10.094 88.228 10.108 89.883 C10.11 90.659 10.112 91.436 10.115 92.235 C10.236 99.145 10.236 99.145 12.444 102.227 C14.727 103.369 16.079 103.38 18.618 103.432 C19.491 103.453 20.364 103.473 21.263 103.494 C22.181 103.51 23.099 103.526 24.045 103.543 C24.889 103.562 25.732 103.581 26.601 103.6 C29.757 103.668 32.913 103.728 36.069 103.79 C43.123 103.934 50.176 104.078 57.444 104.227 C57.444 120.067 57.444 135.907 57.444 152.227 C36.194 152.477 36.194 152.477 29.501 152.525 C27.748 152.554 25.994 152.585 24.241 152.618 C23.787 152.618 23.787 152.618 21.489 152.621 C17.694 152.707 15.17 152.801 11.86 154.744 C9.836 158.293 9.909 161.597 9.983 165.571 C9.984 166.377 9.985 167.183 9.986 168.014 C9.992 169.715 10.007 171.416 10.032 173.117 C10.069 175.718 10.073 178.317 10.073 180.918 C10.083 182.573 10.094 184.228 10.108 185.883 C10.11 186.659 10.112 187.436 10.115 188.235 C10.236 195.145 10.236 195.145 12.444 198.227 C14.727 199.369 16.079 199.38 18.618 199.432 C19.491 199.453 20.364 199.473 21.263 199.494 C22.181 199.51 23.099 199.526 24.045 199.543 C24.467 199.553 24.467 199.553 26.601 199.6 C29.757 199.668 32.913 199.728 36.069 199.79 C43.123 199.934 50.176 200.078 57.444 200.227 C57.444 216.067 57.444 231.907 57.444 248.227 C36.194 248.477 36.194 248.477 29.501 248.525 C27.748 248.554 25.994 248.585 24.241 248.618 C23.787 248.618 23.787 248.618 21.489 248.621 C17.694 248.707 15.17 248.801 11.86 250.744 C9.836 254.293 9.909 257.597 9.983 261.571 C9.984 262.377 9.985 263.183 9.986 264.014 C9.992 265.715 10.007 267.416 10.032 269.117 C10.069 271.718 10.073 274.317 10.073 276.918 C10.083 278.573 10.094 280.228 10.108 281.883 C10.11 282.659 10.112 283.436 10.115 284.235 C10.236 291.145 10.236 291.145 12.444 294.227 C14.727 295.369 16.079 295.38 18.618 295.432 C19.055 295.442 19.055 295.442 21.263 295.494 C22.181 295.51 23.099 295.526 24.045 295.543 C24.467 295.553 24.467 295.553 26.601 295.6 C29.757 295.668 32.913 295.728 36.069 295.79 C39.596 295.862 39.596 295.862 57.444 296.227 C57.444 312.067 57.444 327.907 57.444 344.227 C28.404 344.227 -0.636 344.227 -30.556 344.227 C-30.644 303.631 -30.718 263.035 -30.76 222.439 C-30.765 217.645 -30.771 212.852 -30.776 208.058 C-30.777 207.103 -30.778 206.149 -30.779 205.166 C-30.796 189.717 -30.828 174.269 -30.865 158.821 C-30.902 142.967 -30.924 127.113 -30.933 111.258 C-30.938 101.477 -30.955 91.697 -30.988 81.916 C-31.009 75.206 -31.015 68.497 -31.01 61.788 C-31.008 57.918 -31.011 54.049 -31.033 50.179 C-31.056 45.979 -31.048 41.779 -31.037 37.578 C-31.049 36.362 -31.06 35.146 -31.072 33.893 C-31.004 24.202 -29.011 15.987 -22.259 8.758 C-15.772 2.926 -8.767 -0.035 0 0 Z " fill="#008B81" transform="translate(54.55615234375,143.77294921875)"/>
<path d="M0 0 C14.676 12.669 25.993 30.703 27.585 50.414 C28.121 60.878 27.902 70.942 24.383 80.906 C24.031 81.97 23.679 83.033 23.316 84.129 C16.59 103.11 3.303 118.502 -14.758 127.465 C-20.871 130.106 -27.166 132.251 -33.617 133.906 C-34.333 134.091 -35.048 134.275 -35.785 134.465 C-56.525 137.697 -76.4 132.676 -93.602 120.855 C-96.035 118.957 -98.338 116.986 -100.617 114.906 C-100.921 114.648 -100.921 114.648 -102.461 113.34 C-114.671 102.268 -123.361 83.785 -124.837 67.481 C-125.854 45.784 -121.001 25.732 -106.527 9 C-105.897 8.309 -105.267 7.618 -104.617 6.906 C-104.1 6.298 -103.583 5.689 -103.051 5.062 C-76.522 -24.192 -29.514 -23.611 0 0 Z " fill="#F2FAFD" transform="translate(304.6171875,77.09375)"/>
<path d="M0 0 C47.52 0 95.04 0 144 0 C144 39.6 144 79.2 144 120 C96.48 120 48.96 120 0 120 C0 80.4 0 40.8 0 0 Z " fill="#E3F3FC" transform="translate(184,368)"/>
<path d="M0 0 C0.805 -0.006 1.61 -0.013 2.44 -0.019 C5.136 -0.035 7.83 -0.014 10.526 0.006 C12.459 0.003 14.393 -0.003 16.326 -0.011 C21.576 -0.025 26.826 -0.008 32.076 0.016 C37.568 0.036 43.06 0.03 48.553 0.028 C57.776 0.028 67 0.047 76.224 0.079 C86.89 0.116 97.555 0.125 108.222 0.118 C118.479 0.112 128.736 0.123 138.994 0.142 C143.361 0.15 147.727 0.153 152.094 0.151 C157.236 0.151 162.377 0.165 167.518 0.191 C169.406 0.198 171.294 0.2 173.182 0.197 C175.757 0.193 178.332 0.208 180.907 0.227 C181.656 0.222 182.404 0.216 183.175 0.211 C187.596 0.269 190.439 0.89 193.953 3.621 C195.305 6.324 195.076 8.416 195.074 11.443 C195.074 12.062 195.074 12.062 195.078 15.199 C195.074 16.58 195.071 17.961 195.067 19.343 C195.067 20.791 195.067 22.24 195.067 23.688 C195.068 27.628 195.062 31.568 195.055 35.508 C195.049 39.622 195.048 43.737 195.047 47.852 C195.044 55.647 195.036 63.442 195.026 71.237 C195.014 80.11 195.009 88.983 195.004 97.855 C194.993 116.111 194.975 134.366 194.953 152.621 C184.393 152.621 173.833 152.621 162.953 152.621 C162.953 113.021 162.953 73.421 162.953 32.621 C115.433 32.621 67.913 32.621 18.953 32.621 C18.953 72.221 18.953 111.821 18.953 152.621 C8.393 152.621 -2.167 152.621 -13.047 152.621 C-13.159 133.541 -13.251 114.462 -13.306 95.381 C-13.331 86.522 -13.367 77.663 -13.424 68.804 C-13.474 61.082 -13.506 53.361 -13.517 45.64 C-13.523 41.551 -13.539 37.463 -13.575 33.374 C-13.609 29.525 -13.62 25.677 -13.612 21.828 C-13.613 20.416 -13.623 19.004 -13.643 17.592 C-13.667 15.662 -13.658 13.733 -13.648 11.803 C-13.652 10.724 -13.657 9.645 -13.662 8.532 C-12.082 1.06 -6.794 -0.114 0 0 Z " fill="#455867" transform="translate(165.0465087890625,335.3785400390625)"/>
<path d="M0 0 C5.675 1.964 9.314 5.628 12 11 C12.072 13.884 12.093 16.742 12.062 19.625 C12.058 20.427 12.053 21.229 12.049 22.055 C12.037 24.036 12.019 26.018 12 28 C13.085 27.965 14.171 27.93 15.289 27.895 C16.734 27.866 18.18 27.839 19.625 27.812 C20.338 27.787 21.051 27.762 21.785 27.736 C27.315 27.66 31.452 28.621 35.645 32.535 C39.998 38.228 40.79 41.872 40 49 C37.788 53.425 35.052 56.195 31 59 C27.237 60.254 23.728 60.107 19.812 60.062 C19.063 60.058 18.313 60.053 17.541 60.049 C15.694 60.037 13.847 60.019 12 60 C12.017 60.543 12.017 60.543 12.105 63.289 C12.134 64.734 12.161 66.18 12.188 67.625 C12.213 68.338 12.238 69.051 12.264 69.785 C12.34 75.315 11.379 79.452 7.465 83.645 C1.772 87.998 -1.872 88.79 -9 88 C-14.316 85.342 -18.102 81.693 -20 76 C-20.071 73.261 -20.094 70.55 -20.062 67.812 C-20.058 67.063 -20.053 66.313 -20.049 65.541 C-20.037 63.694 -20.019 61.847 -20 60 C-20.579 60.023 -20.579 60.023 -23.508 60.141 C-25.047 60.178 -26.586 60.215 -28.125 60.25 C-28.886 60.284 -29.646 60.317 -30.43 60.352 C-35.799 60.444 -38.73 59.542 -43 56 C-47.399 51.007 -48.357 48.09 -48.281 41.539 C-47.73 36.564 -44.993 33.875 -41.375 30.688 C-37.052 27.616 -33.527 27.883 -28.375 27.938 C-27.573 27.942 -26.771 27.947 -25.945 27.951 C-23.964 27.963 -21.982 27.981 -20 28 C-20.046 26.842 -20.093 25.685 -20.141 24.492 C-20.178 22.953 -20.215 21.414 -20.25 19.875 C-20.284 19.114 -20.317 18.354 -20.352 17.57 C-20.444 12.201 -19.542 9.27 -16 5 C-10.584 0.229 -7.091 -0.647 0 0 Z " fill="#E13433" transform="translate(260,92)"/>
<path d="M0 0 C0.666 -0.006 1.331 -0.011 2.017 -0.017 C4.207 -0.029 6.394 -0.004 8.584 0.021 C10.112 0.023 11.64 0.023 13.168 0.021 C16.365 0.023 19.563 0.042 22.76 0.073 C26.853 0.113 30.944 0.117 35.037 0.11 C38.19 0.107 41.344 0.119 44.497 0.136 C46.006 0.143 47.515 0.146 49.023 0.145 C51.135 0.147 53.245 0.168 55.355 0.195 C55.955 0.2 55.955 0.2 58.991 0.221 C62.479 0.653 64.381 1.522 67.178 3.615 C68.768 6.795 68.362 10.235 68.381 13.729 C68.387 14.535 68.392 15.342 68.398 16.173 C68.408 17.882 68.414 19.591 68.418 21.3 C68.428 23.907 68.459 26.514 68.49 29.121 C68.497 30.782 68.502 32.443 68.506 34.104 C68.518 34.881 68.531 35.658 68.543 36.459 C68.525 41.006 68.101 44.054 65.178 47.615 C61.776 48.749 59.154 48.756 55.567 48.776 C54.9 48.781 54.233 48.786 53.545 48.791 C51.341 48.806 49.136 48.813 46.932 48.818 C45.399 48.824 43.865 48.83 42.332 48.836 C39.119 48.846 35.905 48.852 32.691 48.855 C28.574 48.861 24.457 48.885 20.34 48.913 C17.174 48.932 14.007 48.937 10.841 48.939 C9.323 48.942 7.805 48.95 6.287 48.963 C4.164 48.98 2.042 48.978 -0.082 48.972 C-1.29 48.975 -2.497 48.979 -3.742 48.983 C-7.101 48.582 -8.468 48.004 -10.822 45.615 C-12.78 39.741 -12.129 33.02 -12.172 26.855 C-12.189 25.115 -12.216 23.375 -12.254 21.636 C-12.309 19.121 -12.331 16.607 -12.346 14.092 C-12.368 13.318 -12.391 12.544 -12.414 11.746 C-12.4 7.935 -12.079 5.945 -9.712 2.909 C-6.176 0.102 -4.47 -0.008 0 0 Z " fill="#E3F3FC" transform="translate(291.822265625,247.384765625)"/>
<path d="M0 0 C0.666 -0.006 1.331 -0.011 2.017 -0.017 C4.207 -0.029 6.394 -0.004 8.584 0.021 C10.112 0.023 11.64 0.023 13.168 0.021 C16.365 0.023 19.563 0.042 22.76 0.073 C26.853 0.113 30.944 0.117 35.037 0.11 C38.19 0.107 41.344 0.119 44.497 0.136 C46.006 0.143 47.515 0.146 49.023 0.145 C51.135 0.147 53.245 0.168 55.355 0.195 C55.955 0.2 55.955 0.2 58.991 0.221 C62.479 0.653 64.381 1.522 67.178 3.615 C68.768 6.795 68.362 10.235 68.381 13.729 C68.387 14.535 68.392 15.342 68.398 16.173 C68.408 17.882 68.414 19.591 68.418 21.3 C68.428 23.907 68.459 26.514 68.49 29.121 C68.497 30.782 68.502 32.443 68.506 34.104 C68.518 34.881 68.531 35.658 68.543 36.459 C68.525 41.006 68.101 44.054 65.178 47.615 C61.776 48.749 59.154 48.756 55.567 48.776 C54.9 48.781 54.233 48.786 53.545 48.791 C51.341 48.806 49.136 48.813 46.932 48.818 C45.399 48.824 43.865 48.83 42.332 48.836 C39.119 48.846 35.905 48.852 32.691 48.855 C28.574 48.861 24.457 48.885 20.34 48.913 C17.174 48.932 14.007 48.937 10.841 48.939 C9.323 48.942 7.805 48.95 6.287 48.963 C4.164 48.98 2.042 48.978 -0.082 48.972 C-1.29 48.975 -2.497 48.979 -3.742 48.983 C-7.101 48.582 -8.468 48.004 -10.822 45.615 C-12.78 39.741 -12.129 33.02 -12.172 26.855 C-12.189 25.115 -12.216 23.375 -12.254 21.636 C-12.309 19.121 -12.331 16.607 -12.346 14.092 C-12.368 13.318 -12.391 12.544 -12.414 11.746 C-12.4 7.935 -12.079 5.945 -9.712 2.909 C-6.176 0.102 -4.47 -0.008 0 0 Z " fill="#E3F3FC" transform="translate(163.822265625,247.384765625)"/>
<path d="M0 0 C0.84 0.005 1.681 0.01 2.546 0.015 C5.671 0.041 8.794 0.111 11.918 0.176 C18.91 0.279 25.902 0.382 33.105 0.488 C33.105 16.328 33.105 32.168 33.105 48.488 C26.093 48.55 19.08 48.612 11.855 48.676 C9.647 48.703 7.438 48.73 5.163 48.759 C3.41 48.767 1.656 48.775 -0.098 48.781 C-1.006 48.797 -1.914 48.812 -2.849 48.828 C-9.239 48.83 -9.239 48.83 -12.444 47.157 C-16.758 42.192 -15.201 33.002 -15.245 26.729 C-15.261 24.988 -15.289 23.248 -15.327 21.509 C-15.382 18.994 -15.403 16.48 -15.418 13.965 C-15.441 13.191 -15.463 12.417 -15.487 11.619 C-15.472 7.866 -15.01 5.669 -12.98 2.489 C-8.61 -0.345 -5.103 -0.145 0 0 Z " fill="#E3F3FC" transform="translate(78.89453125,391.51171875)"/>
<path d="M0 0 C0.84 0.005 1.681 0.01 2.546 0.015 C5.671 0.041 8.794 0.111 11.918 0.176 C18.91 0.279 25.902 0.382 33.105 0.488 C33.105 16.328 33.105 32.168 33.105 48.488 C26.093 48.55 19.08 48.612 11.855 48.676 C9.647 48.703 7.438 48.73 5.163 48.759 C3.41 48.767 1.656 48.775 -0.098 48.781 C-1.006 48.797 -1.914 48.812 -2.849 48.828 C-9.239 48.83 -9.239 48.83 -12.444 47.157 C-16.758 42.192 -15.201 33.002 -15.245 26.729 C-15.261 24.988 -15.289 23.248 -15.327 21.509 C-15.382 18.994 -15.403 16.48 -15.418 13.965 C-15.441 13.191 -15.463 12.417 -15.487 11.619 C-15.472 7.866 -15.01 5.669 -12.98 2.489 C-8.61 -0.345 -5.103 -0.145 0 0 Z " fill="#E3F3FC" transform="translate(78.89453125,295.51171875)"/>
<path d="M0 0 C0.84 0.005 1.681 0.01 2.546 0.015 C5.671 0.041 8.794 0.111 11.918 0.176 C18.91 0.279 25.902 0.382 33.105 0.488 C33.105 16.328 33.105 32.168 33.105 48.488 C26.093 48.55 19.08 48.612 11.855 48.676 C9.647 48.703 7.438 48.73 5.163 48.759 C3.41 48.767 1.656 48.775 -0.098 48.781 C-1.006 48.797 -1.914 48.812 -2.849 48.828 C-9.239 48.83 -9.239 48.83 -12.444 47.157 C-16.758 42.192 -15.201 33.002 -15.245 26.729 C-15.261 24.988 -15.289 23.248 -15.327 21.509 C-15.382 18.994 -15.403 16.48 -15.418 13.965 C-15.441 13.191 -15.463 12.417 -15.487 11.619 C-15.472 7.866 -15.01 5.669 -12.98 2.489 C-8.61 -0.345 -5.103 -0.145 0 0 Z " fill="#E3F3FC" transform="translate(78.89453125,199.51171875)"/>
<path d="M0 0 C3.413 -0.031 3.413 -0.031 20.688 -0.188 C21.761 -0.201 21.761 -0.201 27.194 -0.27 C28.904 -0.279 30.614 -0.287 32.324 -0.293 C33.205 -0.308 34.087 -0.324 34.995 -0.339 C39.813 -0.342 43.112 -0.191 47 3 C48.59 6.18 48.184 9.62 48.203 13.113 C48.209 13.92 48.215 14.726 48.22 15.557 C48.23 17.266 48.236 18.975 48.24 20.684 C48.25 23.292 48.281 25.899 48.312 28.506 C48.319 30.167 48.324 31.827 48.328 33.488 C48.34 34.266 48.353 35.043 48.366 35.844 C48.347 40.391 47.924 43.439 45 47 C42.244 47.919 40.64 48.122 37.804 48.114 C36.952 48.113 36.099 48.113 35.221 48.113 C34.775 48.111 34.775 48.111 32.52 48.098 C31.697 48.097 30.874 48.096 30.027 48.095 C26.955 48.089 23.884 48.075 20.812 48.062 C13.944 48.042 7.076 48.021 0 48 C0 32.16 0 16.32 0 0 Z " fill="#E3F3FC" transform="translate(400,392)"/>
<path d="M0 0 C3.413 -0.031 3.413 -0.031 20.688 -0.188 C21.761 -0.201 21.761 -0.201 27.194 -0.27 C28.904 -0.279 30.614 -0.287 32.324 -0.293 C33.205 -0.308 34.087 -0.324 34.995 -0.339 C39.813 -0.342 43.112 -0.191 47 3 C48.59 6.18 48.184 9.62 48.203 13.113 C48.209 13.92 48.215 14.726 48.22 15.557 C48.23 17.266 48.236 18.975 48.24 20.684 C48.25 23.292 48.281 25.899 48.312 28.506 C48.319 30.167 48.324 31.827 48.328 33.488 C48.34 34.266 48.353 35.043 48.366 35.844 C48.347 40.391 47.924 43.439 45 47 C42.244 47.919 40.64 48.122 37.804 48.114 C36.952 48.113 36.099 48.113 35.221 48.113 C34.775 48.111 34.775 48.111 32.52 48.098 C31.697 48.097 30.874 48.096 30.027 48.095 C26.955 48.089 23.884 48.075 20.812 48.062 C13.944 48.042 7.076 48.021 0 48 C0 32.16 0 16.32 0 0 Z " fill="#E3F3FC" transform="translate(400,296)"/>
<path d="M0 0 C3.413 -0.031 3.413 -0.031 20.688 -0.188 C21.761 -0.201 21.761 -0.201 27.194 -0.27 C28.904 -0.279 30.614 -0.287 32.324 -0.293 C33.205 -0.308 34.087 -0.324 34.995 -0.339 C39.813 -0.342 43.112 -0.191 47 3 C48.59 6.18 48.184 9.62 48.203 13.113 C48.209 13.92 48.215 14.726 48.22 15.557 C48.23 17.266 48.236 18.975 48.24 20.684 C48.25 23.292 48.281 25.899 48.312 28.506 C48.319 30.167 48.324 31.827 48.328 33.488 C48.34 34.266 48.353 35.043 48.366 35.844 C48.347 40.391 47.924 43.439 45 47 C42.244 47.919 40.64 48.122 37.804 48.114 C36.952 48.113 36.099 48.113 35.221 48.113 C34.775 48.111 34.775 48.111 32.52 48.098 C31.697 48.097 30.874 48.096 30.027 48.095 C26.955 48.089 23.884 48.075 20.812 48.062 C13.944 48.042 7.076 48.021 0 48 C0 32.16 0 16.32 0 0 Z " fill="#E3F3FC" transform="translate(400,200)"/>
<path d="M0 0 C5.28 0 10.56 0 16 0 C16 39.6 16 79.2 16 120 C10.72 120 5.44 120 0 120 C0 80.4 0 40.8 0 0 Z " fill="#C9DFEB" transform="translate(248,368)"/>
<path d="M0 0 C4.148 0.864 5.605 2.142 8 5.625 C8.38 8.542 8.065 10.886 7 13.625 C4.875 15.688 4.875 15.688 2 16.625 C-1.777 16.56 -4.049 16.453 -6.938 13.938 C-8.361 10.839 -8.552 9.003 -8 5.625 C-5.544 2.302 -4.074 0.849 0 0 Z " fill="#CADFEB" transform="translate(288,419.375)"/>
<path d="M0 0 C4.148 0.864 5.605 2.142 8 5.625 C8.38 8.542 8.065 10.886 7 13.625 C4.875 15.688 4.875 15.688 2 16.625 C-1.777 16.56 -4.049 16.453 -6.938 13.938 C-8.361 10.839 -8.552 9.003 -8 5.625 C-5.544 2.302 -4.074 0.849 0 0 Z " fill="#CADFEB" transform="translate(224,419.375)"/>
</svg>
