<?xml version="1.0" encoding="UTF-8"?>
<!-- Generator: visioncortex VTracer 0.6.12 -->
<svg version="1.1" xmlns="http://www.w3.org/2000/svg" width="512" height="512">
<path d="M0 0 C1.82 0.672 3.641 1.342 5.462 2.01 C9.424 3.463 13.383 4.926 17.34 6.392 C27.64 10.195 37.992 13.852 48.336 17.53 C53.115 19.232 57.892 20.941 62.669 22.65 C71.41 25.777 80.153 28.898 88.908 31.984 C92.558 33.271 96.206 34.565 99.853 35.858 C101.513 36.445 103.173 37.029 104.835 37.61 C107.093 38.399 109.348 39.198 111.602 40 C111.924 40.111 111.924 40.111 113.554 40.673 C120.373 43.123 125.363 46.227 128.75 52.75 C130.074 59.101 129.421 63.232 127.188 69.25 C126.919 70.025 126.65 70.801 126.373 71.6 C125.006 75.498 123.529 79.326 121.906 83.125 C121.618 83.82 121.33 84.516 121.033 85.232 C120.489 86.532 119.918 87.821 119.316 89.096 C117.668 93.036 117.741 95.475 119.044 99.384 C120.638 104.367 121.977 109.371 123.23 114.449 C123.448 115.329 123.666 116.208 123.89 117.114 C124.345 118.954 124.797 120.796 125.249 122.637 C125.939 125.443 126.64 128.246 127.342 131.049 C127.785 132.849 128.227 134.649 128.668 136.449 C128.773 136.864 128.773 136.864 129.302 138.962 C131.644 148.647 130.222 155.181 126.719 164.391 C126.508 164.959 126.508 164.959 125.439 167.838 C124.292 170.92 123.135 173.999 121.974 177.077 C120.753 180.321 119.545 183.569 118.335 186.818 C116.386 192.049 114.43 197.278 112.468 202.504 C110.168 208.633 107.879 214.766 105.602 220.902 C104.975 222.591 104.348 224.28 103.72 225.969 C103.416 226.788 103.112 227.607 102.799 228.451 C101.206 232.737 99.609 237.021 98.012 241.305 C92.889 255.052 87.789 268.807 82.688 282.562 C82.197 283.885 81.706 285.208 81.216 286.53 C79.229 291.887 77.242 297.244 75.256 302.601 C72.037 311.28 68.818 319.959 65.597 328.637 C63.419 334.508 61.241 340.379 59.062 346.25 C58.824 346.893 58.585 347.537 58.339 348.2 C52.639 363.563 46.941 378.928 41.254 394.297 C39.192 399.869 37.128 405.441 35.062 411.011 C34.255 413.187 33.448 415.363 32.641 417.539 C32.243 418.611 31.846 419.683 31.436 420.787 C28.864 427.727 26.308 434.672 23.762 441.621 C22.016 446.38 20.263 451.137 18.508 455.892 C17.677 458.151 16.85 460.41 16.026 462.671 C14.89 465.785 13.743 468.895 12.594 472.004 C12.262 472.922 11.931 473.84 11.59 474.786 C9.45 480.525 7.326 484.928 2.188 488.562 C-6.621 491.606 -14.829 489.4 -23.273 486.262 C-24.311 485.892 -25.349 485.522 -26.419 485.141 C-29.827 483.923 -33.226 482.68 -36.625 481.438 C-39.039 480.569 -41.454 479.703 -43.87 478.838 C-48.871 477.043 -53.869 475.24 -58.863 473.427 C-65.777 470.918 -72.699 468.435 -79.625 465.961 C-88.343 462.845 -97.058 459.722 -105.77 456.59 C-118.742 451.928 -131.724 447.293 -144.707 442.661 C-163.497 435.958 -182.28 429.236 -201.037 422.442 C-201.721 422.194 -202.404 421.947 -203.109 421.692 C-204.904 421.042 -206.699 420.391 -208.493 419.74 C-212.951 418.139 -214.54 417.6 -218.934 419.402 C-219.856 419.767 -220.778 420.133 -221.729 420.509 C-222.217 420.703 -222.217 420.703 -224.688 421.688 C-233.956 425.209 -242.046 428.232 -251.688 424.375 C-259.139 416.742 -261.806 404.913 -265.177 395.029 C-266.829 390.187 -268.504 385.354 -270.176 380.52 C-270.518 379.527 -270.86 378.535 -271.213 377.513 C-274.511 367.963 -277.901 358.447 -281.312 348.938 C-282.554 345.473 -283.795 342.008 -285.035 338.543 C-285.198 338.089 -285.198 338.089 -286.02 335.791 C-290.549 323.131 -295.036 310.456 -299.529 297.783 C-305.917 279.765 -312.311 261.749 -318.75 243.75 C-323.026 231.797 -327.287 219.839 -331.531 207.875 C-331.763 207.221 -331.995 206.567 -332.234 205.893 C-334.62 199.169 -337.004 192.444 -339.388 185.719 C-343.87 173.072 -348.358 160.427 -352.887 147.797 C-353.238 146.816 -353.59 145.835 -353.952 144.824 C-355.555 140.351 -357.161 135.88 -358.771 131.41 C-367.504 107.125 -367.504 107.125 -364.25 98.75 C-358.131 90.472 -346.268 87.762 -336.949 84.34 C-335.529 83.814 -334.109 83.289 -332.689 82.762 C-329.672 81.645 -326.655 80.531 -323.636 79.419 C-318.91 77.678 -314.187 75.931 -309.464 74.183 C-304.681 72.413 -299.898 70.644 -295.114 68.876 C-281.781 63.95 -268.458 58.997 -255.14 54.03 C-251.939 52.836 -248.739 51.644 -245.538 50.451 C-238.201 47.717 -238.201 47.717 -234.729 46.422 C-233.977 46.143 -233.226 45.863 -232.452 45.575 C-230.965 45.018 -229.481 44.453 -227.999 43.88 C-220.828 41.121 -214.09 40.214 -206.812 43.125 C-199.36 50.759 -196.692 62.591 -193.321 72.476 C-191.678 77.294 -190.011 82.103 -188.348 86.914 C-188.007 87.903 -187.665 88.892 -187.314 89.91 C-183.884 99.841 -180.358 109.736 -176.812 119.625 C-176.198 121.34 -175.584 123.055 -174.97 124.771 C-174.036 127.379 -173.102 129.987 -172.167 132.595 C-168.302 143.39 -164.464 154.195 -160.625 165 C-159.32 168.672 -158.016 172.344 -156.711 176.016 C-156.411 176.86 -156.111 177.705 -155.801 178.576 C-153.292 185.636 -150.774 192.694 -148.25 199.75 C-140.703 179.699 -133.19 159.635 -125.752 139.543 C-124.041 134.923 -122.322 130.306 -120.596 125.691 C-116.707 115.271 -112.903 104.847 -109.426 94.281 C-108.554 91.699 -107.679 89.118 -106.801 86.537 C-106.033 84.225 -105.325 81.901 -104.617 79.57 C-100.974 68.445 -94.826 63.174 -85.096 56.938 C-82.774 55.443 -80.549 53.83 -78.32 52.199 C-77.007 51.276 -75.692 50.355 -74.375 49.438 C-73.672 48.945 -72.968 48.452 -72.243 47.944 C-70.869 46.981 -69.493 46.018 -68.117 45.057 C-66.439 43.882 -64.768 42.698 -63.098 41.512 C-62.22 40.889 -61.342 40.266 -60.438 39.625 C-59.709 39.107 -58.981 38.589 -58.23 38.055 C-56.25 36.75 -56.25 36.75 -54.306 36.105 C-51.217 34.069 -50.524 31.126 -49.375 27.766 C-49.124 27.072 -48.873 26.379 -48.614 25.665 C-47.812 23.448 -47.03 21.225 -46.25 19 C-45.468 16.79 -44.682 14.583 -43.886 12.378 C-43.392 11.007 -42.906 9.634 -42.43 8.257 C-40.529 2.951 -38.323 -1.695 -33.75 -5.125 C-21.773 -8.975 -11.136 -4.215 0 0 Z " fill="#F86363" transform="translate(373.25,14.25)"/>
<path d="M0 0 C7.452 7.634 10.12 19.466 13.491 29.351 C15.135 34.169 16.802 38.978 18.465 43.789 C18.806 44.778 19.147 45.767 19.498 46.785 C22.928 56.716 26.455 66.61 30 76.5 C30.62 78.233 31.24 79.965 31.86 81.698 C33.117 85.209 34.374 88.721 35.631 92.231 C38.99 101.61 42.344 110.991 45.688 120.375 C46.025 121.322 46.363 122.269 46.71 123.245 C51.194 135.84 55.581 148.464 59.875 161.125 C65.659 178.174 71.723 195.118 77.82 212.057 C84.589 230.87 91.276 249.711 97.938 268.562 C98.187 269.268 98.436 269.974 98.693 270.702 C99.432 272.792 100.171 274.883 100.91 276.974 C101.029 277.311 101.029 277.311 101.632 279.017 C102.746 282.172 103.861 285.327 104.974 288.482 C105.374 289.613 105.773 290.744 106.185 291.91 C106.571 293.007 106.958 294.103 107.356 295.233 C108.21 297.633 109.074 300.027 109.953 302.418 C110.183 303.047 110.412 303.676 110.649 304.323 C111.288 306.073 111.933 307.821 112.578 309.569 C114.222 314.674 114.674 318.775 112.711 323.809 C108.418 331.767 99.906 334.025 91.793 336.961 C90.943 337.273 90.093 337.585 89.217 337.907 C87.367 338.585 85.517 339.262 83.666 339.937 C79.649 341.401 75.637 342.877 71.624 344.352 C69.451 345.151 67.278 345.95 65.104 346.747 C52.29 351.454 39.492 356.205 26.698 360.968 C23.435 362.183 20.171 363.395 16.906 364.605 C13.847 365.741 10.789 366.881 7.73 368.02 C6.632 368.426 5.534 368.833 4.403 369.252 C-1.647 371.51 -7.564 373.945 -13.438 376.625 C-31.33 384.402 -31.33 384.402 -41.438 382.625 C-47.931 380.028 -49.796 374.712 -52.438 368.625 C-54.564 363.106 -56.456 357.501 -58.365 351.904 C-60.016 347.062 -61.692 342.229 -63.363 337.395 C-63.706 336.402 -64.048 335.41 -64.401 334.388 C-67.699 324.838 -71.089 315.322 -74.5 305.812 C-75.742 302.348 -76.982 298.883 -78.223 295.418 C-78.385 294.964 -78.385 294.964 -79.208 292.666 C-83.737 280.006 -88.224 267.331 -92.717 254.658 C-99.105 236.64 -105.498 218.624 -111.938 200.625 C-116.214 188.672 -120.474 176.714 -124.719 164.75 C-124.951 164.096 -125.183 163.442 -125.422 162.768 C-127.807 156.044 -130.192 149.319 -132.575 142.594 C-137.058 129.947 -141.545 117.302 -146.074 104.672 C-146.426 103.691 -146.777 102.71 -147.14 101.699 C-148.743 97.226 -150.348 92.755 -151.959 88.285 C-160.692 64 -160.692 64 -157.438 55.625 C-151.319 47.347 -139.456 44.637 -130.137 41.215 C-128.717 40.689 -127.297 40.164 -125.877 39.637 C-122.86 38.52 -119.842 37.406 -116.823 36.294 C-112.098 34.553 -107.375 32.806 -102.652 31.058 C-97.869 29.288 -93.085 27.519 -88.301 25.751 C-74.968 20.825 -61.645 15.872 -48.327 10.905 C-45.127 9.711 -41.926 8.519 -38.725 7.326 C-31.388 4.592 -31.388 4.592 -27.917 3.297 C-27.165 3.018 -26.413 2.738 -25.639 2.45 C-24.152 1.893 -22.668 1.328 -21.187 0.755 C-14.015 -2.004 -7.277 -2.911 0 0 Z " fill="#85B17B" transform="translate(166.4375,57.375)"/>
<path d="M0 0 C1.82 0.672 3.641 1.342 5.462 2.01 C9.424 3.463 13.383 4.926 17.34 6.392 C27.64 10.195 37.992 13.852 48.336 17.53 C53.115 19.232 57.892 20.941 62.669 22.65 C71.41 25.777 80.153 28.898 88.908 31.984 C92.558 33.271 96.206 34.565 99.853 35.858 C101.513 36.445 103.173 37.029 104.835 37.61 C107.093 38.399 109.348 39.198 111.602 40 C111.924 40.111 111.924 40.111 113.554 40.673 C120.373 43.123 125.363 46.227 128.75 52.75 C130.053 59.046 129.462 63.158 127.25 69.125 C127.114 69.511 127.114 69.511 126.426 71.463 C125.557 73.901 124.659 76.327 123.75 78.75 C123.602 79.144 123.602 79.144 122.855 81.141 C120.183 88.222 117.389 95.242 114.441 102.212 C111.741 108.688 109.287 115.239 106.879 121.828 C106.199 123.679 105.519 125.529 104.839 127.379 C103.898 129.94 102.96 132.502 102.022 135.064 C99.936 140.758 97.844 146.449 95.754 152.141 C95.534 152.74 95.534 152.74 94.421 155.773 C91.236 164.446 88.018 173.107 84.75 181.75 C76.68 182.322 70.408 180.339 62.875 177.562 C62.312 177.369 62.312 177.369 59.461 176.389 C58.383 175.999 57.306 175.609 56.195 175.207 C55.708 175.032 55.708 175.032 53.243 174.144 C50.209 172.448 49.281 170.828 47.75 167.75 C37.532 148.832 24.211 137.231 3.75 130.75 C2.764 130.432 1.778 130.113 0.762 129.785 C-6.957 127.567 -14.26 127.365 -22.25 127.75 C-22.657 127.765 -22.657 127.765 -24.715 127.844 C-32.334 128.395 -39.886 130.909 -46.562 134.562 C-53.121 137.461 -61.082 133.246 -67.375 130.938 C-68.351 130.594 -69.327 130.25 -70.332 129.896 C-75.282 128.097 -79.371 126.454 -83.25 122.75 C-81.907 115.981 -79.935 109.758 -77.469 103.32 C-77.099 102.34 -76.729 101.36 -76.348 100.35 C-75.56 98.265 -74.77 96.181 -73.977 94.097 C-72.739 90.846 -71.509 87.592 -70.28 84.337 C-68.666 80.063 -67.05 75.789 -65.432 71.516 C-62.766 64.477 -60.12 57.431 -57.5 50.375 C-57.11 49.326 -56.72 48.277 -56.319 47.196 C-54.134 41.271 -52.077 35.318 -50.125 29.312 C-47.993 22.783 -45.67 16.342 -43.188 9.938 C-42.871 9.095 -42.554 8.252 -42.228 7.383 C-40.049 1.876 -37.674 -2.207 -32.413 -5.346 C-21.839 -9.766 -9.891 -3.744 0 0 Z " fill="#699B5D" transform="translate(373.25,14.25)"/>
<path d="M0 0 C-0.653 5.702 -2.612 10.711 -4.648 16.031 C-4.833 16.52 -4.833 16.52 -5.766 18.992 C-6.964 22.163 -8.17 25.332 -9.375 28.5 C-10.608 31.759 -11.839 35.019 -13.069 38.279 C-13.887 40.445 -14.705 42.612 -15.524 44.778 C-18.945 53.832 -22.306 62.908 -25.625 72 C-25.856 72.633 -26.088 73.266 -26.326 73.918 C-27.553 77.278 -28.778 80.638 -30 84 C-30.99 84 -31.98 84 -33 84 C-33.33 82.845 -33.33 82.845 -35 77 C-54.577 106.366 -60.223 149.844 -60.25 184.125 C-60.251 184.912 -60.251 185.7 -60.252 186.511 C-60.193 230.518 -46.241 269.502 -31.197 310.269 C-23.304 331.672 -23.304 331.672 -25.668 339.098 C-28.76 345.247 -34.013 347.38 -39.965 350.359 C-46.55 353.919 -49.827 359.966 -52 367 C-53.155 374.316 -51.561 382.064 -47.523 388.27 C-40.698 396.669 -30.555 399.406 -20.668 402.965 C-19.361 403.439 -18.053 403.915 -16.746 404.39 C-13.986 405.393 -11.224 406.394 -8.462 407.392 C-4.174 408.942 0.112 410.497 4.397 412.055 C5.104 412.312 5.811 412.569 6.54 412.834 C7.962 413.351 9.384 413.868 10.807 414.385 C12.924 415.154 15.042 415.923 17.16 416.692 C28.27 420.727 39.362 424.809 50.438 428.938 C51.164 429.208 51.89 429.479 52.638 429.757 C56.426 431.169 60.214 432.583 64 434 C63.047 441.104 61.733 446.4 56.438 451.438 C51.244 454.767 45.976 454.49 40 454 C36.203 453.142 32.622 451.866 28.977 450.512 C27.939 450.142 26.901 449.772 25.831 449.391 C22.423 448.173 19.024 446.93 15.625 445.688 C13.211 444.819 10.796 443.953 8.38 443.088 C3.379 441.293 -1.619 439.49 -6.613 437.677 C-13.527 435.168 -20.449 432.685 -27.375 430.211 C-36.093 427.095 -44.808 423.972 -53.52 420.84 C-66.492 416.178 -79.474 411.543 -92.457 406.911 C-109.771 400.734 -127.082 394.549 -144.375 388.312 C-144.754 388.176 -144.754 388.176 -146.672 387.485 C-148.748 386.738 -150.823 385.988 -152.898 385.238 C-154.04 384.826 -155.181 384.414 -156.357 383.99 C-159 383 -159 383 -161 382 C-161 381.34 -161 380.68 -161 380 C-146.618 374.515 -132.224 369.066 -117.791 363.718 C-115.666 362.93 -113.542 362.14 -111.418 361.349 C-103.482 358.396 -95.539 355.463 -87.586 352.558 C-83.184 350.948 -78.786 349.325 -74.389 347.701 C-72.225 346.905 -70.059 346.113 -67.891 345.327 C-64.842 344.22 -61.799 343.096 -58.758 341.969 C-58.301 341.805 -58.301 341.805 -55.991 340.979 C-50.273 338.833 -46.081 336.583 -42.895 331.098 C-39.796 323.835 -42.933 316.122 -45.488 309.172 C-45.858 308.131 -46.228 307.089 -46.609 306.016 C-47.83 302.589 -49.071 299.17 -50.312 295.75 C-51.177 293.335 -52.041 290.919 -52.904 288.502 C-54.696 283.488 -56.497 278.476 -58.306 273.467 C-60.86 266.393 -63.397 259.313 -65.93 252.23 C-66.728 250.001 -67.526 247.771 -68.324 245.541 C-69.505 242.243 -70.685 238.946 -71.863 235.648 C-75.735 224.814 -79.62 213.988 -83.627 203.204 C-85.171 199.042 -86.698 194.875 -88.223 190.706 C-88.941 188.759 -89.666 186.815 -90.401 184.875 C-91.41 182.21 -92.389 179.537 -93.363 176.859 C-93.513 176.475 -93.513 176.475 -94.272 174.528 C-97.779 164.662 -92.993 155.781 -89.477 146.457 C-88.78 144.589 -88.084 142.72 -87.388 140.852 C-86.394 138.189 -85.395 135.527 -84.395 132.866 C-83.101 129.414 -81.812 125.96 -80.524 122.506 C-78.935 118.248 -77.346 113.991 -75.754 109.734 C-72.215 100.27 -68.7 90.797 -65.203 81.316 C-64.749 80.085 -64.294 78.854 -63.826 77.585 C-62.087 72.873 -60.348 68.161 -58.613 63.447 C-56.395 57.422 -54.159 51.405 -51.893 45.398 C-51.112 43.302 -50.364 41.199 -49.629 39.087 C-47.041 32.071 -44.126 28.527 -37.812 24.562 C-36.206 23.481 -34.601 22.399 -32.996 21.316 C-32.174 20.775 -31.351 20.234 -30.503 19.676 C-26.37 16.909 -22.383 13.945 -18.375 11 C-3.352 0 -3.352 0 0 0 Z " fill="#DB4040" transform="translate(321,50)"/>
<path d="M0 0 C2.182 3.273 3.355 6.541 4.617 10.227 C4.744 10.59 4.744 10.59 5.384 12.43 C5.931 14.004 6.477 15.578 7.021 17.152 C8.476 21.364 9.945 25.571 11.414 29.777 C11.714 30.636 12.013 31.494 12.322 32.379 C15.224 40.676 18.226 48.934 21.25 57.188 C25.126 67.777 28.901 78.395 32.548 89.065 C34.705 95.349 36.935 101.602 39.223 107.84 C39.499 108.595 39.776 109.35 40.061 110.128 C41.431 113.864 42.807 117.596 44.191 121.326 C44.692 122.685 45.192 124.044 45.691 125.402 C46.137 126.604 46.582 127.805 47.041 129.043 C48 132 48 132 48 135 C22.558 144.554 -2.885 154.109 -28.369 163.552 C-35.885 166.34 -43.396 169.136 -50.871 172.031 C-52.005 172.468 -53.139 172.904 -54.307 173.353 C-56.31 174.127 -58.311 174.91 -60.307 175.703 C-61.153 176.029 -61.999 176.355 -62.871 176.691 C-63.227 176.832 -63.227 176.832 -65.025 177.541 C-67.472 178.11 -68.67 177.937 -71 177 C-72.101 175.112 -72.101 175.112 -72.96 172.596 C-73.292 171.649 -73.625 170.702 -73.967 169.726 C-74.314 168.683 -74.662 167.641 -75.02 166.566 C-75.395 165.483 -75.77 164.4 -76.157 163.284 C-77.39 159.715 -78.601 156.139 -79.812 152.562 C-80.664 150.09 -81.517 147.617 -82.371 145.146 C-83.671 141.387 -84.969 137.627 -86.26 133.865 C-89.771 123.633 -93.367 113.433 -97.018 103.251 C-97.933 100.701 -98.844 98.15 -99.756 95.599 C-102.661 87.472 -105.593 79.355 -108.559 71.25 C-108.842 70.475 -109.125 69.7 -109.417 68.902 C-110.742 65.277 -112.072 61.653 -113.41 58.032 C-113.875 56.765 -114.34 55.498 -114.805 54.23 C-115.207 53.141 -115.609 52.052 -116.023 50.93 C-116.904 48.287 -117.529 45.742 -118 43 C-117.722 43.351 -117.722 43.351 -116.312 45.125 C-115.549 46.074 -114.786 47.022 -114 48 C-113.251 48.955 -112.502 49.91 -111.73 50.895 C-103.399 60.843 -89.722 67.418 -77 69 C-55.566 70.606 -37.128 65.745 -20.562 51.625 C-5.543 37.271 -0.73 20.075 0 0 Z " fill="#699B5D" transform="translate(206,235)"/>
<path d="M0 0 C0.245 0.721 0.491 1.443 0.743 2.186 C5.728 16.815 10.832 31.385 16.196 45.88 C19.995 56.156 23.609 66.488 27.147 76.857 C30.915 87.855 34.88 98.776 38.89 109.687 C41.107 115.723 43.305 121.766 45.414 127.84 C45.746 128.791 46.078 129.742 46.42 130.722 C47 133 47 133 46 135 C45.599 134.443 45.198 133.886 44.785 133.312 C37.91 124.083 30.637 117.527 20 113 C19.286 112.692 18.572 112.384 17.836 112.066 C3.216 106.168 -16.3 107.494 -30.59 113.512 C-37.743 116.816 -44.114 120.765 -50 126 C-50.674 126.57 -51.348 127.14 -52.043 127.727 C-63.914 138.518 -69.94 154.02 -70.75 169.75 C-70.861 172.501 -70.939 175.248 -71 178 C-73.139 174.097 -74.522 169.92 -75.992 165.734 C-76.29 164.893 -76.588 164.052 -76.895 163.186 C-77.547 161.346 -78.197 159.506 -78.846 157.666 C-80.256 153.67 -81.672 149.675 -83.088 145.681 C-83.849 143.533 -84.61 141.384 -85.371 139.236 C-89.609 127.271 -93.876 115.316 -98.147 103.363 C-99.401 99.852 -100.654 96.342 -101.908 92.831 C-102.708 90.59 -103.508 88.35 -104.309 86.109 C-104.695 85.027 -105.081 83.945 -105.479 82.829 C-107.491 77.196 -109.517 71.568 -111.563 65.947 C-111.978 64.805 -112.392 63.663 -112.82 62.486 C-113.61 60.312 -114.403 58.139 -115.199 55.967 C-115.552 54.993 -115.906 54.02 -116.27 53.017 C-116.581 52.166 -116.892 51.315 -117.212 50.438 C-118.008 47.974 -118.544 45.547 -119 43 C-108.067 38.642 -97.138 34.312 -86 30.5 C-78.754 28.019 -71.619 25.324 -64.5 22.5 C-56.728 19.418 -48.928 16.519 -41.016 13.82 C-35.786 12.019 -30.607 10.106 -25.445 8.121 C-24.79 7.869 -24.134 7.618 -23.459 7.359 C-20.184 6.1 -16.913 4.833 -13.646 3.555 C-12.453 3.095 -11.26 2.634 -10.031 2.16 C-9.498 1.952 -9.498 1.952 -6.799 0.899 C-4 0 -4 0 0 0 Z " fill="#699B5D" transform="translate(153,83)"/>
<path d="M0 0 C0.804 -0.012 1.607 -0.024 2.436 -0.037 C16.553 -0.071 30.205 4.652 40.688 14.188 C41.313 14.733 41.938 15.278 42.582 15.84 C51.77 24.348 56.754 35.646 58.105 48.012 C58.736 65.408 52.557 79.402 41.25 92.5 C29.657 104.832 12.843 113.611 -4.219 114.531 C-22.014 115.052 -37.187 111.076 -51.059 99.387 C-61.847 88.86 -66.432 75.653 -66.688 60.875 C-66.653 43.02 -57.639 29.514 -45.379 17.254 C-32.711 5.428 -17.089 0.014 0 0 Z " fill="#F7C35F" transform="translate(148.3125,190.8125)"/>
<path d="M0 0 C1.82 0.672 3.641 1.342 5.462 2.01 C9.424 3.463 13.383 4.926 17.34 6.392 C27.64 10.195 37.992 13.852 48.336 17.53 C53.115 19.232 57.892 20.941 62.669 22.65 C71.41 25.777 80.153 28.898 88.908 31.984 C92.558 33.271 96.206 34.565 99.853 35.858 C101.513 36.445 103.173 37.029 104.835 37.61 C107.093 38.399 109.348 39.198 111.602 40 C111.924 40.111 111.924 40.111 113.554 40.673 C120.373 43.123 125.363 46.227 128.75 52.75 C130.053 59.046 129.462 63.158 127.25 69.125 C127.114 69.511 127.114 69.511 126.426 71.463 C125.557 73.901 124.659 76.327 123.75 78.75 C123.602 79.144 123.602 79.144 122.855 81.141 C120.183 88.222 117.389 95.242 114.441 102.212 C111.741 108.688 109.287 115.239 106.879 121.828 C106.199 123.679 105.519 125.529 104.839 127.379 C103.898 129.94 102.96 132.502 102.022 135.064 C99.936 140.758 97.844 146.449 95.754 152.141 C95.534 152.74 95.534 152.74 94.421 155.773 C91.236 164.446 88.018 173.107 84.75 181.75 C76.476 182.463 69.177 180.371 61.75 176.75 C60.412 172.735 61.458 171.163 62.941 167.219 C63.194 166.54 63.446 165.861 63.706 165.161 C64.566 162.854 65.44 160.552 66.312 158.25 C66.929 156.605 67.544 154.959 68.158 153.312 C69.547 149.595 70.942 145.879 72.34 142.164 C75.538 133.662 78.709 125.149 81.881 116.637 C82.003 116.309 82.003 116.309 82.621 114.652 C83.114 113.328 83.608 112.003 84.102 110.679 C85.561 106.765 87.022 102.851 88.485 98.939 C89.189 97.055 89.892 95.172 90.596 93.289 C91.459 90.979 92.322 88.67 93.187 86.361 C96.116 78.516 98.952 70.642 101.75 62.75 C100.508 62.504 99.265 62.258 97.985 62.005 C92.145 60.702 86.61 58.71 80.992 56.672 C79.867 56.268 78.742 55.865 77.582 55.449 C73.928 54.138 70.276 52.819 66.625 51.5 C64.098 50.591 61.57 49.683 59.042 48.775 C53.984 46.957 48.926 45.136 43.869 43.313 C37.589 41.05 31.303 38.801 25.016 36.559 C22.435 35.637 19.854 34.715 17.273 33.793 C15.708 33.235 14.144 32.677 12.58 32.12 C1.557 28.193 -9.363 24.038 -20.25 19.75 C-20.379 20.311 -20.379 20.311 -21.034 23.149 C-22.255 28.021 -23.945 32.665 -25.707 37.363 C-26.046 38.278 -26.386 39.194 -26.735 40.136 C-27.84 43.113 -28.951 46.088 -30.062 49.062 C-30.832 51.133 -31.602 53.203 -32.371 55.273 C-33.923 59.449 -35.477 63.624 -37.033 67.799 C-39.024 73.139 -41.006 78.483 -42.984 83.828 C-47.616 96.338 -52.258 108.844 -57 121.312 C-57.324 122.164 -57.647 123.016 -57.981 123.893 C-60.121 129.493 -60.121 129.493 -61.25 131.75 C-69.15 130.331 -77.067 128.127 -83.25 122.75 C-81.907 115.981 -79.935 109.758 -77.469 103.32 C-77.099 102.34 -76.729 101.36 -76.348 100.35 C-75.56 98.265 -74.77 96.181 -73.977 94.097 C-72.739 90.846 -71.509 87.592 -70.28 84.337 C-68.666 80.063 -67.05 75.789 -65.432 71.516 C-62.766 64.477 -60.12 57.431 -57.5 50.375 C-57.11 49.326 -56.72 48.277 -56.319 47.196 C-54.134 41.271 -52.077 35.318 -50.125 29.312 C-47.993 22.783 -45.67 16.342 -43.188 9.938 C-42.871 9.095 -42.554 8.252 -42.228 7.383 C-40.049 1.876 -37.674 -2.207 -32.413 -5.346 C-21.839 -9.766 -9.891 -3.744 0 0 Z " fill="#85B17B" transform="translate(373.25,14.25)"/>
<path d="M0 0 C18.411 -0.937 36.741 6.459 50.707 18.148 C58.681 25.365 66.615 34.541 69.051 45.27 C61.79 43.168 54.653 40.796 47.527 38.277 C46.439 37.895 45.35 37.512 44.229 37.117 C40.71 35.879 37.193 34.637 33.676 33.395 C31.253 32.541 28.83 31.687 26.408 30.833 C7.254 24.075 -11.865 17.223 -30.949 10.27 C-23.049 2.04 -10.772 0.984 0 0 Z " fill="#F6C260" transform="translate(353.94921875,140.73046875)"/>
<path d="M0 0 C0.66 0 1.32 0 2 0 C4.285 5.788 6.031 11.535 7.516 17.574 C7.736 18.461 7.956 19.348 8.183 20.262 C8.642 22.122 9.099 23.984 9.554 25.846 C10.251 28.693 10.965 31.535 11.68 34.377 C12.126 36.192 12.571 38.008 13.016 39.824 C13.23 40.67 13.445 41.516 13.666 42.388 C15.514 50.093 15.514 50.093 14 54 C12.688 55.479 12.688 55.479 11 56.691 C10.368 57.155 9.737 57.619 9.086 58.097 C8.742 58.339 8.742 58.339 7 59.562 C6.29 60.077 5.581 60.591 4.849 61.122 C2.577 62.763 0.289 64.382 -2 66 C-3.509 67.079 -5.019 68.158 -6.527 69.238 C-10.665 72.188 -14.825 75.103 -19 78 C-19.99 78.688 -20.98 79.377 -22 80.086 C-27.733 84 -27.733 84 -30 84 C-29.41 77.775 -27.507 72.38 -25.316 66.547 C-24.945 65.541 -24.573 64.535 -24.191 63.498 C-22.988 60.246 -21.775 56.998 -20.562 53.75 C-19.738 51.527 -18.914 49.304 -18.09 47.08 C-16.47 42.709 -14.847 38.339 -13.22 33.971 C-11.339 28.918 -9.473 23.859 -7.617 18.797 C-7.148 17.519 -6.678 16.24 -6.209 14.962 C-5.381 12.709 -4.555 10.456 -3.731 8.202 C-3.553 7.72 -3.553 7.72 -2.652 5.281 C-2.353 4.467 -2.054 3.653 -1.746 2.814 C-1 1 -1 1 0 0 Z " fill="#DA4140" transform="translate(489,111)"/>
<path d="M0 0 C4.987 2.493 8.497 5.994 11 11 C11.396 16.848 10.927 20.752 8 26 C3.923 29.97 0.215 31.799 -5.438 32.312 C-10.89 31.834 -14.293 30.062 -17.812 25.938 C-21.685 20.737 -21.631 16.37 -21 10 C-18.996 5.592 -16.414 2.925 -12.059 0.695 C-8.039 -0.662 -4.162 -0.681 0 0 Z " fill="#F5C35F" transform="translate(403,85)"/>
<path d="M0 0 C4.425 2.212 7.195 4.948 10 9 C11.692 14.075 11.564 18.32 9.375 23.188 C6.758 27.993 3.148 30.284 -2 32 C-7.446 32.641 -10.784 31.652 -15.199 28.617 C-19.277 24.956 -20.752 20.764 -21.5 15.438 C-20.69 9.87 -18.525 6.38 -14.375 2.625 C-9.682 -0.586 -5.593 -0.62 0 0 Z " fill="#F5C35F" transform="translate(114,134)"/>
<path d="M0 0 C4.806 2.02 7.614 4.658 10.105 9.234 C11.856 13.635 11.915 17.15 10.035 21.516 C7.466 26.02 4.766 29.197 -0.043 31.375 C-5.045 32.158 -8.832 31.958 -13.418 29.75 C-18.025 25.582 -20.689 21.386 -21.418 15.188 C-20.873 9.646 -18.672 5.604 -14.398 1.98 C-9.626 -1.069 -5.387 -1.648 0 0 Z " fill="#F5C35F" transform="translate(184.04296875,330.625)"/>
</svg>
