<?xml version="1.0" encoding="UTF-8"?>
<!-- Generator: visioncortex VTracer 0.6.12 -->
<svg version="1.1" xmlns="http://www.w3.org/2000/svg" width="512" height="512">
<path d="M0 0 C0.65 -0.006 0.65 -0.006 3.937 -0.038 C5.36 -0.031 6.784 -0.023 8.208 -0.014 C9.674 -0.016 11.141 -0.02 12.608 -0.025 C15.69 -0.031 18.771 -0.023 21.853 -0.004 C25.768 0.019 29.681 0.006 33.596 -0.018 C36.632 -0.033 39.667 -0.028 42.703 -0.018 C44.143 -0.015 45.584 -0.018 47.024 -0.028 C61.034 -0.099 72.033 2.13 82.715 11.518 C83.705 12.178 84.695 12.838 85.715 13.518 C85.88 12.816 86.045 12.115 86.215 11.393 C88.827 6.387 93.391 3.461 98.555 1.365 C106.592 -0.79 115.414 -0.632 122.825 3.334 C129.507 7.518 133.035 12.15 135.715 19.518 C137.084 26.463 136.868 33.463 136.891 40.518 C136.902 41.881 136.913 43.244 136.925 44.607 C136.977 50.367 137.026 56.125 137.041 61.885 C137.051 65.42 137.081 68.955 137.123 72.491 C137.141 74.477 137.138 76.464 137.135 78.451 C137.23 85.418 137.644 89.815 141.715 95.518 C142.81 100.947 142.404 106.07 139.715 110.955 C135.726 116.485 130.215 118.355 123.715 119.518 C123.496 120.545 123.277 121.572 123.051 122.631 C119.305 139.351 111.256 153.618 96.715 163.518 C94.735 164.178 92.755 164.838 90.715 165.518 C90.715 169.808 90.715 174.098 90.715 178.518 C91.226 178.502 91.226 178.502 93.813 178.424 C111.674 178.853 130.401 190.452 142.965 202.393 C153.329 213.284 159.992 226.661 163.989 241.068 C164.715 243.518 164.715 243.518 165.715 244.518 C167.91 244.264 170.098 243.94 172.278 243.58 C172.877 243.483 172.877 243.483 175.907 242.99 C176.834 242.834 177.76 242.678 178.715 242.518 C179.013 238.303 178.923 234.586 177.715 230.518 C175.2 228.182 172.645 226.763 169.629 225.135 C158.047 218.707 151.088 205.475 147.391 193.197 C146.574 189.958 146.018 186.843 145.715 183.518 C145.419 183.474 145.419 183.474 143.922 183.256 C137.186 182.058 134.085 179.908 130.11 174.221 C127.682 169.515 128.085 164.68 128.715 159.518 C131.135 154.5 134.715 151.018 139.715 148.518 C141.715 148.478 143.716 148.474 145.715 148.518 C145.694 147.217 145.673 145.917 145.652 144.577 C145.579 139.702 145.533 134.826 145.496 129.951 C145.476 127.85 145.448 125.749 145.414 123.649 C145.167 108.39 145.005 95.489 155.715 83.518 C156.478 82.651 157.242 81.785 158.028 80.893 C168.551 71.593 178.976 68.388 192.809 68.279 C193.792 68.271 194.775 68.263 195.788 68.255 C197.869 68.241 199.951 68.23 202.032 68.222 C204.14 68.211 206.248 68.191 208.356 68.161 C224.138 67.939 237.88 68.133 250.715 78.518 C251.329 78.996 251.943 79.474 252.575 79.967 C262.085 88.32 265.624 100.337 266.715 112.518 C266.992 118.786 266.907 125.058 266.84 131.33 C266.83 133.005 266.821 134.68 266.813 136.355 C266.791 140.41 266.757 144.464 266.715 148.518 C267.967 148.639 269.219 148.76 270.508 148.885 C275.17 149.336 277.485 151.062 280.715 154.518 C283.76 159.795 284.5 164.556 283.715 170.518 C281.639 176.516 277.722 180.014 272.09 182.83 C269.715 183.518 269.715 183.518 265.715 183.518 C265.701 184.1 265.687 184.683 265.672 185.283 C264.992 196.986 259.843 206.427 252.715 215.518 C251.957 216.518 251.199 217.518 250.418 218.549 C247.735 221.756 244.586 223.554 240.965 225.643 C237.365 227.885 235.023 229.58 233.649 233.764 C233.427 236.754 233.408 239.538 233.715 242.518 C234.109 242.561 234.109 242.561 236.102 242.779 C258.634 245.686 278.748 257.655 292.715 275.518 C301.373 287.807 305.945 300.502 308.59 315.268 C308.833 316.581 309.077 317.893 309.321 319.206 C309.991 322.835 310.641 326.467 311.285 330.101 C311.741 332.66 312.202 335.218 312.665 337.775 C313.492 342.364 314.307 346.955 315.112 351.547 C315.428 353.343 315.746 355.139 316.067 356.934 C319.937 378.682 319.937 378.682 318.715 384.518 C314.908 387.056 311.863 386.795 307.452 386.769 C307.024 386.771 307.024 386.771 304.856 386.778 C301.959 386.785 299.062 386.778 296.165 386.772 C294.077 386.774 291.99 386.777 289.902 386.781 C284.146 386.789 278.389 386.785 272.632 386.779 C266.432 386.775 260.231 386.781 254.031 386.787 C242.58 386.795 231.128 386.795 219.677 386.789 C209.099 386.784 198.521 386.783 187.943 386.785 C187.243 386.785 186.542 386.786 185.82 386.786 C182.975 386.786 180.13 386.787 177.285 386.788 C150.583 386.794 123.881 386.788 97.179 386.777 C73.44 386.768 49.702 386.769 25.963 386.778 C-0.689 386.789 -27.341 386.793 -53.994 386.787 C-56.833 386.786 -59.673 386.786 -62.513 386.785 C-62.862 386.785 -62.862 386.785 -64.632 386.785 C-75.204 386.782 -85.777 386.785 -96.35 386.79 C-108.368 386.796 -120.386 386.794 -132.405 386.784 C-138.542 386.778 -144.679 386.776 -150.815 386.783 C-156.426 386.789 -162.036 386.786 -167.647 386.775 C-169.684 386.773 -171.721 386.774 -173.758 386.779 C-176.513 386.785 -179.267 386.779 -182.022 386.769 C-182.423 386.772 -182.423 386.772 -184.455 386.783 C-188.269 386.757 -190.033 386.686 -193.285 384.518 C-193.554 381.541 -193.628 378.796 -193.558 375.822 C-193.547 374.935 -193.536 374.047 -193.524 373.133 C-193.357 363.59 -192.781 354.071 -192.113 344.552 C-191.908 341.624 -191.717 338.696 -191.527 335.768 C-189.678 308.069 -189.678 308.069 -185.535 296.33 C-185.272 295.569 -185.008 294.808 -184.737 294.023 C-180.962 283.438 -175.524 275.07 -168.285 266.518 C-167.827 265.914 -167.369 265.311 -166.898 264.689 C-155.754 250.366 -136.784 240.995 -119.285 237.518 C-116.39 237.424 -116.39 237.424 -114.285 237.518 C-114.013 227.165 -114.013 227.165 -116.886 223.443 C-118.966 221.721 -121.111 220.12 -123.285 218.518 C-132.056 210.547 -136.866 198.936 -139.285 187.518 C-139.285 186.198 -139.285 184.878 -139.285 183.518 C-140.316 183.435 -141.347 183.353 -142.41 183.268 C-147.908 182.203 -150.923 180.063 -154.597 175.893 C-157.468 170.15 -157.937 164.964 -156.285 158.768 C-153.847 154.806 -150.98 152.282 -147.285 149.518 C-147.945 148.548 -148.605 147.579 -149.285 146.58 C-151.744 142.165 -152.329 138.478 -151.285 133.518 C-149.194 128.461 -146.989 123.838 -142.613 120.447 C-138.955 115.844 -139.659 111.102 -139.722 105.393 C-139.825 92.142 -137.11 81.693 -128.285 71.518 C-117.61 61.13 -106.581 58.394 -92.093 58.279 C-91.112 58.271 -90.13 58.263 -89.118 58.255 C-87.043 58.241 -84.968 58.23 -82.893 58.222 C-80.792 58.211 -78.69 58.191 -76.589 58.161 C-58.597 57.908 -44.457 59.083 -30.597 71.705 C-20.311 82.518 -18.872 94.829 -19.158 109.029 C-19.081 114.54 -18.614 117.787 -14.886 121.986 C-14.272 122.579 -13.658 123.171 -13.025 123.781 C-9.192 127.605 -7.094 132.242 -6.847 137.643 C-7.298 141.636 -8.244 144.089 -10.285 147.518 C-10.615 148.178 -10.945 148.838 -11.285 149.518 C-10.73 149.953 -10.176 150.389 -9.605 150.838 C-2.033 157.062 -2.033 157.062 -1.285 162.518 C-1.233 168.871 -1.958 173.606 -6.285 178.518 C-10.523 182.003 -13.837 183.082 -19.285 183.518 C-19.347 184.734 -19.408 185.951 -19.472 187.205 C-20.712 198.004 -25.696 207.076 -32.285 215.518 C-32.965 216.446 -33.646 217.374 -34.347 218.33 C-36.285 220.518 -36.285 220.518 -39.472 222.58 C-41.9 224.464 -42.264 225.416 -42.89 228.502 C-43.134 231.517 -43.275 234.494 -43.285 237.518 C-40.975 237.848 -38.665 238.178 -36.285 238.518 C-36.161 237.886 -36.037 237.254 -35.91 236.604 C-31.717 218.418 -18.53 201.296 -2.925 191.287 C8.608 184.284 21.981 177.945 35.715 178.518 C35.715 174.228 35.715 169.938 35.715 165.518 C34.065 164.858 32.415 164.198 30.715 163.518 C17.387 155.076 7.728 142.067 4.032 126.67 C3.547 124.291 3.103 121.914 2.715 119.518 C2.075 119.394 1.434 119.27 0.774 119.143 C-6.343 117.446 -10.249 114.639 -14.285 108.518 C-16.159 102.894 -16.08 97.542 -13.535 92.143 C-11.89 89.193 -10.272 87.225 -7.285 85.518 C-7.609 84.353 -7.933 83.189 -8.268 81.989 C-9.276 77.936 -9.544 74.161 -9.559 69.972 C-9.564 69.265 -9.57 68.558 -9.575 67.83 C-9.589 65.523 -9.588 63.216 -9.585 60.908 C-9.589 59.293 -9.594 57.677 -9.598 56.061 C-9.606 52.689 -9.606 49.317 -9.6 45.945 C-9.595 41.625 -9.612 37.305 -9.635 32.986 C-9.649 29.655 -9.65 26.325 -9.647 22.995 C-9.648 21.402 -9.653 19.808 -9.663 18.215 C-9.675 15.992 -9.669 13.769 -9.657 11.546 C-9.658 10.282 -9.658 9.018 -9.659 7.716 C-8.887 1.119 -6.349 0.018 0 0 Z " fill="#312E3E" transform="translate(193.28466796875,62.482421875)"/>
<path d="M0 0 C0.33 0.165 0.33 0.165 2 1 C2.824 3.5 2.824 3.5 3.688 7 C4.036 8.375 4.386 9.75 4.738 11.125 C4.837 11.51 4.837 11.51 5.334 13.461 C6.61 18.327 8.004 23.16 9.375 28 C11.75 36.412 14.018 44.845 16.188 53.312 C18.159 60.996 20.274 68.544 23 76 C25.313 76.688 25.313 76.688 28 77 C31.033 74.766 31.733 72.285 32.684 68.73 C32.969 67.684 33.255 66.638 33.549 65.561 C33.695 65.004 33.695 65.004 34.438 62.188 C35.061 59.889 35.685 57.591 36.309 55.293 C36.604 54.193 36.899 53.092 37.203 51.958 C38.1 48.628 39.04 45.313 40 42 C42.194 34.364 44.322 26.709 46.451 19.055 C48.229 12.681 50.071 6.33 52 0 C60.114 6.329 65.773 13.784 68 24 C68 25.32 68 26.64 68 28 C67.385 28.219 66.77 28.438 66.137 28.664 C65.328 28.981 64.52 29.298 63.688 29.625 C62.887 29.927 62.086 30.228 61.262 30.539 C58.084 32.591 57.29 34.46 56 38 C55.63 40.766 55.624 43.463 55.688 46.25 C55.684 46.969 55.681 47.689 55.678 48.43 C55.732 53.732 55.732 53.732 58 56 C61.625 56.125 61.625 56.125 65 56 C65.061 54.784 65.121 53.569 65.184 52.316 C65.268 50.732 65.353 49.147 65.438 47.562 C65.477 46.76 65.516 45.958 65.557 45.131 C65.887 39.113 65.887 39.113 67 38 C69.332 37.901 71.666 37.87 74 37.875 C75.279 37.872 76.558 37.87 77.875 37.867 C81 38 81 38 82 39 C82.237 42.181 82.396 45.354 82.518 48.541 C82.787 53.787 82.787 53.787 85 56 C87.5 56.25 87.5 56.25 90 56 C92.984 53.016 92.368 49.744 92.375 45.75 C92.399 44.998 92.424 44.247 92.449 43.473 C92.477 38.23 91.633 35.047 88 31 C85.746 30.215 85.746 30.215 83.438 29.938 C81.039 29.277 81.039 29.277 79 28 C77.783 24.856 77.286 21.837 76.75 18.512 C75.748 13.819 73.662 10.224 71.207 6.145 C70 4 70 4 70 2 C87.419 6.645 100.998 19.812 110 35 C115.657 46.117 118.014 58.204 120.051 70.422 C120.14 70.947 120.14 70.947 120.594 73.605 C120.974 75.836 121.353 78.068 121.73 80.299 C122.718 86.15 123.722 91.999 124.727 97.848 C124.924 98.997 125.121 100.147 125.324 101.331 C126.867 110.298 128.489 119.248 130.188 128.188 C130.419 129.409 130.65 130.63 130.888 131.888 C131.349 134.315 131.81 136.742 132.272 139.169 C133.515 145.71 134.752 152.251 135.965 158.797 C136.234 160.242 136.506 161.687 136.78 163.131 C137.16 165.128 137.529 167.126 137.898 169.125 C138.112 170.262 138.325 171.399 138.544 172.57 C139 176 139 176 139 184 C127.12 184 115.24 184 103 184 C102.788 182.619 102.788 182.619 101.715 175.633 C98.359 153.85 94.905 132.088 91.222 110.358 C91.08 109.517 90.939 108.676 90.792 107.81 C90.53 106.26 90.267 104.71 90.002 103.161 C89.411 99.667 88.889 96.183 88.476 92.663 C88 89 88 89 87 86 C81.25 85.875 81.25 85.875 79 87 C78.867 92.84 79.328 98.301 80.25 104.062 C80.382 104.917 80.514 105.771 80.65 106.651 C81.865 114.401 83.223 122.127 84.589 129.852 C85.663 135.954 86.605 142.058 87.43 148.199 C87.904 151.362 88.438 154.498 89.008 157.645 C89.191 158.66 89.374 159.675 89.562 160.721 C89.928 162.73 90.3 164.738 90.68 166.744 C90.85 167.681 91.02 168.617 91.195 169.582 C91.35 170.409 91.505 171.237 91.665 172.089 C92.119 176.035 92 180.028 92 184 C49.1 184 6.2 184 -38 184 C-38 173.935 -38 173.935 -37.188 169.688 C-36.232 164.386 -35.405 159.079 -34.625 153.75 C-33.51 146.191 -32.28 138.657 -31 131.125 C-29.654 123.138 -28.382 115.145 -27.25 107.125 C-27.122 106.252 -26.995 105.38 -26.863 104.481 C-26.06 98.624 -25.858 92.909 -26 87 C-31.75 86 -31.75 86 -34 86 C-41.983 136.31 -41.983 136.31 -44.942 158.393 C-45.681 163.852 -46.499 169.278 -47.57 174.684 C-48.143 177.773 -48.556 180.89 -49 184 C-61.54 184 -74.08 184 -87 184 C-86.339 176.734 -85.561 169.776 -84.25 162.641 C-84.076 161.674 -83.902 160.707 -83.723 159.711 C-83.154 156.557 -82.577 153.403 -82 150.25 C-81.596 148.029 -81.193 145.808 -80.79 143.587 C-76.834 121.869 -72.724 100.18 -68.49 78.514 C-68.024 76.124 -67.563 73.732 -67.105 71.341 C-66.335 67.328 -65.545 63.32 -64.75 59.312 C-64.54 58.21 -64.331 57.107 -64.115 55.971 C-59.926 35.312 -48.775 19.665 -31.379 8.09 C-26.774 5.242 -22.023 3.003 -17 1 C-17 4.64 -18.064 6.201 -19.812 9.375 C-22.198 13.935 -23.535 17.939 -24.438 23 C-25.552 28.58 -25.552 28.58 -27.594 30.496 C-29.363 31.399 -31.181 32.202 -33 33 C-36.46 36.916 -37.8 40.499 -38.164 45.625 C-37.777 51.226 -35.405 55.63 -31.438 59.5 C-26.737 62.393 -22.372 62.601 -17 62 C-12.171 60.649 -8.907 58.403 -6 54.312 C-3.584 49.883 -2.93 45.945 -4 41 C-6.374 35.318 -9.685 31.967 -15 29 C-14.951 17.605 -9.726 9.077 -2 1 C-1.34 0.67 -0.68 0.34 0 0 Z " fill="#FDFDFD" transform="translate(230,254)"/>
<path d="M0 0 C3.3 0.99 6.6 1.98 10 3 C9.988 3.847 9.977 4.694 9.965 5.567 C9.941 8.732 9.952 11.895 9.988 15.061 C9.996 16.426 9.99 17.792 9.969 19.157 C9.942 21.128 9.97 23.099 10 25.07 C10 26.254 10 27.437 10 28.657 C11.165 32.552 11.686 32.61 15.006 34.558 C17.464 36.339 18.778 37.326 19.734 40.234 C19.984 42.988 19.99 45.647 19.908 48.412 C19.909 49.446 19.911 50.481 19.912 51.547 C19.906 54.957 19.844 58.364 19.781 61.773 C19.766 64.141 19.755 66.509 19.747 68.877 C19.716 75.102 19.638 81.325 19.549 87.55 C19.453 95.022 19.416 102.494 19.37 109.967 C19.292 121.312 19.139 132.654 19 144 C-0.14 144 -19.28 144 -39 144 C-38.67 135.09 -38.34 126.18 -38 117 C-37.833 102.151 -37.833 102.151 -38 98 C-39 97 -39 97 -42 96.875 C-45 97 -45 97 -46 98 C-46.217 99.603 -46.372 101.215 -46.5 102.828 C-46.582 103.847 -46.664 104.865 -46.749 105.914 C-46.79 106.465 -46.79 106.465 -47 109.25 C-47.087 110.366 -47.174 111.481 -47.263 112.631 C-48.053 123.081 -48.561 133.529 -49 144 C-58.9 144 -68.8 144 -79 144 C-79 136.519 -78.903 129.492 -78.125 122.125 C-77.464 115.588 -76.926 109.067 -76.598 102.504 C-75.25 76.033 -70.555 54.471 -50.406 35.566 C-38.543 25.459 -25.587 19.129 -10.375 16 C-6.154 14.749 -4.549 13.598 -2 10 C-1.022 6.655 -0.508 3.466 0 0 Z " fill="#C9E8FE" transform="translate(90,294)"/>
<path d="M0 0 C12.353 -1.156 24.073 2.642 33.863 10.199 C34.568 10.793 35.274 11.388 36 12 C36.633 12.522 37.266 13.044 37.918 13.582 C47.144 21.952 52.616 33.868 53.299 46.236 C53.447 50.275 53.467 54.31 53.446 58.351 C53.438 60.864 53.466 63.374 53.498 65.887 C53.57 82.283 49.799 96.933 38 109 C26.095 118.537 13.346 123.294 -2 122 C-16.758 119.856 -27.542 113.57 -37 102 C-39.446 98.139 -41.381 94.271 -43 90 C-43.266 89.355 -43.531 88.711 -43.805 88.047 C-46.638 80.232 -46.489 72.357 -46.446 64.152 C-46.438 61.702 -46.466 59.256 -46.498 56.807 C-46.554 44.323 -45.019 31.186 -37 21 C-35.683 20.301 -34.351 19.63 -33 19 C-32.547 19.479 -32.093 19.959 -31.626 20.453 C-29.556 22.628 -27.466 24.782 -25.375 26.938 C-25.019 27.315 -25.019 27.315 -23.215 29.225 C-20.134 32.376 -17.884 34.677 -13.703 36.203 C-11 36 -11 36 -9.023 34.77 C-0.106 24.183 0.604 13.229 0 0 Z " fill="#F8C2A9" transform="translate(253,100)"/>
<path d="M0 0 C14.318 -1.332 29.27 7.394 39.949 16.199 C52.883 27.556 61.286 41.473 64.375 58.5 C64.569 59.517 64.763 60.535 64.964 61.583 C67.081 72.942 68.938 84.349 70.812 95.75 C70.972 96.714 71.131 97.678 71.294 98.671 C71.749 101.441 72.198 104.213 72.645 106.984 C72.782 107.82 72.919 108.655 73.06 109.516 C73.185 110.297 73.309 111.078 73.437 111.882 C73.546 112.559 73.655 113.237 73.768 113.935 C74.031 116.276 74 118.644 74 121 C63.44 121 52.88 121 42 121 C41.518 118.28 41.036 115.56 40.539 112.758 C40.068 110.13 39.594 107.502 39.119 104.875 C38.79 103.046 38.465 101.216 38.142 99.386 C37.677 96.759 37.203 94.133 36.727 91.508 C36.584 90.687 36.441 89.866 36.294 89.02 C35.228 83.228 35.228 83.228 33 81 C30.5 80.75 30.5 80.75 28 81 C26 83 26 83 25.951 85.182 C26.715 92.159 27.787 99.036 29.062 105.938 C29.432 107.946 29.798 109.955 30.16 111.965 C30.321 112.837 30.483 113.71 30.649 114.609 C31 117 31 117 31 121 C13.51 121 -3.98 121 -22 121 C-23.152 73.462 -23.152 73.462 -15.241 49.829 C-13.815 45.517 -12.596 41.153 -11.383 36.777 C-11.164 35.99 -10.944 35.202 -10.719 34.39 C-10.278 32.806 -9.838 31.223 -9.398 29.639 C-6.61 19.629 -3.749 9.704 0 0 Z " fill="#6BF4CE" transform="translate(426,317)"/>
<path d="M0 0 C5.562 5.366 7.61 10.647 7.754 18.316 C7.753 20.618 7.712 22.913 7.638 25.214 C7.563 27.562 7.535 29.907 7.518 32.256 C7.313 47.988 4.339 61.86 -6.875 73.562 C-11.252 77.596 -15.577 80.578 -21 83 C-21.749 83.391 -22.498 83.781 -23.27 84.184 C-34.211 89.163 -49.005 88.933 -60.25 84.938 C-65.834 82.376 -70.452 79.1 -75 75 C-75.301 74.762 -75.301 74.762 -76.824 73.559 C-84.375 67.06 -89.745 55.789 -91 46 C-91.278 40.888 -91.355 35.78 -91.405 30.661 C-91.427 29.017 -91.461 27.373 -91.508 25.73 C-91.978 9.048 -91.978 9.048 -86.615 2.578 C-68.534 -15.087 -19.561 -15.213 0 0 Z " fill="#F9C2AA" transform="translate(156,201)"/>
<path d="M0 0 C32.67 0 65.34 0 99 0 C99 58.334 99 58.334 84.977 73.191 C71.746 85.297 58.713 87.832 41.359 87.179 C36.415 86.804 32.346 85.298 28 83 C27.571 82.782 27.571 82.782 25.402 81.68 C15.563 76.248 9.047 68.979 4 59 C0 44 0 44 0 0 Z " fill="#F9C2AA" transform="translate(350,201)"/>
<path d="M0 0 C0 3.676 -1.123 5.347 -2.875 8.562 C-4.997 12.634 -6.395 16.084 -7.062 20.625 C-7.461 23.09 -7.461 23.09 -8 25 C-10.188 26.188 -10.188 26.188 -13 27 C-25.561 36.773 -29.874 52.33 -32.296 67.334 C-32.889 71.008 -33.515 74.676 -34.141 78.344 C-34.279 79.156 -34.416 79.967 -34.559 80.804 C-35.811 88.087 -37.201 95.34 -38.609 102.594 C-38.837 103.77 -39.064 104.946 -39.298 106.158 C-40.215 110.901 -41.131 115.643 -42.069 120.382 C-42.73 123.729 -43.378 127.079 -44.023 130.43 C-44.123 130.924 -44.123 130.924 -44.629 133.428 C-47.955 150.913 -47.955 150.913 -44.5 157.938 C-40.48 162.862 -35.614 165.193 -30 168 C-30.66 172.95 -31.32 177.9 -32 183 C-44.54 183 -57.08 183 -70 183 C-69.339 175.734 -68.561 168.776 -67.25 161.641 C-67.076 160.674 -66.902 159.707 -66.723 158.711 C-66.154 155.557 -65.577 152.403 -65 149.25 C-64.596 147.029 -64.193 144.808 -63.79 142.587 C-59.834 120.869 -55.724 99.18 -51.49 77.514 C-51.024 75.124 -50.563 72.732 -50.105 70.341 C-49.335 66.328 -48.545 62.32 -47.75 58.312 C-47.54 57.21 -47.331 56.107 -47.115 54.971 C-42.926 34.312 -31.775 18.665 -14.379 7.09 C-9.774 4.242 -5.023 2.003 0 0 Z " fill="#E3E4E5" transform="translate(213,255)"/>
<path d="M0 0 C17.419 4.645 30.998 17.812 40 33 C45.657 44.117 48.014 56.204 50.051 68.422 C50.23 69.472 50.409 70.523 50.594 71.605 C50.974 73.836 51.353 76.068 51.73 78.299 C52.718 84.15 53.722 89.999 54.727 95.848 C54.924 96.997 55.121 98.147 55.324 99.331 C56.867 108.298 58.489 117.248 60.188 126.188 C60.303 126.798 60.303 126.798 60.888 129.888 C61.349 132.315 61.81 134.742 62.272 137.169 C63.515 143.71 64.752 150.251 65.965 156.797 C66.234 158.242 66.506 159.687 66.78 161.131 C67.16 163.128 67.529 165.126 67.898 167.125 C68.112 168.262 68.325 169.399 68.544 170.57 C69 174 69 174 69 182 C57.12 182 45.24 182 33 182 C32.34 176.39 31.68 170.78 31 165 C33.64 164.01 36.28 163.02 39 162 C43.149 157.761 45.813 154.237 46.309 148.309 C46.124 140.808 44.446 133.415 43.062 126.062 C42.587 123.495 42.114 120.927 41.641 118.359 C41.303 116.527 40.965 114.695 40.625 112.864 C39.26 105.484 37.959 98.093 36.672 90.699 C36.08 87.324 35.487 83.948 34.894 80.573 C34.509 78.374 34.128 76.175 33.75 73.975 C33.213 70.862 32.665 67.751 32.113 64.641 C31.959 63.727 31.805 62.814 31.647 61.873 C30.006 52.754 26.909 44.207 22.625 36 C22.081 34.928 21.537 33.855 20.977 32.75 C17.954 28.544 14.001 26.962 9 26 C8.927 25.595 8.927 25.595 8.555 23.543 C7.089 16.306 5.018 10.477 1.207 4.145 C0 2 0 2 0 0 Z " fill="#E3E4E5" transform="translate(300,256)"/>
<path d="M0 0 C3.3 0.99 6.6 1.98 10 3 C10 10.92 10 18.84 10 27 C-6.607 33.027 -6.607 33.027 -13.312 34.5 C-28.005 37.977 -40.562 47.218 -48.812 59.754 C-52.65 66.014 -55.3 71.878 -57 79 C-57.178 79.72 -57.357 80.44 -57.54 81.182 C-59.156 88.358 -59.367 95.352 -59.375 102.688 C-59.399 103.872 -59.424 105.056 -59.449 106.275 C-59.472 113.054 -59.322 117.638 -55 123 C-53.935 123.624 -52.87 124.248 -51.773 124.891 C-49 127 -49 127 -48.521 128.896 C-48.409 131.216 -48.476 133.431 -48.625 135.75 C-48.749 138.472 -48.873 141.195 -49 144 C-58.9 144 -68.8 144 -79 144 C-79 136.519 -78.903 129.492 -78.125 122.125 C-77.464 115.588 -76.926 109.067 -76.598 102.504 C-75.25 76.033 -70.555 54.471 -50.406 35.566 C-38.543 25.459 -25.587 19.129 -10.375 16 C-6.154 14.749 -4.549 13.598 -2 10 C-1.022 6.655 -0.508 3.466 0 0 Z " fill="#66B6FC" transform="translate(90,294)"/>
<path d="M0 0 C0.483 -0.002 0.483 -0.002 2.929 -0.013 C4.97 -0.019 7.011 -0.019 9.051 -0.015 C12.148 -0.012 15.243 -0.035 18.34 -0.061 C20.331 -0.063 22.322 -0.064 24.312 -0.062 C25.226 -0.072 26.14 -0.081 27.082 -0.09 C37.085 -0.02 45.56 2.319 52.922 9.301 C59.78 16.54 63.148 25.034 63.172 34.988 C63.109 36.76 63.033 38.531 62.922 40.301 C57.457 39.378 52.403 37.415 47.199 35.555 C36.028 32.046 24.642 31.864 13.047 31.863 C12.234 31.861 11.422 31.859 10.584 31.857 C-4.936 31.864 -20.087 33.017 -34.078 40.301 C-34.738 40.301 -35.398 40.301 -36.078 40.301 C-36.857 23.887 -36.857 23.887 -32.078 16.301 C-31.666 15.605 -31.253 14.909 -30.828 14.191 C-23.673 3.377 -12.338 -0.012 0 0 Z " fill="#4876D9" transform="translate(101.078125,131.69921875)"/>
<path d="M0 0 C14.318 -1.332 29.27 7.394 39.949 16.199 C52.883 27.556 61.286 41.473 64.375 58.5 C64.569 59.517 64.763 60.535 64.964 61.583 C67.081 72.942 68.938 84.349 70.812 95.75 C70.972 96.714 71.131 97.678 71.294 98.671 C71.749 101.441 72.198 104.213 72.645 106.984 C72.782 107.82 72.919 108.655 73.06 109.516 C73.185 110.297 73.309 111.078 73.437 111.882 C73.546 112.559 73.655 113.237 73.768 113.935 C74.031 116.276 74 118.644 74 121 C63.44 121 52.88 121 42 121 C41.01 115.06 40.02 109.12 39 103 C41.31 101.68 43.62 100.36 46 99 C47.777 96.738 47.777 96.738 48.938 94.312 C49.338 93.525 49.739 92.737 50.152 91.926 C54.457 77.067 47.936 56.109 41.031 42.896 C34.533 31.329 22.76 22.204 10.004 18.406 C5.365 17.14 0.694 16.042 -4 15 C-3.437 11.227 -2.693 7.726 -1.438 4.125 C-1.168 3.344 -0.899 2.563 -0.621 1.758 C-0.416 1.178 -0.211 0.598 0 0 Z " fill="#48D092" transform="translate(426,317)"/>
<path d="M0 0 C0.393 -0.006 0.393 -0.006 2.379 -0.039 C2.8 -0.043 2.8 -0.043 4.929 -0.061 C5.808 -0.069 6.686 -0.077 7.591 -0.086 C9.451 -0.1 11.311 -0.11 13.171 -0.118 C15.058 -0.13 16.944 -0.15 18.83 -0.18 C32.845 -0.4 45.128 -0.082 55.953 10.044 C62.048 16.33 65.957 23.269 65.957 32.177 C33.617 32.177 1.277 32.177 -32.043 32.177 C-30.661 21.12 -26.981 13.934 -18.352 6.833 C-12.695 2.775 -7.031 0.101 0 0 Z " fill="#48D091" transform="translate(382.043212890625,141.822998046875)"/>
<path d="M0 0 C0.049 0.296 0.049 0.296 0.297 1.793 C1.975 10.662 1.975 10.662 6 14 C7.867 14.607 9.758 15.146 11.66 15.633 C12.159 15.762 12.159 15.762 14.684 16.418 C15.448 16.61 16.213 16.802 17 17 C14.223 34.797 10.762 52.39 7 70 C6.7 70.057 6.7 70.057 5.183 70.345 C-1.9 71.785 -6.891 73.919 -11.387 79.82 C-14.371 84.993 -14.913 90.14 -14 96 C-11.727 103.317 -7.224 106.85 -1 111 C-1.6 118.302 -2.703 125.429 -4.062 132.625 C-4.249 133.629 -4.435 134.633 -4.627 135.668 C-5.081 138.113 -5.54 140.556 -6 143 C-10.29 143 -14.58 143 -19 143 C-19.185 129.283 -19.328 115.567 -19.414 101.849 C-19.456 95.479 -19.513 89.11 -19.604 82.741 C-19.69 76.594 -19.738 70.448 -19.759 64.301 C-19.774 61.955 -19.803 59.61 -19.846 57.265 C-19.904 53.98 -19.912 50.698 -19.908 47.412 C-19.937 46.442 -19.966 45.472 -19.995 44.473 C-19.916 37.941 -19.916 37.941 -17.193 35.142 C-15.006 33.558 -15.006 33.558 -12.816 32.273 C-11 31 -11 31 -10 27.657 C-10 26.473 -10 25.29 -10 24.07 C-9.981 22.781 -9.961 21.492 -9.941 20.164 C-9.96 18.818 -9.98 17.471 -10 16.125 C-9.992 14.755 -9.98 13.385 -9.965 12.016 C-9.941 8.676 -9.954 5.34 -10 2 C-6.38 0.684 -3.904 0 0 0 Z " fill="#C8E7FD" transform="translate(138,295)"/>
<path d="M0 0 C7.485 -0.14 14.97 -0.246 22.456 -0.311 C25.934 -0.342 29.41 -0.384 32.887 -0.453 C36.899 -0.531 40.91 -0.56 44.922 -0.586 C46.15 -0.617 47.379 -0.648 48.645 -0.68 C58.161 -0.683 66.107 1.585 73.298 8.074 C76.729 11.691 78.888 15.058 80 20 C79.392 19.867 78.783 19.734 78.156 19.598 C73.721 18.704 69.412 17.959 64.883 17.855 C64.178 17.835 63.474 17.815 62.748 17.795 C61.356 17.765 59.964 17.76 58.572 17.781 C55.776 17.715 53.628 17.584 51.527 15.631 C50.326 14.107 49.161 12.554 48 11 C44.75 10.562 44.75 10.562 42 11 C41 12 41 12 40.688 14.75 C41.074 18.766 42.379 20.005 45 23 C49.047 28.781 48.656 35.216 48 42 C47.251 44.642 46.346 46.588 45 49 C41.146 47.431 38.846 44.99 36.008 41.992 C35.046 40.996 34.084 39.999 33.121 39.004 C31.618 37.439 30.12 35.87 28.632 34.29 C27.188 32.76 25.725 31.25 24.258 29.742 C23.393 28.833 22.528 27.924 21.637 26.988 C18.48 24.608 16.866 24.493 13 25 C12.67 25.33 12.34 25.66 12 26 C12.305 31.294 13.368 34.134 17 38 C16.776 38.261 16.776 38.261 15.645 39.582 C8.571 48.194 4.603 56.969 3 68 C1 67 1 67 0 64 C-0.089 61.93 -0.118 59.857 -0.114 57.784 C-0.113 57.144 -0.113 57.144 -0.113 53.902 C-0.108 52.504 -0.103 51.105 -0.098 49.707 C-0.096 48.276 -0.094 46.846 -0.093 45.415 C-0.09 41.652 -0.08 37.889 -0.069 34.126 C-0.058 30.285 -0.054 26.444 -0.049 22.604 C-0.038 15.069 -0.021 7.535 0 0 Z " fill="#515079" transform="translate(195,74)"/>
<path d="M0 0 C0.922 2.5 0.922 2.5 1.75 6 C2.089 7.376 2.43 8.751 2.773 10.125 C2.964 10.896 3.154 11.667 3.351 12.461 C4.597 17.333 6.001 22.162 7.375 27 C10.03 36.402 12.563 45.829 14.958 55.301 C15.184 56.181 15.409 57.062 15.641 57.969 C15.832 58.726 16.023 59.483 16.22 60.264 C17 63 17 63 17.743 64.909 C20.132 71.23 20.394 76.883 20.293 83.598 C20.289 84.673 20.284 85.747 20.28 86.855 C20.263 90.258 20.226 93.66 20.188 97.062 C20.172 99.382 20.159 101.702 20.146 104.021 C20.114 109.681 20.062 115.341 20 121 C15.38 121 10.76 121 6 121 C5.835 120.015 5.67 119.029 5.5 118.014 C1.431 93.747 -2.868 69.528 -7.349 45.333 C-7.704 43.411 -8.06 41.488 -8.414 39.565 C-9.317 34.674 -10.229 29.786 -11.159 24.9 C-11.529 22.927 -11.899 20.954 -12.27 18.98 C-12.444 18.08 -12.618 17.179 -12.797 16.251 C-13.699 11.408 -14.185 6.926 -14 2 C-9.272 -0.086 -5.036 -1.679 0 0 Z " fill="#6BF2CD" transform="translate(374,317)"/>
<path d="M0 0 C41.58 0 83.16 0 126 0 C128 7 128 7 128 16 C85.1 16 42.2 16 -2 16 C-2 7 -2 7 0 0 Z " fill="#E3E4E6" transform="translate(194,422)"/>
<path d="M0 0 C4.035 3.992 6.694 7.595 7.422 13.312 C7.436 16.246 7.316 19.085 7 22 C0.101 19.36 -3.558 15.552 -7.766 9.609 C-8.173 9.078 -8.58 8.547 -9 8 C-9.33 8 -9.66 8 -10 8 C-9.938 9.114 -9.876 10.227 -9.812 11.375 C-9.843 11.973 -9.843 11.973 -10 15 C-13.615 17.41 -16.322 17.332 -20.5 17.312 C-21.177 17.329 -21.854 17.345 -22.551 17.361 C-25.486 17.364 -27.501 17.35 -29.945 15.637 C-31.465 13.279 -31.412 11.746 -31 9 C-29.895 7.387 -29.895 7.387 -28 6 C-24.863 5.488 -24.863 5.488 -21.312 5.312 C-20.133 5.247 -18.954 5.181 -17.738 5.113 C-17.286 5.095 -17.286 5.095 -15 5 C-22.546 2.887 -29.848 2.692 -37.637 2.739 C-39.732 2.75 -41.827 2.739 -43.922 2.727 C-52.429 2.719 -60.623 3.42 -69 5 C-68.516 5.024 -68.516 5.024 -66.066 5.145 C-56.563 5.616 -56.563 5.616 -54.07 7.316 C-53 9 -53 9 -53.188 12.625 C-53.456 13.739 -53.724 14.852 -54 16 C-57.146 17.573 -60.486 17.267 -63.938 17.312 C-64.666 17.342 -65.395 17.371 -66.146 17.4 C-71.508 17.464 -71.508 17.464 -73.941 15.168 C-75 13 -75 13 -76 10 C-78.173 12.096 -80.113 14.15 -81.938 16.562 C-84.105 19.124 -86.013 20.506 -89 22 C-89.66 22 -90.32 22 -91 22 C-91.677 14.59 -91.621 9.007 -86.961 2.969 C-69.308 -14.754 -19.173 -15.772 0 0 Z " fill="#F89B87" transform="translate(156,201)"/>
<path d="M0 0 C0.483 -0.002 0.483 -0.002 2.929 -0.013 C4.97 -0.019 7.011 -0.019 9.051 -0.015 C12.148 -0.012 15.243 -0.035 18.34 -0.061 C20.331 -0.063 22.322 -0.064 24.312 -0.062 C25.226 -0.072 26.14 -0.081 27.082 -0.09 C37.06 -0.02 45.593 2.303 52.922 9.301 C60.147 17.361 62.446 24.557 61.922 35.301 C61.241 34.6 60.561 33.898 59.859 33.176 C51.175 24.565 43.567 19.606 31.172 18.738 C30.001 18.654 28.831 18.571 27.625 18.484 C27.179 18.454 27.179 18.454 24.922 18.301 C24.632 17.333 24.342 16.365 24.043 15.367 C22.922 12.301 22.922 12.301 20.984 11.238 C20.304 10.929 19.623 10.62 18.922 10.301 C18.468 9.435 18.014 8.568 17.547 7.676 C17.011 6.892 16.474 6.108 15.922 5.301 C12.734 4.988 12.734 4.988 9.922 5.301 C9.695 6.085 9.468 6.868 9.234 7.676 C7.922 10.301 7.922 10.301 5.422 11.238 C4.597 11.589 3.772 11.94 2.922 12.301 C1.766 15.367 1.766 15.367 0.922 18.301 C0.099 18.327 -0.723 18.352 -1.57 18.379 C-12.244 18.921 -22.404 21.179 -29.961 29.332 C-31.212 30.77 -32.446 32.223 -33.66 33.691 C-34.128 34.222 -34.596 34.754 -35.078 35.301 C-35.408 35.301 -35.738 35.301 -36.078 35.301 C-36.831 25.286 -34.102 18.025 -27.914 10.156 C-20.099 2.258 -10.702 -0.011 0 0 Z " fill="#65B4FB" transform="translate(101.078125,131.69921875)"/>
<path d="M0 0 C32.67 0 65.34 0 99 0 C99 14.52 99 29.04 99 44 C98.67 44 98.34 44 98 44 C98 33.44 98 22.88 98 12 C92.72 12 87.44 12 82 12 C81.34 13.32 80.68 14.64 80 16 C77.958 18.042 73.921 17.231 71.125 17.25 C70.392 17.271 69.658 17.291 68.902 17.312 C63.508 17.352 63.508 17.352 60.992 15.609 C60 14 60 14 60 12 C56.582 12.052 53.167 12.147 49.75 12.25 C48.782 12.264 47.814 12.278 46.816 12.293 C39.495 12.545 39.495 12.545 36.801 15.02 C36.207 15.673 35.612 16.327 35 17 C31.434 17.496 31.434 17.496 27.438 17.438 C26.765 17.445 26.093 17.452 25.4 17.459 C22.46 17.421 20.465 17.332 18.035 15.598 C17 14 17 14 17 12 C11.39 12 5.78 12 0 12 C0 8.04 0 4.08 0 0 Z " fill="#EF9684" transform="translate(350,201)"/>
<path d="M0 0 C4.585 2.048 7.817 4.517 9.715 9.309 C10.277 14.021 10.181 18.72 10.105 23.457 C10.098 24.839 10.092 26.22 10.088 27.601 C10.073 31.222 10.034 34.841 9.99 38.461 C9.948 42.162 9.93 45.862 9.91 49.562 C9.867 56.811 9.799 64.06 9.715 71.309 C9.055 71.309 8.395 71.309 7.715 71.309 C7.591 70.484 7.467 69.659 7.34 68.809 C4.932 55.324 -0.591 41.4 -11.285 32.309 C-13.116 31.304 -14.949 30.304 -16.785 29.309 C-19.359 27.634 -20.97 26.475 -21.788 23.445 C-22.613 16.917 -22.63 10.695 -19.363 4.898 C-14.258 -1.464 -7.656 -2.316 0 0 Z " fill="#51517A" transform="translate(308.28515625,74.69140625)"/>
<path d="M0 0 C0.33 0 0.66 0 1 0 C1 34.98 1 69.96 1 106 C-18.14 106 -37.28 106 -57 106 C-56.67 100.72 -56.34 95.44 -56 90 C-37.52 90 -19.04 90 0 90 C0 60.3 0 30.6 0 0 Z " fill="#6AB5F7" transform="translate(108,332)"/>
<path d="M0 0 C2.517 0.009 5.031 -0.02 7.548 -0.052 C24.506 -0.127 43.426 2.741 56.21 15.009 C57.197 16.129 58.159 17.274 59.085 18.446 C59.305 18.71 59.305 18.71 60.421 20.044 C62.404 22.646 63.122 24.02 62.835 27.321 C62.711 27.672 62.711 27.672 62.085 29.446 C60.765 29.776 59.445 30.106 58.085 30.446 C57.246 29.325 56.414 28.199 55.585 27.071 C55.353 26.758 55.353 26.758 54.178 25.173 C53.085 23.446 53.085 23.446 53.085 21.446 C52.489 21.164 51.894 20.881 51.28 20.591 C49.085 19.446 49.085 19.446 45.96 17.134 C41.64 14.397 37.094 13.062 32.21 11.696 C31.467 11.486 30.724 11.275 29.959 11.058 C9.024 5.488 -18.261 5.802 -38.189 14.86 C-44.822 18.718 -50.208 23.718 -53.915 30.446 C-55.235 30.116 -56.555 29.786 -57.915 29.446 C-58.817 26.491 -59.22 25.048 -57.798 22.235 C-42.682 3.626 -22.85 -0.118 0 0 Z " fill="#F14765" transform="translate(111.915283203125,173.553955078125)"/>
<path d="M0 0 C0.33 0 0.66 0 1 0 C1 9.57 1 19.14 1 29 C17.17 29 33.34 29 50 29 C52 35 52 35 53 45 C35.51 45 18.02 45 0 45 C0 30.15 0 15.3 0 0 Z " fill="#48CB8F" transform="translate(404,393)"/>
<path d="M0 0 C13.621 -0.933 25.553 3.195 36 12 C36.633 12.522 37.266 13.044 37.918 13.582 C44.581 19.627 49.767 28.292 52 37 C51.625 39.375 51.625 39.375 51 41 C50.466 40.299 49.933 39.597 49.383 38.875 C40.169 27.142 29.1 17.82 14 15 C11.753 14.78 9.502 14.595 7.25 14.438 C5.188 14.293 3.125 14.149 1 14 C0.67 9.38 0.34 4.76 0 0 Z " fill="#F69986" transform="translate(253,100)"/>
<path d="M0 0 C32.67 0 65.34 0 99 0 C99 1.98 99 3.96 99 6 C66.33 6 33.66 6 0 6 C0 4.02 0 2.04 0 0 Z " fill="#46C48B" transform="translate(350,185)"/>
<path d="M0 0 C10.89 0 21.78 0 33 0 C33 14 33 14 29.812 17.25 C27.855 18.246 27.855 18.246 26 19 C25.216 19.433 24.433 19.866 23.625 20.312 C16.103 22.283 10.849 20.919 4.066 17.289 C2 16 2 16 0 14 C0 9.38 0 4.76 0 0 Z " fill="#F49885" transform="translate(240,233)"/>
<path d="M0 0 C0.41 0.081 0.41 0.081 2.484 0.492 C6.426 1.062 10.278 1.15 14.25 1.125 C14.996 1.123 15.741 1.121 16.51 1.119 C22.06 1.076 27.49 0.7 33 0 C33.91 12.453 33.91 12.453 31.84 15.973 C26.172 20.712 20.045 21.438 12.949 21.324 C8.661 20.853 6.447 19.567 3 17 C2.448 16.608 1.897 16.216 1.328 15.812 C-0.773 12.946 -0.283 10.293 -0.188 6.812 C-0.16 5.54 -0.133 4.268 -0.105 2.957 C-0.071 1.981 -0.036 1.005 0 0 Z " fill="#F89A86" transform="translate(383,297)"/>
<path d="M0 0 C0.049 0.296 0.049 0.296 0.297 1.793 C1.975 10.662 1.975 10.662 6 14 C9.646 15.3 13.209 16.143 17 17 C16.01 23.27 15.02 29.54 14 36 C12.68 34.68 11.36 33.36 10 32 C8.027 31.312 8.027 31.312 5.938 31 C1 30 1 30 -10 26 C-10 18.08 -10 10.16 -10 2 C-4 0 -4 0 0 0 Z " fill="#67B6FC" transform="translate(138,295)"/>
<path d="M0 0 C-1.649 7.631 -3.582 15.068 -5.957 22.504 C-7.373 27.25 -8.518 32.053 -9.605 36.884 C-10.01 38.605 -10.498 40.305 -11 42 C-11.33 42.165 -11.33 42.165 -13 43 C-14.732 36.969 -16.456 30.936 -18.174 24.9 C-18.707 23.029 -19.241 21.158 -19.775 19.287 C-20.479 16.818 -21.178 14.347 -21.875 11.875 C-21.982 11.5 -21.982 11.5 -22.526 9.6 C-23.357 6.638 -24 4.093 -24 1 C-23.405 1.005 -22.809 1.01 -22.196 1.016 C-19.506 1.037 -16.815 1.05 -14.125 1.062 C-13.188 1.071 -12.251 1.079 -11.285 1.088 C-10.389 1.091 -9.493 1.094 -8.57 1.098 C-7.743 1.103 -6.915 1.108 -6.063 1.114 C-3.744 0.986 -2.322 0 0 0 Z " fill="#82BDF9" transform="translate(269,262)"/>
<path d="M0 0 C0.341 0.081 0.341 0.081 2.066 0.492 C5.406 1.07 8.549 1.132 11.938 1.125 C12.53 1.126 12.53 1.126 15.527 1.133 C18.775 1.009 21.812 0.613 25 0 C24.814 0.663 24.628 1.326 24.437 2.009 C20.608 15.668 16.789 29.33 13 43 C12.34 42.67 11.68 42.34 11 42 C10.352 39.836 9.812 37.64 9.312 35.438 C7.296 26.827 4.818 18.372 2.286 9.9 C1.991 8.904 1.695 7.909 1.391 6.883 C1.123 5.99 0.855 5.096 0.579 4.176 C0 2 0 2 0 0 Z " fill="#82BEFA" transform="translate(387,327)"/>
<path d="M0 0 C3.7 0.209 6.292 0.546 9.438 2.562 C12.948 4.532 16.109 4.566 20 4 C22.84 3.101 25.856 2.144 28 0 C33.255 -0.457 33.255 -0.457 35.938 1.188 C37 3 37 3 37.188 5.312 C34.946 10.386 30.033 13.006 25.188 15.375 C15.873 17.201 9.018 16.167 1 11 C-1.688 9 -1.688 9 -3 7 C-2.838 3.608 -2.417 2.417 0 0 Z " fill="#373240" transform="translate(97,258)"/>
<path d="M0 0 C3.125 0.875 3.125 0.875 5.312 2.438 C9.76 4.711 14.232 4.569 19.125 3.875 C21.155 2.587 23.16 1.259 25.125 -0.125 C29 0.125 29 0.125 32.125 0.875 C32.875 4.125 32.875 4.125 33.125 7.875 C30.329 12.323 25.035 14.469 20.125 15.875 C11.391 17.065 4.436 15.885 -2.875 10.875 C-5.805 8.344 -5.805 8.344 -6.25 5.375 C-5.875 2.875 -5.875 2.875 -4.75 1 C-2.875 -0.125 -2.875 -0.125 0 0 Z " fill="#34303F" transform="translate(242.875,193.125)"/>
<path d="M0 0 C3.546 0.401 5.472 1.627 8.465 3.469 C11.702 5.057 14.862 5.069 18.312 4.375 C20.392 3.415 22.354 2.324 24.348 1.199 C27.595 -0.163 29.961 0.537 33.312 1.375 C34.125 4.062 34.125 4.062 34.312 7.375 C30.706 12.598 25.262 14.753 19.312 16.375 C10.679 17.682 4.49 14.933 -2.75 10.5 C-4.688 8.375 -4.688 8.375 -5.125 5.25 C-4.548 1.46 -3.823 0.533 0 0 Z " fill="#363140" transform="translate(384.6875,257.625)"/>
<path d="M0 0 C3.125 0.312 3.125 0.312 5 2.188 C6.125 4.312 6.125 4.312 6.125 6.312 C6.929 6.622 7.734 6.931 8.562 7.25 C11.125 8.312 11.125 8.312 12.125 9.312 C12.375 12.25 12.375 12.25 12.125 15.312 C9.125 17.312 9.125 17.312 5.125 17.312 C5.001 18.096 4.877 18.88 4.75 19.688 C4.125 22.312 4.125 22.312 2.125 24.312 C-1.172 23.983 -2.498 23.69 -4.875 21.312 C-4.875 19.993 -4.875 18.673 -4.875 17.312 C-5.267 17.24 -5.267 17.24 -7.25 16.875 C-9.875 16.312 -9.875 16.312 -11.875 15.312 C-12.239 9.858 -12.239 9.858 -10.625 7.438 C-8.875 6.312 -8.875 6.312 -4.875 6.312 C-4.731 5.508 -4.586 4.704 -4.438 3.875 C-3.675 0.399 -3.675 0.399 0 0 Z " fill="#313143" transform="translate(113.875,135.6875)"/>
<path d="M0 0 C5.568 0.568 5.568 0.568 7 2 C7.041 3.666 7.043 5.334 7 7 C7.784 6.959 8.567 6.917 9.375 6.875 C12 7 12 7 14 9 C14.25 12 14.25 12 14 15 C12 17 12 17 9.375 17.125 C8.591 17.084 7.808 17.042 7 17 C7.062 17.784 7.124 18.567 7.188 19.375 C7.157 19.808 7.157 19.808 7 22 C4 24 4 24 0.812 23.625 C-0.116 23.419 -1.044 23.213 -2 23 C-2.33 21.02 -2.66 19.04 -3 17 C-3.392 17.031 -3.392 17.031 -5.375 17.188 C-6.241 17.126 -7.108 17.064 -8 17 C-10 14 -10 14 -9.75 11.438 C-9 9 -9 9 -7 7 C-5.68 7 -4.36 7 -3 7 C-2.938 6.608 -2.938 6.608 -2.625 4.625 C-2 2 -2 2 0 0 Z " fill="#30303F" transform="translate(397,146)"/>
<path d="M0 0 C0.33 0 0.66 0 1 0 C1 29.7 1 59.4 1 90 C5.62 90 10.24 90 15 90 C14.489 95.403 13.893 100.639 13 106 C8.71 106 4.42 106 0 106 C0 71.02 0 36.04 0 0 Z " fill="#71AEE4" transform="translate(119,332)"/>
<path d="M0 0 C9.707 0.975 17.861 6.647 24 14 C24.445 14.529 24.889 15.057 25.348 15.602 C27.319 18.208 28.037 19.578 27.75 22.875 C27.502 23.576 27.255 24.278 27 25 C25.68 25.33 24.36 25.66 23 26 C22.161 24.879 21.329 23.753 20.5 22.625 C20.036 21.999 19.572 21.372 19.094 20.727 C18 19 18 19 18 17 C17.415 16.72 16.83 16.441 16.227 16.152 C14.15 15.077 12.304 13.88 10.375 12.562 C5.863 9.685 1.158 8.3 -4 7 C-3.34 6.67 -2.68 6.34 -2 6 C-1.627 4.342 -1.293 2.674 -1 1 C-0.67 0.67 -0.34 0.34 0 0 Z " fill="#B02A52" transform="translate(147,178)"/>
<path d="M0 0 C0.881 2.879 1.581 5.626 2.188 8.562 C2.365 9.369 2.542 10.175 2.725 11.006 C3.161 13.001 3.582 15 4 17 C3.62 16.994 3.62 16.994 1.699 16.965 C0.705 16.956 -0.289 16.947 -1.312 16.938 C-2.299 16.926 -3.285 16.914 -4.301 16.902 C-7.814 17.029 -9.494 17.494 -12 20 C-13.229 13.932 -14.276 8.201 -14 2 C-9.272 -0.086 -5.036 -1.679 0 0 Z " fill="#49CD91" transform="translate(374,317)"/>
<path d="M0 0 C5.28 0 10.56 0 16 0 C16 5.28 16 10.56 16 16 C11.38 16 6.76 16 2 16 C1.34 10.72 0.68 5.44 0 0 Z " fill="#48CF91" transform="translate(378,422)"/>
<path d="M0 0 C3.018 3.381 3.018 3.381 2.941 5.965 C1.523 9.031 -0.573 9.499 -3.625 10.812 C-11.067 14.317 -16.194 18.611 -20 26 C-21.32 25.67 -22.64 25.34 -24 25 C-24.902 22.045 -25.304 20.602 -23.883 17.789 C-17.145 9.494 -10.023 3.815 0 0 Z " fill="#B02A52" transform="translate(78,178)"/>
<path d="M0 0 C0.362 -0.006 0.362 -0.006 2.195 -0.035 C7.449 -0.006 7.449 -0.006 9.977 1.742 C11.456 4.102 11.409 5.647 11 8.375 C9.977 10.008 9.977 10.008 8 11.375 C5.239 11.673 2.755 11.794 0 11.75 C-0.362 11.756 -0.362 11.756 -2.195 11.785 C-7.449 11.756 -7.449 11.756 -9.977 10.008 C-11.456 7.648 -11.409 6.103 -11 3.375 C-8.437 -0.714 -4.328 -0.069 0 0 Z " fill="#393240" transform="translate(421,206.625)"/>
<path d="M0 0 C0.677 -0.016 1.354 -0.032 2.051 -0.049 C4.954 -0.052 7.014 -0.005 9.48 1.605 C11.237 4.546 10.266 7.13 9.5 10.312 C6.34 11.892 2.965 11.497 -0.5 11.5 C-1.237 11.512 -1.975 11.524 -2.734 11.537 C-4.658 11.542 -6.581 11.435 -8.5 11.312 C-10.5 9.312 -10.5 9.312 -10.812 5.812 C-10.709 4.657 -10.606 3.502 -10.5 2.312 C-6.885 -0.097 -4.178 -0.02 0 0 Z " fill="#383341" transform="translate(92.5,206.6875)"/>
<path d="M0 0 C0.338 -0.002 0.338 -0.002 2.051 -0.01 C5.735 0.03 7.362 0.221 10.5 2.312 C10.875 5.812 10.875 5.812 10.5 9.312 C6.885 11.722 4.178 11.645 0 11.625 C-0.677 11.641 -1.354 11.657 -2.051 11.674 C-4.986 11.677 -7.001 11.662 -9.445 9.949 C-10.965 7.591 -10.912 6.058 -10.5 3.312 C-7.957 -0.633 -4.24 -0.101 0 0 Z " fill="#373140" transform="translate(377.5,206.6875)"/>
<path d="M0 0 C0.338 -0.002 0.338 -0.002 2.051 -0.01 C5.735 0.03 7.362 0.221 10.5 2.312 C10.875 5.812 10.875 5.812 10.5 9.312 C6.885 11.722 4.178 11.645 0 11.625 C-0.677 11.641 -1.354 11.657 -2.051 11.674 C-4.986 11.677 -7.001 11.662 -9.445 9.949 C-10.965 7.591 -10.912 6.058 -10.5 3.312 C-7.957 -0.633 -4.24 -0.101 0 0 Z " fill="#373241" transform="translate(135.5,206.6875)"/>
<path d="M0 0 C0.833 0.003 1.665 0.006 2.523 0.01 C3.356 -0.006 4.189 -0.022 5.047 -0.039 C5.445 -0.039 5.445 -0.039 7.461 -0.041 C8.192 -0.044 8.923 -0.047 9.676 -0.05 C11.523 0.322 11.523 0.322 13.523 3.322 C13.199 6.645 12.916 7.93 10.523 10.322 C7.647 10.547 4.899 10.647 2.023 10.635 C1.238 10.651 0.453 10.667 -0.355 10.684 C-2.633 10.686 -2.633 10.686 -6.477 10.322 C-8.626 7.099 -8.859 6.055 -8.477 2.322 C-5.706 -0.448 -3.783 0.034 0 0 Z " fill="#35303F" transform="translate(232.4765625,142.677734375)"/>
<path d="M0 0 C0.785 -0.012 1.57 -0.024 2.379 -0.037 C4.421 -0.042 6.462 0.065 8.5 0.188 C9.16 0.847 9.82 1.507 10.5 2.188 C9.923 8.764 9.923 8.764 8.5 10.188 C5.695 10.341 2.931 10.419 0.125 10.438 C-0.266 10.448 -0.266 10.448 -2.242 10.5 C-8.032 10.54 -8.032 10.54 -10.26 8.862 C-11.5 7.188 -11.5 7.188 -11.312 4.062 C-11.044 3.114 -10.776 2.165 -10.5 1.188 C-7.216 -0.454 -3.605 0.003 0 0 Z " fill="#34303F" transform="translate(278.5,142.8125)"/>
<path d="M0 0 C2.547 0.079 3.82 0.176 6.062 1.438 C7.548 4.223 7.443 6.205 7.062 9.312 C6.062 11.688 6.062 11.688 4.062 13.312 C1.266 13.936 -1.146 13.98 -3.938 13.312 C-6 11.188 -6 11.188 -6.938 8.312 C-6.606 2.676 -5.959 0.473 0 0 Z " fill="#F7F7F8" transform="translate(208.9375,292.6875)"/>
<path d="M0 0 C0.66 0.33 1.32 0.66 2 1 C2.627 3.165 3.154 5.359 3.625 7.562 C3.885 8.76 4.146 9.958 4.414 11.191 C4.607 12.118 4.801 13.045 5 14 C4.336 14.049 3.672 14.098 2.988 14.148 C-3.242 14.676 -7.728 15.485 -13 19 C-11.23 11.526 -6.367 4.305 0 0 Z " fill="#DEDFE1" transform="translate(230,254)"/>
<path d="M0 0 C1.98 0 3.96 0 6 0 C6 7.26 6 14.52 6 22 C4.35 22.33 2.7 22.66 1 23 C0 22 0 22 -0.114 19.867 C-0.108 18.951 -0.103 18.034 -0.098 17.09 C-0.094 16.1 -0.091 15.111 -0.088 14.092 C-0.08 13.051 -0.071 12.01 -0.062 10.938 C-0.058 9.893 -0.053 8.848 -0.049 7.771 C-0.037 5.181 -0.021 2.59 0 0 Z " fill="#F99B87" transform="translate(111,299)"/>
<path d="M0 0 C5.625 4.387 9.306 8.911 13 15 C9.191 16.27 7.184 15.521 3.312 14.562 C2.133 14.275 0.954 13.988 -0.262 13.691 C-1.165 13.463 -2.069 13.235 -3 13 C-2.69 11.395 -2.377 9.791 -2.062 8.188 C-1.888 7.294 -1.714 6.401 -1.535 5.48 C-1 3 -1 3 0 0 Z " fill="#DFE0E2" transform="translate(282,254)"/>
<path d="M0 0 C2.375 0.875 2.375 0.875 4.375 2.875 C4.69 7.211 4.824 9.202 2.375 12.875 C-0.756 13.275 -2.756 13.396 -5.5 11.75 C-7.18 8.951 -7.082 7.077 -6.625 3.875 C-4.554 0.884 -3.703 -0.176 0 0 Z " fill="#3B3543" transform="translate(378.625,220.125)"/>
<path d="M0 0 C2.375 0.875 2.375 0.875 4.375 2.875 C4.69 7.211 4.824 9.202 2.375 12.875 C-0.756 13.275 -2.756 13.396 -5.5 11.75 C-7.18 8.951 -7.082 7.077 -6.625 3.875 C-4.554 0.884 -3.703 -0.176 0 0 Z " fill="#3B3543" transform="translate(136.625,220.125)"/>
<path d="M0 0 C2.313 3.469 2.425 4.922 2 9 C0.875 10.875 0.875 10.875 -1 12 C-4.062 12.375 -4.062 12.375 -7 12 C-9.463 8.305 -9.39 6.367 -9 2 C-6.761 -1.981 -4.009 -1.194 0 0 Z " fill="#3B3543" transform="translate(96,221)"/>
<path d="M0 0 C3.479 1.392 4.481 2.633 6 6 C5.42 6.473 4.84 6.946 4.242 7.434 C-1.269 12.099 -5.331 16.785 -9 23 C-10.901 18.125 -8.385 14.432 -6.41 9.926 C-4.674 6.324 -2.856 2.856 0 0 Z " fill="#F59986" transform="translate(218,119)"/>
<path d="M0 0 C2.438 0.812 2.438 0.812 4.438 2.812 C4.703 4.688 4.703 4.688 4.688 6.812 C4.693 7.514 4.698 8.215 4.703 8.938 C4.438 10.812 4.438 10.812 2.438 12.812 C-0.562 13.062 -0.562 13.062 -3.562 12.812 C-5.562 10.812 -5.562 10.812 -5.875 6.875 C-5.799 4.266 -5.694 3.04 -4.375 0.75 C-2.562 -0.188 -2.562 -0.188 0 0 Z " fill="#363140" transform="translate(421.5625,220.1875)"/>
<path d="M0 0 C3 0.25 3 0.25 5 2.25 C5.558 9.281 5.558 9.281 3.812 12.312 C2 13.25 2 13.25 -0.562 13.062 C-3 12.25 -3 12.25 -5 10.25 C-5.266 8.375 -5.266 8.375 -5.25 6.25 C-5.255 5.549 -5.26 4.847 -5.266 4.125 C-4.774 0.657 -3.289 0.274 0 0 Z " fill="#363140" transform="translate(278,155.75)"/>
<path d="M0 0 C3 0.25 3 0.25 5 2.25 C5.558 9.281 5.558 9.281 3.812 12.312 C2 13.25 2 13.25 -0.562 13.062 C-3 12.25 -3 12.25 -5 10.25 C-5.266 8.375 -5.266 8.375 -5.25 6.25 C-5.255 5.549 -5.26 4.847 -5.266 4.125 C-4.774 0.657 -3.289 0.274 0 0 Z " fill="#353140" transform="translate(235,155.75)"/>
<path d="M0 0 C0.99 0.33 1.98 0.66 3 1 C2.01 6.94 1.02 12.88 0 19 C-4 17 -4 17 -6 14 C-6.672 7.053 -6.672 7.053 -4.125 3.062 C-2 1 -2 1 0 0 Z " fill="#EF4765" transform="translate(140,376)"/>
<path d="M0 0 C0 4.29 0 8.58 0 13 C-5 12 -5 12 -6.875 10.875 C-8 9 -8 9 -7.875 5.438 C-6.593 0.403 -5.084 0 0 0 Z " fill="#E4B39E" transform="translate(197,157)"/>
<path d="M0 0 C5 1 5 1 7 3 C7.484 6.711 7.489 8.359 5.188 11.375 C3 13 3 13 0 13 C0 8.71 0 4.42 0 0 Z " fill="#EA9281" transform="translate(459,222)"/>
<path d="M0 0 C5 1 5 1 7 3 C6.774 9.226 6.774 9.226 4.062 11.938 C2 13 2 13 0 13 C0 8.71 0 4.42 0 0 Z " fill="#EA9381" transform="translate(174,222)"/>
<path d="M0 0 C0 3.96 0 7.92 0 12 C-5 11 -5 11 -7 9 C-7.55 3.826 -7.55 3.826 -5.75 1.125 C-4 0 -4 0 0 0 Z " fill="#F19684" transform="translate(54,222)"/>
<path d="M0 0 C0.825 0.165 0.825 0.165 5 1 C7.155 4.233 7.469 5.252 7 9 C5.75 10.812 5.75 10.812 4 12 C2.68 12 1.36 12 0 12 C0 8.04 0 4.08 0 0 Z " fill="#F6C0A8" transform="translate(317,157)"/>
<path d="M0 0 C0 3.96 0 7.92 0 12 C-1.65 11.67 -3.3 11.34 -5 11 C-7 8 -7 8 -6.812 5.5 C-5.504 1.475 -4.307 0 0 0 Z " fill="#F09684" transform="translate(339,222)"/>
<path d="M0 0 C0.33 1.32 0.66 2.64 1 4 C-0.072 4.536 -1.145 5.072 -2.25 5.625 C-6.126 7.811 -7.821 10.166 -10 14 C-10.66 13.34 -11.32 12.68 -12 12 C-8.277 7.579 -4.705 3.422 0 0 Z " fill="#F4F4F5" transform="translate(203,279)"/>
</svg>
