<?xml version="1.0" encoding="UTF-8"?>
<!-- Generator: visioncortex VTracer 0.6.12 -->
<svg version="1.1" xmlns="http://www.w3.org/2000/svg" width="512" height="512">
<path d="M0 0 C4.12 2.748 6.306 5.697 8.734 9.973 C9.058 10.537 9.381 11.101 9.715 11.683 C10.392 12.868 11.064 14.055 11.731 15.245 C12.752 17.066 13.787 18.878 14.824 20.689 C19.835 29.506 19.835 29.506 21 33 C21.66 33 22.32 33 23 33 C23.266 32.29 23.533 31.581 23.807 30.85 C25.993 25.628 28.979 20.829 31.812 15.938 C32.429 14.849 33.046 13.76 33.682 12.639 C34.288 11.591 34.895 10.544 35.52 9.465 C35.793 8.988 35.793 8.988 37.179 6.578 C39.168 3.762 41.174 1.959 44 0 C47.204 -0.53 49.942 -0.07 53 1 C55.625 3.625 55.625 3.625 57 7 C56.921 13.904 53.534 18.726 49.938 24.438 C47.978 27.593 46.019 30.749 44 34 C58.19 34 72.38 34 87 34 C81.062 24.375 81.062 24.375 79.192 21.376 C74.084 12.977 74.084 12.977 74 8 C75.529 4.025 76.428 2.381 80 0 C84.335 -0.573 86.318 -0.474 89.949 2.047 C93.409 5.095 95.389 8.636 97.5 12.688 C98.268 14.111 99.038 15.535 99.809 16.957 C100.178 17.646 100.548 18.335 100.929 19.045 C102.823 22.503 104.914 25.838 107.004 29.18 C108 31 108 31 108 33 C110.975 30.382 112.69 27.325 114.652 23.906 C115.353 22.699 116.054 21.492 116.756 20.285 C117.849 18.391 118.94 16.495 120.027 14.597 C121.082 12.758 122.148 10.926 123.215 9.094 C123.845 7.997 124.475 6.901 125.125 5.771 C126.922 3.115 128.245 1.596 131 0 C135.246 -0.54 137.258 -0.484 140.875 1.875 C143.393 4.393 143.901 5.391 144.469 8.898 C144.371 14.837 140.508 19.73 137.5 24.625 C136.864 25.692 136.228 26.758 135.572 27.857 C132.87 32.368 130.127 36.846 127.254 41.25 C126.875 41.837 126.496 42.424 126.105 43.029 C125.142 44.503 124.152 45.959 123.16 47.414 C121.646 50.79 122.138 52.428 123 56 C124.373 58.744 124.373 58.744 126.148 61.586 C126.815 62.666 127.481 63.745 128.167 64.857 C128.526 65.429 128.885 66.001 129.255 66.59 C130.796 69.045 132.315 71.514 133.836 73.983 C134.643 75.293 135.451 76.602 136.26 77.911 C140.456 84.709 144.535 91.575 148.6 98.451 C149.807 100.49 151.015 102.528 152.224 104.566 C155.144 109.488 158.062 114.411 160.971 119.339 C162.664 122.208 164.362 125.073 166.062 127.938 C166.304 128.349 166.304 128.349 167.525 130.43 C170.773 135.886 170.773 135.886 173 137 C173.25 136.321 173.5 135.641 173.758 134.941 C175.227 131.463 177.011 128.215 178.875 124.938 C179.073 124.587 179.073 124.587 180.077 122.814 C183.572 116.678 187.191 110.619 190.84 104.573 C196.311 95.505 201.711 86.397 207.112 77.288 C207.913 75.937 208.715 74.587 209.516 73.237 C210.284 71.941 211.05 70.644 211.813 69.346 C213.471 66.533 215.154 63.764 216.938 61.028 C220.938 54.857 220.938 54.857 221.219 50.965 C219.404 46.551 217.026 42.602 214.5 38.562 C213.964 37.683 213.428 36.804 212.876 35.897 C210.364 31.781 207.811 27.693 205.203 23.637 C204.786 22.975 204.369 22.314 203.939 21.633 C203.173 20.419 202.391 19.214 201.592 18.022 C198.708 13.434 198.499 10.252 199 5 C200.989 2.016 202.385 0.397 205.938 -0.477 C208.27 -0.644 209.757 -0.722 212 0 C215.709 3.366 218.376 6.846 220.988 11.105 C221.162 11.388 221.162 11.388 222.043 12.818 C222.77 14.002 223.493 15.188 224.213 16.376 C225.319 18.198 226.437 20.012 227.557 21.826 C233 30.719 233 30.719 233 33 C233.66 33 234.32 33 235 33 C235.133 32.561 235.133 32.561 235.807 30.342 C237.738 24.932 240.827 20.261 243.812 15.375 C244.429 14.339 245.046 13.302 245.682 12.234 C246.288 11.237 246.895 10.239 247.52 9.211 C247.793 8.759 247.793 8.759 249.179 6.47 C251.192 3.74 253.211 1.921 256 0 C259.466 -0.505 261.491 -0.197 264.75 1.062 C267.936 3.806 268.448 5.862 269 10 C265.416 18.363 260.613 26.158 256 34 C270.19 34.33 284.38 34.66 299 35 C290 19 290 19 286 12 C285.514 8.796 286.093 7.254 287 4 C289.739 0.777 291.315 0.098 295.5 -0.5 C299.654 0.093 300.952 1.181 304 4 C305.821 6.578 305.821 6.578 307.48 9.465 C307.784 9.989 307.784 9.989 309.318 12.639 C309.627 13.183 309.627 13.183 311.188 15.938 C311.816 17.022 312.444 18.107 313.092 19.225 C315.689 23.744 318.164 28.111 320 33 C322.903 30.441 324.532 27.529 326.398 24.16 C327.043 23.015 327.688 21.869 328.352 20.689 C329.365 18.877 330.375 17.063 331.379 15.245 C332.355 13.483 333.346 11.728 334.336 9.973 C334.919 8.923 335.502 7.874 336.103 6.793 C338.125 3.815 340.011 1.99 343 0 C347.286 -0.612 349.226 -0.505 352.875 1.875 C355.791 4.791 355.982 5.464 356.125 9.688 C355.237 16.53 351.11 21.944 347.483 27.631 C344.535 32.34 341.751 37.148 338.938 41.938 C337.801 43.863 336.664 45.789 335.527 47.715 C334.685 49.143 333.842 50.572 333 52 C338.543 61.77 344.195 71.47 349.938 81.125 C350.346 81.813 350.755 82.501 351.176 83.21 C357.237 93.412 363.363 103.573 369.54 113.705 C375.263 123.096 380.898 132.536 386.5 142 C392.18 151.596 397.894 161.17 403.691 170.696 C404.74 172.421 405.785 174.149 406.83 175.877 C409.94 181.013 413.068 186.132 416.299 191.193 C417.38 192.891 418.449 194.597 419.519 196.303 C420.836 198.405 422.173 200.495 423.532 202.57 C427.604 209.124 429.151 214.276 428 222 C426.292 226.316 424.136 228.011 420 230 C417.142 230.283 414.507 230.403 411.653 230.378 C410.811 230.382 409.969 230.386 409.102 230.391 C406.269 230.402 403.436 230.391 400.602 230.381 C398.556 230.384 396.509 230.389 394.462 230.395 C388.828 230.408 383.194 230.401 377.56 230.392 C371.487 230.385 365.415 230.396 359.343 230.404 C348.131 230.417 336.92 230.416 325.708 230.407 C315.351 230.4 304.995 230.398 294.638 230.401 C294.295 230.402 294.295 230.402 292.558 230.402 C289.771 230.403 286.984 230.404 284.197 230.405 C258.046 230.414 231.894 230.406 205.743 230.39 C182.501 230.375 159.259 230.377 136.017 230.391 C109.914 230.407 83.811 230.414 57.707 230.404 C54.926 230.403 52.144 230.402 49.362 230.401 C49.019 230.401 49.019 230.401 47.286 230.401 C36.935 230.397 26.584 230.401 16.233 230.409 C4.465 230.417 -7.303 230.415 -19.07 230.399 C-25.078 230.391 -31.085 230.388 -37.093 230.398 C-42.588 230.407 -48.082 230.402 -53.577 230.386 C-55.569 230.383 -57.562 230.384 -59.554 230.392 C-62.254 230.401 -64.953 230.392 -67.653 230.378 C-68.043 230.381 -68.043 230.381 -70.02 230.399 C-74.533 230.352 -77.396 229.759 -81 227 C-84.456 223.187 -84.595 219.172 -84.533 214.232 C-83.452 207.682 -79.546 202.28 -76.062 196.75 C-75.265 195.445 -74.471 194.138 -73.678 192.831 C-72.139 190.299 -70.589 187.776 -69.024 185.261 C-66.786 181.656 -64.606 178.022 -62.438 174.375 C-61.763 173.257 -61.089 172.14 -60.395 170.988 C-57.109 165.53 -53.871 160.044 -50.625 154.562 C-49.228 152.203 -47.831 149.844 -46.434 147.484 C-46.074 146.878 -45.715 146.271 -45.345 145.646 C-40.334 137.186 -35.313 128.732 -30.291 120.278 C-29.486 118.922 -28.68 117.567 -27.875 116.211 C-27.475 115.537 -27.074 114.863 -26.662 114.169 C-24.204 110.03 -21.749 105.889 -19.296 101.747 C-18.475 100.361 -17.654 98.976 -16.832 97.591 C-14.823 94.203 -12.819 90.812 -10.829 87.412 C-7.209 81.25 -3.518 75.202 0.516 69.301 C0.859 68.786 0.859 68.786 2.594 66.18 C3.862 64.293 5.167 62.432 6.517 60.603 C8.246 57.996 9.367 56.067 10 53 C8.784 48.496 6.518 44.896 4 41 C2.986 39.258 1.974 37.515 0.965 35.77 C-0.04 34.114 -1.049 32.462 -2.062 30.812 C-4.055 27.55 -6.037 24.281 -8 21 C-8.244 20.593 -8.244 20.593 -9.479 18.536 C-9.936 17.751 -10.393 16.965 -10.863 16.156 C-11.272 15.46 -11.681 14.763 -12.103 14.045 C-13.758 10.272 -13.193 7.912 -12 4 C-8.438 -0.19 -5.362 -0.766 0 0 Z " fill="#F19B1F" transform="translate(84,260)"/>
<path d="M0 0 C3.34 0.855 4.937 2.808 6.938 5.496 C6.938 6.486 6.938 7.476 6.938 8.496 C7.938 8.494 8.938 8.492 9.969 8.491 C34.297 8.446 58.625 8.413 82.953 8.392 C94.718 8.382 106.483 8.368 118.247 8.345 C128.5 8.325 138.753 8.312 149.006 8.308 C154.436 8.305 159.866 8.299 165.296 8.285 C170.405 8.271 175.514 8.267 180.624 8.27 C182.5 8.269 184.377 8.265 186.253 8.258 C188.813 8.248 191.373 8.25 193.933 8.256 C194.677 8.25 195.422 8.244 196.188 8.238 C201.253 8.267 205.014 8.62 208.725 12.24 C210.301 15.173 210.321 17.274 210.332 20.6 C210.343 21.852 210.355 23.104 210.366 24.394 C210.364 25.779 210.361 27.164 210.357 28.549 C210.365 30.009 210.373 31.469 210.383 32.93 C210.405 36.895 210.408 40.859 210.406 44.824 C210.406 48.135 210.415 51.445 210.423 54.755 C210.442 62.564 210.445 70.374 210.438 78.183 C210.432 86.239 210.455 94.295 210.492 102.351 C210.522 109.268 210.534 116.185 210.53 123.102 C210.528 127.234 210.533 131.364 210.558 135.496 C210.58 139.381 210.578 143.265 210.558 147.15 C210.555 148.575 210.56 150 210.574 151.425 C210.592 153.372 210.576 155.318 210.559 157.265 C210.56 158.354 210.56 159.443 210.561 160.565 C209.694 164.639 208.296 166.066 204.938 168.496 C202.031 168.978 199.718 169.153 196.819 169.097 C196.007 169.102 195.194 169.106 194.356 169.11 C191.635 169.119 188.915 169.091 186.194 169.064 C184.243 169.062 182.291 169.063 180.34 169.066 C175.042 169.067 169.746 169.038 164.449 169.003 C158.913 168.972 153.377 168.969 147.841 168.963 C137.357 168.947 126.875 168.906 116.392 168.856 C104.457 168.8 92.523 168.773 80.588 168.748 C56.038 168.695 31.488 168.607 6.938 168.496 C6.942 169.239 6.947 169.981 6.951 170.747 C7.062 188.816 7.145 206.885 7.197 224.954 C7.222 233.692 7.258 242.43 7.315 251.168 C7.365 258.784 7.397 266.4 7.408 274.016 C7.414 278.049 7.43 282.081 7.466 286.114 C7.5 289.91 7.511 293.706 7.503 297.502 C7.504 298.895 7.514 300.288 7.534 301.681 C7.689 313.526 7.689 313.526 4.531 316.822 C2.056 318.42 0.841 319.18 -2.062 319.121 C-2.702 319.134 -3.341 319.147 -4 319.16 C-7.303 318.097 -9.328 316.442 -11.062 313.496 C-11.827 309.418 -11.737 305.374 -11.697 301.236 C-11.705 299.977 -11.713 298.719 -11.721 297.422 C-11.742 293.931 -11.732 290.441 -11.716 286.95 C-11.705 283.184 -11.722 279.419 -11.736 275.653 C-11.758 268.277 -11.753 260.902 -11.739 253.526 C-11.728 247.532 -11.726 241.538 -11.732 235.544 C-11.732 234.692 -11.733 233.839 -11.734 232.96 C-11.735 231.228 -11.737 229.496 -11.739 227.764 C-11.753 211.517 -11.737 195.27 -11.71 179.023 C-11.687 165.079 -11.691 151.135 -11.714 137.19 C-11.741 121.002 -11.752 104.814 -11.736 88.625 C-11.735 86.9 -11.733 85.174 -11.732 83.448 C-11.731 82.599 -11.73 81.75 -11.729 80.875 C-11.725 74.887 -11.732 68.9 -11.744 62.912 C-11.758 55.617 -11.754 48.321 -11.728 41.026 C-11.714 37.302 -11.709 33.58 -11.726 29.856 C-11.743 25.823 -11.722 21.79 -11.697 17.757 C-11.703 17.166 -11.703 17.166 -11.731 14.18 C-11.625 5.373 -11.625 5.373 -8.652 2.271 C-5.414 0.052 -3.803 -0.238 0 0 Z " fill="#FF5364" transform="translate(258.0625,21.50390625)"/>
<path d="M0 0 C5.253 1.691 8.309 7.299 11.051 11.77 C11.399 12.335 11.747 12.9 12.106 13.482 C12.832 14.666 13.556 15.852 14.276 17.04 C15.381 18.862 16.499 20.676 17.619 22.49 C23.062 31.383 23.062 31.383 23.062 33.664 C23.722 33.664 24.382 33.664 25.062 33.664 C25.329 32.787 25.595 31.91 25.87 31.006 C27.801 25.596 30.89 20.926 33.875 16.039 C34.492 15.003 35.109 13.966 35.744 12.898 C36.351 11.901 36.957 10.903 37.582 9.875 C38.13 8.971 38.677 8.066 39.241 7.134 C41.254 4.404 43.274 2.585 46.062 0.664 C49.528 0.159 51.553 0.467 54.812 1.727 C57.999 4.47 58.511 6.526 59.062 10.664 C55.479 19.027 50.675 26.822 46.062 34.664 C60.252 34.994 74.442 35.324 89.062 35.664 C80.062 19.664 80.062 19.664 76.062 12.664 C75.577 9.46 76.156 7.918 77.062 4.664 C79.802 1.441 81.377 0.762 85.562 0.164 C89.717 0.758 91.014 1.846 94.062 4.664 C95.884 7.242 95.884 7.242 97.543 10.129 C97.846 10.653 97.846 10.653 99.381 13.303 C99.998 14.391 100.614 15.48 101.25 16.602 C101.878 17.686 102.507 18.771 103.154 19.889 C105.751 24.408 108.227 28.775 110.062 33.664 C112.966 31.105 114.594 28.193 116.461 24.824 C117.105 23.679 117.75 22.534 118.414 21.354 C119.427 19.541 120.437 17.727 121.441 15.909 C122.418 14.147 123.408 12.392 124.398 10.637 C124.982 9.588 125.565 8.538 126.166 7.457 C128.188 4.48 130.073 2.655 133.062 0.664 C137.348 0.052 139.289 0.16 142.938 2.539 C145.854 5.455 146.044 6.128 146.188 10.352 C145.3 17.194 141.173 22.608 137.545 28.295 C134.598 33.004 131.814 37.812 129 42.602 C127.864 44.528 126.727 46.453 125.59 48.379 C124.747 49.807 123.905 51.236 123.062 52.664 C128.606 62.435 134.258 72.134 140 81.789 C140.409 82.477 140.818 83.165 141.239 83.875 C147.3 94.076 153.425 104.237 159.602 114.369 C165.325 123.76 170.961 133.2 176.562 142.664 C182.243 152.26 187.956 161.834 193.754 171.36 C194.803 173.085 195.848 174.813 196.892 176.541 C200.002 181.677 203.131 186.796 206.361 191.857 C207.442 193.555 208.512 195.261 209.581 196.967 C210.899 199.069 212.236 201.159 213.595 203.234 C217.667 209.788 219.213 214.94 218.062 222.664 C216.355 226.978 214.208 228.694 210.062 230.664 C207.116 231.083 204.205 231.044 201.233 231.005 C200.794 231.005 200.794 231.005 198.571 231.006 C195.676 231.004 192.782 230.981 189.887 230.957 C187.876 230.951 185.865 230.947 183.855 230.944 C178.569 230.933 173.284 230.903 167.999 230.87 C162.603 230.839 157.207 230.826 151.811 230.811 C141.228 230.778 130.645 230.727 120.062 230.664 C120.84 230.062 121.617 229.46 122.418 228.84 C126.41 225.556 128.855 222.652 129.402 217.414 C129.007 213.051 127.546 210.134 125.312 206.477 C124.909 205.789 124.506 205.101 124.09 204.392 C122.763 202.139 121.414 199.901 120.062 197.664 C119.159 196.151 118.257 194.638 117.355 193.125 C115.385 189.826 113.404 186.532 111.418 183.242 C107.684 177.048 103.997 170.826 100.312 164.602 C99.629 163.446 98.945 162.291 98.261 161.136 C96.878 158.801 95.496 156.465 94.114 154.13 C90.828 148.578 87.539 143.027 84.25 137.477 C83.598 136.376 82.946 135.276 82.274 134.142 C76.238 123.956 70.192 113.775 64.145 103.594 C60.334 97.177 56.525 90.759 52.723 84.336 C46.627 74.038 40.527 63.741 34.375 53.477 C33.906 52.693 33.437 51.91 32.953 51.103 C30.043 46.256 27.075 41.448 24.062 36.664 C20.507 41.89 17.123 47.132 14.062 52.664 C13.402 52.664 12.743 52.664 12.062 52.664 C10.693 50.699 10.693 50.699 9.121 47.941 C8.541 46.935 7.961 45.928 7.364 44.891 C7.056 44.348 7.056 44.348 5.5 41.602 C4.237 39.391 2.973 37.182 1.707 34.973 C1.088 33.891 0.469 32.809 -0.169 31.695 C-1.685 29.097 -3.244 26.546 -4.863 24.012 C-5.283 23.349 -5.704 22.685 -6.136 22.002 C-7.233 20.288 -8.346 18.585 -9.461 16.883 C-11.377 12.707 -11.362 10.226 -10.938 5.664 C-7.884 1.085 -5.229 0.105 0 0 Z " fill="#E47D25" transform="translate(293.9375,259.3359375)"/>
<path d="M0 0 C4.12 2.748 6.306 5.697 8.734 9.973 C8.896 10.255 8.896 10.255 9.715 11.683 C10.392 12.868 11.064 14.055 11.731 15.245 C12.752 17.066 13.787 18.878 14.824 20.689 C19.835 29.506 19.835 29.506 21 33 C21.66 33 22.32 33 23 33 C23.266 32.29 23.533 31.581 23.807 30.85 C25.993 25.628 28.979 20.829 31.812 15.938 C32.429 14.849 33.046 13.76 33.682 12.639 C34.288 11.591 34.895 10.544 35.52 9.465 C36.067 8.512 36.615 7.559 37.179 6.578 C39.168 3.762 41.174 1.959 44 0 C47.204 -0.53 49.942 -0.07 53 1 C55.625 3.625 55.625 3.625 57 7 C56.921 13.904 53.534 18.726 49.938 24.438 C47.978 27.593 46.019 30.749 44 34 C58.19 34 72.38 34 87 34 C81.062 24.375 81.062 24.375 79.192 21.376 C74.084 12.977 74.084 12.977 74 8 C75.529 4.025 76.428 2.381 80 0 C84.335 -0.573 86.318 -0.474 89.949 2.047 C93.409 5.095 95.389 8.636 97.5 12.688 C98.268 14.111 99.038 15.535 99.809 16.957 C99.993 17.302 99.993 17.302 100.929 19.045 C102.823 22.503 104.914 25.838 107.004 29.18 C108 31 108 31 108 33 C110.975 30.382 112.69 27.325 114.652 23.906 C115.353 22.699 116.054 21.492 116.756 20.285 C117.849 18.391 118.94 16.495 120.027 14.597 C121.082 12.758 122.148 10.926 123.215 9.094 C123.845 7.997 124.475 6.901 125.125 5.771 C126.922 3.115 128.245 1.596 131 0 C135.246 -0.54 137.258 -0.484 140.875 1.875 C143.393 4.393 143.901 5.391 144.469 8.898 C144.371 14.837 140.508 19.73 137.5 24.625 C136.864 25.692 136.228 26.758 135.572 27.857 C132.87 32.368 130.127 36.846 127.254 41.25 C126.875 41.837 126.496 42.424 126.105 43.029 C125.142 44.503 124.152 45.959 123.16 47.414 C121.646 50.79 122.138 52.428 123 56 C124.373 58.744 124.373 58.744 126.148 61.586 C126.815 62.665 127.481 63.745 128.167 64.857 C128.346 65.143 128.346 65.143 129.254 66.589 C131.202 69.692 133.117 72.815 135.039 75.934 C135.444 76.588 135.848 77.242 136.265 77.916 C141.276 86.035 146.113 94.257 150.951 102.479 C154.917 109.217 158.903 115.92 163.16 122.48 C163.782 123.446 164.405 124.412 165.046 125.406 C166.186 127.161 167.343 128.905 168.521 130.635 C172.097 136.147 172.097 136.147 171.664 139.969 C171.389 140.469 171.389 140.469 170 143 C169.819 143.331 169.819 143.331 168.902 145.007 C167.505 147.495 166.04 149.934 164.562 152.375 C163.393 154.329 162.224 156.284 161.055 158.238 C160.412 159.308 159.77 160.377 159.108 161.479 C156.789 165.346 154.492 169.225 152.195 173.105 C151.359 174.518 150.522 175.931 149.685 177.344 C148.451 179.428 147.217 181.513 145.983 183.597 C144.817 185.567 143.649 187.536 142.48 189.504 C142.107 190.133 141.733 190.763 141.348 191.411 C138.147 196.789 134.852 202.105 131.525 207.406 C130 210 130 210 129 213 C128.34 213 127.68 213 127 213 C126.669 212.408 126.338 211.816 125.997 211.206 C119.308 199.26 112.509 187.4 105.426 175.684 C101.098 168.521 96.832 161.322 92.562 154.125 C92.149 153.428 91.736 152.732 91.31 152.014 C85.858 142.827 80.416 133.634 74.986 124.435 C69.419 115.007 63.826 105.595 58.234 96.183 C54.019 89.088 49.808 81.991 45.605 74.889 C43.301 70.996 40.993 67.105 38.684 63.215 C36.247 59.11 33.824 54.997 31.41 50.879 C30.315 49.023 29.22 47.168 28.125 45.312 C27.631 44.462 27.136 43.612 26.627 42.735 C26.175 41.973 25.723 41.211 25.258 40.426 C24.867 39.76 24.477 39.094 24.075 38.407 C23.72 37.943 23.365 37.479 23 37 C22.34 37 21.68 37 21 37 C19.258 39.745 17.657 42.528 16.098 45.379 C15.07 47.156 15.07 47.156 13 50 C11.68 50 10.36 50 9 50 C7.461 47.996 6.28 46.164 5.066 43.973 C4.707 43.35 4.347 42.728 3.976 42.087 C2.824 40.086 1.693 38.075 0.562 36.062 C-0.195 34.741 -0.953 33.42 -1.713 32.1 C-3.174 29.555 -4.622 27.004 -6.059 24.445 C-7.237 22.354 -8.429 20.271 -9.645 18.202 C-10.101 17.419 -10.557 16.635 -11.027 15.828 C-11.413 15.179 -11.798 14.529 -12.195 13.86 C-13.776 10.205 -13.15 7.768 -12 4 C-8.438 -0.19 -5.362 -0.766 0 0 Z " fill="#E57D24" transform="translate(84,260)"/>
<path d="M0 0 C0.639 -0.013 1.279 -0.026 1.938 -0.039 C5.241 1.025 7.266 2.679 9 5.625 C9.765 9.703 9.674 13.747 9.635 17.885 C9.643 19.144 9.651 20.402 9.659 21.699 C9.679 25.19 9.669 28.68 9.654 32.171 C9.642 35.937 9.66 39.702 9.674 43.468 C9.696 50.844 9.691 58.219 9.676 65.595 C9.665 71.589 9.664 77.583 9.669 83.577 C9.67 84.429 9.671 85.282 9.671 86.161 C9.673 87.893 9.675 89.625 9.676 91.357 C9.691 107.604 9.674 123.851 9.647 140.098 C9.625 154.042 9.629 167.986 9.652 181.931 C9.679 198.119 9.689 214.307 9.674 230.496 C9.672 232.222 9.671 233.947 9.669 235.673 C9.668 236.522 9.668 237.372 9.667 238.246 C9.662 244.234 9.67 250.221 9.681 256.209 C9.695 263.504 9.692 270.8 9.665 278.095 C9.652 281.819 9.647 285.541 9.663 289.265 C9.681 293.298 9.66 297.331 9.635 301.365 C9.646 302.545 9.657 303.725 9.669 304.942 C9.562 313.748 9.562 313.748 6.589 316.85 C4.104 318.554 2.963 319.31 0 319.25 C-0.639 319.263 -1.279 319.276 -1.938 319.289 C-5.241 318.225 -7.266 316.571 -9 313.625 C-9.765 309.547 -9.674 305.503 -9.635 301.365 C-9.643 300.106 -9.651 298.848 -9.659 297.551 C-9.679 294.06 -9.669 290.57 -9.654 287.079 C-9.642 283.313 -9.66 279.548 -9.674 275.782 C-9.696 268.406 -9.691 261.031 -9.676 253.655 C-9.665 247.661 -9.664 241.667 -9.669 235.673 C-9.67 234.821 -9.671 233.968 -9.671 233.089 C-9.673 231.357 -9.675 229.625 -9.676 227.893 C-9.691 211.646 -9.674 195.399 -9.647 179.152 C-9.625 165.208 -9.629 151.264 -9.652 137.319 C-9.679 121.131 -9.689 104.943 -9.674 88.754 C-9.672 87.028 -9.671 85.303 -9.669 83.577 C-9.668 82.728 -9.668 81.878 -9.667 81.004 C-9.662 75.016 -9.67 69.029 -9.681 63.041 C-9.695 55.746 -9.692 48.45 -9.665 41.155 C-9.652 37.431 -9.647 33.709 -9.663 29.985 C-9.681 25.952 -9.66 21.919 -9.635 17.885 C-9.64 17.295 -9.64 17.295 -9.669 14.308 C-9.562 5.502 -9.562 5.502 -6.589 2.4 C-4.104 0.696 -2.963 -0.06 0 0 Z " fill="#CB8152" transform="translate(256,21.375)"/>
<path d="M0 0 C1.046 -0.021 2.092 -0.041 3.17 -0.062 C4.182 -0.068 5.195 -0.073 6.238 -0.078 C6.701 -0.083 6.701 -0.083 9.04 -0.106 C12.223 0.322 14.098 1.38 16.688 3.25 C17.94 5.755 17.801 7.459 17.785 10.258 C17.782 11.244 17.779 12.23 17.775 13.246 C17.771 13.762 17.771 13.762 17.75 16.375 C17.745 17.415 17.741 18.456 17.736 19.527 C17.725 22.102 17.708 24.676 17.688 27.25 C18.008 27.237 18.008 27.237 19.628 27.171 C22.543 27.066 25.458 27.002 28.375 26.938 C29.382 26.896 30.39 26.854 31.428 26.811 C35.942 26.736 38.867 26.791 42.855 29.023 C45.669 33.979 45.413 38.586 45.312 44.188 C45.332 45.259 45.351 46.331 45.371 47.436 C45.317 56.186 45.317 56.186 42.824 59.98 C38.233 63.303 34.388 62.914 28.875 62.625 C27.896 62.598 26.917 62.571 25.908 62.543 C23.499 62.472 21.094 62.374 18.688 62.25 C18.714 62.824 18.74 63.399 18.767 63.991 C18.871 66.619 18.936 69.246 19 71.875 C19.021 72.327 19.021 72.327 19.127 74.613 C19.208 79.03 18.897 81.807 16.98 85.852 C13.472 89.35 8.946 89.038 4.25 89.07 C3.074 89.047 1.899 89.024 0.688 89 C-0.488 89.023 -1.664 89.046 -2.875 89.07 C-12.444 89.005 -12.444 89.005 -15.605 85.852 C-17.894 81.024 -17.869 77.139 -17.625 71.875 C-17.602 70.948 -17.58 70.021 -17.557 69.066 C-17.498 66.793 -17.416 64.522 -17.312 62.25 C-17.922 62.281 -18.532 62.313 -19.161 62.345 C-21.94 62.47 -24.719 62.548 -27.5 62.625 C-28.46 62.675 -29.419 62.726 -30.408 62.777 C-35.128 62.875 -37.545 62.805 -41.449 59.98 C-44.546 55.267 -44.035 49.615 -43.938 44.188 C-43.957 43.112 -43.976 42.036 -43.996 40.928 C-43.967 36.243 -43.817 33.124 -41.449 29.023 C-36.811 26.401 -32.727 26.709 -27.5 26.938 C-27.01 26.949 -27.01 26.949 -24.533 27.006 C-22.125 27.065 -19.719 27.147 -17.312 27.25 C-17.333 26.64 -17.354 26.03 -17.376 25.402 C-17.459 22.622 -17.511 19.843 -17.562 17.062 C-17.596 16.103 -17.63 15.143 -17.664 14.154 C-17.763 6.992 -17.763 6.992 -15.422 3.137 C-10.873 -0.932 -5.837 0.028 0 0 Z " fill="#FFFDFD" transform="translate(361.3125,65.75)"/>
<path d="M0 0 C2.722 2.436 4.297 5.057 6.047 8.25 C6.342 8.785 6.342 8.785 7.835 11.492 C8.467 12.649 9.099 13.807 9.75 15 C10.417 16.213 11.085 17.425 11.753 18.637 C13.144 21.161 14.532 23.686 15.918 26.212 C19.157 32.11 22.421 37.993 25.688 43.875 C25.995 44.429 25.995 44.429 27.55 47.234 C32.126 55.471 36.777 63.664 41.497 71.82 C41.729 72.222 41.729 72.222 42.902 74.258 C43.31 74.961 43.717 75.663 44.136 76.387 C45 78 45 78 45 79 C15.96 79 -13.08 79 -43 79 C-38.128 69.256 -33.269 59.662 -27.938 50.188 C-26.969 48.455 -26 46.722 -25.032 44.99 C-24.033 43.203 -23.032 41.417 -22.032 39.631 C-18.956 34.138 -15.903 28.633 -12.848 23.128 C-11.314 20.364 -9.778 17.6 -8.242 14.836 C-7.967 14.341 -7.967 14.341 -6.577 11.839 C-4.385 7.893 -2.192 3.946 0 0 Z " fill="#D25626" transform="translate(317,411)"/>
<path d="M0 0 C0.66 0 1.32 0 2 0 C3.524 2.743 5.047 5.485 6.571 8.228 C7.917 10.65 9.263 13.073 10.609 15.495 C14.035 21.661 17.459 27.827 20.879 33.996 C22.127 36.247 23.376 38.499 24.625 40.75 C25.237 41.853 25.849 42.956 26.479 44.093 C31.313 52.795 36.205 61.464 41.141 70.108 C41.396 70.556 41.396 70.556 42.684 72.82 C43.133 73.607 43.582 74.393 44.045 75.204 C45 77 45 77 45 78 C15.96 78 -13.08 78 -43 78 C-33.9 59.8 -33.9 59.8 -29 51.312 C-23.415 41.541 -17.952 31.707 -12.548 21.834 C-9.304 15.907 -6.043 9.989 -2.652 4.145 C-2.42 3.742 -2.42 3.742 -1.242 1.706 C-0.832 1.143 -0.422 0.58 0 0 Z " fill="#D25626" transform="translate(105,412)"/>
<path d="M0 0 C5.253 1.691 8.309 7.299 11.051 11.77 C11.399 12.335 11.747 12.9 12.106 13.482 C12.832 14.666 13.556 15.852 14.276 17.04 C15.381 18.862 16.499 20.676 17.619 22.49 C23.062 31.383 23.062 31.383 23.062 33.664 C23.722 33.664 24.382 33.664 25.062 33.664 C25.329 32.787 25.595 31.91 25.87 31.006 C27.801 25.596 30.89 20.926 33.875 16.039 C34.492 15.003 35.109 13.966 35.744 12.898 C36.351 11.901 36.957 10.903 37.582 9.875 C38.13 8.971 38.677 8.066 39.241 7.134 C41.254 4.404 43.274 2.585 46.062 0.664 C49.528 0.159 51.553 0.467 54.812 1.727 C57.999 4.47 58.511 6.526 59.062 10.664 C57.069 16.144 54.234 21.045 51.25 26.039 C50.806 26.789 50.361 27.538 49.904 28.31 C47.184 32.87 44.386 37.354 41.371 41.727 C39.506 44.488 37.823 47.354 36.141 50.23 C35.785 50.704 35.429 51.177 35.062 51.664 C34.403 51.664 33.743 51.664 33.062 51.664 C31.431 49.19 29.915 46.727 28.438 44.164 C28.017 43.449 27.597 42.733 27.164 41.996 C26.124 40.223 25.092 38.444 24.062 36.664 C20.507 41.89 17.123 47.132 14.062 52.664 C13.402 52.664 12.743 52.664 12.062 52.664 C10.693 50.699 10.693 50.699 9.121 47.941 C8.541 46.935 7.961 45.928 7.364 44.891 C7.056 44.348 7.056 44.348 5.5 41.602 C4.237 39.391 2.973 37.182 1.707 34.973 C1.088 33.891 0.469 32.809 -0.169 31.695 C-1.685 29.097 -3.244 26.546 -4.863 24.012 C-5.283 23.349 -5.704 22.685 -6.136 22.002 C-7.233 20.288 -8.346 18.585 -9.461 16.883 C-11.377 12.707 -11.362 10.226 -10.938 5.664 C-7.884 1.085 -5.229 0.105 0 0 Z " fill="#A56942" transform="translate(293.9375,259.3359375)"/>
<path d="M0 0 C4.12 2.748 6.306 5.697 8.734 9.973 C8.896 10.255 8.896 10.255 9.715 11.683 C10.392 12.868 11.064 14.055 11.731 15.245 C12.752 17.066 13.787 18.878 14.824 20.689 C19.835 29.506 19.835 29.506 21 33 C21.66 33 22.32 33 23 33 C23.266 32.29 23.533 31.581 23.807 30.85 C25.993 25.628 28.979 20.829 31.812 15.938 C32.429 14.849 33.046 13.76 33.682 12.639 C34.288 11.591 34.895 10.544 35.52 9.465 C36.067 8.512 36.615 7.559 37.179 6.578 C39.168 3.762 41.174 1.959 44 0 C47.204 -0.53 49.942 -0.07 53 1 C55.625 3.625 55.625 3.625 57 7 C56.873 13.71 53.815 18.3 50.312 23.875 C49.795 24.722 49.277 25.569 48.744 26.441 C45.706 31.382 42.532 36.218 39.297 41.031 C37.791 43.318 36.425 45.654 35.125 48.062 C34.715 48.817 34.305 49.571 33.883 50.348 C33.591 50.893 33.3 51.438 33 52 C29.109 48.609 27.08 43.978 24.621 39.52 C24.086 38.688 23.551 37.857 23 37 C22.34 37 21.68 37 21 37 C19.258 39.745 17.657 42.528 16.098 45.379 C15.07 47.156 15.07 47.156 13 50 C11.68 50 10.36 50 9 50 C7.461 47.996 6.28 46.164 5.066 43.973 C4.707 43.35 4.347 42.728 3.976 42.087 C2.824 40.086 1.693 38.075 0.562 36.062 C-0.195 34.741 -0.953 33.42 -1.713 32.1 C-3.174 29.555 -4.622 27.004 -6.059 24.445 C-7.237 22.354 -8.429 20.271 -9.645 18.202 C-10.101 17.419 -10.557 16.635 -11.027 15.828 C-11.413 15.179 -11.798 14.529 -12.195 13.86 C-13.776 10.205 -13.15 7.768 -12 4 C-8.438 -0.19 -5.362 -0.766 0 0 Z " fill="#A56A43" transform="translate(84,260)"/>
<path d="M0 0 C3.921 2.649 6.137 5.387 8.48 9.465 C9.087 10.512 9.693 11.56 10.318 12.639 C10.935 13.727 11.552 14.816 12.188 15.938 C12.816 17.022 13.444 18.107 14.092 19.225 C16.689 23.744 19.164 28.111 21 33 C23.903 30.441 25.532 27.529 27.398 24.16 C28.043 23.015 28.688 21.869 29.352 20.689 C30.365 18.877 31.375 17.063 32.379 15.245 C33.355 13.483 34.346 11.728 35.336 9.973 C35.919 8.923 36.502 7.874 37.103 6.793 C39.125 3.815 41.011 1.99 44 0 C48.286 -0.612 50.226 -0.505 53.875 1.875 C56.791 4.791 56.982 5.464 57.125 9.688 C56.237 16.53 52.11 21.944 48.483 27.631 C45.535 32.34 42.751 37.148 39.938 41.938 C38.801 43.863 37.664 45.789 36.527 47.715 C35.685 49.143 34.842 50.572 34 52 C33.01 51.67 32.02 51.34 31 51 C30.305 49.334 29.614 47.666 28.958 45.984 C27.477 42.456 26.023 39.44 23 37 C18.519 35.717 14.037 35.845 9.415 36.084 C2.497 36.418 2.497 36.418 -0.277 34.086 C-0.846 33.068 -1.414 32.049 -2 31 C-2.943 29.545 -3.887 28.09 -4.832 26.637 C-5.83 24.99 -6.824 23.34 -7.812 21.688 C-8.07 21.279 -8.07 21.279 -9.373 19.213 C-11.736 15.243 -13.431 12.252 -12.957 7.551 C-12 4 -12 4 -9.875 1.5 C-6.224 -0.405 -4.07 -0.581 0 0 Z " fill="#7F5232" transform="translate(383,260)"/>
<path d="M0 0 C5.079 3.525 7.674 7.264 10.5 12.688 C11.268 14.111 12.038 15.535 12.809 16.957 C13.178 17.646 13.548 18.335 13.929 19.045 C15.823 22.503 17.914 25.838 20.004 29.18 C21 31 21 31 21 33 C23.975 30.382 25.69 27.325 27.652 23.906 C28.353 22.699 29.054 21.492 29.756 20.285 C30.849 18.391 31.94 16.495 33.027 14.597 C34.082 12.758 35.148 10.926 36.215 9.094 C36.845 7.997 37.475 6.901 38.125 5.771 C39.922 3.115 41.245 1.596 44 0 C48.246 -0.54 50.258 -0.484 53.875 1.875 C56.397 4.397 56.903 5.391 57.465 8.906 C57.366 14.805 53.556 19.64 50.562 24.5 C49.927 25.557 49.291 26.614 48.636 27.703 C47.36 29.821 46.079 31.936 44.792 34.047 C43.211 36.651 41.664 39.271 40.137 41.906 C39.727 42.609 39.317 43.313 38.894 44.037 C38.148 45.317 37.405 46.6 36.666 47.885 C35.833 49.291 34.925 50.652 34 52 C33.34 52 32.68 52 32 52 C31.227 50.24 30.455 48.48 29.69 46.716 C27.941 42.959 26.248 39.661 23 37 C18.497 35.642 14.023 35.772 9.364 36.033 C2.479 36.407 2.479 36.407 -0.312 34.035 C-0.869 33.034 -1.426 32.032 -2 31 C-2.846 29.667 -3.694 28.335 -4.543 27.004 C-5.429 25.526 -6.31 24.045 -7.188 22.562 C-7.638 21.825 -8.089 21.087 -8.553 20.326 C-10.97 16.249 -12.78 12.848 -13 8 C-10.371 1.164 -7.334 -0.87 0 0 Z " fill="#7F5232" transform="translate(171,260)"/>
<path d="M0 0 C2.625 2.625 2.625 2.625 4 6 C3.873 12.71 0.815 17.3 -2.688 22.875 C-3.205 23.722 -3.723 24.569 -4.256 25.441 C-7.294 30.382 -10.468 35.218 -13.703 40.031 C-15.209 42.318 -16.575 44.654 -17.875 47.062 C-18.285 47.817 -18.695 48.571 -19.117 49.348 C-19.409 49.893 -19.7 50.438 -20 51 C-23.167 48.235 -25.189 44.764 -27.312 41.188 C-27.697 40.584 -28.082 39.98 -28.479 39.357 C-30.21 36.428 -31.084 34.577 -30.59 31.168 C-28.343 26.69 -25.856 22.402 -23.25 18.125 C-22.737 17.265 -22.224 16.405 -21.695 15.52 C-10.51 -3 -10.51 -3 0 0 Z " fill="#805332" transform="translate(137,261)"/>
<path d="M0 0 C3.811 1.473 4.773 2.509 6.5 6.25 C7.44 13.298 2.708 19.484 -0.812 25.375 C-1.257 26.125 -1.701 26.874 -2.159 27.646 C-4.879 32.206 -7.677 36.69 -10.691 41.062 C-12.557 43.824 -14.24 46.69 -15.922 49.566 C-16.278 50.039 -16.633 50.513 -17 51 C-17.66 51 -18.32 51 -19 51 C-20.676 48.633 -22.196 46.291 -23.688 43.812 C-24.116 43.139 -24.545 42.465 -24.986 41.771 C-25.387 41.111 -25.787 40.45 -26.199 39.77 C-26.569 39.167 -26.938 38.565 -27.319 37.945 C-28.274 35.218 -27.857 33.753 -27 31 C-24.98 26.992 -22.663 23.159 -20.363 19.307 C-19.256 17.447 -18.166 15.577 -17.078 13.705 C-16.371 12.51 -15.663 11.315 -14.953 10.121 C-14.315 9.043 -13.678 7.964 -13.021 6.853 C-9.425 1.776 -6.368 -0.929 0 0 Z " fill="#805332" transform="translate(346,260)"/>
<path d="M0 0 C3.925 2.649 6.121 5.373 8.445 9.465 C9.047 10.512 9.649 11.56 10.27 12.639 C10.882 13.727 11.494 14.816 12.125 15.938 C13.357 18.092 14.589 20.247 15.82 22.402 C16.359 23.356 16.898 24.31 17.454 25.293 C18.491 27.109 19.574 28.899 20.699 30.662 C22 33 22 33 22 36 C18.75 36.145 15.502 36.234 12.25 36.312 C11.33 36.354 10.409 36.396 9.461 36.439 C2.661 36.563 2.661 36.563 -0.277 34.062 C-0.846 33.052 -1.414 32.041 -2 31 C-2.943 29.545 -3.887 28.091 -4.832 26.637 C-5.83 24.99 -6.824 23.34 -7.812 21.688 C-8.07 21.279 -8.07 21.279 -9.373 19.213 C-11.736 15.243 -13.431 12.252 -12.957 7.551 C-12 4 -12 4 -9.875 1.5 C-6.224 -0.405 -4.07 -0.581 0 0 Z " fill="#A56A42" transform="translate(383,260)"/>
<path d="M0 0 C5.035 3.503 7.633 7.181 10.438 12.562 C11.205 13.985 11.973 15.407 12.742 16.828 C12.93 17.179 12.93 17.179 13.882 18.955 C16.054 22.927 18.433 26.777 20.785 30.645 C22 33 22 33 22 36 C18.75 36.145 15.502 36.234 12.25 36.312 C11.33 36.354 10.409 36.396 9.461 36.439 C2.654 36.563 2.654 36.563 -0.316 34.008 C-0.594 33.512 -0.594 33.512 -2 31 C-2.846 29.667 -3.694 28.335 -4.543 27.004 C-5.429 25.526 -6.31 24.045 -7.188 22.562 C-7.638 21.825 -8.089 21.087 -8.553 20.326 C-10.97 16.249 -12.78 12.848 -13 8 C-10.371 1.164 -7.334 -0.87 0 0 Z " fill="#A56942" transform="translate(171,260)"/>
<path d="M0 0 C0.66 0 1.32 0 2 0 C2.392 0.908 2.784 1.815 3.188 2.75 C5 6 5 6 10 10 C3.73 10 -2.54 10 -9 10 C-7.68 9.01 -6.36 8.02 -5 7 C-2.375 4.6 -1.137 3.412 0 0 Z " fill="#E57F24" transform="translate(211,480)"/>
</svg>
