<?xml version="1.0" encoding="UTF-8"?>
<!-- Generator: visioncortex VTracer 0.6.12 -->
<svg version="1.1" xmlns="http://www.w3.org/2000/svg" width="512" height="512">
<path d="M0 0 C27.066 24.101 46.528 55.365 54.966 90.75 C54.966 91.41 54.966 92.07 54.966 92.75 C54.091 92.852 53.216 92.954 52.314 93.059 C48.745 93.796 46.488 94.931 43.388 96.821 C42.323 97.462 41.258 98.104 40.16 98.765 C39.6 99.108 39.04 99.452 38.462 99.805 C36.07 101.271 33.665 102.716 31.261 104.162 C30.014 104.912 28.767 105.664 27.521 106.416 C21.322 110.155 15.057 113.774 8.778 117.375 C6.614 118.62 4.45 119.865 2.286 121.11 C1.232 121.716 0.178 122.323 -0.908 122.948 C-15.447 131.332 -29.91 139.847 -44.387 148.337 C-62.904 159.197 -81.447 170.011 -100.034 180.75 C-90.725 187.615 -84.23 189.907 -72.483 189.61 C-71.131 189.607 -69.779 189.609 -68.426 189.614 C-64.906 189.62 -61.387 189.582 -57.867 189.53 C-52.219 189.452 -46.571 189.429 -40.922 189.43 C-38.968 189.423 -37.014 189.387 -35.06 189.35 C-27.377 189.311 -21.306 189.655 -15.487 195.234 C-9.965 201.505 -11.034 204.617 -11.034 213.75 C24.936 213.75 60.906 213.75 97.966 213.75 C97.966 228.396 93.379 239.854 83.29 250.493 C77.894 255.735 69.955 262.75 61.966 262.75 C61.83 263.478 61.695 264.205 61.556 264.954 C58.365 279.854 49.596 292.721 37.032 301.45 C24.929 309.069 12.608 312.083 -1.573 311.856 C-2.031 311.852 -2.031 311.852 -4.346 311.833 C-6.576 311.813 -8.805 311.786 -11.034 311.75 C-11.023 312.685 -11.012 313.619 -11.001 314.582 C-10.899 323.409 -10.824 332.236 -10.775 341.063 C-10.749 345.601 -10.714 350.139 -10.657 354.676 C-10.602 359.059 -10.573 363.442 -10.56 367.826 C-10.551 369.494 -10.533 371.162 -10.506 372.83 C-10.26 388.596 -10.26 388.596 -14.659 394.374 C-20.467 400.185 -25.426 400.873 -33.302 400.891 C-33.668 400.892 -33.668 400.892 -35.524 400.9 C-37.983 400.909 -40.442 400.91 -42.901 400.912 C-44.663 400.916 -46.426 400.921 -48.188 400.927 C-52.978 400.94 -57.767 400.946 -62.556 400.951 C-65.549 400.954 -68.541 400.958 -71.534 400.962 C-80.898 400.976 -90.261 400.986 -99.625 400.989 C-110.432 400.994 -121.24 401.011 -132.047 401.04 C-140.402 401.062 -148.757 401.072 -157.112 401.073 C-162.102 401.074 -167.091 401.08 -172.081 401.098 C-176.775 401.115 -181.469 401.117 -186.163 401.108 C-187.884 401.107 -189.605 401.112 -191.326 401.122 C-193.68 401.134 -196.032 401.128 -198.386 401.118 C-199.044 401.119 -199.044 401.119 -202.373 401.122 C-208.538 400.496 -213.551 398.109 -218.034 393.75 C-220.83 389.162 -221.457 385.36 -221.375 380.093 C-221.375 379.722 -221.375 379.722 -221.376 377.844 C-221.374 375.409 -221.351 372.974 -221.327 370.54 C-221.322 368.844 -221.317 367.149 -221.314 365.453 C-221.303 361.005 -221.273 356.556 -221.24 352.108 C-221.209 347.563 -221.196 343.018 -221.181 338.473 C-221.149 329.565 -221.097 320.658 -221.034 311.75 C-221.595 311.759 -222.156 311.768 -222.733 311.777 C-225.321 311.813 -227.908 311.834 -230.495 311.856 C-231.377 311.87 -232.258 311.884 -233.167 311.899 C-250.705 312.008 -265.624 305.546 -278.351 293.571 C-285.501 286.191 -291.542 276.929 -292.909 266.563 C-294.034 262.75 -294.034 262.75 -295.827 261.75 C-297.383 261.279 -298.954 260.854 -300.534 260.469 C-311.132 257.422 -319.554 247.512 -324.784 238.274 C-326.634 234.539 -327.957 230.771 -329.034 226.75 C-329.261 225.905 -329.488 225.059 -329.722 224.188 C-330.164 220.736 -330.034 217.231 -330.034 213.75 C-294.064 213.75 -258.094 213.75 -221.034 213.75 C-221.034 210.12 -221.034 206.49 -221.034 202.75 C-218.558 196.972 -215.432 193.379 -209.752 190.657 C-206.662 189.626 -204.235 189.525 -200.981 189.559 C-199.782 189.565 -198.584 189.57 -197.348 189.577 C-196.059 189.59 -194.769 189.604 -193.44 189.618 C-192.089 189.619 -190.737 189.619 -189.385 189.616 C-183.666 189.607 -177.948 189.606 -172.229 189.671 C-168.722 189.71 -165.216 189.709 -161.708 189.684 C-159.749 189.68 -157.79 189.719 -155.832 189.758 C-145.764 189.651 -139.976 186.608 -132.034 180.75 C-132.845 180.289 -133.656 179.828 -134.492 179.353 C-148.601 171.33 -162.664 163.244 -176.62 154.958 C-182.366 151.547 -188.136 148.177 -193.909 144.813 C-194.907 144.231 -195.905 143.65 -196.934 143.051 C-198.956 141.873 -200.979 140.695 -203.002 139.517 C-208.014 136.597 -213.024 133.674 -218.034 130.75 C-223.975 127.285 -229.916 123.819 -235.858 120.356 C-236.824 119.793 -237.79 119.23 -238.785 118.649 C-240.736 117.513 -242.687 116.377 -244.639 115.242 C-249.72 112.284 -254.789 109.307 -259.837 106.292 C-262.498 104.704 -265.162 103.122 -267.827 101.541 C-269.124 100.769 -270.419 99.993 -271.712 99.215 C-273.518 98.128 -275.33 97.051 -277.144 95.977 C-278.185 95.354 -279.226 94.731 -280.299 94.089 C-283.034 92.75 -283.034 92.75 -287.034 92.75 C-277.878 49.62 -250.818 10.149 -213.874 -14.003 C-147.084 -56.559 -60.306 -52.467 0 0 Z M-190.034 69.75 C-188.458 74.687 -185.567 78.239 -182.409 82.25 C-181.225 83.776 -180.042 85.302 -178.858 86.829 C-178.546 87.23 -178.546 87.23 -176.965 89.26 C-173.689 93.485 -170.457 97.744 -167.222 102 C-165.861 103.787 -164.5 105.574 -163.14 107.36 C-162.461 108.251 -161.782 109.143 -161.083 110.061 C-159.063 112.713 -157.043 115.365 -155.022 118.016 C-154.363 118.881 -153.704 119.747 -153.025 120.638 C-151.704 122.372 -150.383 124.105 -149.061 125.837 C-145.569 130.417 -142.085 135.003 -138.612 139.598 C-137.888 140.555 -137.163 141.511 -136.417 142.497 C-135.029 144.329 -133.644 146.164 -132.261 148 C-131.634 148.827 -131.008 149.653 -130.362 150.504 C-129.815 151.23 -129.267 151.955 -128.703 152.702 C-126.958 154.844 -124.988 156.797 -123.034 158.75 C-123.034 128.06 -123.034 97.37 -123.034 65.75 C-147.008 53.763 -168.394 53.285 -190.034 69.75 Z M-109.034 65.75 C-109.034 96.44 -109.034 127.13 -109.034 158.75 C-105.863 155.58 -103.24 152.901 -100.608 149.407 C-99.985 148.584 -99.362 147.761 -98.72 146.913 C-98.06 146.034 -97.401 145.156 -96.722 144.25 C-95.288 142.355 -93.855 140.459 -92.421 138.563 C-91.692 137.596 -90.963 136.629 -90.211 135.633 C-86.834 131.161 -83.433 126.706 -80.034 122.25 C-78.703 120.503 -77.373 118.756 -76.042 117.008 C-73.353 113.479 -70.66 109.953 -67.964 106.43 C-64.637 102.081 -61.321 97.724 -58.014 93.36 C-56.665 91.581 -55.312 89.806 -53.957 88.032 C-51.951 85.404 -49.96 82.766 -47.972 80.125 C-47.357 79.325 -46.743 78.525 -46.11 77.701 C-45.834 77.332 -45.834 77.332 -44.437 75.461 C-43.947 74.815 -43.457 74.168 -42.952 73.502 C-42.649 72.924 -42.346 72.346 -42.034 71.75 C-43.917 66.101 -50.974 63.505 -56.034 60.75 C-58.993 59.482 -61.904 58.49 -65.034 57.75 C-65.796 57.569 -66.558 57.387 -67.343 57.2 C-82.922 54.599 -95.016 58.741 -109.034 65.75 Z M-271.034 80.75 C-268.2 83.802 -265.419 85.881 -261.8 87.93 C-260.763 88.522 -259.727 89.114 -258.659 89.723 C-257.545 90.351 -256.432 90.979 -255.284 91.625 C-254.113 92.292 -252.943 92.959 -251.773 93.627 C-249.97 94.656 -248.167 95.685 -246.363 96.711 C-240.52 100.035 -234.712 103.418 -228.909 106.813 C-226.921 107.974 -224.933 109.136 -222.944 110.297 C-222.455 110.583 -222.455 110.583 -219.98 112.03 C-217.06 113.735 -214.139 115.439 -211.218 117.141 C-200.763 123.234 -190.313 129.336 -179.871 135.451 C-178.612 136.188 -177.352 136.926 -176.093 137.663 C-167.844 142.491 -159.63 147.368 -151.491 152.379 C-149.034 153.75 -149.034 153.75 -147.034 153.75 C-148.549 150.438 -150.456 147.709 -152.659 144.813 C-153.043 144.307 -153.426 143.801 -153.821 143.28 C-155.221 141.434 -156.628 139.592 -158.034 137.75 C-159.243 136.166 -160.451 134.581 -161.659 132.997 C-163.685 130.34 -165.71 127.683 -167.737 125.027 C-171.809 119.685 -175.866 114.332 -179.895 108.957 C-181.15 107.284 -182.409 105.614 -183.672 103.947 C-186.577 100.1 -189.408 96.239 -192.077 92.223 C-200.343 80.002 -209.512 74.543 -223.722 70.75 C-240.088 67.639 -257.484 70.766 -271.034 80.75 Z M-33.347 83.133 C-35.223 85.628 -36.972 88.177 -38.689 90.783 C-41.487 94.876 -44.574 98.76 -47.597 102.688 C-48.991 104.514 -50.384 106.341 -51.776 108.168 C-52.128 108.63 -52.128 108.63 -53.908 110.963 C-55.996 113.7 -58.082 116.438 -60.167 119.176 C-60.503 119.618 -60.503 119.618 -62.206 121.853 C-63.54 123.606 -64.875 125.359 -66.208 127.113 C-69.431 131.348 -72.666 135.573 -75.929 139.778 C-76.538 140.565 -77.146 141.352 -77.774 142.164 C-78.921 143.645 -80.071 145.124 -81.226 146.599 C-85.034 151.527 -85.034 151.527 -85.034 153.75 C-81.444 152.399 -78.194 150.796 -74.878 148.872 C-74.374 148.58 -74.374 148.58 -71.825 147.106 C-70.739 146.473 -69.653 145.84 -68.534 145.188 C-67.393 144.526 -66.252 143.864 -65.076 143.182 C-54.054 136.787 -43.065 130.336 -32.077 123.883 C-25.632 120.099 -19.179 116.328 -12.722 112.563 C-11.757 112.001 -10.793 111.438 -9.8 110.859 C-4.78 107.932 0.241 105.008 5.263 102.086 C10.275 99.17 15.282 96.242 20.287 93.312 C22.786 91.855 25.294 90.414 27.806 88.977 C29.193 88.173 30.579 87.368 31.966 86.563 C32.589 86.213 33.213 85.862 33.855 85.501 C35.528 84.52 35.528 84.52 37.966 82.75 C37.966 81.76 37.966 80.77 37.966 79.75 C16.438 67.97 -14.153 63.356 -33.347 83.133 Z " fill="#FEE077" transform="translate(372.0341796875,77.24951171875)"/>
<path d="M0 0 C27.066 24.101 46.528 55.365 54.966 90.75 C54.966 91.41 54.966 92.07 54.966 92.75 C51.225 91.504 49.708 89.558 46.966 86.75 C43.022 83.287 38.893 80.979 34.216 78.688 C33.506 78.337 32.796 77.987 32.064 77.625 C16.992 70.299 2.931 68.796 -13.37 73.454 C-18.043 75.108 -22.27 77.278 -26.546 79.774 C-29.034 80.75 -29.034 80.75 -31.194 80.102 C-33.009 78.769 -34.323 77.458 -35.784 75.75 C-45.437 65.805 -59.513 58.389 -73.382 57.547 C-86.015 57.388 -96.122 60.034 -107.516 65.325 C-114.541 68.572 -114.541 68.572 -118.034 68.75 C-120.726 67.676 -120.726 67.676 -123.597 66.063 C-137.295 58.791 -152.488 55.06 -167.847 58.938 C-180.788 63.067 -191.89 70.764 -201.034 80.75 C-204.459 79.423 -207.737 77.926 -211.034 76.313 C-227.501 68.852 -243.22 69.359 -259.972 75.438 C-268.721 79.105 -279.707 84.759 -285.034 92.75 C-285.694 92.75 -286.354 92.75 -287.034 92.75 C-277.878 49.62 -250.818 10.149 -213.874 -14.003 C-147.084 -56.559 -60.306 -52.467 0 0 Z " fill="#E33F65" transform="translate(372.0341796875,77.24951171875)"/>
<path d="M0 0 C1.65 0.66 3.3 1.32 5 2 C7.562 1.688 7.562 1.688 10 1 C11.32 0.67 12.64 0.34 14 0 C14.33 30.36 14.66 60.72 15 92 C24.16 79.977 33.286 67.948 42.34 55.848 C46.471 50.354 50.697 44.935 54.931 39.52 C60.256 32.7 65.453 25.788 70.622 18.849 C72.825 15.894 75.038 12.947 77.25 10 C77.977 9.031 78.704 8.061 79.453 7.062 C79.708 6.722 79.708 6.722 81 5 C84.104 6.39 86.366 8.016 88.812 10.375 C89.438 10.96 90.063 11.545 90.707 12.148 C92 14 92 14 91.759 15.872 C90.891 18.307 89.767 19.887 88.156 21.906 C87.865 22.275 87.865 22.275 86.393 24.14 C85.768 24.919 85.144 25.698 84.5 26.5 C83.205 28.139 81.911 29.778 80.617 31.418 C79.989 32.211 79.361 33.004 78.714 33.822 C76.642 36.455 74.625 39.124 72.625 41.812 C69.245 46.353 65.821 50.859 62.382 55.355 C54.131 66.147 46.016 77.032 38 88 C51.219 80.419 64.404 72.792 77.5 65 C86.296 59.767 95.125 54.598 104 49.5 C112.476 44.631 120.917 39.709 129.322 34.72 C131.04 33.701 132.76 32.683 134.479 31.666 C139.443 28.726 144.394 25.769 149.301 22.734 C150.085 22.255 150.869 21.776 151.677 21.282 C153.09 20.418 154.495 19.543 155.891 18.653 C158.572 17.023 160.468 15.994 163.645 16.031 C166.445 17.183 168.474 18.642 170.812 20.562 C171.603 21.203 172.393 21.844 173.207 22.504 C173.503 22.751 173.503 22.751 175 24 C173.734 27.797 172.599 28.088 169.164 30.012 C168.133 30.596 167.103 31.181 166.041 31.783 C164.914 32.412 163.786 33.04 162.625 33.688 C160.23 35.042 157.838 36.402 155.445 37.762 C155.137 37.936 155.137 37.936 153.576 38.82 C147.164 42.457 140.831 46.223 134.5 50 C124.683 55.841 114.818 61.59 104.915 67.283 C96.711 72.003 88.537 76.771 80.375 81.562 C79.767 81.919 79.159 82.276 78.533 82.644 C76.109 84.067 73.685 85.49 71.262 86.913 C55.21 96.336 39.116 105.688 23 115 C23.938 115.566 24.877 116.132 25.844 116.715 C27.063 117.456 28.281 118.196 29.5 118.938 C30.12 119.311 30.74 119.684 31.379 120.068 C32.936 121.018 34.47 122.006 36 123 C36 123.33 36 123.66 36 124 C16.86 124 -2.28 124 -22 124 C-18.845 121.476 -16.072 119.315 -12.688 117.25 C-11.99 116.822 -11.293 116.394 -10.574 115.953 C-10.055 115.639 -9.535 115.324 -9 115 C-9.733 114.583 -10.466 114.167 -11.221 113.738 C-25.408 105.668 -39.551 97.539 -53.586 89.207 C-59.332 85.797 -65.102 82.426 -70.875 79.062 C-71.873 78.481 -72.871 77.899 -73.899 77.3 C-75.922 76.122 -77.945 74.944 -79.968 73.766 C-84.98 70.847 -89.99 67.923 -95 65 C-101.916 60.965 -108.833 56.931 -115.752 52.9 C-117.701 51.763 -119.649 50.624 -121.596 49.483 C-126.681 46.504 -131.779 43.55 -136.906 40.645 C-139.613 39.108 -142.313 37.56 -145.012 36.01 C-146.332 35.257 -147.654 34.509 -148.98 33.766 C-150.828 32.73 -152.665 31.676 -154.5 30.617 C-155.562 30.015 -156.624 29.413 -157.719 28.792 C-158.472 28.201 -159.224 27.609 -160 27 C-160 23 -160 23 -158.242 21.043 C-157.461 20.431 -156.68 19.818 -155.875 19.188 C-155.109 18.562 -154.344 17.937 -153.555 17.293 C-150.154 15.572 -148.624 15.911 -145 17 C-141.977 18.574 -141.977 18.574 -138.625 20.688 C-137.294 21.512 -135.962 22.335 -134.629 23.156 C-133.896 23.61 -133.162 24.064 -132.407 24.531 C-127.834 27.322 -123.194 29.997 -118.562 32.688 C-116.48 33.9 -114.398 35.112 -112.316 36.324 C-111.27 36.933 -110.223 37.542 -109.145 38.169 C-104.094 41.109 -99.047 44.055 -94 47 C-88.059 50.466 -82.118 53.931 -76.176 57.395 C-64.88 63.979 -53.593 70.577 -42.312 77.188 C-41.681 77.558 -41.049 77.928 -40.398 78.309 C-38.594 79.366 -36.791 80.423 -34.988 81.48 C-34.47 81.784 -34.47 81.784 -31.849 83.321 C-29.225 84.868 -26.61 86.429 -24 88 C-31.23 78.318 -38.518 68.682 -45.852 59.079 C-51.171 52.108 -56.438 45.099 -61.671 38.063 C-64.522 34.244 -67.402 30.468 -70.418 26.777 C-70.941 26.134 -71.464 25.491 -72.003 24.828 C-72.971 23.646 -73.949 22.473 -74.941 21.311 C-77.99 17.587 -77.99 17.587 -78.035 14.891 C-76.673 12.402 -74.99 10.705 -72.938 8.75 C-72.571 8.397 -72.571 8.397 -70.715 6.609 C-70.149 6.078 -69.583 5.547 -69 5 C-65.609 6.13 -65.144 6.804 -63.137 9.621 C-62.587 10.382 -62.037 11.143 -61.471 11.927 C-60.882 12.756 -60.294 13.584 -59.688 14.438 C-58.421 16.189 -57.153 17.939 -55.883 19.688 C-55.559 20.133 -55.559 20.133 -53.923 22.387 C-51.045 26.297 -48.062 30.12 -45.062 33.938 C-39.48 41.057 -34.03 48.267 -28.621 55.519 C-23.804 61.963 -18.896 68.33 -13.918 74.65 C-9.454 80.339 -5.264 86.137 -1 92 C-0.67 61.64 -0.34 31.28 0 0 Z " fill="#C89D8D" transform="translate(249,143)"/>
<path d="M0 0 C0.38 -0.002 0.38 -0.002 2.301 -0.012 C3.904 -0.014 5.507 -0.007 7.11 0.01 C9.555 0.031 11.998 0.01 14.443 -0.016 C16.004 -0.013 17.564 -0.008 19.125 0 C19.489 -0.004 19.489 -0.004 21.329 -0.025 C24.717 0.038 27.066 0.499 30.099 2.034 C32.953 5.545 32.759 8.692 32.617 13.016 C32.61 13.831 32.603 14.647 32.596 15.487 C32.568 18.086 32.505 20.683 32.441 23.281 C32.416 25.046 32.394 26.81 32.373 28.574 C32.318 32.894 32.232 37.212 32.129 41.531 C33.193 41.51 34.258 41.489 35.354 41.468 C39.314 41.395 43.274 41.349 47.235 41.312 C48.947 41.291 50.659 41.264 52.371 41.229 C54.836 41.181 57.3 41.158 59.766 41.141 C60.527 41.12 61.289 41.099 62.074 41.078 C65.814 41.076 67.91 41.391 71.089 43.431 C74.557 47.002 74.317 50.022 74.367 54.77 C74.375 55.487 74.383 56.205 74.392 56.945 C74.405 58.465 74.416 59.986 74.424 61.507 C74.441 63.825 74.485 66.141 74.529 68.459 C74.539 69.937 74.548 71.416 74.555 72.895 C74.572 73.584 74.59 74.274 74.608 74.985 C74.586 79.776 73.513 82.168 70.129 85.531 C66.956 87.118 63.541 86.652 60.059 86.629 C59.262 86.627 58.466 86.626 57.646 86.625 C55.098 86.619 52.551 86.606 50.004 86.594 C48.279 86.589 46.553 86.584 44.828 86.58 C40.595 86.569 36.362 86.552 32.129 86.531 C32.155 87.631 32.181 88.731 32.208 89.864 C32.299 93.949 32.356 98.034 32.404 102.12 C32.429 103.887 32.463 105.654 32.506 107.421 C32.567 109.963 32.595 112.504 32.617 115.047 C32.643 115.836 32.669 116.624 32.695 117.437 C32.697 121.135 32.461 123.123 30.099 126.028 C26.387 127.907 23.195 128.108 19.125 128.062 C18.745 128.064 18.745 128.064 16.821 128.074 C15.22 128.077 13.619 128.069 12.018 128.053 C9.57 128.031 7.125 128.053 4.678 128.078 C3.118 128.075 1.559 128.07 0 128.062 C-0.729 128.071 -1.459 128.079 -2.21 128.087 C-5.423 128.028 -7.576 127.711 -10.339 126.028 C-12.536 122.448 -12.368 119.115 -12.262 115.047 C-12.256 114.231 -12.25 113.416 -12.245 112.575 C-12.222 109.977 -12.172 107.379 -12.121 104.781 C-12.101 103.017 -12.083 101.253 -12.066 99.488 C-12.022 95.169 -11.953 90.85 -11.871 86.531 C-12.403 86.542 -12.403 86.542 -15.096 86.595 C-19.057 86.667 -23.017 86.713 -26.977 86.751 C-28.689 86.771 -30.401 86.798 -32.113 86.833 C-34.578 86.882 -37.042 86.904 -39.508 86.922 C-39.889 86.932 -39.889 86.932 -41.816 86.984 C-45.514 86.986 -47.661 86.662 -50.831 84.694 C-55.524 79.718 -54.057 72.289 -54.056 65.853 C-54.059 63.605 -54.077 61.359 -54.096 59.111 C-54.099 57.68 -54.101 56.248 -54.102 54.816 C-54.106 53.516 -54.11 52.215 -54.114 50.875 C-53.886 47.74 -53.655 46.071 -51.871 43.531 C-48.034 40.973 -44.926 41.278 -40.484 41.336 C-39.667 41.339 -38.85 41.342 -38.009 41.345 C-35.4 41.356 -32.792 41.381 -30.184 41.406 C-28.415 41.416 -26.646 41.425 -24.877 41.434 C-20.542 41.456 -16.206 41.49 -11.871 41.531 C-11.892 40.431 -11.913 39.331 -11.935 38.198 C-12.007 34.113 -12.053 30.028 -12.091 25.943 C-12.111 24.176 -12.138 22.408 -12.173 20.641 C-12.221 18.099 -12.244 15.558 -12.262 13.016 C-12.282 12.227 -12.303 11.438 -12.324 10.626 C-12.326 7.241 -12.126 4.946 -10.339 2.034 C-6.939 -0.036 -3.866 -0.043 0 0 Z " fill="#87C7FD" transform="translate(245.87109375,308.46875)"/>
<path d="M0 0 C35.97 0 71.94 0 109 0 C109 14.645 104.413 26.103 94.324 36.742 C88.928 41.984 80.99 49 73 49 C72.865 49.727 72.729 50.454 72.59 51.203 C69.4 66.104 60.63 78.971 48.066 87.699 C32.682 97.383 18.484 98 0 98 C0 65.66 0 33.32 0 0 Z " fill="#13B5A2" transform="translate(361,291)"/>
<path d="M0 0 C35.97 0 71.94 0 109 0 C109 32.34 109 64.68 109 98 C85.356 98 68.712 95.843 51.684 79.82 C44.533 72.44 38.493 63.179 37.125 52.812 C36 49 36 49 34.207 48 C32.651 47.529 31.08 47.104 29.5 46.719 C18.902 43.672 10.48 33.761 5.25 24.523 C3.4 20.788 2.078 17.021 1 13 C0.773 12.154 0.546 11.309 0.312 10.438 C-0.13 6.985 0 3.481 0 0 Z " fill="#13B5A2" transform="translate(42,291)"/>
<path d="M0 0 C-3.106 3.439 -6.307 5.437 -10.375 7.625 C-43.04 25.742 -67.713 52.952 -79.184 88.688 C-82.423 100.267 -83.226 112.037 -84 124 C-87.424 122.673 -90.703 121.176 -94 119.562 C-110.467 112.101 -126.185 112.608 -142.938 118.688 C-151.687 122.354 -162.673 128.009 -168 136 C-168.66 136 -169.32 136 -170 136 C-160.844 92.87 -133.784 53.399 -96.84 29.246 C-68.08 10.922 -34.47 -1.112 0 0 Z " fill="#F96D85" transform="translate(255,34)"/>
<path d="M0 0 C28.882 -1.128 56.784 5.743 82 20 C82.632 20.352 83.264 20.704 83.915 21.066 C97.198 28.518 108.93 37.53 120 48 C120.86 48.795 121.72 49.591 122.605 50.41 C145.614 72.422 161.635 102.115 169 133 C169 133.66 169 134.32 169 135 C165.259 133.753 163.742 131.807 161 129 C157.056 125.536 152.927 123.229 148.25 120.938 C147.54 120.587 146.83 120.236 146.098 119.875 C131.043 112.557 116.952 111.016 100.672 115.711 C95.978 117.359 91.656 119.449 87.293 121.828 C85 123 85 123 83 123 C82.966 122.403 82.931 121.806 82.896 121.19 C80.84 87.856 70.387 60.844 48 36 C47.69 35.648 47.69 35.648 46.121 33.867 C33.751 20.639 17.522 11.234 1.984 2.258 C1.33 1.843 0.675 1.428 0 1 C0 0.67 0 0.34 0 0 Z " fill="#E33F65" transform="translate(258,35)"/>
<path d="M0 0 C18.193 -0.795 18.193 -0.795 24 4 C27.789 7.664 29.909 10.849 30.137 16.236 C30.148 17.601 30.153 18.965 30.154 20.33 C30.156 20.706 30.156 20.706 30.167 22.61 C30.181 25.139 30.187 27.667 30.193 30.196 C30.201 32.006 30.209 33.816 30.218 35.626 C30.244 41.578 30.259 47.529 30.273 53.48 C30.279 55.529 30.284 57.578 30.29 59.627 C30.311 68.149 30.33 76.672 30.341 85.195 C30.357 97.408 30.391 109.621 30.448 121.835 C30.486 130.423 30.506 139.01 30.511 147.598 C30.515 152.727 30.527 157.856 30.559 162.985 C30.589 167.812 30.596 172.638 30.584 177.466 C30.584 179.235 30.592 181.004 30.609 182.772 C30.761 198.903 30.761 198.903 26.372 204.639 C20.538 210.424 15.618 211.123 7.733 211.14 C7.366 211.142 7.366 211.142 5.51 211.149 C3.051 211.158 0.592 211.16 -1.866 211.161 C-3.629 211.166 -5.392 211.171 -7.154 211.176 C-11.944 211.189 -16.733 211.196 -21.522 211.2 C-24.515 211.203 -27.507 211.207 -30.5 211.212 C-39.863 211.225 -49.227 211.235 -58.591 211.239 C-69.398 211.243 -80.205 211.261 -91.013 211.29 C-99.368 211.312 -107.723 211.322 -116.078 211.323 C-121.068 211.324 -126.057 211.33 -131.047 211.348 C-135.741 211.364 -140.435 211.366 -145.129 211.358 C-146.85 211.357 -148.571 211.361 -150.292 211.371 C-152.645 211.384 -154.998 211.378 -157.352 211.367 C-158.667 211.369 -159.983 211.37 -161.339 211.372 C-167.504 210.746 -172.517 208.359 -177 204 C-180.2 198.928 -180.379 194.914 -180.188 189.125 C-180.181 188.733 -180.181 188.733 -180.146 186.75 C-180.111 184.833 -180.058 182.916 -180 181 C-178 184 -178 184 -176.812 186.438 C-174.473 189.746 -171.661 191.425 -168 193 C-164.516 193.501 -164.516 193.501 -160.783 193.501 C-160.091 193.507 -159.399 193.512 -158.686 193.518 C-156.386 193.532 -154.087 193.517 -151.787 193.502 C-150.131 193.505 -148.474 193.511 -146.818 193.518 C-142.332 193.532 -137.847 193.521 -133.362 193.504 C-128.663 193.49 -123.964 193.497 -119.265 193.501 C-111.375 193.503 -103.486 193.49 -95.597 193.467 C-86.48 193.44 -77.364 193.438 -68.248 193.45 C-59.47 193.461 -50.693 193.455 -41.915 193.44 C-38.183 193.435 -34.451 193.435 -30.719 193.439 C-26.323 193.444 -21.928 193.434 -17.532 193.412 C-15.921 193.407 -14.309 193.406 -12.697 193.411 C-10.495 193.417 -8.293 193.405 -6.09 193.388 C-4.859 193.385 -3.627 193.383 -2.358 193.38 C3.272 192.743 7.414 190.354 11 186 C13.014 181.943 13.257 178.577 13.274 174.075 C13.279 173.39 13.285 172.705 13.29 172 C13.305 169.712 13.306 167.425 13.306 165.137 C13.314 163.495 13.322 161.852 13.332 160.209 C13.354 155.75 13.362 151.291 13.367 146.832 C13.371 144.045 13.377 141.258 13.384 138.471 C13.409 128.742 13.422 119.013 13.426 109.285 C13.429 100.224 13.459 91.164 13.501 82.103 C13.536 74.317 13.551 66.532 13.552 58.747 C13.553 54.1 13.561 49.453 13.59 44.806 C13.616 40.433 13.618 36.061 13.602 31.689 C13.6 30.088 13.607 28.486 13.623 26.885 C13.772 10.991 13.772 10.991 8 5 C5.762 3.344 5.762 3.344 3.688 2.5 C2.471 2.005 1.254 1.51 0 1 C0 0.67 0 0.34 0 0 Z " fill="#FEBF31" transform="translate(331,267)"/>
<path d="M0 0 C18.544 9.272 18.544 9.272 24.688 13.812 C25.387 14.318 26.086 14.824 26.807 15.345 C56.296 36.941 78.332 65.187 84.323 101.987 C84.947 106.509 85.106 110.929 85.062 115.5 C85.053 116.727 85.044 117.954 85.035 119.219 C85.024 120.137 85.012 121.054 85 122 C84.072 121.175 83.144 120.35 82.188 119.5 C66.324 105.994 52.047 98.644 31 100 C22.218 101.229 14.365 104.818 6.371 108.477 C3 110 3 110 0 111 C0 74.37 0 37.74 0 0 Z " fill="#F96D84" transform="translate(256,35)"/>
<path d="M0 0 C34.98 0 69.96 0 106 0 C106 11.88 106 23.76 106 36 C89.471 36.16 89.471 36.16 82.365 36.195 C77.537 36.219 72.71 36.247 67.883 36.302 C63.986 36.346 60.089 36.369 56.192 36.38 C54.713 36.387 53.235 36.401 51.756 36.423 C36.35 36.641 23.357 32.313 11.73 21.902 C6.5 16.153 0 8.084 0 0 Z " fill="#18CEB9" transform="translate(45,291)"/>
<path d="M0 0 C34.98 0 69.96 0 106 0 C103.789 11.055 97.178 20.254 88.062 26.875 C79.467 32.478 70.443 36.266 60.055 36.227 C59.4 36.227 58.746 36.228 58.072 36.228 C55.934 36.227 53.797 36.211 51.66 36.195 C50.168 36.192 48.676 36.189 47.184 36.187 C43.276 36.179 39.368 36.16 35.461 36.137 C30.762 36.113 26.063 36.104 21.363 36.092 C14.242 36.073 7.121 36.035 0 36 C0 24.12 0 12.24 0 0 Z " fill="#18CEB9" transform="translate(361,291)"/>
<path d="M0 0 C0.99 0 1.98 0 3 0 C3.725 12.805 -0.963 24.636 -9.312 34.25 C-19.532 45.027 -30.522 50.428 -45.449 51.172 C-49.325 51.23 -53.198 51.226 -57.074 51.195 C-58.493 51.192 -59.913 51.189 -61.332 51.187 C-65.029 51.179 -68.726 51.16 -72.423 51.137 C-76.211 51.117 -79.999 51.108 -83.787 51.098 C-91.191 51.076 -98.596 51.041 -106 51 C-106 46.05 -106 41.1 -106 36 C-104.033 35.991 -102.066 35.981 -100.04 35.972 C-93.498 35.936 -86.956 35.882 -80.415 35.816 C-76.453 35.777 -72.492 35.745 -68.531 35.729 C-64.698 35.714 -60.867 35.679 -57.035 35.632 C-55.582 35.617 -54.13 35.609 -52.677 35.608 C-36.994 35.59 -23.915 31.484 -12 21 C-10.357 18.937 -8.846 16.925 -7.375 14.75 C-6.983 14.178 -6.59 13.606 -6.186 13.017 C-3.366 8.802 -1.426 4.847 0 0 Z " fill="#00BFA9" transform="translate(467,291)"/>
<path d="M0 0 C0.99 0 1.98 0 3 0 C3.184 0.583 3.369 1.165 3.559 1.766 C8.21 14.915 16.603 24.214 28.938 30.496 C35.475 33.565 40.441 35.111 47.696 35.205 C48.028 35.21 48.028 35.21 49.708 35.235 C51.894 35.267 54.08 35.292 56.266 35.316 C57.784 35.337 59.303 35.358 60.822 35.379 C64.814 35.434 68.805 35.484 72.797 35.532 C76.872 35.583 80.948 35.638 85.023 35.693 C93.016 35.801 101.008 35.902 109 36 C109 40.95 109 45.9 109 51 C100.897 51.068 92.795 51.123 84.692 51.155 C80.928 51.171 77.164 51.192 73.4 51.226 C69.756 51.259 66.112 51.277 62.468 51.285 C61.09 51.29 59.711 51.301 58.333 51.317 C40.772 51.518 27.282 48.589 14.359 36.449 C4.44 26.152 -0.241 14.194 0 0 Z " fill="#00BFA9" transform="translate(42,291)"/>
<path d="M0 0 C2.907 0.314 4.58 0.624 6.785 2.598 C8.434 5.857 8.449 8.861 8.434 12.434 C8.439 13.149 8.444 13.863 8.449 14.6 C8.456 16.109 8.455 17.618 8.446 19.126 C8.438 21.427 8.466 23.725 8.498 26.025 C8.5 27.495 8.499 28.964 8.496 30.434 C8.507 31.117 8.519 31.801 8.53 32.505 C8.461 37.261 7.351 39.656 4 43 C0.827 44.586 -2.588 44.121 -6.07 44.098 C-6.867 44.096 -7.663 44.095 -8.483 44.093 C-11.03 44.088 -13.578 44.075 -16.125 44.062 C-17.85 44.057 -19.576 44.053 -21.301 44.049 C-25.534 44.038 -29.767 44.021 -34 44 C-33.974 45.1 -33.948 46.2 -33.921 47.333 C-33.83 51.418 -33.773 55.503 -33.725 59.588 C-33.7 61.356 -33.666 63.123 -33.623 64.89 C-33.562 67.432 -33.534 69.973 -33.512 72.516 C-33.486 73.304 -33.46 74.093 -33.434 74.906 C-33.432 78.604 -33.668 80.592 -36.03 83.497 C-39.742 85.376 -42.934 85.577 -47.004 85.531 C-47.384 85.533 -47.384 85.533 -49.308 85.543 C-50.909 85.546 -52.51 85.538 -54.111 85.521 C-56.559 85.5 -59.004 85.521 -61.451 85.547 C-63.01 85.544 -64.57 85.539 -66.129 85.531 C-66.858 85.539 -67.587 85.547 -68.339 85.556 C-71.784 85.492 -73.691 85.229 -76.492 83.154 C-78 81 -78 81 -78 78 C-77.082 77.985 -76.164 77.971 -75.218 77.956 C-71.803 77.895 -68.389 77.82 -64.975 77.738 C-63.499 77.704 -62.023 77.676 -60.546 77.654 C-58.421 77.62 -56.297 77.568 -54.172 77.512 C-52.894 77.486 -51.616 77.459 -50.3 77.432 C-45.207 76.765 -45.207 76.765 -43 74 C-42.574 71.086 -42.395 68.533 -42.391 65.613 C-42.374 64.796 -42.358 63.979 -42.341 63.137 C-42.292 60.529 -42.271 57.921 -42.25 55.312 C-42.222 53.544 -42.192 51.775 -42.16 50.006 C-42.086 45.671 -42.037 41.336 -42 37 C-40.936 36.996 -39.871 36.992 -38.775 36.988 C-34.814 36.966 -30.854 36.911 -26.894 36.847 C-25.182 36.824 -23.47 36.81 -21.758 36.804 C-19.292 36.795 -16.829 36.754 -14.363 36.707 C-13.982 36.709 -13.982 36.709 -12.055 36.719 C-8.242 36.615 -6.166 36.117 -3.021 33.91 C-0.501 30.282 -0.347 28.125 -0.293 23.73 C-0.285 23.39 -0.285 23.39 -0.247 21.667 C-0.204 19.507 -0.195 17.348 -0.188 15.188 C-0.164 13.717 -0.139 12.246 -0.111 10.775 C-0.049 7.184 -0.016 3.592 0 0 Z " fill="#64B8FA" transform="translate(312,351)"/>
<path d="M0 0 C2.547 0.344 4.565 0.745 6.794 2.052 C8.748 5.208 8.365 8.572 8.293 12.168 C8.289 12.963 8.284 13.758 8.28 14.576 C8.263 17.114 8.226 19.65 8.188 22.188 C8.172 23.908 8.159 25.629 8.146 27.35 C8.113 31.567 8.062 35.783 8 40 C4.597 38.542 2.236 36.979 0 34 C-0.349 31.249 -0.469 28.912 -0.391 26.172 C-0.385 25.423 -0.379 24.674 -0.373 23.902 C-0.351 21.517 -0.301 19.134 -0.25 16.75 C-0.23 15.13 -0.212 13.51 -0.195 11.891 C-0.151 7.927 -0.082 3.964 0 0 Z " fill="#62B8FD" transform="translate(270,309)"/>
<path d="M0 0 C4.75 -0.149 9.499 -0.257 14.252 -0.33 C15.867 -0.36 17.482 -0.401 19.096 -0.453 C21.423 -0.526 23.747 -0.56 26.074 -0.586 C26.792 -0.617 27.51 -0.648 28.25 -0.68 C31.15 -0.682 33.352 -0.556 35.603 1.376 C36.995 3.037 36.995 3.037 39 6 C33.928 6.074 28.856 6.129 23.784 6.165 C22.058 6.18 20.333 6.2 18.607 6.226 C16.127 6.263 13.648 6.28 11.168 6.293 C10.782 6.301 10.782 6.301 8.829 6.34 C3.516 6.342 3.516 6.342 0.99 4.669 C0 3 0 3 0 0 Z " fill="#60B7FD" transform="translate(193,388)"/>
</svg>
