<?xml version="1.0" encoding="UTF-8"?>
<!-- Generator: visioncortex VTracer 0.6.12 -->
<svg version="1.1" xmlns="http://www.w3.org/2000/svg" width="512" height="512">
<path d="M0 0 C0.411 -0.003 0.411 -0.003 2.491 -0.02 C5.198 -0.039 7.904 -0.043 10.611 -0.045 C12.504 -0.052 14.397 -0.059 16.29 -0.066 C20.257 -0.078 24.224 -0.081 28.19 -0.08 C33.25 -0.08 38.308 -0.107 43.367 -0.142 C47.279 -0.164 51.19 -0.168 55.101 -0.167 C56.965 -0.169 58.829 -0.178 60.692 -0.194 C75.728 -0.307 88.079 1.385 99.536 12.103 C108.48 21.664 111.751 32.245 111.642 45.091 C111.639 45.785 111.636 46.479 111.632 47.193 C111.624 48.893 111.612 50.592 111.599 52.291 C112.56 52.282 113.521 52.273 114.511 52.264 C123.616 52.182 132.721 52.122 141.826 52.083 C146.506 52.063 151.186 52.034 155.866 51.989 C160.392 51.945 164.917 51.921 169.443 51.911 C171.16 51.904 172.877 51.889 174.594 51.868 C189.913 51.681 202.835 53.397 214.599 64.291 C221.729 72.535 225.237 82.249 225.053 93.055 C225.054 93.973 225.054 94.891 225.055 95.837 C225.052 98.835 225.021 101.832 224.99 104.83 C224.982 106.923 224.976 109.016 224.972 111.109 C224.957 116.59 224.918 122.071 224.874 127.552 C224.832 133.156 224.814 138.76 224.794 144.365 C224.751 155.34 224.683 166.315 224.599 177.291 C225.269 177.27 225.94 177.249 226.631 177.227 C229.683 177.144 232.734 177.092 235.786 177.041 C236.841 177.007 237.897 176.973 238.984 176.939 C246.842 176.84 246.842 176.84 250.775 179.181 C253.955 182.858 253.717 185.239 253.697 190.048 C253.696 190.38 253.696 190.38 253.692 192.058 C253.687 194.177 253.674 196.296 253.661 198.416 C253.656 199.852 253.652 201.288 253.648 202.724 C253.638 206.246 253.618 209.768 253.599 213.291 C248.979 213.291 244.359 213.291 239.599 213.291 C242.037 234.42 251.341 241.284 267.599 254.291 C268.209 254.749 268.818 255.208 269.447 255.681 C274.391 259.474 277.64 264.414 279.599 270.291 C279.717 272.513 279.776 274.739 279.804 276.965 C279.814 277.639 279.824 278.312 279.834 279.006 C279.866 281.23 279.891 283.453 279.915 285.677 C279.936 287.22 279.957 288.763 279.978 290.305 C280.033 294.364 280.083 298.423 280.131 302.482 C280.181 306.625 280.237 310.767 280.292 314.91 C280.4 323.037 280.501 331.164 280.599 339.291 C281.069 338.87 281.54 338.449 282.025 338.015 C282.336 337.742 282.336 337.742 283.911 336.357 C284.219 336.085 284.219 336.085 285.775 334.707 C288.422 332.651 290.26 332.221 293.599 332.291 C298.683 334.122 301.899 336.089 305.768 339.958 C306.234 340.419 306.7 340.879 307.18 341.354 C308.701 342.862 310.207 344.384 311.712 345.908 C312.773 346.968 313.834 348.028 314.896 349.087 C317.112 351.302 319.321 353.523 321.525 355.75 C324.345 358.599 327.181 361.432 330.022 364.26 C332.213 366.444 334.396 368.635 336.577 370.828 C337.62 371.876 338.665 372.921 339.712 373.964 C341.174 375.424 342.627 376.892 344.077 378.364 C344.904 379.197 345.731 380.029 346.583 380.887 C349.638 384.529 350.546 387.252 350.786 391.978 C350.152 395.965 348.339 398.032 345.622 400.953 C344.806 401.832 343.99 402.711 343.15 403.616 C339.163 407.796 335.125 411.92 331.043 416.007 C330.135 416.921 329.226 417.834 328.29 418.775 C325.83 421.248 323.367 423.718 320.903 426.187 C319.359 427.733 317.816 429.28 316.274 430.828 C311.434 435.681 306.593 440.532 301.748 445.38 C296.177 450.956 290.612 456.538 285.053 462.127 C280.736 466.465 276.413 470.798 272.086 475.126 C269.51 477.704 266.935 480.284 264.367 482.871 C261.508 485.749 258.638 488.615 255.766 491.48 C254.923 492.332 254.08 493.185 253.211 494.063 C244.639 502.574 244.639 502.574 238.396 503.681 C233.311 503.332 230.599 501.759 226.89 498.285 C226.016 497.471 225.142 496.657 224.242 495.818 C220.197 491.95 216.173 488.065 212.197 484.126 C211.352 483.29 210.508 482.454 209.638 481.592 C207.873 479.841 206.109 478.088 204.347 476.333 C202.548 474.547 200.746 472.765 198.938 470.987 C196.306 468.397 193.688 465.795 191.072 463.189 C190.265 462.4 189.459 461.612 188.628 460.799 C183.472 455.622 179.75 451.451 179.474 443.853 C181.065 438.816 183.917 435.991 187.599 432.291 C188.063 431.819 188.527 431.348 189.006 430.863 C192.177 427.645 195.378 424.459 198.599 421.291 C198.196 421.286 198.196 421.286 196.156 421.262 C192.469 421.208 188.784 421.125 185.099 421.041 C183.83 421.026 182.562 421.012 181.255 420.998 C172.864 420.779 166.64 420.353 160.566 414.247 C158.838 412.308 157.191 410.341 155.599 408.291 C155.594 408.673 155.594 408.673 155.571 410.607 C155.116 440.245 149.974 464.443 128.282 485.699 C113.951 499.153 96.49 506.01 77.599 510.291 C76.601 510.517 75.603 510.744 74.575 510.978 C63.456 513.079 53.251 512.291 41.599 512.291 C41.269 486.221 40.939 460.151 40.599 433.291 C38.619 433.786 38.619 433.786 28.599 436.291 C11.099 438.03 -5.619 433.856 -19.596 422.849 C-33.017 411.63 -40.761 396.095 -42.339 378.666 C-42.775 365.965 -40.089 354.665 -34.401 343.291 C-35.462 343.287 -36.523 343.283 -37.617 343.279 C-47.664 343.242 -57.711 343.184 -67.758 343.107 C-72.922 343.067 -78.086 343.035 -83.25 343.02 C-88.243 343.004 -93.235 342.97 -98.228 342.922 C-100.123 342.907 -102.019 342.899 -103.915 342.899 C-118.884 342.885 -131.98 342.179 -143.401 331.291 C-143.964 330.767 -144.528 330.244 -145.108 329.705 C-153.607 320.883 -155.554 309.118 -155.542 297.374 C-155.545 296.487 -155.548 295.6 -155.551 294.686 C-155.559 291.72 -155.561 288.754 -155.562 285.788 C-155.567 283.659 -155.572 281.53 -155.577 279.401 C-155.59 273.619 -155.597 267.838 -155.601 262.057 C-155.604 258.442 -155.608 254.827 -155.613 251.213 C-155.626 239.896 -155.636 228.578 -155.64 217.261 C-155.644 204.212 -155.662 191.163 -155.691 178.113 C-155.713 168.017 -155.723 157.921 -155.724 147.825 C-155.725 141.799 -155.731 135.774 -155.749 129.749 C-155.765 124.077 -155.767 118.405 -155.759 112.734 C-155.758 110.658 -155.762 108.583 -155.772 106.508 C-155.847 89.945 -155.009 76.245 -143.589 63.224 C-135.113 55.049 -124.057 52.12 -112.582 52.177 C-112.196 52.177 -112.196 52.177 -110.244 52.177 C-107.707 52.177 -105.169 52.185 -102.632 52.193 C-100.868 52.195 -99.103 52.196 -97.339 52.197 C-92.705 52.201 -88.071 52.211 -83.436 52.222 C-78.704 52.232 -73.971 52.237 -69.239 52.242 C-59.96 52.252 -50.68 52.269 -41.401 52.291 C-41.42 51.216 -41.439 50.141 -41.458 49.034 C-41.474 47.598 -41.488 46.161 -41.503 44.724 C-41.516 44.019 -41.53 43.314 -41.544 42.588 C-41.632 30.842 -37.417 20.54 -29.296 12.103 C-24.759 7.855 -20.202 4.557 -14.401 2.291 C-13.543 1.95 -12.684 1.61 -11.8 1.259 C-7.817 0.124 -4.104 -0.005 0 0 Z M-19.401 25.291 C-25.541 34.426 -25.401 40.669 -25.401 52.291 C14.529 52.291 54.459 52.291 95.599 52.291 C95.599 39.725 95.47 32.955 87.286 23.666 C81.123 18.219 75.32 16.144 67.149 16.114 C66.771 16.11 66.771 16.11 64.857 16.094 C62.351 16.074 59.846 16.062 57.341 16.052 C56.483 16.048 55.626 16.044 54.742 16.04 C50.2 16.019 45.657 16.005 41.115 15.995 C36.437 15.984 31.761 15.95 27.084 15.91 C23.475 15.884 19.867 15.876 16.258 15.872 C14.535 15.867 12.812 15.856 11.089 15.837 C-0.889 15.716 -10.56 16.249 -19.401 25.291 Z M73.599 342.291 C75.249 346.581 76.899 350.871 78.599 355.291 C78.929 355.291 79.259 355.291 79.599 355.291 C79.599 351.001 79.599 346.711 79.599 342.291 C77.619 342.291 75.639 342.291 73.599 342.291 Z M0.161 358.103 C-3.936 364.289 -6.653 370.738 -5.401 378.291 C-2.781 387.064 0.859 392.522 8.697 397.275 C14.641 400.449 22.666 400.441 29.056 398.572 C36.289 395.142 40.977 389.298 44.599 382.291 C47.082 374.215 45.329 367.615 41.599 360.291 C37.87 354.478 33.098 351.374 26.599 349.291 C16.242 347.717 6.916 349.71 0.161 358.103 Z " fill="#FE5E57" transform="translate(158.401123046875,-0.29052734375)"/>
<path d="M0 0 C14.85 0 29.7 0 45 0 C45.66 4.62 46.32 9.24 47 14 C51.17 26.328 64.786 34.818 74.848 42.391 C79.792 46.184 83.041 51.123 85 57 C85.118 59.223 85.177 61.449 85.205 63.675 C85.215 64.348 85.225 65.021 85.235 65.715 C85.267 67.939 85.292 70.163 85.316 72.387 C85.337 73.929 85.358 75.472 85.379 77.015 C85.435 81.074 85.484 85.133 85.532 89.192 C85.582 93.334 85.638 97.477 85.693 101.619 C85.801 109.746 85.902 117.873 86 126 C86.471 125.579 86.941 125.158 87.426 124.725 C88.048 124.178 88.671 123.63 89.312 123.066 C89.927 122.522 90.542 121.977 91.176 121.416 C93.823 119.361 95.661 118.93 99 119 C104.084 120.832 107.3 122.799 111.169 126.667 C111.635 127.128 112.101 127.589 112.581 128.063 C114.102 129.571 115.608 131.094 117.113 132.617 C118.174 133.678 119.235 134.738 120.297 135.797 C122.513 138.011 124.722 140.233 126.926 142.459 C129.746 145.308 132.582 148.141 135.423 150.97 C137.614 153.153 139.797 155.344 141.978 157.538 C143.021 158.585 144.066 159.63 145.113 160.674 C146.575 162.133 148.028 163.602 149.478 165.074 C150.305 165.906 151.132 166.739 151.984 167.597 C155.039 171.239 155.947 173.961 156.188 178.688 C155.553 182.674 153.74 184.741 151.023 187.662 C150.207 188.541 149.392 189.42 148.551 190.326 C144.564 194.506 140.527 198.629 136.445 202.717 C135.536 203.63 134.628 204.544 133.692 205.485 C131.231 207.958 128.768 210.428 126.304 212.896 C124.76 214.443 123.217 215.99 121.675 217.537 C116.835 222.39 111.994 227.241 107.149 232.089 C101.578 237.665 96.013 243.248 90.454 248.836 C86.137 253.174 81.815 257.507 77.488 261.835 C74.911 264.413 72.336 266.994 69.768 269.58 C66.909 272.458 64.039 275.324 61.167 278.189 C60.324 279.042 59.481 279.894 58.612 280.772 C50.04 289.284 50.04 289.284 43.797 290.391 C38.712 290.041 36 288.468 32.291 284.995 C31.417 284.181 30.543 283.366 29.643 282.528 C25.598 278.659 21.574 274.775 17.598 270.836 C16.753 270 15.909 269.163 15.039 268.302 C13.274 266.55 11.51 264.797 9.748 263.043 C7.949 261.256 6.147 259.474 4.34 257.696 C1.707 255.107 -0.911 252.504 -3.527 249.898 C-4.334 249.11 -5.14 248.321 -5.97 247.508 C-11.127 242.332 -14.849 238.16 -15.125 230.562 C-13.534 225.525 -10.681 222.701 -7 219 C-6.536 218.529 -6.072 218.058 -5.593 217.572 C-2.422 214.354 0.779 211.168 4 208 C3.597 207.995 3.597 207.995 1.557 207.972 C-2.13 207.918 -5.814 207.834 -9.5 207.75 C-10.768 207.736 -12.037 207.722 -13.344 207.707 C-21.735 207.488 -27.959 207.063 -34.033 200.956 C-35.761 199.018 -37.407 197.05 -39 195 C-39.005 195.382 -39.005 195.382 -39.028 197.316 C-39.483 226.954 -44.625 251.152 -66.317 272.408 C-80.648 285.862 -98.109 292.72 -117 297 C-117.998 297.227 -118.995 297.454 -120.023 297.688 C-131.143 299.789 -141.348 299 -153 299 C-153.33 272.93 -153.66 246.86 -154 220 C-157.96 220.99 -161.92 221.98 -166 223 C-183.5 224.739 -200.218 220.565 -214.195 209.559 C-227.616 198.34 -235.359 182.805 -236.938 165.375 C-237.613 145.711 -230.884 130.498 -217.625 116.188 C-203.518 102.859 -187.631 99.497 -169.023 99.723 C-162.069 99.938 -156.377 101.094 -150 104 C-149.077 104.401 -148.154 104.802 -147.203 105.215 C-133.587 111.85 -121.104 124.646 -116 139 C-115.19 132.172 -114.889 125.48 -114.93 118.609 C-114.921 116.664 -114.911 114.719 -114.898 112.773 C-114.882 109.749 -114.875 106.726 -114.9 103.702 C-114.921 100.753 -114.898 97.808 -114.867 94.859 C-114.885 93.959 -114.902 93.059 -114.92 92.132 C-114.851 88.529 -114.795 86.01 -112.518 83.117 C-103.121 74.795 -90.19 73.625 -78.125 73.75 C-77.159 73.758 -76.193 73.766 -75.198 73.775 C-63.158 73.963 -50.053 74.947 -41 84 C-40.996 83.194 -40.992 82.387 -40.988 81.557 C-40.954 77.87 -40.884 74.186 -40.812 70.5 C-40.81 69.866 -40.81 69.866 -40.795 66.656 C-40.564 56.791 -38.706 51.612 -31.836 44.691 C-30.692 43.638 -29.538 42.596 -28.375 41.562 C-27.764 41.006 -27.153 40.45 -26.523 39.876 C-22.78 36.496 -18.935 33.279 -15 30.125 C-8.049 24.513 -3.433 19.708 -1 11 C-0.67 7.37 -0.34 3.74 0 0 Z M-194.438 144.812 C-198.535 150.999 -201.252 157.448 -200 165 C-197.38 173.773 -193.739 179.231 -185.902 183.984 C-179.958 187.158 -171.933 187.15 -165.543 185.281 C-158.31 181.851 -153.622 176.008 -150 169 C-147.516 160.925 -149.27 154.324 -153 147 C-156.729 141.188 -161.501 138.084 -168 136 C-178.357 134.426 -187.683 136.419 -194.438 144.812 Z " fill="#CFF4FE" transform="translate(353,213)"/>
<path d="M0 0 C0.966 0.008 1.932 0.016 2.927 0.025 C14.849 0.212 24.909 1.567 35.125 8.25 C38.066 11.411 38.502 13.554 38.513 17.824 C38.523 18.96 38.532 20.095 38.543 21.264 C38.538 22.506 38.534 23.747 38.529 25.026 C38.536 26.337 38.543 27.649 38.55 28.999 C38.568 32.597 38.567 36.195 38.561 39.793 C38.558 42.806 38.564 45.82 38.57 48.833 C38.584 55.957 38.582 63.081 38.571 70.206 C38.56 77.52 38.574 84.833 38.6 92.147 C38.623 98.448 38.629 104.749 38.623 111.05 C38.62 114.803 38.622 118.556 38.64 122.309 C38.789 157.957 38.789 157.957 30.5 173.438 C30.159 174.091 29.819 174.745 29.468 175.419 C17.153 198.245 -3.081 212.993 -27.703 220.438 C-31.411 221.475 -35.12 222.399 -38.875 223.25 C-39.873 223.477 -40.87 223.704 -41.898 223.938 C-53.018 226.039 -63.223 225.25 -74.875 225.25 C-75.205 199.18 -75.535 173.11 -75.875 146.25 C-79.835 147.24 -83.795 148.23 -87.875 149.25 C-105.375 150.989 -122.093 146.815 -136.07 135.809 C-149.491 124.59 -157.234 109.055 -158.812 91.625 C-159.488 71.961 -152.759 56.748 -139.5 42.438 C-125.393 29.109 -109.506 25.747 -90.898 25.973 C-83.944 26.188 -78.252 27.344 -71.875 30.25 C-70.952 30.651 -70.029 31.052 -69.078 31.465 C-55.462 38.1 -42.979 50.896 -37.875 65.25 C-37.065 58.422 -36.764 51.73 -36.805 44.859 C-36.796 42.914 -36.786 40.969 -36.773 39.023 C-36.757 35.999 -36.75 32.976 -36.775 29.952 C-36.796 27.003 -36.773 24.058 -36.742 21.109 C-36.76 20.209 -36.777 19.309 -36.795 18.382 C-36.726 14.779 -36.67 12.26 -34.393 9.367 C-24.996 1.045 -12.065 -0.125 0 0 Z M-116.312 71.062 C-120.41 77.249 -123.127 83.698 -121.875 91.25 C-119.255 100.023 -115.614 105.481 -107.777 110.234 C-101.833 113.408 -93.808 113.4 -87.418 111.531 C-80.185 108.101 -75.497 102.258 -71.875 95.25 C-69.391 87.175 -71.145 80.574 -74.875 73.25 C-78.604 67.438 -83.376 64.334 -89.875 62.25 C-100.232 60.676 -109.558 62.669 -116.312 71.062 Z " fill="#FEEEBE" transform="translate(274.875,286.75)"/>
<path d="M0 0 C18.81 0 37.62 0 57 0 C57 14.52 57 29.04 57 44 C71.85 44 86.7 44 102 44 C102 63.14 102 82.28 102 102 C87.15 102 72.3 102 57 102 C57 116.85 57 131.7 57 147 C37.86 147 18.72 147 -1 147 C-1 132.15 -1 117.3 -1 102 C-15.52 102 -30.04 102 -45 102 C-45 83.19 -45 64.38 -45 45 C-30.15 45 -15.3 45 0 45 C0 30.15 0 15.3 0 0 Z " fill="#FFF5DA" transform="translate(165,124)"/>
<path d="M0 0 C3.198 1.411 5.35 3.098 7.819 5.56 C8.553 6.288 9.287 7.015 10.043 7.765 C10.826 8.552 11.608 9.338 12.414 10.148 C13.225 10.957 14.036 11.766 14.871 12.6 C16.583 14.31 18.293 16.024 20 17.739 C22.615 20.365 25.24 22.98 27.867 25.594 C29.529 27.257 31.191 28.921 32.852 30.586 C33.638 31.368 34.424 32.151 35.235 32.957 C35.962 33.691 36.69 34.425 37.44 35.181 C38.081 35.824 38.722 36.466 39.382 37.128 C41.82 39.949 42.893 42.178 43.375 45.875 C42.454 53.547 35.339 58.932 30.132 64.095 C29.238 64.99 28.343 65.885 27.421 66.807 C24.979 69.249 22.532 71.685 20.083 74.12 C17.518 76.673 14.958 79.231 12.398 81.789 C7.553 86.628 2.702 91.462 -2.15 96.294 C-7.668 101.79 -13.181 107.291 -18.693 112.793 C-29.565 123.646 -40.444 134.492 -51.328 145.334 C-52.553 146.555 -53.777 147.777 -55 149 C-60.513 143.588 -66.011 138.161 -71.498 132.722 C-73.365 130.875 -75.236 129.031 -77.111 127.191 C-79.809 124.542 -82.493 121.88 -85.176 119.215 C-86.013 118.398 -86.851 117.581 -87.714 116.739 C-92.979 111.477 -96.843 107.306 -97.125 99.562 C-95.526 94.499 -92.701 91.726 -89 88 C-87.975 86.949 -86.95 85.899 -85.926 84.848 C-81.482 80.33 -77.046 75.867 -72.236 71.737 C-68.283 68.291 -64.545 64.681 -60.85 60.963 C-60.185 60.299 -59.521 59.635 -58.836 58.95 C-56.67 56.783 -54.507 54.612 -52.344 52.441 C-50.831 50.927 -49.318 49.412 -47.804 47.898 C-43.843 43.933 -39.886 39.965 -35.928 35.997 C-31.881 31.94 -27.831 27.885 -23.781 23.83 C-15.851 15.89 -7.925 7.946 0 0 Z " fill="#C2D8EC" transform="translate(435,344)"/>
<path d="M0 0 C0.923 0.401 1.846 0.802 2.797 1.215 C16.489 7.887 28.716 20.651 34.215 34.889 C35.881 41.489 35.404 48.367 35.25 55.125 C35.23 56.669 35.212 58.214 35.195 59.758 C35.152 63.506 35.083 67.253 35 71 C7.785 76.595 7.785 76.595 -3 73 C-3 86.86 -3 100.72 -3 115 C-19.503 121.188 -35.159 120.425 -51.402 113.562 C-67.383 105.657 -77.785 93.369 -83.938 76.625 C-88.931 60.228 -87.72 43.346 -80 28 C-70.019 12.476 -57.059 1.749 -39.16 -3.544 C-26.809 -6.151 -11.49 -5.236 0 0 Z M-44.438 40.812 C-48.535 46.999 -51.252 53.448 -50 61 C-47.38 69.773 -43.739 75.231 -35.902 79.984 C-29.958 83.158 -21.933 83.15 -15.543 81.281 C-8.31 77.851 -3.622 72.008 0 65 C2.484 56.925 0.73 50.324 -3 43 C-6.729 37.188 -11.501 34.084 -18 32 C-28.357 30.426 -37.683 32.419 -44.438 40.812 Z " fill="#CFF4FE" transform="translate(203,317)"/>
<path d="M0 0 C0.33 0 0.66 0 1 0 C1 9.24 1 18.48 1 28 C16.172 22.727 27.533 17.252 39.785 6.723 C42 5 42 5 44 5 C44.047 13.937 44.082 22.874 44.104 31.811 C44.114 35.961 44.128 40.112 44.151 44.263 C44.173 48.277 44.185 52.29 44.19 56.304 C44.193 57.827 44.201 59.35 44.211 60.873 C44.291 72.43 43.505 83.149 39.312 94 C39.182 94.34 39.182 94.34 38.521 96.063 C34.301 106.645 27.824 114.82 20 123 C19.386 123.688 18.773 124.377 18.141 125.086 C4.697 139.621 -15.055 146.954 -34 151 C-35.32 151 -36.64 151 -38 151 C-38 111.4 -38 71.8 -38 31 C-31.07 31 -24.14 31 -17 31 C-11.324 30.422 -5.651 29.786 0 29 C0 19.43 0 9.86 0 0 Z " fill="#FEF5DA" transform="translate(238,359)"/>
<path d="M0 0 C4.124 3.267 7.757 6.985 11.43 10.738 C12.511 11.823 13.593 12.907 14.677 13.99 C16.937 16.254 19.187 18.529 21.429 20.811 C24.298 23.732 27.187 26.632 30.084 29.527 C32.317 31.761 34.542 34.002 36.765 36.247 C37.828 37.319 38.892 38.389 39.958 39.458 C41.447 40.953 42.926 42.458 44.402 43.966 C44.823 44.393 44.823 44.393 46.953 46.552 C50.021 50.222 50.946 52.931 51.188 57.688 C50.553 61.674 48.74 63.741 46.023 66.662 C45.207 67.541 44.392 68.42 43.551 69.326 C39.564 73.506 35.527 77.629 31.445 81.717 C30.99 82.173 30.99 82.173 28.692 84.485 C26.231 86.958 23.768 89.428 21.304 91.896 C19.76 93.443 18.217 94.99 16.675 96.537 C11.835 101.39 6.994 106.241 2.149 111.089 C-3.422 116.665 -8.987 122.248 -14.546 127.836 C-18.863 132.174 -23.185 136.507 -27.512 140.835 C-30.089 143.413 -32.664 145.994 -35.232 148.58 C-38.091 151.458 -40.961 154.324 -43.833 157.189 C-44.254 157.615 -44.254 157.615 -46.388 159.772 C-55.05 168.373 -55.05 168.373 -61.238 169.355 C-68.348 168.78 -72.18 165.002 -77 160 C-76.425 156.306 -74.988 154.62 -72.363 152.015 C-71.972 151.624 -71.972 151.624 -69.996 149.645 C-69.564 149.22 -69.564 149.22 -67.381 147.072 C-66.929 146.622 -66.929 146.622 -64.642 144.341 C-62.676 142.382 -60.706 140.427 -58.732 138.476 C-55.611 135.391 -52.501 132.295 -49.392 129.197 C-43.353 123.181 -37.302 117.177 -31.25 111.174 C-23.549 103.534 -15.854 95.889 -8.168 88.234 C-5.076 85.156 -1.98 82.083 1.121 79.014 C2.585 77.564 4.046 76.112 5.507 74.659 C7.288 72.887 9.072 71.119 10.86 69.355 C11.252 68.964 11.252 68.964 13.236 66.985 C13.577 66.646 13.577 66.646 15.304 64.933 C17.8 62.088 18.886 59.877 19.375 56.125 C18.472 48.603 11.639 43.376 6.516 38.32 C5.7 37.508 4.884 36.695 4.044 35.857 C1.451 33.275 -1.149 30.7 -3.75 28.125 C-5.515 26.37 -7.279 24.615 -9.043 22.859 C-13.357 18.568 -17.676 14.282 -22 10 C-20.448 6.708 -18.886 4.714 -16.125 2.312 C-15.447 1.711 -14.769 1.109 -14.07 0.488 C-9.533 -2.773 -4.918 -2.39 0 0 Z " fill="#B4CAE0" transform="translate(458,334)"/>
<path d="M0 0 C0.522 -0.005 0.522 -0.005 3.165 -0.028 C4.283 -0.012 5.401 0.005 6.553 0.021 C7.131 0.021 7.131 0.021 10.06 0.021 C12.505 0.027 14.949 0.044 17.393 0.073 C21.133 0.115 24.871 0.114 28.611 0.107 C30.988 0.118 33.364 0.131 35.74 0.146 C36.858 0.147 37.976 0.147 39.128 0.147 C39.65 0.155 39.65 0.155 42.293 0.195 C42.751 0.2 42.751 0.2 45.067 0.221 C48.187 0.698 50.095 1.785 52.646 3.615 C54.074 6.471 53.798 8.921 53.823 12.113 C53.83 12.78 53.837 13.447 53.843 14.134 C53.863 16.344 53.875 18.554 53.885 20.764 C53.889 21.518 53.893 22.273 53.897 23.05 C53.918 27.042 53.932 31.034 53.942 35.026 C53.953 39.151 53.987 43.276 54.027 47.401 C54.053 50.572 54.061 53.742 54.065 56.913 C54.07 58.434 54.081 59.954 54.1 61.475 C54.124 63.603 54.123 65.73 54.116 67.859 C54.122 69.07 54.128 70.281 54.134 71.528 C53.551 75.217 52.545 76.346 49.646 78.615 C47.173 79.852 45.492 79.762 42.725 79.792 C42.213 79.799 42.213 79.799 39.62 79.831 C39.064 79.835 39.064 79.835 36.252 79.854 C35.112 79.862 33.973 79.87 32.799 79.878 C30.384 79.892 27.969 79.903 25.553 79.91 C21.859 79.928 18.166 79.971 14.473 80.016 C12.128 80.026 9.784 80.034 7.439 80.041 C6.887 80.05 6.887 80.05 4.09 80.094 C-3.59 80.072 -3.59 80.072 -7.528 77.714 C-10.623 74.156 -10.496 71.887 -10.546 67.225 C-10.555 66.57 -10.563 65.914 -10.571 65.239 C-10.596 63.066 -10.613 60.894 -10.627 58.721 C-10.632 57.979 -10.638 57.236 -10.643 56.472 C-10.67 52.543 -10.689 48.615 -10.704 44.686 C-10.72 40.631 -10.765 36.576 -10.816 32.521 C-10.85 29.4 -10.861 26.28 -10.867 23.16 C-10.874 21.665 -10.889 20.171 -10.913 18.676 C-10.944 16.581 -10.944 14.488 -10.937 12.393 C-10.945 11.202 -10.953 10.012 -10.962 8.785 C-9.793 2.695 -6.036 -0.014 0 0 Z " fill="#FE8A85" transform="translate(353.353515625,294.384765625)"/>
<path d="M0 0 C10.23 0 20.46 0 31 0 C31.66 4.62 32.32 9.24 33 14 C37.17 26.328 50.786 34.818 60.848 42.391 C65.792 46.184 69.041 51.123 71 57 C71.135 59.231 71.211 61.465 71.256 63.699 C71.271 64.376 71.286 65.053 71.301 65.751 C71.427 72 71.495 78.25 71.548 84.5 C71.584 88.693 71.637 92.884 71.734 97.076 C71.827 101.139 71.875 105.199 71.893 109.263 C71.907 110.804 71.936 112.345 71.982 113.885 C72.201 121.626 72.216 127.569 66.783 133.677 C65.217 135.149 63.626 136.595 62 138 C61.011 139.011 60.031 140.03 59.066 141.063 C58.24 141.89 57.414 142.718 56.562 143.57 C55.649 144.486 54.735 145.401 53.793 146.344 C52.871 147.262 51.95 148.179 51 149.125 C50.038 150.091 49.075 151.057 48.113 152.023 C47.21 152.926 46.306 153.828 45.375 154.758 C44.558 155.574 43.74 156.39 42.898 157.231 C41 159 41 159 40 159 C39.998 158.37 39.998 158.37 39.989 155.182 C39.952 143.293 39.894 131.405 39.816 119.517 C39.777 113.406 39.744 107.294 39.729 101.183 C39.714 95.282 39.679 89.382 39.632 83.482 C39.617 81.233 39.609 78.984 39.608 76.736 C39.606 73.581 39.579 70.427 39.546 67.271 C39.551 66.346 39.556 65.421 39.561 64.468 C39.451 57.588 37.752 52.445 33.435 47.041 C32.94 46.596 32.444 46.15 31.934 45.691 C31.371 45.177 30.808 44.662 30.229 44.132 C29.638 43.614 29.047 43.096 28.438 42.562 C27.821 42.005 27.205 41.448 26.57 40.874 C22.829 37.521 18.984 34.327 15.062 31.188 C7.424 25.012 2.238 19.742 0 10 C0 6.7 0 3.4 0 0 Z " fill="#B8EFFE" transform="translate(367,213)"/>
<path d="M0 0 C4.746 -0.1 9.492 -0.172 14.24 -0.22 C15.848 -0.24 17.457 -0.267 19.066 -0.302 C34.35 -0.626 47.302 1.168 59 12 C66.131 20.245 69.638 29.958 69.454 40.764 C69.455 41.682 69.455 42.601 69.456 43.547 C69.453 46.545 69.422 49.541 69.391 52.539 C69.383 54.632 69.377 56.725 69.373 58.819 C69.358 64.3 69.319 69.781 69.275 75.261 C69.234 80.866 69.215 86.47 69.195 92.074 C69.153 103.05 69.082 114.025 69 125 C59.1 125 49.2 125 39 125 C38.985 122.326 38.971 119.652 38.956 116.897 C38.905 108.036 38.839 99.175 38.764 90.314 C38.72 84.945 38.68 79.576 38.654 74.207 C38.627 69.019 38.587 63.832 38.537 58.645 C38.52 56.672 38.509 54.698 38.502 52.725 C38.449 37.573 37.689 24.49 26.926 12.734 C18.876 5.148 10.801 2.534 0 1 C0 0.67 0 0.34 0 0 Z " fill="#F7372F" transform="translate(314,52)"/>
<path d="M0 0 C0.476 0.348 0.952 0.697 1.443 1.056 C2.07 1.51 2.697 1.965 3.343 2.433 C3.963 2.884 4.583 3.336 5.223 3.801 C8.808 6.22 12.849 6.989 17 8 C17.713 8.206 18.426 8.413 19.16 8.625 C35.822 12.857 56.021 10.738 71 2.312 C71.66 1.879 72.32 1.446 73 1 C72.919 20.141 62.102 36.968 50 51 C49.178 51.968 48.355 52.936 47.508 53.934 C35.433 67.831 20.908 78.009 3 83 C2.01 83 1.02 83 0 83 C-0.172 78.688 -0.337 74.375 -0.5 70.062 C-0.548 68.869 -0.595 67.676 -0.645 66.447 C-1.249 50.26 -0.963 34.124 -0.5 17.938 C-0.452 16.184 -0.403 14.431 -0.355 12.678 C-0.239 8.452 -0.121 4.226 0 0 Z " fill="#FEE354" transform="translate(239,304)"/>
<path d="M0 0 C0.411 -0.003 0.411 -0.003 2.491 -0.02 C5.198 -0.039 7.904 -0.043 10.611 -0.045 C12.504 -0.052 14.397 -0.059 16.29 -0.066 C20.257 -0.078 24.224 -0.081 28.19 -0.08 C33.25 -0.08 38.308 -0.107 43.367 -0.142 C47.279 -0.164 51.19 -0.168 55.101 -0.167 C56.965 -0.169 58.829 -0.178 60.692 -0.194 C75.728 -0.307 88.079 1.385 99.536 12.103 C111.018 24.377 111.867 37.351 111.599 53.291 C106.319 53.291 101.039 53.291 95.599 53.291 C95.501 52.084 95.403 50.877 95.302 49.634 C95.152 48.02 95.001 46.405 94.849 44.791 C94.787 43.999 94.725 43.208 94.661 42.392 C94.091 36.592 92.461 32.329 89.599 27.291 C89.309 26.596 89.019 25.902 88.721 25.187 C87.315 22.811 86.072 22.451 83.599 21.291 C83.027 20.943 82.456 20.596 81.867 20.239 C74.059 15.971 65.387 16.712 56.755 16.759 C55.018 16.757 53.282 16.753 51.545 16.748 C47.917 16.742 44.29 16.75 40.662 16.769 C36.032 16.792 31.403 16.779 26.773 16.755 C23.19 16.74 19.607 16.745 16.025 16.755 C14.318 16.758 12.612 16.755 10.906 16.745 C-6.12 16.672 -6.12 16.672 -13.401 21.291 C-14.309 21.847 -15.216 22.404 -16.151 22.978 C-22.846 29.859 -24.356 37.312 -24.964 46.603 C-25.036 47.706 -25.036 47.706 -25.401 53.291 C-30.681 53.291 -35.961 53.291 -41.401 53.291 C-41.872 38.815 -41.272 25.847 -31.401 14.291 C-26.379 9.073 -21.173 4.936 -14.401 2.291 C-13.543 1.95 -12.684 1.61 -11.8 1.259 C-7.817 0.124 -4.104 -0.005 0 0 Z " fill="#C2D7EC" transform="translate(158.401123046875,-0.29052734375)"/>
<path d="M0 0 C0.691 -0.005 1.383 -0.01 2.095 -0.014 C3.551 -0.018 5.006 -0.009 6.462 0.012 C8.682 0.039 10.897 0.012 13.117 -0.02 C14.536 -0.016 15.956 -0.01 17.375 0 C18.658 0.006 19.94 0.011 21.262 0.017 C25.634 0.843 27.104 2.069 29.688 5.664 C30.255 8.894 30.255 8.894 30.176 12.496 C30.16 13.788 30.144 15.081 30.127 16.412 C30.085 17.767 30.043 19.122 30 20.477 C29.975 21.851 29.952 23.225 29.932 24.6 C29.873 27.955 29.783 31.31 29.688 34.664 C35.298 34.664 40.908 34.664 46.688 34.664 C46.688 34.994 46.688 35.324 46.688 35.664 C31.837 35.664 16.988 35.664 1.688 35.664 C1.688 39.294 1.688 42.924 1.688 46.664 C1.358 46.664 1.027 46.664 0.688 46.664 C0.688 43.034 0.688 39.404 0.688 35.664 C-3.603 35.664 -7.892 35.664 -12.312 35.664 C-12.428 31.481 -12.527 27.304 -12.587 23.121 C-12.612 21.7 -12.646 20.279 -12.69 18.859 C-12.751 16.81 -12.779 14.764 -12.801 12.715 C-12.827 11.484 -12.853 10.254 -12.88 8.986 C-11.608 1.541 -6.927 0.03 0 0 Z " fill="#FE8A85" transform="translate(351.3125,177.3359375)"/>
<path d="M0 0 C2.5 2.062 2.5 2.062 4 5 C4 8.814 3.85 11.024 1.312 13.938 C-1.768 15.353 -3.647 15.559 -7 15 C-9.896 12.408 -10.873 10.777 -11.5 6.938 C-11 4 -11 4 -9.438 1.625 C-6.041 -0.639 -3.999 -0.643 0 0 Z " fill="#FCF4DB" transform="translate(380,435)"/>
<path d="M0 0 C1.875 1.062 1.875 1.062 3 3 C3.393 6.095 3.629 8.044 3 11 C0.875 13.562 0.875 13.562 -2 15 C-5.155 14.937 -7.138 14.489 -9.875 12.938 C-11.727 9.748 -11.749 6.518 -11 3 C-7.567 -1.14 -5.053 -1.648 0 0 Z " fill="#FCF4DB" transform="translate(401,456)"/>
<path d="M0 0 C1.938 1 1.938 1 3 3 C3.759 9.832 3.759 9.832 1.375 13.5 C-1.743 15.469 -3.377 15.679 -7 15 C-9.896 12.408 -10.873 10.777 -11.5 6.938 C-11 4 -11 4 -9.438 1.625 C-6.101 -0.6 -3.931 -0.5 0 0 Z " fill="#FDF5DB" transform="translate(452,363)"/>
<path d="M0 0 C2 1 2 1 3 3 C3.393 6.095 3.629 8.044 3 11 C0.875 13.562 0.875 13.562 -2 15 C-5.155 14.937 -7.138 14.489 -9.875 12.938 C-11.719 9.761 -11.521 6.571 -11 3 C-8.886 -1.227 -4.148 -0.605 0 0 Z " fill="#FDF5DB" transform="translate(425,432)"/>
<path d="M0 0 C1.938 1 1.938 1 3 3 C3.577 7.47 3.544 10.184 1 14 C-1.658 15.013 -4.173 15.274 -7 15 C-10.068 12.469 -10.862 10.846 -11.5 6.938 C-11 4 -11 4 -9.438 1.625 C-6.101 -0.6 -3.931 -0.5 0 0 Z " fill="#FDF5DB" transform="translate(404,411)"/>
<path d="M0 0 C2 1 2 1 3 3 C3.393 6.095 3.629 8.044 3 11 C0.875 13.562 0.875 13.562 -2 15 C-5.155 14.937 -7.138 14.489 -9.875 12.938 C-11.719 9.761 -11.521 6.571 -11 3 C-8.886 -1.227 -4.148 -0.605 0 0 Z " fill="#FDF5DB" transform="translate(449,408)"/>
<path d="M0 0 C1.938 1 1.938 1 3 3 C3.577 7.47 3.544 10.184 1 14 C-1.658 15.013 -4.173 15.274 -7 15 C-10.068 12.469 -10.862 10.846 -11.5 6.938 C-11 4 -11 4 -9.438 1.625 C-6.101 -0.6 -3.931 -0.5 0 0 Z " fill="#FDF5DB" transform="translate(428,387)"/>
<path d="M0 0 C2 1.062 2 1.062 3 3 C3.5 6.375 3.5 6.375 3 10 C0.688 13.105 -0.743 14.724 -4.562 15.562 C-7.935 14.784 -9.057 13.878 -11 11 C-11.636 7.488 -11.63 4.26 -10 1 C-6.741 -0.629 -3.561 -0.527 0 0 Z " fill="#FDF5DB" transform="translate(473,384)"/>
</svg>
