<?xml version="1.0" encoding="UTF-8"?>
<!-- Generator: visioncortex VTracer 0.6.12 -->
<svg version="1.1" xmlns="http://www.w3.org/2000/svg" width="512" height="512">
<path d="M0 0 C8.185 6.918 13.747 15.117 14.672 26.004 C14.93 38.26 12.996 47.814 4.336 57.051 C-0.899 61.668 -6.489 66.051 -13.664 66.051 C-12.983 66.711 -12.303 67.371 -11.602 68.051 C-10.619 69.047 -9.64 70.048 -8.664 71.051 C-8.098 71.621 -7.532 72.19 -6.949 72.777 C-1.09 79.008 2.626 85.903 4.098 94.355 C5.246 99.759 7.998 103.429 11.336 107.738 C12.519 109.316 13.701 110.894 14.883 112.473 C15.469 113.245 16.055 114.018 16.658 114.814 C18.615 117.423 20.496 120.077 22.367 122.748 C36.912 143.508 36.912 143.508 45.667 146.917 C46.516 147.251 47.365 147.585 48.24 147.93 C49.153 148.283 50.067 148.636 51.008 149 C52.973 149.774 54.938 150.548 56.902 151.322 C59.975 152.524 63.048 153.724 66.123 154.922 C99.076 167.791 99.076 167.791 103.336 172.051 C103.377 173.717 103.379 175.385 103.336 177.051 C104.388 176.968 105.44 176.886 106.523 176.801 C117.566 176.879 127.35 181.653 135.336 189.051 C145.662 200.646 146.923 213.044 146.79 227.915 C146.789 229.7 146.79 231.484 146.792 233.269 C146.793 238.085 146.77 242.9 146.742 247.715 C146.716 252.759 146.714 257.802 146.709 262.846 C146.697 272.383 146.664 281.92 146.624 291.457 C146.579 302.321 146.557 313.184 146.537 324.047 C146.495 346.382 146.425 368.716 146.336 391.051 C147.122 391.192 147.908 391.334 148.719 391.48 C153.547 392.533 156.853 395.931 159.637 399.91 C163.241 406.464 164.127 412.85 162.336 420.113 C160.065 426.741 156.094 431.25 150.273 435.051 C143.503 437.394 134.422 437.406 127.836 434.551 C122.117 431.102 118.406 425.29 116.336 419.051 C115.366 411.833 116.051 405.635 119.633 399.254 C122.507 395.536 126.126 393.085 130.336 391.051 C130.996 391.051 131.656 391.051 132.336 391.051 C132.336 353.431 132.336 315.811 132.336 277.051 C94.716 277.051 57.096 277.051 18.336 277.051 C18.336 324.571 18.336 372.091 18.336 421.051 C23.616 421.051 28.896 421.051 34.336 421.051 C39.336 424.051 39.336 424.051 40.336 426.926 C40.336 430.6 39.559 432.169 37.336 435.051 C34.944 436.247 33.436 436.19 30.766 436.212 C30.292 436.217 30.292 436.217 27.894 436.241 C27.38 436.243 27.38 436.243 24.781 436.254 C23.728 436.26 22.675 436.265 21.59 436.271 C19.359 436.281 17.128 436.287 14.897 436.291 C11.482 436.301 8.067 436.332 4.652 436.363 C2.487 436.37 0.322 436.375 -1.844 436.379 C-2.867 436.391 -3.89 436.404 -4.944 436.416 C-5.898 436.413 -6.852 436.41 -7.835 436.407 C-8.673 436.411 -9.511 436.415 -10.374 436.418 C-13.209 435.963 -14.574 434.989 -16.664 433.051 C-17.765 430.061 -17.767 428.453 -16.977 425.363 C-15.385 422.56 -14.674 422.132 -11.664 421.051 C-9.04 420.911 -6.531 420.861 -3.914 420.926 C-3.217 420.935 -2.519 420.944 -1.801 420.953 C-0.088 420.977 1.624 421.012 3.336 421.051 C3.333 420 3.33 418.95 3.328 417.867 C3.261 392.277 3.212 366.686 3.181 341.095 C3.165 328.72 3.144 316.344 3.11 303.969 C3.08 293.179 3.06 282.39 3.054 271.601 C3.05 265.89 3.041 260.18 3.019 254.47 C2.998 249.089 2.992 243.708 2.997 238.327 C2.996 236.358 2.99 234.389 2.978 232.421 C2.884 215.575 4.18 201.051 16.043 188.164 C19.748 184.75 23.93 182.438 28.336 180.051 C29.326 179.391 30.316 178.731 31.336 178.051 C30.716 177.924 30.096 177.798 29.457 177.668 C19.139 174.814 12.637 167.457 5.336 160.051 C4.526 159.231 3.717 158.411 2.883 157.566 C1.628 156.292 0.374 155.016 -0.879 153.738 C-3.91 150.873 -7.255 148.445 -10.664 146.051 C-10.878 146.717 -11.092 147.384 -11.312 148.07 C-13.121 152.059 -15.628 155.277 -18.289 158.738 C-18.831 159.451 -19.373 160.164 -19.931 160.898 C-25.783 168.566 -31.806 176.066 -38.039 183.426 C-38.272 183.701 -38.272 183.701 -39.448 185.092 C-41.73 187.785 -44.023 190.466 -46.344 193.125 C-62.581 212.002 -68.592 232.625 -67.314 257.175 C-67.267 258.128 -67.221 259.082 -67.172 260.064 C-66.622 270.707 -65.769 281.322 -64.887 291.941 C-64.713 294.067 -64.54 296.193 -64.367 298.319 C-63.916 303.859 -63.46 309.399 -63.003 314.939 C-62.454 321.605 -61.911 328.271 -61.366 334.938 C-61.278 336.014 -61.19 337.09 -61.1 338.199 C-61.013 339.265 -60.926 340.331 -60.836 341.429 C-60.577 344.599 -60.317 347.769 -60.056 350.938 C-59.078 362.864 -58.117 374.791 -57.256 386.725 C-57.076 389.169 -56.88 391.61 -56.664 394.051 C-56.604 394.745 -56.544 395.44 -56.482 396.156 C-56.084 399.769 -55.965 400.788 -53.117 403.273 C-52.06 403.881 -51.003 404.488 -49.914 405.113 C-44.483 408.439 -40.56 411.258 -37.664 417.051 C-37.542 418.818 -37.489 420.591 -37.477 422.363 C-37.462 423.308 -37.448 424.253 -37.434 425.227 C-37.677 428.206 -38.505 430.317 -39.664 433.051 C-45.784 433.15 -51.903 433.222 -58.023 433.271 C-60.103 433.291 -62.182 433.318 -64.262 433.353 C-67.261 433.401 -70.259 433.424 -73.258 433.441 C-74.179 433.462 -75.1 433.483 -76.049 433.504 C-82.05 433.506 -86.687 432.547 -91.664 429.051 C-95.201 424.487 -95.728 420.295 -95.935 414.626 C-96.409 401.646 -98.265 388.865 -100.043 376.012 C-100.378 373.549 -100.713 371.086 -101.048 368.623 C-101.921 362.201 -102.803 355.78 -103.686 349.359 C-104.59 342.783 -105.485 336.206 -106.381 329.629 C-108.134 316.768 -109.896 303.909 -111.664 291.051 C-121.483 320.961 -131.264 350.88 -140.799 380.882 C-141.121 381.893 -141.443 382.904 -141.774 383.946 C-142.375 385.832 -142.974 387.719 -143.571 389.606 C-143.834 390.431 -144.097 391.256 -144.367 392.107 C-144.481 392.466 -144.481 392.466 -145.058 394.282 C-145.664 396.051 -145.664 396.051 -146.664 398.051 C-145.954 398.314 -145.244 398.577 -144.512 398.848 C-141.517 400.113 -138.867 401.593 -136.102 403.301 C-135.172 403.863 -134.243 404.425 -133.285 405.004 C-129.78 407.741 -127.066 410.473 -126.355 415.031 C-126.272 417.178 -126.313 419.28 -126.414 421.426 C-126.432 422.162 -126.45 422.898 -126.469 423.656 C-126.515 425.455 -126.587 427.253 -126.664 429.051 C-139.057 429.72 -151.44 430.168 -163.852 430.238 C-164.967 430.251 -166.083 430.264 -167.232 430.277 C-168.276 430.279 -169.319 430.28 -170.395 430.281 C-171.316 430.285 -172.238 430.289 -173.188 430.294 C-175.867 430.031 -177.432 429.543 -179.664 428.051 C-184.948 418.395 -182 408.145 -179.57 398.022 C-175.779 381.747 -172.795 365.305 -169.695 348.887 C-169.171 346.111 -168.646 343.336 -168.12 340.56 C-166.28 330.847 -164.446 321.133 -162.615 311.418 C-160.916 302.404 -159.206 293.392 -157.49 284.38 C-156.009 276.595 -154.536 268.809 -153.07 261.021 C-152.198 256.39 -151.322 251.759 -150.438 247.13 C-149.608 242.787 -148.789 238.441 -147.977 234.094 C-147.68 232.508 -147.378 230.923 -147.073 229.339 C-145.534 221.346 -144.332 213.662 -144.589 205.478 C-145.196 185.813 -135.6 169.665 -126.371 153.117 C-123.771 148.445 -121.219 143.747 -118.664 139.051 C-117.673 137.237 -116.682 135.423 -115.691 133.609 C-113.61 129.795 -111.541 125.974 -109.48 122.148 C-103.994 111.968 -98.461 101.817 -92.789 91.738 C-92.278 90.826 -91.767 89.914 -91.24 88.975 C-76.627 63.143 -76.627 63.143 -62.664 59.051 C-58.015 58.188 -53.364 57.559 -48.664 57.051 C-49.572 56.102 -50.479 55.153 -51.414 54.176 C-58.058 46.323 -59.952 37.191 -59.664 27.051 C-58.181 15.442 -52.938 7.261 -44.098 -0.223 C-31.209 -9.367 -12.734 -9.317 0 0 Z M24.336 201.051 C11.716 220.134 18.336 236.724 18.336 263.051 C55.956 263.051 93.576 263.051 132.336 263.051 C132.336 208.452 132.336 208.452 123.699 199.32 C116.678 192.93 110.961 191.671 101.617 191.875 C97.999 192.069 94.433 192.408 90.848 192.93 C88.336 193.051 88.336 193.051 84.769 192.573 C80.141 191.972 75.564 191.854 70.902 191.812 C70.025 191.804 69.148 191.796 68.244 191.788 C66.399 191.774 64.554 191.764 62.71 191.756 C60.837 191.744 58.965 191.724 57.093 191.694 C54.362 191.651 51.633 191.635 48.902 191.625 C48.077 191.607 47.252 191.59 46.402 191.572 C37.736 191.604 30.421 194.827 24.336 201.051 Z " fill="#60B7FD" transform="translate(265.6640625,40.94921875)"/>
<path d="M0 0 C0.788 0.298 1.575 0.596 2.387 0.902 C11.284 5.157 16.099 13.805 21.451 21.715 C23.671 24.99 25.953 28.217 28.25 31.438 C28.649 31.999 29.048 32.56 29.459 33.138 C41.987 50.618 41.987 50.618 50.331 53.866 C51.18 54.2 52.029 54.535 52.904 54.879 C53.817 55.232 54.731 55.585 55.672 55.949 C57.637 56.723 59.602 57.497 61.566 58.271 C64.639 59.473 67.712 60.673 70.787 61.871 C103.74 74.74 103.74 74.74 108 79 C108.041 80.666 108.043 82.334 108 84 C109.052 83.918 110.104 83.835 111.188 83.75 C122.231 83.828 132.015 88.602 140 96 C150.326 107.596 151.587 119.994 151.454 134.864 C151.453 136.649 151.454 138.434 151.456 140.219 C151.457 145.034 151.434 149.849 151.406 154.664 C151.38 159.708 151.378 164.751 151.373 169.795 C151.361 179.332 151.328 188.869 151.288 198.406 C151.243 209.27 151.221 220.133 151.201 230.997 C151.16 253.331 151.089 275.666 151 298 C151.786 298.142 152.572 298.283 153.383 298.429 C158.211 299.482 161.517 302.88 164.301 306.859 C167.905 313.413 168.791 319.799 167 327.062 C164.729 333.69 160.758 338.199 154.938 342 C148.167 344.344 139.086 344.355 132.5 341.5 C126.781 338.051 123.07 332.239 121 326 C120.03 318.782 120.715 312.585 124.297 306.203 C127.171 302.485 130.79 300.035 135 298 C135.66 298 136.32 298 137 298 C137 260.38 137 222.76 137 184 C99.38 184 61.76 184 23 184 C23 231.52 23 279.04 23 328 C28.28 328 33.56 328 39 328 C44 331 44 331 45 333.875 C45 337.549 44.223 339.119 42 342 C39.608 343.196 38.1 343.139 35.43 343.161 C34.956 343.166 34.956 343.166 32.558 343.19 C32.044 343.192 32.044 343.192 29.445 343.203 C28.392 343.209 27.339 343.215 26.254 343.22 C24.023 343.23 21.792 343.236 19.561 343.24 C16.146 343.25 12.731 343.281 9.316 343.312 C7.151 343.319 4.986 343.324 2.82 343.328 C1.797 343.34 0.774 343.353 -0.28 343.366 C-1.234 343.363 -2.188 343.36 -3.171 343.356 C-4.009 343.36 -4.847 343.364 -5.71 343.367 C-8.545 342.913 -9.91 341.939 -12 340 C-13.101 337.011 -13.103 335.403 -12.312 332.312 C-10.721 329.509 -10.01 329.082 -7 328 C-4.376 327.86 -1.867 327.811 0.75 327.875 C1.447 327.884 2.145 327.893 2.863 327.902 C4.576 327.926 6.288 327.962 8 328 C7.997 326.949 7.994 325.899 7.992 324.816 C7.925 299.226 7.876 273.635 7.845 248.045 C7.829 235.669 7.808 223.293 7.774 210.918 C7.744 200.129 7.724 189.339 7.718 178.55 C7.714 172.84 7.705 167.129 7.683 161.419 C7.662 156.038 7.656 150.657 7.661 145.276 C7.66 143.307 7.654 141.339 7.642 139.37 C7.548 122.524 8.844 108 20.707 95.113 C24.412 91.699 28.594 89.387 33 87 C33.99 86.34 34.98 85.68 36 85 C35.69 84.937 35.69 84.937 34.121 84.617 C23.794 81.761 17.315 74.4 10 67 C9.179 66.18 8.358 65.36 7.512 64.516 C6.233 63.234 4.959 61.948 3.691 60.656 C2.006 59.006 0.255 57.502 -1.562 56 C-4.078 53.898 -6.198 51.692 -8.312 49.188 C-10.923 46.118 -13.668 43.418 -16.688 40.75 C-20.695 37.209 -24.574 33.573 -28.375 29.812 C-28.875 29.326 -29.375 28.839 -29.889 28.337 C-33.578 24.659 -37.352 20.861 -38.531 15.656 C-38.454 10.311 -37.669 7.151 -34 3 C-23.858 -4.938 -11.591 -4.775 0 0 Z M29 108 C16.38 127.083 23 143.673 23 170 C60.62 170 98.24 170 137 170 C137 115.401 137 115.401 128.363 106.27 C121.342 99.879 115.625 98.621 106.281 98.824 C102.663 99.018 99.097 99.358 95.512 99.879 C93 100 93 100 89.433 99.522 C84.806 98.922 80.228 98.803 75.566 98.762 C74.689 98.754 73.812 98.746 72.908 98.737 C71.063 98.724 69.218 98.713 67.374 98.705 C65.501 98.693 63.629 98.673 61.757 98.643 C59.026 98.6 56.297 98.584 53.566 98.574 C52.741 98.557 51.916 98.539 51.066 98.521 C42.4 98.553 35.085 101.776 29 108 Z " fill="#4187B5" transform="translate(261,134)"/>
<path d="M0 0 C0.788 0.298 1.575 0.596 2.387 0.902 C11.284 5.157 16.099 13.805 21.451 21.715 C23.671 24.99 25.953 28.217 28.25 31.438 C28.649 31.999 29.048 32.56 29.459 33.138 C41.987 50.618 41.987 50.618 50.331 53.866 C51.18 54.2 52.029 54.535 52.904 54.879 C53.817 55.232 54.731 55.585 55.672 55.949 C57.637 56.723 59.602 57.497 61.566 58.271 C64.639 59.473 67.712 60.673 70.787 61.871 C103.74 74.74 103.74 74.74 108 79 C108.573 85.992 108.483 91.838 105 98 C101.667 101.333 97.547 100.903 93 101 C83.83 100.107 75.176 97.421 66.438 94.625 C65.201 94.238 63.964 93.852 62.689 93.453 C57.091 91.689 51.538 89.86 46.035 87.816 C42.063 86.343 38.135 85.252 34 84.312 C22.556 81.066 15.106 72.34 7.033 64.049 C3.676 60.605 0.207 57.429 -3.473 54.333 C-5.281 52.754 -6.805 51.053 -8.312 49.188 C-10.923 46.118 -13.668 43.418 -16.688 40.75 C-20.695 37.209 -24.574 33.573 -28.375 29.812 C-28.875 29.326 -29.375 28.839 -29.889 28.337 C-33.578 24.659 -37.352 20.861 -38.531 15.656 C-38.454 10.311 -37.669 7.151 -34 3 C-23.858 -4.938 -11.591 -4.775 0 0 Z " fill="#EFB06E" transform="translate(261,134)"/>
<path d="M0 0 C8.185 6.918 13.747 15.117 14.672 26.004 C14.93 38.289 12.973 47.773 4.336 57.051 C-3.781 64.608 -12.597 67.707 -23.623 67.592 C-34.128 67.107 -43.227 62.355 -50.664 55.051 C-57.613 47.142 -60.092 37.841 -59.602 27.426 C-58.199 15.292 -53.058 7.27 -43.723 -0.582 C-30.897 -9.525 -12.515 -9.157 0 0 Z " fill="#EFB16E" transform="translate(265.6640625,40.94921875)"/>
<path d="M0 0 C5.803 4.525 8.88 9.944 10.094 17.188 C10.582 24.455 8.484 30.621 3.906 36.25 C-1.629 41.922 -6.02 42.977 -13.781 43.25 C-19.642 43.095 -24.257 42.642 -28.844 38.812 C-35.035 32.163 -37.412 26.024 -37.211 16.949 C-36.495 10.835 -34.318 5.975 -29.648 1.895 C-21.068 -4.067 -9.281 -5.977 0 0 Z " fill="#F96D85" transform="translate(418.84375,434.1875)"/>
</svg>
