<?xml version="1.0" encoding="UTF-8"?>
<!-- Generator: visioncortex VTracer 0.6.12 -->
<svg version="1.1" xmlns="http://www.w3.org/2000/svg" width="512" height="512">
<path d="M0 0 C65.34 0 130.68 0 198 0 C198.33 11.55 198.66 23.1 199 35 C199.99 37.97 200.98 40.94 202 44 C202 45.32 202 46.64 202 48 C248.86 48 295.72 48 344 48 C344.33 58.56 344.66 69.12 345 80 C346.068 85.959 347.025 90.845 348.875 96.438 C349.041 97.043 349.041 97.043 349.883 100.107 C352.721 109.256 357.182 113.684 365 119 C365.718 119.524 366.436 120.049 367.175 120.589 C369.095 121.99 371.041 123.343 373 124.688 C380.29 129.758 387.456 134.98 394.58 140.28 C395.331 140.837 396.082 141.395 396.855 141.969 C397.562 142.493 398.269 143.018 398.998 143.559 C400.814 144.866 402.661 146.083 404.551 147.281 C405.359 147.848 406.167 148.416 407 149 C407 149.66 407 150.32 407 151 C402.999 151.983 398.997 152.961 394.994 153.936 C393.635 154.267 392.277 154.6 390.918 154.934 C388.955 155.416 386.991 155.894 385.027 156.371 C383.849 156.659 382.671 156.947 381.457 157.244 C377.982 158.004 374.526 158.541 371 159 C370.464 169.508 372.591 174.862 379.242 182.664 C403.08 210.655 411.771 249.318 410 285 C407.513 310.244 395.556 334.284 380 354 C379.576 354.538 379.153 355.076 378.716 355.63 C367.027 370.286 353.635 383.576 338 394 C337.67 420.07 337.34 446.14 337 473 C226.78 473 116.56 473 3 473 C2.67 461.12 2.34 449.24 2 437 C-0.64 434.69 -3.28 432.38 -6 430 C-16.729 419.944 -27.176 409.581 -35.809 397.645 C-37.04 395.945 -38.299 394.269 -39.562 392.594 C-59.931 365.247 -71.66 332.763 -67.695 298.355 C-66.866 293.118 -65.565 288.062 -64 283 C-63.796 282.327 -63.593 281.654 -63.383 280.961 C-58.607 265.691 -50.492 252.256 -40.031 240.223 C-39.808 239.964 -39.808 239.964 -38.681 238.656 C-37 237 -37 237 -34.559 235.424 C-30.387 232.336 -27.588 229.566 -26.421 224.474 C-25.475 216.567 -25.706 208.597 -25.805 200.648 C-25.801 198.062 -25.793 195.476 -25.78 192.889 C-25.762 186.797 -25.787 180.707 -25.834 174.615 C-25.886 167.674 -25.88 160.734 -25.87 153.793 C-25.85 139.528 -25.902 125.264 -26 111 C-26.35 110.932 -26.35 110.932 -28.12 110.589 C-31.352 109.959 -34.582 109.323 -37.812 108.688 C-38.913 108.474 -40.013 108.261 -41.146 108.041 C-48.191 106.649 -55.101 104.995 -62 103 C-62 102.34 -62 101.68 -62 101 C-60.075 99.474 -58.148 98.074 -56.125 96.688 C-54.829 95.781 -53.533 94.873 -52.238 93.965 C-51.547 93.483 -50.855 93 -50.143 92.503 C-44.187 88.325 -38.315 84.027 -32.428 79.751 C-29.874 77.909 -27.305 76.089 -24.734 74.27 C-23.01 73.034 -21.286 71.799 -19.562 70.562 C-18.751 69.996 -17.94 69.429 -17.105 68.845 C-12.673 65.643 -9.961 63.258 -8 58 C-7.718 57.32 -7.436 56.639 -7.146 55.938 C0.52 36.873 -0.615 21.542 0 0 Z " fill="#FECD00" transform="translate(87,20)"/>
<path d="M0 0 C3.262 1.087 3.675 1.543 5.566 4.219 C5.807 4.557 5.807 4.557 7.023 6.268 C7.531 7.004 8.039 7.741 8.562 8.5 C9.092 9.262 9.621 10.024 10.167 10.808 C21.049 26.665 29.677 42.831 35.312 61.25 C35.434 61.646 35.434 61.646 36.048 63.648 C45.675 96.666 39.823 130.264 23.952 160.061 C19.868 167.486 15.246 174.352 10 181 C9.576 181.538 9.153 182.076 8.716 182.63 C-2.973 197.286 -16.365 210.576 -32 221 C-32.33 247.07 -32.66 273.14 -33 300 C-143.22 300 -253.44 300 -367 300 C-367.33 288.12 -367.66 276.24 -368 264 C-370.64 261.69 -373.28 259.38 -376 257 C-386.729 246.944 -397.176 236.581 -405.809 224.645 C-407.04 222.945 -408.299 221.269 -409.562 219.594 C-429.931 192.247 -441.66 159.763 -437.695 125.355 C-436.866 120.118 -435.565 115.062 -434 110 C-433.796 109.327 -433.593 108.654 -433.383 107.961 C-428.471 92.254 -420.014 77.67 -408.63 65.756 C-407.368 64.397 -406.178 62.972 -405.02 61.524 C-401.627 57.597 -398.881 54.488 -393.75 53.158 C-390.017 52.942 -386.413 53.028 -382.68 53.242 C-381.326 53.283 -379.973 53.32 -378.62 53.352 C-375.089 53.449 -371.564 53.606 -368.036 53.777 C-364.424 53.941 -360.81 54.046 -357.195 54.156 C-350.128 54.381 -343.064 54.669 -336 55 C-337.035 58.904 -338.108 62.796 -339.188 66.688 C-339.479 67.79 -339.771 68.893 -340.072 70.029 C-341.73 75.931 -342.948 80.139 -348 84 C-348.317 84.254 -348.317 84.254 -349.918 85.539 C-350.525 85.968 -351.132 86.397 -351.758 86.84 C-352.456 87.338 -353.154 87.836 -353.873 88.35 C-354.616 88.874 -355.359 89.398 -356.125 89.938 C-357.743 91.092 -359.36 92.247 -360.977 93.402 C-361.807 93.995 -362.638 94.588 -363.493 95.199 C-367.523 98.095 -371.511 101.047 -375.5 104 C-381.843 108.691 -388.219 113.332 -394.625 117.938 C-408.488 127.92 -408.488 127.92 -412 131 C-412 131.33 -412 131.66 -412 132 C-407.632 133.093 -403.262 134.177 -398.89 135.253 C-397.412 135.618 -395.934 135.986 -394.457 136.356 C-384.122 138.943 -373.804 140.998 -363.279 142.641 C-359.433 143.247 -355.594 143.893 -351.754 144.535 C-350.222 144.79 -348.69 145.044 -347.158 145.299 C-346.402 145.425 -345.645 145.55 -344.865 145.68 C-343.318 145.937 -341.77 146.194 -340.222 146.45 C-337.92 146.832 -335.618 147.215 -333.316 147.598 C-332.577 147.72 -331.838 147.843 -331.077 147.969 C-327.236 148.609 -323.413 149.304 -319.594 150.059 C-311.448 151.555 -303.176 152.214 -294.938 153 C-294.035 153.087 -293.133 153.174 -292.203 153.263 C-240.544 158.201 -189.025 158.944 -137.25 155.562 C-136.302 155.501 -135.354 155.44 -134.377 155.377 C-124.012 154.695 -113.723 153.838 -103.43 152.425 C-99.972 151.996 -96.542 151.759 -93.062 151.562 C-88.007 151.237 -83.1 150.564 -78.125 149.637 C-72.289 148.577 -66.448 147.57 -60.59 146.641 C-45.503 144.23 -30.491 141.638 -15.562 138.375 C-14.286 138.098 -13.009 137.821 -11.693 137.536 C-3.662 135.74 4.172 133.539 12 131 C4.189 124.86 -3.758 118.97 -11.91 113.288 C-22.457 105.927 -22.457 105.927 -26 103 C-26 102.67 -26 102.34 -26 102 C-17.42 102 -8.84 102 0 102 C0 68.34 0 34.68 0 0 Z " fill="#FE6A00" transform="translate(457,193)"/>
<path d="M0 0 C65.34 0 130.68 0 198 0 C198.33 11.55 198.66 23.1 199 35 C199.99 37.97 200.98 40.94 202 44 C202 45.32 202 46.64 202 48 C248.86 48 295.72 48 344 48 C344 58.56 344 69.12 344 80 C312.32 80 280.64 80 248 80 C248 109.37 248 138.74 248 169 C265.49 169 282.98 169 301 169 C301 182.86 301 196.72 301 211 C214.54 211 128.08 211 39 211 C39 197.14 39 183.28 39 169 C88.83 168.67 138.66 168.34 190 168 C181.09 167.34 172.18 166.68 163 166 C161.68 165.34 160.36 164.68 159 164 C159.633 160.434 161.099 158.119 163.176 155.176 C163.834 154.237 164.492 153.299 165.169 152.332 C165.877 151.336 166.584 150.339 167.312 149.312 C168.03 148.289 168.748 147.265 169.487 146.211 C172.843 141.431 176.227 136.674 179.66 131.949 C180.207 131.191 180.754 130.434 181.317 129.653 C182.325 128.26 183.342 126.873 184.368 125.493 C184.822 124.867 185.275 124.24 185.742 123.594 C186.133 123.065 186.523 122.535 186.925 121.99 C189.71 116.833 190.379 111.058 191.07 105.316 C191.228 104.035 191.385 102.753 191.547 101.432 C191.738 99.825 191.929 98.218 192.125 96.562 C192.434 93.995 192.434 93.995 194 81 C178.49 81 162.98 81 147 81 C146.67 65.16 146.34 49.32 146 33 C131.48 33 116.96 33 102 33 C102 62.7 102 92.4 102 123 C100.02 123 98.04 123 96 123 C96 92.97 96 62.94 96 32 C64.32 32 32.64 32 0 32 C0 21.44 0 10.88 0 0 Z " fill="#FFCE00" transform="translate(87,20)"/>
<path d="M0 0 C31.68 0 63.36 0 96 0 C96 30.03 96 60.06 96 91 C97.98 91 99.96 91 102 91 C102 61.3 102 31.6 102 1 C116.52 1 131.04 1 146 1 C146.655 7.551 147.141 13.756 147.098 20.289 C147.097 21.026 147.096 21.763 147.095 22.522 C147.089 25.223 147.075 27.924 147.062 30.625 C147.042 36.689 147.021 42.752 147 49 C162.51 49 178.02 49 194 49 C191.775 86.832 191.775 86.832 180.776 99.794 C177.077 104.389 173.832 109.325 170.5 114.188 C169.137 116.161 167.772 118.134 166.406 120.105 C165.822 120.953 165.237 121.8 164.635 122.673 C163.559 124.204 162.437 125.704 161.268 127.165 C160 129 160 129 160.312 131.25 C160.539 131.827 160.766 132.405 161 133 C161.505 133.024 161.505 133.024 164.059 133.148 C177.395 133.828 190.694 134.889 204 136 C204 136.33 204 136.66 204 137 C149.55 137 95.1 137 39 137 C39 150.86 39 164.72 39 179 C125.46 179 211.92 179 301 179 C301 179.33 301 179.66 301 180 C214.54 180 128.08 180 39 180 C38.01 183.3 37.02 186.6 36 190 C35.67 190.99 35.67 190.99 34 196 C14.2 196 -5.6 196 -26 196 C-26 157.39 -26 118.78 -26 79 C-34.25 77.35 -42.5 75.7 -51 74 C-54.63 73.01 -58.26 72.02 -62 71 C-62 70.34 -62 69.68 -62 69 C-60.075 67.474 -58.148 66.074 -56.125 64.688 C-54.829 63.781 -53.533 62.873 -52.238 61.965 C-51.547 61.483 -50.855 61 -50.143 60.503 C-44.187 56.325 -38.315 52.027 -32.428 47.751 C-29.874 45.909 -27.305 44.089 -24.734 42.27 C-23.01 41.034 -21.286 39.799 -19.562 38.562 C-18.751 37.996 -17.94 37.429 -17.105 36.845 C-16.35 36.299 -15.594 35.754 -14.816 35.191 C-14.151 34.719 -13.485 34.247 -12.799 33.76 C-5.269 26.393 -1.724 5.604 0 0 Z " fill="#FC6A03" transform="translate(87,52)"/>
<path d="M0 0 C42.24 0 84.48 0 128 0 C128 39.27 128 78.54 128 119 C104.516 119 81.354 118.86 58 117 C57.203 116.937 56.407 116.874 55.586 116.809 C31.796 114.899 8.335 111.972 -15.147 107.701 C-18.641 107.065 -22.138 106.445 -25.637 105.832 C-34.713 104.229 -43.768 102.543 -52.758 100.505 C-54.533 100.105 -56.309 99.711 -58.086 99.319 C-61.642 98.533 -65.196 97.736 -68.75 96.938 C-69.919 96.68 -71.088 96.422 -72.292 96.157 C-72.839 96.032 -72.839 96.032 -75.609 95.402 C-76.599 95.181 -77.589 94.959 -78.608 94.73 C-81 94 -81 94 -83 92 C-82.777 91.84 -82.777 91.84 -81.649 91.029 C-72.898 84.733 -64.17 78.407 -55.5 72 C-50.009 67.944 -44.511 63.899 -38.974 59.905 C-37.457 58.807 -35.946 57.701 -34.44 56.587 C-31.064 54.106 -27.753 51.798 -24.043 49.844 C-15.177 44.947 -12.369 39.486 -9.438 29.812 C-8.515 26.549 -7.637 23.279 -6.792 19.994 C-5.723 15.953 -4.423 12.013 -3.062 8.062 C-2.682 6.919 -2.302 5.776 -1.91 4.598 C-1 2 -1 2 0 0 Z " fill="#FFCD00" transform="translate(126,232)"/>
<path d="M0 0 C32.01 0 64.02 0 97 0 C99.97 9.9 102.94 19.8 106 30 C118.497 40.225 118.497 40.225 125 44.688 C132.29 49.758 139.456 54.98 146.58 60.28 C146.956 60.559 146.956 60.559 148.855 61.969 C149.562 62.493 150.269 63.018 150.998 63.559 C152.814 64.866 154.661 66.083 156.551 67.281 C157.359 67.848 158.167 68.416 159 69 C159 69.66 159 70.32 159 71 C154.999 71.983 150.997 72.961 146.994 73.936 C145.635 74.267 144.277 74.6 142.918 74.934 C140.955 75.416 138.991 75.894 137.027 76.371 C135.849 76.659 134.671 76.947 133.457 77.244 C130.004 77.999 126.499 78.5 123 79 C122.67 117.28 122.34 155.56 122 195 C91.267 195 91.267 195 78.839 183.615 C76.252 181.343 73.462 179.605 70.562 177.75 C66.32 174.685 64.518 172.056 63.27 166.98 C63 165 63 165 63 162 C70.59 162 78.18 162 86 162 C86 144.18 86 126.36 86 108 C75.11 108 64.22 108 53 108 C53 101.73 53 95.46 53 89 C35.51 89 18.02 89 0 89 C0 59.63 0 30.26 0 0 Z " fill="#FECD02" transform="translate(335,100)"/>
<path d="M0 0 C86.46 0 172.92 0 262 0 C262 13.86 262 27.72 262 42 C175.54 42 89.08 42 0 42 C0 28.14 0 14.28 0 0 Z " fill="#4739D7" transform="translate(126,189)"/>
<path d="M0 0 C1.353 0.041 2.707 0.078 4.06 0.11 C7.591 0.206 11.116 0.364 14.644 0.535 C18.256 0.699 21.87 0.804 25.484 0.914 C32.552 1.138 39.616 1.427 46.68 1.758 C45.644 5.661 44.572 9.554 43.492 13.445 C43.2 14.548 42.908 15.651 42.607 16.787 C40.949 22.689 39.731 26.897 34.68 30.758 C34.363 31.012 34.363 31.012 32.761 32.297 C32.154 32.726 31.547 33.155 30.922 33.598 C30.224 34.096 29.526 34.594 28.807 35.107 C28.063 35.631 27.32 36.155 26.555 36.695 C24.937 37.849 23.32 39.004 21.703 40.16 C20.873 40.753 20.042 41.346 19.187 41.957 C15.156 44.852 11.168 47.805 7.18 50.758 C0.836 55.449 -5.54 60.09 -11.945 64.695 C-25.809 74.677 -25.809 74.677 -29.32 77.758 C-29.32 78.088 -29.32 78.418 -29.32 78.758 C-24.879 79.869 -20.436 80.972 -15.99 82.066 C-14.485 82.438 -12.98 82.812 -11.476 83.189 C-9.287 83.737 -7.097 84.275 -4.906 84.812 C-4.581 84.895 -4.581 84.895 -2.938 85.311 C3.935 86.979 10.562 87.741 17.68 88.758 C17.35 129.018 17.02 169.278 16.68 210.758 C11.996 208.884 9.523 207.042 6.109 203.586 C5.591 203.072 5.073 202.557 4.538 202.027 C2.868 200.363 1.21 198.687 -0.445 197.008 C-1.01 196.439 -1.575 195.87 -2.158 195.284 C-10.182 187.192 -17.72 179.078 -24.32 169.758 C-25.165 168.627 -26.013 167.498 -26.863 166.371 C-47.256 139.038 -58.98 106.519 -55.016 72.113 C-54.186 66.876 -52.885 61.82 -51.32 56.758 C-51.218 56.421 -51.218 56.421 -50.703 54.719 C-45.791 39.012 -37.335 24.428 -25.95 12.514 C-24.689 11.155 -23.498 9.73 -22.34 8.282 C-15.416 0.268 -10.305 -0.59 0 0 Z " fill="#4739D7" transform="translate(74.3203125,246.2421875)"/>
<path d="M0 0 C31.68 0 63.36 0 96 0 C96 29.7 96 59.4 96 90 C69.255 90 69.255 90 57.19 89.255 C55.035 89.123 52.88 89.004 50.725 88.887 C42.315 88.404 34.023 87.58 25.681 86.398 C22.905 86.098 20.371 85.971 17.598 86.004 C14 86 14 86 13 85 C10.865 84.592 8.719 84.242 6.57 83.914 C5.913 83.813 5.256 83.711 4.579 83.607 C3.165 83.39 1.75 83.174 0.336 82.96 C-1.884 82.624 -4.102 82.281 -6.32 81.937 C-12.379 81 -18.437 80.07 -24.508 79.215 C-37.235 77.388 -49.576 74.287 -62 71 C-62 70.34 -62 69.68 -62 69 C-60.075 67.474 -58.148 66.074 -56.125 64.688 C-54.829 63.781 -53.533 62.873 -52.238 61.965 C-51.547 61.483 -50.855 61 -50.143 60.503 C-44.187 56.325 -38.315 52.027 -32.428 47.751 C-29.874 45.909 -27.305 44.089 -24.734 42.27 C-23.01 41.034 -21.286 39.799 -19.562 38.562 C-18.751 37.996 -17.94 37.429 -17.105 36.845 C-16.35 36.299 -15.594 35.754 -14.816 35.191 C-14.151 34.719 -13.485 34.247 -12.799 33.76 C-5.269 26.393 -1.724 5.604 0 0 Z " fill="#FFCE00" transform="translate(87,52)"/>
<path d="M0 0 C20.79 0 41.58 0 63 0 C62.367 10.134 61.677 20.037 60.38 30.067 C60.121 32.092 59.879 34.119 59.637 36.146 C58.207 47.356 55.248 54.068 48.688 63.188 C47.424 64.967 46.161 66.747 44.898 68.527 C44.252 69.433 43.606 70.339 42.94 71.273 C39.874 75.582 36.843 79.916 33.812 84.25 C33.238 85.071 32.664 85.892 32.073 86.739 C30.938 88.362 29.803 89.986 28.669 91.61 C27.554 93.207 26.437 94.803 25.319 96.397 C23.75 98.637 22.187 100.88 20.625 103.125 C20.154 103.794 19.684 104.464 19.198 105.153 C16 109.771 16 109.771 16 112 C1.503 110.241 -12.886 108.135 -27.25 105.503 C-29.852 105.027 -32.455 104.564 -35.059 104.102 C-45.14 102.279 -55.145 100.136 -65.13 97.847 C-66.496 97.534 -67.862 97.223 -69.23 96.914 C-71.148 96.479 -73.064 96.033 -74.98 95.586 C-76.093 95.329 -77.206 95.071 -78.352 94.806 C-81 94 -81 94 -83 92 C-82.777 91.84 -82.777 91.84 -81.649 91.029 C-72.898 84.733 -64.17 78.407 -55.5 72 C-50.009 67.944 -44.511 63.899 -38.974 59.905 C-37.457 58.807 -35.946 57.701 -34.44 56.587 C-31.064 54.106 -27.753 51.798 -24.043 49.844 C-15.177 44.947 -12.369 39.486 -9.438 29.812 C-8.515 26.549 -7.637 23.279 -6.792 19.994 C-5.723 15.953 -4.423 12.013 -3.062 8.062 C-2.682 6.919 -2.302 5.776 -1.91 4.598 C-1 2 -1 2 0 0 Z " fill="#FECD00" transform="translate(126,232)"/>
<path d="M0 0 C14.52 0 29.04 0 44 0 C44.655 6.551 45.141 12.756 45.098 19.289 C45.097 20.026 45.096 20.763 45.095 21.522 C45.089 24.223 45.075 26.924 45.062 29.625 C45.042 35.689 45.021 41.752 45 48 C60.51 48 76.02 48 92 48 C89.774 85.834 89.774 85.834 78.771 98.808 C75.106 103.344 71.872 108.202 68.562 113 C67.876 113.98 67.19 114.96 66.484 115.97 C63.072 120.868 59.849 125.754 57 131 C47.128 130.461 37.523 129.067 27.812 127.312 C27.082 127.183 26.351 127.053 25.598 126.919 C11.617 124.428 -2.21 121.401 -16 118 C-14.698 114.095 -12.324 112.845 -9.062 110.625 C-7.796 109.743 -6.531 108.86 -5.266 107.977 C-4.583 107.503 -3.901 107.028 -3.197 106.54 C0.798 103.74 4.739 100.865 8.688 98 C10.212 96.895 11.736 95.791 13.262 94.688 C13.911 94.217 14.56 93.746 15.229 93.262 C16.798 92.144 18.397 91.069 20 90 C13.4 89.67 6.8 89.34 0 89 C0 59.63 0 30.26 0 0 Z " fill="#FFCD00" transform="translate(189,53)"/>
<path d="M0 0 C27.06 0 54.12 0 82 0 C82 33.99 82 67.98 82 103 C54.94 103 27.88 103 0 103 C0 69.01 0 35.02 0 0 Z " fill="#FFCD06" transform="translate(215,390)"/>
<path d="M0 0 C3.262 1.087 3.675 1.543 5.566 4.219 C6.047 4.895 6.528 5.571 7.023 6.268 C7.277 6.636 7.277 6.636 8.562 8.5 C8.827 8.881 8.827 8.881 10.167 10.808 C21.049 26.665 29.677 42.831 35.312 61.25 C35.555 62.041 35.798 62.832 36.048 63.648 C45.675 96.666 39.823 130.264 23.952 160.061 C19.868 167.486 15.246 174.352 10 181 C9.576 181.538 9.153 182.076 8.716 182.63 C-0.551 194.25 -10.906 205.012 -22.562 214.25 C-23.134 214.704 -23.705 215.158 -24.294 215.625 C-27.532 218.112 -30.121 219.449 -34 221 C-34 195.26 -34 169.52 -34 143 C-30.098 141.439 -26.9 140.454 -22.844 139.633 C-22.249 139.51 -22.249 139.51 -19.242 138.887 C-16.779 138.385 -14.315 137.885 -11.852 137.387 C-3.734 135.702 4.122 133.583 12 131 C4.189 124.86 -3.758 118.97 -11.91 113.288 C-22.457 105.927 -22.457 105.927 -26 103 C-26 102.67 -26 102.34 -26 102 C-17.42 102 -8.84 102 0 102 C0 68.34 0 34.68 0 0 Z " fill="#4739D7" transform="translate(457,193)"/>
<path d="M0 0 C65.34 0 130.68 0 198 0 C198 10.56 198 21.12 198 32 C132.66 32 67.32 32 0 32 C0 21.44 0 10.88 0 0 Z " fill="#4639D9" transform="translate(87,20)"/>
<path d="M0 0 C8.194 0.011 16.389 0.017 24.583 0.022 C41.344 0.032 58.105 0.05 74.866 0.072 C74.866 10.632 74.866 21.192 74.866 32.072 C10.186 32.072 -54.494 32.072 -121.134 32.072 C-121.134 21.842 -121.134 11.612 -121.134 1.072 C-80.75 0.121 -40.393 -0.058 0 0 Z " fill="#4639D9" transform="translate(356.1336977481842,67.92797338962555)"/>
<path d="M0 0 C-0.33 38.61 -0.66 77.22 -1 117 C-31.733 117 -31.733 117 -44.161 105.615 C-46.748 103.343 -49.538 101.605 -52.438 99.75 C-56.68 96.685 -58.482 94.056 -59.73 88.98 C-60 87 -60 87 -60 84 C-52.41 84 -44.82 84 -37 84 C-37 66.18 -37 48.36 -37 30 C-47.89 30 -58.78 30 -70 30 C-70 23.73 -70 17.46 -70 11 C-74.29 11 -78.58 11 -83 11 C-83 10.67 -83 10.34 -83 10 C-82.551 9.965 -82.551 9.965 -80.279 9.788 C-63.899 8.494 -47.55 7.092 -31.25 5 C-30.035 4.846 -28.82 4.693 -27.568 4.534 C-19.959 3.524 -12.483 2.162 -4.976 0.586 C-2 0 -2 0 0 0 Z " fill="#FE6A01" transform="translate(458,178)"/>
<path d="M0 0 C31.68 0 63.36 0 96 0 C96 0.33 96 0.66 96 1 C81.48 1 66.96 1 52 1 C52 1.66 52 2.32 52 3 C50.35 3 48.7 3 47 3 C47.013 3.578 47.026 4.157 47.04 4.752 C47.294 25.256 43.927 40.689 30.856 56.686 C27.867 60.412 25.165 64.331 22.438 68.25 C21.962 68.917 21.486 69.584 20.996 70.272 C17.815 74.74 14.859 79.319 12 84 C2.52 83.418 -6.808 82.292 -16.188 80.812 C-16.872 80.706 -17.556 80.599 -18.261 80.49 C-32.91 78.192 -47.913 75.696 -62 71 C-62 70.34 -62 69.68 -62 69 C-60.075 67.474 -58.148 66.074 -56.125 64.688 C-54.829 63.781 -53.533 62.873 -52.238 61.965 C-51.547 61.483 -50.855 61 -50.143 60.503 C-44.187 56.325 -38.315 52.027 -32.428 47.751 C-29.874 45.909 -27.305 44.089 -24.734 42.27 C-23.01 41.034 -21.286 39.799 -19.562 38.562 C-18.751 37.996 -17.94 37.429 -17.105 36.845 C-16.35 36.299 -15.594 35.754 -14.816 35.191 C-14.151 34.719 -13.485 34.247 -12.799 33.76 C-5.269 26.393 -1.724 5.604 0 0 Z " fill="#FDCD01" transform="translate(87,52)"/>
<path d="M0 0 C2.075 3.112 2.691 5.277 3.559 8.883 C9.472 32.039 9.472 32.039 17.777 37.203 C18.841 37.796 19.904 38.389 21 39 C22.983 40.352 24.927 41.752 26.874 43.156 C29.022 44.703 31.19 46.219 33.363 47.73 C39.182 51.806 44.881 56.04 50.58 60.28 C51.331 60.837 52.082 61.395 52.855 61.969 C53.562 62.493 54.269 63.018 54.998 63.559 C56.814 64.866 58.661 66.083 60.551 67.281 C60.955 67.565 60.955 67.565 63 69 C63 69.66 63 70.32 63 71 C47.953 74.793 33.007 78.521 17.616 80.629 C14.461 81.076 11.315 81.568 8.168 82.062 C6.982 82.249 5.797 82.435 4.575 82.626 C2.23 82.994 -0.115 83.363 -2.46 83.731 C-3.525 83.896 -4.59 84.061 -5.688 84.23 C-6.64 84.379 -7.593 84.527 -8.574 84.68 C-11 85 -11 85 -14 85 C-13.764 84.276 -13.528 83.551 -13.285 82.805 C-13 80 -13 80 -14.309 77.695 C-15.011 76.847 -15.714 75.999 -16.438 75.125 C-21.323 68.961 -25.839 62.594 -30.312 56.125 C-30.659 55.626 -30.659 55.626 -32.414 53.098 C-33.719 51.215 -35.021 49.33 -36.319 47.443 C-37.316 45.994 -38.318 44.548 -39.329 43.11 C-42.33 38.782 -43.18 35.127 -44 30 C-44.093 29.435 -44.093 29.435 -44.562 26.578 C-45.849 17.964 -46.096 9.716 -46 1 C-39.486 0.781 -32.972 0.586 -26.457 0.408 C-24.239 0.344 -22.021 0.275 -19.804 0.201 C-16.622 0.095 -13.44 0.008 -10.258 -0.074 C-9.76 -0.093 -9.76 -0.093 -7.24 -0.187 C-6.319 -0.208 -5.398 -0.228 -4.45 -0.249 C-3.637 -0.273 -2.824 -0.298 -1.987 -0.323 C-1.331 -0.216 -0.676 -0.11 0 0 Z " fill="#FFCE00" transform="translate(431,100)"/>
<path d="M0 0 C12.54 0 25.08 0 38 0 C38 33.99 38 67.98 38 103 C25.46 103 12.92 103 0 103 C0 69.01 0 35.02 0 0 Z " fill="#FFCC00" transform="translate(259,390)"/>
<path d="M0 0 C15.18 0 30.36 0 46 0 C46 22.44 46 44.88 46 68 C30.82 68 15.64 68 0 68 C0 45.56 0 23.12 0 0 Z " fill="#FFFCFB" transform="translate(338,390)"/>
<path d="M0 0 C15.18 0 30.36 0 46 0 C46 22.44 46 44.88 46 68 C30.82 68 15.64 68 0 68 C0 45.56 0 23.12 0 0 Z " fill="#FFFCFA" transform="translate(132,390)"/>
<path d="M0 0 C33.66 0 67.32 0 102 0 C106 12 106 12 106 17 C88.18 17 70.36 17 52 17 C52 27.23 52 37.46 52 48 C85 48 118 48 152 48 C152 77.37 152 106.74 152 137 C150.35 137 148.7 137 147 137 C147 107.96 147 78.92 147 49 C115.32 49 83.64 49 51 49 C50.67 33.16 50.34 17.32 50 1 C35.48 1 20.96 1 6 1 C6 30.7 6 60.4 6 91 C4.02 91 2.04 91 0 91 C0 60.97 0 30.94 0 0 Z " fill="#F2C724" transform="translate(183,52)"/>
<path d="M0 0 C11.55 0 23.1 0 35 0 C35 16.83 35 33.66 35 51 C23.45 51 11.9 51 0 51 C0 34.17 0 17.34 0 0 Z " fill="#FFFDFD" transform="translate(88,165)"/>
<path d="M0 0 C10.89 0 21.78 0 33 0 C33 17.49 33 34.98 33 53 C25.08 53 17.16 53 9 53 C8.01 50.03 7.02 47.06 6 44 C5.47 42.712 4.94 41.424 4.395 40.098 C-1.013 26.647 -0.456 14.441 0 0 Z " fill="#FEFEFE" transform="translate(388,208)"/>
<path d="M0 0 C75.24 0 150.48 0 228 0 C228 1.65 228 3.3 228 5 C152.76 5 77.52 5 0 5 C0 3.35 0 1.7 0 0 Z " fill="#FDFDFE" transform="translate(143,208)"/>
<path d="M0 0 C54.12 0 108.24 0 164 0 C164 1.65 164 3.3 164 5 C109.88 5 55.76 5 0 5 C0 3.35 0 1.7 0 0 Z " fill="#FCFCFE" transform="translate(250,82)"/>
<path d="M0 0 C54.12 0 108.24 0 164 0 C164 1.65 164 3.3 164 5 C109.88 5 55.76 5 0 5 C0 3.35 0 1.7 0 0 Z " fill="#FBFBFE" transform="translate(104,34)"/>
<path d="M0 0 C1.98 0 3.96 0 6 0 C6 39.6 6 79.2 6 120 C4.02 120 2.04 120 0 120 C0 80.4 0 40.8 0 0 Z " fill="#FFF6D4" transform="translate(254,232)"/>
<path d="M0 0 C1.65 0 3.3 0 5 0 C5.071 0.546 5.141 1.092 5.214 1.655 C5.955 7.366 6.702 13.077 7.454 18.787 C7.733 20.914 8.01 23.042 8.286 25.17 C8.683 28.239 9.087 31.307 9.492 34.375 C9.613 35.318 9.734 36.261 9.859 37.233 C11.847 52.152 11.847 52.152 15.652 57.156 C16.176 57.86 16.699 58.564 17.238 59.289 C17.799 60.018 18.36 60.748 18.938 61.5 C20.127 63.095 21.314 64.692 22.5 66.289 C23.093 67.082 23.686 67.875 24.297 68.692 C26.761 72.031 29.106 75.443 31.438 78.875 C34.503 83.374 37.592 87.854 40.727 92.305 C41.363 93.208 41.999 94.112 42.655 95.043 C43.903 96.814 45.153 98.583 46.406 100.351 C46.69 100.755 46.69 100.755 48.129 102.797 C48.635 103.512 49.141 104.227 49.662 104.964 C50.947 106.92 52.001 108.886 53 111 C52.34 111.66 51.68 112.32 51 113 C50.01 113 49.02 113 48 113 C46.381 111.158 46.381 111.158 44.629 108.566 C43.978 107.616 43.328 106.666 42.658 105.687 C42.312 105.171 42.312 105.171 40.562 102.562 C39.109 100.432 37.654 98.302 36.199 96.172 C35.483 95.117 34.767 94.062 34.029 92.975 C31.818 89.733 29.572 86.519 27.299 83.322 C26.342 81.972 25.395 80.616 24.457 79.255 C21.888 75.544 19.216 72.034 16.289 68.598 C5.199 55.075 3.463 42.333 2.262 25.452 C1.931 21.085 1.367 16.771 0.75 12.438 C0.198 8.247 -0.076 4.227 0 0 Z " fill="#FFFCF1" transform="translate(320,232)"/>
<path d="M0 0 C1.65 0 3.3 0 5 0 C4.69 4.335 4.351 8.668 4 13 C3.943 13.722 3.885 14.443 3.826 15.187 C0.622 54.686 0.622 54.686 -11.396 67.243 C-14.231 70.349 -16.507 73.847 -18.875 77.312 C-19.86 78.712 -20.847 80.111 -21.836 81.508 C-25.398 86.562 -28.951 91.624 -32.5 96.688 C-33.088 97.525 -33.675 98.363 -34.281 99.226 C-37.239 103.451 -40.161 107.693 -43 112 C-44.937 111.625 -44.937 111.625 -47 111 C-47.33 110.34 -47.66 109.68 -48 109 C-37.109 93.087 -26.064 77.283 -14.906 61.555 C-14.005 60.281 -13.109 59.003 -12.222 57.72 C-11.137 56.193 -9.968 54.728 -8.789 53.273 C-6.12 48.39 -5.689 43.476 -5 38 C-4.832 36.759 -4.665 35.518 -4.492 34.24 C-3.956 30.224 -3.443 26.207 -2.938 22.188 C-2.677 20.129 -2.415 18.07 -2.153 16.012 C-1.917 14.158 -1.683 12.304 -1.449 10.45 C-0.995 6.962 -0.505 3.481 0 0 Z " fill="#FFFCF3" transform="translate(189,233)"/>
<path d="M0 0 C1.65 0 3.3 0 5 0 C5.472 21.074 2.595 38.222 -11.045 54.583 C-14.486 58.837 -17.527 63.369 -20.625 67.875 C-21.762 69.498 -22.9 71.121 -24.039 72.742 C-26.407 76.131 -28.725 79.548 -31 83 C-32.32 82.34 -33.64 81.68 -35 81 C-34.367 77.434 -32.901 75.119 -30.824 72.176 C-30.166 71.237 -29.508 70.299 -28.831 69.332 C-28.477 68.834 -28.477 68.834 -26.688 66.312 C-26.329 65.801 -26.329 65.801 -24.513 63.211 C-21.157 58.431 -17.773 53.674 -14.34 48.949 C-13.793 48.191 -13.246 47.434 -12.683 46.653 C-11.675 45.26 -10.658 43.873 -9.632 42.493 C-9.178 41.867 -8.725 41.24 -8.258 40.594 C-7.867 40.065 -7.477 39.535 -7.075 38.99 C-4.367 33.975 -3.648 28.337 -2.93 22.754 C-2.887 22.426 -2.887 22.426 -2.669 20.766 C-2.399 18.699 -2.137 16.631 -1.875 14.562 C-1.692 13.149 -1.508 11.736 -1.324 10.322 C-0.877 6.882 -0.437 3.441 0 0 Z " fill="#FFFCF1" transform="translate(281,103)"/>
<path d="M0 0 C1.65 0 3.3 0 5 0 C5.486 18.3 4.414 37.536 -8.508 51.315 C-11.181 54.334 -13.333 57.711 -15.562 61.062 C-16.464 62.388 -17.368 63.712 -18.273 65.035 C-18.719 65.686 -19.165 66.337 -19.624 67.008 C-23.342 72.391 -27.177 77.692 -31 83 C-32.32 82.34 -33.64 81.68 -35 81 C-33.747 77.608 -32.329 74.784 -30.234 71.84 C-29.957 71.449 -29.957 71.449 -28.556 69.468 C-27.96 68.633 -27.364 67.798 -26.75 66.938 C-26.135 66.053 -25.519 65.169 -24.885 64.258 C-21.751 59.773 -18.555 55.398 -15.102 51.152 C-4.786 38.138 -2.291 26.368 -1 10 C-0.813 8.075 -0.622 6.151 -0.426 4.227 C-0.344 3.41 -0.262 2.594 -0.177 1.752 C-0.119 1.174 -0.06 0.596 0 0 Z " fill="#FFFCF2" transform="translate(134,55)"/>
<path d="M0 0 C0.271 1.75 0.542 3.5 0.812 5.25 C0.996 6.423 1.179 7.596 1.367 8.805 C1.841 11.889 2.274 14.978 2.695 18.07 C2.818 18.947 2.941 19.823 3.067 20.726 C3.31 22.46 3.544 24.195 3.771 25.931 C5.216 36.113 9.679 42.779 15.562 51.062 C16.275 52.078 16.987 53.094 17.721 54.14 C20.866 58.615 24.035 63.07 27.277 67.477 C27.745 68.116 28.213 68.755 28.695 69.414 C29.912 71.068 31.143 72.712 32.375 74.355 C34 77 34 77 34 81 C33.34 81.165 33.34 81.165 30 82 C29.368 81.077 28.737 80.154 28.086 79.203 C22.638 71.254 17.152 63.332 11.625 55.438 C11.043 54.606 10.461 53.774 9.861 52.917 C9.301 52.118 8.741 51.319 8.164 50.496 C7.629 49.729 7.094 48.963 6.543 48.173 C5.557 46.784 4.549 45.41 3.515 44.056 C0.787 40.462 -0.647 37.803 -1.125 33.312 C-1.259 32.205 -1.393 31.098 -1.531 29.957 C-1.686 28.651 -1.841 27.345 -2 26 C-2.254 24.295 -2.515 22.59 -2.781 20.887 C-2.851 20.442 -2.851 20.442 -3.203 18.192 C-3.48 16.425 -3.757 14.659 -4.036 12.892 C-4.644 8.893 -5.183 5.06 -5 1 C-3 0 -3 0 0 0 Z " fill="#FFFCEF" transform="translate(384,102)"/>
<path d="M0 0 C1.65 0 3.3 0 5 0 C5 29.37 5 58.74 5 89 C3.35 89 1.7 89 0 89 C0 59.63 0 30.26 0 0 Z " fill="#FEFCF2" transform="translate(330,100)"/>
<path d="M0 0 C1.32 0 2.64 0 4 0 C4 33.33 4 66.66 4 101 C2.68 101 1.36 101 0 101 C0 67.67 0 34.34 0 0 Z " fill="#FFFFFF" transform="translate(254,391)"/>
<path d="M0 0 C1.32 0 2.64 0 4 0 C4 29.37 4 58.74 4 89 C2.68 89 1.36 89 0 89 C0 59.63 0 30.26 0 0 Z " fill="#FFFFFF" transform="translate(184,53)"/>
<path d="M0 0 C0.825 0.165 0.825 0.165 5 1 C5.33 4.96 5.66 8.92 6 13 C4.35 13 2.7 13 1 13 C-0.102 8.591 -0.077 4.516 0 0 Z " fill="#FFFDF7" transform="translate(233,55)"/>
</svg>
