<?xml version="1.0" encoding="UTF-8"?>
<!-- Generator: visioncortex VTracer 0.6.12 -->
<svg version="1.1" xmlns="http://www.w3.org/2000/svg" width="512" height="512">
<path d="M0 0 C6.681 6.083 10.943 12.522 14 21 C14.122 21.333 14.122 21.333 14.742 23.016 C18.343 34.754 15.886 46.993 10.645 57.793 C4.478 68.72 -4.454 76.251 -16.562 79.875 C-21.484 81.074 -25.952 81.248 -31 81 C-30.676 82.013 -30.352 83.027 -30.019 84.071 C-28.983 87.712 -28.731 91.067 -28.697 94.866 C-28.689 95.512 -28.68 96.159 -28.671 96.825 C-28.646 98.938 -28.634 101.051 -28.621 103.164 C-28.605 104.644 -28.588 106.124 -28.57 107.605 C-28.524 111.486 -28.489 115.367 -28.457 119.248 C-28.405 125.466 -28.34 131.684 -28.269 137.902 C-28.246 140.067 -28.23 142.233 -28.214 144.398 C-28.201 145.716 -28.187 147.035 -28.174 148.393 C-28.164 149.551 -28.155 150.709 -28.145 151.902 C-28.013 154.715 -27.641 157.264 -27 160 C-26.472 160.17 -25.943 160.34 -25.399 160.515 C-19.367 162.486 -13.457 164.702 -7.551 167.02 C-6.576 167.401 -5.601 167.782 -4.596 168.174 C-2.542 168.977 -0.489 169.782 1.563 170.587 C4.66 171.802 7.759 173.011 10.857 174.221 C19.311 177.526 27.766 180.832 36.145 184.324 C37.176 184.752 38.207 185.179 39.269 185.62 C43.642 187.83 47.116 190.375 49.312 194.812 C49.639 195.438 49.965 196.063 50.301 196.707 C51.252 199.827 51.042 202.756 51 206 C51.937 205.984 52.874 205.969 53.839 205.952 C57.373 205.901 60.906 205.863 64.44 205.835 C65.959 205.82 67.477 205.8 68.996 205.774 C85.519 205.496 99.627 207.887 112.25 219.5 C119.604 227.345 123.843 236.166 125.538 246.716 C125.661 247.448 125.784 248.179 125.91 248.932 C127.376 257.911 128.414 266.943 129.452 275.979 C129.679 277.919 129.906 279.859 130.133 281.799 C130.743 287.013 131.346 292.228 131.949 297.442 C132.582 302.921 133.221 308.4 133.858 313.879 C134.927 323.065 135.991 332.251 137.053 341.438 C138.279 352.047 139.513 362.655 140.749 373.263 C141.943 383.498 143.131 393.734 144.317 403.971 C144.82 408.316 145.325 412.66 145.832 417.005 C146.428 422.116 147.02 427.227 147.608 432.339 C147.824 434.211 148.041 436.083 148.261 437.955 C148.56 440.515 148.854 443.075 149.147 445.636 C149.234 446.371 149.322 447.107 149.412 447.864 C150.999 461.964 150.999 461.964 147 467 C142.95 469.7 139.752 469.643 135 469 C132.062 467.562 132.062 467.562 130 465 C128.016 457.598 127.178 450.098 126.304 442.497 C126.147 441.156 125.989 439.815 125.83 438.473 C125.405 434.856 124.985 431.239 124.566 427.621 C124.126 423.824 123.681 420.027 123.237 416.23 C122.493 409.86 121.752 403.489 121.013 397.118 C120.16 389.761 119.302 382.404 118.44 375.048 C117.609 367.955 116.782 360.861 115.957 353.768 C115.607 350.755 115.255 347.743 114.902 344.731 C114.487 341.185 114.075 337.638 113.666 334.091 C113.444 332.174 113.219 330.257 112.993 328.341 C112.861 327.193 112.73 326.045 112.594 324.862 C112.536 324.365 112.536 324.365 112.244 321.853 C111.992 318.911 112 315.952 112 313 C83.62 313 55.24 313 26 313 C26.035 323.698 26.07 334.396 26.105 345.418 C26.121 352.186 26.135 358.953 26.146 365.721 C26.164 376.468 26.185 387.216 26.226 397.963 C26.256 405.79 26.276 413.617 26.282 421.444 C26.286 425.588 26.295 429.733 26.317 433.877 C26.338 437.778 26.344 441.679 26.339 445.581 C26.34 447.012 26.346 448.444 26.358 449.875 C26.373 451.831 26.367 453.786 26.361 455.742 C26.364 456.836 26.366 457.93 26.369 459.058 C25.945 462.439 25.027 464.281 23 467 C18.981 469.679 15.724 469.696 11 469 C8.13 467.206 6.509 466.017 5 463 C4.457 463.349 3.915 463.699 3.355 464.059 C2.64 464.514 1.925 464.969 1.188 465.438 C0.48 465.89 -0.228 466.342 -0.957 466.809 C-6.748 470.186 -13.525 469.603 -20 469 C-26.933 466.941 -32.144 463.098 -36 457 C-38.828 450.547 -39.75 443.887 -40.524 436.94 C-40.788 434.717 -41.053 432.494 -41.318 430.272 C-41.454 429.101 -41.59 427.93 -41.73 426.724 C-42.476 420.38 -43.279 414.043 -44.072 407.705 C-45.071 399.704 -46.053 391.703 -46.971 383.693 C-50.98 348.924 -57.645 317.572 -70.92 285.123 C-73.492 278.836 -75.865 272.478 -78.233 266.111 C-80.116 261.058 -82.055 256.029 -84 251 C-87.3 250.67 -90.6 250.34 -94 250 C-93.962 250.92 -93.925 251.84 -93.886 252.789 C-93.529 261.553 -93.176 270.318 -92.827 279.082 C-92.647 283.586 -92.466 288.09 -92.282 292.593 C-92.103 296.957 -91.929 301.321 -91.757 305.684 C-91.691 307.331 -91.624 308.978 -91.556 310.625 C-90.735 330.419 -90.979 349.822 -92.68 369.566 C-92.855 371.664 -93.029 373.761 -93.203 375.859 C-93.566 380.213 -93.935 384.567 -94.308 388.92 C-94.784 394.473 -95.247 400.028 -95.707 405.582 C-96.064 409.897 -96.428 414.211 -96.793 418.526 C-96.966 420.573 -97.137 422.621 -97.307 424.669 C-99.852 455.211 -99.852 455.211 -107 463 C-115.058 469.367 -123.043 469.718 -133 469 C-139.676 467.375 -144.254 462.579 -148 457 C-152.519 448.107 -151.159 438.215 -150.25 428.608 C-150.17 427.726 -150.09 426.845 -150.008 425.936 C-149.837 424.035 -149.663 422.134 -149.488 420.234 C-149.112 416.131 -148.752 412.027 -148.391 407.923 C-147.721 400.316 -147.046 392.71 -146.343 385.107 C-143.924 358.869 -142.502 333.314 -144 307 C-144.146 303.856 -144.28 300.712 -144.412 297.568 C-144.536 294.621 -144.667 291.674 -144.799 288.726 C-146.805 242.519 -146.182 196.239 -146 150 C-146.669 150.165 -147.338 150.33 -148.027 150.5 C-154.364 152.061 -160.703 153.607 -167.047 155.137 C-170.308 155.924 -173.566 156.716 -176.823 157.521 C-180.575 158.446 -184.332 159.352 -188.09 160.254 C-188.668 160.399 -188.668 160.399 -191.595 161.131 C-198.172 162.687 -203.332 163.213 -210 162 C-212.605 256.102 -212.605 256.102 -193.318 294.99 C-192.535 296.655 -191.764 298.326 -191 300 C-190.517 301.037 -190.035 302.073 -189.537 303.141 C-184.196 315.795 -182.695 328.962 -180.926 342.501 C-180.475 345.929 -180.003 349.354 -179.535 352.779 C-178.754 358.521 -177.987 364.264 -177.229 370.009 C-176.357 376.622 -175.463 383.232 -174.557 389.841 C-173.679 396.245 -172.815 402.65 -171.959 409.057 C-171.596 411.764 -171.23 414.47 -170.859 417.177 C-170.345 420.96 -169.846 424.745 -169.352 428.531 C-169.199 429.635 -169.046 430.739 -168.888 431.876 C-167.654 441.558 -167.001 451.735 -173 460 C-177.832 465.276 -183.058 468.567 -190.203 469.352 C-198.2 469.68 -204.514 468.909 -211 464 C-218.984 456.355 -220.319 445.632 -221.444 435.124 C-221.693 432.962 -221.943 430.8 -222.192 428.638 C-222.32 427.502 -222.448 426.365 -222.58 425.194 C-228.758 370.931 -234.91 318.59 -257.898 268.444 C-264 254.908 -264 254.908 -264 250 C-267.63 250 -271.26 250 -275 250 C-275.02 250.839 -275.04 251.678 -275.06 252.543 C-275.285 261.799 -275.546 271.053 -275.829 280.308 C-275.948 284.204 -276.058 288.1 -276.163 291.997 C-276.305 297.183 -276.47 302.369 -276.649 307.554 C-276.715 309.56 -276.774 311.567 -276.825 313.574 C-277.218 328.732 -279.315 343.034 -282.532 357.84 C-283.045 360.206 -283.552 362.574 -284.059 364.942 C-286.56 376.611 -289.118 388.268 -291.702 399.919 C-292.847 405.079 -293.978 410.241 -295.108 415.404 C-295.989 419.425 -296.879 423.444 -297.772 427.462 C-298.193 429.366 -298.611 431.27 -299.026 433.175 C-299.605 435.829 -300.196 438.479 -300.789 441.129 C-300.872 441.513 -300.872 441.513 -301.289 443.458 C-303.707 454.085 -307.708 461.936 -317 467.938 C-323.924 470.45 -333.746 470.474 -340.5 467.5 C-346.493 463.792 -351.463 458.021 -353.509 451.229 C-355.203 443.545 -353.624 435.867 -351.905 428.337 C-351.793 427.83 -351.793 427.83 -351.23 425.263 C-350.497 421.94 -349.751 418.621 -349.004 415.301 C-348.49 412.978 -347.976 410.655 -347.464 408.332 C-346.117 402.235 -344.758 396.141 -343.396 390.047 C-341.217 380.286 -339.057 370.519 -336.895 360.754 C-336.14 357.35 -335.38 353.948 -334.62 350.545 C-334.155 348.455 -333.69 346.365 -333.225 344.275 C-333.119 343.804 -333.119 343.804 -332.584 341.423 C-330.548 332.242 -329.711 323.293 -329.261 313.907 C-329.23 313.256 -329.198 312.605 -329.166 311.935 C-328.919 306.828 -328.689 301.721 -328.465 296.613 C-328.431 295.844 -328.397 295.074 -328.362 294.281 C-327.164 266.93 -326.704 239.606 -326.629 212.23 C-326.626 211.31 -326.623 210.389 -326.621 209.441 C-326.573 193.412 -326.56 177.383 -326.563 161.354 C-326.565 150.832 -326.558 140.311 -326.523 129.789 C-326.507 124.452 -326.508 119.115 -326.524 113.778 C-326.53 110.492 -326.519 107.206 -326.504 103.92 C-326.5 102.41 -326.503 100.9 -326.514 99.39 C-326.586 88.389 -325.515 78.862 -317.695 70.531 C-308.166 61.925 -297.881 61.685 -285.57 61.699 C-284.171 61.695 -282.771 61.691 -281.372 61.686 C-278.449 61.679 -275.525 61.679 -272.602 61.684 C-268.881 61.69 -265.161 61.673 -261.441 61.65 C-258.553 61.635 -255.665 61.634 -252.777 61.637 C-251.406 61.637 -250.036 61.632 -248.665 61.622 C-237.954 61.552 -228.384 62.213 -219.82 69.199 C-214.017 74.94 -210.19 81.662 -209.896 89.901 C-209.898 90.976 -209.9 92.052 -209.902 93.16 C-209.904 94.284 -209.906 95.407 -209.908 96.564 C-209.928 98.901 -209.975 101.237 -210.049 103.572 C-210.021 107.966 -209.94 111.502 -207.567 115.285 C-205.031 117.533 -203.335 118.312 -200 119 C-194.664 118.501 -189.714 117.188 -184.572 115.717 C-180.135 114.48 -175.645 113.471 -171.16 112.422 C-169.318 111.981 -167.476 111.538 -165.635 111.094 C-165.177 110.984 -165.177 110.984 -162.863 110.426 C-160.969 109.969 -159.075 109.511 -157.182 109.053 C-154.405 108.381 -151.626 107.714 -148.848 107.047 C-148.001 106.841 -147.154 106.634 -146.282 106.422 C-145.499 106.235 -144.717 106.047 -143.91 105.854 C-143.225 105.689 -142.54 105.523 -141.834 105.353 C-140 105 -140 105 -137 105 C-136.756 104.132 -136.513 103.265 -136.262 102.371 C-130.408 86.732 -114.67 75.282 -100.191 68.348 C-89.786 63.954 -79.145 62.186 -68 61 C-68.422 60.192 -68.843 59.384 -69.277 58.551 C-69.825 57.482 -70.373 56.414 -70.938 55.312 C-71.21 54.785 -71.21 54.785 -72.59 52.113 C-76.804 42.81 -76.541 28.844 -73.031 19.258 C-66.574 5.12 -57.349 -3.131 -42.949 -8.809 C-28.5 -13.295 -11.742 -9.085 0 0 Z M-29 204 C-32.292 239.701 -25.125 267.473 -11.29 300.335 C-6.781 311.328 -4.139 321.843 -2.641 333.609 C-2.446 335.072 -2.249 336.535 -2.052 337.997 C-1.542 341.803 -1.046 345.611 -0.553 349.419 C-0.045 353.322 0.476 357.224 0.996 361.125 C2.01 368.748 3.01 376.373 4 384 C4.33 384 4.66 384 5 384 C5 328.89 5 273.78 5 217 C-2.324 213.671 -9.555 210.52 -17.062 207.688 C-17.998 207.328 -18.933 206.969 -19.896 206.6 C-26.745 204 -26.745 204 -29 204 Z M26 227 C26 248.45 26 269.9 26 292 C53.39 292 80.78 292 109 292 C107.805 271.691 107.805 271.691 106.688 262.062 C106.635 261.547 106.635 261.547 106.369 258.936 C105.142 248.33 102.209 239.196 94 232 C88.093 228.125 82.416 226.87 75.384 226.886 C74.267 226.887 73.151 226.887 72.002 226.887 C71.421 226.889 71.421 226.889 68.48 226.902 C67.404 226.903 66.328 226.904 65.219 226.905 C61.209 226.911 57.198 226.925 53.188 226.938 C48.702 226.948 48.702 226.948 26 227 Z " fill="#E54937" transform="translate(358,43)"/>
<path d="M0 0 C1.4 -0.004 2.799 -0.008 4.199 -0.013 C7.122 -0.02 10.045 -0.02 12.968 -0.015 C16.689 -0.009 20.409 -0.026 24.13 -0.049 C27.018 -0.064 29.905 -0.065 32.793 -0.062 C34.164 -0.062 35.534 -0.067 36.905 -0.078 C47.616 -0.147 57.187 0.514 65.75 7.5 C71.553 13.241 75.38 19.963 75.674 28.201 C75.672 29.277 75.67 30.353 75.668 31.461 C75.666 32.584 75.664 33.708 75.662 34.865 C75.643 37.202 75.596 39.538 75.521 41.873 C75.549 46.267 75.631 49.803 78.003 53.585 C80.541 55.835 82.233 56.613 85.57 57.301 C90.917 56.795 95.881 55.483 101.033 54.008 C105.33 52.81 109.679 51.837 114.023 50.828 C115.815 50.401 117.607 49.972 119.398 49.541 C119.845 49.434 119.845 49.434 122.104 48.891 C123.922 48.454 125.74 48.017 127.559 47.58 C167.073 38.086 167.073 38.086 176.57 43.301 C181.372 46.316 183.8 49.999 185.57 55.301 C186.808 61.661 185.022 66.381 182.152 72.039 C175.118 82.096 159.356 83.139 148.174 85.551 C147.263 85.749 146.352 85.948 145.414 86.152 C144.601 86.326 143.789 86.499 142.951 86.678 C140.57 87.301 140.57 87.301 138.241 88.256 C135.658 89.267 133.156 89.988 130.464 90.645 C129.472 90.889 128.481 91.132 127.459 91.383 C126.397 91.638 125.336 91.893 124.242 92.156 C123.139 92.422 122.035 92.688 120.898 92.962 C118.565 93.521 116.232 94.079 113.898 94.634 C110.344 95.483 106.795 96.352 103.246 97.221 C100.974 97.763 98.702 98.304 96.43 98.844 C95.376 99.105 94.323 99.366 93.237 99.636 C86.926 101.106 81.967 101.413 75.57 100.301 C72.966 194.403 72.966 194.403 92.253 233.291 C93.035 234.956 93.807 236.627 94.57 238.301 C95.053 239.337 95.536 240.374 96.033 241.442 C101.374 254.096 102.875 267.262 104.644 280.802 C105.096 284.23 105.567 287.655 106.035 291.08 C106.817 296.822 107.584 302.565 108.341 308.309 C109.213 314.923 110.107 321.533 111.014 328.142 C111.891 334.546 112.755 340.951 113.612 347.357 C113.974 350.065 114.341 352.771 114.711 355.477 C115.226 359.26 115.724 363.045 116.219 366.831 C116.372 367.935 116.525 369.04 116.683 370.177 C117.916 379.859 118.57 390.036 112.57 398.301 C107.738 403.577 102.513 406.868 95.367 407.652 C87.371 407.981 81.057 407.21 74.57 402.301 C66.587 394.656 65.252 383.933 64.126 373.425 C63.877 371.263 63.628 369.101 63.378 366.939 C63.25 365.802 63.122 364.666 62.99 363.494 C56.812 309.232 50.66 256.891 27.672 206.745 C21.57 193.209 21.57 193.209 21.57 188.301 C17.94 188.301 14.31 188.301 10.57 188.301 C10.55 189.14 10.531 189.979 10.51 190.844 C10.286 200.1 10.024 209.354 9.741 218.608 C9.623 222.505 9.512 226.401 9.407 230.298 C9.266 235.484 9.1 240.669 8.921 245.854 C8.855 247.861 8.796 249.868 8.745 251.875 C8.353 267.033 6.255 281.334 3.039 296.141 C2.526 298.507 2.018 300.875 1.512 303.242 C-0.989 314.912 -3.547 326.569 -6.132 338.22 C-7.276 343.38 -8.408 348.542 -9.537 353.705 C-10.419 357.726 -11.309 361.745 -12.201 365.763 C-12.623 367.667 -13.041 369.571 -13.456 371.476 C-14.034 374.13 -14.625 376.78 -15.219 379.43 C-15.301 379.814 -15.301 379.814 -15.718 381.758 C-18.136 392.386 -22.138 400.237 -31.43 406.238 C-38.354 408.75 -48.176 408.775 -54.93 405.801 C-60.923 402.093 -65.892 396.322 -67.938 389.53 C-69.632 381.845 -68.054 374.167 -66.334 366.638 C-66.223 366.131 -66.223 366.131 -65.659 363.564 C-64.927 360.241 -64.18 356.921 -63.434 353.602 C-62.919 351.279 -62.406 348.956 -61.894 346.632 C-60.547 340.536 -59.188 334.442 -57.826 328.348 C-55.647 318.586 -53.487 308.82 -51.325 299.055 C-50.57 295.651 -49.81 292.249 -49.05 288.846 C-48.585 286.756 -48.12 284.666 -47.655 282.575 C-47.549 282.105 -47.549 282.105 -47.014 279.724 C-44.977 270.543 -44.14 261.594 -43.691 252.208 C-43.66 251.557 -43.628 250.906 -43.595 250.235 C-43.348 245.129 -43.118 240.022 -42.895 234.914 C-42.861 234.145 -42.827 233.375 -42.792 232.582 C-41.594 205.231 -41.134 177.907 -41.059 150.531 C-41.056 149.611 -41.053 148.69 -41.05 147.742 C-41.002 131.713 -40.99 115.684 -40.993 99.654 C-40.995 89.133 -40.988 78.611 -40.953 68.09 C-40.936 62.753 -40.938 57.416 -40.954 52.079 C-40.96 48.793 -40.949 45.507 -40.934 42.221 C-40.93 40.711 -40.933 39.201 -40.944 37.691 C-41.015 26.689 -39.945 17.163 -32.125 8.832 C-22.596 0.225 -12.311 -0.014 0 0 Z " fill="#63AEFE" transform="translate(72.4296875,104.69921875)"/>
<path d="M0 0 C4.48 -0.075 8.96 -0.129 13.44 -0.165 C14.959 -0.18 16.477 -0.2 17.996 -0.226 C34.519 -0.504 48.627 1.887 61.25 13.5 C68.604 21.345 72.843 30.166 74.538 40.716 C74.6 41.082 74.6 41.082 74.91 42.932 C76.376 51.911 77.414 60.943 78.452 69.979 C78.679 71.919 78.906 73.859 79.133 75.799 C79.743 81.013 80.346 86.228 80.949 91.442 C81.582 96.921 82.221 102.4 82.858 107.879 C83.927 117.065 84.991 126.251 86.053 135.438 C87.279 146.047 88.513 156.655 89.749 167.263 C90.943 177.498 92.131 187.734 93.317 197.971 C93.82 202.316 94.325 206.66 94.832 211.005 C95.428 216.116 96.02 221.227 96.608 226.339 C96.824 228.211 97.041 230.083 97.261 231.955 C97.56 234.515 97.854 237.075 98.147 239.636 C98.234 240.371 98.322 241.107 98.412 241.864 C99.999 255.964 99.999 255.964 96 261 C91.95 263.7 88.752 263.643 84 263 C81.062 261.562 81.062 261.562 79 259 C77.016 251.598 76.178 244.098 75.304 236.497 C75.147 235.156 74.989 233.815 74.83 232.473 C74.405 228.856 73.985 225.239 73.566 221.621 C73.126 217.824 72.681 214.027 72.237 210.23 C71.493 203.86 70.752 197.489 70.013 191.118 C69.16 183.761 68.302 176.404 67.44 169.048 C66.609 161.955 65.782 154.861 64.957 147.768 C64.607 144.755 64.255 141.743 63.902 138.731 C63.487 135.185 63.075 131.638 62.666 128.091 C62.444 126.174 62.219 124.257 61.993 122.341 C61.861 121.193 61.73 120.045 61.594 118.862 C61.479 117.869 61.363 116.876 61.244 115.853 C60.992 112.911 61 109.952 61 107 C32.62 107 4.24 107 -25 107 C-24.965 117.698 -24.93 128.396 -24.895 139.418 C-24.879 146.186 -24.865 152.953 -24.854 159.721 C-24.836 170.468 -24.815 181.216 -24.774 191.963 C-24.744 199.79 -24.724 207.617 -24.718 215.444 C-24.714 219.588 -24.705 223.733 -24.683 227.877 C-24.662 231.778 -24.656 235.679 -24.661 239.581 C-24.66 241.012 -24.654 242.444 -24.642 243.875 C-24.627 245.831 -24.633 247.786 -24.639 249.742 C-24.636 250.836 -24.634 251.93 -24.631 253.058 C-25.055 256.439 -25.973 258.281 -28 261 C-32.019 263.679 -35.276 263.696 -40 263 C-42.87 261.206 -44.491 260.017 -46 257 C-46.543 257.349 -47.085 257.699 -47.645 258.059 C-48.36 258.514 -49.075 258.969 -49.812 259.438 C-50.52 259.89 -51.228 260.342 -51.957 260.809 C-57.748 264.186 -64.525 263.603 -71 263 C-77.933 260.941 -83.144 257.098 -87 251 C-89.828 244.547 -90.75 237.887 -91.524 230.94 C-91.788 228.717 -92.053 226.494 -92.318 224.272 C-92.454 223.101 -92.59 221.93 -92.73 220.724 C-93.476 214.38 -94.279 208.043 -95.072 201.705 C-96.071 193.704 -97.053 185.703 -97.971 177.693 C-101.981 142.912 -108.684 111.612 -121.927 79.145 C-124.469 72.894 -126.775 66.564 -129.06 60.216 C-131.012 54.801 -133.01 49.402 -135 44 C-116.85 44 -98.7 44 -80 44 C-75.342 55.179 -70.948 66.404 -66.725 77.749 C-65.874 80.021 -65.014 82.291 -64.145 84.556 C-57.911 100.817 -54.278 115.63 -52 133 C-50.35 145.21 -48.7 157.42 -47 170 C-46.835 143.765 -46.835 143.765 -46 11 C-42.164 11.767 -39.298 12.664 -35.785 14.223 C-28 17.644 -21.208 19.725 -12.723 17.367 C-7.223 15.093 -4.44 11.315 -2 6 C-1.323 4.003 -0.656 2.004 0 0 Z M-25 21 C-25 42.45 -25 63.9 -25 86 C2.39 86 29.78 86 58 86 C56.805 65.691 56.805 65.691 55.688 56.062 C55.635 55.547 55.635 55.547 55.369 52.936 C54.142 42.33 51.209 33.196 43 26 C37.093 22.125 31.416 20.87 24.384 20.886 C23.267 20.887 22.151 20.887 21.002 20.887 C20.421 20.889 20.421 20.889 17.48 20.902 C16.404 20.903 15.328 20.904 14.219 20.905 C10.209 20.911 6.198 20.925 2.188 20.938 C-2.298 20.948 -2.298 20.948 -25 21 Z " fill="#86AEB8" transform="translate(409,249)"/>
<path d="M0 0 C18.15 0 36.3 0 55 0 C63.625 24 63.625 24 66.307 31.469 C67.03 33.479 67.753 35.49 68.477 37.5 C68.835 38.498 69.192 39.495 69.561 40.523 C69.926 41.537 70.291 42.55 70.667 43.594 C70.851 44.113 70.851 44.113 71.782 46.74 C72.613 48.964 73.511 51.164 74.465 53.337 C79.793 65.952 81.31 78.996 83.074 92.501 C83.525 95.929 83.997 99.354 84.465 102.779 C85.246 108.521 86.013 114.264 86.771 120.009 C87.643 126.622 88.537 133.232 89.443 139.841 C90.321 146.245 91.185 152.65 92.041 159.057 C92.404 161.764 92.77 164.47 93.141 167.177 C93.655 170.96 94.154 174.745 94.648 178.531 C94.725 179.083 94.725 179.083 95.112 181.876 C96.346 191.558 96.999 201.735 91 210 C86.168 215.276 80.942 218.567 73.797 219.352 C65.8 219.68 59.486 218.909 53 214 C45.016 206.355 43.681 195.632 42.556 185.124 C42.307 182.962 42.057 180.8 41.808 178.638 C41.68 177.502 41.552 176.365 41.42 175.194 C35.242 120.931 29.09 68.59 6.102 18.444 C0 4.908 0 4.908 0 0 Z " fill="#404A82" transform="translate(94,293)"/>
<path d="M0 0 C16.83 0 33.66 0 51 0 C50.77 9.182 50.536 18.361 50.255 27.541 C50.108 32.36 49.967 37.178 49.837 41.997 C49.695 47.183 49.53 52.369 49.351 57.554 C49.285 59.56 49.226 61.567 49.175 63.574 C48.782 78.732 46.685 93.034 43.468 107.84 C42.955 110.206 42.448 112.574 41.941 114.942 C39.44 126.611 36.882 138.268 34.298 149.919 C33.153 155.079 32.022 160.241 30.892 165.404 C30.011 169.425 29.121 173.444 28.228 177.462 C27.807 179.366 27.389 181.27 26.974 183.175 C26.395 185.829 25.804 188.479 25.211 191.129 C25.046 191.898 24.881 192.666 24.711 193.458 C22.293 204.085 18.292 211.936 9 217.938 C2.076 220.45 -7.746 220.474 -14.5 217.5 C-20.493 213.792 -25.463 208.021 -27.509 201.229 C-29.203 193.545 -27.624 185.867 -25.905 178.337 C-25.682 177.323 -25.459 176.308 -25.23 175.263 C-24.497 171.94 -23.751 168.621 -23.004 165.301 C-22.49 162.978 -21.976 160.655 -21.464 158.332 C-20.117 152.235 -18.758 146.141 -17.396 140.047 C-15.217 130.286 -13.057 120.519 -10.895 110.754 C-10.14 107.35 -9.38 103.948 -8.62 100.545 C-8.155 98.455 -7.69 96.365 -7.225 94.275 C-7.013 93.334 -6.802 92.393 -6.584 91.423 C-4.983 84.206 -3.917 77.184 -3.627 69.783 C-3.599 69.099 -3.571 68.415 -3.543 67.711 C-3.483 66.239 -3.426 64.766 -3.369 63.294 C-3.28 60.961 -3.186 58.627 -3.091 56.294 C-2.856 50.502 -2.628 44.709 -2.401 38.917 C-2.208 34.012 -2.012 29.107 -1.812 24.202 C-1.72 21.91 -1.633 19.617 -1.545 17.325 C-1.488 15.913 -1.431 14.5 -1.373 13.088 C-1.325 11.861 -1.277 10.634 -1.227 9.37 C-1 6 -1 6 0 0 Z " fill="#5E6D9B" transform="translate(32,293)"/>
<path d="M0 0 C16.83 0 33.66 0 51 0 C51.749 18.414 51.749 18.414 52.066 26.395 C52.281 31.794 52.497 37.194 52.718 42.593 C52.897 46.957 53.071 51.321 53.243 55.684 C53.309 57.331 53.376 58.978 53.444 60.625 C54.265 80.419 54.021 99.822 52.32 119.566 C52.145 121.664 51.971 123.761 51.797 125.859 C51.434 130.213 51.065 134.567 50.692 138.92 C50.216 144.473 49.753 150.028 49.293 155.582 C48.936 159.897 48.572 164.211 48.207 168.526 C48.034 170.573 47.863 172.621 47.693 174.669 C45.148 205.211 45.148 205.211 38 213 C29.942 219.367 21.957 219.718 12 219 C5.324 217.375 0.746 212.579 -3 207 C-7.519 198.107 -6.159 188.215 -5.25 178.608 C-5.17 177.726 -5.09 176.845 -5.008 175.936 C-4.837 174.035 -4.663 172.134 -4.488 170.234 C-4.112 166.131 -3.752 162.027 -3.391 157.923 C-2.721 150.316 -2.046 142.71 -1.343 135.107 C0.958 110.151 2.63 85.691 1.203 60.643 C0.869 54.64 0.659 48.633 0.438 42.625 C0.393 41.453 0.349 40.28 0.304 39.072 C-0.178 26.048 -0.064 13.033 0 0 Z " fill="#738488" transform="translate(213,293)"/>
<path d="M0 0 C18.15 0 36.3 0 55 0 C59.658 11.179 64.052 22.404 68.275 33.749 C69.126 36.021 69.986 38.291 70.855 40.556 C76.656 55.689 80.559 70.111 82.618 86.186 C83.075 89.552 83.666 92.881 84.284 96.22 C88.969 121.788 89.709 147.362 89.855 173.283 C89.875 175.998 89.909 178.712 89.947 181.426 C90.004 185.743 90.017 190.058 89.996 194.375 C89.993 195.987 90.004 197.599 90.028 199.211 C90.194 211.58 90.194 211.58 87.258 215.072 C85.18 216.414 83.356 217.27 81 218 C80.01 218.33 79.02 218.66 78 219 C68.935 219.825 61.51 219.463 54 214 C45.822 207.003 44.61 197.115 43.476 186.94 C43.212 184.717 42.947 182.494 42.682 180.272 C42.546 179.101 42.41 177.93 42.27 176.724 C41.524 170.38 40.721 164.043 39.928 157.705 C38.929 149.704 37.947 141.703 37.029 133.693 C33.019 98.912 26.316 67.612 13.073 35.145 C10.531 28.894 8.225 22.564 5.94 16.216 C3.988 10.801 1.99 5.402 0 0 Z " fill="#54686D" transform="translate(274,293)"/>
<path d="M0 0 C2.306 1.439 4.445 2.971 6.586 4.645 C7.202 5.123 7.818 5.601 8.453 6.094 C17.008 13.641 21.795 25.838 22.797 36.992 C23.289 48.936 19.283 60.944 11.898 70.332 C3.367 79.56 -8.097 84.898 -20.574 85.801 C-33.957 86.31 -46.278 81.644 -56.164 72.645 C-66.274 61.971 -68.915 49.68 -68.688 35.492 C-68.207 23.213 -62.47 13.145 -53.602 4.832 C-38.56 -7.527 -16.894 -9.486 0 0 Z " fill="#FFB69E" transform="translate(120.4140625,5.35546875)"/>
<path d="M0 0 C6.681 6.083 10.943 12.522 14 21 C14.245 21.665 14.49 22.33 14.742 23.016 C18.343 34.754 15.886 46.993 10.645 57.793 C4.504 68.675 -4.4 76.2 -16.438 79.875 C-30.416 83.198 -43.848 80.393 -56 73 C-65.019 66.528 -71.765 57.556 -74.59 46.742 C-76.776 32.129 -74.78 19.073 -66 7 C-49.568 -13.181 -20.585 -15.927 0 0 Z " fill="#80381A" transform="translate(358,43)"/>
<path d="M0 0 C4.48 -0.075 8.96 -0.129 13.44 -0.165 C14.959 -0.18 16.477 -0.2 17.996 -0.226 C34.519 -0.504 48.627 1.887 61.25 13.5 C68.604 21.345 72.843 30.166 74.538 40.716 C74.661 41.448 74.784 42.179 74.91 42.932 C76.376 51.911 77.414 60.943 78.452 69.979 C78.679 71.919 78.906 73.859 79.133 75.799 C79.743 81.013 80.346 86.228 80.949 91.442 C81.582 96.921 82.221 102.4 82.858 107.879 C83.927 117.065 84.991 126.251 86.053 135.438 C87.279 146.047 88.513 156.655 89.749 167.263 C90.943 177.498 92.131 187.734 93.317 197.971 C93.82 202.316 94.325 206.66 94.832 211.005 C95.428 216.116 96.02 221.227 96.608 226.339 C96.824 228.211 97.041 230.083 97.261 231.955 C97.56 234.515 97.854 237.075 98.147 239.636 C98.234 240.371 98.322 241.107 98.412 241.864 C99.999 255.964 99.999 255.964 96 261 C91.95 263.7 88.752 263.643 84 263 C81.062 261.562 81.062 261.562 79 259 C77.049 251.703 76.207 244.323 75.352 236.831 C75.2 235.536 75.049 234.242 74.893 232.909 C74.479 229.377 74.072 225.845 73.665 222.312 C73.235 218.581 72.799 214.85 72.364 211.119 C71.632 204.837 70.904 198.554 70.178 192.271 C69.165 183.508 68.147 174.745 67.127 165.982 C66.324 159.085 65.523 152.187 64.723 145.289 C64.639 144.568 64.555 143.848 64.469 143.106 C61.918 121.122 59.418 99.133 57.038 77.13 C56.654 73.608 56.257 70.088 55.857 66.568 C55.657 64.785 55.463 63 55.273 61.216 C52.494 35.169 52.494 35.169 43 27 C37.231 23.283 31.683 21.916 24.843 21.795 C24.342 21.785 24.342 21.785 21.81 21.734 C20.742 21.718 19.674 21.701 18.574 21.684 C17.471 21.663 16.369 21.642 15.233 21.621 C11.718 21.555 8.203 21.496 4.688 21.438 C2.301 21.394 -0.085 21.351 -2.471 21.307 C-8.314 21.2 -14.157 21.098 -20 21 C-18.613 18.225 -17.141 18.193 -14.25 17.188 C-8.854 15.074 -5.338 13.05 -2.917 7.532 C-2.744 7.084 -2.744 7.084 -1.867 4.82 C-1.515 3.918 -1.163 3.016 -0.8 2.086 C-0.536 1.398 -0.272 0.709 0 0 Z " fill="#87AEB8" transform="translate(409,249)"/>
<path d="M0 0 C4.162 4.162 6.498 8.766 6.875 14.688 C6.562 21.143 3.684 27.107 -1.023 31.484 C-9.357 37.203 -21.347 38.462 -31.084 40.562 C-31.995 40.761 -32.905 40.959 -33.844 41.164 C-34.657 41.338 -35.469 41.511 -36.307 41.69 C-38.688 42.312 -38.688 42.312 -41.017 43.267 C-43.6 44.278 -46.101 45 -48.794 45.657 C-49.786 45.9 -50.777 46.144 -51.799 46.394 C-52.86 46.65 -53.922 46.905 -55.016 47.168 C-55.567 47.301 -55.567 47.301 -58.36 47.974 C-60.693 48.533 -63.026 49.09 -65.36 49.645 C-68.914 50.494 -72.463 51.363 -76.012 52.232 C-78.284 52.775 -80.556 53.316 -82.828 53.855 C-83.882 54.117 -84.935 54.378 -86.02 54.648 C-93.144 56.306 -99.432 57.123 -106.31 54.197 C-107.02 53.727 -107.73 53.257 -108.461 52.773 C-109.293 52.234 -110.126 51.695 -110.983 51.14 C-111.876 50.537 -112.768 49.934 -113.688 49.312 C-114.691 48.655 -115.694 47.998 -116.728 47.321 C-119.936 45.212 -123.126 43.079 -126.312 40.938 C-127.423 40.194 -128.534 39.45 -129.645 38.707 C-132.327 36.911 -135.008 35.113 -137.688 33.312 C-136.02 28.918 -133.776 25.234 -131.125 21.375 C-130.229 20.053 -129.335 18.73 -128.441 17.406 C-127.987 16.733 -127.532 16.06 -127.063 15.367 C-124.852 12.065 -122.705 8.722 -120.562 5.375 C-120.172 4.766 -119.782 4.157 -119.381 3.53 C-118.482 2.125 -117.584 0.719 -116.688 -0.688 C-111.426 1.174 -106.931 4.112 -102.215 7.035 C-101.577 7.426 -100.939 7.816 -100.281 8.219 C-99.996 8.396 -99.996 8.396 -98.553 9.291 C-93.925 11.825 -91.225 12.603 -86.018 11.302 C-84.902 11.031 -83.787 10.76 -82.637 10.482 C-81.438 10.174 -80.239 9.867 -79.004 9.551 C-77.097 9.082 -75.191 8.614 -73.284 8.145 C-70.612 7.484 -67.943 6.809 -65.274 6.135 C-61.293 5.132 -57.307 4.149 -53.322 3.164 C-50.209 2.394 -47.098 1.62 -43.988 0.838 C-11.588 -7.276 -11.588 -7.276 0 0 Z " fill="#FEB59D" transform="translate(251.6875,149.6875)"/>
<path d="M0 0 C0.985 2.394 1.963 4.79 2.938 7.188 C3.076 7.524 3.076 7.524 3.779 9.229 C5.226 12.802 6.412 16.164 7 20 C7.264 20.085 7.264 20.085 8.601 20.515 C14.633 22.486 20.543 24.702 26.449 27.02 C27.424 27.401 28.399 27.782 29.404 28.174 C31.458 28.977 33.511 29.782 35.563 30.587 C38.66 31.802 41.759 33.011 44.857 34.221 C53.311 37.526 61.766 40.832 70.145 44.324 C71.176 44.752 72.207 45.179 73.269 45.62 C78.569 48.298 81.847 51.383 84.266 56.734 C86.31 63.041 85.578 68.424 82.812 74.375 C79.639 80.079 76.11 82.822 70 85 C61.236 86.684 54.262 83.379 46.449 79.926 C42.263 78.077 38.018 76.534 33.688 75.062 C21.123 70.734 8.658 65.901 -3.352 60.199 C-5.38 59.281 -7.445 58.444 -9.523 57.645 C-10.141 57.402 -10.759 57.16 -11.395 56.911 C-13.138 56.231 -14.889 55.574 -16.641 54.918 C-25.637 49.782 -28.867 41.567 -32.228 32.171 C-32.945 30.168 -33.686 28.174 -34.432 26.182 C-38 16.519 -38 16.519 -38 13 C-33.64 11.308 -29.28 9.618 -24.92 7.928 C-23.437 7.353 -21.954 6.778 -20.471 6.202 C-18.339 5.375 -16.207 4.549 -14.074 3.723 C-13.412 3.465 -12.749 3.208 -12.066 2.943 C-4.464 0 -4.464 0 0 0 Z " fill="#80391B" transform="translate(324,183)"/>
<path d="M0 0 C6.344 4.283 9.455 10.298 12 17.316 C12.313 18.141 12.625 18.966 12.947 19.816 C13.936 22.434 14.904 25.058 15.871 27.684 C16.523 29.421 17.176 31.158 17.83 32.895 C19.09 36.243 20.342 39.595 21.586 42.95 C23.488 48.064 25.47 53.144 27.476 58.218 C28.309 60.559 28.309 60.559 28.309 62.559 C24.166 64.092 20.021 65.622 15.876 67.148 C14.468 67.667 13.061 68.187 11.654 68.708 C9.622 69.46 7.588 70.209 5.555 70.957 C4.335 71.407 3.114 71.858 1.857 72.322 C-0.638 73.192 -3.037 73.931 -5.582 74.596 C-6.095 74.755 -6.095 74.755 -8.691 75.559 C-9.021 76.219 -9.351 76.879 -9.691 77.559 C-10.046 76.509 -10.4 75.46 -10.766 74.379 C-11.302 72.813 -11.84 71.248 -12.379 69.684 C-12.674 68.824 -12.969 67.964 -13.274 67.078 C-15.393 61.009 -17.674 55.019 -20.051 49.047 C-20.645 47.541 -21.239 46.035 -21.833 44.529 C-22.722 42.275 -23.617 40.025 -24.534 37.782 C-28.524 28.008 -32.246 18.676 -28.254 8.246 C-22.192 -2.351 -10.504 -4.336 0 0 Z " fill="#D13D2C" transform="translate(294.69140625,120.44140625)"/>
<path d="M0 0 C0.811 -0.017 1.622 -0.034 2.457 -0.051 C9.852 0.933 15.734 5.461 21.75 9.562 C22.649 10.171 23.548 10.779 24.474 11.406 C26.384 12.7 28.294 13.996 30.202 15.294 C33.26 17.361 36.336 19.398 39.418 21.43 C41.425 22.765 43.431 24.101 45.438 25.438 C46.396 26.064 47.354 26.691 48.342 27.337 C49.224 27.93 50.107 28.522 51.016 29.133 C51.798 29.651 52.581 30.17 53.388 30.704 C55.477 32.571 56.006 33.53 56.188 36.312 C54.843 38.744 53.483 40.879 51.875 43.125 C50.951 44.457 50.028 45.789 49.105 47.121 C48.625 47.807 48.145 48.492 47.65 49.199 C46.188 51.312 44.769 53.447 43.363 55.598 C42.914 56.283 42.466 56.968 42.003 57.675 C41.138 58.999 40.274 60.325 39.413 61.652 C36.41 66.201 36.41 66.201 34.188 67.312 C28.795 63.743 23.406 60.168 18.019 56.589 C16.19 55.374 14.36 54.161 12.529 52.949 C9.883 51.197 7.24 49.441 4.598 47.684 C3.791 47.151 2.984 46.618 2.153 46.07 C-15.906 34.032 -15.906 34.032 -18.812 25.312 C-19.572 18.592 -19.268 13.526 -15.242 7.965 C-11.021 3.087 -6.503 0.031 0 0 Z " fill="#4699F1" transform="translate(78.8125,114.6875)"/>
<path d="M0 0 C27.72 0 55.44 0 84 0 C86 15 86 15 86 21 C57.62 21 29.24 21 0 21 C0 14.07 0 7.14 0 0 Z " fill="#6C9BAA" transform="translate(384,335)"/>
</svg>
