<?xml version="1.0" encoding="UTF-8"?>
<!-- Generator: visioncortex VTracer 0.6.12 -->
<svg version="1.1" xmlns="http://www.w3.org/2000/svg" width="512" height="512">
<path d="M0 0 C36.793 30.965 58.309 80.874 63.051 128.09 C64.942 153.142 64.803 179.204 60.484 203.98 C60.286 205.125 60.087 206.27 59.882 207.45 C55.265 233.177 47.554 257.296 37.541 281.396 C36.11 284.897 34.787 288.43 33.484 291.98 C34.329 292.228 35.173 292.475 36.043 292.73 C68.24 304.425 93.155 336.394 107.28 366.26 C112.592 378.257 116.302 391.051 118.484 403.98 C118.655 404.943 118.825 405.905 119.001 406.896 C119.768 412.348 119.687 417.841 119.723 423.336 C119.731 424.515 119.739 425.694 119.747 426.909 C119.761 429.393 119.772 431.876 119.78 434.36 C119.791 436.904 119.812 439.448 119.841 441.992 C119.884 445.669 119.9 449.346 119.91 453.023 C119.928 454.162 119.945 455.301 119.963 456.474 C119.962 457.003 119.962 457.003 119.954 459.68 C119.957 460.145 119.957 460.145 119.972 462.497 C119.312 465.858 118.171 466.878 115.484 468.98 C112.376 469.482 112.376 469.482 108.631 469.484 C107.939 469.49 107.247 469.495 106.534 469.501 C104.202 469.516 101.872 469.502 99.541 469.488 C97.857 469.493 96.174 469.499 94.49 469.507 C89.855 469.524 85.22 469.516 80.585 469.503 C75.59 469.494 70.595 469.508 65.599 469.519 C55.81 469.537 46.021 469.533 36.232 469.522 C28.278 469.513 20.324 469.511 12.37 469.516 C11.24 469.516 10.109 469.517 8.944 469.518 C6.647 469.519 4.351 469.52 2.054 469.521 C-19.498 469.533 -41.05 469.52 -62.602 469.498 C-81.107 469.48 -99.612 469.484 -118.117 469.502 C-139.59 469.523 -161.063 469.532 -182.537 469.52 C-184.825 469.518 -187.113 469.517 -189.402 469.516 C-189.965 469.515 -189.965 469.515 -192.814 469.514 C-200.761 469.51 -208.708 469.516 -216.655 469.526 C-226.336 469.537 -236.016 469.534 -245.697 469.513 C-250.639 469.502 -255.581 469.498 -260.523 469.511 C-265.044 469.523 -269.563 469.517 -274.084 469.495 C-275.723 469.491 -277.362 469.493 -279.001 469.503 C-281.222 469.515 -283.442 469.502 -285.663 469.484 C-286.898 469.483 -288.134 469.483 -289.407 469.482 C-293.103 468.886 -294.284 467.931 -296.516 464.98 C-297.017 462.564 -297.017 462.564 -297.017 459.839 C-297.022 459.326 -297.022 459.326 -297.046 456.73 C-297.04 456.177 -297.04 456.177 -297.012 453.375 C-297.013 452.222 -297.015 451.07 -297.016 449.882 C-297.014 447.435 -297.003 444.988 -296.982 442.541 C-296.954 438.852 -296.961 435.164 -296.975 431.475 C-296.963 418.665 -296.466 406.466 -293.516 393.98 C-293.307 393.057 -293.099 392.133 -292.885 391.182 C-286.448 364.588 -272.499 341.414 -253.516 321.98 C-252.729 321.132 -251.943 320.284 -251.133 319.41 C-228.066 295.126 -191.895 278.073 -158.297 276.865 C-151.034 276.739 -143.777 276.808 -136.516 276.98 C-135.836 263.9 -135.836 263.9 -137.516 257.98 C-140.164 255.155 -142.507 254.092 -146.047 252.562 C-161.323 245.596 -173.155 229.153 -179.334 213.97 C-182.573 205.255 -184.673 197.279 -184.516 187.98 C-185.32 187.939 -186.124 187.898 -186.953 187.855 C-194.411 186.024 -199.729 181.376 -204.227 175.301 C-208.76 167.141 -208.992 160.137 -208.891 150.918 C-208.886 150.256 -208.881 149.595 -208.877 148.913 C-208.59 113.957 -200.053 79.796 -183.516 48.98 C-183.026 48.012 -182.536 47.044 -182.031 46.047 C-165.771 14.576 -137.443 -12.474 -103.448 -23.417 C-66.554 -34.914 -29.087 -23.78 0 0 Z " fill="#010000" transform="translate(344.515625,35.01953125)"/>
<path d="M0 0 C0.123 0.409 0.123 0.409 0.743 2.48 C4.996 16.436 11.654 26.696 24.562 33.875 C37.244 40.549 50.399 40.545 63.938 36.656 C64.618 36.44 65.299 36.223 66 36 C62.252 51.493 54.546 66.154 41 75 C39.58 77.841 39.685 79.855 40 83 C42.133 85.816 43.341 86.876 46.846 87.533 C47.389 87.539 47.389 87.539 50.137 87.566 C51.346 87.58 52.555 87.593 53.8 87.607 C55.083 87.593 56.366 87.578 57.688 87.562 C58.999 87.552 60.311 87.541 61.663 87.529 C71.869 87.302 80.647 86.073 90 82 C90.339 81.855 90.339 81.855 92.055 81.123 C109.243 73.599 124.239 61.606 136 47 C136.746 46.08 137.493 45.159 138.262 44.211 C144.252 36.686 149.511 28.775 154.652 20.652 C156.329 18.01 158.063 15.462 160 13 C164.834 14.409 168.973 16.518 173.25 19.125 C173.909 19.525 174.568 19.924 175.247 20.336 C180.869 23.807 186.011 27.664 191 32 C191.83 32.709 192.66 33.418 193.516 34.148 C213.793 51.876 227.99 75.011 235 101 C235 101.99 235 102.98 235 104 C215.2 104 195.4 104 175 104 C175 96.08 175 88.16 175 80 C169.72 80 164.44 80 159 80 C159 106.4 159 132.8 159 160 C85.08 160 11.16 160 -65 160 C-65 133.6 -65 107.2 -65 80 C-70.28 80 -75.56 80 -81 80 C-81 87.92 -81 95.84 -81 104 C-100.8 104 -120.6 104 -141 104 C-139.591 96.953 -138.176 91.189 -135.375 84.75 C-135.022 83.929 -134.668 83.109 -134.304 82.263 C-119.032 47.514 -91.412 21.891 -56.325 7.868 C-49.692 5.391 -42.884 3.62 -36 2 C-35.025 1.754 -34.051 1.508 -33.047 1.254 C-22.297 -1.025 -10.929 -0.172 0 0 Z " fill="#DF795E" transform="translate(209,328)"/>
<path d="M0 0 C1.762 1.486 3.513 2.985 5.25 4.5 C5.913 5.078 6.575 5.655 7.258 6.25 C42.076 38.883 56.768 89.854 58.375 136.111 C59.858 193.229 44.488 257.787 10.25 304.5 C9.866 305.026 9.866 305.026 7.922 307.688 C-6.409 326.96 -25.692 348.026 -50.652 351.957 C-53.021 352.206 -55.371 352.397 -57.75 352.5 C-57.242 351.531 -56.734 350.561 -56.211 349.562 C-45.707 329.22 -39.165 307.838 -35.188 285.312 C-35.123 284.958 -35.123 284.958 -34.796 283.164 C-33.958 278.113 -33.629 273.161 -33.461 268.043 C-32.67 248.236 -32.67 248.236 -29.244 243.354 C-25.575 240.101 -21.298 238.307 -16.801 236.462 C-0.997 229.049 8.705 209.018 14.383 193.57 C15.22 190.607 15.614 187.738 15.983 184.687 C17.091 176.392 17.091 176.392 20.859 173.492 C22.959 172.537 25.085 171.639 27.234 170.801 C33.44 168.124 36.838 162.884 39.688 156.938 C42.82 148.031 42.689 138.588 38.75 130 C35.624 124.54 31.495 118.863 25.252 116.859 C22.814 115.992 21.176 115.243 19.25 113.5 C18.036 109.436 18.097 105.406 18.062 101.188 C17.192 81.04 10.419 63.917 -2.75 48.5 C-3.183 47.924 -3.616 47.348 -4.062 46.754 C-7.254 42.641 -11.087 39.487 -15.188 36.312 C-15.725 35.896 -16.263 35.48 -16.817 35.051 C-27.606 26.916 -27.606 26.916 -33.5 27 C-34.237 26.99 -34.975 26.979 -35.734 26.969 C-37.75 27.5 -37.75 27.5 -39.344 29.062 C-41.172 32.232 -42.318 35.555 -43.5 39 C-51.394 60.766 -66.534 78.14 -87.562 88 C-90.273 89.215 -93.001 90.375 -95.75 91.5 C-96.615 91.858 -97.48 92.217 -98.371 92.586 C-111.054 97.287 -128.542 98.92 -141.75 95.5 C-158.206 94.253 -158.206 94.253 -164.141 98.875 C-167.834 102.605 -171.012 106.379 -172.75 111.375 C-173.75 113.5 -173.75 113.5 -176.812 114.633 C-177.782 114.919 -178.751 115.205 -179.75 115.5 C-176.293 79.016 -162.833 43.411 -138.75 15.5 C-138.414 15.098 -138.414 15.098 -136.715 13.062 C-100.234 -29.311 -43.762 -34.973 0 0 Z " fill="#3C3F5A" transform="translate(333.75,47.5)"/>
<path d="M0 0 C7.887 1.209 14.029 9.73 18.688 15.625 C30.29 31.765 33.536 47.635 32.795 67.281 C32.768 68.478 32.742 69.674 32.715 70.906 C32.675 71.982 32.635 73.058 32.594 74.166 C33.103 77.715 34.211 78.827 37 81 C39.332 81.617 39.332 81.617 41.812 81.875 C47.172 82.762 50.507 84.852 54 89 C56.738 93.447 56.65 97.925 56 103 C53.797 107.406 51.213 110.455 47 113 C43.897 113.856 40.801 114.565 37.645 115.191 C35 116 35 116 33 119 C32.685 121.737 32.449 124.442 32.25 127.188 C30.487 146.247 21.702 162.961 7.141 175.453 C-3.406 183.704 -14.035 187.68 -26.958 190.542 C-28.934 190.985 -30.901 191.467 -32.867 191.949 C-53.613 196.715 -76.726 191.529 -95.125 181.25 C-108.87 172.615 -117.952 160.903 -124 146 C-124.318 145.276 -124.637 144.551 -124.965 143.805 C-127.317 137.837 -127.731 131.548 -128.267 125.206 C-128.607 121.416 -128.851 119.223 -131 116 C-133.574 115.262 -133.574 115.262 -136.688 114.688 C-142.391 113.387 -146.27 111.568 -150 107 C-152.73 102.545 -152.651 98.081 -152 93 C-149.768 88.536 -147.06 85.84 -143 83 C-139.668 81.953 -139.668 81.953 -136.188 81.25 C-135.026 81.008 -133.865 80.765 -132.668 80.516 C-131.788 80.345 -130.907 80.175 -130 80 C-129.914 79.192 -129.827 78.384 -129.738 77.551 C-129.098 72.679 -128.559 68.898 -125.938 64.688 C-121.696 62.251 -118.638 63.04 -114 64 C-87.388 69.434 -60.082 62.094 -37.78 47.431 C-32.41 43.746 -27.667 39.523 -23 35 C-22.401 34.474 -21.801 33.948 -21.184 33.406 C-11.432 24.537 -4.98 12.005 0 0 Z " fill="#F1CB8E" transform="translate(304,94)"/>
<path d="M0 0 C10.428 1.87 10.428 1.87 15.258 2.852 C15.896 2.979 15.896 2.979 19.125 3.625 C19.766 3.755 19.766 3.755 23.008 4.414 C31.542 5.838 39.442 4.596 47.875 3 C49.914 2.623 51.953 2.248 53.992 1.875 C54.883 1.707 55.773 1.54 56.691 1.367 C59 1 59 1 62 1 C62.25 9.935 61.544 18.529 60.312 27.375 C60.164 28.606 60.015 29.837 59.861 31.105 C58.925 37.886 58.29 42.45 53 47 C49.992 48.863 49.992 48.863 46.875 50.312 C46.358 50.558 46.358 50.558 43.742 51.801 C37.014 54.743 29.572 55.214 22.426 53.316 C20.153 52.361 18.106 51.281 16 50 C15.651 49.794 15.651 49.794 13.883 48.75 C6.465 43.823 2.422 36.436 0 28 C-0.227 24.749 -0.227 24.749 -0.195 21.289 C-0.189 20.045 -0.182 18.801 -0.176 17.52 C-0.159 16.234 -0.142 14.949 -0.125 13.625 C-0.116 12.317 -0.107 11.008 -0.098 9.66 C-0.074 6.44 -0.041 3.22 0 0 Z " fill="#F1EEDC" transform="translate(224,298)"/>
<path d="M0 0 C20.79 0 41.58 0 63 0 C64.274 3.821 64.124 7.407 64.098 11.387 C64.097 12.111 64.096 12.835 64.095 13.582 C64.089 16.284 64.075 18.986 64.062 21.688 C64.042 27.731 64.021 33.774 64 40 C42.88 40 21.76 40 0 40 C0 26.8 0 13.6 0 0 Z " fill="#80B199" transform="translate(384,448)"/>
<path d="M0 0 C20.79 0 41.58 0 63 0 C63 13.2 63 26.4 63 40 C41.88 40 20.76 40 -1 40 C-1.021 33.957 -1.041 27.914 -1.062 21.688 C-1.072 19.783 -1.081 17.879 -1.09 15.917 C-1.093 14.407 -1.096 12.897 -1.098 11.387 C-1.103 10.603 -1.108 9.82 -1.113 9.012 C-1.114 5.744 -1.041 3.123 0 0 Z " fill="#80B199" transform="translate(65,448)"/>
</svg>
