<?xml version="1.0" encoding="UTF-8"?>
<!-- Generator: visioncortex VTracer 0.6.12 -->
<svg version="1.1" xmlns="http://www.w3.org/2000/svg" width="512" height="512">
<path d="M0 0 C0.664 0.322 1.327 0.645 2.011 0.977 C11.702 5.743 20.42 11.461 29 18 C29.887 18.661 30.774 19.323 31.688 20.004 C69.542 49.491 92.828 92.557 99.533 139.75 C100.049 143.981 100.177 148.166 100.203 152.426 C100.21 153.207 100.217 153.988 100.225 154.792 C100.452 187.286 100.452 187.286 97 201 C96.901 201.408 96.901 201.408 96.398 203.472 C84.259 252.153 55 292.932 12 319 C-28.547 342.997 -77.704 350.466 -123.569 339.307 C-127.411 338.302 -131.209 337.179 -135 336 C-135.706 335.785 -136.413 335.57 -137.141 335.349 C-158.834 328.63 -178.467 317.349 -196 303 C-198.905 304.314 -200.967 305.721 -203.208 307.981 C-203.808 308.581 -204.409 309.182 -205.027 309.801 C-205.663 310.446 -206.298 311.092 -206.953 311.758 C-207.613 312.421 -208.274 313.084 -208.954 313.767 C-211.057 315.882 -213.154 318.003 -215.25 320.125 C-216.677 321.562 -218.104 322.998 -219.531 324.434 C-223.026 327.951 -226.515 331.474 -230 335 C-228.382 338.436 -226.607 340.569 -223.832 343.188 C-223.022 343.969 -222.212 344.75 -221.377 345.555 C-219.661 347.191 -217.94 348.821 -216.213 350.445 C-215.407 351.226 -214.6 352.008 -213.77 352.812 C-213.023 353.52 -212.276 354.228 -211.507 354.957 C-210 357 -210 357 -210.111 358.808 C-211.376 361.927 -213.348 363.729 -215.723 366.11 C-215.971 366.361 -215.971 366.361 -217.226 367.63 C-218.892 369.31 -220.569 370.98 -222.246 372.65 C-223.442 373.852 -224.638 375.055 -225.833 376.258 C-229.085 379.528 -232.346 382.787 -235.609 386.045 C-238.335 388.768 -241.057 391.496 -243.778 394.223 C-250.205 400.664 -256.639 407.096 -263.077 413.523 C-269.708 420.143 -276.326 426.775 -282.938 433.414 C-288.621 439.119 -294.312 444.816 -300.009 450.507 C-303.408 453.903 -306.805 457.302 -310.194 460.709 C-313.387 463.917 -316.59 467.116 -319.8 470.307 C-320.971 471.475 -322.14 472.646 -323.304 473.821 C-335.377 485.995 -347.383 494.318 -365 494.5 C-372.66 494.421 -379.129 493.616 -386 490 C-386.846 489.587 -387.691 489.175 -388.562 488.75 C-400.084 482.568 -406.44 473.019 -411 461 C-414.576 448.68 -412.526 434.962 -406.877 423.777 C-402.467 415.832 -396.38 409.807 -390 403.466 C-388.783 402.242 -387.567 401.017 -386.351 399.792 C-383.072 396.49 -379.78 393.2 -376.484 389.914 C-373.731 387.166 -370.985 384.412 -368.238 381.658 C-361.764 375.167 -355.28 368.686 -348.789 362.212 C-342.089 355.53 -335.406 348.831 -328.731 342.123 C-322.994 336.36 -317.247 330.606 -311.492 324.859 C-308.057 321.429 -304.626 317.996 -301.204 314.553 C-297.992 311.323 -294.769 308.106 -291.536 304.898 C-290.35 303.716 -289.168 302.531 -287.991 301.341 C-286.388 299.722 -284.77 298.119 -283.148 296.52 C-282.245 295.618 -281.342 294.715 -280.412 293.786 C-278 292 -278 292 -275.816 292.101 C-273.201 293.395 -271.492 295.173 -269.453 297.254 C-268.609 298.108 -267.764 298.962 -266.895 299.842 C-266.022 300.74 -265.149 301.637 -264.25 302.562 C-263.362 303.464 -262.474 304.366 -261.559 305.295 C-259.366 307.523 -257.18 309.759 -255 312 C-252.095 310.686 -250.033 309.279 -247.792 307.019 C-247.192 306.419 -246.591 305.818 -245.973 305.199 C-245.337 304.554 -244.702 303.908 -244.047 303.242 C-243.387 302.579 -242.726 301.916 -242.046 301.233 C-239.943 299.118 -237.846 296.997 -235.75 294.875 C-234.323 293.438 -232.896 292.002 -231.469 290.566 C-227.974 287.049 -224.485 283.526 -221 280 C-222.348 277.249 -223.77 274.791 -225.574 272.312 C-226.073 271.621 -226.572 270.929 -227.086 270.216 C-227.615 269.485 -228.143 268.754 -228.688 268 C-257.458 227.465 -267.4 178.661 -259.496 129.792 C-251.326 83.804 -224.365 41.996 -186.439 14.96 C-165.789 0.544 -143.537 -9.279 -119 -15 C-118.668 -15.082 -118.668 -15.082 -116.987 -15.496 C-78.427 -24.631 -35.09 -17.156 0 0 Z " fill="#2E4772" transform="translate(412,18)"/>
<path d="M0 0 C0.835 0.7 1.671 1.4 2.531 2.121 C27.816 24.011 44.362 57.332 46.846 90.594 C48.436 115.469 44.628 138.372 34 161 C33.676 161.693 33.353 162.386 33.019 163.1 C26.5 176.765 17.338 187.995 7 199 C6.475 199.589 5.951 200.178 5.41 200.785 C-15.328 223.106 -48.628 236.462 -78.58 238.209 C-92.853 238.581 -107.151 238.816 -121 235 C-121.803 234.78 -122.606 234.559 -123.433 234.332 C-157.449 224.639 -186.637 203.446 -205 173 C-205.364 172.411 -205.728 171.822 -206.103 171.215 C-223.829 142.115 -229.157 105.304 -221.5 72.188 C-212.592 36.866 -190.897 5.488 -159.524 -13.499 C-107.947 -43.251 -45.667 -38.658 0 0 Z " fill="#D5E7FC" transform="translate(420,78)"/>
<path d="M0 0 C0.323 0.267 0.323 0.267 1.957 1.617 C3.31 2.739 4.656 3.868 6 5 C4.214 17.611 -16.581 31.768 -25.519 40.704 C-28.083 43.268 -30.64 45.839 -33.195 48.411 C-35.174 50.401 -37.158 52.387 -39.143 54.371 C-40.547 55.778 -41.947 57.188 -43.347 58.599 C-44.192 59.441 -45.038 60.284 -45.908 61.151 C-46.652 61.897 -47.397 62.642 -48.163 63.41 C-50 65 -50 65 -52 65 C-52.206 65.536 -52.413 66.072 -52.625 66.625 C-54.533 69.92 -57.048 72.594 -60 75 C-60.66 75 -61.32 75 -62 75 C-62.129 75.291 -62.129 75.291 -62.781 76.766 C-64.098 79.18 -65.551 80.817 -67.5 82.75 C-68.108 83.364 -68.717 83.977 -69.344 84.609 C-71 86 -71 86 -73 86 C-73.221 86.543 -73.441 87.086 -73.668 87.645 C-75.433 90.767 -77.802 93.146 -80.305 95.676 C-80.825 96.205 -81.345 96.735 -81.882 97.28 C-82.98 98.393 -84.081 99.503 -85.185 100.611 C-86.875 102.312 -88.545 104.031 -90.215 105.752 C-91.285 106.832 -92.357 107.911 -93.43 108.988 C-93.928 109.506 -94.426 110.023 -94.939 110.557 C-98.416 113.989 -98.416 113.989 -101.105 114.038 C-103.434 112.762 -105.034 111.304 -106.891 109.402 C-107.6 108.684 -108.309 107.965 -109.039 107.225 C-109.769 106.47 -110.498 105.715 -111.25 104.938 C-111.995 104.179 -112.74 103.42 -113.508 102.639 C-115.345 100.766 -117.176 98.886 -119 97 C-122.363 98.457 -124.545 100.311 -127.109 102.914 C-127.863 103.675 -128.618 104.435 -129.395 105.219 C-130.172 106.013 -130.949 106.807 -131.75 107.625 C-132.543 108.427 -133.336 109.229 -134.152 110.055 C-136.106 112.032 -138.055 114.014 -140 116 C-135.813 121.058 -131.434 125.618 -126.529 129.992 C-125.098 131.352 -125.098 131.352 -123 134 C-123.121 138.778 -125.716 141.277 -128.959 144.445 C-129.475 144.965 -129.991 145.484 -130.522 146.019 C-132.226 147.731 -133.945 149.428 -135.664 151.125 C-136.857 152.316 -138.05 153.507 -139.242 154.7 C-141.742 157.197 -144.25 159.688 -146.762 162.174 C-149.97 165.348 -153.165 168.535 -156.355 171.726 C-158.818 174.189 -161.287 176.647 -163.757 179.102 C-164.936 180.275 -166.113 181.449 -167.29 182.624 C-168.943 184.272 -170.603 185.914 -172.264 187.555 C-172.503 187.794 -172.503 187.794 -173.713 189.007 C-177.227 192.455 -180.956 195.22 -185 198 C-207.763 177.766 -222.414 144.683 -224.204 114.574 C-226.042 74.471 -214.386 38.709 -187.195 8.879 C-137.157 -44.209 -54.974 -45.859 0 0 Z " fill="#ECF4FE" transform="translate(420,78)"/>
<path d="M0 0 C0.664 0.322 1.327 0.645 2.011 0.977 C18.735 9.202 34.138 20.507 47 34 C41.193 41.119 34.637 47.474 28.125 53.938 C26.948 55.11 25.771 56.282 24.594 57.455 C21.732 60.306 18.867 63.154 16 66 C12.095 64.156 8.956 61.651 5.625 58.938 C-23.681 35.633 -58.905 24.487 -96.429 28.243 C-101.03 28.864 -105.495 29.871 -110 31 C-111.235 31.278 -112.47 31.557 -113.742 31.844 C-148.388 40.199 -177.802 62.783 -196.449 92.887 C-214.401 122.935 -220.619 159.887 -212.391 194.113 C-205.819 218.344 -194.213 240.543 -176 258 C-180.875 263.906 -186.166 269.352 -191.577 274.763 C-193.068 276.256 -194.551 277.757 -196.033 279.258 C-196.992 280.219 -197.951 281.18 -198.91 282.141 C-199.767 283.002 -200.625 283.863 -201.508 284.751 C-203.884 286.896 -206.201 288.465 -209 290 C-219.15 280.526 -227.443 270.644 -235 259 C-235.322 258.515 -235.322 258.515 -236.949 256.062 C-261.412 216.83 -267.661 166.74 -257.969 122.004 C-246.441 73.263 -216.105 33.027 -173.862 6.666 C-156.888 -3.644 -138.307 -10.498 -119 -15 C-118.668 -15.082 -118.668 -15.082 -116.987 -15.496 C-78.427 -24.631 -35.09 -17.156 0 0 Z " fill="#475F8A" transform="translate(412,18)"/>
<path d="M0 0 C2.596 1.283 4.301 3.03 6.334 5.088 C7.192 5.951 8.05 6.814 8.934 7.703 C9.822 8.612 10.711 9.522 11.627 10.459 C12.504 11.341 13.381 12.224 14.285 13.133 C18.743 17.644 23.044 22.234 27.181 27.04 C29.91 30.141 32.821 33.051 35.752 35.959 C36.368 36.573 36.984 37.188 37.619 37.82 C40.586 40.759 43.564 43.635 46.752 46.334 C50.924 49.954 54.915 53.736 58.877 57.584 C59.57 58.239 60.263 58.893 60.976 59.568 C61.615 60.196 62.254 60.824 62.912 61.471 C63.495 62.034 64.078 62.596 64.678 63.176 C65.814 64.896 65.814 64.896 65.681 66.685 C64.448 69.833 62.477 71.615 60.092 74.007 C59.596 74.508 59.1 75.01 58.589 75.526 C56.922 77.207 55.246 78.876 53.569 80.546 C52.372 81.748 51.177 82.951 49.981 84.154 C46.73 87.424 43.469 90.684 40.205 93.942 C37.479 96.665 34.758 99.392 32.036 102.12 C25.61 108.56 19.176 114.992 12.737 121.42 C6.106 128.039 -0.512 134.671 -7.124 141.31 C-12.807 147.015 -18.497 152.712 -24.194 158.404 C-27.594 161.8 -30.991 165.199 -34.38 168.605 C-37.573 171.814 -40.775 175.012 -43.985 178.204 C-45.157 179.371 -46.325 180.543 -47.49 181.718 C-59.562 193.891 -71.568 202.215 -89.186 202.396 C-96.845 202.317 -103.315 201.513 -110.186 197.896 C-110.608 197.69 -110.608 197.69 -112.748 196.646 C-124.27 190.464 -130.625 180.916 -135.186 168.896 C-138.762 156.577 -136.711 142.858 -131.063 131.673 C-126.653 123.728 -120.565 117.704 -114.185 111.362 C-112.968 110.139 -111.752 108.914 -110.537 107.688 C-107.257 104.386 -103.965 101.097 -100.67 97.81 C-97.917 95.063 -95.17 92.309 -92.424 89.555 C-85.949 83.064 -79.465 76.583 -72.974 70.109 C-66.275 63.426 -59.592 56.727 -52.917 50.02 C-47.179 44.256 -41.433 38.502 -35.678 32.756 C-32.243 29.326 -28.812 25.892 -25.389 22.449 C-22.178 19.22 -18.955 16.002 -15.722 12.794 C-14.536 11.613 -13.354 10.427 -12.176 9.237 C-10.573 7.618 -8.956 6.016 -7.334 4.416 C-6.431 3.514 -5.528 2.612 -4.598 1.682 C-2.186 -0.104 -2.186 -0.104 0 0 Z " fill="#FF874C" transform="translate(136.1855754852295,310.10359477996826)"/>
<path d="M0 0 C2.953 1.33 5.024 2.778 7.3 5.073 C7.61 5.383 7.61 5.383 9.18 6.953 C9.837 7.621 10.495 8.289 11.172 8.977 C11.513 9.319 11.513 9.319 13.24 11.053 C15.415 13.239 17.582 15.432 19.75 17.625 C21.225 19.11 22.7 20.594 24.176 22.078 C27.789 25.714 31.396 29.355 35 33 C30.145 38.839 24.933 44.228 19.573 49.604 C18.633 50.551 17.692 51.497 16.752 52.445 C13.687 55.53 10.617 58.611 7.547 61.691 C6.484 62.758 5.421 63.825 4.358 64.892 C-0.634 69.904 -5.63 74.914 -10.628 79.92 C-16.374 85.676 -22.112 91.441 -27.843 97.212 C-32.291 101.69 -36.746 106.16 -41.207 110.624 C-43.864 113.283 -46.517 115.945 -49.162 118.616 C-51.652 121.129 -54.151 123.632 -56.658 126.128 C-58.001 127.471 -59.334 128.823 -60.667 130.175 C-71.637 141.053 -83.448 147.34 -99 147.5 C-106.646 147.421 -113.15 146.637 -120 143 C-120.915 142.518 -121.83 142.036 -122.773 141.539 C-127.123 139.084 -130.072 137.069 -133 133 C-132.277 132.348 -131.554 131.696 -130.81 131.024 C-123.213 124.136 -115.881 117.025 -108.638 109.767 C-107.456 108.587 -106.273 107.406 -105.091 106.225 C-101.92 103.059 -98.752 99.889 -95.585 96.719 C-92.258 93.39 -88.929 90.063 -85.601 86.736 C-80.025 81.163 -74.452 75.587 -68.88 70.01 C-62.436 63.561 -55.988 57.114 -49.538 50.67 C-43.987 45.123 -38.438 39.575 -32.89 34.025 C-29.582 30.715 -26.273 27.406 -22.962 24.099 C-19.86 20.999 -16.76 17.897 -13.662 14.793 C-12.523 13.653 -11.383 12.514 -10.243 11.375 C-8.691 9.827 -7.143 8.275 -5.595 6.722 C-4.727 5.853 -3.858 4.985 -2.964 4.089 C-1 2 -1 2 0 0 Z " fill="#FF4D4D" transform="translate(146,365)"/>
<path d="M0 0 C3.466 1.487 5.69 3.457 8.328 6.133 C9.127 6.938 9.927 7.744 10.75 8.574 C11.575 9.416 12.4 10.258 13.25 11.125 C14.09 11.974 14.931 12.824 15.797 13.699 C17.869 15.795 19.937 17.895 22 20 C18.015 24.776 13.855 29.286 9.444 33.67 C8.819 34.295 8.194 34.92 7.55 35.564 C5.507 37.606 3.46 39.645 1.414 41.684 C-0.012 43.108 -1.439 44.533 -2.865 45.958 C-6.601 49.691 -10.34 53.42 -14.08 57.149 C-17.903 60.961 -21.723 64.777 -25.543 68.592 C-33.026 76.064 -40.512 83.533 -48 91 C-51.744 87.833 -55.452 84.674 -58.916 81.198 C-59.596 80.518 -60.276 79.837 -60.977 79.136 C-61.684 78.424 -62.392 77.711 -63.121 76.977 C-63.493 76.603 -63.493 76.603 -65.378 74.715 C-67.734 72.354 -70.086 69.99 -72.438 67.625 C-74.043 66.014 -75.65 64.403 -77.256 62.793 C-81.173 58.865 -85.088 54.933 -89 51 C-85.882 47.315 -82.783 43.653 -79.352 40.254 C-78.739 39.645 -78.127 39.036 -77.496 38.408 C-76.879 37.799 -76.261 37.19 -75.625 36.562 C-74.984 35.926 -74.344 35.29 -73.684 34.635 C-72.125 33.087 -70.563 31.543 -69 30 C-65.834 31.389 -63.819 32.99 -61.469 35.512 C-60.823 36.187 -60.177 36.861 -59.512 37.557 C-58.165 38.983 -56.824 40.416 -55.488 41.854 C-54.842 42.524 -54.197 43.195 -53.531 43.887 C-52.949 44.508 -52.367 45.129 -51.768 45.768 C-50 47 -50 47 -48.121 47.018 C-45.035 45.537 -42.886 43.253 -40.535 40.828 C-40.278 40.568 -40.278 40.568 -38.974 39.254 C-37.33 37.593 -35.696 35.922 -34.062 34.25 C-32.967 33.14 -31.872 32.031 -30.775 30.922 C-28.748 28.87 -26.726 26.815 -24.707 24.755 C-22.901 22.917 -21.084 21.088 -19.259 19.268 C-17.287 17.288 -15.478 15.267 -13.688 13.125 C-10.61 9.562 -7.293 6.481 -3.699 3.445 C-2 2 -2 2 0 0 Z " fill="#00CC71" transform="translate(368,144)"/>
<path d="M0 0 C2.694 1.327 4.424 3.047 6.536 5.185 C6.965 5.616 6.965 5.616 9.135 7.8 C9.58 8.255 9.58 8.255 11.829 10.556 C12.706 11.438 13.583 12.32 14.487 13.229 C18.945 17.741 23.246 22.33 27.383 27.137 C30.112 30.238 33.023 33.148 35.954 36.056 C36.57 36.67 37.186 37.284 37.821 37.917 C40.788 40.855 43.765 43.732 46.954 46.431 C51.126 50.05 55.117 53.832 59.079 57.681 C59.772 58.335 60.464 58.99 61.178 59.665 C61.817 60.293 62.456 60.921 63.114 61.567 C63.697 62.13 64.279 62.693 64.88 63.273 C66.016 64.993 66.016 64.993 65.964 66.923 C64.689 69.709 62.95 71.396 60.762 73.54 C59.908 74.384 59.054 75.229 58.175 76.099 C57.277 76.971 56.379 77.844 55.454 78.743 C54.552 79.631 53.65 80.519 52.721 81.435 C50.493 83.628 48.258 85.813 46.016 87.993 C41.721 86.337 38.855 83.098 35.687 79.891 C35.062 79.267 34.438 78.642 33.794 77.999 C31.733 75.936 29.679 73.867 27.626 71.798 C26.197 70.365 24.768 68.933 23.338 67.502 C19.579 63.735 15.826 59.962 12.074 56.188 C8.243 52.337 4.407 48.491 0.571 44.646 C-6.953 37.1 -14.47 29.549 -21.984 21.993 C-19.418 16.589 -15.291 12.893 -11.109 8.681 C-10.293 7.832 -9.477 6.983 -8.636 6.108 C-7.846 5.311 -7.056 4.514 -6.241 3.692 C-5.521 2.959 -4.801 2.225 -4.058 1.469 C-1.984 -0.007 -1.984 -0.007 0 0 Z " fill="#FEDD40" transform="translate(135.983642578125,310.0068359375)"/>
<path d="M0 0 C3.849 3.25 7.633 6.507 11.184 10.086 C11.533 10.437 11.533 10.437 13.303 12.215 C14.007 12.928 14.712 13.641 15.438 14.375 C15.803 14.743 15.803 14.743 17.654 16.605 C19.439 18.401 21.22 20.2 23 22 C18.973 26.833 14.756 31.381 10.289 35.809 C9.676 36.42 9.063 37.032 8.431 37.662 C6.498 39.589 4.562 41.514 2.625 43.438 C1.303 44.754 -0.018 46.071 -1.34 47.389 C-4.557 50.595 -7.778 53.798 -11 57 C-14.568 55.486 -16.837 53.395 -19.547 50.648 C-20.391 49.798 -21.236 48.947 -22.105 48.07 C-22.978 47.181 -23.851 46.291 -24.75 45.375 C-25.194 44.926 -25.194 44.926 -27.441 42.656 C-29.632 40.442 -31.818 38.223 -34 36 C-32.654 33.001 -31.165 30.919 -28.835 28.608 C-28.515 28.288 -28.515 28.288 -26.895 26.668 C-26.205 25.989 -25.515 25.309 -24.805 24.609 C-24.097 23.905 -23.39 23.2 -22.661 22.474 C-20.404 20.228 -18.139 17.989 -15.875 15.75 C-14.342 14.227 -12.809 12.704 -11.277 11.18 C-7.523 7.448 -3.764 3.722 0 0 Z " fill="#2E4770" transform="translate(192,297)"/>
<path d="M0 0 C6.896 5.845 13.507 11.955 20.068 18.172 C21.333 19.369 22.601 20.561 23.874 21.75 C25.595 23.362 27.3 24.99 29 26.625 C29.522 27.109 30.045 27.593 30.583 28.092 C32 29.477 32 29.477 34 32 C33.77 35.947 31.466 37.881 28.746 40.547 C28.319 40.969 28.319 40.969 26.158 43.105 C25.26 43.978 24.363 44.851 23.438 45.75 C22.536 46.638 21.634 47.526 20.705 48.441 C18.477 50.634 16.241 52.82 14 55 C11.047 53.67 8.976 52.222 6.7 49.927 C6.08 49.307 5.46 48.686 4.82 48.047 C4.163 47.379 3.505 46.711 2.828 46.023 C2.487 45.681 2.487 45.681 0.76 43.947 C-1.415 41.761 -3.582 39.568 -5.75 37.375 C-7.225 35.89 -8.7 34.406 -10.176 32.922 C-13.789 29.286 -17.396 25.645 -21 22 C-18.096 19.093 -15.187 16.191 -12.266 13.301 C-10.927 11.971 -9.588 10.642 -8.25 9.312 C-7.566 8.636 -6.881 7.96 -6.176 7.264 C-5.525 6.616 -4.874 5.968 -4.203 5.301 C-3.612 4.715 -3.02 4.129 -2.411 3.525 C-1 2 -1 2 0 0 Z " fill="#FEBC40" transform="translate(168,343)"/>
<path d="M0 0 C3.118 1.383 5.217 2.979 7.602 5.406 C8.256 6.068 8.911 6.729 9.586 7.41 C9.922 7.755 9.922 7.755 11.625 9.5 C12.306 10.19 12.986 10.879 13.688 11.59 C14.947 12.867 16.205 14.146 17.459 15.428 C18.633 16.625 19.815 17.815 21 19 C14.07 25.93 7.14 32.86 0 40 C-7.875 33.25 -7.875 33.25 -10.527 30.57 C-11.091 30.003 -11.655 29.436 -12.236 28.852 C-12.798 28.282 -13.359 27.712 -13.938 27.125 C-14.232 26.829 -14.232 26.829 -15.721 25.328 C-17.149 23.888 -18.575 22.444 -20 21 C-15.762 15.934 -11.326 11.2 -6.625 6.562 C-5.984 5.926 -5.344 5.29 -4.684 4.635 C-3.125 3.087 -1.563 1.543 0 0 Z " fill="#53E260" transform="translate(299,174)"/>
<path d="M0 0 C3.411 1.605 5.618 3.405 8.25 6.125 C8.956 6.849 9.663 7.574 10.391 8.32 C10.922 8.875 11.453 9.429 12 10 C7.973 14.833 3.756 19.381 -0.711 23.809 C-1.324 24.42 -1.937 25.032 -2.569 25.662 C-4.502 27.589 -6.438 29.514 -8.375 31.438 C-9.697 32.754 -11.018 34.071 -12.34 35.389 C-15.557 38.595 -18.778 41.798 -22 45 C-25.075 43.525 -27.348 42.002 -29.812 39.625 C-30.125 39.332 -30.125 39.332 -31.707 37.852 C-33 36 -33 36 -32.771 34.096 C-31.869 31.645 -30.803 30.44 -28.949 28.608 C-28.308 27.968 -27.668 27.328 -27.008 26.668 C-26.313 25.989 -25.618 25.309 -24.902 24.609 C-24.193 23.905 -23.485 23.2 -22.754 22.474 C-20.489 20.226 -18.213 17.988 -15.938 15.75 C-14.4 14.227 -12.863 12.704 -11.326 11.18 C-7.559 7.445 -3.783 3.719 0 0 Z " fill="#142D57" transform="translate(203,309)"/>
</svg>
