<?xml version="1.0" encoding="UTF-8"?>
<!-- Generator: visioncortex VTracer 0.6.12 -->
<svg version="1.1" xmlns="http://www.w3.org/2000/svg" width="512" height="512">
<path d="M0 0 C21.261 18.843 33.17 42.086 36.473 70.191 C36.746 75.189 36.777 80.175 36.773 85.18 C36.777 86.577 36.782 87.974 36.786 89.371 C36.794 92.273 36.794 95.175 36.788 98.076 C36.783 101.776 36.8 105.475 36.823 109.174 C36.837 112.049 36.838 114.924 36.835 117.799 C36.836 119.82 36.85 121.84 36.864 123.861 C36.825 131.55 36.736 138.273 31.605 144.434 C26.339 148.717 22.514 151.594 15.473 151.191 C15.516 152.464 15.56 153.736 15.605 155.047 C15.599 160.406 14.62 165.316 13.348 170.504 C13.122 171.426 12.896 172.348 12.663 173.298 C7.049 195.131 -8.209 208.447 -26.91 219.793 C-29.527 221.191 -29.527 221.191 -31.527 221.191 C-31.527 227.791 -31.527 234.391 -31.527 241.191 C-29.703 241.157 -27.879 241.122 -26 241.086 C7.503 240.629 41.396 247.72 66.32 271.961 C70.481 274.905 73.393 274.774 78.348 274.691 C89.433 274.931 89.433 274.931 94.059 278.617 C98.39 283.44 100.038 288.283 99.84 294.73 C99.413 297.589 98.479 300.087 97.535 302.816 C96.099 308.262 96.843 310.84 99.449 315.773 C104.209 325.268 107.438 335.194 110.785 345.254 C111.466 347.278 112.147 349.302 112.828 351.325 C114.662 356.776 116.483 362.231 118.303 367.686 C119.936 372.578 121.575 377.468 123.214 382.359 C125.283 388.531 127.347 394.705 129.41 400.879 C129.809 402.071 130.207 403.264 130.618 404.493 C131.747 407.875 132.874 411.258 134 414.641 C134.338 415.652 134.676 416.663 135.024 417.705 C135.333 418.636 135.642 419.567 135.961 420.526 C136.23 421.335 136.499 422.143 136.777 422.977 C139.763 432.48 139.857 443.396 135.914 452.629 C130.43 462.378 122.331 468.441 111.676 471.749 C108.918 472.303 106.329 472.321 103.514 472.326 C102.287 472.33 101.059 472.335 99.795 472.339 C98.431 472.339 97.066 472.339 95.702 472.339 C94.255 472.342 92.807 472.346 91.36 472.35 C87.377 472.36 83.394 472.363 79.411 472.366 C75.117 472.37 70.823 472.38 66.529 472.388 C56.156 472.408 45.783 472.418 35.41 472.427 C30.524 472.431 25.639 472.437 20.753 472.442 C4.512 472.459 -11.73 472.474 -27.971 472.481 C-32.186 472.483 -36.401 472.485 -40.615 472.487 C-41.139 472.487 -41.139 472.487 -43.79 472.488 C-60.757 472.496 -77.724 472.522 -94.691 472.554 C-112.112 472.587 -129.534 472.605 -146.955 472.608 C-156.736 472.611 -166.517 472.619 -176.298 472.645 C-184.628 472.667 -192.958 472.675 -201.289 472.665 C-205.537 472.66 -209.785 472.662 -214.034 472.682 C-217.928 472.699 -221.822 472.698 -225.717 472.683 C-227.121 472.68 -228.524 472.685 -229.928 472.697 C-241.978 472.792 -252.477 470.786 -261.523 462.324 C-269.186 454.423 -271.953 446.503 -271.991 435.544 C-271.745 426.681 -268.608 418.606 -265.715 410.316 C-265.093 408.482 -264.473 406.647 -263.855 404.811 C-262.504 400.804 -261.14 396.801 -259.771 392.799 C-257.546 386.277 -255.389 379.733 -253.243 373.185 C-251.985 369.35 -250.722 365.516 -249.459 361.683 C-248.43 358.558 -247.403 355.433 -246.379 352.306 C-241.996 338.955 -237.426 325.951 -231.527 313.191 C-229.665 308.989 -229.399 307.337 -230.902 302.941 C-232.909 296.237 -233.804 290.544 -231.027 283.941 C-228.392 279.451 -225.557 276.746 -220.527 275.191 C-217.592 274.958 -214.659 274.963 -211.715 274.941 C-203.903 274.821 -200.109 273.333 -194.344 267.797 C-182.396 256.744 -166.231 250.039 -150.84 245.379 C-150.2 245.184 -149.56 244.989 -148.901 244.788 C-137.612 241.58 -126.398 240.907 -114.715 241.066 C-114.076 241.071 -114.076 241.071 -110.846 241.094 C-107.739 241.117 -104.633 241.153 -101.527 241.191 C-101.527 234.591 -101.527 227.991 -101.527 221.191 C-103.177 220.531 -104.827 219.871 -106.527 219.191 C-125.598 208.352 -139.416 195.309 -145.492 174.031 C-147.602 166.205 -148.789 159.31 -148.527 151.191 C-149.724 151.109 -150.92 151.026 -152.152 150.941 C-157.842 150.209 -161.53 147.493 -165.277 143.254 C-168.795 138.465 -169.777 134.861 -169.802 128.943 C-169.812 127.7 -169.821 126.457 -169.831 125.176 C-169.831 123.823 -169.83 122.47 -169.828 121.117 C-169.832 119.71 -169.836 118.303 -169.841 116.896 C-169.849 113.941 -169.848 110.987 -169.843 108.032 C-169.838 105.036 -169.845 102.041 -169.864 99.046 C-170.064 66.097 -166.756 35.498 -143.527 10.191 C-143.105 9.729 -143.105 9.729 -140.969 7.387 C-103.569 -31.804 -41.223 -34.252 0 0 Z " fill="#2D4056" transform="translate(322.52734375,31.80859375)"/>
<path d="M0 0 C21.261 18.843 33.17 42.086 36.473 70.191 C36.746 75.189 36.777 80.175 36.773 85.18 C36.777 86.577 36.782 87.974 36.786 89.371 C36.794 92.273 36.794 95.175 36.788 98.076 C36.783 101.776 36.8 105.475 36.823 109.174 C36.837 112.049 36.838 114.924 36.835 117.799 C36.836 119.82 36.85 121.84 36.864 123.861 C36.825 131.55 36.736 138.273 31.605 144.434 C26.339 148.717 22.514 151.594 15.473 151.191 C15.516 152.464 15.56 153.736 15.605 155.047 C15.599 160.406 14.62 165.316 13.348 170.504 C13.122 171.426 12.896 172.348 12.663 173.298 C7.049 195.131 -8.209 208.447 -26.91 219.793 C-29.527 221.191 -29.527 221.191 -31.527 221.191 C-31.527 227.791 -31.527 234.391 -31.527 241.191 C-29.703 241.157 -27.879 241.122 -26 241.086 C10.6 240.587 41.561 249.889 69.473 274.191 C69.473 274.521 69.473 274.851 69.473 275.191 C-20.287 275.191 -110.047 275.191 -202.527 275.191 C-182.814 255.478 -154.328 242.028 -126.162 241.078 C-125.026 241.083 -123.89 241.088 -122.719 241.094 C-121.478 241.097 -120.237 241.1 -118.959 241.104 C-118.321 241.108 -118.321 241.108 -115.09 241.129 C-114.438 241.131 -114.438 241.131 -111.139 241.143 C-107.935 241.154 -104.731 241.172 -101.527 241.191 C-101.527 234.591 -101.527 227.991 -101.527 221.191 C-103.177 220.531 -104.827 219.871 -106.527 219.191 C-125.598 208.352 -139.416 195.309 -145.492 174.031 C-147.602 166.205 -148.789 159.31 -148.527 151.191 C-149.724 151.109 -150.92 151.026 -152.152 150.941 C-157.842 150.209 -161.53 147.493 -165.277 143.254 C-168.795 138.465 -169.777 134.861 -169.802 128.943 C-169.807 128.321 -169.807 128.321 -169.831 125.176 C-169.831 123.823 -169.83 122.47 -169.828 121.117 C-169.832 119.71 -169.836 118.303 -169.841 116.896 C-169.849 113.941 -169.848 110.987 -169.843 108.032 C-169.838 105.036 -169.845 102.041 -169.864 99.046 C-170.064 66.097 -166.756 35.498 -143.527 10.191 C-142.683 9.266 -141.839 8.34 -140.969 7.387 C-103.569 -31.804 -41.223 -34.252 0 0 Z " fill="#A75C47" transform="translate(322.52734375,31.80859375)"/>
<path d="M0 0 C3.149 3.491 4.074 7.274 5.121 11.738 C5.214 12.117 5.214 12.117 5.685 14.035 C6.278 16.459 6.858 18.885 7.438 21.312 C8.014 23.691 8.593 26.068 9.172 28.445 C9.555 30.016 9.937 31.586 10.317 33.157 C12.096 40.471 14.034 47.735 16 55 C16.438 56.651 16.874 58.302 17.309 59.953 C17.402 60.309 17.402 60.309 17.875 62.107 C18.061 62.814 18.246 63.522 18.438 64.25 C18.863 65.87 19.289 67.49 19.715 69.109 C19.927 69.918 20.14 70.727 20.359 71.561 C21.198 74.752 22.037 77.943 22.877 81.135 C23.293 82.712 23.708 84.29 24.123 85.867 C25.174 89.864 26.227 93.86 27.285 97.855 C27.499 98.665 27.713 99.475 27.934 100.309 C28.33 101.808 28.727 103.306 29.125 104.805 C31.162 112.518 33.064 120.257 35 128 C119.48 128 203.96 128 291 128 C295.396 110.417 295.396 110.417 296.723 105.083 C297.457 102.134 298.192 99.185 298.927 96.236 C299.31 94.702 299.691 93.168 300.073 91.634 C302.619 81.395 305.258 71.188 308 61 C308.817 57.918 309.628 54.834 310.438 51.75 C310.863 50.13 311.289 48.51 311.715 46.891 C311.821 46.486 311.821 46.486 312.359 44.439 C313.405 40.459 314.453 36.48 315.5 32.5 C315.703 31.727 315.907 30.955 316.116 30.159 C317.207 26.013 318.298 21.868 319.391 17.723 C319.618 16.859 319.846 15.995 320.08 15.105 C320.516 13.45 320.952 11.796 321.389 10.141 C321.585 9.394 321.782 8.648 321.984 7.879 C322.157 7.225 322.329 6.571 322.507 5.897 C323.017 3.934 323.511 1.968 324 0 C324.66 0 325.32 0 326 0 C331.861 11.688 336.189 23.67 340.312 36.062 C340.993 38.087 341.674 40.11 342.356 42.134 C344.189 47.585 346.011 53.039 347.83 58.495 C349.463 63.387 351.103 68.277 352.742 73.167 C354.81 79.34 356.875 85.513 358.938 91.688 C359.137 92.284 359.137 92.284 360.145 95.301 C361.274 98.683 362.401 102.066 363.527 105.449 C363.865 106.461 364.203 107.472 364.551 108.514 C364.86 109.445 365.169 110.376 365.488 111.335 C365.757 112.143 366.027 112.952 366.304 113.785 C369.29 123.288 369.385 134.205 365.441 143.438 C359.957 153.187 351.859 159.249 341.204 162.558 C338.445 163.111 335.856 163.129 333.041 163.134 C331.814 163.139 330.587 163.143 329.322 163.148 C327.958 163.148 326.594 163.147 325.23 163.147 C323.782 163.15 322.335 163.154 320.887 163.158 C316.904 163.168 312.921 163.172 308.938 163.175 C304.644 163.179 300.35 163.188 296.056 163.197 C285.683 163.217 275.31 163.227 264.937 163.236 C260.052 163.24 255.166 163.245 250.281 163.251 C234.039 163.268 217.798 163.282 201.556 163.289 C197.341 163.291 193.127 163.293 188.912 163.295 C188.388 163.295 188.388 163.295 185.737 163.297 C168.77 163.305 151.804 163.33 134.837 163.363 C117.415 163.396 99.994 163.414 82.572 163.417 C72.791 163.419 63.01 163.428 53.23 163.453 C44.899 163.475 36.569 163.483 28.239 163.474 C23.99 163.469 19.742 163.471 15.494 163.49 C11.599 163.508 7.705 163.507 3.811 163.491 C2.407 163.489 1.003 163.493 -0.401 163.505 C-12.45 163.601 -22.95 161.595 -31.996 153.133 C-39.658 145.232 -42.425 137.311 -42.464 126.352 C-42.218 117.489 -39.08 109.414 -36.188 101.125 C-35.565 99.291 -34.946 97.456 -34.328 95.62 C-32.976 91.612 -31.613 87.609 -30.243 83.608 C-28.019 77.086 -25.862 70.542 -23.715 63.993 C-22.458 60.158 -21.194 56.325 -19.932 52.491 C-18.903 49.367 -17.875 46.241 -16.851 43.115 C-12.006 28.352 -7.063 13.876 0 0 Z " fill="#6E8F97" transform="translate(93,341)"/>
<path d="M0 0 C21.25 18.833 33.189 42.091 36.473 70.191 C36.715 74.993 36.708 79.779 36.668 84.586 C36.665 85.899 36.662 87.213 36.659 88.566 C36.652 92.01 36.632 95.454 36.61 98.898 C36.589 102.431 36.58 105.965 36.57 109.498 C36.549 116.396 36.515 123.294 36.473 130.191 C36.143 130.191 35.813 130.191 35.473 130.191 C35.435 129.907 35.435 129.907 35.246 128.469 C34.2 122.323 32.293 118.242 27.473 114.191 C23.709 111.937 19.752 110.996 15.473 110.191 C15.386 109.574 15.3 108.956 15.211 108.32 C13.628 98.778 10.171 91.76 2.562 85.625 C-3.268 81.625 -9.507 80.774 -16.387 79.711 C-31.72 77.174 -48.284 71.068 -60.742 61.488 C-63.134 59.751 -65.287 59.537 -68.203 59.645 C-72.204 60.586 -75.258 62.962 -78.617 65.254 C-91.504 73.833 -105.812 78.326 -120.98 80.584 C-129.554 81.986 -136.803 85.283 -142.246 92.238 C-145.947 97.88 -147.957 103.491 -148.527 110.191 C-148.812 110.229 -148.812 110.229 -150.25 110.418 C-156.375 111.461 -160.566 113.297 -164.527 118.191 C-166.134 121.106 -167.407 124.06 -168.527 127.191 C-168.857 127.191 -169.187 127.191 -169.527 127.191 C-169.604 119.403 -169.656 111.615 -169.692 103.827 C-169.705 101.185 -169.727 98.544 -169.754 95.902 C-170.063 63.885 -165.97 34.641 -143.527 10.191 C-142.683 9.266 -141.839 8.34 -140.969 7.387 C-103.569 -31.804 -41.223 -34.252 0 0 Z " fill="#542E29" transform="translate(322.52734375,31.80859375)"/>
<path d="M0 0 C0.66 0 1.32 0 2 0 C7.861 11.688 12.189 23.67 16.312 36.062 C16.993 38.087 17.674 40.11 18.356 42.134 C20.189 47.585 22.011 53.039 23.83 58.495 C25.463 63.387 27.103 68.277 28.742 73.167 C30.81 79.34 32.875 85.513 34.938 91.688 C35.336 92.88 35.735 94.073 36.145 95.301 C37.274 98.683 38.401 102.066 39.527 105.449 C39.865 106.461 40.203 107.472 40.551 108.514 C40.706 108.979 40.706 108.979 41.488 111.335 C41.757 112.143 42.027 112.952 42.304 113.785 C45.29 123.288 45.385 134.205 41.441 143.438 C35.979 153.148 27.788 159.452 17.072 162.559 C13.591 163.3 10.058 163.121 6.516 163.098 C6.108 163.097 6.108 163.097 4.044 163.093 C1.446 163.088 -1.152 163.075 -3.75 163.062 C-5.514 163.057 -7.279 163.053 -9.043 163.049 C-13.362 163.038 -17.681 163.021 -22 163 C-21.361 162.402 -20.721 161.804 -20.062 161.188 C-15.736 156.599 -16.705 150.513 -16.625 144.562 C-16.588 143.513 -16.55 142.463 -16.512 141.381 C-16.424 133.704 -16.424 133.704 -19.191 130.324 C-22.072 128.966 -24.146 128.419 -27.312 128.25 C-28.196 128.193 -29.079 128.137 -29.988 128.078 C-30.32 128.065 -30.32 128.065 -32 128 C-31.627 120.068 -29.728 112.715 -27.587 105.11 C-26.56 101.417 -25.595 97.708 -24.625 94 C-24.418 93.212 -24.211 92.424 -23.997 91.612 C-22.065 84.263 -20.149 76.91 -18.233 69.558 C-16.038 61.138 -13.827 52.724 -11.609 44.311 C-10.366 39.593 -9.125 34.875 -7.884 30.157 C-6.793 26.012 -5.702 21.867 -4.609 17.723 C-4.382 16.859 -4.154 15.995 -3.92 15.105 C-3.484 13.45 -3.048 11.796 -2.611 10.141 C-2.415 9.394 -2.218 8.648 -2.016 7.879 C-1.843 7.225 -1.671 6.571 -1.493 5.897 C-0.983 3.934 -0.489 1.968 0 0 Z " fill="#F8BF4E" transform="translate(417,341)"/>
<path d="M0 0 C3.149 3.491 4.074 7.274 5.121 11.738 C5.214 12.117 5.214 12.117 5.685 14.035 C6.278 16.459 6.858 18.885 7.438 21.312 C8.014 23.691 8.593 26.068 9.172 28.445 C9.555 30.016 9.937 31.586 10.317 33.157 C12.096 40.471 14.034 47.735 16 55 C16.438 56.651 16.874 58.302 17.309 59.953 C17.402 60.309 17.402 60.309 17.875 62.107 C18.061 62.814 18.246 63.522 18.438 64.25 C18.863 65.87 19.289 67.49 19.715 69.109 C19.927 69.918 20.14 70.727 20.359 71.561 C20.99 73.962 21.622 76.364 22.254 78.766 C22.46 79.548 22.666 80.33 22.878 81.136 C23.292 82.709 23.706 84.282 24.12 85.854 C25.192 89.924 26.26 93.994 27.32 98.066 C27.755 99.732 28.19 101.397 28.625 103.062 C28.833 103.86 29.041 104.658 29.255 105.479 C30.344 109.626 31.51 113.726 32.812 117.812 C33.898 121.296 34.29 124.322 34 128 C33.668 128.013 33.668 128.013 31.988 128.078 C31.105 128.135 30.222 128.192 29.312 128.25 C28.442 128.296 27.572 128.343 26.676 128.391 C22.921 129.246 21.474 129.979 19 133 C18.244 136.967 18.303 140.848 18.375 144.875 C18.356 145.951 18.336 147.028 18.316 148.137 C18.32 148.659 18.32 148.659 18.336 151.305 C18.342 152.253 18.347 153.202 18.353 154.179 C19.264 158.15 21.242 160.034 24 163 C18.932 163.1 13.865 163.172 8.796 163.22 C7.077 163.24 5.357 163.267 3.638 163.302 C-9.874 163.569 -21.584 162.873 -31.996 153.133 C-39.658 145.232 -42.425 137.311 -42.464 126.352 C-42.218 117.489 -39.08 109.414 -36.188 101.125 C-35.565 99.291 -34.946 97.456 -34.328 95.62 C-32.976 91.612 -31.613 87.609 -30.243 83.608 C-28.019 77.086 -25.862 70.542 -23.715 63.993 C-22.458 60.158 -21.194 56.325 -19.932 52.491 C-18.903 49.367 -17.875 46.241 -16.851 43.115 C-12.006 28.352 -7.063 13.876 0 0 Z " fill="#F8BF4E" transform="translate(93,341)"/>
<path d="M0 0 C39.104 -0.778 71.92 6.81 102 33 C102 33.33 102 33.66 102 34 C59.43 34 16.86 34 -27 34 C-24.121 32.08 -21.326 30.754 -18.188 29.312 C-9.377 24.913 -5.189 19.221 -2 10 C-1.596 8.243 -1.226 6.478 -0.891 4.707 C-0.721 3.821 -0.551 2.935 -0.376 2.023 C-0.252 1.355 -0.128 0.688 0 0 Z " fill="#F8BF4D" transform="translate(290,273)"/>
<path d="M0 0 C0.643 0.002 0.643 0.002 3.896 0.01 C5.234 0.018 6.572 0.027 7.91 0.035 C9.275 0.04 10.641 0.045 12.006 0.049 C15.328 0.061 18.65 0.077 21.973 0.098 C22.158 0.973 22.343 1.848 22.534 2.75 C22.789 3.908 23.043 5.065 23.305 6.258 C23.552 7.401 23.799 8.545 24.054 9.723 C26.413 18.387 31.229 24.633 38.973 29.098 C41.925 30.567 44.905 31.89 47.973 33.098 C47.973 33.428 47.973 33.758 47.973 34.098 C5.733 34.098 -36.507 34.098 -80.027 34.098 C-59.438 13.509 -29.422 -0.131 0 0 Z " fill="#F8BF4D" transform="translate(200.02734375,272.90234375)"/>
<path d="M0 0 C0.46 0.005 0.46 0.005 2.79 0.031 C13.352 0.359 21.448 3.513 29.133 10.863 C33.911 16.086 35.089 21.297 34.953 28.199 C34.135 35.481 29.712 39.936 24.492 44.703 C16.875 49.753 9.655 51.214 0.625 51.062 C0.161 51.07 0.161 51.07 -2.189 51.109 C-11.558 51.057 -20.23 47.657 -26.941 40.93 C-32.12 35.165 -33.918 30.198 -33.75 22.41 C-32.628 15.104 -27.469 10.168 -21.73 5.949 C-14.424 1.759 -8.471 -0.142 0 0 Z " fill="#E2F2F2" transform="translate(255.3125,375.4375)"/>
<path d="M0 0 C4.308 0.658 7.907 2.162 11.875 3.938 C26.692 10.564 40.615 11.076 55.773 5.379 C59.612 3.739 63.297 1.923 67 0 C67.99 0 68.98 0 70 0 C70.457 16.041 70.504 30.936 59.477 43.773 C52.566 50.415 43.743 53.288 34.312 53.562 C28.03 53.325 23.313 52.357 18 49 C17.304 48.576 16.608 48.152 15.891 47.715 C6.866 41.625 2.663 32.734 0.43 22.348 C-0.138 17.924 -0.106 13.579 -0.062 9.125 C-0.058 8.246 -0.053 7.367 -0.049 6.461 C-0.037 4.307 -0.019 2.154 0 0 Z " fill="#934C3B" transform="translate(221,254)"/>
</svg>
