<?xml version="1.0" encoding="UTF-8"?>
<!-- Generator: visioncortex VTracer 0.6.12 -->
<svg version="1.1" xmlns="http://www.w3.org/2000/svg" width="512" height="512">
<path d="M0 0 C1.542 1.33 3.063 2.685 4.562 4.062 C4.976 4.431 4.976 4.431 7.07 6.293 C22.703 20.946 32.952 42.071 33.945 63.488 C34.66 90.925 28.042 113.515 9.031 133.758 C6.909 135.9 4.754 137.992 2.562 140.062 C1.56 141.06 0.56 142.06 -0.438 143.062 C-0.039 144.286 0.359 145.509 0.77 146.77 C12.78 184.527 11.858 225.284 -6.438 261.062 C-16.973 279.89 -31.313 295.119 -46.562 310.188 C-48.839 312.437 -51.112 314.69 -53.383 316.945 C-53.887 317.441 -54.392 317.937 -54.911 318.449 C-57.665 321.184 -60.275 323.995 -62.81 326.935 C-66.529 331.228 -70.493 335.228 -74.531 339.219 C-74.906 339.592 -74.906 339.592 -76.805 341.481 C-79.98 344.64 -83.16 347.792 -86.34 350.945 C-88.677 353.263 -91.01 355.585 -93.344 357.906 C-94.051 358.605 -94.759 359.305 -95.488 360.025 C-99.474 363.992 -103.272 368.06 -106.932 372.331 C-108.976 374.682 -111.155 376.877 -113.375 379.062 C-114.147 379.826 -114.919 380.589 -115.715 381.375 C-115.999 381.653 -115.999 381.653 -117.438 383.062 C-111.079 382.457 -105.006 381.42 -98.785 379.996 C-96.937 379.588 -95.089 379.181 -93.24 378.775 C-90.382 378.143 -87.526 377.506 -84.673 376.853 C-66.647 372.744 -50.008 369.775 -33.062 378.875 C-27.132 383.817 -23.892 389.602 -23.102 397.359 C-22.964 409.531 -25.56 416.562 -33.633 425.641 C-41.586 432.508 -50.624 435.802 -60.531 438.898 C-61.905 439.338 -63.279 439.779 -64.653 440.222 C-68.318 441.398 -71.987 442.559 -75.658 443.717 C-79.495 444.93 -83.327 446.158 -87.159 447.384 C-93.336 449.358 -99.516 451.325 -105.697 453.286 C-113.444 455.744 -121.185 458.222 -128.922 460.711 C-139.006 463.954 -149.095 467.179 -159.189 470.391 C-162.58 471.47 -165.969 472.553 -169.357 473.641 C-178.36 476.53 -187.374 479.366 -196.438 482.062 C-197.305 482.325 -198.172 482.588 -199.065 482.858 C-208.649 485.685 -217.889 486.433 -227.875 486.562 C-228.934 486.581 -229.994 486.6 -231.085 486.62 C-252.436 486.448 -273.731 478.583 -294.157 472.947 C-298.423 471.772 -302.69 470.603 -306.958 469.433 C-312.985 467.78 -319.012 466.126 -325.039 464.469 C-334.93 461.749 -344.825 459.041 -354.723 456.344 C-355.379 456.165 -356.036 455.986 -356.712 455.802 C-359.862 454.943 -363.011 454.085 -366.161 453.228 C-371.812 451.688 -377.463 450.147 -383.113 448.605 C-384.946 448.106 -386.778 447.606 -388.611 447.106 C-389.873 446.762 -391.136 446.417 -392.438 446.062 C-392.829 446.97 -393.221 447.877 -393.625 448.812 C-395.605 452.362 -397.043 453.868 -400.438 456.062 C-403.739 456.57 -403.739 456.57 -407.535 456.58 C-407.883 456.584 -407.883 456.584 -409.641 456.601 C-411.928 456.619 -414.213 456.607 -416.5 456.594 C-418.095 456.596 -419.69 456.6 -421.285 456.605 C-424.624 456.611 -427.963 456.603 -431.302 456.584 C-435.576 456.561 -439.849 456.574 -444.123 456.598 C-447.416 456.613 -450.708 456.608 -454.001 456.598 C-455.576 456.595 -457.152 456.598 -458.728 456.608 C-460.932 456.618 -463.135 456.602 -465.34 456.58 C-466.593 456.577 -467.846 456.574 -469.136 456.57 C-473.02 455.973 -474.669 454.796 -477.438 452.062 C-478.755 449.427 -478.572 447.455 -478.585 444.503 C-478.592 443.321 -478.599 442.139 -478.606 440.921 C-478.609 439.618 -478.612 438.314 -478.615 436.971 C-478.621 435.59 -478.627 434.209 -478.634 432.827 C-478.652 429.069 -478.662 425.311 -478.671 421.552 C-478.676 419.205 -478.682 416.857 -478.688 414.51 C-478.707 407.167 -478.721 399.823 -478.73 392.48 C-478.74 384 -478.766 375.521 -478.806 367.041 C-478.836 360.489 -478.851 353.937 -478.855 347.385 C-478.857 343.471 -478.866 339.557 -478.891 335.643 C-478.914 331.96 -478.919 328.277 -478.908 324.594 C-478.907 322.599 -478.927 320.605 -478.946 318.61 C-478.939 317.42 -478.932 316.23 -478.925 315.003 C-478.928 313.971 -478.93 312.938 -478.932 311.874 C-478.304 308.303 -476.943 306.64 -474.438 304.062 C-470.254 302.16 -466.57 301.807 -462.008 301.788 C-460.753 301.778 -459.498 301.769 -458.205 301.759 C-456.848 301.759 -455.49 301.76 -454.133 301.762 C-452.726 301.758 -451.319 301.753 -449.911 301.749 C-446.968 301.741 -444.024 301.742 -441.081 301.747 C-437.326 301.753 -433.572 301.736 -429.817 301.712 C-426.912 301.698 -424.008 301.697 -421.103 301.7 C-419.719 301.699 -418.336 301.694 -416.952 301.684 C-402.302 301.59 -402.302 301.59 -396.438 305.062 C-395.778 306.382 -395.778 306.382 -392.438 313.062 C-382.868 311.413 -373.298 309.762 -363.438 308.062 C-364.727 306.804 -364.727 306.804 -371.25 300.438 C-400.214 271.689 -416.446 235.616 -416.812 194.562 C-416.604 171.195 -411.758 147.184 -399.438 127.062 C-396.438 125.062 -396.438 125.062 -393.59 125.336 C-390.438 125.062 -390.438 125.062 -387.629 122.352 C-386.725 121.151 -385.849 119.928 -385 118.688 C-384.55 118.05 -384.099 117.412 -383.635 116.755 C-381.097 112.89 -379.836 110.407 -380.75 105.688 C-380.928 104.899 -381.106 104.11 -381.289 103.297 C-381.492 100.248 -380.58 99.24 -378.625 96.938 C-377.268 95.605 -375.869 94.314 -374.438 93.062 C-374.068 92.734 -374.068 92.734 -372.199 91.07 C-348.454 71.095 -320.397 64.682 -289.874 67.281 C-284.98 67.874 -280.213 68.852 -275.438 70.062 C-274.791 70.223 -274.144 70.384 -273.478 70.55 C-257.32 74.727 -241.817 82.103 -228.438 92.062 C-227.627 92.663 -226.816 93.264 -225.98 93.883 C-218.359 99.768 -211.428 106.455 -204.438 113.062 C-200.069 109.979 -196.155 106.857 -192.5 102.938 C-179.767 89.942 -162.481 80.158 -145.438 74.062 C-145.412 73.093 -145.386 72.124 -145.359 71.125 C-144.833 57.202 -142.851 39.558 -134.02 28.246 C-132.438 27.062 -132.438 27.062 -128.688 26.938 C-125.71 26.686 -124.678 26.296 -122.5 24.18 C-120.724 21.86 -119.081 19.478 -117.438 17.062 C-116.613 16.196 -115.788 15.33 -114.938 14.438 C-113.438 12.062 -113.438 12.062 -114.062 8.688 C-114.503 4.43 -114.503 4.43 -112.375 1.625 C-83.738 -27.942 -30.385 -23.38 0 0 Z " fill="#020101" transform="translate(478.4375,21.9375)"/>
<path d="M0 0 C3.986 3.399 7.818 6.951 11.637 10.537 C12.801 11.629 13.966 12.72 15.133 13.81 C16.271 14.873 17.405 15.942 18.535 17.015 C22.331 20.569 24.868 22.915 30.125 23.125 C39.081 21.448 46.151 11.866 52.172 5.699 C56.438 1.628 61.113 -1.701 66 -5 C68.919 -2.283 70.91 0.267 72.77 3.789 C73.016 4.255 73.016 4.255 74.264 6.615 C74.775 7.609 75.286 8.602 75.812 9.625 C76.078 10.138 76.078 10.138 77.42 12.734 C90.268 37.992 97.715 65.669 98.438 94.062 C98.46 94.431 98.46 94.431 98.576 96.299 C98.69 101.958 97.053 105.083 93.74 109.596 C91.872 112.177 90.273 114.83 88.676 117.586 C88.399 118.061 88.399 118.061 86.998 120.465 C85.861 122.428 84.726 124.391 83.592 126.355 C83.042 127.298 82.492 128.24 81.926 129.211 C81.68 129.635 81.68 129.635 80.439 131.783 C79.117 133.819 77.787 135.371 76 137 C69.551 126.378 63.559 115.547 57.731 104.573 C51.745 93.309 45.532 82.185 39.182 71.121 C38 69 38 69 36.968 66.785 C36 65 36 65 34 64 C31.125 63.688 31.125 63.688 28 64 C24.649 66.809 22.662 69.991 20.531 73.777 C19.883 74.922 19.234 76.066 18.566 77.245 C17.878 78.476 17.189 79.707 16.5 80.938 C15.791 82.193 15.081 83.449 14.371 84.704 C12.936 87.242 11.504 89.781 10.074 92.322 C7.076 97.646 4.037 102.948 1 108.25 C0.021 109.963 -0.959 111.677 -1.938 113.391 C-2.625 114.594 -3.312 115.797 -4 117 C-4.66 117 -5.32 117 -6 117 C-7.218 115.415 -7.218 115.415 -8.574 113.195 C-9.073 112.388 -9.573 111.581 -10.087 110.75 C-10.615 109.883 -11.143 109.017 -11.688 108.125 C-12.778 106.379 -13.869 104.635 -14.961 102.891 C-16.361 100.644 -17.759 98.397 -19.134 96.135 C-23.874 88.356 -23.874 88.356 -28.75 86.812 C-32 87 -32 87 -35 88 C-36.252 90.579 -37.071 93.216 -37.966 95.938 C-40.925 104.457 -44.767 114.335 -53 119 C-65.192 122.713 -79.522 121.188 -92.056 120.171 C-92.925 120.108 -93.795 120.045 -94.691 119.98 C-95.453 119.913 -96.215 119.846 -97.001 119.776 C-99 120 -99 120 -100.746 121.282 C-102.818 124.12 -102.362 126.618 -102 130 C-100.792 131.696 -100.792 131.696 -99 133 C-96.692 133.367 -96.692 133.367 -93.949 133.356 C-92.922 133.359 -91.894 133.362 -90.834 133.366 C-89.725 133.353 -88.616 133.341 -87.473 133.328 C-86.332 133.326 -85.192 133.324 -84.017 133.322 C-81.603 133.316 -79.19 133.302 -76.777 133.281 C-73.081 133.25 -69.385 133.24 -65.689 133.234 C-63.346 133.225 -61.003 133.215 -58.66 133.203 C-57.553 133.199 -56.445 133.195 -55.304 133.19 C-54.273 133.181 -53.242 133.171 -52.18 133.161 C-51.274 133.154 -50.368 133.147 -49.435 133.14 C-47.12 133.007 -45.18 132.791 -43 132 C-41.913 129.714 -41.913 129.714 -41 127 C-40.167 125.505 -39.299 124.029 -38.398 122.574 C-38.154 122.176 -38.154 122.176 -36.914 120.162 C-36.406 119.345 -35.898 118.529 -35.375 117.688 C-34.859 116.852 -34.344 116.016 -33.812 115.154 C-32.545 113.101 -31.274 111.049 -30 109 C-26.13 110.29 -25.676 111.713 -23.602 115.172 C-22.957 116.229 -22.312 117.286 -21.648 118.375 C-20.981 119.489 -20.313 120.602 -19.625 121.75 C-18.311 123.936 -16.991 126.119 -15.664 128.297 C-15.081 129.27 -14.498 130.243 -13.897 131.245 C-11.85 134.218 -9.695 136.601 -7 139 C-3.789 139.459 -2.092 139.031 1 138 C1.733 136.362 2.388 134.687 3 133 C4.072 131.001 5.178 129.021 6.309 127.055 C6.632 126.491 6.955 125.927 7.287 125.346 C8.334 123.521 9.386 121.698 10.438 119.875 C11.159 118.619 11.88 117.363 12.602 116.106 C14.73 112.402 16.864 108.7 19 105 C19.603 103.954 20.207 102.908 20.829 101.831 C23.878 96.55 26.935 91.273 30 86 C32.567 88.319 34.066 90.685 35.68 93.734 C36.19 94.689 36.699 95.644 37.225 96.627 C37.497 97.143 37.497 97.143 38.875 99.75 C43.85 109.055 48.944 118.277 54.169 127.443 C56.968 132.368 59.724 137.311 62.414 142.297 C62.964 143.316 63.513 144.335 64.08 145.384 C65.131 147.34 66.178 149.299 67.219 151.26 C67.687 152.131 68.155 153.001 68.637 153.898 C69.046 154.668 69.456 155.439 69.878 156.232 C71 158 71 158 73 159 C78.272 159.573 78.272 159.573 80.875 157.523 C83.795 154.056 85.908 150.256 88.125 146.312 C88.998 144.764 89.875 143.218 90.758 141.676 C91.141 140.994 91.524 140.313 91.918 139.611 C93 138 93 138 95 137 C92.519 162.804 81.145 188.531 67 210 C63.251 208.75 61.79 206.79 59 204 C47.436 193.944 29.712 192.24 15.125 189.688 C14.13 189.512 13.134 189.336 12.109 189.154 C-3.065 186.505 -17.576 184.612 -33 186 C-33.831 186.066 -34.662 186.132 -35.519 186.201 C-52.255 187.652 -68.868 191.203 -85.376 194.219 C-85.856 194.306 -85.856 194.306 -88.286 194.748 C-90.093 195.077 -91.9 195.409 -93.707 195.744 C-95.346 196.042 -96.987 196.328 -98.63 196.602 C-100.228 196.87 -101.821 197.171 -103.407 197.502 C-107.686 198.255 -109.335 198.415 -113.142 196.041 C-114.108 195.093 -115.047 194.118 -115.961 193.121 C-116.217 192.862 -116.217 192.862 -117.515 191.55 C-119.162 189.87 -120.769 188.157 -122.375 186.438 C-123.496 185.272 -124.618 184.107 -125.742 182.944 C-136.925 171.281 -146.53 159.392 -154 145 C-154.229 144.562 -154.229 144.562 -155.391 142.344 C-158.201 136.581 -160.225 130.591 -162.188 124.5 C-162.438 123.729 -162.688 122.958 -162.946 122.163 C-166.223 111.637 -167.33 101.668 -167.261 90.64 C-167.25 88.634 -167.261 86.63 -167.273 84.625 C-167.238 66.717 -163.662 50.096 -156.286 33.81 C-154.484 29.721 -153.483 26.567 -154 22 C-155.5 20.125 -155.5 20.125 -157 19 C-155.562 14.946 -153.611 11.692 -151.125 8.188 C-150.447 7.212 -149.769 6.236 -149.07 5.23 C-148.387 4.494 -147.704 3.758 -147 3 C-145.68 3 -144.36 3 -143 3 C-137.331 2.639 -134.885 1.554 -130.938 -2.5 C-94.025 -37.751 -37.644 -30.451 0 0 Z " fill="#FC7F86" transform="translate(245,130)"/>
<path d="M0 0 C2.686 2.686 3.463 5.801 4.688 9.312 C13.58 33.715 29.854 51.595 53.355 62.566 C74.697 71.275 98.831 71.847 120.312 63.25 C121.319 62.801 122.326 62.353 123.363 61.891 C126.146 60.951 127.307 60.951 130 62 C130.631 64.415 131.255 66.832 131.875 69.25 C132.049 69.913 132.223 70.575 132.402 71.258 C135.195 82.222 136.351 92.889 136.316 104.18 C136.313 106.3 136.336 108.418 136.361 110.537 C136.42 122.925 134.633 134.756 130.312 146.438 C130.058 147.137 129.803 147.837 129.54 148.558 C123.563 164.475 115.234 178.51 103.629 190.969 C103.118 191.52 102.607 192.071 102.08 192.639 C95.467 199.712 88.569 206.503 81.688 213.312 C79.063 215.91 76.443 218.51 73.824 221.113 C73.242 221.687 72.659 222.262 72.059 222.853 C69.116 225.779 66.303 228.763 63.593 231.907 C59.821 236.268 55.786 240.323 51.688 244.375 C51.301 244.759 51.301 244.759 49.346 246.705 C46.076 249.959 42.8 253.207 39.524 256.455 C37.118 258.843 34.715 261.234 32.312 263.625 C31.583 264.346 30.854 265.067 30.102 265.81 C25.52 270.37 21.197 275.084 17 280 C-3.271 303.524 -3.271 303.524 -19.945 304.836 C-21.63 304.899 -23.315 304.954 -25 305 C-26.539 305.095 -28.078 305.192 -29.617 305.289 C-37.18 305.618 -44.538 304.915 -52.004 303.746 C-52.856 303.615 -53.707 303.484 -54.585 303.349 C-64.644 301.778 -74.672 300.035 -84.687 298.203 C-86.836 297.813 -88.986 297.432 -91.138 297.058 C-94.301 296.507 -97.459 295.932 -100.617 295.352 C-101.095 295.271 -101.095 295.271 -103.515 294.862 C-109.397 293.745 -112.796 292.317 -117 288 C-118.433 285.134 -118.306 283.187 -118 280 C-114.842 274.421 -114.842 274.421 -112 273 C-103.761 272.27 -95.562 273.735 -87.438 274.938 C-43.294 281.314 -43.294 281.314 -28.5 271.25 C-21.648 265.496 -18.678 258.344 -17.746 249.625 C-17.409 242.66 -19.064 235.785 -23.406 230.188 C-24 228 -24 228 -22.289 224.523 C-21.413 223.133 -20.524 221.751 -19.625 220.375 C-8.751 202.807 4 177.136 4 156 C3.652 156.595 3.304 157.191 2.946 157.804 C1.367 160.499 -0.223 163.187 -1.812 165.875 C-2.36 166.812 -2.907 167.749 -3.471 168.715 C-3.737 169.163 -3.737 169.163 -5.082 171.43 C-5.569 172.257 -6.056 173.085 -6.558 173.937 C-8 176 -8 176 -11 178 C-13.875 178.438 -13.875 178.438 -17 178 C-20.859 174.667 -23.199 171.262 -25.531 166.758 C-25.844 166.161 -26.157 165.565 -26.479 164.95 C-27.148 163.674 -27.812 162.395 -28.473 161.115 C-30.223 157.724 -32.004 154.349 -33.781 150.973 C-34.138 150.294 -34.494 149.616 -34.861 148.917 C-38.119 142.729 -41.53 136.634 -45 130.562 C-49.819 122.118 -54.495 113.616 -59 105 C-63.969 112.096 -68.163 119.528 -72.312 127.125 C-80.915 142.748 -80.915 142.748 -85.25 150.062 C-85.915 151.188 -86.58 152.313 -87.266 153.473 C-89 156 -89 156 -92 158 C-95.437 157.938 -95.437 157.938 -99 157 C-103.026 152.709 -105.958 147.475 -109.062 142.5 C-109.592 141.658 -110.121 140.816 -110.666 139.949 C-112.75 136.628 -114.818 133.322 -116.746 129.906 C-116.953 129.592 -116.953 129.592 -118 128 C-118.66 128 -119.32 128 -120 128 C-121.357 129.988 -121.357 129.988 -122.898 132.742 C-123.46 133.726 -124.022 134.709 -124.602 135.723 C-125.779 137.815 -126.953 139.909 -128.125 142.004 C-128.69 142.99 -129.254 143.976 -129.836 144.992 C-130.347 145.903 -130.858 146.815 -131.384 147.753 C-133.185 150.257 -134.172 150.883 -137 152 C-139.428 152.267 -139.428 152.267 -142.164 152.291 C-143.192 152.303 -144.22 152.316 -145.279 152.329 C-146.383 152.331 -147.487 152.334 -148.625 152.336 C-149.764 152.343 -150.903 152.349 -152.077 152.356 C-154.484 152.366 -156.891 152.371 -159.299 152.371 C-162.986 152.375 -166.672 152.411 -170.359 152.449 C-172.698 152.455 -175.036 152.459 -177.375 152.461 C-178.479 152.475 -179.583 152.49 -180.721 152.504 C-181.749 152.498 -182.777 152.492 -183.836 152.486 C-184.739 152.489 -185.642 152.492 -186.572 152.494 C-189.802 151.837 -190.994 150.569 -193 148 C-193.539 144.23 -193.649 142.029 -191.594 138.771 C-187.539 136.002 -183.765 136.818 -179.004 137.164 C-147.215 138.587 -147.215 138.587 -139.644 133.94 C-135.021 128.92 -132.773 123.178 -130.878 116.699 C-129.154 111.401 -126.645 107.097 -122 104 C-118.464 103.796 -116.095 104.026 -113.375 106.445 C-106.843 114.454 -99.286 125.142 -96 135 C-95.34 135 -94.68 135 -94 135 C-93.733 134.292 -93.466 133.585 -93.191 132.856 C-91.949 129.878 -90.508 127.13 -88.945 124.309 C-88.336 123.208 -87.727 122.107 -87.099 120.972 C-86.441 119.794 -85.783 118.616 -85.125 117.438 C-84.793 116.842 -84.461 116.247 -84.12 115.634 C-79.589 107.514 -74.995 99.434 -70.25 91.438 C-69.762 90.606 -69.273 89.774 -68.77 88.918 C-68.542 88.539 -68.542 88.539 -67.391 86.621 C-66.999 85.966 -66.608 85.31 -66.204 84.635 C-65 83 -65 83 -62 81 C-59.062 80.625 -59.062 80.625 -56 81 C-52.892 83.644 -51.013 86.422 -49.117 90.008 C-48.856 90.496 -48.856 90.496 -47.536 92.968 C-46.988 94.01 -46.44 95.052 -45.875 96.125 C-44.704 98.319 -43.532 100.513 -42.359 102.707 C-42.072 103.246 -42.072 103.246 -40.619 105.975 C-38.495 109.944 -36.321 113.883 -34.125 117.812 C-33.935 118.153 -33.935 118.153 -32.973 119.879 C-32.143 121.367 -31.313 122.854 -30.482 124.341 C-27.62 129.474 -24.769 134.614 -21.915 139.752 C-20.254 142.743 -18.592 145.735 -16.93 148.727 C-15.953 150.484 -14.977 152.242 -14 154 C-11.39 150.673 -9.196 147.14 -7.023 143.52 C-6.653 142.906 -6.282 142.293 -5.9 141.661 C-4.723 139.712 -3.549 137.763 -2.375 135.812 C-1.194 133.852 -0.012 131.892 1.171 129.932 C1.906 128.716 2.64 127.498 3.372 126.28 C5.888 122.112 5.888 122.112 7 121 C7.533 109.866 6.926 98.986 5 88 C4.871 87.24 4.742 86.479 4.609 85.696 C0.514 61.989 -7.837 40.473 -19.851 19.66 C-23 14.188 -23 14.188 -23 12 C-20.482 10.558 -17.961 9.121 -15.438 7.688 C-14.733 7.283 -14.029 6.879 -13.303 6.463 C-8.961 4.002 -4.625 1.878 0 0 Z " fill="#FD626D" transform="translate(335,112)"/>
<path d="M0 0 C0.806 0.16 1.613 0.319 2.444 0.484 C15.145 3.096 24.455 6.291 32.469 17.043 C33.849 21.185 34.299 24.726 33.469 29.043 C30.917 33.674 27.384 37.047 22.469 39.043 C9.308 42.234 -5.101 39.315 -18.281 37.543 C-49.849 33.332 -49.849 33.332 -57.531 39.043 C-63.603 44.494 -66.549 50.804 -67.031 58.918 C-66.799 65.487 -64.229 70.999 -59.887 75.898 C-53.127 82.078 -45.359 83.686 -36.578 85.199 C-35.523 85.388 -34.468 85.576 -33.382 85.77 C-30.016 86.369 -26.649 86.956 -23.281 87.543 C-21.065 87.937 -18.849 88.331 -16.633 88.727 C-10.27 89.857 -3.902 90.959 2.469 92.043 C2.933 92.122 2.933 92.122 5.283 92.523 C23.567 95.611 23.567 95.611 31.594 95.543 C32.025 95.54 32.025 95.54 34.209 95.526 C44.29 95.259 53.927 93.007 63.737 90.839 C70.207 89.459 76.711 88.263 83.213 87.05 C87.176 86.31 91.137 85.561 95.098 84.812 C95.88 84.665 96.662 84.517 97.468 84.365 C104.831 82.976 112.194 81.583 119.553 80.172 C121.459 79.807 123.366 79.445 125.272 79.084 C131.841 77.821 138.313 76.388 144.772 74.645 C151.866 73.061 158.45 73.114 164.809 76.848 C167.359 78.684 168.931 80.288 170.469 83.043 C171.224 88.049 170.138 91.517 168.027 95.953 C162.672 103.134 155.893 105.807 147.594 108.605 C146.575 108.966 145.557 109.326 144.508 109.697 C138.7 111.721 132.849 113.54 126.941 115.246 C114.791 118.76 102.775 122.708 90.741 126.598 C88.762 127.237 86.782 127.875 84.802 128.513 C70.207 133.216 55.623 137.951 41.094 142.855 C26.089 147.915 10.914 152.512 -4.531 156.043 C-5.263 156.225 -5.996 156.406 -6.75 156.594 C-22.136 159.079 -36.763 156.221 -51.531 152.043 C-53.046 151.63 -54.562 151.218 -56.078 150.809 C-59.019 150.007 -61.954 149.188 -64.887 148.355 C-70.008 146.902 -75.144 145.502 -80.281 144.105 C-82.151 143.596 -84.021 143.087 -85.891 142.578 C-86.823 142.324 -87.756 142.071 -88.717 141.809 C-93.322 140.555 -97.927 139.299 -102.531 138.043 C-104.365 137.543 -106.198 137.043 -108.031 136.543 C-119.031 133.543 -119.031 133.543 -121.78 132.793 C-123.617 132.292 -125.453 131.792 -127.29 131.291 C-131.824 130.055 -136.358 128.817 -140.891 127.578 C-142.687 127.087 -144.484 126.596 -146.281 126.105 C-147.164 125.864 -148.047 125.623 -148.956 125.374 C-154.175 123.95 -159.398 122.541 -164.625 121.145 C-165.22 120.985 -165.22 120.985 -168.231 120.179 C-170.564 119.556 -172.896 118.934 -175.229 118.315 C-175.756 118.174 -175.756 118.174 -178.422 117.461 C-179.361 117.211 -180.299 116.961 -181.267 116.704 C-183.531 116.043 -183.531 116.043 -185.531 115.043 C-185.531 82.043 -185.531 49.043 -185.531 15.043 C-150.531 9.043 -150.531 9.043 -136.531 7.043 C-132.489 6.384 -128.451 5.714 -124.414 5.02 C-123.314 4.832 -122.215 4.645 -121.082 4.452 C-117.606 3.859 -114.131 3.263 -110.656 2.668 C-108.37 2.277 -106.083 1.887 -103.797 1.496 C-102.67 1.304 -101.542 1.111 -100.381 0.913 C-96.99 0.334 -93.6 -0.242 -90.209 -0.818 C-85.772 -1.573 -81.337 -2.338 -76.903 -3.111 C-74.793 -3.474 -72.684 -3.837 -70.574 -4.199 C-69.633 -4.366 -68.692 -4.533 -67.723 -4.704 C-44.513 -8.659 -22.781 -4.553 0 0 Z " fill="#FDD0A2" transform="translate(269.53125,335.95703125)"/>
<path d="M0 0 C7.445 6.482 13.198 13.391 18 22 C18.46 22.788 18.92 23.575 19.395 24.387 C28.251 40.575 29.768 59.808 24.938 77.5 C18.662 98.366 5.228 113.813 -13.605 124.273 C-30.617 132.926 -49.999 135.07 -68.344 129.387 C-89.55 121.344 -104.756 108.374 -115 88 C-119.191 78.39 -121.396 68.854 -121.375 58.375 C-121.373 57.508 -121.372 56.642 -121.37 55.749 C-121.169 45.026 -118.386 35.461 -113.754 25.797 C-112.233 22.173 -112.796 19.613 -114 16 C-114.66 16 -115.32 16 -116 16 C-115.632 10.911 -112.835 8.179 -109.438 4.688 C-108.917 4.138 -108.397 3.588 -107.861 3.021 C-106.583 1.673 -105.293 0.335 -104 -1 C-103.443 -0.67 -102.886 -0.34 -102.312 0 C-99.508 1.213 -98.036 1.441 -95 1 C-92.667 -0.322 -90.558 -1.656 -88.375 -3.188 C-60.939 -21.471 -26.272 -20.288 0 0 Z " fill="#D4DAE7" transform="translate(470,35)"/>
<path d="M0 0 C4.01 2.57 7.461 5.821 11 9 C11.791 9.696 12.583 10.392 13.398 11.109 C25.239 22.161 36.304 40.663 37.109 57.254 C37.123 59.17 37.068 61.086 37 63 C33.37 63 29.74 63 26 63 C25.974 61.314 25.948 59.628 25.922 57.891 C25.866 55.677 25.808 53.464 25.75 51.25 C25.736 50.139 25.722 49.028 25.707 47.883 C25.675 46.813 25.643 45.743 25.609 44.641 C25.599 44.148 25.599 44.148 25.546 41.657 C24.856 38.297 23.68 37.085 21 35 C17.938 34.562 17.938 34.562 15 35 C12.963 36.545 12.139 37.721 11 40 C10.847 41.739 10.751 43.482 10.684 45.227 C10.642 46.258 10.6 47.289 10.557 48.352 C10.517 49.432 10.478 50.512 10.438 51.625 C10.416 52.169 10.416 52.169 10.307 54.922 C10.2 57.614 10.098 60.307 10 63 C9.647 63.005 9.647 63.005 7.86 63.028 C4.656 63.082 1.453 63.166 -1.75 63.25 C-2.861 63.264 -3.972 63.278 -5.117 63.293 C-6.187 63.325 -7.257 63.357 -8.359 63.391 C-9.344 63.412 -10.328 63.433 -11.343 63.454 C-14.715 64.147 -15.952 65.267 -18 68 C-17.786 74.214 -17.786 74.214 -15 77 C-12.386 77.319 -12.386 77.319 -9.117 77.414 C-8.534 77.433 -8.534 77.433 -5.582 77.531 C-4.359 77.562 -3.135 77.593 -1.875 77.625 C-0.644 77.664 0.587 77.702 1.855 77.742 C4.903 77.837 7.952 77.922 11 78 C11.015 78.772 11.029 79.544 11.044 80.339 C11.119 83.831 11.215 87.321 11.312 90.812 C11.335 92.027 11.358 93.242 11.381 94.494 C11.416 95.658 11.452 96.821 11.488 98.02 C11.514 99.093 11.541 100.167 11.568 101.273 C12 104 12 104 13.344 105.85 C15.935 107.649 17.941 107.382 21 107 C23.037 105.455 23.861 104.279 25 102 C25.153 100.261 25.249 98.518 25.316 96.773 C25.358 95.742 25.4 94.711 25.443 93.648 C25.483 92.568 25.522 91.488 25.562 90.375 C25.584 89.831 25.584 89.831 25.693 87.078 C25.8 84.386 25.9 81.693 26 79 C29.63 79 33.26 79 37 79 C34.891 100.558 24.38 118.196 8.246 132.43 C5.871 134.362 3.498 136.231 1 138 C0.602 138.293 0.602 138.293 -1.414 139.777 C-4.809 141.382 -6.416 141.02 -10 140 C-29.231 131.705 -43.037 116.966 -51.32 97.973 C-54.636 89.217 -56.393 80.74 -56.375 71.375 C-56.373 70.508 -56.372 69.642 -56.37 68.749 C-56.169 58.026 -53.386 48.461 -48.754 38.797 C-47.233 35.173 -47.796 32.613 -49 29 C-49.66 29 -50.32 29 -51 29 C-50.632 23.911 -47.835 21.179 -44.438 17.688 C-43.917 17.138 -43.397 16.588 -42.861 16.021 C-41.583 14.673 -40.293 13.335 -39 12 C-38.443 12.33 -37.886 12.66 -37.312 13 C-34.508 14.213 -33.036 14.441 -30 14 C-27.667 12.678 -25.557 11.345 -23.375 9.812 C-7.201 -1.049 -7.201 -1.049 0 0 Z " fill="#F6F0EE" transform="translate(405,22)"/>
<path d="M0 0 C17.82 0 35.64 0 54 0 C54 40.59 54 81.18 54 123 C36.18 123 18.36 123 0 123 C0 82.41 0 41.82 0 0 Z " fill="#99E6FC" transform="translate(15,340)"/>
<path d="M0 0 C3.108 2.644 4.987 5.422 6.883 9.008 C7.144 9.496 7.144 9.496 8.464 11.968 C9.012 13.01 9.56 14.052 10.125 15.125 C11.296 17.319 12.468 19.513 13.641 21.707 C14.215 22.785 14.789 23.864 15.381 24.975 C17.505 28.944 19.679 32.883 21.875 36.812 C22.065 37.153 22.065 37.153 23.027 38.879 C23.857 40.367 24.687 41.854 25.518 43.341 C28.38 48.474 31.231 53.614 34.085 58.752 C35.746 61.743 37.408 64.735 39.07 67.727 C40.047 69.484 41.023 71.242 42 73 C44.593 69.698 46.761 66.191 48.906 62.59 C49.657 61.34 50.409 60.091 51.16 58.842 C52.334 56.885 53.506 54.928 54.675 52.969 C55.811 51.07 56.952 49.173 58.094 47.277 C58.432 46.711 58.432 46.711 60.146 43.847 C62.948 39.544 62.948 39.544 65 38 C67.909 37.612 67.909 37.612 71.503 37.596 C72.159 37.589 72.815 37.582 73.49 37.575 C75.658 37.557 77.825 37.561 79.992 37.566 C81.501 37.562 83.009 37.557 84.517 37.551 C87.68 37.542 90.842 37.544 94.004 37.554 C98.052 37.565 102.099 37.545 106.146 37.516 C109.262 37.498 112.378 37.498 115.494 37.504 C116.986 37.504 118.478 37.498 119.97 37.485 C122.06 37.47 124.148 37.481 126.238 37.498 C126.832 37.498 126.832 37.498 129.837 37.499 C133.659 38.104 135.327 39.238 138 42 C138.625 45.5 138.625 45.5 138 49 C135.413 51.632 133.751 52.876 130.083 53.481 C129.01 53.472 127.938 53.463 126.833 53.454 C126.222 53.454 126.222 53.454 123.133 53.453 C121.825 53.433 120.516 53.412 119.168 53.391 C117.807 53.383 116.447 53.377 115.087 53.373 C111.517 53.358 107.948 53.319 104.379 53.275 C100.733 53.234 97.086 53.215 93.439 53.195 C86.293 53.152 79.146 53.084 72 53 C71.852 53.381 71.852 53.381 71.106 55.307 C69.768 58.564 68.078 61.478 66.297 64.516 C65.937 65.131 65.576 65.746 65.205 66.38 C64.444 67.679 63.68 68.976 62.916 70.273 C61.763 72.227 60.618 74.186 59.473 76.145 C48.174 95.413 48.174 95.413 45 97 C42.188 97.375 42.188 97.375 39 97 C35.136 93.674 32.8 90.261 30.469 85.758 C30.156 85.161 29.843 84.565 29.521 83.95 C28.852 82.674 28.188 81.395 27.527 80.115 C25.777 76.724 23.996 73.349 22.219 69.973 C21.862 69.294 21.506 68.616 21.139 67.917 C17.881 61.729 14.47 55.634 11 49.562 C6.181 41.118 1.505 32.616 -3 24 C-7.969 31.096 -12.163 38.528 -16.312 46.125 C-24.915 61.748 -24.915 61.748 -29.25 69.062 C-29.915 70.188 -30.58 71.313 -31.266 72.473 C-33 75 -33 75 -36 77 C-39.437 76.938 -39.437 76.938 -43 76 C-47.026 71.709 -49.958 66.475 -53.062 61.5 C-53.592 60.658 -54.121 59.816 -54.666 58.949 C-56.75 55.628 -58.818 52.322 -60.746 48.906 C-61.16 48.277 -61.574 47.648 -62 47 C-62.66 47 -63.32 47 -64 47 C-65.357 48.988 -65.357 48.988 -66.898 51.742 C-67.46 52.726 -68.022 53.709 -68.602 54.723 C-69.779 56.815 -70.953 58.909 -72.125 61.004 C-72.69 61.99 -73.254 62.976 -73.836 63.992 C-74.347 64.903 -74.858 65.815 -75.384 66.753 C-77.185 69.257 -78.172 69.883 -81 71 C-83.428 71.267 -83.428 71.267 -86.164 71.291 C-87.192 71.303 -88.22 71.316 -89.279 71.329 C-90.383 71.331 -91.487 71.334 -92.625 71.336 C-93.764 71.343 -94.903 71.349 -96.077 71.356 C-98.484 71.366 -100.891 71.371 -103.299 71.371 C-106.986 71.375 -110.672 71.411 -114.359 71.449 C-116.698 71.455 -119.036 71.459 -121.375 71.461 C-121.927 71.468 -121.927 71.468 -124.721 71.504 C-125.749 71.498 -126.777 71.492 -127.836 71.486 C-128.287 71.487 -128.287 71.487 -130.572 71.494 C-133.802 70.837 -134.994 69.569 -137 67 C-137.539 63.23 -137.649 61.029 -135.594 57.771 C-131.539 55.002 -127.765 55.818 -123.004 56.164 C-91.215 57.587 -91.215 57.587 -83.644 52.94 C-79.021 47.92 -76.773 42.178 -74.878 35.699 C-73.154 30.401 -70.645 26.097 -66 23 C-62.464 22.796 -60.095 23.026 -57.375 25.445 C-50.843 33.454 -43.286 44.142 -40 54 C-39.34 54 -38.68 54 -38 54 C-37.733 53.292 -37.466 52.585 -37.191 51.856 C-35.949 48.878 -34.508 46.13 -32.945 43.309 C-32.336 42.208 -31.727 41.107 -31.099 39.972 C-30.441 38.794 -29.783 37.616 -29.125 36.438 C-28.793 35.842 -28.461 35.247 -28.12 34.634 C-23.589 26.514 -18.995 18.434 -14.25 10.438 C-13.762 9.606 -13.273 8.774 -12.77 7.918 C-12.542 7.539 -12.542 7.539 -11.391 5.621 C-10.999 4.966 -10.608 4.31 -10.204 3.635 C-7.362 -0.224 -4.487 -0.549 0 0 Z " fill="#030101" transform="translate(279,193)"/>
<path d="M0 0 C0.33 0 0.66 0 1 0 C1 29.04 1 58.08 1 88 C4.3 88.66 7.6 89.32 11 90 C14.196 90.748 17.38 91.512 20.562 92.312 C21.433 92.531 22.303 92.749 23.199 92.973 C29.205 94.498 35.143 96.188 41.073 97.984 C47.835 100.006 54.663 101.751 61.5 103.5 C69.789 105.621 78.028 107.826 86.219 110.301 C91.276 111.819 96.37 113.105 101.502 114.343 C106.581 115.592 111.591 117.031 116.605 118.522 C120.738 119.749 124.879 120.949 129.022 122.141 C130.92 122.688 132.815 123.242 134.708 123.805 C154.932 129.735 175.818 130.439 196 124 C197.062 123.667 198.124 123.334 199.218 122.99 C205.715 120.942 212.196 118.845 218.668 116.719 C226.879 114.023 235.122 111.439 243.375 108.875 C246.046 108.044 248.716 107.212 251.387 106.379 C252.032 106.178 252.677 105.977 253.342 105.769 C267.647 101.305 281.92 96.744 296.111 91.927 C302.18 89.887 308.285 87.98 314.406 86.105 C316.976 85.313 319.545 84.52 322.114 83.727 C323.81 83.207 325.507 82.691 327.206 82.181 C348.736 75.711 348.736 75.711 356 68 C356.486 73.838 355.55 78.24 352 83 C346.693 88.815 340.455 91.091 333.125 93.562 C332.107 93.923 331.088 94.283 330.039 94.654 C324.232 96.678 318.38 98.497 312.473 100.203 C300.322 103.717 288.306 107.665 276.272 111.555 C274.293 112.194 272.313 112.832 270.333 113.47 C255.738 118.173 241.154 122.908 226.625 127.812 C211.62 132.872 196.446 137.469 181 141 C180.268 141.182 179.536 141.364 178.781 141.551 C163.395 144.036 148.768 141.178 134 137 C132.485 136.587 130.969 136.175 129.453 135.766 C126.512 134.964 123.577 134.145 120.645 133.312 C115.523 131.859 110.387 130.459 105.25 129.062 C103.38 128.553 101.51 128.044 99.641 127.535 C98.708 127.281 97.775 127.028 96.814 126.766 C92.209 125.513 87.605 124.256 83 123 C81.167 122.5 79.333 122 77.5 121.5 C66.5 118.5 66.5 118.5 63.751 117.75 C61.914 117.249 60.078 116.749 58.241 116.248 C53.707 115.012 49.174 113.774 44.641 112.535 C42.844 112.044 41.047 111.553 39.25 111.062 C38.367 110.821 37.485 110.58 36.575 110.331 C31.356 108.907 26.133 107.498 20.906 106.102 C20.311 105.942 20.311 105.942 17.3 105.136 C14.968 104.513 12.635 103.891 10.302 103.272 C9.775 103.131 9.775 103.131 7.109 102.418 C6.171 102.168 5.232 101.918 4.265 101.661 C2 101 2 101 0 100 C0 67 0 34 0 0 Z " fill="#F9B882" transform="translate(84,351)"/>
<path d="M0 0 C2.68 1.754 2.68 1.754 5 5 C5.619 9.12 5.47 13.158 5.312 17.312 C5.29 18.435 5.267 19.557 5.244 20.713 C5.185 23.477 5.103 26.238 5 29 C5.701 28.974 6.402 28.948 7.124 28.921 C10.311 28.816 13.499 28.752 16.688 28.688 C17.79 28.646 18.893 28.604 20.029 28.561 C28.218 28.437 28.218 28.437 32.234 31.328 C34.392 34.594 34.735 36.161 34 40 C31.844 42.813 30.7 43.888 27.159 44.454 C26.091 44.433 25.023 44.412 23.922 44.391 C22.762 44.378 21.602 44.365 20.406 44.352 C19.2 44.318 17.993 44.285 16.75 44.25 C15.528 44.232 14.306 44.214 13.047 44.195 C10.03 44.148 7.016 44.082 4 44 C4.021 44.767 4.042 45.533 4.063 46.323 C4.147 49.799 4.199 53.274 4.25 56.75 C4.267 57.353 4.267 57.353 4.352 60.406 C4.364 61.566 4.377 62.727 4.391 63.922 C4.412 64.99 4.433 66.058 4.454 67.159 C3.888 70.701 2.818 71.848 0 74 C-3 74.5 -3 74.5 -6 74 C-8.818 71.848 -9.888 70.701 -10.454 67.159 C-10.433 66.091 -10.412 65.023 -10.391 63.922 C-10.384 63.342 -10.384 63.342 -10.352 60.406 C-10.318 59.2 -10.285 57.993 -10.25 56.75 C-10.232 55.528 -10.214 54.306 -10.195 53.047 C-10.148 50.03 -10.082 47.016 -10 44 C-10.767 44.026 -11.533 44.052 -12.323 44.079 C-15.799 44.183 -19.274 44.248 -22.75 44.312 C-23.957 44.354 -25.163 44.396 -26.406 44.439 C-27.566 44.456 -28.727 44.472 -29.922 44.488 C-30.99 44.514 -32.058 44.541 -33.159 44.568 C-36 44 -36 44 -38.38 41.696 C-40 39 -40 39 -40 35.375 C-38.877 31.585 -38.337 30.905 -35 29 C-32.343 28.659 -32.343 28.659 -29.359 28.707 C-28.824 28.712 -28.824 28.712 -26.117 28.736 C-25.006 28.761 -23.895 28.787 -22.75 28.812 C-22.187 28.819 -22.187 28.819 -19.336 28.854 C-16.557 28.889 -13.779 28.938 -11 29 C-11.016 28.329 -11.031 27.659 -11.048 26.968 C-11.11 23.916 -11.149 20.865 -11.188 17.812 C-11.213 16.757 -11.238 15.702 -11.264 14.615 C-11.273 13.594 -11.283 12.572 -11.293 11.52 C-11.309 10.582 -11.324 9.645 -11.341 8.679 C-10.932 5.467 -9.888 3.606 -8 1 C-5.111 -0.444 -3.204 -0.377 0 0 Z " fill="#060606" transform="translate(426,56)"/>
<path d="M0 0 C0.33 0 0.66 0 1 0 C1.599 4.109 1.79 7.553 -0.242 11.273 C-4.426 16.46 -8.472 18.916 -15 20 C-27.056 20.736 -38.828 19.103 -50.75 17.5 C-81.107 13.451 -81.107 13.451 -90 19 C-90.66 19.33 -91.32 19.66 -92 20 C-92.569 14.537 -91.701 11.317 -88.523 6.805 C-85.998 3.813 -83.788 1.915 -80 1 C-70.823 1.018 -61.651 2.526 -52.58 3.787 C-42.123 5.215 -31.69 6.42 -21.125 6.562 C-20.236 6.589 -19.348 6.616 -18.432 6.643 C-11.917 6.607 -4.772 4.772 0 0 Z " fill="#FBB983" transform="translate(302,356)"/>
<path d="M0 0 C1.592 0.242 3.185 0.482 4.777 0.723 C8.644 1.307 12.51 1.901 16.375 2.5 C13.602 5.337 10.887 8.026 7.676 10.359 C7.024 10.835 6.373 11.311 5.701 11.801 C5.369 12.04 5.369 12.04 3.688 13.25 C3.011 13.744 2.335 14.237 1.639 14.746 C-5.457 19.9 -10.209 20.24 -19 19.039 C-28.73 17.159 -28.73 17.159 -31.938 13.688 C-33.834 10.106 -34.37 8.475 -33.625 4.5 C-26.827 -7.509 -11.618 -1.803 0 0 Z " fill="#F97D84" transform="translate(250.625,387.5)"/>
<path d="M0 0 C17.82 0 35.64 0 54 0 C54 4.29 54 8.58 54 13 C36.18 13 18.36 13 0 13 C0 8.71 0 4.42 0 0 Z " fill="#61D8F8" transform="translate(15,450)"/>
</svg>
