<?xml version="1.0" encoding="UTF-8"?>
<!-- Generator: visioncortex VTracer 0.6.12 -->
<svg version="1.1" xmlns="http://www.w3.org/2000/svg" width="512" height="512">
<path d="M0 0 C2.177 -0.002 4.353 -0.02 6.53 -0.039 C17.656 -0.086 26.53 0.641 35.315 8.185 C43.352 17.276 43.049 31.129 44.479 42.631 C44.678 44.211 44.877 45.792 45.076 47.373 C45.49 50.669 45.901 53.965 46.311 57.262 C46.834 61.47 47.365 65.677 47.898 69.883 C48.31 73.141 48.717 76.4 49.123 79.659 C49.317 81.21 49.512 82.76 49.709 84.311 C49.984 86.482 50.253 88.654 50.521 90.826 C50.674 92.058 50.828 93.289 50.987 94.557 C51.341 98.47 51.37 102.259 51.315 106.185 C52.426 106.291 53.537 106.397 54.682 106.506 C59.773 107.145 64.546 108.556 69.44 110.06 C70.307 110.317 71.175 110.573 72.069 110.838 C76.735 112.251 81.018 113.833 85.315 116.185 C85.414 115.445 85.513 114.705 85.616 113.943 C87.023 108.393 91.527 104.417 96.127 101.248 C103.049 98.941 109.341 98.411 116.213 101.119 C122.437 104.277 125.808 108.256 128.502 114.63 C129.919 119.086 129.871 123.429 129.833 128.07 C129.836 128.595 129.836 128.595 129.854 131.252 C129.871 134.699 129.86 138.145 129.846 141.592 C129.849 144.001 129.853 146.41 129.858 148.82 C129.864 153.86 129.855 158.9 129.836 163.94 C129.814 170.386 129.827 176.831 129.851 183.277 C129.865 188.249 129.861 193.222 129.85 198.194 C129.848 200.57 129.851 202.946 129.86 205.322 C129.87 208.649 129.855 211.974 129.833 215.301 C129.841 216.273 129.849 217.246 129.857 218.248 C129.77 225.306 128.527 231.782 123.536 237.071 C117.661 242.37 112.229 244.244 104.315 244.185 C97.245 243.102 92.05 239.435 87.315 234.185 C86.275 232.543 85.265 230.881 84.315 229.185 C82.558 230.236 80.81 231.302 79.065 232.373 C78.09 232.964 77.116 233.556 76.112 234.166 C70.667 238.097 68.121 242.788 66.315 249.185 C65.934 252.109 65.923 254.979 65.958 257.925 C65.957 258.341 65.957 258.341 65.952 260.45 C65.949 263.18 65.968 265.909 65.987 268.638 C65.99 270.546 65.992 272.453 65.992 274.36 C65.997 278.344 66.011 282.328 66.034 286.312 C66.062 291.419 66.073 296.525 66.077 301.632 C66.082 305.565 66.091 309.497 66.103 313.43 C66.109 315.313 66.114 317.197 66.118 319.08 C66.124 321.708 66.138 324.336 66.154 326.964 C66.155 327.741 66.156 328.518 66.157 329.319 C66.216 336.672 66.216 336.672 67.315 339.185 C70.334 340.192 72.388 340.321 75.546 340.343 C76.614 340.353 77.683 340.364 78.784 340.374 C79.362 340.378 79.362 340.378 82.288 340.396 C84.739 340.424 87.19 340.453 89.641 340.482 C93.503 340.523 97.365 340.56 101.227 340.587 C104.956 340.614 108.684 340.66 112.413 340.709 C113.555 340.712 114.697 340.715 115.873 340.719 C126.355 340.878 135.654 342.558 143.315 350.185 C147.92 356.055 150.418 360.605 150.508 368.15 C150.524 369.379 150.54 370.608 150.556 371.874 C150.568 373.219 150.579 374.563 150.588 375.908 C150.591 376.248 150.591 376.248 150.605 377.968 C150.631 381.572 150.651 385.175 150.665 388.779 C150.678 391.746 150.706 394.712 150.747 397.679 C150.797 401.275 150.821 404.87 150.828 408.466 C150.838 410.485 150.872 412.505 150.907 414.524 C150.887 423.508 149.586 430.571 143.338 437.321 C135.468 444.792 127.045 446.344 116.418 446.314 C115.637 446.316 114.856 446.317 114.052 446.319 C111.431 446.324 108.811 446.321 106.191 446.319 C104.294 446.321 102.398 446.323 100.502 446.326 C95.288 446.332 90.075 446.332 84.861 446.331 C79.239 446.33 73.617 446.336 67.995 446.341 C56.98 446.349 45.965 446.352 34.95 446.352 C25.997 446.353 17.045 446.355 8.092 446.358 C-13.152 446.365 -34.397 446.372 -55.641 446.371 C-56.321 446.371 -57 446.371 -57.7 446.371 C-61.143 446.371 -64.587 446.371 -68.03 446.371 C-68.714 446.371 -69.398 446.371 -70.103 446.371 C-71.486 446.371 -72.869 446.371 -74.252 446.371 C-95.769 446.37 -117.285 446.377 -138.802 446.391 C-162.977 446.406 -187.152 446.415 -211.327 446.414 C-224.127 446.414 -236.927 446.417 -249.727 446.427 C-260.624 446.436 -271.521 446.439 -282.419 446.432 C-287.979 446.429 -293.54 446.429 -299.1 446.437 C-304.191 446.445 -309.282 446.444 -314.373 446.435 C-316.214 446.433 -318.055 446.435 -319.896 446.441 C-322.401 446.448 -324.905 446.443 -327.41 446.434 C-328.123 446.439 -328.836 446.444 -329.57 446.449 C-338.897 446.384 -346.521 444.312 -353.685 438.185 C-359.022 432.358 -361.912 427.005 -361.991 418.993 C-362.007 417.765 -362.023 416.536 -362.04 415.27 C-362.046 413.936 -362.052 412.602 -362.056 411.267 C-362.065 409.886 -362.074 408.505 -362.084 407.123 C-362.1 404.229 -362.108 401.335 -362.111 398.441 C-362.116 394.757 -362.154 391.074 -362.199 387.39 C-362.229 384.536 -362.236 381.681 -362.237 378.827 C-362.244 376.816 -362.273 374.806 -362.303 372.795 C-362.259 363.841 -360.934 356.777 -354.708 350.049 C-347.311 343.028 -339.39 341.051 -329.312 341.072 C-328.072 341.072 -326.831 341.072 -325.552 341.072 C-324.214 341.077 -322.875 341.082 -321.537 341.088 C-320.155 341.09 -318.774 341.091 -317.392 341.092 C-313.772 341.096 -310.152 341.106 -306.532 341.117 C-302.832 341.127 -299.132 341.131 -295.431 341.136 C-288.182 341.147 -280.934 341.164 -273.685 341.185 C-273.605 337.021 -273.585 332.862 -273.618 328.698 C-273.621 327.283 -273.608 325.869 -273.579 324.455 C-273.35 312.655 -273.35 312.655 -276.658 309.013 C-279.071 307.451 -279.071 307.451 -281.471 306.312 C-285.342 304.342 -287.059 301.098 -288.685 297.185 C-289.804 293.247 -290.581 289.263 -291.373 285.248 C-293.332 276.341 -294.82 271.267 -302.408 265.916 C-307.064 262.377 -308.256 257.187 -309.435 251.685 C-309.733 247.508 -309.77 243.371 -309.685 239.185 C-310.51 239 -311.335 238.814 -312.185 238.623 C-320.679 235.134 -325.763 228.286 -329.685 220.185 C-332.526 212.096 -331.791 200.178 -328.154 192.502 C-324.211 186.284 -319.322 180.542 -312.685 177.185 C-311.695 177.185 -310.705 177.185 -309.685 177.185 C-309.69 176.889 -309.69 176.889 -309.717 175.388 C-310.055 153.256 -309.388 135.401 -293.88 118.181 C-288.891 113.395 -282.947 110.589 -276.759 107.666 C-273.685 106.185 -273.685 106.185 -270.685 104.185 C-271.251 103.472 -271.817 102.76 -272.4 102.025 C-280.037 92.053 -280.037 92.053 -279.685 86.185 C-278.339 83.238 -277.6 81.643 -274.685 80.185 C-271.202 79.798 -269.32 79.775 -266.341 81.701 C-262.949 84.873 -260.551 88.389 -257.998 92.248 C-257.512 92.968 -257.027 93.688 -256.527 94.429 C-255.239 96.343 -253.96 98.263 -252.685 100.185 C-252.355 100.68 -252.355 100.68 -250.685 103.185 C-248.246 103.566 -248.246 103.566 -245.126 103.573 C-244.539 103.578 -244.539 103.578 -241.569 103.602 C-240.285 103.596 -239.001 103.59 -237.677 103.584 C-236.333 103.587 -234.989 103.591 -233.644 103.597 C-230.033 103.606 -226.422 103.593 -222.811 103.572 C-220.557 103.56 -218.303 103.552 -216.049 103.545 C-179.557 103.413 -144.039 100.272 -107.851 95.523 C-97.658 94.204 -87.497 92.889 -77.208 92.728 C-76.489 92.707 -75.77 92.686 -75.029 92.665 C-71.674 92.688 -69.933 93 -67.215 95.026 C-65.685 97.185 -65.685 97.185 -65.685 100.185 C-59.415 99.855 -53.145 99.525 -46.685 99.185 C-46.403 96.839 -46.121 94.493 -45.831 92.076 C-44.894 84.299 -43.941 76.525 -42.981 68.751 C-42.399 64.04 -41.823 59.329 -41.259 54.617 C-40.714 50.063 -40.155 45.512 -39.586 40.962 C-39.373 39.231 -39.164 37.499 -38.96 35.767 C-36.35 13.643 -36.35 13.643 -28.685 6.185 C-19.472 -0.015 -10.816 -0.001 0 0 Z M-194.685 220.185 C-198.795 227.068 -201.788 234.649 -204.927 242.01 C-205.115 242.449 -205.115 242.449 -206.065 244.67 C-207.626 248.326 -209.187 251.981 -210.721 255.648 C-220.705 279.471 -220.705 279.471 -231.31 284.685 C-234.718 285.985 -238.044 286.812 -241.685 287.185 C-241.728 287.5 -241.728 287.5 -241.947 289.092 C-242.966 295.303 -244.41 300.437 -248.685 305.185 C-250.228 305.874 -251.778 306.547 -253.333 307.209 C-255.875 308.852 -257.397 310.057 -258.163 313.054 C-258.842 318.875 -258.501 324.722 -258.248 330.56 C-258.202 332.364 -258.161 334.167 -258.125 335.97 C-258.026 340.378 -257.87 344.781 -257.685 349.185 C-254.602 349.36 -251.521 349.466 -248.435 349.56 C-247.562 349.611 -246.69 349.661 -245.791 349.713 C-243.291 349.77 -241.121 349.763 -238.685 349.185 C-237.347 347.189 -236.014 345.188 -234.685 343.185 C-227.614 341.321 -219.49 342.065 -212.234 342.119 C-211.029 342.124 -209.825 342.129 -208.584 342.134 C-205.309 342.147 -202.034 342.164 -198.759 342.183 C-195.314 342.2 -191.869 342.21 -188.423 342.219 C-176.714 342.252 -165.005 342.294 -153.296 342.357 C-146.813 342.391 -140.331 342.415 -133.848 342.427 C-130.428 342.434 -127.007 342.446 -123.586 342.472 C-119.769 342.499 -115.953 342.506 -112.136 342.51 C-111.578 342.516 -111.578 342.516 -108.751 342.547 C-98.734 342.522 -90.673 341.006 -83.31 333.955 C-77.894 328.057 -77.419 322.517 -77.491 314.808 C-77.875 307.644 -79.119 300.602 -80.275 293.529 C-80.542 291.852 -80.809 290.175 -81.075 288.497 C-81.771 284.118 -82.479 279.741 -83.19 275.364 C-83.768 271.783 -84.339 268.201 -84.909 264.62 C-85.591 260.339 -86.276 256.059 -86.962 251.779 C-87.093 250.966 -87.223 250.154 -87.357 249.316 C-87.726 247.019 -88.097 244.722 -88.47 242.426 C-88.524 242.087 -88.524 242.087 -88.799 240.373 C-89.305 237.268 -89.898 234.23 -90.685 231.185 C-102.576 229.224 -114.467 227.268 -126.36 225.318 C-131.882 224.413 -137.404 223.505 -142.926 222.594 C-148.255 221.714 -153.585 220.84 -158.915 219.968 C-160.948 219.635 -162.98 219.3 -165.013 218.963 C-167.861 218.492 -170.709 218.026 -173.559 217.562 C-174.397 217.422 -175.236 217.282 -176.1 217.137 C-189.832 214.922 -189.832 214.922 -194.685 220.185 Z " fill="#010101" transform="translate(361.68505859375,32.814697265625)"/>
<path d="M0 0 C0.889 -0.002 1.778 -0.004 2.693 -0.006 C3.676 -0.003 4.658 -0 5.67 0.003 C6.709 0.002 7.748 0.001 8.819 0 C12.323 -0.001 15.827 0.004 19.331 0.01 C21.833 0.01 24.336 0.01 26.839 0.009 C32.239 0.009 37.638 0.012 43.038 0.017 C50.846 0.025 58.653 0.028 66.46 0.029 C79.126 0.031 91.792 0.038 104.458 0.048 C116.764 0.057 129.07 0.064 141.376 0.068 C142.135 0.068 142.893 0.069 143.674 0.069 C147.477 0.07 151.281 0.071 155.084 0.073 C186.652 0.083 218.219 0.101 249.787 0.123 C249.869 3.144 249.928 6.164 249.975 9.186 C249.987 9.609 249.987 9.609 250.051 11.754 C250.137 19.156 248.582 24.846 243.564 30.596 C241.198 32.63 238.633 34.036 235.912 35.561 C226.592 40.826 221.015 46.703 217.359 56.993 C215.303 64.653 216.006 73.036 216.096 80.893 C216.099 82.985 216.101 85.077 216.1 87.169 C216.105 91.531 216.129 95.891 216.17 100.253 C216.221 105.829 216.232 111.404 216.23 116.98 C216.231 121.291 216.247 125.602 216.269 129.913 C216.278 131.969 216.284 134.025 216.287 136.081 C216.293 138.954 216.319 141.827 216.351 144.7 C216.35 145.54 216.349 146.379 216.347 147.243 C216.454 153.875 217.983 159.019 221.35 164.811 C228.878 171.953 237.027 172.838 247.021 172.725 C248.258 172.733 249.495 172.741 250.769 172.749 C254.692 172.772 258.614 172.763 262.537 172.748 C266.474 172.744 270.411 172.748 274.348 172.769 C276.79 172.781 279.231 172.778 281.673 172.759 C292.377 172.794 292.377 172.794 296.787 176.123 C300.833 181.029 301.323 184.426 301.037 190.498 C301.019 191.234 301.001 191.97 300.982 192.729 C300.936 194.527 300.864 196.325 300.787 198.123 C272.192 198.237 243.596 198.326 215 198.378 C211.626 198.385 208.251 198.391 204.876 198.398 C204.541 198.398 204.541 198.398 202.841 198.402 C191.957 198.423 181.073 198.463 170.189 198.509 C159.025 198.556 147.86 198.583 136.696 198.593 C130.423 198.6 124.151 198.615 117.879 198.652 C111.979 198.686 106.08 198.696 100.18 198.689 C98.011 198.69 95.842 198.7 93.673 198.719 C90.718 198.744 87.765 198.738 84.81 198.724 C83.946 198.739 83.082 198.753 82.192 198.768 C76.397 198.696 76.397 198.696 73.252 195.741 C71.646 192.87 71.316 191.302 71.396 188.041 C71.409 187.11 71.422 186.178 71.436 185.219 C71.469 184.259 71.503 183.299 71.537 182.311 C71.555 181.332 71.573 180.352 71.592 179.344 C71.639 176.936 71.704 174.53 71.787 172.123 C72.198 171.995 72.198 171.995 74.279 171.346 C85.837 167.382 93.371 161.823 98.85 150.873 C103.564 140.89 103.751 131.564 101.353 120.885 C100.693 117.663 100.266 114.448 99.85 111.186 C98.683 102.134 97.24 93.133 95.787 84.123 C95.291 81.045 94.796 77.967 94.302 74.889 C93.96 72.759 93.616 70.629 93.272 68.5 C92.455 63.413 91.662 58.325 90.936 53.225 C90.87 52.767 90.87 52.767 90.537 50.449 C90.294 48.738 90.057 47.027 89.826 45.315 C88.693 37.354 88.693 37.354 86.787 35.123 C81.042 33.177 75.197 32.292 69.213 31.389 C68.7 31.309 68.7 31.309 66.104 30.908 C63.907 30.568 61.71 30.231 59.513 29.895 C53.766 29.016 48.021 28.122 42.275 27.229 C41.702 27.14 41.702 27.14 38.802 26.689 C28.454 25.08 18.117 23.405 7.787 21.686 C7.029 21.56 6.27 21.435 5.489 21.306 C3.379 20.957 1.271 20.605 -0.838 20.252 C-2.006 20.057 -3.174 19.862 -4.377 19.66 C-7.213 19.123 -7.213 19.123 -10.213 18.123 C-10.902 7.372 -10.902 7.372 -8.338 3.498 C-5.492 0.317 -4.107 -0.002 0 0 Z " fill="#668C97" transform="translate(196.2129077911377,216.87695217132568)"/>
<path d="M0 0 C6.6 0 13.2 0 20 0 C19.918 2.289 19.835 4.579 19.75 6.938 C19.628 15.774 21.757 22.568 28 29 C33.209 32.701 38.507 34.242 44.863 34.291 C45.428 34.297 45.428 34.297 48.292 34.329 C49.501 34.331 50.711 34.334 51.957 34.336 C53.215 34.343 54.472 34.349 55.768 34.356 C58.425 34.366 61.081 34.372 63.739 34.371 C67.121 34.37 70.503 34.398 73.885 34.432 C77.138 34.46 80.391 34.459 83.645 34.461 C84.246 34.468 84.246 34.468 87.291 34.504 C97.388 34.45 104.726 32.097 112 25 C112.706 23.687 113.382 22.357 114 21 C117.352 21.587 120.675 22.276 124 23 C125.143 23.245 126.287 23.49 127.465 23.742 C135.618 25.743 141.643 28.355 147 35 C149.598 39.434 150.363 42.589 150.293 47.711 C150.283 48.955 150.274 50.199 150.264 51.48 C150.239 52.766 150.213 54.051 150.188 55.375 C150.174 56.683 150.16 57.992 150.146 59.34 C150.111 62.56 150.062 65.78 150 69 C149.345 69 149.345 69 146.03 69.002 C114.911 69.016 83.791 69.055 52.672 69.127 C48.839 69.136 45.007 69.144 41.174 69.153 C40.411 69.154 39.648 69.156 38.862 69.158 C26.518 69.184 14.174 69.193 1.829 69.196 C-10.843 69.199 -23.515 69.221 -36.187 69.261 C-44.002 69.284 -51.818 69.293 -59.633 69.284 C-65.632 69.278 -71.631 69.298 -77.63 69.328 C-80.087 69.336 -82.543 69.336 -85 69.327 C-88.36 69.315 -91.719 69.334 -95.079 69.361 C-96.046 69.35 -97.013 69.339 -98.009 69.328 C-105.419 69.438 -112.075 71.414 -117.657 76.513 C-122.307 81.876 -123.33 86.284 -123.625 93.25 C-123.664 93.995 -123.702 94.74 -123.742 95.508 C-123.836 97.338 -123.919 99.169 -124 101 C-124.641 101.219 -125.281 101.438 -125.941 101.664 C-137.049 105.736 -141.615 110.992 -146.551 121.555 C-150.492 130.234 -154.3 138.976 -158.076 147.728 C-166.64 167.564 -166.64 167.564 -172 171 C-180.202 173.734 -187.645 170.454 -195.428 167.843 C-198.341 166.888 -201.271 165.993 -204.203 165.098 C-206.365 164.42 -208.526 163.742 -210.688 163.062 C-211.727 162.751 -212.767 162.44 -213.838 162.119 C-219.998 160.141 -223.5 158.533 -227 153 C-227.961 150.118 -228.106 148.301 -228.062 145.312 C-228.053 144.504 -228.044 143.696 -228.035 142.863 C-228.024 142.248 -228.012 141.634 -228 141 C-227.238 140.792 -226.476 140.585 -225.691 140.371 C-215.892 137.447 -208.087 133.267 -202.996 124.09 C-199.056 115.823 -197.312 107.927 -199.879 98.914 C-203.684 88.942 -208.677 82.57 -218.375 78.008 C-221.533 76.795 -224.737 75.888 -228 75 C-228.059 71.375 -228.094 67.75 -228.125 64.125 C-228.142 63.112 -228.159 62.099 -228.176 61.055 C-228.257 48.309 -226.182 38.306 -216.961 28.926 C-206.147 19.862 -194.895 18.29 -181.336 18.582 C-179.734 18.597 -178.132 18.608 -176.53 18.618 C-172.327 18.648 -168.126 18.707 -163.924 18.773 C-156.458 18.888 -148.991 18.959 -141.523 19.02 C-141.121 19.023 -141.121 19.023 -139.085 19.041 C-125.849 19.144 -112.784 18.558 -99.604 17.254 C-95.932 16.896 -92.256 16.613 -88.578 16.324 C-86.135 16.116 -83.692 15.904 -81.25 15.688 C-80.59 15.629 -79.929 15.571 -79.249 15.511 C-65.86 14.312 -52.55 12.593 -39.241 10.714 C-30.668 9.518 -22.206 8.666 -13.553 8.331 C-9.702 7.972 -6.58 7.491 -3 6 C-2.01 4.02 -1.02 2.04 0 0 Z " fill="#CAE4E7" transform="translate(296,133)"/>
<path d="M0 0 C1.022 0.01 2.043 0.019 3.096 0.029 C3.623 0.042 3.623 0.042 6.293 0.105 C6.83 0.112 6.83 0.112 9.549 0.146 C12.193 0.182 14.837 0.231 17.48 0.293 C17.485 0.666 17.485 0.666 17.509 2.553 C17.563 5.967 17.646 9.38 17.73 12.793 C17.745 13.966 17.759 15.139 17.773 16.348 C17.972 23.412 18.607 28.317 22.48 34.293 C26.672 37.629 30.154 39.408 35.508 39.44 C36.325 39.447 37.142 39.454 37.984 39.462 C38.431 39.463 38.431 39.463 40.69 39.47 C41.162 39.473 41.162 39.473 43.549 39.49 C46.676 39.51 49.803 39.521 52.93 39.531 C53.998 39.535 55.067 39.539 56.167 39.544 C61.824 39.564 67.481 39.579 73.137 39.588 C78.974 39.599 84.81 39.634 90.646 39.673 C95.139 39.699 99.632 39.708 104.124 39.711 C106.275 39.716 108.426 39.728 110.577 39.746 C113.593 39.771 116.608 39.77 119.624 39.763 C120.507 39.776 121.39 39.789 122.299 39.802 C128.105 39.753 132.677 38.681 137.48 35.293 C146.13 24.426 142.852 16.621 143.48 0.293 C169.88 0.293 196.28 0.293 223.48 0.293 C223.81 7.883 224.14 15.473 224.48 23.293 C229.004 32.339 229.004 32.339 231.918 34.668 C232.474 35.129 233.029 35.591 233.602 36.066 C238.871 39.507 243.596 39.585 249.7 39.571 C250.165 39.574 250.165 39.574 252.521 39.589 C255.643 39.606 258.764 39.609 261.886 39.612 C264.123 39.621 266.36 39.631 268.597 39.642 C274.673 39.67 280.749 39.685 286.825 39.698 C293.174 39.713 299.523 39.74 305.872 39.766 C316.529 39.807 327.186 39.842 337.843 39.871 C348.818 39.901 359.794 39.936 370.77 39.976 C371.109 39.977 371.109 39.977 372.821 39.983 C376.216 39.995 379.611 40.008 383.006 40.02 C411.164 40.124 439.322 40.213 467.48 40.293 C467.568 44.001 467.621 47.709 467.668 51.418 C467.681 51.941 467.681 51.941 467.744 54.59 C467.798 60.238 467.771 64.456 464.48 69.293 C459.995 73.358 455.699 73.439 449.897 73.427 C449.114 73.43 448.33 73.432 447.523 73.434 C444.876 73.441 442.23 73.441 439.583 73.44 C437.675 73.443 435.767 73.447 433.859 73.451 C428.598 73.461 423.337 73.465 418.077 73.468 C412.41 73.472 406.743 73.481 401.076 73.49 C387.384 73.51 373.691 73.52 359.999 73.529 C353.555 73.533 347.112 73.538 340.669 73.544 C319.26 73.561 297.851 73.575 276.442 73.582 C275.057 73.583 273.672 73.583 272.288 73.584 C271.944 73.584 271.944 73.584 270.207 73.584 C266.727 73.586 263.248 73.587 259.769 73.588 C259.424 73.588 259.424 73.588 257.676 73.589 C235.282 73.597 212.888 73.62 190.493 73.653 C166.824 73.687 143.155 73.707 119.485 73.71 C106.58 73.712 93.674 73.721 80.769 73.746 C69.781 73.768 58.794 73.776 47.806 73.766 C42.198 73.762 36.589 73.764 30.98 73.783 C25.849 73.801 20.717 73.8 15.586 73.784 C13.727 73.782 11.867 73.786 10.008 73.798 C7.485 73.813 4.964 73.804 2.441 73.788 C2.078 73.793 2.078 73.793 0.241 73.819 C-4.794 73.75 -7.637 72.444 -11.52 69.293 C-15.574 63.834 -14.97 57.621 -14.953 51.105 C-14.958 49.93 -14.964 48.754 -14.969 47.542 C-14.975 45.061 -14.974 42.58 -14.966 40.099 C-14.957 36.306 -14.986 32.515 -15.018 28.723 C-15.019 26.309 -15.019 23.895 -15.016 21.48 C-15.027 20.349 -15.038 19.218 -15.05 18.052 C-14.996 12.015 -14.856 7.904 -10.52 3.293 C-6.964 0.548 -4.449 -0.075 0 0 Z " fill="#CAE4E7" transform="translate(29.51953125,389.70703125)"/>
<path d="M0 0 C83.82 0 167.64 0 254 0 C254 23.342 254 23.342 247.777 30.473 C245.411 32.506 242.846 33.912 240.125 35.438 C230.805 40.703 225.228 46.58 221.572 56.87 C219.516 64.53 220.219 72.913 220.309 80.77 C220.312 82.862 220.314 84.954 220.313 87.046 C220.317 91.408 220.342 95.768 220.383 100.13 C220.434 105.706 220.445 111.281 220.443 116.857 C220.444 121.168 220.46 125.479 220.482 129.79 C220.491 131.846 220.497 133.902 220.499 135.958 C220.506 138.831 220.532 141.704 220.564 144.577 C220.563 145.417 220.561 146.256 220.56 147.12 C220.651 152.719 221.801 156.846 224 162 C224.33 162.99 224.66 163.98 225 165 C220.959 165.117 216.918 165.187 212.875 165.25 C211.733 165.284 210.591 165.317 209.414 165.352 C198.812 165.475 198.812 165.475 194 161 C189.896 155.565 188.878 151.872 188.795 145.142 C188.785 144.449 188.775 143.756 188.765 143.042 C188.733 140.753 188.708 138.465 188.684 136.176 C188.663 134.588 188.642 133.001 188.621 131.413 C188.565 127.236 188.516 123.058 188.468 118.881 C188.418 114.618 188.362 110.355 188.307 106.092 C188.199 97.728 188.098 89.364 188 81 C187.396 81.411 186.792 81.823 186.17 82.247 C185.37 82.787 184.57 83.326 183.746 83.883 C182.956 84.418 182.167 84.953 181.353 85.504 C172.689 91.011 161.986 91.53 152 90 C142.292 87.305 133.733 81.103 128.48 72.516 C123.124 62.328 121.072 51.507 123.652 40.121 C127.817 28.699 136.65 19.831 147.5 14.562 C156.044 11.479 167.039 11.49 175.562 14.625 C187.214 20.273 195.514 29.368 199.906 41.504 C200.635 43.661 201.335 45.822 202 48 C213.362 41.713 217.457 36.116 222 24 C222.66 16.41 223.32 8.82 224 1 C150.08 1 76.16 1 0 1 C0 0.67 0 0.34 0 0 Z " fill="#527882" transform="translate(192,217)"/>
<path d="M0 0 C0.757 0.003 1.513 0.006 2.292 0.008 C3.884 0.021 5.475 0.051 7.065 0.096 C9.493 0.164 11.917 0.178 14.346 0.184 C15.897 0.203 17.449 0.225 19 0.25 C19.721 0.256 20.442 0.263 21.185 0.27 C25.568 0.414 28.493 1.016 31.934 3.789 C34.239 7.343 34.576 11.205 35.079 15.321 C35.176 16.074 35.274 16.827 35.375 17.604 C35.696 20.093 36.007 22.583 36.316 25.074 C36.537 26.813 36.759 28.553 36.98 30.292 C37.444 33.94 37.902 37.589 38.357 41.239 C38.937 45.891 39.529 50.542 40.126 55.192 C40.585 58.787 41.039 62.383 41.49 65.979 C41.705 67.692 41.923 69.405 42.143 71.118 C45.167 94.768 45.167 94.768 42.684 100.852 C40.208 103.592 38.126 104.665 34.436 105.05 C33.969 105.052 33.969 105.052 31.602 105.064 C31.069 105.068 31.069 105.068 28.376 105.093 C27.231 105.092 26.086 105.091 24.906 105.09 C23.725 105.094 22.544 105.098 21.327 105.103 C18.83 105.109 16.333 105.109 13.835 105.105 C10.014 105.102 6.194 105.125 2.373 105.15 C-0.053 105.153 -2.48 105.153 -4.906 105.152 C-6.049 105.162 -7.192 105.171 -8.369 105.18 C-9.437 105.174 -10.505 105.168 -11.605 105.161 C-12.073 105.162 -12.073 105.162 -14.442 105.163 C-17.654 104.705 -19.485 103.741 -22.066 101.789 C-27.628 93.51 -23.212 78.925 -22.09 69.559 C-21.987 68.694 -21.884 67.829 -21.778 66.938 C-21.234 62.371 -20.682 57.805 -20.124 53.24 C-19.551 48.541 -19.008 43.84 -18.471 39.138 C-18.05 35.503 -17.607 31.87 -17.157 28.238 C-16.947 26.506 -16.746 24.773 -16.553 23.039 C-14.666 6.198 -14.666 6.198 -9.803 1.774 C-6.625 -0.028 -3.538 -0.131 0 0 Z " fill="#EB6060" transform="translate(354.06640625,48.2109375)"/>
<path d="M0 0 C8.61 5.991 14.558 13.752 17.867 23.68 C19.073 36.799 18.145 47.166 10.18 57.93 C6.273 62.539 2.21 65.869 -3.133 68.68 C-3.772 69.019 -4.412 69.358 -5.07 69.707 C-13.536 73.295 -25.519 73.579 -34.129 70.391 C-44.39 65.882 -51.341 59.322 -56.125 49.27 C-59.819 39.776 -61.131 29.07 -57.57 19.305 C-52.437 8.482 -43.511 -0.553 -32.133 -4.66 C-20.833 -7.147 -9.88 -6.116 0 0 Z " fill="#020303" transform="translate(374.1328125,235.3203125)"/>
<path d="M0 0 C0.766 0.081 1.531 0.162 2.32 0.246 C2.711 0.278 2.711 0.278 4.688 0.438 C4.978 0.478 4.978 0.478 6.445 0.684 C8.503 4.152 8.929 7.29 9.375 11.273 C9.45 11.922 9.525 12.57 9.603 13.238 C9.764 14.635 9.922 16.033 10.077 17.432 C10.492 21.165 10.93 24.895 11.367 28.625 C11.411 29.005 11.411 29.005 11.635 30.927 C12.503 38.32 13.524 45.688 14.57 53.059 C15.841 62.043 17 71.019 17.85 80.054 C18.165 83.358 18.608 86.476 19.445 89.684 C19.648 91.867 19.648 91.867 19.695 94.121 C19.721 94.862 19.747 95.604 19.773 96.367 C19.328 99.514 18.425 101.187 16.445 103.684 C13.414 104.315 13.414 104.315 9.73 104.312 C9.078 104.315 8.426 104.317 7.754 104.32 C6.377 104.319 4.999 104.305 3.621 104.281 C1.518 104.246 -0.582 104.26 -2.686 104.279 C-4.026 104.272 -5.367 104.263 -6.707 104.25 C-7.315 104.245 -7.315 104.245 -10.394 104.217 C-14.114 103.589 -15.264 102.613 -17.555 99.684 C-21.512 91.769 -17.613 78.094 -16.578 69.453 C-16.475 68.588 -16.372 67.724 -16.266 66.833 C-15.722 62.266 -15.17 57.7 -14.612 53.134 C-14.039 48.436 -13.496 43.735 -12.959 39.033 C-12.538 35.397 -12.095 31.765 -11.646 28.133 C-11.436 26.401 -11.234 24.668 -11.041 22.934 C-8.734 2.337 -8.734 2.337 0 0 Z " fill="#F17A7A" transform="translate(348.5546875,48.31640625)"/>
<path d="M0 0 C6.6 0 13.2 0 20 0 C20.66 1.65 21.32 3.3 22 5 C24.829 7.829 26.799 7.314 30.758 7.414 C31.421 7.433 32.084 7.453 32.767 7.473 C34.886 7.533 37.005 7.579 39.125 7.625 C40.561 7.663 41.997 7.702 43.434 7.742 C46.956 7.838 50.478 7.922 54 8 C54.058 11.792 54.094 15.583 54.125 19.375 C54.142 20.455 54.159 21.535 54.176 22.648 C54.182 23.68 54.189 24.711 54.195 25.773 C54.206 26.727 54.216 27.68 54.227 28.662 C54 31 54 31 52 33 C49.088 33.199 46.272 33.273 43.359 33.259 C42.465 33.262 41.571 33.266 40.649 33.269 C37.683 33.278 34.716 33.272 31.75 33.266 C29.695 33.267 27.64 33.269 25.585 33.271 C21.274 33.274 16.963 33.27 12.652 33.261 C7.117 33.249 1.582 33.256 -3.953 33.268 C-8.198 33.275 -12.443 33.273 -16.687 33.268 C-18.729 33.266 -20.77 33.268 -22.812 33.273 C-25.661 33.278 -28.51 33.27 -31.359 33.259 C-32.209 33.263 -33.059 33.267 -33.935 33.271 C-39.771 33.229 -39.771 33.229 -42 31 C-42.227 28.662 -42.227 28.662 -42.195 25.773 C-42.19 24.845 -42.185 23.916 -42.18 22.958 C-42.162 21.776 -42.144 20.593 -42.125 19.375 C-42.084 15.621 -42.042 11.868 -42 8 C-33.09 8 -24.18 8 -15 8 C-14.34 11.3 -13.68 14.6 -13 18 C-10.159 19.42 -8.145 19.315 -5 19 C-2.852 17.465 -2.852 17.465 -1 15 C-0.546 12.267 -0.308 9.98 -0.25 7.25 C-0.167 4.858 -0.085 2.465 0 0 Z " fill="#8DB9C4" transform="translate(104,382)"/>
<path d="M0 0 C6.054 2.683 10.234 7.716 13.785 13.18 C15.947 18.904 15.725 27.153 13.742 32.934 C10.373 38.642 4.836 43.942 -1.383 46.383 C-10.79 47.33 -17.509 46.489 -25.07 40.758 C-30.63 35.649 -32.585 29.83 -32.945 22.383 C-32.709 16.381 -31.216 12.025 -27.383 7.383 C-24.881 5.079 -22.289 3.145 -19.383 1.383 C-19.077 1.195 -19.077 1.195 -17.527 0.246 C-12.25 -1.878 -5.434 -1.407 0 0 Z " fill="#E2F1F3" transform="translate(362.3828125,245.6171875)"/>
<path d="M0 0 C3.313 0.552 4.586 1.218 7 3.5 C7.503 5.532 7.503 5.532 7.508 7.903 C7.519 8.803 7.53 9.703 7.542 10.63 C7.538 11.123 7.538 11.123 7.518 13.615 C7.521 14.135 7.521 14.135 7.539 16.764 C7.556 20.208 7.545 23.65 7.531 27.094 C7.534 29.481 7.538 31.869 7.543 34.256 C7.549 39.263 7.54 44.27 7.521 49.277 C7.499 55.703 7.512 62.129 7.536 68.556 C7.55 73.487 7.546 78.418 7.535 83.349 C7.533 85.719 7.536 88.089 7.545 90.459 C7.555 93.768 7.54 97.076 7.518 100.385 C7.526 101.37 7.534 102.355 7.542 103.37 C7.531 104.27 7.52 105.17 7.508 106.097 C7.506 106.88 7.505 107.662 7.503 108.468 C7 110.5 7 110.5 5.156 112.244 C2.177 113.98 0.39 114.065 -3 113.5 C-5.4 111.373 -6.803 109.619 -7.369 106.41 C-7.522 103.784 -7.54 101.186 -7.518 98.557 C-7.525 97.559 -7.532 96.562 -7.539 95.534 C-7.556 92.241 -7.545 88.949 -7.531 85.656 C-7.534 83.366 -7.538 81.076 -7.543 78.786 C-7.549 73.987 -7.54 69.189 -7.521 64.391 C-7.499 58.241 -7.512 52.091 -7.536 45.94 C-7.55 41.212 -7.546 36.483 -7.535 31.754 C-7.533 29.487 -7.536 27.219 -7.545 24.951 C-7.555 21.781 -7.54 18.613 -7.518 15.443 C-7.526 14.506 -7.534 13.569 -7.542 12.603 C-7.487 8.406 -7.346 6.079 -5.155 2.41 C-3 0.5 -3 0.5 0 0 Z " fill="#89B4BF" transform="translate(468,147.5)"/>
<path d="M0 0 C21.7 4.664 21.7 4.664 29 13 C31.605 17.429 32.363 20.593 32.293 25.711 C32.289 26.272 32.289 26.272 32.27 29.111 C32.243 30.518 32.216 31.925 32.188 33.375 C32.126 37.871 32.064 42.368 32 47 C22.1 47 12.2 47 2 47 C1.939 44.11 1.879 41.22 1.816 38.242 C1.755 35.432 1.691 32.622 1.628 29.812 C1.584 27.865 1.543 25.917 1.503 23.97 C1.445 21.165 1.381 18.36 1.316 15.555 C1.3 14.689 1.283 13.823 1.266 12.931 C1.159 8.526 0.867 4.337 0 0 Z " fill="#A7D2D7" transform="translate(414,155)"/>
<path d="M0 0 C5.041 2.251 8.062 5.523 10.672 10.352 C12.734 16.538 11.758 21.526 9.016 27.266 C6.285 31.504 2.428 33.766 -2.328 35.352 C-8.303 35.954 -13.032 35.407 -18.328 32.352 C-21.922 28.949 -24.899 25.005 -25.699 20.055 C-25.876 13.508 -24.588 9.364 -20.328 4.352 C-14.239 -1.172 -8.02 -2.234 0 0 Z " fill="#2DCDDE" transform="translate(71.328125,223.6484375)"/>
<path d="M0 0 C10.23 0 20.46 0 31 0 C31.062 3.671 31.124 7.342 31.188 11.125 C31.201 11.698 31.201 11.698 31.27 14.598 C31.315 20.139 31.227 24.257 28 29 C23.989 32.635 20.528 33.125 15.238 33.098 C14.12 33.094 13.002 33.091 11.85 33.088 C10.682 33.08 9.515 33.071 8.312 33.062 C7.134 33.058 5.955 33.053 4.74 33.049 C1.827 33.037 -1.087 33.021 -4 33 C-3.76 32.474 -3.76 32.474 -2.543 29.812 C-0.365 24.005 -0.436 18.136 -0.312 12 C-0.209 8.04 -0.106 4.08 0 0 Z " fill="#A7D2D7" transform="translate(466,430)"/>
<path d="M0 0 C3.34 0.99 4.375 1.301 6.375 4 C6.769 6.453 6.769 6.453 6.795 9.402 C6.811 10.507 6.827 11.611 6.843 12.75 C6.843 13.943 6.844 15.137 6.844 16.367 C6.851 17.594 6.859 18.821 6.867 20.085 C6.878 22.682 6.88 25.28 6.876 27.877 C6.875 31.853 6.917 35.826 6.961 39.801 C6.966 42.323 6.969 44.845 6.969 47.367 C6.985 48.557 7.002 49.747 7.018 50.972 C6.941 60.159 6.941 60.159 4.064 63.282 C1.375 65 1.375 65 -2.25 65.125 C-5.625 64 -5.625 64 -7.31 61.77 C-8.736 58.767 -9.015 56.859 -9.045 53.555 C-9.053 53.022 -9.053 53.022 -9.093 50.329 C-9.093 49.189 -9.094 48.049 -9.094 46.875 C-9.101 45.695 -9.109 44.516 -9.117 43.3 C-9.128 40.809 -9.13 38.318 -9.126 35.826 C-9.125 32.014 -9.167 28.203 -9.211 24.391 C-9.216 21.969 -9.219 19.547 -9.219 17.125 C-9.235 15.985 -9.252 14.846 -9.268 13.671 C-9.2 5.81 -9.2 5.81 -6.314 1.742 C-3.625 0 -3.625 0 0 0 Z " fill="#010202" transform="translate(354.625,325)"/>
<path d="M0 0 C4.042 -0.087 8.083 -0.141 12.125 -0.188 C13.267 -0.213 14.409 -0.238 15.586 -0.264 C26.591 -0.36 26.591 -0.36 31 3 C35.186 7.727 35.529 11.384 35.25 17.375 C35.168 19.891 35.085 22.408 35 25 C25.1 25 15.2 25 5 25 C4.935 23.21 4.935 23.21 4.609 14.258 C4.141 9.145 2.074 4.648 0 0 Z " fill="#527882" transform="translate(462,390)"/>
<path d="M0 0 C5.61 0 11.22 0 17 0 C17.054 3.792 17.094 7.583 17.125 11.375 C17.142 12.455 17.159 13.535 17.176 14.648 C17.182 15.68 17.189 16.711 17.195 17.773 C17.206 18.727 17.216 19.68 17.227 20.662 C17 23 17 23 15 25 C12.078 25.188 9.25 25.252 6.328 25.227 C5.43 25.227 4.532 25.228 3.608 25.228 C0.632 25.227 -2.344 25.211 -5.32 25.195 C-7.38 25.192 -9.44 25.189 -11.5 25.187 C-16.928 25.179 -22.357 25.159 -27.785 25.137 C-33.322 25.117 -38.858 25.108 -44.395 25.098 C-55.263 25.076 -66.132 25.042 -77 25 C-77 24.67 -77 24.34 -77 24 C-51.59 24 -26.18 24 0 24 C0 16.08 0 8.16 0 0 Z " fill="#7DA2B1" transform="translate(141,390)"/>
<path d="M0 0 C3.565 2.185 5.324 6.2 6.527 10.098 C8.073 17.974 7.051 24.187 3.422 31.289 C1.938 33.188 1.938 33.188 -0.012 34.121 C-2.755 34.21 -3.597 33.435 -5.625 31.625 C-10.165 27.367 -12.19 23.564 -12.562 17.312 C-12.347 10.491 -9.192 6.317 -4.5 1.625 C-2.062 0.188 -2.062 0.188 0 0 Z " fill="#69D5E3" transform="translate(58.0625,223.8125)"/>
<path d="M0 0 C6.82 1.574 13.382 3.728 20 6 C19.759 10.734 19.637 13.126 16.812 17 C14 19 14 19 11 19.625 C6.767 18.743 5.548 17.512 3 14 C1.328 9.418 0 4.896 0 0 Z " fill="#66D0DD" transform="translate(85,311)"/>
</svg>
