<?xml version="1.0" encoding="UTF-8"?>
<!-- Generator: visioncortex VTracer 0.6.12 -->
<svg version="1.1" xmlns="http://www.w3.org/2000/svg" width="512" height="512">
<path d="M0 0 C0.745 -0.004 1.49 -0.008 2.257 -0.012 C4.773 -0.022 7.289 -0.018 9.804 -0.014 C11.618 -0.019 13.432 -0.024 15.246 -0.03 C20.246 -0.044 25.247 -0.046 30.247 -0.045 C35.634 -0.047 41.02 -0.06 46.407 -0.072 C58.192 -0.094 69.977 -0.102 81.762 -0.107 C89.115 -0.111 96.469 -0.117 103.823 -0.124 C124.171 -0.144 144.519 -0.16 164.867 -0.163 C166.17 -0.163 167.473 -0.164 168.815 -0.164 C171.457 -0.164 174.098 -0.165 176.74 -0.165 C178.051 -0.165 179.362 -0.165 180.713 -0.165 C181.37 -0.166 181.37 -0.166 184.691 -0.166 C205.976 -0.17 227.26 -0.197 248.544 -0.234 C270.38 -0.272 292.215 -0.291 314.05 -0.292 C326.317 -0.292 338.583 -0.301 350.85 -0.33 C361.293 -0.354 371.736 -0.362 382.179 -0.346 C387.51 -0.339 392.841 -0.34 398.172 -0.363 C403.049 -0.383 407.925 -0.381 412.802 -0.36 C414.57 -0.356 416.338 -0.362 418.106 -0.376 C420.503 -0.394 422.898 -0.381 425.295 -0.361 C425.987 -0.373 426.679 -0.386 427.391 -0.399 C431.096 -0.331 432.706 0.208 435.664 2.506 C437.737 5.213 438.512 6.641 439.002 9.953 C439.14 10.826 439.278 11.699 439.421 12.599 C439.537 13.477 439.653 14.355 439.773 15.26 C439.891 16.059 440.009 16.857 440.131 17.68 C440.487 20.176 440.805 22.674 441.115 25.176 C441.175 25.649 441.175 25.649 441.479 28.043 C441.877 31.185 442.27 34.327 442.662 37.47 C442.948 39.735 443.234 41.999 443.52 44.263 C444.295 50.395 445.064 56.528 445.832 62.661 C446.313 66.497 446.794 70.334 447.276 74.17 C448.613 84.814 449.95 95.458 451.281 106.103 C451.366 106.783 451.451 107.462 451.538 108.163 C451.711 109.54 451.883 110.917 452.055 112.295 C452.098 112.637 452.098 112.637 452.314 114.367 C452.357 114.709 452.357 114.709 452.574 116.441 C453.96 127.528 455.355 138.614 456.754 149.7 C458.193 161.111 459.626 172.522 461.053 183.934 C461.852 190.33 462.655 196.725 463.464 203.12 C464.225 209.137 464.978 215.155 465.724 221.174 C465.998 223.375 466.276 225.575 466.556 227.775 C470.49 258.661 470.49 258.661 466.586 264.573 C461.449 267.654 456.242 267.402 450.389 267.38 C449.969 267.381 449.969 267.381 447.84 267.383 C445.022 267.385 442.205 267.379 439.387 267.374 C437.367 267.373 435.346 267.373 433.326 267.374 C427.841 267.374 422.356 267.368 416.871 267.361 C411.139 267.355 405.406 267.355 399.674 267.353 C388.819 267.35 377.964 267.342 367.11 267.332 C352.442 267.319 337.774 267.313 323.105 267.308 C299.995 267.298 276.884 267.278 253.773 267.26 C253.773 300.59 253.773 333.92 253.773 368.26 C265.983 368.26 278.193 368.26 290.773 368.26 C297.475 370.941 297.475 370.941 299.773 374.26 C300.74 378.96 300.379 382.062 298.205 386.362 C296.109 388.769 294.892 389.238 291.709 389.821 C287.539 390.046 283.405 390.072 279.23 390.036 C277.622 390.045 276.013 390.055 274.405 390.068 C270.041 390.096 265.678 390.085 261.314 390.066 C256.747 390.051 252.18 390.065 247.612 390.074 C239.942 390.085 232.272 390.071 224.602 390.042 C215.736 390.01 206.87 390.02 198.003 390.053 C190.389 390.08 182.775 390.084 175.162 390.069 C170.615 390.059 166.068 390.058 161.521 390.078 C157.246 390.095 152.972 390.083 148.697 390.048 C147.129 390.041 145.56 390.043 143.991 390.056 C132.161 390.147 132.161 390.147 128.732 387.956 C125.545 384.293 125.015 381.021 125.281 376.381 C126.092 372.884 127.941 371.32 130.773 369.26 C134.876 367.947 138.993 368.134 143.258 368.162 C143.981 368.163 144.704 368.164 145.449 368.165 C148.141 368.171 150.832 368.185 153.523 368.198 C159.546 368.218 165.568 368.239 171.773 368.26 C171.773 355.06 171.773 341.86 171.773 328.26 C107.753 328.26 43.733 328.26 -22.227 328.26 C-22.227 372.15 -22.227 416.04 -22.227 461.26 C57.303 461.26 136.833 461.26 218.773 461.26 C219.763 458.29 220.753 455.32 221.773 452.26 C226.424 443.124 234.093 435.806 243.773 432.26 C249.243 430.705 254.23 429.959 259.93 429.954 C260.702 429.945 261.474 429.937 262.269 429.928 C264.794 429.905 267.318 429.896 269.843 429.889 C271.611 429.88 273.379 429.871 275.147 429.862 C278.84 429.845 282.533 429.837 286.227 429.835 C290.952 429.829 295.677 429.791 300.403 429.746 C304.049 429.716 307.695 429.709 311.341 429.708 C313.083 429.704 314.825 429.691 316.568 429.67 C319.004 429.643 321.439 429.648 323.875 429.661 C324.232 429.653 324.232 429.653 326.039 429.616 C331.667 429.698 333.966 431.411 337.773 435.26 C338.955 437.938 339.032 440.355 338.773 443.26 C337.19 447.01 335.264 449.207 331.773 451.26 C328.382 451.601 328.382 451.601 324.383 451.553 C323.093 451.546 321.804 451.538 320.475 451.53 C318.841 451.503 317.207 451.476 315.523 451.448 C310.326 451.386 305.128 451.324 299.773 451.26 C299.773 464.46 299.773 477.66 299.773 491.26 C313.836 491.073 313.836 491.073 318.23 490.99 C330.228 490.912 330.228 490.912 335.773 494.26 C338.648 497.404 338.773 498.962 338.773 503.26 C338.482 506.273 337.644 507.424 335.723 509.85 C332.046 512.854 329.308 512.963 324.761 512.891 C323.968 512.898 323.176 512.905 322.359 512.913 C319.744 512.93 317.13 512.91 314.515 512.889 C312.688 512.89 310.861 512.892 309.033 512.896 C305.202 512.899 301.37 512.884 297.539 512.857 C292.653 512.823 287.769 512.829 282.883 512.848 C279.106 512.858 275.33 512.849 271.553 512.834 C269.754 512.829 267.954 512.83 266.155 512.836 C250.665 512.87 239.457 510.814 228.023 499.533 C223.65 494.744 220.817 489.392 218.773 483.26 C217.47 483.258 216.166 483.255 214.823 483.253 C183.884 483.195 152.945 483.123 122.005 483.031 C118.198 483.02 114.39 483.009 110.582 482.998 C109.824 482.995 109.066 482.993 108.285 482.991 C96.009 482.956 83.733 482.931 71.458 482.91 C58.862 482.888 46.267 482.855 33.672 482.811 C25.9 482.785 18.127 482.767 10.354 482.761 C4.395 482.755 -1.563 482.733 -7.522 482.706 C-9.968 482.697 -12.413 482.693 -14.858 482.695 C-18.193 482.697 -21.528 482.68 -24.862 482.659 C-25.833 482.664 -26.804 482.668 -27.804 482.673 C-33.008 482.619 -36.767 482.253 -41.227 479.26 C-43.63 475.656 -43.482 474.032 -43.494 469.745 C-43.499 469.08 -43.503 468.416 -43.508 467.731 C-43.521 465.499 -43.519 463.268 -43.517 461.036 C-43.523 459.438 -43.53 457.839 -43.538 456.241 C-43.555 451.896 -43.56 447.551 -43.561 443.206 C-43.563 439.58 -43.571 435.955 -43.578 432.329 C-43.594 423.775 -43.599 415.221 -43.597 406.667 C-43.596 397.84 -43.617 389.014 -43.649 380.187 C-43.675 372.612 -43.686 365.036 -43.685 357.461 C-43.684 352.935 -43.69 348.41 -43.711 343.884 C-43.73 339.627 -43.73 335.371 -43.716 331.114 C-43.714 329.552 -43.718 327.99 -43.731 326.428 C-43.746 324.295 -43.737 322.163 -43.721 320.029 C-43.722 318.836 -43.723 317.642 -43.725 316.413 C-43.123 312.605 -41.941 310.953 -39.227 308.26 C-35.443 306.999 -31.911 307.125 -27.97 307.14 C-27.544 307.139 -27.544 307.139 -25.388 307.137 C-22.523 307.136 -19.658 307.141 -16.792 307.147 C-14.743 307.147 -12.693 307.147 -10.643 307.146 C-5.069 307.146 0.505 307.152 6.079 307.159 C11.9 307.165 17.722 307.166 23.544 307.167 C34.572 307.17 45.6 307.178 56.629 307.188 C69.182 307.199 81.736 307.205 94.29 307.21 C120.118 307.22 145.945 307.239 171.773 307.26 C171.773 294.06 171.773 280.86 171.773 267.26 C165.595 267.271 159.416 267.281 153.05 267.292 C132.666 267.325 112.282 267.347 91.898 267.364 C79.536 267.374 67.174 267.388 54.811 267.411 C44.037 267.431 33.263 267.444 22.489 267.448 C16.784 267.451 11.078 267.457 5.373 267.472 C0.003 267.485 -5.366 267.489 -10.736 267.486 C-12.707 267.487 -14.678 267.491 -16.65 267.498 C-19.341 267.508 -22.032 267.506 -24.723 267.501 C-25.113 267.503 -25.113 267.503 -27.087 267.518 C-32.705 267.487 -37.026 266.913 -41.576 263.497 C-47.855 254.991 -41.774 233.705 -40.521 223.826 C-40.229 221.48 -39.938 219.133 -39.648 216.786 C-38.863 210.448 -38.067 204.113 -37.268 197.777 C-36.769 193.816 -36.273 189.855 -35.778 185.894 C-35.696 185.234 -35.613 184.575 -35.528 183.895 C-35.361 182.554 -35.194 181.214 -35.026 179.873 C-33.461 167.343 -31.885 154.813 -30.305 142.285 C-28.861 130.829 -27.429 119.372 -26.004 107.914 C-24.538 96.126 -23.064 84.34 -21.58 72.554 C-20.748 65.946 -19.92 59.338 -19.1 52.728 C-18.329 46.522 -17.548 40.317 -16.758 34.113 C-16.47 31.835 -16.186 29.558 -15.906 27.28 C-15.523 24.172 -15.126 21.066 -14.726 17.961 C-14.619 17.058 -14.511 16.155 -14.399 15.225 C-13.758 10.376 -12.893 6.474 -10.227 2.26 C-6.651 -0.124 -4.126 -0.023 0 0 Z " fill="#FDFDFE" transform="translate(43.22681999206543,-0.26006221771240234)"/>
<path d="M0 0 C0.745 -0.004 1.49 -0.008 2.257 -0.012 C4.773 -0.022 7.289 -0.018 9.804 -0.014 C11.618 -0.019 13.432 -0.024 15.246 -0.03 C20.246 -0.044 25.247 -0.046 30.247 -0.045 C35.634 -0.047 41.02 -0.06 46.407 -0.072 C58.192 -0.094 69.977 -0.102 81.762 -0.107 C89.115 -0.111 96.469 -0.117 103.823 -0.124 C124.171 -0.144 144.519 -0.16 164.867 -0.163 C166.17 -0.163 167.473 -0.164 168.815 -0.164 C171.457 -0.164 174.098 -0.165 176.74 -0.165 C178.051 -0.165 179.362 -0.165 180.713 -0.165 C181.37 -0.166 181.37 -0.166 184.691 -0.166 C205.976 -0.17 227.26 -0.197 248.544 -0.234 C270.38 -0.272 292.215 -0.291 314.05 -0.292 C326.317 -0.292 338.583 -0.301 350.85 -0.33 C361.293 -0.354 371.736 -0.362 382.179 -0.346 C387.51 -0.339 392.841 -0.34 398.172 -0.363 C403.049 -0.383 407.925 -0.381 412.802 -0.36 C414.57 -0.356 416.338 -0.362 418.106 -0.376 C420.503 -0.394 422.898 -0.381 425.295 -0.361 C425.987 -0.373 426.679 -0.386 427.391 -0.399 C431.096 -0.331 432.706 0.208 435.664 2.506 C437.737 5.213 438.512 6.641 439.002 9.953 C439.14 10.826 439.278 11.699 439.421 12.599 C439.537 13.477 439.653 14.355 439.773 15.26 C439.891 16.059 440.009 16.857 440.131 17.68 C440.487 20.176 440.805 22.674 441.115 25.176 C441.175 25.649 441.175 25.649 441.479 28.043 C441.877 31.185 442.27 34.327 442.662 37.47 C442.948 39.735 443.234 41.999 443.52 44.263 C444.295 50.395 445.064 56.528 445.832 62.661 C446.313 66.497 446.794 70.334 447.276 74.17 C448.613 84.814 449.95 95.458 451.281 106.103 C451.366 106.783 451.451 107.462 451.538 108.163 C451.711 109.54 451.883 110.917 452.055 112.295 C452.098 112.637 452.098 112.637 452.314 114.367 C452.357 114.709 452.357 114.709 452.574 116.441 C453.96 127.528 455.355 138.614 456.754 149.7 C458.193 161.111 459.626 172.522 461.053 183.934 C461.852 190.33 462.655 196.725 463.464 203.12 C464.225 209.137 464.978 215.155 465.724 221.174 C465.998 223.375 466.276 225.575 466.556 227.775 C470.49 258.661 470.49 258.661 466.586 264.573 C461.449 267.654 456.242 267.402 450.389 267.38 C449.969 267.381 449.969 267.381 447.84 267.383 C445.022 267.385 442.205 267.379 439.387 267.374 C437.367 267.373 435.346 267.373 433.326 267.374 C427.841 267.374 422.356 267.368 416.871 267.361 C411.139 267.355 405.406 267.355 399.674 267.353 C388.819 267.35 377.964 267.342 367.11 267.332 C352.442 267.319 337.774 267.313 323.105 267.308 C299.995 267.298 276.884 267.278 253.773 267.26 C253.773 300.59 253.773 333.92 253.773 368.26 C265.983 368.26 278.193 368.26 290.773 368.26 C297.475 370.941 297.475 370.941 299.773 374.26 C300.74 378.96 300.379 382.062 298.205 386.362 C296.109 388.769 294.892 389.238 291.709 389.821 C287.539 390.046 283.405 390.072 279.23 390.036 C277.622 390.045 276.013 390.055 274.405 390.068 C270.041 390.096 265.678 390.085 261.314 390.066 C256.747 390.051 252.18 390.065 247.612 390.074 C239.942 390.085 232.272 390.071 224.602 390.042 C215.736 390.01 206.87 390.02 198.003 390.053 C190.389 390.08 182.775 390.084 175.162 390.069 C170.615 390.059 166.068 390.058 161.521 390.078 C157.246 390.095 152.972 390.083 148.697 390.048 C147.129 390.041 145.56 390.043 143.991 390.056 C132.161 390.147 132.161 390.147 128.732 387.956 C125.545 384.293 125.015 381.021 125.281 376.381 C126.092 372.884 127.941 371.32 130.773 369.26 C134.876 367.947 138.993 368.134 143.258 368.162 C143.981 368.163 144.704 368.164 145.449 368.165 C148.141 368.171 150.832 368.185 153.523 368.198 C159.546 368.218 165.568 368.239 171.773 368.26 C171.773 355.06 171.773 341.86 171.773 328.26 C107.753 328.26 43.733 328.26 -22.227 328.26 C-22.227 372.15 -22.227 416.04 -22.227 461.26 C57.303 461.26 136.833 461.26 218.773 461.26 C219.763 458.29 220.753 455.32 221.773 452.26 C226.424 443.124 234.093 435.806 243.773 432.26 C249.243 430.705 254.23 429.959 259.93 429.954 C260.702 429.945 261.474 429.937 262.269 429.928 C264.794 429.905 267.318 429.896 269.843 429.889 C271.611 429.88 273.379 429.871 275.147 429.862 C278.84 429.845 282.533 429.837 286.227 429.835 C290.952 429.829 295.677 429.791 300.403 429.746 C304.049 429.716 307.695 429.709 311.341 429.708 C313.083 429.704 314.825 429.691 316.568 429.67 C319.004 429.643 321.439 429.648 323.875 429.661 C324.232 429.653 324.232 429.653 326.039 429.616 C331.667 429.698 333.966 431.411 337.773 435.26 C338.955 437.938 339.032 440.355 338.773 443.26 C337.19 447.01 335.264 449.207 331.773 451.26 C328.382 451.601 328.382 451.601 324.383 451.553 C323.093 451.546 321.804 451.538 320.475 451.53 C318.841 451.503 317.207 451.476 315.523 451.448 C310.326 451.386 305.128 451.324 299.773 451.26 C299.773 464.46 299.773 477.66 299.773 491.26 C313.836 491.073 313.836 491.073 318.23 490.99 C330.228 490.912 330.228 490.912 335.773 494.26 C338.648 497.404 338.773 498.962 338.773 503.26 C338.482 506.273 337.644 507.424 335.723 509.85 C332.046 512.854 329.308 512.963 324.761 512.891 C323.968 512.898 323.176 512.905 322.359 512.913 C319.744 512.93 317.13 512.91 314.515 512.889 C312.688 512.89 310.861 512.892 309.033 512.896 C305.202 512.899 301.37 512.884 297.539 512.857 C292.653 512.823 287.769 512.829 282.883 512.848 C279.106 512.858 275.33 512.849 271.553 512.834 C269.754 512.829 267.954 512.83 266.155 512.836 C250.665 512.87 239.457 510.814 228.023 499.533 C223.65 494.744 220.817 489.392 218.773 483.26 C217.47 483.258 216.166 483.255 214.823 483.253 C183.884 483.195 152.945 483.123 122.005 483.031 C118.198 483.02 114.39 483.009 110.582 482.998 C109.824 482.995 109.066 482.993 108.285 482.991 C96.009 482.956 83.733 482.931 71.458 482.91 C58.862 482.888 46.267 482.855 33.672 482.811 C25.9 482.785 18.127 482.767 10.354 482.761 C4.395 482.755 -1.563 482.733 -7.522 482.706 C-9.968 482.697 -12.413 482.693 -14.858 482.695 C-18.193 482.697 -21.528 482.68 -24.862 482.659 C-25.833 482.664 -26.804 482.668 -27.804 482.673 C-33.008 482.619 -36.767 482.253 -41.227 479.26 C-43.63 475.656 -43.482 474.032 -43.494 469.745 C-43.499 469.08 -43.503 468.416 -43.508 467.731 C-43.521 465.499 -43.519 463.268 -43.517 461.036 C-43.523 459.438 -43.53 457.839 -43.538 456.241 C-43.555 451.896 -43.56 447.551 -43.561 443.206 C-43.563 439.58 -43.571 435.955 -43.578 432.329 C-43.594 423.775 -43.599 415.221 -43.597 406.667 C-43.596 397.84 -43.617 389.014 -43.649 380.187 C-43.675 372.612 -43.686 365.036 -43.685 357.461 C-43.684 352.935 -43.69 348.41 -43.711 343.884 C-43.73 339.627 -43.73 335.371 -43.716 331.114 C-43.714 329.552 -43.718 327.99 -43.731 326.428 C-43.746 324.295 -43.737 322.163 -43.721 320.029 C-43.722 318.836 -43.723 317.642 -43.725 316.413 C-43.123 312.605 -41.941 310.953 -39.227 308.26 C-35.443 306.999 -31.911 307.125 -27.97 307.14 C-27.544 307.139 -27.544 307.139 -25.388 307.137 C-22.523 307.136 -19.658 307.141 -16.792 307.147 C-14.743 307.147 -12.693 307.147 -10.643 307.146 C-5.069 307.146 0.505 307.152 6.079 307.159 C11.9 307.165 17.722 307.166 23.544 307.167 C34.572 307.17 45.6 307.178 56.629 307.188 C69.182 307.199 81.736 307.205 94.29 307.21 C120.118 307.22 145.945 307.239 171.773 307.26 C171.773 294.06 171.773 280.86 171.773 267.26 C165.595 267.271 159.416 267.281 153.05 267.292 C132.666 267.325 112.282 267.347 91.898 267.364 C79.536 267.374 67.174 267.388 54.811 267.411 C44.037 267.431 33.263 267.444 22.489 267.448 C16.784 267.451 11.078 267.457 5.373 267.472 C0.003 267.485 -5.366 267.489 -10.736 267.486 C-12.707 267.487 -14.678 267.491 -16.65 267.498 C-19.341 267.508 -22.032 267.506 -24.723 267.501 C-25.113 267.503 -25.113 267.503 -27.087 267.518 C-32.705 267.487 -37.026 266.913 -41.576 263.497 C-47.855 254.991 -41.774 233.705 -40.521 223.826 C-40.229 221.48 -39.938 219.133 -39.648 216.786 C-38.863 210.448 -38.067 204.113 -37.268 197.777 C-36.769 193.816 -36.273 189.855 -35.778 185.894 C-35.696 185.234 -35.613 184.575 -35.528 183.895 C-35.361 182.554 -35.194 181.214 -35.026 179.873 C-33.461 167.343 -31.885 154.813 -30.305 142.285 C-28.861 130.829 -27.429 119.372 -26.004 107.914 C-24.538 96.126 -23.064 84.34 -21.58 72.554 C-20.748 65.946 -19.92 59.338 -19.1 52.728 C-18.329 46.522 -17.548 40.317 -16.758 34.113 C-16.47 31.835 -16.186 29.558 -15.906 27.28 C-15.523 24.172 -15.126 21.066 -14.726 17.961 C-14.619 17.058 -14.511 16.155 -14.399 15.225 C-13.758 10.376 -12.893 6.474 -10.227 2.26 C-6.651 -0.124 -4.126 -0.023 0 0 Z M5.773 20.26 C3.463 38.74 1.153 57.22 -1.227 76.26 C-1.887 81.54 -2.547 86.82 -3.227 92.26 C-3.227 95.89 -3.227 99.52 -3.227 103.26 C26.803 103.26 56.833 103.26 87.773 103.26 C87.113 107.22 86.453 111.18 85.773 115.26 C85.383 118.499 85.018 121.726 84.703 124.971 C84.617 125.828 84.531 126.684 84.442 127.567 C84.264 129.353 84.088 131.139 83.913 132.926 C83.647 135.651 83.372 138.375 83.097 141.1 C82.924 142.849 82.751 144.597 82.578 146.346 C82.497 147.152 82.415 147.959 82.332 148.789 C82.258 149.551 82.184 150.313 82.109 151.097 C82.076 151.428 82.076 151.428 81.912 153.101 C81.738 155.815 81.773 158.54 81.773 161.26 C51.083 161.26 20.393 161.26 -11.227 161.26 C-13.056 171.624 -14.803 181.833 -16.051 192.256 C-16.202 193.496 -16.353 194.735 -16.509 196.013 C-16.823 198.599 -17.135 201.186 -17.444 203.773 C-17.916 207.715 -18.4 211.654 -18.885 215.594 C-19.191 218.127 -19.496 220.66 -19.801 223.194 C-19.945 224.357 -20.088 225.521 -20.237 226.72 C-20.367 227.826 -20.497 228.931 -20.632 230.07 C-20.747 231.027 -20.862 231.984 -20.981 232.97 C-21.311 237.388 -21.227 241.829 -21.227 246.26 C133.213 246.26 287.653 246.26 446.773 246.26 C446.773 235.01 446.773 235.01 446.27 231.099 C446.16 230.217 446.049 229.334 445.935 228.424 C445.814 227.501 445.692 226.578 445.566 225.627 C445.44 224.633 445.314 223.639 445.184 222.614 C444.782 219.454 444.372 216.294 443.961 213.135 C443.696 211.071 443.433 209.008 443.17 206.944 C442.638 202.775 442.103 198.607 441.566 194.439 C440.423 185.549 439.317 176.655 438.21 167.762 C437.443 161.609 436.673 155.457 435.904 149.304 C435.421 145.446 434.939 141.587 434.457 137.729 C434.26 136.155 434.063 134.58 433.866 133.006 C429.169 95.424 424.471 57.842 419.773 20.26 C283.153 20.26 146.533 20.26 5.773 20.26 Z " fill="#052A75" transform="translate(43.22681999206543,-0.26006221771240234)"/>
<path d="M0 0 C33.99 0 67.98 0 103 0 C103 21.45 103 42.9 103 65 C66.7 65 30.4 65 -7 65 C-6.39 56.466 -5.754 47.99 -4.844 39.492 C-4.737 38.478 -4.629 37.464 -4.519 36.42 C-4.295 34.307 -4.07 32.195 -3.843 30.083 C-3.497 26.847 -3.157 23.611 -2.816 20.375 C-2.597 18.31 -2.377 16.245 -2.156 14.18 C-2.055 13.216 -1.954 12.253 -1.85 11.26 C-1.753 10.364 -1.656 9.469 -1.557 8.546 C-1.473 7.763 -1.389 6.979 -1.303 6.171 C-1 4 -1 4 0 0 Z " fill="#6864F6" transform="translate(143,181)"/>
<path d="M0 0 C33.99 0 67.98 0 103 0 C104.111 2.222 104.293 3.822 104.557 6.288 C104.605 6.732 104.605 6.732 104.85 8.982 C104.901 9.466 104.901 9.466 105.156 11.914 C105.263 12.916 105.371 13.919 105.481 14.952 C105.708 17.085 105.933 19.219 106.157 21.353 C106.494 24.564 106.838 27.774 107.184 30.984 C107.404 33.065 107.624 35.146 107.844 37.227 C107.894 37.696 107.894 37.696 108.15 40.073 C109.012 48.387 109.477 56.632 110 65 C73.7 65 37.4 65 0 65 C0 43.55 0 22.1 0 0 Z " fill="#6864F6" transform="translate(266,181)"/>
<path d="M0 0 C30.36 0 60.72 0 92 0 C94.251 7.877 94.251 7.877 94.778 12.042 C94.898 12.97 95.018 13.899 95.141 14.855 C95.262 15.837 95.383 16.82 95.508 17.832 C95.573 18.348 95.573 18.348 95.903 20.959 C96.176 23.134 96.447 25.31 96.714 27.487 C97.123 30.792 97.543 34.096 97.965 37.4 C98.23 39.523 98.494 41.646 98.758 43.77 C98.883 44.746 99.008 45.722 99.137 46.728 C99.193 47.197 99.193 47.197 99.481 49.57 C99.582 50.379 99.682 51.188 99.786 52.022 C100.096 56.338 100 60.674 100 65 C68.98 65 37.96 65 6 65 C5.01 56.75 4.02 48.5 3 40 C2.687 37.48 2.374 34.96 2.051 32.363 C1.805 30.346 1.558 28.329 1.312 26.312 C1.183 25.303 1.053 24.293 0.92 23.252 C-0.03 15.336 0 8.123 0 0 Z " fill="#6764F6" transform="translate(390,181)"/>
<path d="M0 0 C0.33 0.99 0.66 1.98 1 3 C31.36 3 61.72 3 93 3 C91.965 24.734 89.457 46.38 87 68 C55.98 68 24.96 68 -7 68 C-7 56.75 -7 56.75 -6.357 51.541 C-6.217 50.38 -6.077 49.22 -5.933 48.024 C-5.78 46.807 -5.627 45.59 -5.469 44.336 C-5.391 43.699 -5.391 43.699 -4.998 40.478 C-4.589 37.127 -4.173 33.777 -3.755 30.427 C-3.328 26.995 -2.909 23.562 -2.488 20.129 C-1.665 13.418 -0.835 6.709 0 0 Z " fill="#6763F6" transform="translate(29,178)"/>
<path d="M0 0 C30.03 0 60.06 0 91 0 C92.155 9.096 93.31 18.191 94.5 27.562 C94.865 30.422 95.231 33.282 95.607 36.229 C95.895 38.508 96.182 40.787 96.469 43.066 C96.62 44.24 96.771 45.413 96.927 46.622 C96.998 47.19 96.998 47.19 97.357 50.065 C97.482 51.044 97.606 52.023 97.734 53.032 C98.031 56.343 98 59.676 98 63 C67.97 63 37.94 63 7 63 C4.753 50.639 4.753 50.639 4.219 44.453 C4.16 43.794 4.101 43.135 4.04 42.456 C3.855 40.388 3.677 38.319 3.5 36.25 C3.265 33.526 3.025 30.802 2.781 28.078 C2.722 27.411 2.662 26.744 2.601 26.057 C2.047 20.076 1.246 14.142 0.385 8.198 C0 5 0 5 0 0 Z " fill="#93B2F3" transform="translate(372,20)"/>
<path d="M0 0 C30.03 0 60.06 0 91 0 C85.75 57.75 85.75 57.75 84 63 C53.97 63 23.94 63 -7 63 C-6.395 53.92 -5.756 45.03 -4.59 36.035 C-4.531 35.571 -4.531 35.571 -4.235 33.222 C-3.808 29.835 -3.372 26.449 -2.938 23.062 C-1.968 15.452 -0.999 7.841 0 0 Z " fill="#6865F6" transform="translate(49,20)"/>
<path d="M0 0 C31.35 0 62.7 0 95 0 C97.339 19.295 99.45 38.625 101 58 C67.67 58 34.34 58 0 58 C0 38.86 0 19.72 0 0 Z " fill="#93B2F4" transform="translate(266,103)"/>
<path d="M0 0 C31.35 0 62.7 0 95 0 C95 19.14 95 38.28 95 58 C61.67 58 28.34 58 -6 58 C-3.686 31.386 -3.686 31.386 -2.438 20 C-2.312 18.827 -2.186 17.654 -2.057 16.445 C-1.461 10.942 -0.783 5.484 0 0 Z " fill="#6965F7" transform="translate(151,103)"/>
<path d="M0 0 C28.38 0 56.76 0 86 0 C87.762 12.925 89.515 25.806 90.935 38.766 C91.194 41.124 91.459 43.481 91.725 45.838 C91.894 47.362 92.062 48.886 92.23 50.41 C92.309 51.103 92.387 51.795 92.467 52.509 C92.851 56.054 93 59.418 93 63 C62.31 63 31.62 63 0 63 C0 42.21 0 21.42 0 0 Z " fill="#93B2F3" transform="translate(266,20)"/>
<path d="M0 0 C28.38 0 56.76 0 86 0 C86 20.79 86 41.58 86 63 C55.31 63 24.62 63 -7 63 C-5.782 50.823 -4.554 38.656 -3.195 26.495 C-2.932 24.142 -2.672 21.789 -2.412 19.436 C-2.242 17.909 -2.072 16.382 -1.902 14.855 C-1.826 14.167 -1.75 13.478 -1.672 12.769 C-1.192 8.495 -0.609 4.261 0 0 Z " fill="#93B2F3" transform="translate(160,20)"/>
<path d="M0 0 C0.33 0 0.66 0 1 0 C1.916 7.215 2.829 14.43 3.738 21.645 C4.16 24.996 4.583 28.347 5.009 31.697 C5.499 35.552 5.984 39.407 6.469 43.262 C6.622 44.461 6.775 45.66 6.933 46.895 C7.073 48.016 7.213 49.137 7.357 50.292 C7.482 51.275 7.606 52.259 7.734 53.273 C8 56 8 56 8 61 C-22.69 61 -53.38 61 -85 61 C-87.251 45.246 -87.251 45.246 -87.816 39.055 C-87.878 38.393 -87.939 37.731 -88.002 37.049 C-88.192 34.991 -88.378 32.933 -88.562 30.875 C-88.689 29.499 -88.816 28.122 -88.943 26.746 C-89.671 18.834 -90.34 10.919 -91 3 C-60.97 3 -30.94 3 0 3 C0 2.01 0 1.02 0 0 Z " fill="#93B2F3" transform="translate(472,100)"/>
<path d="M0 0 C0.33 0.99 0.66 1.98 1 3 C31.03 3 61.06 3 92 3 C91.396 10.245 90.784 17.479 90.062 24.711 C89.978 25.568 89.893 26.424 89.805 27.307 C89.627 29.093 89.449 30.879 89.271 32.666 C88.998 35.39 88.73 38.115 88.461 40.84 C88.287 42.589 88.112 44.337 87.938 46.086 C87.898 46.489 87.898 46.489 87.698 48.529 C87.621 49.291 87.544 50.053 87.465 50.837 C87.399 51.498 87.333 52.16 87.265 52.841 C86.93 55.572 86.452 58.285 86 61 C55.31 61 24.62 61 -7 61 C-6.36 52.685 -5.649 44.486 -4.59 36.23 C-4.458 35.183 -4.326 34.136 -4.191 33.058 C-3.776 29.767 -3.357 26.477 -2.938 23.188 C-2.653 20.934 -2.368 18.681 -2.084 16.428 C-1.393 10.951 -0.698 5.476 0 0 Z " fill="#6864F6" transform="translate(39,100)"/>
<path d="M0 0 C13.86 0 27.72 0 42 0 C42 33.99 42 67.98 42 103 C28.14 103 14.28 103 0 103 C0 69.01 0 35.02 0 0 Z " fill="#91AFF0" transform="translate(235,266)"/>
<path d="M0 0 C13.2 0 26.4 0 40 0 C40 17.49 40 34.98 40 53 C26.8 53 13.6 53 0 53 C0 35.51 0 18.02 0 0 Z " fill="#D1DBFC" transform="translate(236,316)"/>
<path d="M0 0 C21.45 0 42.9 0 65 0 C65 14.52 65 29.04 65 44 C48.733 35.866 48.733 35.866 41.688 31.312 C41.29 31.058 41.29 31.058 39.279 29.772 C5.188 7.781 5.188 7.781 0 0 Z " fill="#92B1F4" transform="translate(181,103)"/>
<path d="M0 0 C0.482 0.001 0.482 0.001 2.923 0.008 C3.531 0.012 3.531 0.012 6.609 0.035 C10.487 0.056 14.364 0.076 18.359 0.098 C18.359 13.958 18.359 27.818 18.359 42.098 C14.234 42.18 10.109 42.263 5.859 42.348 C4.575 42.384 3.29 42.42 1.967 42.458 C-5.571 42.531 -11.4 42.057 -17.154 36.685 C-22.431 30.777 -23.213 25.08 -23.082 17.398 C-22.295 11.51 -19.501 7.306 -14.824 3.695 C-9.877 0.693 -5.681 -0.03 0 0 Z " fill="#CDD8FA" transform="translate(304.640625,449.90234375)"/>
<path d="M0 0 C30.36 0 60.72 0 92 0 C93.478 2.957 93.06 5.742 93 9 C77.019 11.915 61.259 12.287 45.062 12.25 C44.053 12.249 43.044 12.248 42.005 12.247 C32.097 12.225 22.203 12.105 12.309 11.547 C11.964 11.528 11.964 11.528 10.222 11.431 C7.047 11.227 4.052 10.921 1 10 C0.67 11.32 0.34 12.64 0 14 C0 9.38 0 4.76 0 0 Z " fill="#92B1F4" transform="translate(390,181)"/>
<path d="M0 0 C11.88 0 23.76 0 36 0 C34.68 14.52 33.36 29.04 32 44 C31.67 44 31.34 44 31 44 C30.781 43.141 30.562 42.283 30.336 41.398 C28.77 37.415 26.47 34.73 23.625 31.625 C19.04 26.451 14.705 21.16 10.562 15.625 C10.079 14.984 9.596 14.343 9.098 13.682 C5.792 9.233 2.957 4.731 0 0 Z " fill="#93B1F3" transform="translate(104,20)"/>
<path d="M0 0 C11.22 0 22.44 0 34 0 C34.165 1.155 34.165 1.155 35 7 C30.174 7.129 25.901 6.729 21.191 5.688 C19.951 5.417 18.71 5.146 17.432 4.867 C16.793 4.724 16.793 4.724 13.562 4 C12.246 3.71 10.929 3.421 9.611 3.133 C6.406 2.428 3.202 1.717 0 1 C0 0.67 0 0.34 0 0 Z " fill="#92AFF4" transform="translate(335,181)"/>
<path d="M0 0 C1.155 0.495 1.155 0.495 7 3 C7 3.33 7 3.66 7 4 C4.69 4 2.38 4 0 4 C0 2.68 0 1.36 0 0 Z " fill="#7877F7" transform="translate(266,157)"/>
</svg>
