<?xml version="1.0" encoding="UTF-8"?>
<!-- Generator: visioncortex VTracer 0.6.12 -->
<svg version="1.1" xmlns="http://www.w3.org/2000/svg" width="512" height="512">
<path d="M0 0 C1.004 0.822 2.008 1.645 3.043 2.492 C26.529 22.699 41.326 53.31 44.774 83.899 C45.047 87.65 45.098 91.39 45.121 95.148 C45.129 95.864 45.137 96.58 45.145 97.318 C45.182 100.931 45.175 104.534 45.095 108.146 C45.033 117.934 45.033 117.934 47.731 120.909 C49.774 122.135 51.816 123.059 54 124 C55.84 126.098 55.84 126.098 56.938 128.062 C57.318 128.713 57.698 129.364 58.09 130.035 C60.816 135.919 60.222 142.274 60.25 148.625 C60.26 149.194 60.26 149.194 60.312 152.074 C60.369 164.305 57.682 173.999 49.113 182.977 C39.027 192.29 28.436 194.452 15 194 C14.925 194.802 14.85 195.604 14.773 196.43 C12.019 220.247 0.918 244.606 -18 260 C-18.971 260.456 -19.941 260.913 -20.941 261.383 C-24.705 263.296 -26.586 264.481 -29 268 C-30.438 276.283 -29.478 284.661 -29 293 C-20.75 297.29 -12.5 301.58 -4 306 C-3.01 303.03 -2.02 300.06 -1 297 C0.134 294.518 1.272 292.143 2.562 289.75 C2.905 289.113 3.247 288.476 3.6 287.82 C7.386 280.994 12.023 274.991 17 269 C17.669 268.178 18.338 267.355 19.027 266.508 C37.42 244.768 65.962 230.64 94.09 227.281 C130.675 224.65 163.408 234.36 191.312 258.438 C196.423 263.196 200.774 268.453 205 274 C205.606 274.79 206.212 275.58 206.836 276.395 C226.539 303.275 232.254 335.234 228.531 367.961 C227.897 371.742 227.073 375.32 226 379 C225.807 379.665 225.613 380.331 225.414 381.016 C222.851 389.572 219.43 397.578 215.312 405.5 C215.122 405.868 215.122 405.868 214.16 407.732 C211.377 412.874 211.377 412.874 208 414 C204.813 412.563 204.813 412.563 202 411 C201.876 411.278 201.876 411.278 201.25 412.688 C200 415 200 415 197.812 417.5 C196 420 196 420 196.062 422.062 C197.132 424.272 198.509 426.056 200 428 C198.432 429.702 196.845 431.386 195.25 433.062 C194.368 434.002 193.487 434.942 192.578 435.91 C190 438 190 438 187.812 437.906 C185.658 436.829 183.859 435.527 182 434 C180.874 434.957 179.749 435.916 178.625 436.875 C177.999 437.409 177.372 437.942 176.727 438.492 C175.442 439.614 174.206 440.794 173 442 C173.495 442.99 173.495 442.99 176 448 C153.723 462.801 129.587 468.345 103.017 468.241 C101.343 468.241 99.668 468.243 97.994 468.246 C93.431 468.25 88.867 468.242 84.304 468.232 C79.369 468.223 74.434 468.226 69.499 468.228 C60.961 468.229 52.424 468.223 43.886 468.211 C31.542 468.195 19.198 468.19 6.854 468.187 C-13.176 468.183 -33.206 468.17 -53.236 468.151 C-72.687 468.133 -92.138 468.118 -111.589 468.11 C-112.789 468.109 -113.989 468.109 -115.225 468.108 C-121.246 468.106 -127.267 468.103 -133.288 468.101 C-183.192 468.08 -233.096 468.045 -283 468 C-283.093 458.298 -283.164 448.596 -283.207 438.894 C-283.228 434.388 -283.256 429.882 -283.302 425.376 C-283.346 421.019 -283.369 416.662 -283.38 412.304 C-283.387 410.651 -283.401 408.997 -283.423 407.344 C-283.598 393.457 -281.739 382.296 -273 371 C-272.767 370.679 -272.767 370.679 -271.586 369.055 C-260.425 354.917 -242.911 347.494 -227.204 339.625 C-221.323 336.676 -215.523 333.584 -209.747 330.437 C-205.213 328 -205.213 328 -203 328 C-206.333 322.671 -209.67 317.41 -213.438 312.375 C-228.174 291.499 -233.146 265.993 -229.125 240.916 C-226.354 226.42 -221.038 212.427 -216.214 198.514 C-214.777 194.353 -213.381 190.18 -212 186 C-212.531 185.443 -213.062 184.886 -213.609 184.312 C-223.759 173.348 -226.354 163.824 -226.312 149.062 C-226.329 147.921 -226.345 146.78 -226.361 145.604 C-226.366 137.745 -225.924 131.478 -220.688 125.25 C-218 123 -218 123 -214.876 121.28 C-212 119 -212 119 -211.275 115.91 C-211.283 114.711 -211.292 113.512 -211.301 112.277 C-211.296 111.624 -211.29 110.971 -211.285 110.298 C-211.275 108.902 -211.279 107.505 -211.293 106.109 C-211.326 102.46 -211.25 98.813 -211.184 95.164 C-211.173 94.448 -211.162 93.731 -211.15 92.993 C-210.643 64.574 -199.477 32.981 -178.816 12.875 C-177.261 11.523 -175.64 10.248 -174 9 C-172.35 10.32 -170.7 11.64 -169 13 C-166.03 10.36 -163.06 7.72 -160 5 C-160.33 4.34 -160.33 4.34 -162 1 C-162.165 0.505 -162.165 0.505 -163 -2 C-118.282 -43.154 -44.514 -37.31 0 0 Z M-147 260 C-147.086 261.186 -147.173 262.372 -147.262 263.594 C-148.464 278.101 -151.651 290.832 -158 304 C-153.031 302.524 -148.712 300.405 -144.188 297.938 C-143.508 297.573 -142.828 297.209 -142.127 296.834 C-137.149 294.149 -137.149 294.149 -136 293 C-133.598 272.867 -133.598 272.867 -136.97 266.035 C-139.423 263.087 -142.457 261.351 -146 260 C-146.33 260 -146.66 260 -147 260 Z " fill="#020202" transform="translate(283,37)"/>
<path d="M0 0 C3.587 3.125 7.022 6.391 10.45 9.689 C11.096 10.261 11.742 10.832 12.407 11.42 C25.737 23.563 34.114 42.563 38.45 59.689 C38.676 60.558 38.901 61.427 39.134 62.322 C44.629 88.321 38.879 115.113 25.517 137.721 C24.45 139.689 24.45 139.689 24.45 141.689 C26.95 143.314 26.95 143.314 29.45 144.689 C28.382 147.993 27.079 150.224 24.763 152.752 C22.45 155.689 22.45 155.689 22.45 157.814 C23.589 159.949 24.984 161.769 26.45 163.689 C24.883 165.392 23.296 167.076 21.7 168.752 C21.259 169.222 21.259 169.222 19.028 171.6 C16.45 173.689 16.45 173.689 14.263 173.596 C12.109 172.519 10.309 171.216 8.45 169.689 C8.003 170.111 7.556 170.533 7.095 170.967 C1.09 176.408 1.09 176.408 -3.55 176.689 C-4.21 175.864 -4.21 175.864 -7.55 171.689 C-8.172 172.114 -8.795 172.538 -9.437 172.975 C-16.078 177.189 -22.668 180.022 -30.112 182.502 C-30.974 182.791 -31.835 183.081 -32.722 183.379 C-52.809 189.836 -76.485 190.694 -96.55 183.689 C-97.251 183.448 -97.952 183.207 -98.675 182.958 C-114.796 177.237 -127.375 168.554 -139.55 156.689 C-139.871 156.405 -139.871 156.405 -141.499 154.963 C-154.835 142.839 -163.221 123.807 -167.55 106.689 C-167.775 105.809 -168.001 104.929 -168.233 104.021 C-173.817 77.334 -167.678 49.644 -153.55 26.689 C-139.505 5.387 -118.367 -11.472 -93.55 -18.311 C-92.972 -18.496 -92.972 -18.496 -90.05 -19.436 C-60.127 -26.916 -23.719 -20.057 0 0 Z " fill="#93B5F5" transform="translate(456.5498046875,301.310546875)"/>
<path d="M0 0 C1.567 1.307 3.13 2.619 4.688 3.938 C5.301 4.417 5.915 4.897 6.547 5.391 C12.108 9.829 16.359 15.328 20.688 20.938 C21.297 21.72 21.907 22.502 22.535 23.309 C37.79 43.915 43.322 68.194 42.875 93.438 C42.86 94.954 42.846 96.471 42.834 97.988 C42.802 101.638 42.75 105.288 42.688 108.938 C40.085 109.039 37.486 109.113 34.883 109.172 C34.146 109.203 33.409 109.235 32.65 109.267 C27.174 109.36 27.174 109.36 24.672 107.186 C23.562 105.188 23.562 105.188 22.613 102.977 C20.787 98.955 16.961 97.466 13.068 95.851 C8.806 94.699 4.929 94.668 0.536 94.698 C-0.366 94.696 -1.267 94.694 -2.196 94.692 C-4.147 94.688 -6.098 94.689 -8.05 94.694 C-11.145 94.699 -14.239 94.69 -17.334 94.676 C-26.132 94.639 -34.929 94.621 -43.727 94.632 C-49.115 94.638 -54.504 94.62 -59.892 94.586 C-61.938 94.578 -63.984 94.579 -66.03 94.59 C-86.585 94.694 -86.585 94.694 -94.312 88.938 C-94.739 88.62 -94.739 88.62 -96.898 87.016 C-104.147 79.609 -106.312 74.434 -106.312 63.938 C-111.593 63.938 -116.873 63.938 -122.312 63.938 C-122.312 66.248 -122.312 68.558 -122.312 70.938 C-124.489 77.297 -128.35 81.885 -134.312 84.938 C-137.591 86.159 -140.671 86.859 -144.141 87.285 C-152.12 88.318 -157.568 90.178 -162.652 96.641 C-165.33 100.871 -165.571 103.746 -166.312 108.938 C-171.262 108.938 -176.213 108.938 -181.312 108.938 C-181.359 104.457 -181.399 99.978 -181.422 95.498 C-181.432 93.979 -181.446 92.46 -181.463 90.942 C-181.567 81.707 -181.204 73.022 -179.312 63.938 C-179.142 62.993 -178.971 62.048 -178.795 61.075 C-176.059 46.464 -167.86 31.237 -158.312 19.938 C-157.636 19.136 -156.959 18.334 -156.262 17.508 C-154.637 15.626 -152.993 13.77 -151.312 11.938 C-151.601 11.36 -151.89 10.782 -152.188 10.188 C-153.229 8.104 -154.271 6.021 -155.312 3.938 C-152.012 0.968 -148.713 -2.002 -145.312 -5.062 C-144.488 -4.403 -144.488 -4.403 -140.312 -1.062 C-140.312 -0.403 -140.312 0.258 -140.312 0.938 C-139.392 0.297 -138.472 -0.344 -137.523 -1.004 C-125.207 -9.467 -112.943 -16.379 -98.312 -20.062 C-97.759 -20.212 -97.759 -20.212 -94.961 -20.969 C-61.902 -28.614 -26.626 -21.06 0 0 Z " fill="#DF7E65" transform="translate(269.3125,46.0625)"/>
<path d="M0 0 C10.006 3.958 14.277 13.183 19.176 22.223 C20.402 24.451 21.63 26.679 22.859 28.906 C23.46 29.997 24.06 31.087 24.679 32.21 C27.889 37.975 31.261 43.642 34.633 49.312 C35.609 50.965 36.567 52.631 37.426 54.348 C38.086 54.348 38.746 54.348 39.426 54.348 C39.985 53.327 40.545 52.306 41.121 51.254 C46.204 42.018 51.395 32.847 56.676 23.723 C57.253 22.717 57.831 21.71 58.426 20.674 C69.002 2.489 69.002 2.489 78.426 -0.652 C80.569 -0.773 82.717 -0.828 84.863 -0.84 C85.996 -0.854 87.129 -0.868 88.297 -0.883 C91.28 -0.663 92.919 -0.211 95.426 1.348 C94.834 3.371 94.146 5.366 93.426 7.348 C93.204 7.97 92.982 8.593 92.754 9.234 C91.83 11.314 91.017 12.709 89.426 14.348 C87.267 14.659 87.267 14.659 84.754 14.762 C81.154 15.395 79.77 15.953 77.336 18.738 C75.287 22.076 73.451 25.486 71.676 28.973 C71.002 30.235 70.324 31.496 69.642 32.754 C68.597 34.688 67.556 36.622 66.527 38.565 C62.519 46.136 58.094 53.453 53.679 60.793 C53.132 61.718 52.586 62.642 52.023 63.594 C51.544 64.395 51.065 65.196 50.571 66.021 C49.324 68.554 48.662 70.531 48.426 73.348 C49.23 75.476 49.23 75.476 50.516 77.555 C50.97 78.306 51.424 79.056 51.893 79.83 C52.378 80.599 52.863 81.368 53.363 82.16 C53.845 82.948 54.326 83.737 54.822 84.549 C56.011 86.49 57.212 88.422 58.426 90.348 C58.922 89.817 59.418 89.285 59.93 88.738 C66.87 81.522 73.825 76.457 84.176 75.973 C92.916 76.183 101.294 80.137 107.426 86.348 C113.814 95.269 115.261 102.414 114.426 113.348 C112.429 121.478 106.84 127.753 100.301 132.723 C92.459 137.155 84.38 137.708 75.57 135.695 C63.985 131.51 58.503 122.964 52.801 112.535 C51.538 110.278 50.275 108.022 49.012 105.766 C48.712 105.225 48.712 105.225 47.198 102.49 C45.054 98.688 42.789 94.97 40.479 91.267 C39.426 89.348 39.426 89.348 39.426 87.348 C38.766 87.348 38.106 87.348 37.426 87.348 C37.158 88.057 36.89 88.766 36.614 89.497 C34.431 94.733 31.508 99.592 28.738 104.535 C28.138 105.621 27.538 106.707 26.92 107.826 C14.14 130.682 14.14 130.682 2.176 135.613 C-5.423 137.643 -13.796 137.632 -21.012 134.348 C-28.375 129.974 -34.142 124.396 -36.941 116.176 C-39.079 106.622 -38.263 98.505 -33.402 89.977 C-28.425 82.818 -22.031 78.504 -13.574 76.348 C-5.454 75.25 1.479 77.138 8.551 81.098 C12.148 83.913 15.272 87.055 18.426 90.348 C20.137 87.633 21.815 84.899 23.488 82.16 C23.974 81.391 24.459 80.622 24.959 79.83 C25.413 79.079 25.868 78.328 26.336 77.555 C26.548 77.212 26.548 77.212 27.621 75.476 C28.69 72.648 28.33 71.215 27.426 68.348 C26.173 65.806 26.173 65.806 24.574 63.086 C24.276 62.574 24.276 62.574 22.766 59.98 C22.118 58.885 21.469 57.789 20.801 56.66 C19.428 54.334 18.057 52.008 16.688 49.68 C16.335 49.082 15.983 48.485 15.62 47.87 C13.473 44.208 11.413 40.511 9.423 36.762 C8.458 34.945 7.479 33.136 6.497 31.329 C5.264 29.05 4.057 26.758 2.878 24.45 C-1.313 16.823 -1.313 16.823 -5.12 15.389 C-6.862 15.118 -8.613 14.896 -10.369 14.732 C-12.574 14.348 -12.574 14.348 -14.863 11.816 C-15.304 10.837 -15.745 9.857 -16.199 8.848 C-16.666 7.868 -17.132 6.888 -17.613 5.879 C-18.574 3.348 -18.574 3.348 -18.574 1.348 C-12.999 -1.963 -6.143 -1.557 0 0 Z " fill="#020203" transform="translate(353.57421875,316.65234375)"/>
<path d="M0 0 C0.66 0 1.32 0 2 0 C3.072 1.336 4.082 2.721 5.062 4.125 C8.821 9.059 12.63 11.991 18 15 C18.386 15.221 18.386 15.221 20.337 16.342 C29.546 20.897 38.486 20.676 48.524 20.592 C51.615 20.566 54.703 20.571 57.794 20.583 C64.342 20.604 70.889 20.585 77.438 20.562 C85.054 20.541 92.671 20.537 100.288 20.563 C103.329 20.566 106.369 20.545 109.41 20.523 C111.271 20.525 113.132 20.529 114.994 20.533 C115.415 20.527 115.415 20.527 117.546 20.494 C121.67 20.53 123.526 20.686 127.063 23.029 C127.702 23.68 128.341 24.33 129 25 C128.452 29.09 127.569 32.374 125.747 36.072 C125.513 36.55 125.513 36.55 124.33 38.972 C123.823 39.988 123.316 41.004 122.793 42.051 C122.532 42.578 122.532 42.578 121.212 45.246 C120.109 47.468 119.002 49.688 117.89 51.906 C116.189 55.31 114.511 58.726 112.834 62.143 C111.759 64.3 110.683 66.457 109.605 68.613 C109.104 69.639 108.603 70.665 108.087 71.722 C107.61 72.664 107.133 73.605 106.641 74.575 C106.227 75.408 105.812 76.24 105.385 77.098 C104 79 104 79 102.03 79.811 C98.893 80.103 96.246 79.278 93.207 78.488 C92.548 78.32 91.889 78.151 91.209 77.978 C89.802 77.617 88.396 77.252 86.991 76.884 C84.805 76.311 82.617 75.749 80.428 75.191 C77.566 74.462 74.706 73.728 71.846 72.991 C67.236 71.803 62.625 70.628 58 69.5 C56.804 69.201 55.608 68.902 54.375 68.594 C45.58 67.046 38.196 68.957 29.688 71.192 C27.541 71.756 25.392 72.307 23.241 72.855 C20.426 73.573 17.612 74.295 14.799 75.021 C10.122 76.226 5.442 77.417 0.75 78.562 C-0.493 78.873 -1.735 79.184 -3.016 79.504 C-5.99 79.998 -7.262 80.121 -10 79 C-11.43 77.062 -11.43 77.062 -12.749 74.487 C-13.249 73.525 -13.749 72.563 -14.265 71.571 C-14.791 70.52 -15.317 69.469 -15.859 68.387 C-16.409 67.307 -16.958 66.227 -17.524 65.114 C-18.684 62.82 -19.837 60.523 -20.983 58.221 C-22.731 54.726 -24.518 51.253 -26.309 47.779 C-27.432 45.546 -28.553 43.311 -29.672 41.074 C-30.206 40.046 -30.74 39.017 -31.291 37.957 C-34.586 31.221 -36.746 24.532 -35 17 C-31.846 13.937 -29.315 13.584 -25 13.188 C-15.782 11.952 -8.007 8.094 -1 2 C-0.67 1.34 -0.34 0.68 0 0 Z " fill="#FCF0E0" transform="translate(153,134)"/>
<path d="M0 0 C6.261 1.519 12.526 3.012 18.809 4.441 C19.993 4.711 21.178 4.981 22.399 5.259 C24.739 5.79 27.079 6.319 29.419 6.844 C30.482 7.087 31.545 7.329 32.641 7.578 C33.591 7.792 34.541 8.007 35.521 8.228 C37.688 8.812 37.688 8.812 38.688 9.812 C38.828 11.554 38.9 13.301 38.944 15.047 C38.973 16.166 39.002 17.284 39.032 18.437 C39.116 22.9 39.189 27.364 39.236 31.828 C39.272 35.215 39.325 38.6 39.421 41.986 C39.525 45.89 39.569 49.791 39.602 53.695 C39.645 54.903 39.688 56.11 39.733 57.355 C39.714 65.6 39.714 65.6 36.744 69.108 C34.466 70.909 32.22 72.397 29.688 73.812 C29.084 74.179 28.48 74.546 27.858 74.924 C11.473 84.452 -4.848 86.196 -23.312 85.812 C-23.748 85.804 -23.748 85.804 -25.953 85.762 C-37.184 85.012 -48.997 79.845 -58.312 73.812 C-58.967 73.48 -59.621 73.148 -60.295 72.806 C-62.773 71.346 -64.474 70.038 -66.312 67.812 C-67.437 63.312 -67.245 58.935 -67.094 54.32 C-67.082 53.019 -67.071 51.718 -67.059 50.378 C-67.029 46.934 -66.951 43.493 -66.862 40.05 C-66.78 36.531 -66.743 33.012 -66.703 29.492 C-66.618 22.598 -66.481 15.705 -66.312 8.812 C-64.105 8.276 -61.898 7.74 -59.691 7.203 C-59.348 7.12 -59.348 7.12 -57.609 6.697 C-53.839 5.781 -50.067 4.867 -46.295 3.957 C-44.784 3.593 -43.273 3.228 -41.762 2.863 C-41.39 2.774 -41.39 2.774 -39.511 2.32 C-35.528 1.357 -31.552 0.373 -27.582 -0.645 C-26.814 -0.838 -26.045 -1.031 -25.254 -1.229 C-23.352 -1.709 -21.453 -2.199 -19.555 -2.691 C-12.91 -3.708 -6.432 -1.58 0 0 Z " fill="#FDFDFD" transform="translate(214.3125,219.1875)"/>
<path d="M0 0 C-2.391 7.644 -5.434 14.909 -8.625 22.25 C-9.158 23.483 -9.69 24.715 -10.222 25.948 C-11.294 28.434 -12.369 30.918 -13.444 33.402 C-15.726 38.679 -17.988 43.964 -20.25 49.25 C-20.984 50.964 -21.719 52.677 -22.453 54.391 C-22.708 54.986 -22.708 54.986 -24 58 C-15.294 59.829 -6.652 61.422 2.172 62.57 C5 63 5 63 8 64 C11.54 80.884 13.767 97.883 16 115 C-15.68 115 -47.36 115 -80 115 C-80.062 105.966 -80.124 96.933 -80.188 87.625 C-80.215 84.792 -80.242 81.96 -80.27 79.042 C-80.279 76.77 -80.287 74.498 -80.293 72.227 C-80.308 71.069 -80.324 69.911 -80.339 68.718 C-80.343 56.282 -77.425 47.299 -69 38 C-63.183 32.736 -56.694 28.698 -49.867 24.887 C-49.184 24.504 -48.501 24.122 -47.797 23.727 C-39.705 19.232 -31.481 14.991 -23.24 10.776 C-20.577 9.413 -17.917 8.042 -15.258 6.67 C-13.56 5.799 -11.862 4.929 -10.164 4.059 C-9.372 3.649 -8.579 3.24 -7.762 2.818 C-2.23 0 -2.23 0 0 0 Z " fill="#FEFEFE" transform="translate(95,375)"/>
<path d="M0 0 C0.99 0 1.98 0 3 0 C3 46.86 3 93.72 3 142 C-4.59 142 -12.18 142 -20 142 C-20.195 139.201 -20.391 136.401 -20.586 133.602 C-20.912 130.768 -21.362 128.111 -21.945 125.328 C-23.127 119.628 -23.824 113.904 -24.5 108.125 C-25.476 100.039 -26.545 92.015 -28 84 C-28.336 82 -28.669 80 -29 78 C-29.531 77.939 -29.531 77.939 -32.219 77.633 C-39.273 76.804 -46.161 75.995 -53 74 C-50.513 65.954 -47.204 58.32 -43.812 50.625 C-42.636 47.953 -41.461 45.28 -40.289 42.605 C-40.002 41.95 -39.714 41.295 -39.418 40.621 C-37.741 36.774 -36.153 32.906 -34.648 28.988 C-34.31 28.121 -33.971 27.253 -33.622 26.359 C-33.022 24.805 -32.442 23.243 -31.888 21.672 C-29.638 15.915 -26.422 13.736 -21 11 C-20.587 10.785 -20.587 10.785 -18.495 9.697 C-15.865 8.352 -13.218 7.046 -10.562 5.75 C-8.771 4.872 -6.981 3.991 -5.191 3.109 C-4.41 2.727 -3.628 2.346 -2.823 1.952 C-1 1 -1 1 0 0 Z " fill="#98DEF2" transform="translate(145,348)"/>
<path d="M0 0 C5.61 0.33 11.22 0.66 17 1 C17.115 1.646 17.115 1.646 17.699 4.918 C19.349 13.839 21.145 22.253 24.637 30.664 C32.527 49.972 38.667 72.497 31.32 92.918 C26.917 103.196 21.344 111.599 14 120 C12.976 121.226 11.954 122.455 10.938 123.688 C10.618 124.069 10.618 124.069 9 126 C4.761 124.587 3.218 121.497 0.812 117.938 C0.328 117.225 -0.157 116.513 -0.656 115.779 C-14.53 94.934 -21.025 73.888 -16.125 49 C-12.609 32.205 -6.75 15.749 0 0 Z " fill="#DE7D65" transform="translate(86,229)"/>
<path d="M0 0 C19 9 19 9 21 10 C20.928 10.888 20.856 11.776 20.781 12.691 C19.326 32.721 17.925 53.346 25.41 72.36 C29.191 81.996 29.521 89.84 28 100 C27.857 100.966 27.714 101.931 27.566 102.926 C26.754 108.282 25.888 113.627 24.988 118.969 C23.764 126.292 22.859 133.626 22 141 C14.74 141 7.48 141 0 141 C0 94.47 0 47.94 0 0 Z " fill="#9BE2F6" transform="translate(253,348)"/>
<path d="M0 0 C-0.75 0.413 -1.5 0.825 -2.273 1.25 C-9.419 5.282 -15.764 9.682 -22 15 C-22.749 15.603 -23.498 16.207 -24.27 16.828 C-43.434 32.804 -54.215 57.049 -59 81 C-59.195 81.92 -59.389 82.841 -59.59 83.789 C-63.314 112.946 -55.863 142.706 -38.5 166.375 C-37.016 168.262 -35.517 170.138 -34 172 C-33.388 172.777 -32.775 173.555 -32.145 174.355 C-23.671 184.564 -12.306 192.239 -1 199 C-3 200 -3 200 -6.422 198.883 C-21.974 192.734 -34.063 184.633 -46 173 C-46.322 172.715 -46.322 172.715 -47.949 171.273 C-61.285 159.15 -69.672 140.117 -74 123 C-74.226 122.12 -74.451 121.239 -74.684 120.332 C-80.268 93.645 -74.128 65.955 -60 43 C-47.088 23.416 -30.067 10.718 -9 1 C-8.551 0.788 -8.551 0.788 -6.281 -0.285 C-3.728 -1.085 -2.479 -0.918 0 0 Z " fill="#5A90EE" transform="translate(363,285)"/>
<path d="M0 0 C3.96 0 7.92 0 12 0 C18.913 14.554 25.441 29.284 32 44 C32.42 44.939 32.84 45.878 33.272 46.846 C34.29 49.124 35.302 51.405 36.312 53.688 C36.845 54.888 37.377 56.088 37.926 57.324 C39 60 39 60 39 62 C17.22 62 -4.56 62 -27 62 C-23.625 51.875 -23.625 51.875 -22.102 48.513 C-21.762 47.755 -21.421 46.996 -21.07 46.215 C-20.89 45.821 -20.89 45.821 -19.98 43.828 C-19.599 42.984 -19.218 42.14 -18.826 41.27 C-17.617 38.595 -16.402 35.922 -15.188 33.25 C-14.384 31.474 -13.582 29.698 -12.779 27.922 C-8.562 18.595 -4.304 9.287 0 0 Z " fill="#92B5F4" transform="translate(194,427)"/>
<path d="M0 0 C0.278 0.091 0.278 0.091 1.683 0.551 C23.128 7.36 44.398 8.885 66 2 C67.828 1.561 69.661 1.14 71.5 0.75 C72.077 0.626 72.077 0.626 75 0 C76.8 15.452 76.8 15.452 73.137 20.637 C70.596 22.508 68.001 24.112 65.25 25.653 C60.297 28.618 55.693 32.147 51 35.5 C49.006 36.914 47.006 38.321 45 39.719 C44.134 40.327 43.267 40.934 42.375 41.561 C40.114 42.931 38.628 43.797 36 44 C34.072 43.111 34.072 43.111 32.051 41.676 C31.293 41.148 30.534 40.621 29.753 40.078 C29.35 39.786 29.35 39.786 27.312 38.312 C25.616 37.091 23.918 35.871 22.219 34.652 C21.356 34.033 20.494 33.415 19.605 32.777 C17.119 31.081 14.598 29.591 11.969 28.129 C0.816 21.685 0.816 21.685 -0.722 16.624 C-1.444 10.98 -0.895 5.593 0 0 Z " fill="#FAEEDE" transform="translate(163,313)"/>
<path d="M0 0 C-0.246 0.158 -0.246 0.158 -1.494 0.959 C-10.952 7.061 -19.981 13.047 -28 21 C-28.433 21.413 -28.433 21.413 -30.625 23.5 C-31.409 24.325 -32.192 25.15 -33 26 C-33.58 26.597 -34.16 27.194 -34.758 27.809 C-48.597 42.597 -57.752 61.295 -62 81 C-62.179 81.709 -62.358 82.418 -62.542 83.148 C-64.301 90.667 -64.191 97.999 -64.062 105.688 C-64.028 108.233 -63.998 110.779 -63.973 113.324 C-63.964 113.882 -63.964 113.882 -63.918 116.702 C-64 120 -64 120 -65 127 C-69.95 127 -74.9 127 -80 127 C-80.046 122.52 -80.086 118.04 -80.11 113.56 C-80.12 112.041 -80.133 110.523 -80.151 109.004 C-80.255 99.77 -79.891 91.085 -78 82 C-77.829 81.055 -77.658 80.111 -77.482 79.137 C-74.746 64.526 -66.548 49.3 -57 38 C-56.323 37.198 -55.646 36.396 -54.949 35.57 C-53.325 33.688 -51.68 31.832 -50 30 C-50.289 29.422 -50.578 28.845 -50.875 28.25 C-51.917 26.167 -52.958 24.083 -54 22 C-50.7 19.03 -47.4 16.06 -44 13 C-43.175 13.66 -43.175 13.66 -39 17 C-39 17.66 -39 18.32 -39 19 C-38.08 18.359 -37.159 17.719 -36.211 17.059 C-6.583 -3.292 -6.583 -3.292 0 0 Z " fill="#D6684A" transform="translate(168,28)"/>
<path d="M0 0 C5.61 0.33 11.22 0.66 17 1 C16.01 1.66 15.02 2.32 14 3 C12.913 5.328 12.913 5.328 11.914 8.25 C11.543 9.325 11.172 10.4 10.789 11.508 C10.405 12.66 10.021 13.813 9.625 15 C9.227 16.174 8.829 17.348 8.42 18.557 C5.27 27.955 2.38 37.378 0 47 C-0.245 47.972 -0.49 48.944 -0.742 49.945 C-6.15 74.762 2.574 96.911 15 118 C13.02 120.64 11.04 123.28 9 126 C4.761 124.587 3.218 121.497 0.812 117.938 C0.328 117.225 -0.157 116.513 -0.656 115.779 C-14.53 94.934 -21.025 73.888 -16.125 49 C-12.609 32.205 -6.75 15.749 0 0 Z " fill="#D5674A" transform="translate(86,229)"/>
<path d="M0 0 C1.046 0.01 2.092 0.02 3.169 0.03 C3.829 0.048 3.829 0.048 7.172 0.141 C11.379 0.223 15.587 0.306 19.922 0.391 C19.922 15.241 19.922 30.091 19.922 45.391 C2.061 45.391 2.061 45.391 -3.82 39.707 C-10.276 32.526 -10.443 26.878 -10.453 17.391 C-10.478 16.202 -10.502 15.014 -10.527 13.789 C-10.531 12.647 -10.535 11.505 -10.539 10.328 C-10.547 9.285 -10.555 8.242 -10.564 7.168 C-9.481 0.979 -5.768 -0.113 0 0 Z " fill="#F8DBB5" transform="translate(83.078125,169.609375)"/>
<path d="M0 0 C3.857 -0.083 7.714 -0.165 11.688 -0.25 C12.291 -0.268 12.291 -0.268 15.346 -0.36 C23.25 -0.442 23.25 -0.442 27.207 1.891 C30.753 6.062 30.218 9.799 30.25 15.062 C30.271 15.884 30.291 16.706 30.312 17.553 C30.365 25.926 28.61 33.305 22.711 39.492 C15.483 45.862 10.348 45 0 45 C0 30.15 0 15.3 0 0 Z " fill="#FBDDB7" transform="translate(298,170)"/>
<path d="M0 0 C0 25.74 0 51.48 0 78 C26.4 78 52.8 78 80 78 C80.33 77.34 80.66 76.68 81 76 C81 76.99 81 77.98 81 79 C49.32 79 17.64 79 -15 79 C-15.062 69.966 -15.124 60.933 -15.188 51.625 C-15.215 48.792 -15.242 45.96 -15.27 43.042 C-15.279 40.77 -15.287 38.498 -15.293 36.227 C-15.308 35.069 -15.324 33.911 -15.339 32.718 C-15.343 23.009 -14.028 14.855 -8 7 C-7.319 6.092 -6.639 5.185 -5.938 4.25 C-2.278 0 -2.278 0 0 0 Z " fill="#97D9EB" transform="translate(30,411)"/>
<path d="M0 0 C0 23.43 0 46.86 0 71 C-5.746 68.702 -10.778 66.64 -15 62 C-16.368 57.451 -16.171 53.126 -15.977 48.41 C-15.962 47.11 -15.948 45.811 -15.934 44.472 C-15.896 41.036 -15.798 37.604 -15.687 34.169 C-15.584 30.657 -15.539 27.144 -15.488 23.631 C-15.381 16.752 -15.211 9.876 -15 3 C-13.064 2.496 -11.126 1.997 -9.188 1.5 C-8.109 1.222 -7.03 0.943 -5.918 0.656 C-3 0 -3 0 0 0 Z " fill="#9EE3F6" transform="translate(163,225)"/>
<path d="M0 0 C4.354 2.258 7.161 4.403 9 9 C9.757 14.676 9.29 19.175 6 24 C3.175 27.248 1.636 28.694 -2.59 29.484 C-8.205 29.762 -12.295 29.191 -16.629 25.48 C-19.838 22.015 -21.154 18.649 -21.438 14 C-21.259 9.749 -19.751 7.271 -17 4 C-11.383 -1.069 -7.193 -1.586 0 0 Z " fill="#90B2F1" transform="translate(444,409)"/>
<path d="M0 0 C4.531 2.593 7.619 5.285 9.922 10.082 C10.781 15.882 9.341 20.418 5.922 25.082 C2.495 28.251 -1.026 29.333 -5.641 29.582 C-10.065 29.371 -12.683 27.992 -16.078 25.082 C-19.827 20.816 -20.441 16.886 -20.352 11.363 C-19.841 7.105 -17.804 4.453 -14.5 1.828 C-9.809 -1.204 -5.352 -2.364 0 0 Z " fill="#90B3F1" transform="translate(351.078125,408.91796875)"/>
<path d="M0 0 C0 21.12 0 42.24 0 64 C-2.609 62.695 -2.775 61.61 -3.883 58.941 C-4.062 58.515 -4.062 58.515 -4.971 56.357 C-5.352 55.435 -5.733 54.513 -6.125 53.562 C-10.829 42.304 -10.829 42.304 -13.406 36.777 C-13.78 35.97 -14.154 35.163 -14.539 34.332 C-15.248 32.808 -15.968 31.289 -16.7 29.776 C-18.021 26.915 -19.025 24.621 -18.898 21.438 C-12.999 5.432 -12.999 5.432 -6.188 1.625 C-3.93 0.607 -2.47 0 0 0 Z " fill="#F0F0F0" transform="translate(238,397)"/>
<path d="M0 0 C10.987 10.462 15.392 24.077 15.785 38.824 C15.951 50.221 15.564 61.618 15 73 C5.855 64.367 0.43 47.19 -0.087 34.949 C-0.115 32.706 -0.113 30.466 -0.098 28.223 C-0.096 27.411 -0.095 26.6 -0.093 25.764 C-0.088 23.197 -0.075 20.63 -0.062 18.062 C-0.057 16.312 -0.053 14.561 -0.049 12.811 C-0.038 8.54 -0.021 4.27 0 0 Z " fill="#F2D6B1" transform="translate(118,197)"/>
<path d="M0 0 C3.195 3.14 6.206 6.354 9.125 9.75 C16.1 17.535 24.257 23.679 32.906 29.492 C35 31 35 31 38 34 C24.14 34 10.28 34 -4 34 C-2.85 16.745 -2.85 16.745 -1.438 8.562 C-1.299 7.724 -1.16 6.885 -1.018 6.021 C-0.685 4.013 -0.343 2.006 0 0 Z " fill="#FAFAFA" transform="translate(294,455)"/>
<path d="M0 0 C0.33 0 0.66 0 1 0 C1.075 5.013 1.129 10.026 1.165 15.039 C1.18 16.738 1.2 18.437 1.226 20.136 C1.436 34.052 0.511 46.779 -5.438 59.625 C-5.724 60.291 -6.011 60.958 -6.307 61.645 C-8.04 65.514 -9.947 68.107 -13 71 C-15.529 19.972 -15.529 19.972 -1 1 C-0.67 0.67 -0.34 0.34 0 0 Z " fill="#F9EDDE" transform="translate(281,197)"/>
<path d="M0 0 C5.162 1.032 9.025 2.158 12.148 6.652 C13.18 8.547 14.074 10.46 14.938 12.438 C15.253 13.093 15.568 13.748 15.893 14.424 C17.752 18.517 18.223 20.732 17 25 C15.894 27.831 14.656 30.595 13.402 33.363 C13.049 34.155 12.695 34.947 12.33 35.763 C11.204 38.282 10.071 40.797 8.938 43.312 C8.171 45.024 7.404 46.735 6.639 48.447 C4.764 52.634 2.884 56.818 1 61 C0.67 61 0.34 61 0 61 C0 40.87 0 20.74 0 0 Z " fill="#FBFBFB" transform="translate(163,398)"/>
<path d="M0 0 C0 9.9 0 19.8 0 30 C-4.29 32.31 -8.58 34.62 -13 37 C-16.39 35.87 -16.786 35.261 -18.699 32.402 C-18.943 32.043 -18.943 32.043 -20.174 30.225 C-20.424 29.847 -20.424 29.847 -21.688 27.938 C-22.199 27.179 -22.71 26.42 -23.236 25.639 C-24.498 23.764 -25.752 21.884 -27 20 C-25.567 16.49 -23.926 14.953 -20.789 12.871 C-19.956 12.311 -19.124 11.751 -18.266 11.174 C-17.394 10.601 -16.523 10.028 -15.625 9.438 C-13.908 8.291 -12.192 7.144 -10.477 5.996 C-9.714 5.493 -8.952 4.989 -8.167 4.47 C-6.69 3.469 -5.25 2.413 -3.845 1.313 C-2 0 -2 0 0 0 Z " fill="#F4F4F4" transform="translate(238,350)"/>
<path d="M0 0 C5.722 2.09 10.294 5.457 15.25 8.938 C16.173 9.571 17.096 10.205 18.047 10.857 C18.923 11.47 19.8 12.083 20.703 12.715 C21.504 13.273 22.305 13.831 23.13 14.406 C25 16 25 16 26 19 C25.151 20.793 25.151 20.793 23.797 22.758 C23.311 23.466 22.825 24.173 22.324 24.902 C21.805 25.636 21.285 26.369 20.75 27.125 C20.246 27.866 19.742 28.607 19.223 29.371 C15.393 34.869 15.393 34.869 12 36 C9.336 34.82 9.336 34.82 6.375 33.125 C5.393 32.571 4.41 32.016 3.398 31.445 C1 30 1 30 0 29 C-0.088 26.854 -0.107 24.706 -0.098 22.559 C-0.094 21.253 -0.091 19.948 -0.088 18.604 C-0.08 17.215 -0.071 15.826 -0.062 14.438 C-0.057 13.045 -0.053 11.652 -0.049 10.26 C-0.037 6.84 -0.021 3.42 0 0 Z " fill="#FAFAFA" transform="translate(163,351)"/>
<path d="M0 0 C0.66 0 1.32 0 2 0 C3.382 1.867 4.682 3.795 5.938 5.75 C9.866 11.829 9.866 11.829 11.754 14.227 C13 16 13 16 13 18.625 C11.577 23.426 9.335 27.57 7 32 C3.04 32 -0.92 32 -5 32 C-6.035 29.924 -7.053 27.839 -8.062 25.75 C-8.631 24.59 -9.199 23.43 -9.785 22.234 C-11.063 18.833 -11.141 18.239 -10 15 C-8.529 12.305 -6.778 9.795 -5.062 7.25 C-4.607 6.553 -4.151 5.855 -3.682 5.137 C-2.511 3.385 -1.261 1.687 0 0 Z " fill="#90B3F1" transform="translate(199,380)"/>
<path d="M0 0 C0 13.86 0 27.72 0 42 C-3.464 37.381 -6.032 32.612 -8.688 27.5 C-9.199 26.569 -9.71 25.639 -10.236 24.68 C-13.659 18.045 -15.72 11.49 -14 4 C-9.902 0.111 -5.515 0 0 0 Z " fill="#FBDDB7" transform="translate(132,147)"/>
<path d="M0 0 C4.95 1.32 9.9 2.64 15 4 C15 12.25 15 20.5 15 29 C6.797 23.824 6.797 23.824 4 22 C3.227 21.629 2.453 21.257 1.656 20.875 C-1.233 17.605 -0.409 13.493 -0.25 9.312 C-0.232 8.42 -0.214 7.527 -0.195 6.607 C-0.148 4.404 -0.076 2.202 0 0 Z " fill="#FBDEB9" transform="translate(163,313)"/>
<path d="M0 0 C1.256 0.887 2.505 1.785 3.75 2.688 C4.446 3.186 5.142 3.685 5.859 4.199 C8.281 6.236 10.095 8.482 12 11 C10.432 12.702 8.845 14.386 7.25 16.062 C6.368 17.002 5.487 17.942 4.578 18.91 C2 21 2 21 -0.062 21.094 C-2.695 19.608 -4.302 17.742 -6.25 15.438 C-6.956 14.611 -7.663 13.785 -8.391 12.934 C-8.922 12.296 -9.453 11.657 -10 11 C-6.792 7.194 -3.593 3.454 0 0 Z " fill="#000001" transform="translate(471,454)"/>
<path d="M0 0 C4.95 0 9.9 0 15 0 C15 4.95 15 9.9 15 15 C10.05 15 5.1 15 0 15 C0 10.05 0 5.1 0 0 Z " fill="#FEFBFB" transform="translate(251,60)"/>
<path d="M0 0 C4.95 0 9.9 0 15 0 C15 4.95 15 9.9 15 15 C10.05 15 5.1 15 0 15 C0 10.05 0 5.1 0 0 Z " fill="#FEFBFB" transform="translate(221,45)"/>
</svg>
