<?xml version="1.0" encoding="UTF-8"?>
<!-- Generator: visioncortex VTracer 0.6.12 -->
<svg version="1.1" xmlns="http://www.w3.org/2000/svg" width="512" height="512">
<path d="M0 0 C3.85 2.28 6.681 4.808 8.285 9.055 C10.358 17.591 8.372 23.945 3.902 31.344 C-2.514 42.306 0.272 54.897 1.285 67.055 C10.195 66.89 10.195 66.89 55.285 66.055 C56.605 60.445 57.925 54.835 59.285 49.055 C60.463 46.008 61.505 43.423 63.035 40.617 C63.207 40.29 63.207 40.29 64.074 38.633 C67.176 32.893 70.879 27.87 75.285 23.055 C75.58 22.714 75.58 22.714 77.074 20.988 C88.361 8.717 105.464 0.14 122.106 -1.167 C146.262 -2.089 167.314 2.567 185.453 19.285 C199.967 33.479 208.166 51.971 208.754 72.257 C208.954 93.273 203.585 111.2 189.285 127.055 C188.693 127.739 188.102 128.424 187.492 129.129 C174.738 142.97 155.53 151.372 136.887 152.34 C113.812 153.029 93.59 145.381 76.668 129.602 C65.237 117.383 56.285 100.97 56.285 84.055 C38.135 84.055 19.985 84.055 1.285 84.055 C1.409 89.108 1.533 94.161 1.66 99.367 C1.694 100.938 1.728 102.508 1.763 104.126 C2.137 117.491 2.82 126.48 11.535 137.055 C12.906 138.801 14.272 140.551 15.633 142.305 C16.275 143.128 16.917 143.952 17.579 144.801 C27.633 158.081 31.587 174.577 31.285 191.055 C31.873 191.15 32.462 191.245 33.068 191.343 C42.16 192.899 51.075 195.1 60.027 197.301 C61.726 197.717 63.425 198.133 65.123 198.549 C68.662 199.416 72.2 200.286 75.738 201.158 C80.265 202.274 84.795 203.378 89.326 204.48 C92.826 205.333 96.324 206.194 99.821 207.056 C101.491 207.467 103.161 207.875 104.833 208.28 C107.165 208.846 109.495 209.423 111.824 210.002 C112.508 210.165 113.193 210.329 113.899 210.498 C122.878 212.762 122.878 212.762 125.405 216.879 C126.369 219.261 126.532 220.924 126.526 223.484 C126.527 223.924 126.527 223.924 126.534 226.152 C126.527 227.11 126.52 228.069 126.512 229.056 C126.512 230.071 126.513 231.086 126.513 232.131 C126.512 235.486 126.496 238.841 126.48 242.195 C126.477 244.521 126.474 246.847 126.472 249.173 C126.464 255.295 126.445 261.418 126.422 267.54 C126.402 273.787 126.393 280.034 126.383 286.281 C126.361 298.539 126.327 310.797 126.285 323.055 C127.177 323.187 128.069 323.32 128.987 323.457 C129.573 323.545 129.573 323.545 132.534 323.992 C133.694 324.166 134.853 324.34 136.048 324.519 C157.482 328.068 177.158 340.949 190.285 358.055 C192.81 361.621 195.093 365.275 197.285 369.055 C197.811 369.945 198.337 370.836 198.879 371.754 C209.456 391.1 212.052 415.704 206.598 437.055 C205.883 439.406 205.116 441.742 204.285 444.055 C203.9 445.135 203.514 446.215 203.117 447.328 C193.711 471.498 175.523 488.559 152.284 499.197 C131.579 508.08 105.229 508.296 84.285 500.055 C75.084 496.256 66.774 491.668 59.285 485.055 C58.478 484.39 57.671 483.724 56.84 483.039 C40.115 468.821 28.935 447.896 26.285 426.055 C24.812 397.515 31.136 373.693 49.883 351.613 C64.939 335.578 84.768 326.199 106.285 323.055 C107.275 323.055 108.265 323.055 109.285 323.055 C109.12 307.38 109.12 307.38 108.285 228.055 C95.601 224.92 82.916 221.785 69.848 218.555 C65.837 217.563 61.826 216.571 57.694 215.549 C52.81 214.343 52.81 214.343 50.527 213.779 C48.926 213.384 47.326 212.988 45.725 212.592 C43.306 211.993 40.886 211.396 38.467 210.799 C37.749 210.621 37.032 210.443 36.292 210.259 C31.399 209.055 31.399 209.055 30.285 209.055 C30.115 209.782 29.945 210.509 29.77 211.258 C27.983 218.67 25.799 225.858 23.285 233.055 C23.914 233.551 24.543 234.047 25.191 234.559 C46.994 251.863 46.994 251.863 48.691 262.633 C48.974 265.442 49.157 268.235 49.285 271.055 C49.326 271.82 49.368 272.586 49.41 273.375 C49.824 287.821 44.142 302.368 34.883 313.504 C29.725 318.511 24.843 320.372 17.66 320.68 C2.775 319.916 -11.068 312.423 -24.402 306.305 C-26.091 305.536 -27.781 304.768 -29.471 304 C-32 302.851 -34.528 301.701 -37.052 300.542 C-41.442 298.529 -45.845 296.555 -50.277 294.638 C-51.185 294.241 -52.092 293.845 -53.027 293.436 C-54.758 292.682 -56.492 291.937 -58.23 291.202 C-65.115 288.184 -68.738 284.424 -72.715 278.055 C-74.342 275.87 -75.982 273.706 -77.652 271.555 C-78.075 271.003 -78.498 270.451 -78.934 269.883 C-93.537 250.928 -110.472 240.227 -131.715 230.055 C-132.603 229.62 -133.491 229.186 -134.406 228.738 C-142.122 225.102 -149.267 223.116 -157.715 225.055 C-162.172 227.604 -164.731 229.966 -167.34 234.367 C-168.013 235.5 -168.686 236.633 -169.379 237.801 C-171.22 241.08 -172.925 244.417 -174.613 247.777 C-175.126 248.789 -175.638 249.802 -176.166 250.844 C-177.178 252.861 -178.174 254.885 -179.151 256.919 C-182.893 264.404 -187.672 270.881 -195.715 274.055 C-197.365 274.055 -199.015 274.055 -200.715 274.055 C-200.715 291.875 -200.715 309.695 -200.715 328.055 C-197.085 328.385 -193.455 328.715 -189.715 329.055 C-166.236 334.335 -146.45 348.06 -133.527 368.43 C-125.795 381.519 -120.367 395.691 -119.715 411.055 C-119.675 411.877 -119.635 412.7 -119.594 413.547 C-119.044 435.86 -126.264 457.049 -140.715 474.055 C-141.285 474.78 -141.854 475.506 -142.441 476.254 C-155.286 491.913 -175.933 502.141 -195.715 505.055 C-210.365 505.947 -224.795 506.053 -238.715 501.055 C-239.909 500.631 -241.102 500.206 -242.332 499.77 C-263.427 491.484 -281.039 474.907 -290.488 454.297 C-295.737 442.09 -298.273 430.05 -298.152 416.742 C-298.149 416.153 -298.149 416.153 -298.129 413.171 C-297.954 403.878 -296.861 395.817 -293.715 387.055 C-293.291 385.861 -292.867 384.667 -292.43 383.438 C-283.396 360.438 -265.936 343.837 -243.659 333.88 C-234.807 330.123 -227.44 328.939 -217.715 328.055 C-217.715 310.565 -217.715 293.075 -217.715 275.055 C-220.355 274.725 -222.995 274.395 -225.715 274.055 C-231.151 272.117 -235.731 269.163 -240.152 265.492 C-249.128 258.24 -259.714 257.28 -270.842 256.365 C-279.668 255.473 -287.409 253.234 -293.215 246.18 C-297.851 239.737 -298.01 232.707 -297.99 225.075 C-297.995 224.096 -298 223.118 -298.005 222.11 C-298.019 218.886 -298.018 215.662 -298.016 212.438 C-298.02 210.179 -298.024 207.92 -298.029 205.662 C-298.036 200.926 -298.036 196.19 -298.031 191.454 C-298.025 185.428 -298.042 179.403 -298.065 173.377 C-298.08 168.708 -298.08 164.039 -298.077 159.37 C-298.078 157.151 -298.083 154.932 -298.093 152.713 C-298.179 131.332 -297.391 108.676 -281.906 92.121 C-270.31 81.271 -257.45 79.828 -242.242 79.488 C-235.644 79.286 -228.729 79.062 -222.715 76.055 C-220.434 69.211 -222.271 62.753 -223.965 55.992 C-224.189 55.063 -224.414 54.134 -224.645 53.177 C-225.933 47.923 -227.396 42.774 -229.027 37.617 C-231.345 29.679 -232.491 21.274 -229.215 13.492 C-218.131 2.686 -201.028 -0.328 -186.059 -0.156 C-177.212 0.402 -169.371 3.085 -162.715 9.055 C-155.158 17.958 -154.181 27.807 -152.715 39.055 C-143.367 42.914 -133.442 45.34 -123.715 48.055 C-122.757 48.323 -121.8 48.592 -120.813 48.868 C-92.92 56.543 -92.92 56.543 -81.152 51.617 C-73.75 46.852 -69.034 39.149 -64.215 31.992 C-54.38 17.472 -41.2 7.325 -24.715 1.055 C-23.785 0.692 -22.856 0.33 -21.898 -0.043 C-15.229 -1.933 -6.602 -2.299 0 0 Z " fill="#010101" transform="translate(300.71484375,3.9453125)"/>
<path d="M0 0 C0.79 -0.021 1.58 -0.041 2.395 -0.062 C8.65 -0.104 12.764 0.974 17.406 5.449 C19.518 8.891 20.088 12.136 20.625 16.062 C21.925 23.977 23.353 31.019 30.191 36.102 C39.152 41.424 49.102 43.577 59.125 46.25 C59.125 95.09 59.125 143.93 59.125 194.25 C54.505 193.26 49.885 192.27 45.125 191.25 C34.311 190.11 26.472 191.536 18 198.375 C9.257 206.687 4.218 217.522 -1.052 228.188 C-1.948 229.995 -2.857 231.797 -3.766 233.598 C-4.292 234.66 -4.818 235.722 -5.36 236.817 C-6.875 239.25 -6.875 239.25 -9.875 240.25 C-9.876 239.585 -9.878 238.919 -9.879 238.234 C-9.899 231.306 -9.953 224.38 -10.028 217.453 C-10.051 214.868 -10.065 212.283 -10.071 209.698 C-10.08 205.982 -10.121 202.267 -10.168 198.551 C-10.164 197.395 -10.16 196.24 -10.156 195.05 C-10.319 186.106 -10.319 186.106 -13.189 182.981 C-15.875 181.25 -15.875 181.25 -19.562 181.25 C-22.875 182.25 -22.875 182.25 -24.875 185.25 C-25.153 187.737 -25.153 187.737 -25.194 190.731 C-25.214 191.852 -25.234 192.973 -25.254 194.128 C-25.266 195.337 -25.277 196.547 -25.289 197.793 C-25.308 199.032 -25.328 200.27 -25.348 201.547 C-25.397 204.836 -25.439 208.126 -25.476 211.415 C-25.516 214.774 -25.567 218.132 -25.617 221.49 C-25.713 228.077 -25.798 234.663 -25.875 241.25 C-31.487 240.604 -34.262 239.64 -38.625 236 C-51.124 226.143 -64.62 223.76 -80.188 222.812 C-84.5 222.488 -86.915 221.604 -89.875 218.25 C-91.19 214.305 -91.039 210.528 -91.052 206.414 C-91.055 205.962 -91.055 205.962 -91.072 203.673 C-91.092 200.669 -91.103 197.664 -91.113 194.66 C-91.117 193.629 -91.121 192.597 -91.126 191.535 C-91.147 186.059 -91.161 180.583 -91.17 175.107 C-91.181 169.5 -91.215 163.894 -91.255 158.288 C-91.282 153.939 -91.29 149.589 -91.293 145.24 C-91.298 143.177 -91.31 141.114 -91.328 139.052 C-91.653 100.962 -91.653 100.962 -79.871 88.055 C-70.006 78.482 -59.699 78.813 -46.531 78.898 C-37.461 78.78 -27.907 77.535 -20.745 71.436 C-14.388 64.555 -14.372 56.989 -14.559 48.074 C-14.902 40.839 -16.807 34.153 -18.875 27.25 C-19.589 24.809 -20.296 22.367 -20.993 19.922 C-21.447 18.34 -21.911 16.762 -22.387 15.188 C-24.226 8.869 -24.226 8.869 -22.875 5.25 C-20.73 4.02 -20.73 4.02 -18.062 3.062 C-17.19 2.739 -16.317 2.415 -15.418 2.082 C-10.155 0.36 -5.511 0.036 0 0 Z " fill="#84C8FD" transform="translate(109.875,20.75)"/>
<path d="M0 0 C28.628 -0.522 28.628 -0.522 42.797 -0.653 C50.453 -0.725 58.106 -0.817 65.76 -0.981 C72.472 -1.125 79.18 -1.2 85.893 -1.233 C88.451 -1.257 91.009 -1.304 93.566 -1.374 C113.054 -1.889 113.054 -1.889 117.936 1.241 C121.423 4.616 123.222 8.503 125 13 C125.999 15.001 126.998 17.001 128 19 C129.776 23.507 130.352 27.546 130.625 32.375 C130.662 32.998 130.662 32.998 130.852 36.148 C130.901 37.089 130.95 38.03 131 39 C123.256 38.273 116.038 36.217 108.576 34.084 C102.527 32.428 97.278 31.412 91 32 C89.276 33.304 89.276 33.304 88 35 C87.355 41.018 87.355 41.018 89.031 43.57 C92.014 45.737 95.356 46.467 98.875 47.375 C99.653 47.583 100.431 47.792 101.232 48.007 C110.773 50.53 120.385 52.777 130 55 C130.365 60.817 129.165 64.835 127 70.188 C124.484 76.913 121.964 83.825 124 91 C127.583 97.181 132.384 101.181 138.188 105.188 C147.247 111.487 147.247 111.487 149 116 C149.482 118.991 149.571 121.911 149.562 124.938 C149.561 125.776 149.559 126.614 149.557 127.477 C149.261 137.872 145.56 147.65 138 155 C134.099 156.95 129.06 155.613 125.003 154.405 C123.047 153.664 121.136 152.858 119.223 152.012 C118.504 151.705 117.785 151.398 117.044 151.081 C114.689 150.069 112.344 149.037 110 148 C109.185 147.641 108.369 147.283 107.529 146.913 C102.363 144.636 97.212 142.327 92.067 140.001 C89.41 138.8 86.751 137.604 84.092 136.408 C82.372 135.633 80.653 134.858 78.934 134.082 C78.153 133.731 77.373 133.38 76.569 133.018 C74.374 132.024 72.185 131.016 70 130 C69.268 129.665 68.535 129.33 67.78 128.985 C64.054 127.22 61.206 125.784 58.762 122.348 C58.51 122.004 58.51 122.004 57.234 120.264 C56.723 119.537 56.213 118.811 55.688 118.062 C54.562 116.531 53.435 115.001 52.305 113.473 C52.027 113.094 52.027 113.094 50.624 111.18 C36.762 92.571 20.664 81.332 0 71 C0 47.57 0 24.14 0 0 Z " fill="#ABFCAB" transform="translate(184,152)"/>
<path d="M0 0 C-0.612 4.482 -2.413 8.111 -4.5 12.062 C-7.897 18.536 -9.174 23.12 -9.125 30.438 C-9.123 31.137 -9.121 31.837 -9.119 32.559 C-9.066 39.067 -8.597 45.52 -8 52 C-8.767 52.015 -9.533 52.029 -10.323 52.044 C-13.799 52.119 -17.274 52.215 -20.75 52.312 C-21.957 52.335 -23.163 52.358 -24.406 52.381 C-25.566 52.416 -26.727 52.452 -27.922 52.488 C-28.99 52.514 -30.058 52.541 -31.159 52.568 C-34.31 53.047 -35.722 53.808 -38 56 C-38.496 57.938 -38.496 57.938 -38.438 60 C-38.436 60.681 -38.435 61.361 -38.434 62.062 C-37.855 64.65 -37.122 65.402 -35 67 C-32.089 67.432 -32.089 67.432 -28.582 67.512 C-27.955 67.529 -27.955 67.529 -24.783 67.619 C-23.473 67.642 -22.163 67.664 -20.812 67.688 C-19.477 67.721 -18.142 67.755 -16.807 67.791 C-13.538 67.874 -10.269 67.943 -7 68 C-7.01 68.871 -7.021 69.742 -7.032 70.639 C-7.066 73.936 -7.091 77.233 -7.11 80.531 C-7.12 81.945 -7.133 83.36 -7.151 84.775 C-7.251 93.075 -6.944 101.043 -5.433 109.241 C-5 112 -5 112 -5 117 C-38.99 117 -72.98 117 -108 117 C-108 95.88 -108 74.76 -108 53 C-101 54 -101 54 -97.555 54.547 C-88.016 55.763 -77.828 56.251 -69 52 C-68.633 51.836 -68.633 51.836 -66.777 51.004 C-55.395 45.361 -48.755 35.186 -41.797 24.988 C-37.514 18.814 -33.276 14.051 -26.938 9.938 C-26.281 9.508 -25.625 9.078 -24.949 8.635 C-17.334 3.771 -9.305 -1.057 0 0 Z " fill="#FDEA86" transform="translate(293,19)"/>
<path d="M0 0 C8.283 6.429 14.531 14.133 19.623 23.259 C20.083 24.047 20.543 24.835 21.017 25.646 C29.686 41.491 31.616 61.86 26.623 79.259 C25.58 82.294 24.44 85.28 23.248 88.259 C22.956 88.99 22.663 89.721 22.363 90.475 C20.659 94.495 19.028 97.379 15.623 100.259 C15.1 99.304 14.578 98.349 14.041 97.365 C6.594 84.12 -1.925 74.913 -15.506 67.818 C-18.377 66.259 -18.377 66.259 -20.377 64.259 C-19.979 63.691 -19.581 63.122 -19.17 62.537 C-18.641 61.764 -18.111 60.992 -17.565 60.197 C-17.043 59.443 -16.521 58.689 -15.983 57.912 C-12.344 51.9 -10.839 46.926 -10.94 40.009 C-10.945 39.636 -10.945 39.636 -10.969 37.749 C-11.303 27.276 -14.57 20.012 -21.866 12.427 C-31.596 4.029 -42.147 3.624 -54.377 4.259 C-62.434 5.514 -69.037 10.205 -74.17 16.435 C-75.721 18.652 -77.08 20.886 -78.377 23.259 C-78.718 23.861 -79.058 24.463 -79.409 25.083 C-83.255 33.292 -82.51 43.93 -79.69 52.322 C-77.873 56.699 -75.574 59.796 -72.377 63.259 C-72.377 63.919 -72.377 64.579 -72.377 65.259 C-73.055 65.6 -73.734 65.94 -74.432 66.291 C-90.166 74.485 -99.578 85.267 -108.377 100.259 C-111.395 96.767 -113.308 93.545 -115.002 89.259 C-115.407 88.249 -115.812 87.238 -116.229 86.197 C-116.608 85.227 -116.987 84.258 -117.377 83.259 C-117.733 82.42 -118.089 81.581 -118.456 80.716 C-124.505 64.593 -122.361 45.559 -115.612 30.048 C-106.943 11.322 -92.392 -3.735 -72.877 -11.053 C-69.728 -12.045 -66.573 -12.915 -63.377 -13.741 C-63.043 -13.853 -63.043 -13.853 -61.35 -14.42 C-40.747 -21.003 -16.662 -12.181 0 0 Z " fill="#D4E8FB" transform="translate(464.37744140625,358.74072265625)"/>
<path d="M0 0 C0.957 -0.014 1.915 -0.028 2.901 -0.042 C21.047 0.076 38.739 8.454 51.625 21 C66.061 35.639 72.835 53.841 72.738 74.132 C72.477 86.049 70.046 101.955 61.75 111.27 C61.317 111.634 60.884 111.999 60.438 112.375 C59.964 111.553 59.491 110.73 59.004 109.883 C50.526 95.572 40.697 85.439 25.438 78.375 C25.92 77.59 26.402 76.805 26.898 75.996 C27.214 75.471 27.214 75.471 28.812 72.812 C29.126 72.296 29.126 72.296 30.711 69.684 C34.935 61.589 35.48 53.346 34.438 44.375 C32.947 40 30.948 36.246 28.438 32.375 C28.031 31.749 27.625 31.122 27.207 30.477 C22.368 23.97 14.271 19.897 6.438 18.375 C-5.819 17.197 -14.993 19.476 -24.52 27.316 C-31.214 34.062 -34.83 42.606 -34.938 52.062 C-34.777 62.223 -31.32 70.14 -25.562 78.375 C-26.241 78.715 -26.919 79.056 -27.617 79.406 C-42.091 86.944 -52.214 96.75 -59.562 111.375 C-62.562 110.375 -62.562 110.375 -64.062 107.785 C-68.192 98.568 -72.005 89.572 -72.562 79.375 C-72.627 78.223 -72.691 77.07 -72.758 75.883 C-73.503 55.952 -66.977 38.298 -53.562 23.375 C-53.044 22.764 -52.526 22.153 -51.992 21.523 C-44.712 13.512 -33.744 6.924 -23.562 3.375 C-22.768 3.079 -21.974 2.782 -21.156 2.477 C-14.165 0.287 -7.266 0.063 0 0 Z " fill="#D4E8FC" transform="translate(91.5625,347.625)"/>
<path d="M0 0 C7.446 2.792 10.185 8.363 14 15 C15.639 17.816 17.283 20.628 18.931 23.438 C20.089 25.415 21.239 27.396 22.381 29.382 C22.919 30.307 23.457 31.231 24.012 32.184 C24.491 33.014 24.97 33.845 25.464 34.701 C28.078 38.614 30.613 41.185 35.082 42.746 C35.85 43.026 36.617 43.307 37.408 43.596 C38.202 43.873 38.995 44.151 39.812 44.438 C55.067 49.782 55.067 49.782 58.438 56.688 C61.475 63.767 60.565 70.102 58.125 77.25 C53.463 88.455 45.289 100.892 34.562 106.938 C28.908 108.624 24.551 108.799 19.188 106.5 C15.804 105.064 13.169 104.879 9.5 105 C0.767 105.217 -5.67 101.95 -12 96 C-18.761 88.583 -20.191 79.632 -21.375 69.926 C-22.344 62.362 -24.792 56.827 -28.441 50.227 C-31.052 44.822 -31.403 40.333 -29.984 34.602 C-28.32 30.203 -25.709 26.423 -23.156 22.492 C-20.221 17.887 -18.006 12.955 -15.738 7.996 C-11.934 1.438 -7.349 -0.602 0 0 Z " fill="#010101" transform="translate(178,244)"/>
<path d="M0 0 C13.991 10.579 23.188 24.593 26 42 C26.916 55.534 25.009 66.828 19 79 C18.34 79.66 17.68 80.32 17 81 C16.455 80.154 15.909 79.309 15.348 78.438 C8.508 68.055 1.319 60.566 -10 55 C-9.01 52.504 -8.009 50.021 -6.93 47.562 C-3.531 39.304 -2.221 31.395 -5.07 22.754 C-8.987 14.182 -14.149 8.562 -22.688 4.562 C-30.154 1.909 -38.418 1.591 -45.812 4.625 C-47.232 5.373 -48.63 6.165 -50 7 C-50.71 7.424 -51.421 7.848 -52.152 8.285 C-57.981 12.182 -61.396 17.187 -63.609 23.828 C-65.575 34.76 -64.169 44.746 -58 54 C-58.381 54.237 -58.381 54.237 -60.309 55.434 C-71.089 62.338 -78.918 69.575 -85 81 C-87.648 78.677 -88.807 76.523 -90.062 73.25 C-90.383 72.43 -90.704 71.61 -91.035 70.766 C-91.354 69.853 -91.672 68.94 -92 68 C-92.362 66.967 -92.724 65.935 -93.098 64.871 C-97.073 47.817 -93.893 31.449 -84.84 16.75 C-75.83 3.283 -61.855 -5.922 -46.06 -9.621 C-30.366 -12.511 -13.286 -8.602 0 0 Z " fill="#D4E7FB" transform="translate(467,29)"/>
<path d="M0 0 C1.061 0.006 2.122 0.013 3.216 0.02 C17.49 0.352 27.781 5.684 38.277 15.371 C44.311 21.721 49.72 30.61 50.25 39.5 C40.174 50.513 23.487 57.427 8.707 58.723 C-13.724 59.69 -32.642 54.677 -49.75 39.5 C-47.179 25.875 -39.221 15.708 -28.133 7.582 C-19.063 1.86 -10.67 -0.068 0 0 Z " fill="#86EF86" transform="translate(417.75,434.5)"/>
<path d="M0 0 C1.014 0.006 2.028 0.013 3.073 0.02 C15.958 0.333 26.167 4.702 35.75 13.5 C41.412 19.806 46.941 27.039 48.75 35.5 C48.557 38.416 48.003 39.271 45.816 41.246 C27.862 53.375 7.489 59.919 -14.262 55.852 C-26.988 52.74 -38.341 47.125 -48.25 38.5 C-46.804 26.575 -39.285 16.966 -30.25 9.5 C-20.754 2.626 -11.66 -0.077 0 0 Z " fill="#4DAFFA" transform="translate(91.25,436.5)"/>
<path d="M0 0 C7.329 5.076 13.138 12.036 16.16 20.496 C16.062 23.778 15.639 25.022 13.297 27.34 C-2.157 37.79 -18.663 40.982 -37.118 38.146 C-47.049 35.954 -54.947 30.605 -62.84 24.496 C-61.307 14.918 -55.855 7.591 -48.57 1.441 C-33.694 -9.157 -15.579 -9.259 0 0 Z " fill="#F9D934" transform="translate(455.83984375,100.50390625)"/>
<path d="M0 0 C2.227 2.856 4.098 5.777 5.891 8.922 C6.436 9.865 6.981 10.809 7.543 11.781 C8.67 13.742 9.793 15.705 10.91 17.672 C19.203 31.966 26.839 36.715 42.121 41.949 C45 43 45 43 46 44 C46.766 53.57 39.873 62.13 34.023 69.223 C32 71 32 71 28.188 71.188 C27.136 70.796 26.084 70.404 25 70 C21.59 68.863 18.777 68.857 15.188 68.75 C7.326 68.215 7.326 68.215 4.312 65.875 C-0.577 59.797 -1.474 53.836 -2.312 46.312 C-3.274 38.738 -4.77 33.065 -8.793 26.508 C-10.307 23.361 -10.434 21.461 -10 18 C-8.574 15 -8.574 15 -6.688 12 C-4.249 8.074 -2.013 4.163 0 0 Z " fill="#AAFBAA" transform="translate(175,264)"/>
<path d="M0 0 C4.761 2.034 7.849 5.326 10.5 9.727 C12.831 15.575 12.902 22.011 10.613 27.891 C7.506 33.194 3.256 37.024 -2.426 39.422 C-8.562 40.345 -13.997 40.235 -19.363 36.922 C-24.462 32.936 -27.889 29.019 -28.863 22.488 C-29.126 15.905 -28.489 11.631 -24.426 6.422 C-17.106 -0.751 -10.298 -2.454 0 0 Z " fill="#FCCBBD" transform="translate(426.42578125,378.578125)"/>
<path d="M0 0 C5.092 2.282 8.684 5.729 11.781 10.348 C13.691 16.076 13.693 22.123 11.156 27.66 C8.512 32.285 5.129 34.978 0.531 37.66 C-5.538 39.177 -11.095 39.429 -16.594 36.16 C-21.26 32.82 -24.72 28.968 -26.219 23.348 C-27.054 16.907 -26.454 12.367 -22.648 7.035 C-16.574 -0.135 -9.084 -2.671 0 0 Z " fill="#FCCBBD" transform="translate(98.21875,381.65234375)"/>
<path d="M0 0 C3.938 2.568 6.746 5.617 8.875 9.875 C9.249 15.48 9.084 19.062 5.875 23.875 C2.165 27.625 -1.036 29.674 -6.375 30.188 C-12.267 29.696 -15.616 27.582 -19.5 23.188 C-21.778 18.545 -23.152 13.956 -21.461 8.883 C-16.911 0.263 -9.308 -3.351 0 0 Z " fill="#F9C9BC" transform="translate(439.125,48.125)"/>
</svg>
