<?xml version="1.0" encoding="UTF-8"?>
<!-- Generator: visioncortex VTracer 0.6.12 -->
<svg version="1.1" xmlns="http://www.w3.org/2000/svg" width="512" height="512">
<path d="M0 0 C1.104 -0.005 2.208 -0.011 3.346 -0.016 C6.953 -0.029 10.559 -0.02 14.167 -0.01 C16.691 -0.012 19.215 -0.015 21.74 -0.019 C27.01 -0.023 32.28 -0.017 37.55 -0.003 C43.63 0.013 49.711 0.008 55.791 -0.008 C61.666 -0.024 67.542 -0.022 73.417 -0.013 C75.908 -0.011 78.398 -0.014 80.888 -0.021 C84.363 -0.028 87.838 -0.017 91.312 0 C92.338 -0.006 93.364 -0.012 94.42 -0.018 C100.537 0.036 105.234 0.556 109.913 4.923 C113.844 10.064 114.426 12.946 114.461 19.3 C114.469 20.118 114.477 20.937 114.486 21.78 C114.511 24.502 114.527 27.224 114.542 29.947 C114.547 30.881 114.552 31.815 114.558 32.778 C114.584 37.741 114.604 42.703 114.618 47.666 C114.631 51.742 114.659 55.818 114.7 59.894 C114.75 64.837 114.774 69.78 114.781 74.724 C114.788 76.592 114.803 78.46 114.827 80.328 C114.988 93.467 113.158 104.851 109.268 117.388 C107.959 121.735 107.018 125.658 106.959 130.232 C106.937 131.306 106.914 132.38 106.89 133.487 C106.871 134.609 106.851 135.732 106.831 136.888 C106.06 162.8 98.954 183.883 80.268 202.388 C79.253 203.086 78.238 203.785 77.192 204.504 C74.419 206.815 74.277 207.346 73.495 211.169 C73.454 212.623 73.445 214.078 73.463 215.533 C73.45 216.303 73.436 217.072 73.422 217.865 C73.385 220.311 73.388 222.755 73.393 225.201 C73.375 226.864 73.354 228.528 73.331 230.191 C73.279 234.257 73.264 238.322 73.268 242.388 C73.654 242.367 73.654 242.367 75.605 242.258 C78.268 242.388 78.268 242.388 80.874 244.47 C83.408 247.559 84.97 250.426 86.581 254.076 C87.092 255.214 87.604 256.352 88.131 257.525 C89.268 260.388 89.268 260.388 89.268 262.388 C89.914 262.487 90.561 262.585 91.226 262.686 C95.288 263.623 99.053 265.119 102.936 266.619 C104.651 267.264 106.367 267.908 108.083 268.55 C110.769 269.559 113.451 270.574 116.126 271.613 C118.721 272.617 121.327 273.589 123.936 274.556 C124.722 274.87 125.508 275.183 126.317 275.506 C132.529 277.76 136.982 277.104 143.268 275.388 C144.822 275.056 146.378 274.731 147.936 274.416 C161.525 271.258 161.525 271.258 165.706 265.576 C166.158 264.785 166.61 263.995 167.077 263.181 C167.47 262.589 167.863 261.998 168.268 261.388 C169.258 261.388 170.248 261.388 171.268 261.388 C171.268 257.428 171.268 253.468 171.268 249.388 C169.618 248.728 167.968 248.068 166.268 247.388 C156.333 240.201 150.09 229.211 147.268 217.388 C146.907 214.166 146.725 210.936 146.518 207.701 C145.854 199.099 144.128 191.31 141.388 183.137 C137.625 171.893 135.657 157.546 140.241 146.31 C144.917 137.563 152.186 134.488 161.018 130.826 C164.395 129.332 167.223 127.464 170.268 125.388 C173.678 124.252 176.327 124.24 179.923 124.211 C180.595 124.205 181.267 124.198 181.96 124.191 C184.182 124.172 186.405 124.16 188.627 124.15 C189.388 124.146 190.149 124.142 190.933 124.138 C194.961 124.117 198.989 124.102 203.017 124.093 C207.168 124.082 211.318 124.048 215.468 124.008 C218.668 123.982 221.868 123.973 225.068 123.97 C226.597 123.965 228.127 123.953 229.656 123.935 C244.586 123.764 244.586 123.764 250.268 128.388 C257.905 138.035 255.769 151.49 255.03 163.146 C254.305 169.222 252.85 174.852 251.032 180.671 C248.314 189.402 246.836 197.221 246.706 206.388 C246.45 222.61 240.693 234.222 229.295 245.759 C227.268 247.388 227.268 247.388 222.268 249.388 C222.268 253.348 222.268 257.308 222.268 261.388 C223.588 261.718 224.908 262.048 226.268 262.388 C230.268 267.61 230.268 267.61 230.268 270.388 C231.191 270.607 232.114 270.826 233.065 271.052 C236.651 271.916 240.224 272.825 243.794 273.751 C245.47 274.183 247.148 274.606 248.828 275.021 C269.593 280.219 269.593 280.219 276.268 289.388 C278.759 294.404 279.648 298.041 279.672 303.729 C279.676 304.077 279.676 304.077 279.693 305.84 C279.711 308.121 279.707 310.401 279.702 312.681 C279.706 314.276 279.712 315.87 279.718 317.465 C279.726 320.796 279.724 324.127 279.714 327.458 C279.703 331.726 279.723 335.992 279.752 340.259 C279.77 343.548 279.77 346.836 279.764 350.124 C279.764 351.698 279.77 353.271 279.783 354.845 C279.798 357.043 279.787 359.238 279.77 361.436 C279.77 362.06 279.77 362.06 279.769 365.221 C279.15 369.137 278.442 370.052 275.268 372.388 C272.357 372.78 269.826 372.926 266.916 372.892 C266.062 372.897 265.207 372.903 264.327 372.909 C261.444 372.924 258.563 372.91 255.68 372.896 C253.601 372.901 251.521 372.907 249.442 372.915 C243.712 372.932 237.982 372.923 232.253 372.911 C226.08 372.902 219.906 372.916 213.733 372.927 C202.334 372.944 190.934 372.942 179.535 372.931 C169.005 372.921 158.475 372.919 147.945 372.923 C147.247 372.924 146.549 372.924 145.83 372.924 C142.997 372.926 140.164 372.927 137.332 372.928 C110.746 372.94 84.161 372.929 57.576 372.908 C33.945 372.889 10.313 372.891 -13.318 372.91 C-39.854 372.931 -66.39 372.94 -92.926 372.927 C-95.753 372.926 -98.581 372.925 -101.408 372.923 C-102.105 372.923 -102.801 372.923 -103.518 372.922 C-114.043 372.918 -124.568 372.923 -135.093 372.933 C-147.057 372.945 -159.021 372.942 -170.986 372.92 C-177.094 372.91 -183.203 372.906 -189.312 372.919 C-194.898 372.931 -200.483 372.924 -206.069 372.903 C-208.096 372.898 -210.123 372.901 -212.15 372.91 C-214.894 372.922 -217.636 372.91 -220.38 372.892 C-220.778 372.896 -220.778 372.896 -222.795 372.92 C-226.336 372.871 -228.346 372.677 -231.221 370.527 C-233.205 367.718 -233.251 365.919 -233.281 362.493 C-233.3 361.304 -233.319 360.116 -233.339 358.891 C-233.337 357.609 -233.335 356.327 -233.333 355.005 C-233.341 353.667 -233.35 352.329 -233.359 350.991 C-233.374 348.185 -233.374 345.38 -233.363 342.574 C-233.352 339.003 -233.385 335.433 -233.432 331.862 C-233.462 329.096 -233.463 326.331 -233.457 323.564 C-233.458 321.616 -233.486 319.667 -233.514 317.719 C-233.417 308.258 -231.235 301.832 -224.435 295.122 C-217.59 290.736 -210.487 287.051 -203.169 283.513 C-200.833 282.373 -198.499 281.228 -196.166 280.083 C-195.145 279.589 -194.125 279.094 -193.073 278.584 C-190.732 277.388 -190.732 277.388 -189.732 276.388 C-190.313 276.248 -190.313 276.248 -193.255 275.541 C-201.897 273.401 -210.349 271.009 -218.669 267.826 C-219.42 267.545 -220.17 267.265 -220.942 266.976 C-228.416 264.022 -228.416 264.022 -230.732 260.388 C-231.841 253.903 -230.011 248.012 -228.044 241.888 C-223.674 227.368 -220.619 212.627 -218.673 197.587 C-218.631 197.257 -218.631 197.257 -218.414 195.582 C-218.003 192.366 -217.614 189.149 -217.251 185.927 C-215.773 173.577 -212.855 162.685 -205.732 152.388 C-205.23 151.629 -204.729 150.87 -204.212 150.087 C-196.916 139.808 -186.556 133.341 -174.732 129.388 C-174.02 129.143 -173.309 128.898 -172.576 128.646 C-158.59 124.719 -142.929 127.093 -130.169 133.451 C-119.387 139.61 -111.615 147.485 -105.732 158.388 C-105.26 159.239 -104.788 160.09 -104.302 160.966 C-99.381 170.693 -98.254 181.279 -96.873 191.951 C-94.24 212.226 -90.726 232.194 -84.298 251.654 C-83.611 254.972 -83.779 257.137 -84.732 260.388 C-92.466 270.669 -114.58 274.155 -126.732 276.388 C-122.425 279.216 -118.036 281.851 -113.482 284.263 C-113.077 284.478 -113.077 284.478 -111.029 285.568 C-108.296 286.544 -107.448 286.269 -104.732 285.388 C-103.207 284.66 -101.699 283.895 -100.206 283.102 C-94.663 280.277 -88.983 278.089 -83.142 275.962 C-82.076 275.57 -81.009 275.177 -79.911 274.773 C-77.677 273.953 -75.443 273.135 -73.207 272.321 C-69.777 271.069 -66.351 269.807 -62.925 268.542 C-60.748 267.744 -58.57 266.947 -56.392 266.15 C-55.367 265.772 -54.342 265.394 -53.286 265.004 C-52.812 264.832 -52.812 264.832 -50.412 263.961 C-49.578 263.656 -48.745 263.352 -47.886 263.038 C-45.732 262.388 -45.732 262.388 -42.732 262.388 C-42.573 261.843 -42.415 261.298 -42.251 260.736 C-40.154 253.956 -37.824 246.449 -31.732 242.388 C-29.044 242.263 -29.044 242.263 -26.732 242.388 C-26.602 237.585 -26.546 232.789 -26.555 227.984 C-26.548 226.354 -26.522 224.725 -26.475 223.096 C-26.105 209.566 -26.105 209.566 -30.094 204.226 C-32.865 201.744 -35.715 199.559 -38.732 197.388 C-53.225 182.72 -59.659 161.72 -59.871 141.592 C-60.059 128.776 -61.869 117.567 -66.083 105.471 C-67.773 100.046 -67.921 94.878 -67.97 89.24 C-67.978 88.35 -67.986 87.461 -67.995 86.544 C-68.008 84.66 -68.019 82.775 -68.027 80.891 C-68.039 78.99 -68.059 77.09 -68.089 75.189 C-68.416 54.255 -64.968 36.366 -50.062 20.571 C-36.26 6.608 -19.522 -0.117 0 0 Z " fill="#FE4F7C" transform="translate(232.73193359375,69.61181640625)"/>
<path d="M0 0 C1.104 -0.005 2.208 -0.011 3.346 -0.016 C6.953 -0.029 10.559 -0.02 14.167 -0.01 C16.691 -0.012 19.215 -0.015 21.74 -0.019 C27.01 -0.023 32.28 -0.017 37.55 -0.003 C43.63 0.013 49.711 0.008 55.791 -0.008 C61.666 -0.024 67.542 -0.022 73.417 -0.013 C75.908 -0.011 78.398 -0.014 80.888 -0.021 C84.363 -0.028 87.838 -0.017 91.312 0 C92.338 -0.006 93.364 -0.012 94.42 -0.018 C100.537 0.036 105.234 0.556 109.913 4.923 C113.844 10.064 114.426 12.946 114.461 19.3 C114.465 19.709 114.465 19.709 114.486 21.78 C114.511 24.502 114.527 27.224 114.542 29.947 C114.547 30.881 114.552 31.815 114.558 32.778 C114.584 37.741 114.604 42.703 114.618 47.666 C114.631 51.742 114.659 55.818 114.7 59.894 C114.75 64.837 114.774 69.78 114.781 74.724 C114.788 76.592 114.803 78.46 114.827 80.328 C114.988 93.467 113.158 104.851 109.268 117.388 C107.959 121.735 107.018 125.658 106.959 130.232 C106.948 130.769 106.948 130.769 106.89 133.487 C106.871 134.609 106.851 135.732 106.831 136.888 C106.06 162.8 98.954 183.883 80.268 202.388 C79.245 203.086 78.222 203.784 77.168 204.504 C74.374 206.832 74.286 207.277 73.67 211.165 C73.703 212.625 73.765 214.083 73.85 215.541 C73.876 217.138 73.9 218.735 73.922 220.332 C73.993 222.832 74.081 225.33 74.196 227.829 C74.415 233.174 74.463 238.153 73.268 243.388 C70.111 246.728 66.517 247.828 62.268 249.388 C60.284 250.535 58.327 251.732 56.401 252.974 C55.91 253.283 55.91 253.283 53.426 254.845 C52.925 255.162 52.925 255.162 50.393 256.763 C49.345 257.419 48.296 258.075 47.216 258.751 C42.794 261.52 38.382 264.295 34.034 267.177 C33.739 267.369 33.739 267.369 32.248 268.34 C30.775 269.302 29.314 270.282 27.854 271.263 C24.382 272.773 22.88 272.532 19.268 271.388 C16.374 269.861 13.677 268.077 10.956 266.263 C9.285 265.178 7.614 264.096 5.94 263.017 C5.04 262.436 4.139 261.855 3.211 261.256 C-2.229 257.803 -7.764 254.507 -13.294 251.201 C-14.395 250.541 -15.496 249.882 -16.63 249.202 C-24.428 244.54 -24.428 244.54 -26.732 243.388 C-26.705 242.35 -26.677 241.312 -26.649 240.242 C-26.562 236.346 -26.548 232.453 -26.555 228.557 C-26.548 226.879 -26.522 225.201 -26.475 223.523 C-26.105 209.587 -26.105 209.587 -30.094 204.195 C-32.863 201.715 -35.708 199.544 -38.732 197.388 C-53.23 182.732 -59.659 161.712 -59.871 141.592 C-60.059 128.776 -61.869 117.567 -66.083 105.471 C-67.773 100.046 -67.921 94.878 -67.97 89.24 C-67.974 88.795 -67.974 88.795 -67.995 86.544 C-68.008 84.66 -68.019 82.775 -68.027 80.891 C-68.039 78.99 -68.059 77.09 -68.089 75.189 C-68.416 54.255 -64.968 36.366 -50.062 20.571 C-36.26 6.608 -19.522 -0.117 0 0 Z " fill="#EFBF86" transform="translate(232.73193359375,69.61181640625)"/>
<path d="M0 0 C6.38 5.49 10.992 11.315 14.98 18.707 C15.452 19.558 15.924 20.409 16.41 21.285 C21.332 31.012 22.459 41.597 23.84 52.27 C26.472 72.545 29.986 92.513 36.414 111.973 C37.101 115.291 36.934 117.456 35.98 120.707 C28.247 130.988 6.133 134.474 -6.02 136.707 C0.408 140.909 7.074 144.357 13.98 147.707 C12.685 150.417 11.235 152.855 9.543 155.332 C4.149 164.012 3.529 172.731 3.582 182.758 C3.579 183.975 3.576 185.192 3.573 186.446 C3.571 189.001 3.577 191.557 3.589 194.113 C3.605 198.025 3.589 201.937 3.57 205.85 C3.572 208.34 3.576 210.83 3.582 213.32 C3.576 214.488 3.57 215.656 3.564 216.859 C3.573 217.947 3.583 219.036 3.592 220.157 C3.593 220.634 3.593 220.634 3.6 223.047 C4.19 227.168 6.078 229.805 8.98 232.707 C-6.205 232.8 -21.391 232.871 -36.577 232.914 C-43.628 232.935 -50.679 232.963 -57.73 233.009 C-64.532 233.053 -71.333 233.076 -78.135 233.087 C-80.733 233.094 -83.331 233.108 -85.929 233.13 C-89.561 233.159 -93.193 233.163 -96.825 233.161 C-97.905 233.176 -98.985 233.19 -100.097 233.205 C-107.285 233.165 -107.285 233.165 -110.685 231.047 C-112.357 228.115 -112.539 226.186 -112.569 222.812 C-112.588 221.623 -112.607 220.435 -112.627 219.21 C-112.625 217.928 -112.623 216.645 -112.621 215.324 C-112.629 213.986 -112.638 212.648 -112.647 211.31 C-112.662 208.504 -112.661 205.699 -112.651 202.893 C-112.639 199.321 -112.673 195.752 -112.72 192.181 C-112.749 189.415 -112.751 186.649 -112.745 183.883 C-112.746 181.935 -112.774 179.986 -112.802 178.038 C-112.704 168.577 -110.523 162.151 -103.723 155.441 C-96.877 151.055 -89.774 147.37 -82.457 143.832 C-80.121 142.692 -77.787 141.547 -75.453 140.402 C-74.433 139.908 -73.412 139.413 -72.361 138.903 C-70.02 137.707 -70.02 137.707 -69.02 136.707 C-69.601 136.567 -69.601 136.567 -72.543 135.859 C-81.185 133.72 -89.637 131.328 -97.957 128.145 C-98.707 127.864 -99.457 127.584 -100.23 127.295 C-107.704 124.341 -107.704 124.341 -110.02 120.707 C-111.128 114.222 -109.299 108.33 -107.332 102.207 C-102.961 87.687 -99.907 72.946 -97.961 57.906 C-97.918 57.575 -97.918 57.575 -97.701 55.901 C-97.291 52.685 -96.902 49.468 -96.539 46.246 C-95.06 33.896 -92.143 23.004 -85.02 12.707 C-84.518 11.948 -84.017 11.189 -83.5 10.406 C-76.203 0.127 -65.844 -6.34 -54.02 -10.293 C-53.308 -10.538 -52.596 -10.783 -51.863 -11.035 C-33.839 -16.096 -14.587 -11.077 0 0 Z " fill="#D5DBEC" transform="translate(112.01953125,209.29296875)"/>
<path d="M0 0 C0.672 -0.007 1.344 -0.013 2.036 -0.02 C4.259 -0.04 6.481 -0.051 8.704 -0.061 C9.084 -0.063 9.084 -0.063 11.01 -0.074 C15.038 -0.094 19.066 -0.109 23.094 -0.118 C27.244 -0.129 31.394 -0.164 35.545 -0.203 C38.745 -0.23 41.945 -0.238 45.145 -0.241 C46.674 -0.246 48.203 -0.258 49.733 -0.276 C64.663 -0.447 64.663 -0.447 70.345 4.177 C77.982 13.824 75.846 27.279 75.106 38.935 C74.382 45.011 72.927 50.641 71.109 56.46 C68.39 65.191 66.913 73.01 66.782 82.177 C66.527 98.399 60.769 110.011 49.372 121.548 C47.345 123.177 47.345 123.177 42.345 125.177 C42.345 129.137 42.345 133.097 42.345 137.177 C43.665 137.507 44.985 137.837 46.345 138.177 C50.345 143.399 50.345 143.399 50.345 146.177 C50.806 146.287 50.806 146.287 53.142 146.841 C56.728 147.705 60.301 148.614 63.871 149.54 C65.547 149.971 67.225 150.395 68.904 150.81 C89.669 156.007 89.669 156.007 96.345 165.177 C98.835 170.193 99.724 173.83 99.749 179.518 C99.756 180.214 99.763 180.911 99.77 181.629 C99.788 183.91 99.784 186.189 99.778 188.47 C99.783 190.065 99.788 191.659 99.794 193.254 C99.803 196.585 99.801 199.916 99.791 203.247 C99.779 207.514 99.8 211.781 99.829 216.048 C99.847 219.337 99.847 222.625 99.841 225.913 C99.841 227.487 99.847 229.06 99.859 230.634 C99.874 232.831 99.864 235.027 99.846 237.225 C99.846 238.474 99.846 239.723 99.846 241.01 C99.345 244.177 99.345 244.177 98.013 246.583 C93.631 249.201 89.155 248.698 84.15 248.631 C83.009 248.632 81.867 248.632 80.691 248.633 C76.913 248.63 73.137 248.599 69.36 248.568 C66.743 248.56 64.125 248.554 61.508 248.55 C55.321 248.538 49.134 248.505 42.947 248.465 C35.902 248.42 28.858 248.398 21.813 248.378 C7.323 248.336 -7.166 248.266 -21.655 248.177 C-21.016 247.393 -20.377 246.61 -19.718 245.802 C-16.871 242.179 -16.526 240.502 -16.494 235.968 C-16.485 234.879 -16.475 233.791 -16.465 232.669 C-16.461 231.486 -16.457 230.302 -16.452 229.083 C-16.449 228.475 -16.449 228.475 -16.435 225.397 C-16.425 222.815 -16.419 220.232 -16.415 217.65 C-16.405 213.721 -16.374 209.793 -16.343 205.865 C-16.336 203.354 -16.331 200.844 -16.327 198.333 C-16.315 197.166 -16.302 195.999 -16.29 194.797 C-16.32 183.577 -18.643 174.189 -26.042 165.56 C-31.462 160.29 -38.733 157.885 -45.655 155.177 C-43.193 152.715 -41.613 152.534 -38.237 151.767 C-37.147 151.498 -36.058 151.229 -34.935 150.952 C-32.648 150.4 -30.356 149.868 -28.06 149.359 C-20.742 147.505 -17.071 145.482 -13.029 139.007 C-12.576 138.403 -12.122 137.799 -11.655 137.177 C-10.665 137.177 -9.675 137.177 -8.655 137.177 C-8.655 133.217 -8.655 129.257 -8.655 125.177 C-10.305 124.517 -11.955 123.857 -13.655 123.177 C-23.59 115.99 -29.833 105 -32.655 93.177 C-33.016 89.955 -33.198 86.725 -33.405 83.49 C-34.069 74.888 -35.796 67.098 -38.535 58.926 C-42.299 47.682 -44.266 33.335 -39.683 22.099 C-35.007 13.352 -27.737 10.276 -18.905 6.615 C-15.528 5.121 -12.7 3.253 -9.655 1.177 C-6.245 0.04 -3.597 0.029 0 0 Z " fill="#EFBF86" transform="translate(412.6552734375,193.822998046875)"/>
<path d="M0 0 C1.104 -0.005 2.208 -0.011 3.346 -0.016 C6.953 -0.029 10.559 -0.02 14.167 -0.01 C16.691 -0.012 19.215 -0.015 21.74 -0.019 C27.01 -0.023 32.28 -0.017 37.55 -0.003 C43.63 0.013 49.711 0.008 55.791 -0.008 C61.666 -0.024 67.542 -0.022 73.417 -0.013 C75.908 -0.011 78.398 -0.014 80.888 -0.021 C84.363 -0.028 87.838 -0.017 91.312 0 C92.338 -0.006 93.364 -0.012 94.42 -0.018 C100.537 0.036 105.234 0.556 109.913 4.923 C113.844 10.064 114.426 12.946 114.461 19.3 C114.465 19.709 114.465 19.709 114.486 21.78 C114.511 24.502 114.527 27.224 114.542 29.947 C114.547 30.881 114.552 31.815 114.558 32.778 C114.584 37.741 114.604 42.703 114.618 47.666 C114.631 51.742 114.659 55.818 114.7 59.894 C114.75 64.837 114.774 69.78 114.781 74.724 C114.788 76.592 114.803 78.46 114.827 80.328 C114.988 93.47 113.152 104.848 109.268 117.388 C108.145 121.184 107.059 124.876 106.643 128.826 C106.581 129.413 106.581 129.413 106.268 132.388 C105.938 132.388 105.608 132.388 105.268 132.388 C105.236 132.11 105.236 132.11 105.077 130.701 C103.971 123.811 101.064 120.277 96.268 115.388 C90.267 108.621 89.041 104.626 88.905 95.58 C87.867 90.379 84.551 88.308 80.393 85.326 C69.638 78.657 58.907 74.638 46.643 71.638 C45.785 71.427 44.926 71.216 44.042 70.999 C21.253 65.708 -3.877 67.305 -26.732 71.388 C-27.422 71.511 -28.112 71.634 -28.823 71.76 C-37.845 73.453 -37.845 73.453 -40.341 76.085 C-42.085 78.972 -42.101 80.826 -42.103 84.185 C-42.12 85.309 -42.138 86.433 -42.156 87.591 C-42.165 89.94 -42.17 92.289 -42.171 94.638 C-42.311 103.048 -43.352 108.58 -48.986 114.927 C-49.748 115.616 -50.51 116.304 -51.294 117.013 C-54.763 120.305 -57.019 122.935 -58.732 127.388 C-60.574 124.625 -61.322 122.81 -62.205 119.677 C-62.334 119.22 -62.334 119.22 -62.992 116.904 C-63.257 115.95 -63.522 114.996 -63.794 114.013 C-64.063 113.067 -64.332 112.121 -64.609 111.146 C-66.716 103.664 -67.902 97.014 -67.97 89.24 C-67.974 88.795 -67.974 88.795 -67.995 86.544 C-68.008 84.66 -68.019 82.775 -68.027 80.891 C-68.039 78.99 -68.059 77.09 -68.089 75.189 C-68.416 54.255 -64.968 36.366 -50.062 20.571 C-36.26 6.608 -19.522 -0.117 0 0 Z " fill="#694B4B" transform="translate(232.73193359375,69.61181640625)"/>
<path d="M0 0 C4.175 0.702 5.928 1.479 8.812 4.625 C12.674 8.689 16.737 12.364 21 16 C21.679 16.584 22.359 17.168 23.059 17.77 C24.703 19.183 26.351 20.592 28 22 C33.289 18.938 37.202 14.888 41.473 10.547 C43.711 8.291 45.968 6.083 48.312 3.938 C48.907 3.39 49.501 2.842 50.113 2.277 C52.377 0.745 54.314 0.374 57 0 C57.839 1.121 58.671 2.247 59.5 3.375 C59.964 4.001 60.428 4.628 60.906 5.273 C62 7 62 7 62 9 C62.923 9.219 63.846 9.438 64.797 9.664 C68.383 10.528 71.956 11.437 75.526 12.363 C77.202 12.794 78.88 13.218 80.56 13.633 C101.325 18.83 101.325 18.83 108 28 C110.491 33.016 111.379 36.653 111.404 42.341 C111.411 43.037 111.418 43.734 111.425 44.452 C111.443 46.733 111.439 49.012 111.434 51.293 C111.438 52.888 111.443 54.482 111.449 56.077 C111.458 59.408 111.456 62.739 111.446 66.07 C111.435 70.337 111.455 74.604 111.484 78.871 C111.502 82.16 111.502 85.448 111.496 88.736 C111.496 90.31 111.502 91.883 111.515 93.457 C111.529 95.654 111.519 97.85 111.502 100.048 C111.502 101.297 111.501 102.546 111.501 103.833 C111 107 111 107 109.668 109.406 C105.286 112.024 100.81 111.521 95.806 111.454 C94.664 111.455 93.522 111.455 92.346 111.456 C88.569 111.453 84.793 111.422 81.016 111.391 C78.398 111.383 75.781 111.377 73.163 111.373 C66.976 111.361 60.789 111.328 54.602 111.288 C47.558 111.243 40.513 111.221 33.468 111.201 C18.979 111.159 4.489 111.089 -10 111 C-9.361 110.216 -8.721 109.433 -8.062 108.625 C-5.216 105.002 -4.871 103.325 -4.839 98.791 C-4.829 97.702 -4.82 96.614 -4.81 95.492 C-4.806 94.309 -4.801 93.125 -4.797 91.906 C-4.794 91.298 -4.794 91.298 -4.78 88.22 C-4.77 85.638 -4.764 83.055 -4.76 80.473 C-4.75 76.544 -4.719 72.616 -4.688 68.688 C-4.681 66.177 -4.676 63.667 -4.672 61.156 C-4.66 59.989 -4.647 58.822 -4.634 57.62 C-4.665 46.4 -6.988 37.012 -14.387 28.383 C-19.807 23.113 -27.077 20.708 -34 18 C-31.538 15.538 -29.958 15.357 -26.582 14.59 C-26.037 14.455 -26.037 14.455 -23.279 13.775 C-20.993 13.223 -18.701 12.691 -16.404 12.182 C-9.059 10.32 -5.325 8.186 -1.081 1.83 C-0.902 1.528 -0.902 1.528 0 0 Z " fill="#D4DBEC" transform="translate(401,331)"/>
<path d="M0 0 C0.653 0.124 1.305 0.247 1.978 0.375 C17.727 3.406 36.607 8.755 47.809 20.973 C49.783 24.332 49.191 27.171 49 31 C47.824 30.608 46.649 30.216 45.438 29.812 C45.027 29.677 45.027 29.677 42.949 28.988 C40.802 28.269 38.659 27.535 36.52 26.793 C20.843 21.416 6.278 18.824 -10.312 18.875 C-11.567 18.871 -12.822 18.867 -14.115 18.863 C-36.821 18.887 -36.821 18.887 -44 24 C-48.417 28.757 -49.128 31.424 -49.177 37.842 C-49.184 38.547 -49.19 39.251 -49.197 39.977 C-49.217 42.319 -49.228 44.662 -49.238 47.004 C-49.242 47.808 -49.246 48.613 -49.251 49.441 C-49.272 53.714 -49.286 57.987 -49.295 62.26 C-49.306 66.631 -49.34 71.001 -49.38 75.371 C-49.407 78.764 -49.415 82.158 -49.418 85.551 C-49.423 87.159 -49.435 88.767 -49.453 90.374 C-49.699 112.808 -43.812 133.695 -29 151 C-25.43 153.726 -21.252 153.305 -16.938 153.25 C-16.175 153.243 -15.412 153.235 -14.625 153.227 C0.594 152.939 14.751 148.534 27.609 140.453 C30 139 30 139 33 138 C33 149.88 33 161.76 33 174 C29.37 175.98 25.74 177.96 22 180 C20.03 181.172 18.071 182.362 16.133 183.586 C15.642 183.895 15.642 183.895 13.158 185.457 C12.657 185.773 12.657 185.773 10.125 187.375 C9.077 188.031 8.028 188.687 6.948 189.363 C2.526 192.132 -1.886 194.907 -6.234 197.789 C-6.824 198.173 -7.413 198.556 -8.02 198.952 C-9.493 199.914 -10.954 200.894 -12.414 201.875 C-15.886 203.385 -17.388 203.143 -21 202 C-23.894 200.473 -26.591 198.689 -29.312 196.875 C-30.983 195.79 -32.655 194.708 -34.328 193.629 C-35.229 193.048 -36.129 192.466 -37.057 191.868 C-42.498 188.415 -48.032 185.118 -53.562 181.812 C-54.663 181.153 -55.764 180.493 -56.898 179.814 C-64.696 175.152 -64.696 175.152 -67 174 C-66.973 172.962 -66.945 171.924 -66.917 170.854 C-66.83 166.958 -66.816 163.065 -66.823 159.168 C-66.816 157.491 -66.79 155.813 -66.743 154.135 C-66.374 140.199 -66.374 140.199 -70.362 134.807 C-73.131 132.327 -75.976 130.156 -79 128 C-94.326 112.507 -100.11 90.63 -100.312 69.5 C-100.342 68.493 -100.371 67.486 -100.4 66.449 C-100.465 58.811 -99.299 54.55 -94 48.848 C-92.668 47.659 -91.335 46.471 -90 45.285 C-83.681 38.065 -83.469 31.153 -83.5 21.812 C-83.508 19.506 -83.498 17.2 -83.469 14.895 C-83.473 13.882 -83.478 12.87 -83.482 11.827 C-82.866 8.216 -81.566 6.576 -79 4 C-76.173 3.02 -73.72 2.351 -70.812 1.812 C-70.008 1.652 -69.203 1.492 -68.374 1.327 C-65.921 0.855 -63.463 0.421 -61 0 C-60.328 -0.12 -59.656 -0.24 -58.964 -0.364 C-40.044 -3.611 -18.821 -3.803 0 0 Z " fill="#E5AE77" transform="translate(273,139)"/>
<path d="M0 0 C4.78 0.761 9.169 2.382 13.703 4.02 C14.54 4.319 15.378 4.619 16.24 4.928 C18.009 5.563 19.778 6.199 21.545 6.837 C24.225 7.804 26.907 8.762 29.59 9.721 C31.315 10.341 33.041 10.961 34.766 11.582 C35.557 11.864 36.348 12.147 37.162 12.438 C50.305 17.199 64.22 22.462 71.281 35.336 C73.953 41.079 75.112 46.263 75.177 52.613 C75.183 53.164 75.183 53.164 75.216 55.951 C75.223 57.131 75.231 58.311 75.238 59.527 C75.246 60.749 75.254 61.971 75.263 63.229 C75.277 65.811 75.287 68.392 75.295 70.973 C75.312 74.919 75.356 78.865 75.4 82.811 C75.411 85.32 75.419 87.83 75.426 90.34 C75.443 91.518 75.461 92.696 75.479 93.91 C75.462 100.206 75.365 104.276 71 109 C68.552 110.224 66.979 110.123 64.242 110.12 C63.238 110.122 62.234 110.123 61.199 110.124 C60.094 110.121 58.988 110.117 57.849 110.114 C56.688 110.114 55.527 110.114 54.331 110.114 C50.478 110.113 46.626 110.105 42.773 110.098 C40.108 110.096 37.443 110.094 34.778 110.093 C28.47 110.09 22.163 110.082 15.855 110.072 C8.675 110.061 1.495 110.055 -5.685 110.05 C-20.457 110.04 -35.228 110.022 -50 110 C-50.788 102.089 -51.571 94.178 -52.347 86.267 C-52.708 82.592 -53.07 78.918 -53.437 75.244 C-53.791 71.691 -54.141 68.138 -54.487 64.584 C-54.683 62.584 -54.884 60.585 -55.085 58.586 C-56.608 42.864 -56.608 42.864 -56 38 C-54.062 35.875 -54.062 35.875 -52 34 C-51.344 31.304 -51.186 28.785 -51 26 C-49.979 26.875 -48.958 27.75 -47.938 28.625 C-47.297 29.166 -46.656 29.708 -45.996 30.266 C-44.706 31.386 -43.445 32.541 -42.223 33.734 C-39.343 36.477 -37.461 37.874 -33.562 38.938 C-27.896 37.446 -25.397 33.544 -22 29 C-21.474 28.297 -20.948 27.594 -20.407 26.87 C-17.37 22.79 -14.362 18.689 -11.367 14.578 C-7.725 9.595 -3.936 4.755 0 0 Z " fill="#FE507C" transform="translate(322,332)"/>
<path d="M0 0 C6.38 5.49 10.992 11.315 14.98 18.707 C15.452 19.558 15.924 20.409 16.41 21.285 C21.332 31.012 22.459 41.597 23.84 52.27 C26.472 72.545 29.986 92.513 36.414 111.973 C37.101 115.291 36.934 117.456 35.98 120.707 C28.353 130.847 7.033 134.119 -4.902 136.473 C-5.931 136.55 -6.96 136.627 -8.02 136.707 C-12.787 132.567 -12.789 127.845 -13.434 121.867 C-14.135 111.174 -14.135 111.174 -11.258 107.391 C-8.918 105.678 -6.499 104.208 -4.02 102.707 C4.201 95.262 9.56 84.68 10.98 73.707 C11.125 72.635 11.269 71.562 11.418 70.457 C10.802 66.583 8.936 65.024 5.98 62.707 C5.225 62.11 4.47 61.513 3.691 60.898 C-10.756 49.967 -33.311 35.233 -52.02 36.707 C-55.615 39.473 -57.755 42.769 -60.27 46.52 C-65.959 54.784 -73.168 60.091 -81.734 65.164 C-84.02 66.707 -84.02 66.707 -86.02 69.707 C-86.766 80.865 -81.842 91.329 -74.855 99.734 C-71.261 103.596 -67.402 106.785 -63.02 109.707 C-62.631 111.782 -62.631 111.782 -62.621 114.32 C-62.619 114.78 -62.619 114.78 -62.609 117.104 C-62.621 118.066 -62.633 119.028 -62.645 120.02 C-62.633 120.97 -62.621 121.921 -62.609 122.9 C-62.626 126.866 -62.814 130.107 -64.105 133.875 C-66.02 135.707 -66.02 135.707 -69.07 136.188 C-73.962 135.592 -78.492 134.424 -83.207 133.02 C-84.134 132.748 -85.061 132.476 -86.015 132.196 C-106.206 126.15 -106.206 126.15 -110.02 120.707 C-111.163 114.243 -109.292 108.31 -107.332 102.207 C-102.961 87.687 -99.907 72.946 -97.961 57.906 C-97.918 57.575 -97.918 57.575 -97.701 55.901 C-97.291 52.685 -96.902 49.468 -96.539 46.246 C-95.06 33.896 -92.143 23.004 -85.02 12.707 C-84.518 11.948 -84.017 11.189 -83.5 10.406 C-76.203 0.127 -65.844 -6.34 -54.02 -10.293 C-53.308 -10.538 -52.596 -10.783 -51.863 -11.035 C-33.839 -16.096 -14.587 -11.077 0 0 Z " fill="#694B4B" transform="translate(112.01953125,209.29296875)"/>
<path d="M0 0 C3.145 0.832 6.154 1.892 9.188 3.062 C10.006 3.373 10.825 3.684 11.669 4.005 C26.823 9.917 41.672 18.161 53 30 C53.33 30.33 53.66 30.66 54 31 C54.317 44.345 49.125 55.318 40.203 64.938 C34.476 70.811 34.476 70.811 31 73 C30.34 73 29.68 73 29 73 C30.015 95.015 30.015 95.015 33.699 98.699 C37.508 101.695 41.578 104.01 46 106 C40.097 118.32 28.602 124.47 16.125 128.875 C4.075 132.095 -8.018 130.138 -18.977 124.457 C-26.88 119.7 -33.423 114.066 -38 106 C-37.252 105.613 -36.505 105.227 -35.734 104.828 C-35.242 104.568 -35.242 104.568 -32.75 103.25 C-31.775 102.74 -30.801 102.229 -29.797 101.703 C-26.421 99.648 -23.785 97.57 -22 94 C-21.602 90.592 -21.537 87.177 -21.438 83.75 C-21.406 83.279 -21.406 83.279 -21.248 80.895 C-21.089 74.013 -21.089 74.013 -23.693 71.118 C-25.735 69.609 -27.819 68.296 -30 67 C-38.882 58.91 -43.985 47.624 -45.375 35.812 C-44.884 32.127 -43.486 30.735 -41 28 C-38.52 26.262 -38.52 26.262 -35.812 24.688 C-26.928 19.187 -20.816 13.54 -15.605 4.418 C-11.314 -2.045 -6.993 -1.358 0 0 Z " fill="#E5AE78" transform="translate(70,246)"/>
<path d="M0 0 C4.431 1.042 7.586 2.753 11.414 5.141 C12.133 5.576 12.851 6.011 13.592 6.46 C15.999 7.924 18.394 9.406 20.789 10.891 C22.621 12.017 24.453 13.144 26.285 14.27 C29.866 16.475 33.441 18.688 37.012 20.91 C37.819 21.407 38.626 21.904 39.458 22.417 C40.987 23.383 42.495 24.385 43.976 25.423 C47.064 27.547 48.964 28.853 52.762 29.027 C56.972 27.446 60.492 25.186 64.227 22.703 C65.902 21.617 67.58 20.532 69.258 19.449 C70.146 18.874 71.034 18.299 71.949 17.707 C76.993 14.481 82.11 11.375 87.227 8.266 C87.721 7.964 87.721 7.964 90.222 6.437 C91.151 5.872 92.079 5.308 93.035 4.727 C93.857 4.227 94.679 3.727 95.525 3.212 C102.476 -0.846 102.476 -0.846 106.789 -0.109 C110.759 3.323 112.994 6.701 115.164 11.453 C115.687 12.568 116.211 13.683 116.75 14.832 C117.848 18.065 117.87 18.808 116.789 21.891 C115.094 24.355 113.367 26.716 111.539 29.078 C111.275 29.424 111.275 29.424 109.938 31.177 C108.811 32.652 107.681 34.126 106.549 35.597 C104.769 37.917 103.004 40.248 101.242 42.582 C100.091 44.102 98.94 45.621 97.789 47.141 C97.519 47.498 97.519 47.498 96.155 49.305 C89.053 58.623 89.053 58.623 84.539 59.578 C79.183 58.596 76.531 55.68 72.789 51.891 C72.255 51.37 71.722 50.849 71.172 50.312 C70.028 49.188 68.906 48.042 67.789 46.891 C67.691 47.517 67.593 48.144 67.492 48.789 C67.343 49.606 67.193 50.424 67.039 51.266 C66.9 52.078 66.761 52.89 66.617 53.727 C65.789 55.891 65.789 55.891 63.737 57.026 C63.094 57.311 62.451 57.597 61.789 57.891 C61.864 58.63 61.939 59.37 62.017 60.132 C62.729 67.148 63.435 74.164 64.136 81.181 C64.496 84.787 64.859 88.393 65.226 91.999 C65.581 95.487 65.93 98.975 66.276 102.464 C66.472 104.424 66.673 106.384 66.874 108.344 C66.994 109.564 67.115 110.785 67.238 112.042 C67.345 113.101 67.451 114.161 67.561 115.252 C67.866 120.123 67.789 125.011 67.789 129.891 C57.229 129.891 46.669 129.891 35.789 129.891 C35.789 117.516 35.789 117.516 36.34 112.042 C36.4 111.432 36.4 111.432 36.704 108.344 C36.835 107.066 36.966 105.789 37.102 104.473 C37.237 103.121 37.371 101.769 37.505 100.417 C37.855 96.897 38.212 93.377 38.57 89.858 C38.936 86.251 39.296 82.644 39.656 79.037 C40.361 71.988 41.073 64.939 41.789 57.891 C41.146 57.605 40.503 57.32 39.841 57.026 C37.789 55.891 37.789 55.891 36.961 53.727 C36.822 52.914 36.683 52.102 36.539 51.266 C36.39 50.448 36.24 49.631 36.086 48.789 C35.988 48.163 35.89 47.536 35.789 46.891 C35.018 47.673 34.247 48.456 33.453 49.262 C32.44 50.284 31.427 51.306 30.414 52.328 C29.906 52.844 29.398 53.361 28.875 53.893 C25.796 56.992 24.009 58.617 19.727 59.578 C9.021 57.709 0.543 40.596 -5.462 32.234 C-6.673 30.611 -7.934 29.026 -9.233 27.473 C-9.883 26.694 -10.533 25.916 -11.203 25.113 C-11.802 24.421 -12.402 23.729 -13.019 23.016 C-14.211 20.891 -14.211 20.891 -13.994 18.344 C-12.918 14.972 -11.429 11.853 -9.836 8.703 C-9.532 8.075 -9.227 7.446 -8.914 6.799 C-6.683 2.341 -5.343 -0.182 0 0 Z " fill="#D23C69" transform="translate(204.2109375,312.109375)"/>
<path d="M0 0 C0.672 -0.007 1.344 -0.013 2.036 -0.02 C4.259 -0.04 6.481 -0.051 8.704 -0.061 C9.084 -0.063 9.084 -0.063 11.01 -0.074 C15.038 -0.094 19.066 -0.109 23.094 -0.118 C27.244 -0.129 31.394 -0.164 35.545 -0.203 C38.745 -0.23 41.945 -0.238 45.145 -0.241 C46.674 -0.246 48.203 -0.258 49.733 -0.276 C64.663 -0.447 64.663 -0.447 70.345 4.177 C77.982 13.824 75.846 27.279 75.106 38.935 C73.832 49.619 70.468 59.914 67.345 70.177 C65.345 68.177 65.345 68.177 64.22 65.49 C58.462 55.318 47.15 50.925 36.47 47.49 C27.024 44.886 17.138 42.757 7.345 42.177 C6.378 42.113 5.411 42.048 4.415 41.982 C3.381 41.943 2.347 41.904 1.282 41.865 C0.342 41.827 -0.597 41.79 -1.565 41.751 C-9.928 42.904 -15.286 48.204 -20.968 54.052 C-21.67 54.747 -22.372 55.442 -23.095 56.157 C-28.143 61.268 -31.584 65.895 -32.655 73.177 C-34.655 72.177 -34.655 72.177 -35.417 70.354 C-35.652 69.573 -35.886 68.791 -36.128 67.986 C-36.388 67.123 -36.647 66.26 -36.915 65.37 C-37.18 64.461 -37.445 63.551 -37.718 62.615 C-37.987 61.732 -38.255 60.85 -38.532 59.941 C-42.143 47.757 -44.902 31.864 -38.655 20.177 C-34.012 12.638 -26.789 9.883 -18.905 6.615 C-15.528 5.121 -12.7 3.253 -9.655 1.177 C-6.245 0.04 -3.597 0.029 0 0 Z " fill="#694B4B" transform="translate(412.6552734375,193.822998046875)"/>
<path d="M0 0 C0 0.33 0 0.66 0 1 C-0.641 1.147 -1.281 1.294 -1.941 1.445 C-9.116 3.306 -14.081 5.712 -18.316 11.934 C-22.023 18.971 -22.265 26.978 -20.34 34.621 C-18.176 40.176 -14.798 43.563 -10 47 C-10.99 47.66 -11.98 48.32 -13 49 C-16.364 51.99 -18.76 55.06 -21.25 58.812 C-26.94 67.077 -34.148 72.384 -42.715 77.457 C-45 79 -45 79 -47 82 C-47.746 93.158 -42.823 103.622 -35.836 112.027 C-32.242 115.889 -28.383 119.078 -24 122 C-23.612 124.075 -23.612 124.075 -23.602 126.613 C-23.6 127.073 -23.6 127.073 -23.59 129.396 C-23.601 130.359 -23.613 131.321 -23.625 132.312 C-23.613 133.263 -23.602 134.214 -23.59 135.193 C-23.606 139.159 -23.794 142.4 -25.086 146.168 C-27 148 -27 148 -30.051 148.48 C-34.942 147.885 -39.472 146.717 -44.188 145.312 C-45.114 145.041 -46.041 144.769 -46.996 144.489 C-67.187 138.443 -67.187 138.443 -71 133 C-72.144 126.536 -70.273 120.603 -68.312 114.5 C-63.942 99.98 -60.887 85.239 -58.941 70.199 C-58.899 69.868 -58.899 69.868 -58.682 68.194 C-58.271 64.978 -57.882 61.761 -57.519 58.539 C-56.041 46.189 -53.123 35.297 -46 25 C-45.499 24.241 -44.997 23.481 -44.48 22.699 C-35.834 10.518 -22.493 3.098 -7.98 0.27 C-5.303 -0.095 -2.695 -0.138 0 0 Z " fill="#5A4146" transform="translate(73,197)"/>
<path d="M0 0 C0 0.33 0 0.66 0 1 C-0.303 1.037 -0.303 1.037 -1.836 1.227 C-10.981 2.662 -19.03 6.571 -24.75 14.047 C-30.539 23.092 -31.584 32.882 -29.527 43.422 C-28.855 45.434 -28.039 47.151 -27 49 C-26.609 49.748 -26.219 50.495 -25.816 51.266 C-21.463 58.714 -15.111 62.953 -6.875 65.375 C-5.926 65.581 -4.978 65.787 -4 66 C-4 66.33 -4 66.66 -4 67 C-4.479 67.068 -4.479 67.068 -6.902 67.411 C-10.489 67.922 -14.075 68.445 -17.66 68.971 C-19.205 69.197 -20.751 69.419 -22.297 69.637 C-24.533 69.954 -26.766 70.283 -29 70.613 C-29.681 70.707 -30.361 70.801 -31.062 70.898 C-36.03 71.649 -40.393 72.965 -45 75 C-47.277 78.415 -47.25 79.687 -47.273 83.699 C-47.294 84.827 -47.315 85.954 -47.336 87.115 C-47.362 89.477 -47.38 91.839 -47.391 94.201 C-47.563 102.611 -48.62 108.192 -54.254 114.539 C-55.016 115.227 -55.778 115.916 -56.562 116.625 C-60.031 119.917 -62.287 122.547 -64 127 C-65.842 124.237 -66.59 122.422 -67.473 119.289 C-67.603 118.831 -67.603 118.831 -68.26 116.516 C-68.525 115.562 -68.79 114.608 -69.062 113.625 C-69.331 112.679 -69.6 111.733 -69.877 110.758 C-71.984 103.275 -73.17 96.626 -73.238 88.852 C-73.242 88.407 -73.242 88.407 -73.263 86.156 C-73.277 84.271 -73.287 82.387 -73.295 80.502 C-73.307 78.602 -73.327 76.702 -73.357 74.801 C-73.684 53.867 -70.236 35.978 -55.33 20.183 C-39.585 4.253 -21.744 -0.696 0 0 Z " fill="#5A4146" transform="translate(238,70)"/>
<path d="M0 0 C5.991 3.769 11.526 7.948 13.328 15.027 C13.369 15.873 13.411 16.719 13.453 17.59 C13.288 17.26 13.288 17.26 12.453 15.59 C-3.761 8.759 -23.221 6.509 -40.609 6.215 C-41.502 6.189 -42.395 6.163 -43.315 6.136 C-48.88 6.121 -52.228 6.738 -56.547 10.59 C-60.008 15.036 -59.987 18.857 -59.945 24.258 C-59.948 25.093 -59.951 25.928 -59.954 26.788 C-59.956 28.552 -59.951 30.316 -59.938 32.08 C-59.922 34.751 -59.938 37.421 -59.957 40.092 C-59.971 50.735 -59.599 60.175 -53.922 69.527 C-52.471 71.95 -51.448 73.887 -50.547 76.59 C-39.353 78.718 -29.032 78.4 -18.316 74.562 C-15.728 73.653 -13.246 73.059 -10.547 72.59 C-9.334 81.757 -9.334 81.757 -12.047 85.855 C-14.121 87.913 -16.269 89.761 -18.547 91.59 C-19.862 92.753 -21.175 93.92 -22.484 95.09 C-22.809 95.369 -22.809 95.369 -24.449 96.781 C-26.837 98.84 -29.193 100.931 -31.547 103.027 C-32.31 103.707 -33.073 104.386 -33.859 105.086 C-34.138 105.334 -34.138 105.334 -35.547 106.59 C-39.218 104.558 -41.964 102.367 -44.859 99.34 C-54.785 89.183 -54.785 89.183 -59.762 86.312 C-61.547 84.59 -61.547 84.59 -61.938 81.453 C-61.914 80.867 -61.914 80.867 -61.797 77.902 C-61.761 76.723 -61.725 75.543 -61.688 74.328 C-61.641 73.424 -61.595 72.521 -61.547 71.59 C-62.311 71.304 -63.076 71.017 -63.863 70.723 C-73.831 66.515 -79.445 56.051 -83.547 46.59 C-87.108 36.262 -88.679 23.056 -84.637 12.66 C-82.56 8.715 -79.66 5.742 -76.547 2.59 C-75.682 1.664 -74.817 0.739 -73.926 -0.215 C-54.828 -20.404 -22.526 -12.472 0 0 Z " fill="#E5AE77" transform="translate(465.546875,247.41015625)"/>
<path d="M0 0 C3.115 3.038 5.571 5.459 7.25 9.5 C7.565 10.232 7.879 10.964 8.203 11.719 C9.703 16.012 10.131 20.082 10.177 24.613 C10.183 25.164 10.183 25.164 10.216 27.951 C10.223 29.131 10.231 30.311 10.238 31.527 C10.246 32.749 10.254 33.971 10.263 35.229 C10.277 37.811 10.287 40.392 10.295 42.973 C10.312 46.919 10.356 50.865 10.4 54.811 C10.411 57.32 10.419 59.83 10.426 62.34 C10.443 63.518 10.461 64.696 10.479 65.91 C10.462 72.206 10.365 76.276 6 81 C3.67 82.165 2.328 82.121 -0.266 82.114 C-0.706 82.113 -0.706 82.113 -2.935 82.113 C-3.887 82.108 -4.839 82.103 -5.82 82.098 C-6.794 82.096 -7.768 82.095 -8.771 82.093 C-11.889 82.088 -15.007 82.075 -18.125 82.062 C-20.236 82.057 -22.346 82.053 -24.457 82.049 C-29.638 82.038 -34.819 82.021 -40 82 C-40.1 77.18 -40.172 72.361 -40.22 67.541 C-40.24 65.905 -40.267 64.268 -40.302 62.633 C-40.604 48.062 -38.317 39.166 -28.308 28.135 C-26.513 26.284 -24.69 24.465 -22.852 22.656 C-22.194 22.002 -21.537 21.347 -20.859 20.673 C-18.786 18.61 -16.706 16.555 -14.625 14.5 C-13.207 13.092 -11.789 11.683 -10.371 10.273 C-6.919 6.844 -3.461 3.42 0 0 Z " fill="#D23D6A" transform="translate(387,360)"/>
<path d="M0 0 C4.654 3.9 9.104 7.935 13.414 12.211 C13.992 12.783 14.569 13.355 15.164 13.944 C16.374 15.144 17.582 16.346 18.789 17.549 C20.621 19.371 22.462 21.181 24.305 22.992 C25.488 24.169 26.67 25.346 27.852 26.523 C28.394 27.054 28.937 27.584 29.496 28.131 C36.531 35.207 41.229 42.79 41.227 53.016 C41.216 53.751 41.206 54.485 41.195 55.242 C41.192 56.011 41.19 56.779 41.187 57.571 C41.176 60.006 41.151 62.44 41.125 64.875 C41.115 66.534 41.106 68.193 41.098 69.852 C41.076 73.901 41.041 77.951 41 82 C34.825 82.124 28.651 82.214 22.476 82.275 C20.376 82.3 18.276 82.334 16.176 82.377 C13.155 82.438 10.135 82.466 7.113 82.488 C6.177 82.514 5.24 82.54 4.275 82.566 C-0.347 82.568 -2.326 82.528 -6.07 79.594 C-8.764 75.973 -9.129 74.247 -9.161 69.791 C-9.166 69.247 -9.166 69.247 -9.19 66.492 C-9.194 65.309 -9.199 64.125 -9.203 62.906 C-9.209 61.69 -9.215 60.473 -9.22 59.22 C-9.23 56.638 -9.236 54.055 -9.24 51.473 C-9.25 47.544 -9.281 43.616 -9.312 39.688 C-9.319 37.177 -9.324 34.667 -9.328 32.156 C-9.34 30.989 -9.353 29.822 -9.366 28.62 C-9.342 19.998 -8.341 11.734 -3.375 4.438 C-3.162 4.117 -3.162 4.117 -2.086 2.496 C-1 1 -1 1 0 0 Z " fill="#D23D6A" transform="translate(124,360)"/>
<path d="M0 0 C17.131 3.953 32.311 14.197 45.812 25.062 C46.442 25.545 47.072 26.027 47.721 26.524 C49.457 27.973 49.457 27.973 52 31 C52.094 37.667 49.184 41.21 45 46 C44.471 46.611 43.943 47.222 43.398 47.852 C38.905 52.686 33.85 55.993 28 59 C27.601 59.208 27.601 59.208 25.582 60.262 C19.514 62.943 13.674 63.434 7.125 63.562 C6.714 63.576 6.714 63.576 4.637 63.644 C0.358 63.617 -1.441 63.447 -4.879 60.695 C-5.579 59.806 -6.279 58.916 -7 58 C-7.548 57.377 -8.096 56.755 -8.66 56.113 C-15.241 47.663 -17.709 39.4 -17.688 28.75 C-17.708 28.273 -17.708 28.273 -17.811 25.859 C-17.844 19.059 -17.844 19.059 -15.564 16.198 C-13.762 14.691 -13.762 14.691 -11.842 13.324 C-9.1 11.353 -7.209 8.823 -5.125 6.188 C-4.364 5.232 -3.604 4.277 -2.82 3.293 C-2.22 2.536 -1.619 1.78 -1 1 C-0.67 0.67 -0.34 0.34 0 0 Z " fill="#EFBF86" transform="translate(67,263)"/>
<path d="M0 0 C1.765 2.647 3.198 5.244 4.645 8.07 C5.157 9.049 5.669 10.027 6.197 11.035 C7.275 13.096 8.34 15.164 9.393 17.238 C9.909 18.214 10.425 19.19 10.957 20.195 C11.421 21.093 11.885 21.99 12.363 22.915 C14 25 14 25 16.564 25.849 C19.375 26.023 20.475 25.575 22.812 24.062 C23.864 23.382 24.916 22.701 26 22 C26.195 24.018 26.391 26.036 26.586 28.055 C27 30 27 30 29 32 C29.228 34.911 29.228 34.911 29.184 38.73 C29.176 39.431 29.169 40.132 29.161 40.854 C29.032 49.709 28.621 58.557 28.2 67.402 C28.062 70.325 27.93 73.25 27.799 76.174 C27.711 78.07 27.623 79.967 27.535 81.863 C27.516 82.291 27.516 82.291 27.418 84.456 C27.118 90.671 26.565 96.788 26 103 C16.1 103 6.2 103 -4 103 C-2.68 101.35 -1.36 99.7 0 98 C1.273 95.453 1.141 93.642 1.161 90.791 C1.171 89.702 1.18 88.614 1.19 87.492 C1.194 86.309 1.199 85.125 1.203 83.906 C1.206 83.298 1.206 83.298 1.22 80.22 C1.23 77.638 1.236 75.055 1.24 72.473 C1.25 68.544 1.281 64.616 1.312 60.688 C1.319 58.177 1.324 55.667 1.328 53.156 C1.34 51.989 1.353 50.822 1.366 49.62 C1.335 38.4 -0.988 29.012 -8.387 20.383 C-13.807 15.113 -21.077 12.708 -28 10 C-25.527 7.527 -23.738 7.212 -20.371 6.309 C-19.254 6.004 -18.137 5.699 -16.986 5.385 C-15.815 5.072 -14.644 4.76 -13.438 4.438 C-11.123 3.814 -8.809 3.188 -6.496 2.559 C-5.467 2.283 -4.437 2.008 -3.377 1.724 C-1 1 -1 1 0 0 Z " fill="#D5DBEC" transform="translate(395,339)"/>
<path d="M0 0 C6.219 2.636 11.087 7.617 15 13 C15.88 17.18 15.725 20.806 15 25 C14.34 25.33 14.34 25.33 11 27 C11.075 27.74 11.15 28.48 11.228 29.242 C11.94 36.257 12.646 43.274 13.347 50.29 C13.707 53.897 14.07 57.503 14.437 61.108 C14.791 64.596 15.141 68.084 15.487 71.573 C15.683 73.534 15.884 75.493 16.085 77.453 C16.205 78.674 16.325 79.894 16.449 81.152 C16.503 81.681 16.503 81.681 16.772 84.361 C17.077 89.232 17 94.12 17 99 C6.44 99 -4.12 99 -15 99 C-15 86.625 -15 86.625 -14.449 81.152 C-14.389 80.541 -14.389 80.541 -14.085 77.453 C-13.954 76.176 -13.823 74.898 -13.688 73.582 C-13.553 72.23 -13.418 70.878 -13.284 69.526 C-12.934 66.006 -12.577 62.487 -12.219 58.967 C-11.853 55.361 -11.493 51.754 -11.133 48.146 C-10.428 41.097 -9.716 34.048 -9 27 C-10.32 26.34 -11.64 25.68 -13 25 C-13.898 20.739 -14.038 17.249 -13 13 C-9.503 7.945 -4.65 3.96 0 0 Z " fill="#717386" transform="translate(255,343)"/>
<path d="M0 0 C4.173 0.504 5.989 1.546 8.812 4.625 C12.674 8.689 16.737 12.364 21 16 C21.679 16.584 22.359 17.168 23.059 17.77 C24.703 19.183 26.351 20.592 28 22 C33.289 18.938 37.202 14.888 41.473 10.547 C43.711 8.291 45.968 6.083 48.312 3.938 C48.907 3.39 49.501 2.842 50.113 2.277 C52.377 0.745 54.314 0.374 57 0 C57.875 1.024 58.725 2.07 59.562 3.125 C60.038 3.705 60.514 4.285 61.004 4.883 C62.424 7.901 61.726 9.78 61 13 C59.379 16.753 57.328 20.258 55.312 23.812 C54.795 24.779 54.277 25.745 53.744 26.74 C49.831 33.675 49.831 33.675 45.785 35.258 C42.145 34.921 40.582 33.506 38 31 C37.34 33.64 36.68 36.28 36 39 C35.34 39 34.68 39 34 39 C34.99 62.76 35.98 86.52 37 111 C31.39 111 25.78 111 20 111 C19.821 99.116 20.552 87.266 21.146 75.402 C21.62 65.849 22.09 56.296 22.188 46.73 C22.202 45.47 22.216 44.21 22.23 42.911 C22 40 22 40 20 38 C19.6 35.677 19.26 33.343 19 31 C18.557 31.34 18.557 31.34 16.312 33.062 C13 35 13 35 10.473 34.887 C7.316 33.755 6.715 32.666 5.125 29.75 C4.878 29.301 4.878 29.301 3.629 27.031 C3.091 26.031 2.554 25.031 2 24 C1.349 22.897 0.698 21.793 0.027 20.656 C-0.297 20.094 -0.297 20.094 -1.938 17.25 C-2.545 16.203 -3.152 15.157 -3.777 14.078 C-5.209 10.473 -5.084 8.687 -4 5 C-1.938 2.125 -1.938 2.125 0 0 Z " fill="#C7CEE1" transform="translate(401,331)"/>
<path d="M0 0 C2.433 5.016 3.38 8.673 3.404 14.341 C3.411 15.037 3.418 15.734 3.425 16.452 C3.443 18.733 3.439 21.012 3.434 23.293 C3.438 24.888 3.443 26.482 3.449 28.077 C3.458 31.408 3.456 34.739 3.446 38.07 C3.435 42.337 3.455 46.604 3.484 50.871 C3.502 54.16 3.502 57.448 3.496 60.736 C3.496 62.31 3.502 63.883 3.515 65.457 C3.529 67.654 3.519 69.85 3.502 72.048 C3.502 73.297 3.501 74.546 3.501 75.833 C2.908 79.581 2.024 80.772 -1 83 C-4.116 83.454 -4.116 83.454 -7.734 83.391 C-9.03 83.378 -10.325 83.365 -11.66 83.352 C-13.023 83.318 -14.387 83.284 -15.75 83.25 C-17.129 83.23 -18.508 83.212 -19.887 83.195 C-23.259 83.148 -26.629 83.082 -30 83 C-30.127 76.063 -30.215 69.125 -30.275 62.187 C-30.3 59.83 -30.334 57.473 -30.377 55.117 C-30.438 51.716 -30.466 48.316 -30.488 44.914 C-30.514 43.872 -30.54 42.83 -30.566 41.756 C-30.57 33.047 -28.134 26.336 -22.353 19.753 C-21.89 19.298 -21.89 19.298 -19.551 16.992 C-19.052 16.496 -18.553 15.999 -18.04 15.488 C-17.001 14.459 -15.956 13.436 -14.906 12.419 C-13.292 10.856 -11.699 9.273 -10.107 7.688 C-2.312 0 -2.312 0 0 0 Z " fill="#C7CFE2" transform="translate(509,359)"/>
<path d="M0 0 C0.66 0.33 1.32 0.66 2 1 C0.02 3.31 -1.96 5.62 -4 8 C-3.463 8.434 -3.463 8.434 -0.746 10.633 C0.69 11.797 2.126 12.961 3.562 14.125 C4.267 14.695 4.971 15.265 5.697 15.852 C7.113 17 8.525 18.153 9.934 19.31 C11.273 20.405 12.623 21.489 13.984 22.558 C14.596 23.052 15.209 23.546 15.84 24.055 C16.379 24.48 16.917 24.905 17.472 25.343 C22.573 30.875 22.406 36.556 22.293 43.648 C22.289 44.661 22.284 45.673 22.28 46.717 C22.263 49.936 22.226 53.155 22.188 56.375 C22.172 58.564 22.159 60.753 22.146 62.941 C22.113 68.294 22.063 73.647 22 79 C17.943 79.099 13.887 79.172 9.83 79.22 C8.45 79.24 7.071 79.267 5.692 79.302 C3.706 79.35 1.72 79.371 -0.266 79.391 C-0.863 79.401 -0.863 79.401 -3.884 79.454 C-7.72 78.895 -8.633 78.012 -11 75 C-11.521 72.27 -11.521 72.27 -11.549 69.105 C-11.568 67.916 -11.587 66.728 -11.607 65.503 C-11.605 64.221 -11.603 62.938 -11.602 61.617 C-11.609 60.279 -11.618 58.941 -11.628 57.603 C-11.642 54.797 -11.642 51.992 -11.631 49.186 C-11.62 45.614 -11.653 42.045 -11.7 38.474 C-11.73 35.708 -11.731 32.942 -11.725 30.176 C-11.727 28.228 -11.754 26.279 -11.782 24.331 C-11.697 16.086 -10.223 10.481 -5 4 C-2.125 1.375 -2.125 1.375 0 0 Z " fill="#C7CFE1" transform="translate(11,363)"/>
<path d="M0 0 C1.588 0.887 3.176 1.774 4.812 2.688 C25.067 13.64 47.116 19.452 70 13 C70.588 12.835 70.588 12.835 73.566 12 C81.203 9.714 87.821 6.719 94.609 2.453 C97 1 97 1 100 0 C100 6.6 100 13.2 100 20 C73.91 31.901 46.161 37.849 18.333 27.838 C12.118 25.451 6.085 22.705 0 20 C0 13.4 0 6.8 0 0 Z " fill="#D29B6E" transform="translate(206,277)"/>
<path d="M0 0 C3.25 2.125 3.25 2.125 6 5 C6.416 8.504 6.589 10.821 5 14 C4.34 14 3.68 14 3 14 C3.99 37.76 4.98 61.52 6 86 C0.39 86 -5.22 86 -11 86 C-11.179 74.116 -10.448 62.266 -9.854 50.402 C-9.38 40.849 -8.91 31.296 -8.812 21.73 C-8.798 20.47 -8.784 19.21 -8.77 17.911 C-9 15 -9 15 -11 13 C-11.688 9.899 -11.709 7.097 -11 4 C-7.907 0.229 -4.747 -1.808 0 0 Z " fill="#B0BAD2" transform="translate(432,356)"/>
<path d="M0 0 C-0.295 0.563 -0.59 1.127 -0.895 1.707 C-4.228 8.621 -6.126 15.45 -4 23 C-1.718 27.401 0.469 29.95 5 32 C8.312 32.688 8.312 32.688 11 33 C11 33.66 11 34.32 11 35 C9.948 35.763 8.896 36.526 7.812 37.312 C3.587 40.379 -0.107 43.839 -3.812 47.5 C-4.375 48.046 -4.938 48.591 -5.518 49.154 C-10.16 53.8 -13.026 58.38 -14 65 C-16 64 -16 64 -16.762 62.177 C-16.996 61.396 -17.231 60.614 -17.473 59.809 C-17.732 58.946 -17.992 58.083 -18.26 57.193 C-18.392 56.739 -18.392 56.739 -19.062 54.438 C-19.331 53.555 -19.6 52.673 -19.877 51.764 C-23.488 39.58 -26.247 23.687 -20 12 C-15.666 4.963 -8.366 0 0 0 Z " fill="#5A4146" transform="translate(394,202)"/>
<path d="M0 0 C0.969 0.361 1.939 0.722 2.938 1.094 C16.532 5.904 28.317 6.956 42.23 1.973 C44.819 1.064 47.301 0.469 50 0 C51.213 9.167 51.213 9.167 48.5 13.266 C46.426 15.323 44.278 17.171 42 19 C40.685 20.163 39.372 21.33 38.062 22.5 C37.414 23.058 36.766 23.616 36.098 24.191 C33.71 26.25 31.354 28.341 29 30.438 C28.237 31.117 27.474 31.796 26.688 32.496 C26.131 32.992 25.574 33.489 25 34 C21.329 31.968 18.583 29.778 15.688 26.75 C12.172 23.147 8.558 19.771 4.727 16.508 C4.157 16.01 3.587 15.513 3 15 C2.717 14.784 2.717 14.784 1.285 13.691 C-0.662 11.129 -0.289 8.97 -0.188 5.812 C-0.16 4.726 -0.133 3.639 -0.105 2.52 C-0.071 1.688 -0.036 0.857 0 0 Z " fill="#D29B6E" transform="translate(405,320)"/>
<path d="M0 0 C1.058 0.358 1.058 0.358 6.348 2.148 C7.223 2.429 8.098 2.71 9 3 C10.069 3.354 11.137 3.709 12.238 4.074 C16.618 5.152 20.632 5.423 25.125 5.438 C25.539 5.439 25.539 5.439 27.636 5.449 C35.308 5.307 41.042 3.21 48 0 C48.66 0 49.32 0 50 0 C50.165 3.135 50.165 3.135 51 19 C48.03 19.66 45.06 20.32 42 21 C41.575 21.104 41.575 21.104 39.426 21.633 C25.917 24.779 12.781 23.112 0 18 C0 12.06 0 6.12 0 0 Z " fill="#D19A6E" transform="translate(49,320)"/>
<path d="M0 0 C6.231 2.641 11.055 7.63 15 13 C16.091 17.195 16.279 20.836 15 25 C12.154 27.642 10.228 28.382 6.375 28.398 C5.504 28.402 4.632 28.406 3.734 28.41 C2.832 28.399 1.93 28.387 1 28.375 C0.549 28.381 0.549 28.381 -1.734 28.41 C-2.17 28.408 -2.17 28.408 -4.375 28.398 C-5.166 28.395 -5.958 28.392 -6.773 28.388 C-9.556 27.903 -10.939 26.903 -13 25 C-14.451 20.788 -14.244 17.248 -13 13 C-9.446 7.969 -4.662 3.971 0 0 Z " fill="#5D5C6E" transform="translate(255,343)"/>
<path d="M0 0 C0.335 0.072 0.335 0.072 2.027 0.438 C8.296 1.649 14.381 2.216 20.75 2.25 C21.098 2.255 21.098 2.255 22.859 2.277 C26.52 2.257 29.729 1.894 33.266 0.922 C36.787 0.053 37.761 -0.022 41 1 C27.367 13.67 27.367 13.67 21 19 C17.301 16.956 14.542 14.736 11.625 11.688 C8.826 8.813 6.013 6.077 2.938 3.5 C1.968 2.675 0.999 1.85 0 1 C0 0.67 0 0.34 0 0 Z " fill="#E5AF7A" transform="translate(409,335)"/>
<path d="M0 0 C3.25 2.125 3.25 2.125 6 5 C6.538 8.469 6.876 10.718 4.844 13.691 C2.193 15.573 0.153 15.363 -3.062 15.312 C-4.126 15.309 -5.189 15.305 -6.285 15.301 C-9 15 -9 15 -11 13 C-11.688 9.899 -11.709 7.097 -11 4 C-7.907 0.229 -4.747 -1.808 0 0 Z " fill="#979EB6" transform="translate(432,356)"/>
<path d="M0 0 C0.66 0.33 1.32 0.66 2 1 C-0.64 3.64 -3.28 6.28 -6 9 C-6.66 8.67 -7.32 8.34 -8 8 C-3.375 2.25 -3.375 2.25 0 0 Z " fill="#D7D0D2" transform="translate(11,363)"/>
</svg>
