<?xml version="1.0" encoding="UTF-8"?>
<!-- Generator: visioncortex VTracer 0.6.12 -->
<svg version="1.1" xmlns="http://www.w3.org/2000/svg" width="512" height="512">
<path d="M0 0 C10.84 8.616 18.81 22.804 20.793 36.449 C22.102 55.619 18.999 71.554 6.418 86.762 C2.644 90.863 -1.707 94.184 -6.207 97.449 C-0.972 103.899 4.327 110.284 9.707 116.612 C12.587 120.007 15.424 123.431 18.23 126.887 C21.686 131.133 25.22 135.302 28.793 139.449 C33.11 144.46 37.34 149.528 41.508 154.664 C44.57 158.396 47.69 162.077 50.848 165.728 C53.59 168.922 55.962 172.187 58.293 175.699 C60.252 178.281 61.133 179.294 64.312 180.043 C66.191 180.148 68.072 180.214 69.953 180.242 C76.644 180.73 82.13 184.367 86.668 189.137 C91.128 194.701 94.633 202.244 94.793 209.449 C93.343 213.799 92.644 215.882 88.793 218.449 C85.017 218.869 82.567 218.809 79.105 217.199 C76.031 213.543 75.109 209.8 73.883 205.227 C72.673 202.145 71.589 201.129 68.793 199.449 C68.597 200.211 68.401 200.973 68.199 201.758 C67.9 202.79 67.601 203.823 67.293 204.887 C67.015 205.896 66.736 206.905 66.449 207.945 C64.763 211.513 63.494 212.619 60.624 215.164 C57.958 218.151 56.87 219.796 56.397 223.804 C56.661 228.093 57.205 232.269 57.84 236.516 C58.057 238.202 58.269 239.889 58.477 241.576 C58.951 245.388 59.448 249.195 59.958 253.002 C60.885 260.034 61.682 267.079 62.467 274.128 C62.61 275.417 62.754 276.705 62.902 278.033 C63.124 280.026 63.346 282.019 63.567 284.012 C64.326 290.838 65.103 297.662 65.883 304.485 C66.122 306.569 66.36 308.653 66.597 310.737 C67.407 317.828 68.218 324.919 69.031 332.01 C69.754 338.313 70.473 344.618 71.189 350.923 C71.564 354.226 71.942 357.529 72.322 360.831 C72.743 364.479 73.158 368.128 73.571 371.777 C73.696 372.847 73.821 373.916 73.949 375.018 C75.786 391.382 75.786 391.382 71.793 396.449 C68.635 398.028 65.186 398.269 61.793 397.449 C57.978 394.356 56.245 392.06 55.651 387.129 C55.59 386.441 55.53 385.754 55.468 385.045 C55.426 384.672 55.426 384.672 55.214 382.78 C54.935 380.247 54.687 377.712 54.438 375.176 C54.239 373.33 54.039 371.485 53.837 369.641 C53.388 365.525 52.95 361.408 52.52 357.291 C51.75 349.982 50.923 342.68 50.087 335.378 C50.013 334.724 50.013 334.724 49.634 331.413 C49.404 329.396 49.173 327.379 48.943 325.362 C48.079 317.802 47.227 310.241 46.377 302.68 C46.22 301.287 46.064 299.894 45.907 298.501 C45.67 296.4 45.434 294.298 45.197 292.197 C44.388 285.004 43.578 277.811 42.767 270.618 C41.107 255.895 39.449 241.172 37.793 226.449 C37.102 226.248 36.411 226.047 35.699 225.84 C34.795 225.573 33.891 225.307 32.959 225.032 C32.062 224.769 31.165 224.506 30.241 224.235 C20.776 221.197 13.92 213.08 7.627 205.777 C4.017 201.647 0.221 197.749 -3.672 193.887 C-4.35 193.21 -5.028 192.533 -5.727 191.836 C-7.864 189.705 -10.004 187.577 -12.145 185.449 C-13.606 183.992 -15.068 182.535 -16.529 181.078 C-20.086 177.532 -23.646 173.99 -27.207 170.449 C-27.721 173.601 -28.175 176.748 -28.575 179.917 C-28.989 183.152 -29.59 186.3 -30.266 189.489 C-33.468 206.989 -26.774 219.49 -18.539 234.347 C-16.164 238.661 -13.878 243.023 -11.58 247.379 C-10.364 249.685 -9.124 251.971 -7.867 254.255 C1.832 272.155 0.39 286.113 -4.832 305.012 C-5.322 306.822 -5.81 308.633 -6.297 310.445 C-7.35 314.346 -8.412 318.244 -9.482 322.14 C-10.999 327.673 -12.489 333.213 -13.973 338.755 C-15.217 343.394 -16.469 348.032 -17.724 352.669 C-18.334 354.927 -18.943 357.186 -19.548 359.445 C-20.404 362.628 -21.271 365.809 -22.141 368.988 C-22.391 369.929 -22.642 370.87 -22.9 371.84 C-25.755 382.174 -29.601 389.895 -39.047 395.551 C-46.588 398.963 -55.897 398.605 -63.582 395.887 C-71.382 392.278 -76.139 386.371 -79.207 378.449 C-81.394 371.158 -80.171 364.129 -78.117 357.008 C-77.897 356.215 -77.677 355.421 -77.45 354.604 C-76.733 352.029 -76.001 349.458 -75.27 346.887 C-74.771 345.101 -74.273 343.314 -73.776 341.527 C-71.413 333.061 -68.978 324.618 -66.438 316.203 C-66.014 314.788 -65.59 313.373 -65.166 311.957 C-64.383 309.347 -63.579 306.746 -62.762 304.146 C-60.83 297.757 -59.681 293.007 -61.207 286.449 C-63.573 288.815 -63.444 294.048 -64 297.25 C-66.431 307.263 -72.742 316.187 -78.395 324.637 C-79.729 326.657 -81.064 328.678 -82.398 330.699 C-82.723 331.189 -82.723 331.189 -84.368 333.668 C-86.884 337.473 -89.361 341.302 -91.832 345.137 C-92.703 346.483 -93.574 347.83 -94.445 349.176 C-95.913 351.445 -97.378 353.715 -98.841 355.987 C-100.565 358.664 -102.292 361.338 -104.02 364.012 C-104.547 364.833 -105.074 365.654 -105.618 366.501 C-118.559 386.501 -118.559 386.501 -130.457 390.137 C-140.88 391.321 -149.114 389.995 -157.52 383.324 C-163.948 377.131 -166.706 370.64 -166.957 361.699 C-166.841 353.126 -163.699 346.665 -159.207 339.449 C-158.789 338.766 -158.37 338.082 -157.939 337.378 C-155.006 332.606 -151.989 327.89 -148.956 323.181 C-145.708 318.108 -142.523 312.996 -139.332 307.887 C-138.714 306.9 -138.096 305.913 -137.459 304.897 C-137.161 304.42 -137.161 304.42 -135.652 302.008 C-135.132 301.176 -134.611 300.343 -134.075 299.486 C-133.458 298.484 -132.842 297.482 -132.207 296.449 C-131.671 295.79 -131.134 295.13 -130.582 294.451 C-126.649 289.138 -125.83 285.529 -126.657 278.95 C-127.153 275.991 -127.743 273.057 -128.34 270.117 C-128.64 268.493 -128.937 266.867 -129.23 265.242 C-129.861 261.772 -130.512 258.308 -131.18 254.846 C-132.217 249.441 -133.183 244.025 -134.132 238.604 C-134.291 237.695 -134.45 236.787 -134.614 235.851 C-134.938 234 -135.262 232.149 -135.585 230.298 C-136.242 226.541 -136.903 222.784 -137.565 219.028 C-137.9 217.132 -138.233 215.236 -138.567 213.34 C-139.409 208.55 -140.261 203.762 -141.128 198.976 C-147.8 162.082 -153.06 128.625 -131.207 95.449 C-121.658 82.265 -110.253 73.297 -96.207 65.449 C-96.286 64.899 -96.286 64.899 -96.688 62.117 C-99.082 42.771 -97.338 24.691 -85.172 8.789 C-62.815 -17.353 -27.325 -19.2 0 0 Z " fill="#9879A8" transform="translate(292.20703125,63.55078125)"/>
<path d="M0 0 C10.84 8.616 18.81 22.804 20.793 36.449 C22.104 55.653 18.941 71.451 6.48 86.762 C-3.597 97.506 -19.432 104.924 -34.215 105.785 C-52.509 106.188 -67.554 100.505 -80.957 87.832 C-93.994 74.025 -97.855 59.344 -97.52 40.887 C-96.882 25.435 -89.294 11.944 -78.207 1.449 C-54.848 -17.941 -24.244 -17.035 0 0 Z " fill="#FAD394" transform="translate(292.20703125,63.55078125)"/>
<path d="M0 0 C1.61 8.999 2.772 18.014 3.788 27.097 C3.955 28.573 4.123 30.05 4.291 31.526 C4.742 35.499 5.189 39.471 5.636 43.445 C6.01 46.772 6.386 50.1 6.762 53.428 C7.649 61.278 8.532 69.129 9.414 76.98 C10.322 85.063 11.235 93.145 12.151 101.226 C12.94 108.188 13.725 115.149 14.508 122.111 C14.974 126.26 15.442 130.408 15.913 134.556 C16.355 138.453 16.793 142.35 17.228 146.248 C17.387 147.674 17.549 149.099 17.712 150.524 C20.035 170.879 20.035 170.879 16 176 C12.842 177.579 9.393 177.819 6 177 C2.19 173.909 0.452 171.617 -0.141 166.691 C-0.201 166.005 -0.261 165.318 -0.323 164.612 C-0.406 163.865 -0.49 163.119 -0.576 162.35 C-0.855 159.819 -1.103 157.287 -1.352 154.754 C-1.549 152.909 -1.75 151.065 -1.952 149.221 C-2.401 145.101 -2.839 140.981 -3.27 136.86 C-4.044 129.518 -4.879 122.185 -5.722 114.851 C-6.029 112.172 -6.337 109.494 -6.644 106.815 C-6.721 106.141 -6.799 105.467 -6.879 104.772 C-7.913 95.754 -8.925 86.733 -9.938 77.713 C-10.097 76.302 -10.255 74.891 -10.414 73.481 C-10.492 72.78 -10.571 72.08 -10.652 71.359 C-11.303 65.566 -11.96 59.775 -12.617 53.983 C-13.259 48.328 -13.897 42.671 -14.531 37.015 C-14.907 33.667 -15.284 30.319 -15.666 26.971 C-16.085 23.289 -16.497 19.605 -16.908 15.922 C-17.034 14.822 -17.161 13.723 -17.292 12.591 C-17.346 12.094 -17.346 12.094 -17.622 9.583 C-17.72 8.717 -17.818 7.85 -17.918 6.958 C-17.945 6.312 -17.972 5.666 -18 5 C-16.474 3.474 -14.933 3.774 -12.812 3.625 C-8.215 3.178 -4.306 0 0 0 Z " fill="#698D9E" transform="translate(348,284)"/>
<path d="M0 0 C8.724 0.626 15.838 3.313 21.941 9.742 C26.401 15.306 29.906 22.849 30.066 30.055 C28.616 34.405 27.918 36.487 24.066 39.055 C20.291 39.474 17.84 39.415 14.379 37.805 C11.31 34.156 10.508 30.403 9.172 25.875 C8.05 23.012 7.441 22.126 4.941 20.492 C1.085 17.222 1.137 14.584 0.5 9.727 C-0.052 6.324 -1.186 3.994 -2.934 1.055 C-1.934 0.055 -1.934 0.055 0 0 Z " fill="#698D9E" transform="translate(356.93359375,242.9453125)"/>
</svg>
