<?xml version="1.0" encoding="UTF-8"?>
<!-- Generator: visioncortex VTracer 0.6.12 -->
<svg version="1.1" xmlns="http://www.w3.org/2000/svg" width="512" height="512">
<path d="M0 0 C0.777 0.005 1.553 0.009 2.353 0.014 C11.645 0.125 20.911 0.717 30.179 1.355 C33.18 1.56 36.18 1.751 39.182 1.941 C41.121 2.071 43.061 2.201 45 2.332 C45.441 2.36 45.441 2.36 47.671 2.5 C61 3.448 69.222 6.617 78.328 16.609 C82.526 22.744 83.54 28.555 83.34 35.871 C83.334 36.679 83.328 37.487 83.322 38.32 C83.264 42.839 83.017 47.307 82.609 51.809 C82.535 52.737 82.46 53.666 82.384 54.622 C82.233 56.41 82.051 58.196 81.831 59.977 C81.46 64.48 81.786 67.535 84.58 71.18 C90.135 77.157 98.079 78.191 105.715 79.945 C107.348 80.345 108.98 80.747 110.612 81.153 C114.891 82.21 119.177 83.234 123.466 84.249 C130.331 85.876 137.186 87.542 144.037 89.229 C146.419 89.809 148.806 90.368 151.194 90.925 C166.834 94.668 166.834 94.668 172.027 101.871 C173.09 104.184 173.09 104.184 173.09 106.184 C173.75 106.184 174.41 106.184 175.09 106.184 C175.322 105.598 175.554 105.013 175.793 104.41 C177.412 101.631 179.197 100.377 181.84 98.559 C182.26 98.263 182.26 98.263 184.387 96.77 C189.127 93.988 193.468 92.935 198.937 92.893 C199.501 92.887 199.501 92.887 202.356 92.854 C202.959 92.853 202.959 92.853 206.012 92.848 C207.267 92.841 208.522 92.834 209.815 92.827 C212.468 92.817 215.121 92.812 217.773 92.813 C221.147 92.813 224.519 92.786 227.893 92.751 C231.141 92.724 234.389 92.725 237.637 92.723 C238.835 92.708 240.033 92.694 241.268 92.679 C252.837 92.741 260.599 95.816 268.957 103.82 C271.847 107.023 273.761 110.088 275.09 114.184 C275.448 115.275 275.807 116.367 276.176 117.492 C277.743 123.934 277.299 130.601 277.215 137.184 C277.205 138.544 277.196 139.905 277.188 141.266 C277.164 144.572 277.131 147.878 277.09 151.184 C278.063 150.74 279.037 150.296 280.04 149.838 C283.664 148.186 287.289 146.535 290.914 144.885 C292.481 144.171 294.047 143.457 295.614 142.743 C297.869 141.714 300.126 140.687 302.383 139.66 C303.079 139.342 303.775 139.025 304.492 138.697 C312.429 135.089 318.272 133.063 327.09 134.184 C332.24 136.197 336.126 139.51 339.09 144.184 C341.574 149.897 341.874 155.22 340.09 161.184 C335.632 171.382 324.344 175.284 314.84 179.559 C313.41 180.214 311.98 180.87 310.551 181.528 C307.047 183.135 303.536 184.727 300.021 186.312 C297.193 187.588 294.368 188.873 291.543 190.156 C287.067 192.186 282.58 194.184 278.09 196.184 C277.76 204.434 277.43 212.684 277.09 221.184 C278.512 221.155 278.512 221.155 285.707 221.008 C288.491 220.969 291.274 220.938 294.058 220.909 C295.978 220.884 297.898 220.85 299.818 220.806 C321.705 220.323 321.705 220.323 328.09 226.184 C332.738 231.415 335.299 236.463 337.223 243.141 C337.502 244.061 337.781 244.981 338.069 245.929 C339.096 249.342 340.093 252.762 341.09 256.184 C341.52 257.645 341.95 259.106 342.381 260.566 C345.679 271.748 348.932 282.943 352.174 294.141 C354.018 300.508 355.867 306.874 357.715 313.24 C358.694 316.614 359.672 319.989 360.649 323.363 C361.092 324.889 361.534 326.415 361.976 327.94 C362.177 328.634 362.377 329.327 362.584 330.041 C363.376 332.773 364.19 335.485 365.09 338.184 C365.738 346.547 365.744 353.066 361.09 360.184 C360.43 360.844 359.77 361.504 359.09 362.184 C360.042 362.221 360.995 362.258 361.977 362.297 C362.604 362.33 362.604 362.33 365.777 362.496 C367.019 362.554 368.26 362.612 369.539 362.672 C374.419 363.375 377.932 365.394 381.09 369.184 C382.673 373.933 382.642 377.748 380.84 382.434 C378.684 385.821 376.957 387.661 373.052 388.754 C368.879 389.359 364.776 389.286 360.565 389.246 C358.588 389.237 356.612 389.227 354.636 389.219 C353.591 389.212 352.546 389.206 351.47 389.199 C345.909 389.172 340.348 389.182 334.787 389.188 C327.723 389.194 320.66 389.189 313.596 389.132 C307.877 389.088 302.16 389.088 296.442 389.116 C294.273 389.12 292.105 389.107 289.937 389.077 C277.72 388.921 268.867 389.259 259.007 396.929 C241.956 410.11 217.567 410.833 197.09 409.184 C172.817 405.962 150.298 391.328 135.32 372.32 C120.073 350.877 114.004 326.115 117.59 299.922 C120.426 284.5 126.122 268.779 136.777 256.996 C138.494 254.769 139.163 253.784 138.819 250.947 C138.555 250.109 138.291 249.272 138.018 248.409 C137.721 247.433 137.425 246.457 137.119 245.451 C136.779 244.373 136.44 243.295 136.09 242.184 C135.386 239.765 134.684 237.347 133.984 234.927 C132.073 228.446 130.085 221.988 128.067 215.539 C126.856 211.663 125.668 207.783 124.531 203.884 C116.113 175.088 116.113 175.088 108.081 170.018 C104.822 168.427 101.541 167.307 98.09 166.184 C96.182 165.102 94.304 163.962 92.477 162.75 C91.684 162.247 90.892 161.743 90.076 161.225 C89.318 160.737 88.559 160.249 87.777 159.746 C86.968 159.231 86.16 158.716 85.326 158.186 C82.229 156.211 79.146 154.221 76.09 152.184 C75.799 156.094 75.515 160.004 75.235 163.915 C75.093 165.883 74.947 167.852 74.801 169.82 C74.711 171.09 74.62 172.36 74.527 173.668 C74.444 174.82 74.36 175.972 74.273 177.159 C74.211 178.501 74.15 179.842 74.09 181.184 C74.029 182.053 73.967 182.923 73.904 183.818 C73.569 191.737 75.259 198.204 77.918 205.631 C78.633 207.63 79.325 209.636 80.011 211.645 C81.475 215.915 82.969 220.175 84.465 224.434 C86.195 229.365 87.911 234.301 89.604 239.245 C90.277 241.193 90.968 243.133 91.661 245.073 C94.753 254.056 96.236 262.773 97.09 272.184 C97.259 273.939 97.429 275.695 97.599 277.451 C98.18 283.548 98.719 289.649 99.254 295.75 C99.453 298 99.652 300.251 99.851 302.501 C100.265 307.192 100.676 311.882 101.086 316.573 C101.608 322.547 102.14 328.519 102.673 334.492 C103.086 339.131 103.493 343.77 103.898 348.409 C104.091 350.61 104.287 352.811 104.484 355.012 C107.711 391.041 107.711 391.041 101.027 401.371 C96.555 406.201 91.1 408.795 84.609 409.633 C76.275 409.892 70.364 409.094 64.16 403.418 C57.074 395.95 55.646 388.017 54.863 378.077 C54.816 377.534 54.816 377.534 54.576 374.787 C54.267 371.216 53.973 367.643 53.68 364.07 C53.466 361.575 53.251 359.079 53.034 356.583 C52.526 350.69 52.027 344.796 51.533 338.901 C50.598 327.737 49.645 316.574 48.685 305.412 C48.373 301.76 48.068 298.107 47.764 294.453 C47.572 292.195 47.38 289.937 47.187 287.678 C47.146 287.176 47.146 287.176 46.94 284.634 C46.122 275.174 44.662 266.075 41.568 257.082 C41.324 256.352 41.08 255.622 40.828 254.87 C40.034 252.502 39.23 250.138 38.426 247.773 C37.867 246.113 37.31 244.452 36.753 242.79 C35.296 238.451 33.831 234.114 32.363 229.778 C30.006 222.808 27.66 215.834 25.317 208.859 C24.497 206.426 23.674 203.994 22.85 201.563 C22.351 200.082 21.852 198.602 21.353 197.121 C21.122 196.444 20.892 195.767 20.654 195.07 C19.09 190.411 19.09 190.411 19.09 188.184 C15.79 188.184 12.49 188.184 9.09 188.184 C9.513 201.642 10.004 215.09 10.74 228.535 C11.114 235.395 11.431 242.256 11.731 249.119 C11.953 253.956 12.301 258.76 12.746 263.582 C14.134 282.266 7.514 295.804 -0.793 312.009 C-3.854 317.998 -6.663 324.102 -9.49 330.203 C-10.409 332.181 -11.336 334.156 -12.266 336.13 C-16.879 345.922 -21.381 355.762 -25.848 365.621 C-26.483 367.021 -27.118 368.421 -27.753 369.821 C-28.058 370.494 -28.364 371.167 -28.678 371.86 C-30.089 374.968 -31.499 378.076 -32.91 381.184 C-33.361 382.177 -33.811 383.17 -34.275 384.194 C-35.375 386.611 -36.484 389.023 -37.598 391.434 C-37.888 392.076 -38.179 392.719 -38.478 393.381 C-40.981 398.75 -43.834 402.884 -48.973 405.934 C-49.308 406.137 -49.308 406.137 -51.008 407.168 C-57.185 410.466 -65.799 410.355 -72.434 408.465 C-78.919 405.384 -84.084 400.124 -87.098 393.621 C-88.788 386.472 -88.7 380.374 -85.738 373.586 C-85.51 373.061 -85.51 373.061 -84.357 370.405 C-82.022 365.206 -79.643 360.031 -77.223 354.871 C-76.072 352.406 -74.923 349.942 -73.773 347.477 C-73.621 347.15 -73.621 347.15 -72.85 345.498 C-70.393 340.229 -67.951 334.952 -65.516 329.672 C-65.327 329.264 -65.327 329.264 -64.375 327.2 C-62.447 323.022 -60.523 318.842 -58.605 314.66 C-55.102 307.031 -51.567 299.428 -47.871 291.891 C-47.255 290.619 -46.639 289.347 -46.023 288.074 C-44.907 285.777 -43.773 283.488 -42.617 281.211 C-42.123 280.187 -41.63 279.164 -41.121 278.109 C-40.691 277.247 -40.261 276.385 -39.818 275.497 C-37.643 267.557 -38.923 259.001 -39.775 250.914 C-44.796 202.685 -41.854 154.972 -38.466 106.759 C-38.285 104.181 -38.105 101.603 -37.925 99.026 C-37.12 87.535 -36.289 76.046 -35.434 64.559 C-35.377 63.801 -35.321 63.042 -35.263 62.261 C-34.941 57.91 -34.612 53.558 -34.273 49.208 C-34.125 47.293 -33.982 45.379 -33.838 43.464 C-31.693 16.421 -31.693 16.421 -22.223 7.371 C-15.208 1.796 -8.957 -0.098 0 0 Z M127.09 129.184 C127.215 131.371 127.215 131.371 128.09 134.184 C130.902 136.559 130.902 136.559 132.422 137.582 C135.005 140.062 136.753 142.888 138.09 146.184 C138.076 149.769 138.076 149.769 137.855 151.737 C136.116 167.771 143.533 183.622 148.752 198.474 C150.161 202.503 151.536 206.544 152.914 210.584 C155.607 218.462 158.336 226.327 161.09 234.184 C166.965 232.309 166.965 232.309 168.09 231.184 C168.547 226.468 168.635 221.732 168.715 216.996 C168.727 216.308 168.738 215.62 168.75 214.911 C168.845 204.581 167.711 197.883 161.172 189.809 C158.626 186.599 157.854 184.31 157.824 180.258 C158.621 174.035 160.306 169.898 164.688 165.375 C169.666 159.114 168.859 152.184 168.527 144.621 C168.492 143.217 168.46 141.813 168.432 140.408 C168.35 136.998 168.235 133.592 168.09 130.184 C167.12 130.658 166.151 131.132 165.152 131.621 C156.809 135.126 149.815 134.067 141.277 131.746 C139.439 131.264 137.599 130.786 135.758 130.312 C134.956 130.097 134.155 129.881 133.329 129.658 C131.09 129.184 131.09 129.184 127.09 129.184 Z M148.09 288.184 C147.439 289.911 146.795 291.641 146.152 293.371 C145.793 294.334 145.433 295.297 145.062 296.289 C140.56 309.688 141.526 327.268 147.09 340.184 C147.75 340.844 148.41 341.504 149.09 342.184 C157.452 337.568 165.781 332.896 174.09 328.184 C174.999 327.673 175.908 327.162 176.844 326.636 C179.129 325.342 181.393 324.02 183.652 322.684 C184.317 322.312 184.983 321.94 185.668 321.557 C187.469 320.465 187.469 320.465 190.09 318.184 C190.602 315.281 190.602 315.281 190.09 312.184 C187.765 310.146 187.765 310.146 184.512 308.34 C184.221 308.174 184.221 308.174 182.747 307.333 C181.506 306.627 180.258 305.93 179.006 305.242 C177.124 304.202 175.264 303.132 173.408 302.047 C170.35 300.26 167.279 298.497 164.201 296.744 C162.298 295.66 160.397 294.57 158.496 293.48 C157.283 292.787 156.069 292.095 154.855 291.402 C153.77 290.783 152.685 290.164 151.567 289.525 C149.09 288.184 149.09 288.184 148.09 288.184 Z M183.09 289.184 C187.868 293.006 192.266 296.236 198.09 298.184 C201.215 297.371 201.215 297.371 203.09 295.184 C203.09 293.204 203.09 291.224 203.09 289.184 C196.49 289.184 189.89 289.184 183.09 289.184 Z M219.09 289.184 C219.09 291.164 219.09 293.144 219.09 295.184 C221.277 297.184 221.277 297.184 224.09 298.184 C227.822 296.995 231.058 295.137 234.402 293.121 C235.285 292.594 236.168 292.067 237.078 291.523 C237.742 291.081 238.406 290.639 239.09 290.184 C239.09 289.854 239.09 289.524 239.09 289.184 C232.49 289.184 225.89 289.184 219.09 289.184 Z M266.785 291.965 C265.732 292.556 264.679 293.148 263.594 293.757 C262.479 294.393 261.364 295.029 260.215 295.684 C259.087 296.321 257.959 296.959 256.797 297.616 C235.649 309.624 235.649 309.624 233.09 312.184 C232.465 314.871 232.465 314.871 233.09 318.184 C239.245 323.603 247.331 327.311 254.457 331.362 C256.353 332.441 258.245 333.527 260.137 334.613 C261.355 335.309 262.574 336.004 263.793 336.699 C264.883 337.321 265.972 337.943 267.095 338.583 C269.721 339.987 272.301 341.148 275.09 342.184 C275.741 340.143 276.385 338.101 277.027 336.059 C277.207 335.49 277.207 335.49 278.117 332.613 C281.972 319.022 281.531 302.066 275.09 289.184 C271.455 289.184 269.938 290.185 266.785 291.965 Z M306.09 311.184 C306.06 311.515 306.06 311.515 305.91 313.193 C304.192 331.505 300.561 346.374 293.09 363.184 C303.65 363.184 314.21 363.184 325.09 363.184 C323.44 360.544 321.79 357.904 320.09 355.184 C318.995 352.551 318.995 352.551 318.329 350.236 C318.069 349.356 317.809 348.476 317.541 347.569 C317.283 346.648 317.024 345.726 316.758 344.777 C316.617 344.295 316.617 344.295 315.905 341.852 C315.017 338.799 314.147 335.742 313.277 332.684 C312.675 330.6 312.071 328.517 311.467 326.434 C309.995 321.354 308.537 316.27 307.09 311.184 C306.76 311.184 306.43 311.184 306.09 311.184 Z M221.399 332.923 C218.684 335.581 218.711 336.262 218.522 339.93 C218.523 341.946 218.551 343.962 218.602 345.977 C218.609 347.038 218.616 348.099 218.623 349.192 C218.651 352.586 218.714 355.978 218.777 359.371 C218.802 361.67 218.825 363.969 218.846 366.268 C218.901 371.907 218.985 377.545 219.09 383.184 C220.516 383.04 221.942 382.892 223.368 382.743 C224.162 382.661 224.956 382.579 225.774 382.495 C239.861 380.602 254.772 371.498 263.535 360.344 C264.444 358.994 265.279 357.594 266.09 356.184 C259.145 351.354 251.922 347.159 244.527 343.059 C243.443 342.451 242.358 341.844 241.24 341.219 C239.142 340.049 237.039 338.89 234.929 337.741 C233.172 336.777 231.428 335.788 229.708 334.759 C224.847 331.976 224.847 331.976 221.399 332.923 Z M194.244 333.093 C193.275 333.686 192.307 334.279 191.309 334.891 C190.225 335.537 189.141 336.183 188.025 336.849 C186.88 337.565 185.735 338.28 184.59 338.996 C183.422 339.703 182.252 340.408 181.081 341.11 C178.783 342.49 176.494 343.883 174.208 345.284 C170.337 347.642 166.414 349.898 162.465 352.121 C161.4 352.728 160.335 353.335 159.238 353.961 C158.884 354.163 158.884 354.163 157.09 355.184 C160.823 365.796 171.592 372.038 181.09 377.184 C188.691 380.779 194.58 382.238 203.09 383.184 C203.09 367.344 203.09 351.504 203.09 335.184 C197.09 332.184 197.09 332.184 194.244 333.093 Z " fill="#373B41" transform="translate(108.91015625,102.81640625)"/>
<path d="M0 0 C0.777 0.005 1.553 0.009 2.353 0.014 C11.645 0.125 20.911 0.717 30.179 1.355 C33.18 1.56 36.18 1.751 39.182 1.941 C41.121 2.071 43.061 2.201 45 2.332 C45.441 2.36 45.441 2.36 47.671 2.5 C61 3.448 69.222 6.617 78.328 16.609 C82.507 22.715 83.571 28.582 83.402 35.871 C83.397 36.285 83.397 36.285 83.373 38.379 C83.239 45.018 82.663 51.58 81.943 58.178 C81.309 64.189 80.894 70.192 80.582 76.227 C80.541 77.019 80.499 77.81 80.456 78.626 C80.249 82.627 80.056 86.627 79.875 90.629 C79.801 92.109 79.727 93.59 79.652 95.07 C79.639 95.415 79.639 95.415 79.57 97.157 C79.316 101.957 79.316 101.957 77.09 104.184 C75.311 103.135 73.542 102.069 71.777 100.996 C70.791 100.404 69.805 99.813 68.789 99.203 C63.497 95.244 61.975 89.53 59.902 83.496 C59.63 82.725 59.357 81.953 59.076 81.158 C57.09 75.458 57.09 75.458 57.09 73.184 C44.22 76.814 31.35 80.444 18.09 84.184 C19.946 89.814 21.802 95.445 23.715 101.246 C24.287 103.01 24.859 104.773 25.448 106.59 C25.924 108.008 26.4 109.426 26.879 110.844 C27.107 111.564 27.336 112.284 27.571 113.025 C29.932 119.925 33.959 125.419 40.383 129.07 C41.169 129.527 41.956 129.984 42.767 130.454 C43.595 130.922 44.424 131.389 45.277 131.871 C46.141 132.384 47.004 132.897 47.894 133.425 C52.409 136.106 56.96 138.651 61.625 141.062 C74.355 147.902 74.355 147.902 76.309 153.969 C76.524 157.44 76.075 160.739 75.443 164.149 C74.88 167.392 74.765 170.65 74.59 173.934 C74.497 175.042 74.404 176.151 74.309 177.293 C74.236 178.577 74.164 179.861 74.09 181.184 C74.03 182.008 73.971 182.833 73.909 183.683 C73.584 191.66 75.24 198.151 77.918 205.631 C78.633 207.63 79.325 209.636 80.011 211.645 C81.475 215.915 82.969 220.175 84.465 224.434 C86.195 229.365 87.911 234.301 89.604 239.245 C90.277 241.193 90.968 243.133 91.661 245.073 C94.753 254.056 96.236 262.773 97.09 272.184 C97.259 273.939 97.429 275.695 97.599 277.451 C98.18 283.548 98.719 289.649 99.254 295.75 C99.453 298 99.652 300.251 99.851 302.501 C100.265 307.192 100.676 311.882 101.086 316.573 C101.608 322.547 102.14 328.519 102.673 334.492 C103.086 339.131 103.493 343.77 103.898 348.409 C104.091 350.61 104.287 352.811 104.484 355.012 C107.711 391.041 107.711 391.041 101.027 401.371 C96.555 406.201 91.1 408.795 84.609 409.633 C76.275 409.892 70.364 409.094 64.16 403.418 C57.074 395.95 55.646 388.017 54.863 378.077 C54.816 377.534 54.816 377.534 54.576 374.787 C54.267 371.216 53.973 367.643 53.68 364.07 C53.466 361.575 53.251 359.079 53.034 356.583 C52.526 350.69 52.027 344.796 51.533 338.901 C50.598 327.737 49.645 316.574 48.685 305.412 C48.373 301.76 48.068 298.107 47.764 294.453 C47.572 292.195 47.38 289.937 47.187 287.678 C47.146 287.176 47.146 287.176 46.94 284.634 C46.122 275.174 44.662 266.075 41.568 257.082 C41.324 256.352 41.08 255.622 40.828 254.87 C40.034 252.502 39.23 250.138 38.426 247.773 C37.867 246.113 37.31 244.452 36.753 242.79 C35.296 238.451 33.831 234.114 32.363 229.778 C30.006 222.808 27.66 215.834 25.317 208.859 C24.497 206.426 23.674 203.994 22.85 201.563 C22.351 200.082 21.852 198.602 21.353 197.121 C21.122 196.444 20.892 195.767 20.654 195.07 C19.09 190.411 19.09 190.411 19.09 188.184 C15.79 188.184 12.49 188.184 9.09 188.184 C9.513 201.642 10.004 215.09 10.74 228.535 C11.114 235.395 11.431 242.256 11.731 249.119 C11.953 253.956 12.301 258.76 12.746 263.582 C14.134 282.266 7.514 295.804 -0.793 312.009 C-3.854 317.998 -6.663 324.102 -9.49 330.203 C-10.409 332.181 -11.336 334.156 -12.266 336.13 C-16.879 345.922 -21.381 355.762 -25.848 365.621 C-26.483 367.021 -27.118 368.421 -27.753 369.821 C-28.058 370.494 -28.364 371.167 -28.678 371.86 C-30.089 374.968 -31.499 378.076 -32.91 381.184 C-33.361 382.177 -33.811 383.17 -34.275 384.194 C-35.375 386.611 -36.484 389.023 -37.598 391.434 C-37.888 392.076 -38.179 392.719 -38.478 393.381 C-40.981 398.75 -43.834 402.884 -48.973 405.934 C-49.308 406.137 -49.308 406.137 -51.008 407.168 C-57.185 410.466 -65.799 410.355 -72.434 408.465 C-78.919 405.384 -84.084 400.124 -87.098 393.621 C-88.788 386.472 -88.7 380.374 -85.738 373.586 C-85.51 373.061 -85.51 373.061 -84.357 370.405 C-82.022 365.206 -79.643 360.031 -77.223 354.871 C-76.072 352.406 -74.923 349.942 -73.773 347.477 C-73.621 347.15 -73.621 347.15 -72.85 345.498 C-70.393 340.229 -67.951 334.952 -65.516 329.672 C-65.327 329.264 -65.327 329.264 -64.375 327.2 C-62.447 323.022 -60.523 318.842 -58.605 314.66 C-55.102 307.031 -51.567 299.428 -47.871 291.891 C-47.255 290.619 -46.639 289.347 -46.023 288.074 C-44.907 285.777 -43.773 283.488 -42.617 281.211 C-42.123 280.187 -41.63 279.164 -41.121 278.109 C-40.691 277.247 -40.261 276.385 -39.818 275.497 C-37.643 267.557 -38.923 259.001 -39.775 250.914 C-44.796 202.685 -41.854 154.972 -38.466 106.759 C-38.285 104.181 -38.105 101.603 -37.925 99.026 C-37.12 87.535 -36.289 76.046 -35.434 64.559 C-35.377 63.801 -35.321 63.042 -35.263 62.261 C-34.941 57.91 -34.612 53.558 -34.273 49.208 C-34.125 47.293 -33.982 45.379 -33.838 43.464 C-31.693 16.421 -31.693 16.421 -22.223 7.371 C-15.208 1.796 -8.957 -0.098 0 0 Z " fill="#64AEFE" transform="translate(108.91015625,102.81640625)"/>
<path d="M0 0 C4 2 4 2 6.297 4.978 C9.107 8.497 11.854 9.286 16.25 10.346 C16.961 10.524 17.672 10.702 18.405 10.886 C20.742 11.466 23.085 12.016 25.43 12.566 C27.065 12.969 28.701 13.375 30.335 13.783 C34.632 14.85 38.934 15.893 43.239 16.928 C50.122 18.584 56.999 20.262 63.869 21.968 C66.261 22.556 68.656 23.124 71.053 23.691 C72.533 24.054 74.012 24.418 75.492 24.783 C76.151 24.934 76.81 25.084 77.488 25.239 C83.527 26.766 88.299 29.641 91.938 34.688 C93 37 93 37 93 39 C93.66 39 94.32 39 95 39 C95.116 38.707 95.116 38.707 95.703 37.227 C97.322 34.448 99.107 33.193 101.75 31.375 C102.59 30.785 103.431 30.194 104.297 29.586 C109.037 26.805 113.378 25.752 118.847 25.709 C119.411 25.703 119.411 25.703 122.266 25.671 C123.473 25.669 124.679 25.666 125.922 25.664 C127.177 25.657 128.432 25.651 129.725 25.644 C132.378 25.634 135.031 25.628 137.684 25.629 C141.057 25.63 144.43 25.602 147.803 25.568 C151.051 25.54 154.299 25.541 157.547 25.539 C158.745 25.525 159.943 25.51 161.178 25.496 C172.747 25.558 180.509 28.632 188.867 36.637 C191.757 39.839 193.671 42.904 195 47 C195.358 48.092 195.717 49.184 196.086 50.309 C197.653 56.75 197.209 63.418 197.125 70 C197.115 71.361 197.106 72.721 197.098 74.082 C197.074 77.388 197.041 80.694 197 84 C197.973 83.556 198.947 83.112 199.95 82.655 C203.574 81.002 207.199 79.352 210.824 77.701 C212.391 76.988 213.957 76.274 215.524 75.56 C217.78 74.531 220.036 73.504 222.293 72.477 C222.641 72.318 222.641 72.318 224.402 71.514 C232.339 67.906 238.182 65.879 247 67 C252.15 69.013 256.037 72.327 259 77 C261.484 82.713 261.784 88.037 260 94 C255.542 104.198 244.254 108.1 234.75 112.375 C233.32 113.03 231.89 113.687 230.461 114.344 C226.957 115.952 223.446 117.544 219.931 119.129 C217.103 120.405 214.278 121.689 211.453 122.973 C206.977 125 202.492 127.008 198 129 C198.035 129.347 198.035 129.347 198.21 131.104 C199.775 150.34 199.775 150.34 195.185 156.394 C190.294 160.72 184.367 164.374 178 166 C174.891 165.461 174.891 165.461 172 164 C170.702 163.496 169.398 163.006 168.09 162.527 C166.003 161.73 163.917 160.93 161.834 160.123 C158.24 158.754 154.819 157.603 151 157 C151.626 157.964 152.253 158.928 152.898 159.922 C153.724 161.198 154.55 162.474 155.375 163.75 C155.581 164.067 155.581 164.067 156.625 165.672 C160.705 171.99 163.014 176.293 162 184 C159.909 190.653 156.069 194.554 150.148 198.113 C145.006 200.236 138.845 199.627 133.688 197.875 C130.354 195.549 127.774 192.972 125 190 C124.67 192.31 124.34 194.62 124 197 C112.78 197 101.56 197 90 197 C90 195.35 90 193.7 90 192 C99.067 186.447 107.844 182.21 118 179 C115.992 175.811 113.938 172.654 111.875 169.5 C111.305 168.594 110.735 167.688 110.148 166.754 C105.801 160.184 105.801 160.184 101.867 159.281 C99.126 159.968 96.779 160.744 94.25 162 C90.167 164 90.167 164 88 164 C88.017 163.165 88.034 162.329 88.051 161.468 C88.425 133.084 88.425 133.084 80.047 122.625 C77.543 119.415 76.764 117.104 76.734 113.074 C77.532 106.847 79.23 102.701 83.598 98.16 C88.527 91.96 87.778 85.53 87.438 77.938 C87.402 76.581 87.37 75.225 87.342 73.869 C87.26 70.577 87.145 67.29 87 64 C86.097 64.478 85.193 64.956 84.262 65.448 C76.356 69.21 69.388 67.813 61.188 65.625 C60.26 65.39 59.333 65.156 58.377 64.914 C55.914 64.289 53.457 63.646 51 63 C49.667 62.665 48.334 62.331 47 62 C48.455 65.37 49.535 67.63 52.438 69.938 C56.93 73.553 58.676 76.67 59.457 82.285 C59.718 87.959 59.83 92.777 56.5 97.562 C50.56 104 44.99 106.455 36.32 107.445 C27.117 106.211 18.687 99.483 11 94.625 C9.984 93.991 8.968 93.357 7.922 92.703 C3.152 89.706 -1.547 86.652 -6.141 83.391 C-10.868 80.041 -15.756 77.057 -20.75 74.125 C-22.498 73.083 -24.246 72.04 -25.992 70.996 C-26.416 70.743 -26.416 70.743 -28.562 69.46 C-32.014 67.393 -35.459 65.316 -38.875 63.188 C-39.924 62.542 -40.974 61.896 -42.055 61.23 C-48.405 56.422 -51.821 51.189 -54.211 43.66 C-54.469 42.893 -54.727 42.126 -54.992 41.336 C-55.802 38.916 -56.589 36.49 -57.375 34.062 C-57.924 32.408 -58.475 30.753 -59.027 29.1 C-60.369 25.072 -61.69 21.038 -63 17 C-55.682 14.193 -48.288 11.961 -40.75 9.812 C-39.484 9.444 -38.218 9.076 -36.914 8.697 C-35.7 8.35 -34.485 8.002 -33.234 7.645 C-32.133 7.328 -31.032 7.012 -29.897 6.687 C-27 6 -27 6 -23 6 C-22.81 6.63 -22.62 7.26 -22.424 7.908 C-15.723 29.559 -15.723 29.559 -7.199 34.242 C-5 35 -5 35 -2 35 C-1.34 23.45 -0.68 11.9 0 0 Z " fill="#E54836" transform="translate(189,170)"/>
<path d="M0 0 C7.272 -0.073 14.456 0.055 21.703 0.656 C22.552 0.723 23.4 0.789 24.275 0.858 C26.934 1.068 29.592 1.284 32.25 1.5 C34.074 1.645 35.898 1.789 37.723 1.934 C42.149 2.284 46.575 2.64 51 3 C51.903 10.343 52.376 17.667 52.754 25.055 C52.819 26.31 52.884 27.565 52.951 28.858 C53.088 31.515 53.224 34.173 53.357 36.831 C53.557 40.8 53.77 44.769 53.982 48.738 C54.32 55.225 54.609 61.712 54.855 68.203 C54.951 70.714 55.055 73.226 55.167 75.736 C55.785 90.508 55.486 102.079 48.438 115.188 C47.749 116.568 47.065 117.952 46.387 119.338 C44.988 122.18 43.564 125.008 42.117 127.826 C39.056 133.814 36.247 139.918 33.42 146.019 C32.501 147.998 31.574 149.973 30.644 151.946 C26.031 161.738 21.529 171.578 17.062 181.438 C16.427 182.838 15.792 184.238 15.157 185.638 C14.852 186.31 14.546 186.983 14.232 187.676 C12.822 190.784 11.411 193.892 10 197 C9.549 197.993 9.099 198.987 8.635 200.01 C7.535 202.427 6.426 204.84 5.312 207.25 C5.022 207.893 4.731 208.535 4.432 209.197 C1.929 214.566 -0.924 218.701 -6.062 221.75 C-6.398 221.954 -6.398 221.954 -8.098 222.984 C-14.274 226.282 -22.889 226.171 -29.523 224.281 C-36.009 221.2 -41.174 215.941 -44.188 209.438 C-45.877 202.288 -45.79 196.191 -42.828 189.402 C-42.6 188.878 -42.6 188.878 -41.447 186.222 C-39.112 181.023 -36.733 175.847 -34.312 170.688 C-33.162 168.223 -32.013 165.758 -30.863 163.293 C-30.559 162.64 -30.254 161.987 -29.94 161.315 C-27.483 156.045 -25.041 150.768 -22.605 145.488 C-22.229 144.673 -21.852 143.857 -21.465 143.016 C-19.537 138.838 -17.613 134.658 -15.695 130.476 C-12.192 122.848 -8.656 115.244 -4.961 107.707 C-4.344 106.435 -3.729 105.163 -3.113 103.891 C-1.997 101.593 -0.863 99.305 0.293 97.027 C0.787 96.004 1.28 94.98 1.789 93.926 C2.219 93.064 2.649 92.202 3.092 91.314 C5.904 81.049 3.704 68.778 3.125 58.203 C3.035 56.516 2.945 54.83 2.856 53.143 C2.622 48.743 2.384 44.344 2.146 39.945 C1.902 35.44 1.662 30.935 1.422 26.43 C0.951 17.62 0.477 8.81 0 0 Z " fill="#5E6D9B" transform="translate(66,287)"/>
<path d="M0 0 C18.038 0.59 36.004 1.668 54 3 C54.927 5.708 55.854 8.417 56.781 11.125 C57.071 11.971 57.36 12.816 57.658 13.687 C59.254 18.351 60.847 23.016 62.435 27.683 C63.076 29.569 63.718 31.454 64.359 33.34 C64.676 34.271 64.993 35.201 65.319 36.16 C67.065 41.285 68.836 46.399 70.641 51.504 C71.006 52.554 71.372 53.604 71.748 54.686 C72.383 56.508 73.028 58.326 73.689 60.139 C78.805 74.997 78.8 92.015 80.164 107.566 C80.363 109.817 80.562 112.067 80.761 114.318 C81.175 119.008 81.586 123.699 81.996 128.389 C82.519 134.363 83.05 140.336 83.583 146.308 C83.996 150.947 84.403 155.586 84.808 160.225 C85.001 162.426 85.197 164.627 85.394 166.828 C88.621 202.858 88.621 202.858 81.938 213.188 C77.465 218.017 72.01 220.611 65.52 221.449 C57.185 221.708 51.274 220.911 45.07 215.234 C37.985 207.766 36.556 199.834 35.773 189.893 C35.678 188.808 35.584 187.722 35.486 186.603 C35.177 183.032 34.883 179.459 34.59 175.887 C34.376 173.391 34.161 170.895 33.944 168.4 C33.436 162.506 32.937 156.612 32.443 150.718 C31.508 139.553 30.555 128.391 29.595 117.229 C29.283 113.576 28.978 109.923 28.674 106.27 C28.482 104.011 28.29 101.753 28.097 99.495 C28.057 98.993 28.057 98.993 27.85 96.451 C27.032 86.99 25.572 77.891 22.478 68.898 C22.234 68.168 21.99 67.438 21.738 66.686 C20.944 64.318 20.14 61.954 19.336 59.59 C18.778 57.929 18.22 56.268 17.663 54.607 C16.206 50.267 14.741 45.93 13.274 41.594 C10.916 34.624 8.57 27.65 6.227 20.675 C5.408 18.242 4.584 15.811 3.76 13.379 C3.261 11.899 2.762 10.418 2.263 8.937 C2.033 8.26 1.802 7.584 1.564 6.886 C0 2.227 0 2.227 0 0 Z " fill="#414B82" transform="translate(128,291)"/>
<path d="M0 0 C0.93 -0.002 1.86 -0.004 2.818 -0.006 C23.863 0.052 23.863 0.052 30.5 6 C35.156 11.221 37.71 16.283 39.633 22.957 C39.912 23.877 40.191 24.797 40.479 25.745 C41.506 29.158 42.503 32.578 43.5 36 C43.93 37.461 44.36 38.922 44.791 40.383 C48.089 51.565 51.342 62.759 54.584 73.957 C56.428 80.324 58.277 86.69 60.125 93.057 C61.104 96.431 62.082 99.805 63.06 103.18 C63.502 104.705 63.944 106.231 64.386 107.757 C64.587 108.45 64.787 109.143 64.994 109.858 C65.786 112.589 66.6 115.301 67.5 118 C68.148 126.363 68.154 132.882 63.5 140 C62.84 140.66 62.18 141.32 61.5 142 C62.453 142.037 63.405 142.075 64.387 142.113 C65.014 142.146 65.014 142.146 68.188 142.312 C69.429 142.371 70.67 142.429 71.949 142.488 C76.829 143.192 80.342 145.21 83.5 149 C85.083 153.749 85.052 157.565 83.25 162.25 C81.099 165.63 79.374 167.475 75.476 168.567 C71.229 169.185 67.039 169.13 62.753 169.114 C61.777 169.114 60.801 169.114 59.795 169.114 C56.575 169.113 53.356 169.105 50.137 169.098 C47.902 169.096 45.667 169.094 43.432 169.093 C37.555 169.09 31.678 169.08 25.8 169.069 C19.801 169.058 13.802 169.054 7.803 169.049 C-3.965 169.038 -15.732 169.021 -27.5 169 C-25.388 166.267 -23.565 164.05 -20.812 161.938 C-15.412 157.639 -10.622 150.871 -7.328 144.861 C-5.069 142.561 -3.434 142.491 -0.281 142.394 C0.061 142.394 0.061 142.394 1.793 142.391 C2.499 142.374 3.205 142.358 3.932 142.341 C6.184 142.292 8.435 142.271 10.688 142.25 C12.216 142.222 13.744 142.192 15.271 142.16 C19.014 142.086 22.757 142.037 26.5 142 C26.123 141.531 26.123 141.531 24.213 139.157 C20.973 134.605 19.587 129.819 18.09 124.484 C17.796 123.474 17.501 122.463 17.198 121.422 C16.579 119.286 15.967 117.148 15.361 115.008 C14.451 111.797 13.519 108.594 12.584 105.391 C9.596 95.056 6.814 84.745 4.8 74.172 C0.515 51.974 -13.285 32.086 -31.5 19 C-33.031 18.025 -34.572 17.065 -36.125 16.125 C-37.239 15.424 -38.353 14.723 -39.5 14 C-39.5 12 -39.5 12 -37.039 9.398 C-25.769 0.115 -13.972 -0.068 0 0 Z " fill="#54686D" transform="translate(406.5,323)"/>
<path d="M0 0 C4 2 4 2 6.297 4.978 C9.107 8.497 11.854 9.286 16.25 10.346 C16.961 10.524 17.672 10.702 18.405 10.886 C20.742 11.466 23.085 12.016 25.43 12.566 C27.065 12.969 28.701 13.375 30.335 13.783 C34.632 14.85 38.934 15.893 43.239 16.928 C50.122 18.584 56.999 20.262 63.869 21.968 C66.261 22.556 68.656 23.124 71.053 23.691 C72.533 24.054 74.012 24.418 75.492 24.783 C76.151 24.934 76.81 25.084 77.488 25.239 C83.766 26.826 88.98 29.993 92.562 35.438 C94 39 94 39 93.438 41.938 C92.963 42.948 92.489 43.959 92 45 C90.03 49.54 88.904 53.27 88.75 58.25 C88.422 62.353 88.338 62.712 85 65.562 C76.911 69.048 69.44 67.827 61.188 65.625 C60.26 65.39 59.333 65.156 58.377 64.914 C55.914 64.289 53.457 63.646 51 63 C49.667 62.665 48.334 62.331 47 62 C48.455 65.37 49.535 67.63 52.438 69.938 C56.93 73.553 58.676 76.67 59.457 82.285 C59.718 87.959 59.83 92.777 56.5 97.562 C50.56 104 44.99 106.455 36.32 107.445 C27.117 106.211 18.687 99.483 11 94.625 C9.984 93.991 8.968 93.357 7.922 92.703 C3.152 89.706 -1.547 86.652 -6.141 83.391 C-10.868 80.041 -15.756 77.057 -20.75 74.125 C-22.498 73.083 -24.246 72.04 -25.992 70.996 C-26.416 70.743 -26.416 70.743 -28.562 69.46 C-32.014 67.393 -35.459 65.316 -38.875 63.188 C-39.924 62.542 -40.974 61.896 -42.055 61.23 C-48.405 56.422 -51.821 51.189 -54.211 43.66 C-54.469 42.893 -54.727 42.126 -54.992 41.336 C-55.802 38.916 -56.589 36.49 -57.375 34.062 C-57.924 32.408 -58.475 30.753 -59.027 29.1 C-60.369 25.072 -61.69 21.038 -63 17 C-55.682 14.193 -48.288 11.961 -40.75 9.812 C-39.484 9.444 -38.218 9.076 -36.914 8.697 C-35.7 8.35 -34.485 8.002 -33.234 7.645 C-32.133 7.328 -31.032 7.012 -29.897 6.687 C-27 6 -27 6 -23 6 C-22.81 6.63 -22.62 7.26 -22.424 7.908 C-15.723 29.559 -15.723 29.559 -7.199 34.242 C-5 35 -5 35 -2 35 C-1.34 23.45 -0.68 11.9 0 0 Z " fill="#FDB59E" transform="translate(189,170)"/>
<path d="M0 0 C10.311 1.351 19.557 11.398 26 19 C33.935 29.962 33.935 29.962 35 36 C34.268 36.343 33.536 36.686 32.781 37.039 C19.46 43.478 6.313 50.791 -6 59 C-6.633 61.84 -6.633 61.84 -6 65 C-3.601 66.887 -1.549 68.175 1.125 69.562 C2.67 70.42 4.214 71.278 5.758 72.137 C6.595 72.592 7.432 73.048 8.294 73.517 C13.24 76.227 18.121 79.046 23 81.875 C23.487 82.149 23.487 82.149 25.95 83.533 C26.853 84.056 27.757 84.579 28.688 85.117 C29.496 85.577 30.304 86.037 31.137 86.511 C33 88 33 88 33.837 90.019 C34.084 93.023 32.848 94.706 31.312 97.25 C30.793 98.142 30.274 99.034 29.738 99.953 C29.165 100.629 28.591 101.304 28 102 C24.231 102 23.423 101.956 20.41 100.234 C19.718 99.844 19.026 99.454 18.313 99.052 C17.571 98.622 16.828 98.193 16.062 97.75 C15.285 97.313 14.507 96.875 13.706 96.425 C9.211 93.886 4.771 91.267 0.355 88.594 C-0.112 88.315 -0.112 88.315 -2.475 86.907 C-4.3 85.817 -6.115 84.71 -7.918 83.585 C-8.336 83.336 -8.336 83.336 -10.453 82.078 C-11.187 81.629 -11.921 81.179 -12.677 80.716 C-15 80 -15 80 -21 82 C-21 98.17 -21 114.34 -21 131 C-25.95 131 -30.9 131 -36 131 C-37 130 -37 130 -37.12 128.057 C-37.118 127.207 -37.116 126.356 -37.114 125.48 C-37.113 124.519 -37.113 123.558 -37.113 122.568 C-37.108 121.524 -37.103 120.479 -37.098 119.402 C-37.096 118.338 -37.095 117.274 -37.093 116.178 C-37.088 112.765 -37.075 109.351 -37.062 105.938 C-37.057 103.63 -37.053 101.322 -37.049 99.014 C-37.038 93.342 -37.021 87.671 -37 82 C-40.47 80.454 -42.197 79.711 -45.846 81.023 C-46.814 81.611 -47.783 82.199 -48.781 82.805 C-49.865 83.448 -50.948 84.091 -52.064 84.754 C-53.21 85.461 -54.355 86.168 -55.5 86.875 C-56.67 87.577 -57.841 88.277 -59.014 88.975 C-61.312 90.346 -63.603 91.728 -65.891 93.117 C-69.731 95.443 -73.604 97.706 -77.5 99.938 C-78.542 100.545 -79.583 101.152 -80.656 101.777 C-83 103 -83 103 -85 103 C-86.762 100.48 -86.762 100.48 -88.688 97.188 C-89.331 96.109 -89.974 95.03 -90.637 93.918 C-92 91 -92 91 -91 88 C-88.83 86.517 -88.83 86.517 -85.961 84.961 C-84.912 84.385 -83.862 83.809 -82.781 83.215 C-81.657 82.608 -80.533 82.001 -79.375 81.375 C-77.092 80.113 -74.809 78.85 -72.527 77.586 C-69.472 75.904 -66.415 74.225 -63.348 72.563 C-61.199 71.395 -59.067 70.202 -56.938 69 C-56.32 68.676 -55.702 68.351 -55.066 68.017 C-53.402 67.062 -53.402 67.062 -51 65 C-50.85 61.871 -50.85 61.871 -51 59 C-51.355 58.796 -51.355 58.796 -53.149 57.766 C-79.201 42.793 -79.201 42.793 -92 35 C-89.248 25.317 -81.928 15.269 -74 9 C-72.685 8.297 -71.355 7.62 -70 7 C-70 8.32 -70 9.64 -70 11 C-58.78 11 -47.56 11 -36 11 C-36 8.03 -36 5.06 -36 2 C-35.278 2.743 -34.556 3.485 -33.812 4.25 C-28.662 9.286 -25.122 12.107 -17.812 12.375 C-12.053 12.306 -8.196 10.989 -4 7 C-2.334 4.716 -1.213 2.577 0 0 Z M-57 36 C-52.222 39.823 -47.824 43.052 -42 45 C-38.875 44.188 -38.875 44.188 -37 42 C-37 40.02 -37 38.04 -37 36 C-43.6 36 -50.2 36 -57 36 Z M-21 36 C-21 37.98 -21 39.96 -21 42 C-18.812 44 -18.812 44 -16 45 C-12.267 43.812 -9.032 41.954 -5.688 39.938 C-4.804 39.41 -3.921 38.883 -3.012 38.34 C-2.348 37.898 -1.684 37.456 -1 37 C-1 36.67 -1 36.34 -1 36 C-7.6 36 -14.2 36 -21 36 Z " fill="#3C5064" transform="translate(349,356)"/>
<path d="M0 0 C10.671 7.1 17.681 17.3 20.691 29.746 C22.598 41.58 20.783 54.222 14.109 64.34 C6.206 74.767 -3.716 82.424 -16.891 84.34 C-30.112 85.497 -41.914 83.491 -52.609 75.312 C-63.342 66.032 -68.712 55.211 -70.109 41.137 C-70.625 29.191 -66.361 18.165 -58.703 9.215 C-43.346 -7.119 -19.724 -11.328 0 0 Z " fill="#FFB69E" transform="translate(170.890625,5.66015625)"/>
<path d="M0 0 C5.92 5.011 10.11 10.12 13.496 17.094 C13.835 17.754 14.174 18.414 14.523 19.094 C18.358 28.142 17.97 40.963 14.871 50.156 C9.734 61.863 1.746 70.745 -9.965 76.129 C-22.521 80.9 -35.399 79.855 -47.629 74.469 C-58.11 68.704 -65.333 59.599 -69.379 48.469 C-72.588 36.247 -71.042 23.769 -65.219 12.637 C-59.192 2.782 -50.073 -4.353 -39 -7.652 C-25.301 -10.761 -11.305 -8.607 0 0 Z " fill="#7F381A" transform="translate(368.50390625,105.90625)"/>
<path d="M0 0 C5.122 1.565 8.658 4.746 12.688 8.125 C14.108 9.298 15.528 10.472 16.949 11.645 C17.638 12.216 18.327 12.788 19.037 13.377 C21.668 15.552 24.33 17.685 27 19.812 C27.784 20.438 28.567 21.063 29.375 21.707 C29.911 22.134 30.447 22.56 31 23 C28.881 26.711 26.508 29.999 23.812 33.312 C23.097 34.196 22.382 35.079 21.645 35.988 C21.102 36.652 20.559 37.316 20 38 C21.627 42.797 24.28 46.675 27.094 50.836 C27.6 51.592 28.106 52.349 28.628 53.128 C30.247 55.547 31.874 57.961 33.5 60.375 C34.563 61.959 35.625 63.544 36.688 65.129 C40.752 71.191 44.817 77.252 48.906 83.298 C49.802 84.628 50.698 85.959 51.594 87.289 C51.997 87.882 52.401 88.476 52.817 89.087 C57.294 95.752 60.218 100.926 59 109 C56.889 115.654 53.08 119.547 47.148 123.113 C42.006 125.236 35.845 124.627 30.688 122.875 C27.354 120.549 24.774 117.972 22 115 C21.67 117.31 21.34 119.62 21 122 C9.78 122 -1.44 122 -13 122 C-13 120.35 -13 118.7 -13 117 C-3.933 111.447 4.844 107.21 15 104 C12.992 100.811 10.938 97.654 8.875 94.5 C8.305 93.594 7.735 92.688 7.148 91.754 C2.801 85.184 2.801 85.184 -1.133 84.281 C-3.874 84.968 -6.221 85.744 -8.75 87 C-12.833 89 -12.833 89 -15 89 C-14.983 88.165 -14.966 87.329 -14.949 86.468 C-14.575 58.084 -14.575 58.084 -22.953 47.625 C-25.457 44.415 -26.236 42.104 -26.266 38.074 C-25.067 28.717 -20.234 22.192 -13.637 15.66 C-10.64 12.636 -7.914 9.453 -5.188 6.188 C-4.685 5.59 -4.183 4.993 -3.666 4.377 C-2.442 2.92 -1.221 1.46 0 0 Z " fill="#80391B" transform="translate(292,245)"/>
<path d="M0 0 C2.652 3.201 4.898 6.417 7 10 C5.912 10.352 4.824 10.704 3.703 11.066 C-15.439 17.423 -31.149 26.976 -41.062 45.099 C-49.935 63.076 -50.722 84.192 -44.512 103.109 C-42.91 107.486 -40.782 111.411 -38.137 115.25 C-37 117 -37 117 -37 119 C-36.505 119.165 -36.505 119.165 -34 120 C-32.598 121.531 -32.598 121.531 -31.062 123.5 C-19.173 137.441 -2.14 144.56 15.797 146.387 C34.767 146.967 52.111 140.101 66.309 127.605 C79.843 114.503 86.949 97.467 87.312 78.625 C87.349 69.976 85.555 62.223 83 54 C82.856 53.531 82.856 53.531 82.125 51.16 C77.805 38.952 68.187 27.15 56.732 21.137 C53.87 19.622 51.441 18.142 49 16 C47.902 11.801 48.175 8.233 49 4 C65.377 8.31 79.748 22.504 88.262 36.645 C99.17 55.746 101.908 77.182 96.973 98.578 C90.841 120.149 77.748 137.019 58.348 148.125 C39.378 158.517 18.076 161.3 -2.863 155.391 C-23.985 148.698 -41.49 134.463 -52 115 C-62.009 95.162 -63.414 73.709 -56.934 52.512 C-48.781 30.046 -33.146 14.102 -11.785 3.798 C-7.981 2.097 -4.058 0.917 0 0 Z " fill="#2B2F33" transform="translate(301,340)"/>
<path d="M0 0 C6.08 5.294 9.439 11.374 10.406 19.348 C12.873 25 17.362 26.631 22.688 29.375 C24.778 30.505 26.868 31.637 28.957 32.77 C29.984 33.317 31.011 33.864 32.069 34.428 C36.051 36.563 39.977 38.779 43.875 41.062 C44.492 41.408 45.109 41.753 45.745 42.109 C48.064 43.47 49.742 44.529 51.051 46.918 C50.978 49.917 49.854 51.697 48.312 54.25 C47.793 55.142 47.274 56.034 46.738 56.953 C46.165 57.629 45.591 58.304 45 59 C41.231 59 40.423 58.956 37.41 57.234 C37.064 57.039 37.064 57.039 35.313 56.052 C34.571 55.622 33.828 55.193 33.062 54.75 C32.285 54.313 31.507 53.875 30.706 53.425 C26.211 50.886 21.771 48.267 17.355 45.594 C16.421 45.037 15.487 44.481 14.525 43.907 C12.7 42.817 10.885 41.71 9.082 40.585 C8.246 40.088 7.409 39.59 6.547 39.078 C5.813 38.629 5.079 38.179 4.323 37.716 C2 37 2 37 -4 39 C-4 55.17 -4 71.34 -4 88 C-8.95 88 -13.9 88 -19 88 C-20 87 -20 87 -20.12 85.057 C-20.118 84.207 -20.116 83.356 -20.114 82.48 C-20.113 81.519 -20.113 80.558 -20.113 79.568 C-20.108 78.524 -20.103 77.479 -20.098 76.402 C-20.096 75.338 -20.095 74.274 -20.093 73.178 C-20.088 69.765 -20.075 66.351 -20.062 62.938 C-20.057 60.63 -20.053 58.322 -20.049 56.014 C-20.038 50.342 -20.021 44.671 -20 39 C-23.47 37.454 -25.197 36.711 -28.846 38.023 C-29.814 38.611 -30.783 39.199 -31.781 39.805 C-32.865 40.448 -33.948 41.091 -35.064 41.754 C-36.21 42.461 -37.355 43.168 -38.5 43.875 C-39.67 44.577 -40.841 45.277 -42.014 45.975 C-44.312 47.346 -46.603 48.728 -48.891 50.117 C-52.731 52.443 -56.604 54.706 -60.5 56.938 C-61.542 57.545 -62.583 58.152 -63.656 58.777 C-66 60 -66 60 -68 60 C-69.762 57.48 -69.762 57.48 -71.688 54.188 C-72.331 53.109 -72.974 52.03 -73.637 50.918 C-75 48 -75 48 -74 45 C-71.83 43.517 -71.83 43.517 -68.961 41.961 C-67.912 41.385 -66.863 40.809 -65.781 40.216 C-64.657 39.609 -63.533 39.001 -62.375 38.375 C-60.09 37.106 -57.804 35.836 -55.52 34.566 C-51.73 32.478 -47.927 30.435 -44.074 28.465 C-34.65 23.502 -34.65 23.502 -32.797 19.219 C-32.312 16.312 -32.312 16.312 -32.164 13.512 C-31.79 7.792 -27.102 3.602 -23 0 C-16.087 -3.346 -6.936 -3.201 0 0 Z " fill="#86AEB8" transform="translate(332,399)"/>
<path d="M0 0 C3.116 1.154 4.153 2.205 6.191 4.939 C9.063 8.448 11.821 9.279 16.25 10.346 C16.961 10.524 17.672 10.702 18.405 10.886 C20.742 11.466 23.085 12.016 25.43 12.566 C27.065 12.969 28.701 13.375 30.335 13.783 C34.632 14.85 38.934 15.893 43.239 16.928 C50.122 18.584 56.999 20.262 63.869 21.968 C66.261 22.556 68.656 23.124 71.053 23.691 C72.533 24.054 74.012 24.418 75.492 24.783 C75.821 24.859 75.821 24.859 77.488 25.239 C83.766 26.826 88.98 29.993 92.562 35.438 C94 39 94 39 93.438 41.938 C92.963 42.948 92.489 43.959 92 45 C90.03 49.54 88.904 53.27 88.75 58.25 C88.422 62.353 88.338 62.712 85 65.562 C76.911 69.048 69.44 67.827 61.188 65.625 C60.26 65.39 59.333 65.156 58.377 64.914 C55.914 64.289 53.457 63.646 51 63 C49.667 62.665 48.334 62.331 47 62 C47.165 62.825 47.165 62.825 48 67 C44.594 65.711 41.501 64.235 38.367 62.383 C37.487 61.864 36.607 61.345 35.701 60.81 C34.768 60.254 33.836 59.698 32.875 59.125 C31.91 58.552 30.946 57.979 29.952 57.389 C20.536 51.771 11.118 46.094 2 40 C1.631 39.814 1.631 39.814 -0.239 38.87 C-2 37 -2 37 -2.271 33.263 C-2.186 31.712 -2.079 30.162 -1.953 28.613 C-1.903 27.796 -1.853 26.979 -1.801 26.137 C-1.637 23.527 -1.444 20.92 -1.25 18.312 C-1.134 16.544 -1.019 14.775 -0.906 13.006 C-0.626 8.669 -0.32 4.334 0 0 Z " fill="#EA9A81" transform="translate(189,170)"/>
<path d="M0 0 C8.755 4.928 12.494 14.389 15.477 23.492 C15.799 24.442 16.121 25.392 16.453 26.37 C17.125 28.36 17.791 30.353 18.451 32.347 C19.459 35.393 20.487 38.432 21.518 41.471 C22.172 43.415 22.825 45.36 23.477 47.305 C23.781 48.208 24.085 49.111 24.398 50.042 C25.841 54.416 27.062 58.609 27.645 63.199 C23.874 64.305 20.103 65.409 16.332 66.512 C15.806 66.666 15.806 66.666 13.143 67.447 C11.024 68.067 8.904 68.681 6.783 69.292 C4.709 69.891 2.638 70.505 0.573 71.134 C0.093 71.276 0.093 71.276 -2.336 71.992 C-3.184 72.249 -4.033 72.506 -4.907 72.77 C-7.804 73.278 -9.558 73.11 -12.355 72.199 C-13.602 70.273 -13.602 70.273 -14.484 67.715 C-14.824 66.759 -15.164 65.804 -15.514 64.82 C-15.86 63.779 -16.206 62.737 -16.562 61.664 C-16.933 60.597 -17.303 59.53 -17.684 58.43 C-18.465 56.166 -19.235 53.899 -19.996 51.628 C-21.158 48.167 -22.354 44.719 -23.557 41.271 C-24.311 39.07 -25.063 36.867 -25.812 34.664 C-25.991 34.15 -25.991 34.15 -26.892 31.551 C-29 25.196 -30.492 19.573 -28.762 12.914 C-23.043 1.698 -12.529 -4.26 0 0 Z " fill="#4699F2" transform="translate(137.35546875,112.80078125)"/>
<path d="M0 0 C5.045 2.873 8.447 6.49 10.773 11.84 C12.359 18.448 11.817 24.064 8.523 29.965 C2.424 37.161 -6.337 40.567 -14.727 44.34 C-16.158 44.995 -17.589 45.651 -19.02 46.309 C-22.525 47.916 -26.037 49.507 -29.552 51.093 C-32.357 52.364 -35.155 53.651 -37.953 54.938 C-39.752 55.76 -41.552 56.582 -43.352 57.402 C-44.164 57.773 -44.976 58.145 -45.813 58.527 C-51.239 60.965 -51.239 60.965 -53.477 60.965 C-53.477 46.445 -53.477 31.925 -53.477 16.965 C-35.46 7.957 -35.46 7.957 -26.852 4.027 C-25.823 3.534 -24.794 3.041 -23.734 2.533 C-16.214 -0.873 -8.006 -3.347 0 0 Z " fill="#80381B" transform="translate(438.4765625,238.03515625)"/>
<path d="M0 0 C0.369 0.005 0.369 0.005 2.239 0.029 C2.63 0.027 2.63 0.027 4.61 0.013 C7.199 0 9.788 0.017 12.378 0.035 C14.178 0.035 15.977 0.033 17.777 0.031 C21.552 0.029 25.326 0.042 29.101 0.064 C33.935 0.093 38.769 0.09 43.603 0.077 C47.322 0.07 51.04 0.078 54.758 0.091 C56.54 0.095 58.322 0.095 60.104 0.092 C62.599 0.089 65.092 0.105 67.586 0.127 C68.321 0.122 69.056 0.118 69.813 0.113 C75.202 0.191 78.266 1.58 82.292 5.031 C85.152 8.463 84.829 12.289 84.542 16.531 C82.956 20.655 81.44 23.353 77.542 25.531 C72.695 26.889 67.784 26.664 62.795 26.645 C61.819 26.645 60.842 26.645 59.837 26.645 C56.617 26.644 53.398 26.637 50.179 26.629 C47.944 26.627 45.709 26.625 43.474 26.624 C37.597 26.621 31.72 26.611 25.842 26.6 C19.843 26.589 13.844 26.585 7.845 26.58 C-3.923 26.569 -15.691 26.552 -27.458 26.531 C-25.346 23.798 -23.524 21.581 -20.771 19.469 C-15.394 15.189 -10.528 8.404 -7.311 2.385 C-4.971 0.043 -3.23 0.047 0 0 Z " fill="#46728B" transform="translate(406.4580841064453,465.468994140625)"/>
<path d="M0 0 C4.781 3.023 8.22 6.131 9.801 11.715 C11.095 17.587 10.966 22.258 7.953 27.574 C4.48 32.858 0.365 37.596 -3.773 42.359 C-7.406 46.562 -10.805 50.94 -14.206 55.331 C-15.97 57.604 -17.697 59.787 -19.734 61.824 C-20.487 61.169 -21.24 60.515 -22.016 59.84 C-28.982 53.836 -36.124 48.166 -43.527 42.71 C-43.852 42.47 -43.852 42.47 -45.496 41.258 C-46.073 40.836 -46.65 40.413 -47.245 39.978 C-48.734 38.824 -48.734 38.824 -50.734 36.824 C-50.509 36.581 -50.509 36.581 -49.371 35.348 C-45.147 30.692 -41.16 25.904 -37.297 20.949 C-36.83 20.353 -36.363 19.757 -35.883 19.143 C-34.073 16.829 -32.265 14.516 -30.478 12.186 C-22.569 1.881 -13.829 -5.946 0 0 Z " fill="#D03D2C" transform="translate(342.734375,207.17578125)"/>
<path d="M0 0 C2.075 3.112 3.058 5.78 4.247 9.32 C4.461 9.956 4.676 10.592 4.898 11.248 C5.606 13.348 6.307 15.451 7.008 17.555 C7.498 19.018 7.988 20.482 8.479 21.945 C9.506 25.012 10.529 28.081 11.55 31.15 C12.858 35.079 14.177 39.004 15.498 42.929 C16.514 45.95 17.523 48.974 18.53 51.998 C19.013 53.446 19.499 54.894 19.987 56.34 C20.669 58.365 21.342 60.393 22.012 62.421 C22.205 62.998 22.205 62.998 23.178 65.913 C23.955 68.83 24.382 71.011 24 74 C21.998 75.872 20.172 77.338 17.938 78.875 C16.742 79.741 15.549 80.611 14.359 81.484 C13.781 81.908 13.203 82.331 12.607 82.768 C9.418 85.213 6.738 88.071 4 91 C1.336 88.336 0.612 85.332 -0.522 81.828 C-0.766 81.09 -1.01 80.351 -1.262 79.591 C-2.068 77.146 -2.866 74.698 -3.664 72.25 C-4.221 70.554 -4.779 68.857 -5.337 67.161 C-6.506 63.605 -7.67 60.047 -8.832 56.488 C-10.323 51.92 -11.823 47.353 -13.325 42.788 C-14.477 39.285 -15.626 35.782 -16.773 32.278 C-17.325 30.593 -17.878 28.909 -18.431 27.225 C-19.203 24.875 -19.97 22.524 -20.737 20.172 C-20.967 19.472 -21.198 18.771 -21.436 18.05 C-23 13.229 -23 13.229 -23 11 C-22.299 10.986 -21.597 10.972 -20.875 10.957 C-14.033 10.613 -9.275 9.481 -4 5 C-1.5 2.188 -1.5 2.188 0 0 Z " fill="#3C4F63" transform="translate(246,265)"/>
<path d="M0 0 C2.658 1.329 2.83 2.594 3.938 5.312 C5.28 8.601 6.772 11.227 9 14 C0.851 19.163 -7.449 24.065 -15.791 28.908 C-16.97 29.593 -18.148 30.28 -19.325 30.969 C-21.007 31.952 -22.693 32.927 -24.379 33.902 C-25.364 34.475 -26.35 35.047 -27.365 35.636 C-29.635 36.811 -31.506 37.536 -34 38 C-35.2 36.07 -36.385 34.131 -37.562 32.188 C-37.893 31.648 -37.893 31.648 -39.566 28.918 C-41 26 -41 26 -40 23 C-37.83 21.517 -37.83 21.517 -34.961 19.961 C-33.912 19.384 -32.863 18.807 -31.781 18.213 C-30.657 17.607 -29.533 17 -28.375 16.375 C-26.089 15.123 -23.804 13.869 -21.52 12.613 C-20.404 12 -19.288 11.388 -18.139 10.756 C-13.418 8.115 -8.803 5.309 -4.242 2.402 C-2.862 1.543 -1.435 0.762 0 0 Z " fill="#45728C" transform="translate(298,421)"/>
<path d="M0 0 C3.84 1.431 7.282 3.211 10.824 5.266 C11.38 5.587 11.38 5.587 14.193 7.215 C15.358 7.893 16.523 8.572 17.688 9.25 C18.821 9.906 19.955 10.562 21.123 11.238 C23.359 12.535 25.592 13.838 27.822 15.146 C29.878 16.346 31.945 17.525 34.026 18.682 C34.931 19.194 35.837 19.706 36.77 20.234 C37.566 20.675 38.362 21.115 39.183 21.569 C41 23 41 23 41.832 25.012 C42.087 28.021 40.852 29.701 39.312 32.25 C38.793 33.142 38.274 34.034 37.738 34.953 C37.451 35.291 37.451 35.291 36 37 C32.231 37 31.423 36.956 28.41 35.234 C27.718 34.844 27.025 34.454 26.312 34.052 C25.57 33.623 24.827 33.193 24.062 32.75 C23.289 32.311 22.516 31.872 21.719 31.42 C19.141 29.955 16.571 28.477 14 27 C12.049 25.887 10.097 24.775 8.145 23.664 C3.091 20.785 -1.956 17.896 -7 15 C-5.994 12.985 -4.986 10.972 -3.965 8.965 C-3.626 8.296 -3.287 7.627 -2.938 6.938 C-2.767 6.602 -2.767 6.602 -1.902 4.902 C-1 3 -1 3 0 0 Z " fill="#45728C" transform="translate(341,421)"/>
<path d="M0 0 C5.28 0 10.56 0 16 0 C16 16.17 16 32.34 16 49 C11.05 49 6.1 49 1 49 C0 48 0 48 -0.12 46.057 C-0.118 45.207 -0.116 44.356 -0.114 43.48 C-0.113 42.519 -0.113 41.558 -0.113 40.568 C-0.108 39.524 -0.103 38.479 -0.098 37.402 C-0.096 36.338 -0.095 35.274 -0.093 34.178 C-0.088 30.765 -0.075 27.351 -0.062 23.938 C-0.057 21.63 -0.053 19.322 -0.049 17.014 C-0.038 11.342 -0.02 5.671 0 0 Z " fill="#45728C" transform="translate(312,438)"/>
<path d="M0 0 C2.837 1.527 3.679 3.623 5.137 6.453 C5.397 6.947 5.397 6.947 6.715 9.449 C7.887 12.016 7.887 12.016 7.887 14.016 C7.521 14.187 7.521 14.187 5.668 15.055 C-3.794 19.628 -12.818 24.843 -21.848 30.215 C-22.844 30.806 -23.841 31.396 -24.867 32.004 C-25.757 32.535 -26.648 33.067 -27.565 33.615 C-30.029 34.969 -32.481 36.032 -35.113 37.016 C-35.32 36.418 -35.32 36.418 -36.363 33.391 C-37.817 29.481 -39.671 26.385 -42.113 23.016 C-35.575 18.185 -28.495 14.498 -21.292 10.784 C-15.509 7.793 -9.953 4.598 -4.461 1.098 C-2.113 0.016 -2.113 0.016 0 0 Z " fill="#45728B" transform="translate(376.11328125,377.984375)"/>
<path d="M0 0 C3.227 0.648 5.662 1.811 8.492 3.477 C9.356 3.979 10.22 4.482 11.11 5 C12.022 5.536 12.935 6.072 13.875 6.625 C21.221 10.898 28.581 14.914 36.285 18.5 C39.049 20.027 40.899 21.662 43 24 C42.237 24.846 41.474 25.691 40.688 26.562 C37.951 29.82 36.506 33.037 35 37 C27.035 32.675 19.101 28.295 11.188 23.875 C10.641 23.571 10.641 23.571 7.877 22.035 C2.787 19.191 -2.225 16.35 -7 13 C-5.588 7.738 -3.251 4.278 0 0 Z " fill="#45728B" transform="translate(264,378)"/>
<path d="M0 0 C5.246 3.565 7.235 6.743 9.188 12.688 C9.436 13.395 9.684 14.103 9.94 14.832 C11.558 19.493 13.056 24.193 14.41 28.938 C15.187 31.655 16.085 34.327 17 37 C13.416 35.655 10.201 34.054 6.91 32.102 C5.961 31.54 5.011 30.977 4.033 30.398 C3.053 29.813 2.073 29.228 1.062 28.625 C0.086 28.048 -0.89 27.47 -1.896 26.875 C-15.645 18.71 -15.645 18.71 -17 16 C-17.526 12.243 -17.828 8.572 -16.023 5.145 C-11.537 -0.429 -6.976 -2.47 0 0 Z " fill="#405164" transform="translate(220,200)"/>
<path d="M0 0 C1.65 1.65 3.3 3.3 5 5 C8.437 8.008 10.616 9.246 15 11 C15 20.57 15 30.14 15 40 C9.72 40 4.44 40 -1 40 C-0.67 26.8 -0.34 13.6 0 0 Z " fill="#46728B" transform="translate(313,358)"/>
<path d="M0 0 C5.082 5.505 4 7.618 4 16 C-7.22 16 -18.44 16 -30 16 C-30 14.35 -30 12.7 -30 11 C-7.136 -2.935 -7.136 -2.935 0 0 Z " fill="#E34837" transform="translate(309,351)"/>
<path d="M0 0 C2.877 2.877 4.854 5.038 7.016 8.328 C7.28 8.728 7.28 8.728 8.617 10.75 C9.156 11.575 9.695 12.4 10.25 13.25 C10.804 14.09 11.359 14.931 11.93 15.797 C13.291 17.862 14.647 19.93 16 22 C13.539 24.461 11.215 25.303 8 26.625 C6.928 27.071 5.855 27.517 4.75 27.977 C2 29 2 29 0 29 C0 19.43 0 9.86 0 0 Z " fill="#E44836" transform="translate(277,305)"/>
<path d="M0 0 C4.499 0.534 7.15 2.248 10.75 4.938 C11.714 5.648 12.678 6.358 13.672 7.09 C16 9 16 9 17 11 C8.75 11 0.5 11 -8 11 C-6.02 8.69 -4.04 6.38 -2 4 C-1.34 2.68 -0.68 1.36 0 0 Z " fill="#54676C" transform="translate(349,356)"/>
<path d="M0 0 C4 2 4 2 5.312 3.875 C6 6 6 6 5 10 C3.35 6.7 1.7 3.4 0 0 Z " fill="#3F5162" transform="translate(401,370)"/>
</svg>
