<?xml version="1.0" encoding="UTF-8"?>
<!-- Generator: visioncortex VTracer 0.6.12 -->
<svg version="1.1" xmlns="http://www.w3.org/2000/svg" width="512" height="512">
<path d="M0 0 C0.958 -0.006 1.917 -0.011 2.904 -0.017 C6.067 -0.029 9.229 -0.004 12.393 0.021 C14.593 0.023 16.794 0.023 18.994 0.021 C23.604 0.023 28.214 0.042 32.824 0.073 C38.732 0.113 44.64 0.117 50.548 0.11 C55.092 0.107 59.635 0.119 64.178 0.136 C66.357 0.143 68.535 0.146 70.714 0.145 C73.759 0.147 76.803 0.168 79.848 0.195 C80.298 0.194 80.298 0.194 82.575 0.186 C87.314 0.251 90.606 0.473 94.424 3.615 C95.366 6.338 95.28 8.698 95.424 11.615 C95.96 11.449 96.496 11.283 97.049 11.111 C105.688 9.307 114.191 11.561 121.752 15.752 C127.353 19.658 131.141 24.481 132.924 31.115 C134.097 38.706 132.998 44.948 129.006 51.541 C124.263 57.76 117.055 61.964 109.342 63.049 C103.532 63.587 98.145 63.813 92.424 62.615 C92.023 63.256 91.622 63.897 91.209 64.557 C82.271 78.156 69.122 85.049 53.424 88.615 C51.444 88.615 49.464 88.615 47.424 88.615 C47.424 93.895 47.424 99.175 47.424 104.615 C49.399 104.569 51.374 104.522 53.408 104.475 C55.997 104.437 58.585 104.401 61.174 104.365 C62.476 104.332 63.778 104.298 65.119 104.264 C66.37 104.251 67.62 104.238 68.908 104.225 C70.06 104.204 71.212 104.183 72.399 104.161 C76.082 104.714 77.228 105.656 79.424 108.615 C79.986 112.115 79.986 112.115 79.424 115.615 C75.83 119.261 73.305 120.125 68.248 120.225 C67.091 120.257 65.934 120.289 64.742 120.322 C63.544 120.336 62.346 120.351 61.111 120.365 C59.894 120.395 58.676 120.425 57.422 120.455 C54.422 120.526 51.424 120.578 48.424 120.615 C49.091 120.929 49.757 121.243 50.444 121.566 C62.123 127.205 68.53 134.539 73.424 146.615 C75.958 154.45 75.292 163.295 71.689 170.615 C68.176 176.168 64.355 179.272 58.861 182.678 C58.116 183.15 57.371 183.621 56.603 184.108 C55.019 185.109 53.433 186.107 51.844 187.101 C49.473 188.584 47.11 190.078 44.748 191.576 C40.776 194.094 36.798 196.602 32.818 199.108 C21.964 205.942 11.123 212.797 0.299 219.678 C-0.534 220.207 -1.367 220.736 -2.226 221.281 C-3.926 222.363 -5.613 223.466 -7.285 224.591 C-9.804 226.14 -12.136 227.356 -14.807 228.569 C-26.244 234.181 -26.244 234.181 -28.518 240.044 C-29.881 246.918 -29.466 253.844 -29.139 260.803 C-29.102 262.92 -29.072 265.038 -29.051 267.156 C-28.982 272.315 -28.808 277.461 -28.576 282.615 C-27.96 282.612 -27.345 282.61 -26.71 282.607 C-11.738 282.541 3.234 282.491 18.207 282.46 C25.447 282.444 32.688 282.423 39.928 282.389 C46.238 282.359 52.548 282.34 58.858 282.333 C62.2 282.329 65.541 282.32 68.883 282.298 C72.611 282.276 76.339 282.273 80.068 282.275 C81.179 282.264 82.29 282.253 83.435 282.242 C84.449 282.246 85.463 282.25 86.507 282.254 C86.948 282.253 86.948 282.253 89.181 282.246 C91.932 282.699 92.807 283.369 94.424 285.615 C95.478 292.905 92.958 297.073 89.111 303.115 C87.911 305.07 86.712 307.026 85.514 308.982 C84.857 310.042 84.201 311.101 83.525 312.192 C81.281 315.83 79.1 319.505 76.928 323.186 C76.542 323.839 76.156 324.492 75.759 325.166 C74.966 326.509 74.173 327.853 73.381 329.197 C66.164 341.416 58.839 353.567 51.45 365.682 C46.331 374.085 41.303 382.538 36.356 391.043 C35.864 391.884 35.372 392.725 34.865 393.592 C34.439 394.325 34.013 395.058 33.574 395.813 C32.424 397.615 32.424 397.615 30.424 399.615 C28.057 399.856 28.057 399.856 25.056 399.842 C24.496 399.842 24.496 399.842 21.659 399.842 C20.445 399.832 19.23 399.821 17.979 399.811 C16.738 399.808 15.498 399.805 14.22 399.802 C10.923 399.793 7.625 399.775 4.327 399.753 C0.962 399.732 -2.403 399.723 -5.768 399.713 C-12.371 399.691 -18.973 399.657 -25.576 399.615 C-25.567 400.368 -25.558 401.121 -25.549 401.897 C-25.469 409.004 -25.408 416.11 -25.369 423.216 C-25.348 426.87 -25.32 430.523 -25.274 434.176 C-25.231 437.703 -25.207 441.23 -25.197 444.758 C-25.186 446.755 -25.154 448.752 -25.123 450.748 C-25.123 451.969 -25.122 453.19 -25.122 454.448 C-25.113 455.521 -25.104 456.593 -25.095 457.698 C-25.713 461.444 -26.897 462.945 -29.576 465.615 C-32.462 466.239 -32.462 466.239 -35.877 466.237 C-37.172 466.248 -38.468 466.259 -39.802 466.271 C-41.236 466.258 -42.67 466.244 -44.104 466.23 C-45.615 466.234 -47.126 466.24 -48.637 466.247 C-52.741 466.262 -56.844 466.244 -60.947 466.221 C-65.24 466.201 -69.533 466.207 -73.826 466.209 C-81.035 466.209 -88.245 466.189 -95.454 466.157 C-103.791 466.12 -112.127 466.112 -120.464 466.119 C-128.481 466.125 -136.499 466.114 -144.516 466.095 C-147.929 466.086 -151.342 466.084 -154.755 466.085 C-158.774 466.086 -162.792 466.072 -166.811 466.046 C-168.287 466.039 -169.762 466.037 -171.237 466.04 C-173.25 466.044 -175.263 466.027 -177.276 466.01 C-178.402 466.006 -179.529 466.002 -180.69 465.998 C-183.897 465.573 -185.266 464.837 -187.576 462.615 C-188.878 459.424 -188.697 456.157 -188.69 452.745 C-188.69 452.155 -188.69 452.155 -188.689 449.167 C-188.684 447.897 -188.679 446.627 -188.674 445.318 C-188.672 444.014 -188.671 442.711 -188.67 441.367 C-188.666 437.908 -188.656 434.449 -188.645 430.99 C-188.635 427.458 -188.63 423.925 -188.625 420.393 C-188.614 413.467 -188.597 406.541 -188.576 399.615 C-189.256 399.624 -189.936 399.633 -190.637 399.642 C-197.71 399.731 -204.782 399.791 -211.855 399.835 C-214.495 399.855 -217.136 399.882 -219.776 399.917 C-223.569 399.965 -227.361 399.988 -231.154 400.006 C-231.746 400.016 -231.746 400.016 -234.737 400.068 C-235.288 400.069 -235.288 400.069 -238.073 400.069 C-239.041 400.078 -240.01 400.087 -241.007 400.096 C-244.331 399.474 -245.453 398.188 -247.576 395.615 C-248.828 393.7 -250.017 391.743 -251.158 389.76 C-251.323 389.475 -251.323 389.475 -252.16 388.034 C-252.871 386.808 -253.578 385.581 -254.284 384.352 C-256.18 381.05 -258.097 377.759 -260.01 374.467 C-260.397 373.799 -260.785 373.13 -261.184 372.442 C-264.713 366.359 -268.32 360.325 -271.951 354.303 C-278.624 343.219 -285.253 332.11 -291.839 320.974 C-292.629 319.638 -293.419 318.302 -294.209 316.967 C-294.589 316.324 -294.97 315.681 -295.361 315.019 C-297.546 311.332 -299.76 307.664 -302.006 304.014 C-302.484 303.228 -302.963 302.442 -303.456 301.633 C-304.289 300.268 -305.132 298.909 -305.988 297.559 C-308.278 293.78 -309.34 291.025 -308.576 286.615 C-307.165 284.467 -307.165 284.467 -304.576 282.615 C-301.275 282.028 -298.011 282.11 -294.667 282.161 C-294.164 282.161 -294.164 282.161 -291.621 282.159 C-288.298 282.162 -284.977 282.193 -281.654 282.225 C-279.351 282.232 -277.047 282.238 -274.744 282.242 C-268.68 282.257 -262.618 282.296 -256.555 282.341 C-250.368 282.381 -244.181 282.4 -237.994 282.42 C-225.855 282.463 -213.715 282.531 -201.576 282.615 C-201.585 282.06 -201.594 281.504 -201.603 280.932 C-201.693 275.074 -201.752 269.217 -201.796 263.359 C-201.816 261.181 -201.843 259.004 -201.878 256.827 C-202.234 234.056 -198.916 215.527 -183.494 197.822 C-181.576 195.615 -181.576 195.615 -179.576 192.615 C-180.473 193.074 -181.371 193.533 -182.295 194.006 C-201.641 203.644 -222.913 207.597 -244.025 201.021 C-262.194 193.826 -262.194 193.826 -265.576 187.615 C-265.469 181.512 -265.469 181.512 -262.916 178.947 C-259.944 177.255 -257.605 177.13 -254.201 176.865 C-242.937 175.444 -232.784 170.571 -225.576 161.615 C-220.541 154.91 -216.392 147.947 -212.576 140.49 C-212.316 139.989 -212.316 139.989 -210.997 137.45 C-208.052 131.719 -205.383 125.954 -202.951 119.99 C-195.136 101.18 -178.847 87.507 -160.264 79.803 C-152.869 77.132 -145.301 75.91 -137.576 74.615 C-133.676 73.844 -129.829 72.984 -126.014 71.861 C-109.317 66.952 -92.686 68.04 -77.029 75.893 C-66.673 81.698 -58.758 89.522 -52.576 99.615 C-52.188 100.225 -51.8 100.835 -51.4 101.463 C-42.879 116.434 -42.541 136.277 -46.041 152.717 C-46.576 154.615 -46.576 154.615 -47.576 156.615 C-35.347 150.312 -23.14 143.98 -11.076 137.365 C-10.181 136.875 -9.285 136.384 -8.363 135.878 C-7.484 135.397 -6.606 134.916 -5.701 134.42 C-0.838 131.755 4.034 129.107 8.924 126.49 C9.6 126.124 10.276 125.757 10.973 125.38 C14.706 123.392 18.371 121.829 22.424 120.615 C21.875 120.597 21.875 120.597 19.1 120.502 C17.645 120.436 16.191 120.37 14.736 120.303 C14.015 120.28 13.294 120.258 12.551 120.234 C8.112 120.011 4.994 119.524 1.424 116.615 C0.361 113.24 0.361 113.24 0.424 109.615 C2.021 106.919 2.021 106.919 4.424 104.615 C7.448 104.048 7.448 104.048 10.939 104.127 C12.19 104.143 13.44 104.159 14.729 104.176 C16.03 104.218 17.332 104.26 18.674 104.303 C19.991 104.325 21.309 104.348 22.666 104.371 C25.919 104.43 29.172 104.52 32.424 104.615 C32.424 99.335 32.424 94.055 32.424 88.615 C31.269 88.574 30.114 88.533 28.924 88.49 C14.506 86.83 0.716 79.468 -8.455 68.256 C-9.69 66.449 -10.643 64.592 -11.576 62.615 C-12.482 62.711 -13.389 62.806 -14.322 62.904 C-26.372 64.001 -34.77 63.157 -44.576 55.615 C-49.872 50.232 -52.19 44.783 -52.889 37.24 C-52.296 30.369 -50.361 24.333 -45.553 19.252 C-37.595 12.663 -28.79 10.289 -18.576 10.615 C-16.201 11.111 -16.201 11.111 -14.576 11.615 C-14.679 10.728 -14.782 9.841 -14.889 8.928 C-14.576 5.615 -14.576 5.615 -12.655 2.947 C-8.392 -0.282 -5.213 -0.077 0 0 Z M-35.014 30.428 C-37.036 33.259 -37.505 35.139 -37.576 38.615 C-35.725 43.188 -32.903 45.372 -28.576 47.615 C-22.983 48.976 -20.055 48.807 -14.576 46.615 C-14.576 40.345 -14.576 34.075 -14.576 27.615 C-22.333 24.512 -28.287 25.426 -35.014 30.428 Z M95.424 27.615 C95.424 33.885 95.424 40.155 95.424 46.615 C100.91 48.81 103.824 48.968 109.424 47.615 C113.19 45.732 115.024 44.19 117.424 40.74 C118.424 37.615 118.424 37.615 117.924 34.49 C115.636 30.105 112.942 28.248 108.424 26.365 C103.012 25.012 100.744 25.487 95.424 27.615 Z M-156.576 176.615 C-157.896 177.935 -159.216 179.255 -160.576 180.615 C-158.596 179.955 -156.616 179.295 -154.576 178.615 C-155.236 177.955 -155.896 177.295 -156.576 176.615 Z " fill="#010000" transform="translate(346.576171875,28.384765625)"/>
<path d="M0 0 C119.79 0 239.58 0 363 0 C361.507 3.733 360.04 6.856 358.051 10.297 C357.458 11.324 356.865 12.352 356.255 13.411 C355.614 14.513 354.973 15.615 354.312 16.75 C353.635 17.919 352.958 19.088 352.28 20.257 C347.247 28.928 342.118 37.54 336.94 46.126 C333.225 52.286 329.534 58.459 325.867 64.648 C325.649 65.016 325.649 65.016 324.547 66.876 C322.809 69.81 321.072 72.744 319.337 75.679 C318.135 77.714 316.931 79.748 315.727 81.781 C315.364 82.397 315.001 83.012 314.627 83.646 C312.113 87.887 312.113 87.887 311 89 C309.465 89.093 307.926 89.117 306.388 89.114 C305.407 89.113 304.427 89.113 303.416 89.113 C302.349 89.108 301.283 89.103 300.184 89.098 C299.64 89.097 299.64 89.097 296.892 89.093 C293.407 89.088 289.922 89.075 286.438 89.062 C284.081 89.057 281.725 89.053 279.369 89.049 C273.579 89.038 267.79 89.021 262 89 C261.996 88.443 261.993 87.886 261.989 87.312 C261.947 81.52 261.878 75.73 261.792 69.939 C261.764 67.777 261.743 65.615 261.729 63.452 C261.708 60.347 261.661 57.242 261.609 54.137 C261.609 53.652 261.609 53.652 261.606 51.201 C261.586 50.3 261.566 49.399 261.546 48.471 C261.537 47.679 261.528 46.886 261.519 46.069 C261 44 261 44 259.354 42.394 C256.329 40.603 254.321 40.623 250.813 40.619 C249.543 40.611 248.273 40.602 246.964 40.593 C245.559 40.599 244.153 40.605 242.748 40.612 C241.266 40.608 239.785 40.602 238.303 40.596 C234.28 40.582 230.258 40.588 226.235 40.597 C222.026 40.605 217.817 40.598 213.608 40.593 C206.54 40.587 199.472 40.595 192.404 40.609 C184.231 40.625 176.058 40.62 167.885 40.603 C160.869 40.59 153.853 40.588 146.838 40.596 C142.647 40.6 138.456 40.601 134.265 40.591 C130.325 40.582 126.386 40.588 122.446 40.606 C120.999 40.61 119.553 40.609 118.107 40.602 C116.133 40.594 114.16 40.606 112.187 40.619 C111.082 40.62 109.977 40.621 108.839 40.622 C105.659 41.045 104.278 41.777 102 44 C101.481 46.069 101.481 46.069 101.454 48.471 C101.434 49.372 101.415 50.273 101.394 51.201 C101.393 52.17 101.392 53.139 101.391 54.137 C101.374 55.131 101.358 56.126 101.341 57.151 C101.292 60.33 101.271 63.508 101.25 66.688 C101.222 68.842 101.192 70.996 101.16 73.15 C101.086 78.434 101.035 83.716 101 89 C60.122 93.569 60.122 93.569 49.909 87.824 C43.161 82.327 39.985 73.864 37.194 65.855 C34.786 58.958 31.086 53.075 27.201 46.924 C25.142 43.627 23.182 40.272 21.211 36.922 C20.407 35.562 19.602 34.203 18.797 32.844 C17.581 30.789 16.365 28.734 15.151 26.678 C13.944 24.633 12.734 22.59 11.523 20.547 C11.138 19.897 10.753 19.247 10.357 18.577 C7.425 13.654 4.36 8.829 1.202 4.048 C0 2 0 2 0 0 Z " fill="#5A312D" transform="translate(58,325)"/>
<path d="M0 0 C7.83 4.085 12.096 9.053 15.125 17.312 C15.826 22.566 15.196 25.977 12.125 30.312 C9.011 32.983 5.585 35.119 2.125 37.312 C1.459 37.738 0.792 38.164 0.106 38.602 C-4.704 41.673 -9.533 44.711 -14.368 47.741 C-18.313 50.214 -22.251 52.701 -26.188 55.188 C-26.963 55.677 -27.738 56.166 -28.537 56.671 C-35.588 61.125 -42.624 65.602 -49.656 70.086 C-54.143 72.944 -58.634 75.794 -63.141 78.621 C-84.732 92.169 -84.732 92.169 -87.875 95.312 C-87.968 96.939 -87.992 98.57 -87.989 100.199 C-87.988 100.727 -87.988 100.727 -87.988 103.398 C-87.983 104.516 -87.978 105.634 -87.973 106.785 C-87.972 107.806 -87.971 108.828 -87.97 109.88 C-87.964 113.712 -87.95 117.543 -87.938 121.375 C-87.927 125.655 -87.927 125.655 -87.875 147.312 C-119.225 147.312 -150.575 147.312 -182.875 147.312 C-183.04 143.188 -183.04 143.188 -183.875 122.312 C-184.205 121.322 -184.535 120.332 -184.875 119.312 C-185.504 119.282 -185.504 119.282 -188.688 119.125 C-189.395 119.09 -190.103 119.055 -190.832 119.02 C-193.544 119.408 -194.221 120.143 -195.875 122.312 C-196.307 124.948 -196.307 124.948 -196.387 128.074 C-196.403 128.578 -196.403 128.578 -196.487 131.128 C-196.512 132.406 -196.537 133.683 -196.562 135 C-196.666 139.063 -196.769 143.126 -196.875 147.312 C-208.755 147.312 -220.635 147.312 -232.875 147.312 C-232.944 141.426 -233.004 135.541 -233.04 129.655 C-233.055 127.658 -233.075 125.661 -233.101 123.665 C-233.367 102.871 -231.27 86.224 -216.18 70.523 C-208.709 63.357 -199.405 56.132 -188.789 54.977 C-185.455 55.361 -183.716 56.274 -180.938 58.125 C-168.07 66.3 -154.545 68.417 -139.622 65.133 C-126.642 61.933 -116.267 56.149 -107.013 46.338 C-104.834 44.274 -102.896 43.067 -100.227 41.719 C-99.316 41.253 -98.405 40.786 -97.467 40.306 C-96.488 39.813 -95.509 39.32 -94.5 38.812 C-92.396 37.735 -90.293 36.655 -88.191 35.574 C-87.128 35.028 -86.065 34.482 -84.969 33.919 C-80.42 31.557 -75.927 29.097 -71.438 26.625 C-62 21.443 -52.508 16.364 -43 11.312 C-42.306 10.943 -41.611 10.574 -40.896 10.193 C-12.118 -5.111 -12.118 -5.111 0 0 Z " fill="#B8519E" transform="translate(391.875,163.6875)"/>
<path d="M0 0 C44.22 0 88.44 0 134 0 C134 33.33 134 66.66 134 101 C89.78 101 45.56 101 0 101 C0 67.67 0 34.34 0 0 Z " fill="#59312D" transform="translate(173,379)"/>
<path d="M0 0 C119.79 0 239.58 0 363 0 C361.488 3.78 360.026 6.822 357.938 10.25 C357.674 10.686 357.674 10.686 356.34 12.891 C355 15 355 15 354 16 C352.342 16.097 350.68 16.124 349.02 16.123 C348.477 16.124 348.477 16.124 345.731 16.129 C344.524 16.126 343.317 16.123 342.073 16.12 C341.438 16.121 341.438 16.121 338.222 16.123 C334.678 16.125 331.135 16.121 327.591 16.116 C323.776 16.112 319.96 16.113 316.145 16.114 C309.53 16.114 302.914 16.111 296.298 16.106 C286.733 16.098 277.168 16.095 267.603 16.094 C252.086 16.092 236.568 16.085 221.051 16.075 C205.974 16.066 190.896 16.059 175.819 16.055 C175.354 16.055 175.354 16.055 173.004 16.054 C168.346 16.053 163.687 16.052 159.028 16.05 C120.352 16.04 81.676 16.022 43 16 C45.006 19.348 47.013 22.695 49.021 26.043 C50.03 27.725 51.039 29.408 52.047 31.092 C56.361 38.284 60.7 45.462 65.062 52.625 C65.658 53.603 66.253 54.581 66.867 55.589 C69.895 60.56 72.936 65.524 75.988 70.48 C76.313 71.01 76.313 71.01 77.959 73.691 C79.214 75.735 80.472 77.777 81.735 79.817 C82.294 80.729 82.853 81.642 83.43 82.582 C83.927 83.389 84.425 84.195 84.937 85.027 C86 87 86 87 86 89 C58.312 93.469 58.312 93.469 50.339 87.824 C44.226 81.895 40.835 73.583 37.579 65.855 C34.745 59.142 31.027 53.098 27.186 46.924 C25.148 43.618 23.183 40.268 21.211 36.922 C20.406 35.562 19.602 34.203 18.797 32.844 C17.581 30.789 16.365 28.734 15.151 26.678 C13.944 24.633 12.734 22.59 11.523 20.547 C11.138 19.897 10.753 19.247 10.357 18.577 C7.425 13.654 4.36 8.829 1.202 4.048 C0 2 0 2 0 0 Z " fill="#784E42" transform="translate(58,325)"/>
<path d="M0 0 C40.92 0 81.84 0 124 0 C121.397 2.603 118.406 3.614 115.062 5 C70.906 23.949 31.415 55.057 6 96 C5.34 96.99 4.68 97.98 4 99 C2.68 99 1.36 99 0 99 C0 66.33 0 33.66 0 0 Z " fill="#794F43" transform="translate(173,380)"/>
<path d="M0 0 C26.4 0 52.8 0 80 0 C80 39.9 80 39.9 74.352 47.102 C63.72 56.483 49.48 60.66 35.438 59.875 C23.18 58.325 10.957 53.478 3.156 43.613 C-5.335 31.766 0 14.576 0 0 Z " fill="#FDD800" transform="translate(347,44)"/>
<path d="M0 0 C2.636 1.249 4.765 2.884 7.07 4.672 C21.553 15.409 35.369 17.394 52.945 17.922 C51.903 31.89 45.953 43.827 35.445 53.137 C24.075 62.012 12.204 65.664 -2.055 63.922 C-14.604 60.822 -24.519 53.322 -32.055 42.922 C-38.926 31.249 -41.468 21.492 -41.055 7.922 C-39.929 7.896 -38.804 7.87 -37.645 7.844 C-26.372 7.471 -15.024 6.647 -4.883 1.227 C-2.055 -0.078 -2.055 -0.078 0 0 Z " fill="#F8DBB9" transform="translate(234.0546875,153.078125)"/>
<path d="M0 0 C0.33 0.165 0.33 0.165 2 1 C1.613 1.594 1.227 2.189 0.828 2.801 C-5.269 12.505 -8.672 21.514 -9 33 C-9.026 33.713 -9.052 34.426 -9.078 35.16 C-9.367 43.938 -9.634 52.259 -6.754 60.676 C-5.863 63.422 -5.424 66.148 -5 69 C-23.256 82.909 -41.961 95.173 -65.688 95.125 C-66.329 95.126 -66.329 95.126 -69.574 95.133 C-72.282 95.028 -74.442 94.816 -77 94 C-77 93.34 -77 92.68 -77 92 C-75.886 91.526 -74.772 91.051 -73.625 90.562 C-53.353 80.355 -43.533 56.914 -34.805 37.337 C-27.491 20.962 -16.936 7.218 0 0 Z " fill="#F3E838" transform="translate(189,123)"/>
<path d="M0 0 C8.326 7.841 15.099 18.265 15.469 29.898 C15.428 30.909 15.386 31.92 15.344 32.961 C9.737 35.765 0.197 34.58 -5.809 33.277 C-15.175 30.039 -24.483 24.892 -30.656 16.961 C-30.656 16.301 -30.656 15.641 -30.656 14.961 C-37.224 13.258 -37.224 13.258 -40.957 15.09 C-42.607 16.167 -44.257 17.246 -45.906 18.324 C-55.65 24.124 -65.675 24.508 -76.656 23.961 C-75.633 15.135 -70.398 6.605 -63.855 0.621 C-44.135 -14.266 -19.973 -15.332 0 0 Z " fill="#F5EA39" transform="translate(271.65625,123.0390625)"/>
<path d="M0 0 C8.573 3.258 13.227 7.118 17.086 15.508 C18.759 20.068 18.462 23.415 17.125 28 C13.885 32.574 9.699 35.021 5 38 C4.334 38.426 3.667 38.851 2.981 39.29 C-1.829 42.36 -6.658 45.399 -11.493 48.428 C-15.438 50.902 -19.376 53.388 -23.312 55.875 C-24.088 56.364 -24.863 56.854 -25.662 57.358 C-32.713 61.812 -39.749 66.29 -46.781 70.773 C-51.268 73.632 -55.759 76.482 -60.266 79.309 C-81.857 92.857 -81.857 92.857 -85 96 C-85.093 97.627 -85.117 99.258 -85.114 100.887 C-85.113 101.407 -85.113 101.407 -85.113 104.042 C-85.108 105.174 -85.103 106.306 -85.098 107.473 C-85.097 108.049 -85.097 108.049 -85.093 110.966 C-85.088 114.665 -85.075 118.364 -85.062 122.062 C-85.057 124.563 -85.053 127.064 -85.049 129.564 C-85.038 135.71 -85.02 141.855 -85 148 C-91.27 148 -97.54 148 -104 148 C-104.072 145.827 -104.144 143.653 -104.219 141.414 C-104.244 140.673 -104.269 139.933 -104.295 139.17 C-104.419 135.458 -104.522 131.748 -104.592 128.036 C-104.855 115.093 -104.855 115.093 -105.875 109.328 C-107.185 101.039 -107.185 101.039 -105 97 C-99.321 91.233 -92.057 87.452 -85 83.633 C-80.945 81.426 -77.043 79.002 -73.125 76.562 C-71.679 75.687 -70.232 74.812 -68.785 73.938 C-61.895 69.739 -55.125 65.352 -48.338 60.99 C-42.604 57.307 -36.862 53.639 -31.092 50.012 C-28.058 48.104 -25.031 46.184 -22.004 44.264 C-20.135 43.085 -18.256 41.924 -16.375 40.766 C-8.098 35.532 -2.296 30.155 0.539 20.566 C1.759 13.775 1.542 6.714 0 0 Z " fill="#A64397" transform="translate(389,163)"/>
<path d="M0 0 C-0.008 0.365 -0.008 0.365 -0.048 2.212 C-0.111 5.579 -0.149 8.945 -0.188 12.312 C-0.213 13.46 -0.238 14.608 -0.264 15.791 C-0.321 22.488 0.286 28.232 2.272 34.634 C3.121 37.392 3.614 40.142 4 43 C-9.836 53.541 -23.174 62.098 -40 67 C-38.694 63.37 -37.108 60.593 -34.785 57.523 C-30.536 51.581 -27.509 45.234 -24.438 38.625 C-23.354 36.325 -22.269 34.026 -21.184 31.727 C-20.656 30.609 -20.128 29.491 -19.585 28.339 C-12.019 12.4 -12.019 12.4 -7.812 7.438 C-7.159 6.652 -6.505 5.867 -5.832 5.059 C-1.33 0 -1.33 0 0 0 Z " fill="#E5E315" transform="translate(180,149)"/>
<path d="M0 0 C8.326 7.841 15.099 18.265 15.469 29.898 C15.428 30.909 15.386 31.92 15.344 32.961 C12.699 34.283 10.666 34.058 7.719 34.023 C6.716 34.014 5.713 34.005 4.68 33.996 C3.909 33.984 3.138 33.973 2.344 33.961 C2.076 33.211 1.808 32.46 1.531 31.688 C-1.425 23.965 -5.039 18.024 -10.656 11.961 C-10.917 11.679 -10.917 11.679 -12.234 10.254 C-21.586 1.304 -34.924 -3.143 -47.594 -3.664 C-48.373 -3.703 -49.152 -3.741 -49.955 -3.781 C-51.855 -3.875 -53.756 -3.958 -55.656 -4.039 C-39.628 -17.021 -15.118 -11.605 0 0 Z " fill="#E4E215" transform="translate(271.65625,123.0390625)"/>
<path d="M0 0 C5.61 0 11.22 0 17 0 C16.567 12.553 10.84 24.175 2 33 C-8.902 42.658 -20.035 46.613 -34.371 46.371 C-37.867 46.014 -40.731 45.258 -44 44 C-40.765 42.266 -37.469 41.123 -34 39.938 C-20.703 34.795 -11.113 25.881 -5.038 12.952 C-3.176 8.683 -1.599 4.387 0 0 Z " fill="#F6CD9F" transform="translate(270,171)"/>
<path d="M0 0 C2.64 0 5.28 0 8 0 C8.005 0.368 8.005 0.368 8.028 2.228 C8.083 5.611 8.166 8.993 8.25 12.375 C8.264 13.531 8.278 14.688 8.293 15.879 C8.547 24.876 9.991 33.679 16.332 40.566 C27.417 50.093 40.122 53.799 54 57 C54 57.33 54 57.66 54 58 C37.894 61.098 24.283 59.572 10.195 50.648 C5.888 47.414 2.962 43.443 0 39 C-0.172 36.026 -0.232 33.148 -0.195 30.176 C-0.192 29.314 -0.19 28.453 -0.187 27.565 C-0.176 24.814 -0.15 22.064 -0.125 19.312 C-0.115 17.447 -0.106 15.582 -0.098 13.717 C-0.076 9.144 -0.041 4.572 0 0 Z " fill="#F5BC13" transform="translate(347,44)"/>
</svg>
