<?xml version="1.0" encoding="UTF-8"?>
<svg version="1.1" xmlns="http://www.w3.org/2000/svg" width="512" height="512">
<path d="M0 0 C0.7640918 0.14381104 1.52818359 0.28762207 2.31542969 0.43579102 C4.65768948 0.89876769 6.98403387 1.40981897 9.3125 1.9375 C10.09689453 2.10701172 10.88128906 2.27652344 11.68945312 2.45117188 C19.43412759 4.18171511 19.43412759 4.18171511 22 6 C23.96077863 9.15291079 24.24962019 11.61025326 24.2734375 15.2890625 C24.2940625 16.31386719 24.3146875 17.33867187 24.3359375 18.39453125 C24.36169482 20.52466186 24.38009219 22.65489596 24.390625 24.78515625 C24.53408048 31.16892531 25.46486252 36.03309013 28.07373047 41.86474609 C31.62964629 50.06190998 30.08397859 59.47913736 27.03125 67.56640625 C23.32315486 75.77181948 17.80828673 81.56717055 10 86 C11.07636719 86.15855469 12.15273437 86.31710938 13.26171875 86.48046875 C32.39053707 89.46178331 48.1266071 95.9275305 60 112 C60.34135986 113.01731201 60.68271973 114.03462402 61.03442383 115.08276367 C62.46866724 119.14955502 63.69856159 121.16996762 67 124 C74.18228839 126.1318739 81.88656833 125.7639242 89.30541992 125.61938477 C92.92857019 125.56263986 96.53214421 125.63910104 100.15429688 125.72851562 C110.95687084 126.21394317 110.95687084 126.21394317 120.83508301 122.7298584 C124.00060632 119.28928489 125.34929435 115.3378563 127 111 C139.50233167 94.26392106 156.15431541 88.92337629 176 86 C175.50371094 85.6596875 175.00742187 85.319375 174.49609375 84.96875 C165.09065833 78.25823061 158.93697025 71.01545712 156.46875 59.52734375 C155.49286137 52.52977869 155.8054689 44.61125371 159.54296875 38.4609375 C161.75454133 33.20771147 161.49452909 28.01982213 161.5625 22.375 C161.5969778 20.13266586 161.63960647 17.89043837 161.69140625 15.6484375 C161.70373291 14.66020996 161.71605957 13.67198242 161.72875977 12.65380859 C162.01099136 9.89246073 162.42544699 8.27765529 164 6 C167.04401614 4.71830899 169.81926898 3.83725049 173 3 C173.64050293 2.82404297 174.28100586 2.64808594 174.94091797 2.46679688 C177.12226385 1.8733018 179.30935915 1.30814949 181.5 0.75 C182.19939697 0.56244141 182.89879395 0.37488281 183.61938477 0.18164062 C192.6033099 -1.99982649 201.03583572 0.25876762 209.875 2.3125 C210.81085938 2.51294922 211.74671875 2.71339844 212.7109375 2.91992188 C213.608125 3.12810547 214.5053125 3.33628906 215.4296875 3.55078125 C216.23647949 3.73294189 217.04327148 3.91510254 217.87451172 4.1027832 C220.63335517 5.26735358 221.56273778 6.38264598 223 9 C223.36889648 11.59033203 223.36889648 11.59033203 223.37109375 14.5078125 C223.38849609 15.57773437 223.40589844 16.64765625 223.42382812 17.75 C223.43284772 19.97655032 223.43813719 22.2031193 223.43945312 24.4296875 C223.55146844 30.88794992 224.28590541 35.90559028 227.04711914 41.77685547 C230.34078956 49.46124256 229.53793259 58.21346336 227 66 C223.31513906 74.74222068 217.23249525 81.34063637 209 86 C210.07636719 86.15855469 211.15273438 86.31710938 212.26171875 86.48046875 C230.85794506 89.37877639 247.10272216 95.75904721 258.734375 111.3203125 C273.75767511 133.58936355 278.89419213 161.4626853 278 188 C276.89799316 193.03416763 274.65494931 197.34505069 271 201 C266.64759756 203.57690601 263.46679665 204.3767339 258.4296875 204.36328125 C257.20378906 204.36263672 255.97789062 204.36199219 254.71484375 204.36132812 C253.44769531 204.34521484 252.18054688 204.32910156 250.875 204.3125 C249.60011719 204.31572266 248.32523437 204.31894531 247.01171875 204.32226562 C237.15999856 204.26516925 237.15999856 204.26516925 233 202 C230.14581781 202.348071 227.73120659 203.0895978 225 204 C222.5589224 204.0845387 220.14740787 204.11605786 217.70703125 204.09765625 C216.64798836 204.09553383 216.64798836 204.09553383 215.56755066 204.09336853 C213.31582374 204.08777764 211.06419679 204.07522688 208.8125 204.0625 C207.28450665 204.05748382 205.75651173 204.05292112 204.22851562 204.04882812 C200.48563865 204.0378112 196.74283627 204.02055287 193 204 C193.13712402 204.93811523 193.27424805 205.87623047 193.41552734 206.84277344 C193.68550537 208.70724121 193.68550537 208.70724121 193.9609375 210.609375 C194.13931152 211.83624023 194.31768555 213.06310547 194.50146484 214.32714844 C195.67317238 222.95945411 196.12515328 231.60890658 196.3125 240.3125 C196.34230957 241.05338867 196.37211914 241.79427734 196.40283203 242.55761719 C196.47133103 249.06647954 194.51687221 254.08335614 190.25390625 259.0234375 C189.69574219 259.46945312 189.13757813 259.91546875 188.5625 260.375 C188.00691406 260.83648437 187.45132812 261.29796875 186.87890625 261.7734375 C180.67225519 265.8251806 174.37090764 265.33878302 167.18994141 265.31567383 C165.13780285 265.31251968 163.08711635 265.33598009 161.03515625 265.36132812 C154.22428328 265.36468323 149.02025898 265.26169651 143 262 C140.03905851 262.22207061 137.65021474 263.11374717 134.82151794 264.03361511 C130.84358665 265.03955378 127.45295094 265.26025287 123.35571289 265.2746582 C122.26154808 265.2823246 122.26154808 265.2823246 121.14527893 265.29014587 C118.75431926 265.30394955 116.36365082 265.30309223 113.97265625 265.30078125 C112.29788609 265.30467304 110.62311692 265.3090087 108.948349 265.31376648 C105.44575799 265.32120869 101.94326783 265.3209518 98.44067383 265.31567383 C93.96757985 265.30987953 89.49489998 265.32681882 85.02187443 265.3500185 C81.56531896 265.36479865 78.10886228 265.36562177 74.65228081 265.36250877 C73.00377011 265.36301976 71.35525356 265.36821537 69.70677376 265.37832069 C67.39547441 265.39075255 65.08496968 265.3838541 62.77368164 265.37231445 C61.46242813 265.37294388 60.15117462 265.3735733 58.80018616 265.3742218 C54.36248496 264.93722096 51.12984017 263.64489467 47 262 C44.09626956 262.20740932 41.99982721 263.00006544 39.28076172 264.02978516 C33.96847227 265.60078071 28.6758221 265.37193008 23.16943359 265.37060547 C21.13683968 265.37497455 19.10642898 265.41133926 17.07421875 265.44921875 C8.4888717 265.47474505 2.65097068 265.01348242 -4.0234375 259.25390625 C-4.46945313 258.69574219 -4.91546875 258.13757813 -5.375 257.5625 C-5.83648437 257.00691406 -6.29796875 256.45132812 -6.7734375 255.87890625 C-9.92533628 251.05067915 -10.32014127 246.65847659 -10.25 241 C-10.24540771 240.22688477 -10.24081543 239.45376953 -10.23608398 238.65722656 C-10.06203904 227.07113557 -8.96159809 215.41853333 -7 204 C-7.92748047 204.01047363 -8.85496094 204.02094727 -9.81054688 204.03173828 C-13.284531 204.06602673 -16.75833265 204.09099877 -20.23242188 204.10986328 C-21.72984676 204.11985901 -23.22725244 204.13346014 -24.72460938 204.15087891 C-26.88937143 204.17541288 -29.05387323 204.18654744 -31.21875 204.1953125 C-32.51748047 204.20578613 -33.81621094 204.21625977 -35.15429688 204.22705078 C-38.20522707 204.04692349 -40.3670483 203.68885051 -43.23632812 202.86279297 C-47.26672824 201.93885459 -47.70399252 201.99727091 -51 204 C-55.57077604 204.48334378 -60.15632384 204.41644955 -64.75 204.4375 C-66.00039062 204.47037109 -67.25078125 204.50324219 -68.5390625 204.53710938 C-75.84924328 204.57961043 -81.53773868 204.23896414 -87 199 C-95.15865118 188.31723322 -91.99647767 172.52248241 -90.4375 160.04296875 C-87.12256052 137.01857895 -78.76483029 114.73668793 -60.87890625 99.14453125 C-49.37045316 90.57174869 -36.9783 88.00298811 -23 86 C-23.65226562 85.59910156 -24.30453125 85.19820313 -24.9765625 84.78515625 C-34.27459266 78.73732247 -40.13681199 70.96089422 -42.6875 60.0625 C-43.63514026 50.77562547 -42.23524729 42.47049458 -38 34 C-37.88204512 32.16129163 -37.82105245 30.31877271 -37.7890625 28.4765625 C-37.74652344 26.82140625 -37.74652344 26.82140625 -37.703125 25.1328125 C-37.65121917 22.80224087 -37.60689554 20.47148751 -37.5703125 18.140625 C-37.539375 17.03460937 -37.5084375 15.92859375 -37.4765625 14.7890625 C-37.45674316 13.77537598 -37.43692383 12.76168945 -37.41650391 11.71728516 C-36.93011326 8.54405662 -36.30531644 7.22418273 -34 5 C-31.50732422 3.97924805 -31.50732422 3.97924805 -28.5546875 3.26171875 C-27.47703125 2.99939453 -26.399375 2.73707031 -25.2890625 2.46679688 C-24.16242188 2.20962891 -23.03578125 1.95246094 -21.875 1.6875 C-20.7715625 1.41099609 -19.668125 1.13449219 -18.53125 0.84960938 C-11.99186875 -0.69203811 -6.588459 -1.35037803 0 0 Z M-22 18 C-22 21.3 -22 24.6 -22 28 C-11.77 28 -1.54 28 9 28 C9 24.7 9 21.4 9 18 C-2.67559725 14.01096546 -10.32046383 13.63695488 -22 18 Z M177 18 C177 21.3 177 24.6 177 28 C187.23 28 197.46 28 208 28 C208 24.7 208 21.4 208 18 C196.42600544 14.36554937 188.57399456 14.36554937 177 18 Z M-25 43 C-28.0049559 50.01156376 -28.79273532 52.93972139 -27 60 C-24.41649269 66.12782312 -20.59790973 69.57905517 -15 73 C-9.13327468 74.95557511 -2.40494296 75.00552037 3.3125 72.5 C8.49421243 69.45694096 11.8020407 65.16567118 13.91796875 59.57421875 C15.70962662 52.5921823 14.60595351 50.81786052 12 43 C-0.21 43 -12.42 43 -25 43 Z M174 43 C171.35263725 50.05867167 170.26104138 54.76215615 173 62 C175.75404245 67.21204775 179.26817832 71.03551041 184.73046875 73.375 C190.69877409 75.01859527 196.69654312 74.92494856 202.375 72.375 C207.98395905 69.09450452 211.48923917 64.3133326 213.56640625 58.22265625 C214.62377703 52.80244029 214.05398102 47.58097153 211 43 C208.16272675 42.73332461 205.54616955 42.65208766 202.7109375 42.70703125 C201.48330185 42.71339851 201.48330185 42.71339851 200.23086548 42.71989441 C197.61191164 42.73671321 194.99372198 42.77437026 192.375 42.8125 C190.6015736 42.82754274 188.82813516 42.84123186 187.0546875 42.85351562 C182.7028297 42.88662708 178.35154449 42.93843048 174 43 Z M-56 115 C-71.99669246 133.6131287 -78.61688761 161.78343328 -77 186 C-76.34 186.99 -75.68 187.98 -75 189 C-72.90821058 189.44775603 -72.90821058 189.44775603 -70.5 189.36328125 C-69.613125 189.36263672 -68.72625 189.36199219 -67.8125 189.36132812 C-66.884375 189.34521484 -65.95625 189.32910156 -65 189.3125 C-64.071875 189.31572266 -63.14375 189.31894531 -62.1875 189.32226562 C-57.06387344 189.58699837 -57.06387344 189.58699837 -53 187 C-52.66314199 184.91954531 -52.66314199 184.91954531 -52.65625 182.53515625 C-52.62660156 181.65279297 -52.59695312 180.77042969 -52.56640625 179.86132812 C-52.54449219 178.93771484 -52.52257812 178.01410156 -52.5 177.0625 C-52.45659241 175.24065804 -52.40485968 173.41899037 -52.34375 171.59765625 C-52.32505859 170.78820557 -52.30636719 169.97875488 -52.28710938 169.14477539 C-52 167 -52 167 -50 164 C-47.6171875 163.70703125 -47.6171875 163.70703125 -44.875 163.8125 C-43.96492188 163.83957031 -43.05484375 163.86664063 -42.1171875 163.89453125 C-41.41851562 163.92933594 -40.71984375 163.96414062 -40 164 C-39.16514587 166.94945176 -38.83311124 169.67039302 -38.71875 172.73046875 C-38.66267578 174.05788086 -38.66267578 174.05788086 -38.60546875 175.41210938 C-38.53471156 177.2740717 -38.46440461 179.13605118 -38.39453125 180.99804688 C-38.33845703 182.3196582 -38.33845703 182.3196582 -38.28125 183.66796875 C-38.25095703 184.47516357 -38.22066406 185.2823584 -38.18945312 186.11401367 C-38.19982577 188.01113774 -38.19982577 188.01113774 -37 189 C-34.47905924 189.08847743 -31.98569107 189.11527301 -29.46484375 189.09765625 C-28.71159317 189.0962413 -27.95834259 189.09482635 -27.18226624 189.09336853 C-24.7673044 189.08775376 -22.35243399 189.07519883 -19.9375 189.0625 C-18.30403779 189.0574869 -16.67057414 189.05292366 -15.03710938 189.04882812 C-11.02470415 189.03777954 -7.01236759 189.02050506 -3 189 C-2.77449463 188.40687012 -2.54898926 187.81374023 -2.31665039 187.20263672 C6.77971519 163.51862515 17.87047779 142.72458022 42 131.625 C43.0725 131.16351563 44.145 130.70203125 45.25 130.2265625 C48.13124066 129.03359792 48.13124066 129.03359792 51 127 C43.61801673 115.0752578 34.95545154 106.40264716 21 103 C15.53292869 102.06366999 10.26040312 101.83947446 4.734375 101.83203125 C3.8603302 101.82870285 2.9862854 101.82537445 2.08575439 101.82194519 C0.24353559 101.81690446 -1.59869227 101.81453598 -3.44091797 101.81469727 C-6.22769602 101.81251745 -9.0140734 101.7943495 -11.80078125 101.77539062 C-28.06342766 101.72155558 -43.86000707 102.58409814 -56 115 Z M138.6640625 120.75390625 C136.9338223 123.08932435 135.95178207 125.26482829 135 128 C136.18142578 128.38478516 136.18142578 128.38478516 137.38671875 128.77734375 C156.6512149 135.54841518 171.26496532 149.03222553 180.19140625 167.45947266 C182.64130266 172.90218743 184.8458393 178.43508486 187 184 C187.66493545 185.66735811 188.33120779 187.33418512 189 189 C193.82380802 189.0246519 198.64757967 189.04283693 203.47143555 189.05493164 C205.11369464 189.05997174 206.75594923 189.06680378 208.39819336 189.07543945 C210.75375479 189.08751926 213.10925709 189.09323139 215.46484375 189.09765625 C216.20339096 189.10281754 216.94193817 189.10797882 217.7028656 189.11329651 C219.46898088 189.1134925 221.23497146 189.06194719 223 189 C224.56384495 187.43615505 224.19974275 185.8398336 224.28125 183.66796875 C224.31863281 182.78689453 224.35601562 181.90582031 224.39453125 180.99804688 C224.42933594 180.07056641 224.46414063 179.14308594 224.5 178.1875 C224.56913057 176.36834176 224.64191588 174.54931791 224.71875 172.73046875 C224.74904297 171.91989014 224.77933594 171.10931152 224.81054688 170.27416992 C224.99322949 168.08127235 225.40173767 166.11359784 226 164 C227.62418745 163.91909029 229.24951745 163.86085005 230.875 163.8125 C231.77992188 163.77769531 232.68484375 163.74289063 233.6171875 163.70703125 C234.79667969 163.85205078 234.79667969 163.85205078 236 164 C238.09308841 167.13963261 238.26067694 168.00009148 238.34375 171.59765625 C238.37339844 172.48130859 238.40304687 173.36496094 238.43359375 174.27539062 C238.4779576 176.13736758 238.52222805 177.99934676 238.56640625 179.86132812 C238.59605469 180.74369141 238.62570312 181.62605469 238.65625 182.53515625 C238.68428711 183.74764038 238.68428711 183.74764038 238.71289062 184.98461914 C238.82657168 187.2267797 238.82657168 187.2267797 241 189 C244.3135576 189.44804715 247.65959863 189.32409862 251 189.3125 C252.3921875 189.33666992 252.3921875 189.33666992 253.8125 189.36132812 C255.1428125 189.36229492 255.1428125 189.36229492 256.5 189.36328125 C257.3146875 189.36626221 258.129375 189.36924316 258.96875 189.37231445 C259.6390625 189.24945068 260.309375 189.12658691 261 189 C263.6194489 185.07082665 263.10886765 181.95845372 262.8125 177.4375 C262.76061523 176.59413086 262.70873047 175.75076172 262.65527344 174.88183594 C261.20986607 154.14371842 257.17813155 128.66374024 241 114 C229.74489795 104.67377586 218.05643836 101.85129637 203.69921875 101.83203125 C202.82280228 101.82870285 201.9463858 101.82537445 201.04341125 101.82194519 C199.19699627 101.81690491 197.35057225 101.81453596 195.50415039 101.81469727 C192.70638727 101.81251473 189.90902147 101.79433885 187.11132812 101.77539062 C185.307293 101.77245515 183.50325602 101.77047139 181.69921875 101.76953125 C180.87596603 101.76234573 180.05271332 101.75516022 179.20451355 101.74775696 C162.15708086 101.81352314 149.90401571 108.19292268 138.6640625 120.75390625 Z M37 151 C36.27039063 151.5465625 35.54078125 152.093125 34.7890625 152.65625 C14.28288348 169.31260997 8.61525936 198.51932607 5.59765625 223.3046875 C5.31679825 226.20560443 5.13093665 229.08858509 5 232 C4.93554688 233.22203125 4.87109375 234.4440625 4.8046875 235.703125 C4.74667969 237.58257812 4.74667969 237.58257812 4.6875 239.5 C4.65011719 240.6446875 4.61273438 241.789375 4.57421875 242.96875 C5.10526731 246.74942596 6.03760436 247.66164187 9 250 C11.74367774 250.59544814 11.74367774 250.59544814 14.75390625 250.49609375 C15.85541016 250.49673828 16.95691406 250.49738281 18.09179688 250.49804688 C19.23712891 250.47806641 20.38246094 250.45808594 21.5625 250.4375 C22.71169922 250.44458984 23.86089844 250.45167969 25.04492188 250.45898438 C30.69979809 250.69964573 30.69979809 250.69964573 35.82373047 248.81054688 C37.43195782 246.33511847 37.40036703 244.53896425 37.44140625 241.59765625 C37.46783203 240.54255859 37.49425781 239.48746094 37.52148438 238.40039062 C37.54178711 236.74813477 37.54178711 236.74813477 37.5625 235.0625 C37.59699804 232.88656796 37.6396381 230.71074592 37.69140625 228.53515625 C37.70373291 227.569729 37.71605957 226.60430176 37.72875977 225.60961914 C38.01211621 222.88342918 38.43145304 221.24404086 40 219 C44.0440649 218.02642882 47.0367776 217.85642702 51 219 C51.029729 220.20329956 51.029729 220.20329956 51.06005859 221.4309082 C51.15519495 225.05844177 51.2649208 228.68539045 51.375 232.3125 C51.4059375 233.57513672 51.436875 234.83777344 51.46875 236.13867188 C51.52675781 237.95141602 51.52675781 237.95141602 51.5859375 239.80078125 C51.6173584 240.91622314 51.6487793 242.03166504 51.68115234 243.1809082 C51.805249 246.20368786 51.805249 246.20368786 54 249 C57.48177952 250.16059317 60.21199939 250.13415056 63.88647461 250.14526367 C64.93087959 250.15030159 64.93087959 250.15030159 65.99638367 250.15544128 C68.2983885 250.1649414 70.60032053 250.16689387 72.90234375 250.16796875 C74.50273163 250.17118179 76.10311921 250.17454589 77.70350647 250.17805481 C81.05844809 250.18404358 84.41336396 250.18589495 87.76831055 250.18530273 C92.06694447 250.18520108 96.36541335 250.19885769 100.66400814 250.21607494 C103.96941384 250.22719356 107.27477961 250.22922199 110.5802021 250.22869301 C112.16503023 250.22987316 113.74985939 250.23429694 115.33466911 250.24202538 C117.55127403 250.25182333 119.76752016 250.24894823 121.98413086 250.24291992 C123.24527206 250.24434494 124.50641327 250.24576996 125.80577087 250.24723816 C128.83010708 250.01314997 130.51940923 249.69519039 133 248 C134.36839363 245.26321275 134.21634818 242.95735576 134.31640625 239.8984375 C134.35830078 238.68671875 134.40019531 237.475 134.44335938 236.2265625 C134.48267578 234.95554687 134.52199219 233.68453125 134.5625 232.375 C134.62727539 230.456875 134.62727539 230.456875 134.69335938 228.5 C134.79969886 225.33344652 134.90172833 222.16681247 135 219 C136.43534841 218.7773254 137.87345525 218.57238094 139.3125 218.375 C140.11300781 218.25898438 140.91351563 218.14296875 141.73828125 218.0234375 C144 218 144 218 147 220 C148.0170701 223.0512103 148.15309428 225.2407333 148.2109375 228.4375 C148.23929688 229.49710937 148.26765625 230.55671875 148.296875 231.6484375 C148.34895441 233.88264413 148.39322686 236.11704641 148.4296875 238.3515625 C148.47609375 239.94097656 148.47609375 239.94097656 148.5234375 241.5625 C148.54325684 242.53316406 148.56307617 243.50382812 148.58349609 244.50390625 C148.82942632 247.00182954 148.82942632 247.00182954 150.1784668 248.81274414 C154.21184542 251.44165719 159.78773185 250.46618617 164.4375 250.4375 C165.58283203 250.45748047 166.72816406 250.47746094 167.90820312 250.49804688 C169.56045898 250.49708008 169.56045898 250.49708008 171.24609375 250.49609375 C172.25341553 250.49794678 173.2607373 250.4997998 174.29858398 250.50170898 C177.71011416 249.86811707 178.8907964 248.70505516 181 246 C185.40006692 221.22796971 176.56850487 186.22423251 162.5 165.5 C161.35054924 163.98676702 160.18480834 162.48571205 159 161 C158.50371094 160.31808594 158.00742187 159.63617188 157.49609375 158.93359375 C149.06561186 148.13666081 137.05063761 142.88077619 124 140 C119.17601052 139.48722704 114.41064796 139.43709261 109.5625 139.46875 C108.22598999 139.46604243 106.88948193 139.46214965 105.55297852 139.45715332 C102.77633578 139.45131731 100.00021406 139.45962643 97.22363281 139.47851562 C93.70728548 139.50130281 90.19216031 139.48814733 86.67585754 139.46422577 C83.92329091 139.4496053 81.17100265 139.45444682 78.41842651 139.46473694 C76.50558658 139.46861207 74.59273472 139.45670407 72.67993164 139.44421387 C59.1895313 139.58654837 47.82982149 142.88622898 37 151 Z " fill="#000000" transform="translate(163,1)"/>
<path d="M0 0 C6.17300877 4.9876972 9.17413666 11.40181586 11 19 C12.01585849 29.07881548 9.88508775 38.96440357 8 48.8125 C7.84383209 49.64192108 7.68766418 50.47134216 7.52676392 51.32589722 C1.15854362 85.01306974 -7.90633271 118.09583346 -23 149 C-23.35916504 149.7626416 -23.71833008 150.5252832 -24.08837891 151.31103516 C-31.88208291 167.81184988 -43.16835295 177.48682405 -57.58447266 188.19628906 C-61.93879677 191.44772898 -66.24617925 194.760885 -70.5625 198.0625 C-75.6002201 201.91181359 -80.64307716 205.75057641 -85.75 209.5078125 C-86.8471936 210.31786743 -86.8471936 210.31786743 -87.96655273 211.14428711 C-89.31599459 212.13785985 -90.66938909 213.12609782 -92.02758789 214.10766602 C-98.96041471 219.2177778 -102.14162822 224.0511158 -103.6328125 232.6484375 C-103.79523438 233.87820313 -103.95765625 235.10796875 -104.125 236.375 C-104.29257812 237.62023437 -104.46015625 238.86546875 -104.6328125 240.1484375 C-104.81457031 241.55996094 -104.81457031 241.55996094 -105 243 C-104.39526855 242.97905273 -103.79053711 242.95810547 -103.16748047 242.93652344 C-100.40349229 242.85291055 -97.63977087 242.80119946 -94.875 242.75 C-93.92367187 242.71648437 -92.97234375 242.68296875 -91.9921875 242.6484375 C-86.15221087 242.56732671 -82.50379023 242.87503324 -78 247 C-75.50445798 250.53844187 -74.62329483 252.94505673 -74.61181641 257.26171875 C-74.60235992 258.28628174 -74.59290344 259.31084473 -74.5831604 260.36645508 C-74.59226944 262.01037231 -74.59226944 262.01037231 -74.6015625 263.6875 C-74.59725723 265.39039185 -74.59725723 265.39039185 -74.59286499 267.12768555 C-74.59082598 269.52490743 -74.5963444 271.922146 -74.60888672 274.31933594 C-74.62494181 277.98670691 -74.60903159 281.65297577 -74.58984375 285.3203125 C-74.59182621 287.6510441 -74.59566994 289.98177501 -74.6015625 292.3125 C-74.59548981 293.40844482 -74.58941711 294.50438965 -74.5831604 295.63354492 C-74.59734512 297.1703894 -74.59734512 297.1703894 -74.61181641 298.73828125 C-74.61420319 299.63587158 -74.61658997 300.53346191 -74.61904907 301.45825195 C-75.26746944 305.78458665 -77.30241156 308.37217041 -80.5 311.25 C-83.93499011 313.65449308 -86.48544381 314.12553189 -90.57234192 314.14044189 C-91.51018021 314.14615204 -92.44801849 314.15186218 -93.41427612 314.15774536 C-94.44134674 314.15886322 -95.46841736 314.15998108 -96.52661133 314.16113281 C-97.60981155 314.16609772 -98.69301178 314.17106262 -99.80903625 314.17617798 C-103.400041 314.19080833 -106.99100157 314.19760308 -110.58203125 314.203125 C-113.07443748 314.20887572 -115.56684368 314.21463346 -118.05924988 314.22039795 C-122.62026264 314.22956629 -127.18126271 314.23586559 -131.74228364 314.2388947 C-137.78179032 314.24292807 -143.82114153 314.25520358 -149.8605957 314.28125 C-156.34147847 314.30877052 -162.82222775 314.32164204 -169.30316734 314.32357025 C-171.77391355 314.32659838 -174.24465887 314.33463226 -176.71537209 314.34775543 C-180.17214038 314.36480533 -183.62841182 314.36293796 -187.08520508 314.35644531 C-188.106203 314.3656601 -189.12720093 314.37487488 -190.17913818 314.3843689 C-195.54010645 314.35281852 -199.3904414 314.05881388 -204 311 C-207.84716783 306.84089965 -209.11683352 303.7669894 -209.16113281 298.16479492 C-209.17074036 297.18335007 -209.1803479 296.20190521 -209.19024658 295.1907196 C-209.19449646 294.13133682 -209.19874634 293.07195404 -209.203125 291.98046875 C-209.20882507 290.88914139 -209.21452515 289.79781403 -209.22039795 288.67341614 C-209.22984864 286.36260956 -209.2363822 284.05178949 -209.24023438 281.7409668 C-209.24993312 278.21183652 -209.28095372 274.68329028 -209.3125 271.15429688 C-209.31903085 268.90885762 -209.324281 266.66341421 -209.328125 264.41796875 C-209.3404718 263.36465866 -209.3528186 262.31134857 -209.36553955 261.22612 C-209.34909316 255.7958589 -209.32105669 251.54218772 -206 247 C-201.35258073 242.93861894 -197.53340114 242.36752697 -191.625 242.25 C-190.88894531 242.22035156 -190.15289062 242.19070313 -189.39453125 242.16015625 C-187.5969257 242.09011967 -185.7984621 242.04271881 -184 242 C-183.95512451 240.88367188 -183.91024902 239.76734375 -183.86401367 238.6171875 C-180.15834637 148.1752859 -180.15834637 148.1752859 -158.0625 123.375 C-143.18345 109.71933855 -122.03198548 100.72618483 -104 92 C-103.36465332 91.68933594 -102.72930664 91.37867188 -102.07470703 91.05859375 C-75.54097558 78.11993154 -75.54097558 78.11993154 -63 79 C-59.5625 80.5 -59.5625 80.5 -57 82 C-56.8450708 81.47245117 -56.6901416 80.94490234 -56.53051758 80.40136719 C-54.91686642 74.96199223 -53.23254352 69.546942 -51.51171875 64.140625 C-50.56982483 61.17723808 -49.62835387 58.2137173 -48.6875 55.25 C-48.44255798 54.4784256 -48.19761597 53.7068512 -47.94525146 52.91189575 C-44.69542805 42.6513442 -41.55721166 32.38884844 -39.0144043 21.92480469 C-36.69913833 12.79932369 -33.23710842 4.16737857 -25 -1 C-16.35741906 -5.48323232 -8.40640837 -4.77083948 0 0 Z M-17.4375 13.8125 C-24.05638713 20.92712877 -25.52750017 33.13516133 -28.06170654 42.30523682 C-31.35637864 54.18925692 -34.82471004 65.97325848 -38.875 77.625 C-39.23166748 78.65310791 -39.58833496 79.68121582 -39.95581055 80.74047852 C-41.52719852 85.17331033 -43.18640253 89.4690661 -45.203125 93.71875 C-47.10428238 97.88491819 -47.57170524 101.30719708 -47.875 105.875 C-48.87431469 116.25109596 -52.67209934 123.47465864 -60.65380859 130.24438477 C-64.81382633 133.35725548 -69.36178635 135.62477019 -74 137.9375 C-75.00877197 138.45183594 -76.01754395 138.96617187 -77.05688477 139.49609375 C-80.03207351 141.00934242 -83.01479395 142.5066301 -86 144 C-87.59263395 144.80301657 -89.18509935 145.60636756 -90.77734375 146.41015625 C-94.51061132 148.28905938 -98.25426132 150.14609109 -102 152 C-102.68682861 152.3604541 -103.37365723 152.7209082 -104.08129883 153.09228516 C-104.78150146 153.45628418 -105.4817041 153.8202832 -106.203125 154.1953125 C-106.83766602 154.53062988 -107.47220703 154.86594727 -108.12597656 155.21142578 C-111.15735626 156.48700635 -113.78266276 156.37851026 -117 156 C-120 154 -120 154 -120.609375 152.046875 C-120.76611446 149.48679712 -120.62181403 147.49358565 -120 145 C-112.90475289 137.64129146 -100.28850884 133.7265879 -91.13818359 129.46166992 C-74.62024695 122.45244075 -74.62024695 122.45244075 -63.58984375 109.12109375 C-62.54354976 105.35859284 -62.25283365 101.84479349 -63 98 C-64.32735067 95.5878061 -64.32735067 95.5878061 -67 95 C-73.22421232 96.23116288 -78.82328987 98.40884568 -84.625 100.9375 C-85.53451416 101.33227539 -86.44402832 101.72705078 -87.38110352 102.13378906 C-101.94200131 108.53654183 -116.05865119 115.69635891 -129.8125 123.6875 C-130.70122803 124.19764648 -131.58995605 124.70779297 -132.50561523 125.23339844 C-148.33705446 134.62454878 -155.29057688 146.84321788 -159.875 164.19921875 C-166.19428793 190.0592703 -167.21336869 216.51674603 -168 243 C-152.49 243 -136.98 243 -121 243 C-119.515 233.1 -119.515 233.1 -118 223 C-114.68717289 212.11499664 -108.2889182 205.51921134 -99.25 198.875 C-98.52192139 198.32859863 -97.79384277 197.78219727 -97.04370117 197.21923828 C-94.70382599 195.46837216 -92.35379443 193.73210082 -90 192 C-89.20352051 191.41347656 -88.40704102 190.82695312 -87.58642578 190.22265625 C-84.35815931 187.84742135 -81.12852979 185.47404886 -77.89770508 183.10229492 C-34.73736925 151.34782676 -21.1284097 109.15734729 -10.1875 57.75 C-10.04011383 57.05798492 -9.89272766 56.36596985 -9.74087524 55.65298462 C-4.63489396 36.63869054 -4.63489396 36.63869054 -6.25 17.6875 C-7.98008864 15.03057816 -9.25025808 13.54672983 -12 12 C-15.10502312 11.70164862 -15.10502312 11.70164862 -17.4375 13.8125 Z M-193 259 C-193 271.87 -193 284.74 -193 298 C-159.34 298 -125.68 298 -91 298 C-91 285.13 -91 272.26 -91 259 C-124.66 259 -158.32 259 -193 259 Z " fill="#000000" transform="translate(501,198)"/>
<path d="M0 0 C8.64380732 7.27996566 11.16720383 18.41864548 14.00567627 28.85287476 C17.52221094 41.75405521 21.34211954 54.51995129 25.625 67.1875 C25.84681946 67.84373352 26.06863892 68.49996704 26.29718018 69.17608643 C27.52077352 72.78775787 28.75516992 76.39559652 30 80 C33.05270463 80.15811388 33.05270463 80.15811388 36 79 C64.41949859 77.35050069 109.57687567 105.28528329 130.41796875 123.0625 C158.44595786 151.68682931 156.28478553 206.13286754 157 243 C158.08539063 242.95359375 159.17078125 242.9071875 160.2890625 242.859375 C161.73434731 242.82183513 163.17966211 242.78543736 164.625 242.75 C165.33785156 242.71648437 166.05070313 242.68296875 166.78515625 242.6484375 C171.98152712 242.55309125 174.97122401 243.43199311 179 247 C182.72590248 252.53898292 182.43586519 257.8786607 182.3984375 264.3125 C182.40274277 265.94312378 182.40274277 265.94312378 182.40713501 267.60668945 C182.4091718 269.89958214 182.40366896 272.19249235 182.39111328 274.48535156 C182.37505489 277.98802675 182.39097583 281.48954805 182.41015625 284.9921875 C182.40817375 287.22396087 182.40432994 289.45573353 182.3984375 291.6875 C182.40451019 292.73139893 182.41058289 293.77529785 182.4168396 294.85083008 C182.36426056 300.30650702 182.13221932 304.31995246 179 309 C174.93954763 312.75591844 171.91066846 314.12043853 166.42765808 314.14044189 C165.48981979 314.14615204 164.55198151 314.15186218 163.58572388 314.15774536 C162.55865326 314.15886322 161.53158264 314.15998108 160.47338867 314.16113281 C159.39018845 314.16609772 158.30698822 314.17106262 157.19096375 314.17617798 C153.599959 314.19080833 150.00899843 314.19760308 146.41796875 314.203125 C143.92556252 314.20887572 141.43315632 314.21463346 138.94075012 314.22039795 C134.37973736 314.22956629 129.81873729 314.23586559 125.25771636 314.2388947 C119.21820968 314.24292807 113.17885847 314.25520358 107.1394043 314.28125 C100.65852153 314.30877052 94.17777225 314.32164204 87.69683266 314.32357025 C85.22608645 314.32659838 82.75534113 314.33463226 80.28462791 314.34775543 C76.82785962 314.36480533 73.37158818 314.36293796 69.91479492 314.35644531 C68.893797 314.3656601 67.87279907 314.37487488 66.82086182 314.3843689 C60.20834084 314.34545288 55.83272608 313.44992525 50.6875 309 C47.98353244 305.7952977 47.86720589 303.01845133 47.82299805 298.98120117 C47.80374519 297.44897163 47.80374519 297.44897163 47.78410339 295.88578796 C47.77671646 294.78265762 47.76932953 293.67952728 47.76171875 292.54296875 C47.753647 291.4072493 47.74557526 290.27152985 47.73725891 289.10139465 C47.72342207 286.69643682 47.71269813 284.29145939 47.70483398 281.88647461 C47.68761645 278.21234887 47.64372461 274.53912178 47.59960938 270.86523438 C47.58948277 268.52865245 47.58096657 266.19206288 47.57421875 263.85546875 C47.55671066 262.7584111 47.53920258 261.66135345 47.52116394 260.53105164 C47.53868505 254.35677483 47.8495704 250.68814488 52 246 C56.58314187 241.88294035 62.00231135 242.6603191 67.8125 242.8125 C68.79154297 242.82603516 69.77058594 242.83957031 70.77929688 242.85351562 C73.18676625 242.88874688 75.59309564 242.93800735 78 243 C76.65840626 229.4428422 74.75604565 221.82033058 64 213 C61.06326553 210.73167161 58.07008224 208.54817016 55.0625 206.375 C46.61333817 200.20796415 38.26200826 193.92886339 29.98583984 187.53173828 C28.04387955 186.03384562 26.09466822 184.54581689 24.14453125 183.05859375 C22.92930759 182.12288902 21.71444521 181.18671485 20.5 180.25 C18.93765625 179.05117188 18.93765625 179.05117188 17.34375 177.828125 C9.42429244 171.31210018 3.62131937 164.70907178 -0.9375 155.5 C-1.44055664 154.50661621 -1.94361328 153.51323242 -2.46191406 152.48974609 C-18.82487434 119.52152587 -48.76834941 51.13837916 -36.4375 13.25 C-33.39590129 5.90565189 -29.38053626 0.71917007 -22 -2.5 C-13.88380917 -5.23799209 -7.41161592 -4.15295503 0 0 Z M-20 16 C-24.39352857 23.53176326 -21.41478986 33.58890253 -19.9375 41.625 C-19.71199463 42.85283203 -19.48648926 44.08066406 -19.25415039 45.34570312 C-9.92075404 95.04816634 1.94726747 146.60566669 44 178 C45.36633127 179.0267507 46.73223156 180.05407523 48.09765625 181.08203125 C53.45246409 185.10896752 58.81236324 189.12811735 64.20703125 193.1015625 C87.02107371 209.9426476 87.02107371 209.9426476 91 222 C91.99 228.93 92.98 235.86 94 243 C109.51 243 125.02 243 141 243 C141.82907614 186.23950143 141.82907614 186.23950143 120.09838867 135.99072266 C114.47159914 130.97169126 108.61057258 127.03144777 102.0625 123.3125 C101.0305249 122.71945068 99.9985498 122.12640137 98.93530273 121.51538086 C84.14821496 113.12198841 68.9520598 105.29617629 53.25 98.75 C52.58943604 98.47422119 51.92887207 98.19844238 51.24829102 97.91430664 C44.54504676 95.15420319 44.54504676 95.15420319 37.625 95.875 C35.38714551 98.8014251 35.4353965 100.97961023 35.62890625 104.59765625 C36.73506861 111.75860207 40.35429594 115.77750311 45.99243164 120.04199219 C52.44506308 124.24282863 59.5338804 127.31562867 66.5 130.5625 C89.4383668 141.30611587 89.4383668 141.30611587 93 145 C93.79572121 148.19098461 93.98634262 150.83864545 93 154 C89.24529219 156.50313854 87.45716662 156.3827096 83 156 C79.80078125 154.7421875 79.80078125 154.7421875 76.3125 152.875 C74.92280562 152.14276232 73.53209195 151.41245739 72.140625 150.68359375 C71.34978516 150.26577637 70.55894531 149.84795898 69.74414062 149.41748047 C66.53589622 147.7602681 63.29429055 146.17607854 60.046875 144.59765625 C58.17499239 143.68241729 56.30355349 142.76627662 54.43222046 141.84991455 C53.20081849 141.24899634 51.96795768 140.65105701 50.73355103 140.05633545 C37.94296389 133.88186889 27.99139443 127.57255798 22.1875 114.1875 C21.07215662 110.97305532 20.89806768 108.13943105 20.8125 104.75 C20.44323252 98.92860684 18.74042753 94.30716841 16.5 89 C10.08533545 73.76681368 5.10388474 58.00341076 0.828125 42.04296875 C0.65192627 41.38804947 0.47572754 40.73313019 0.29418945 40.05836487 C-0.5501568 36.90799334 -1.37518042 33.7543398 -2.17382812 30.59204102 C-3.85964565 24.15780714 -5.59266742 18.1389141 -10 13 C-14.51274299 10.7436285 -16.68500547 12.59541103 -20 16 Z M64 259 C64 271.87 64 284.74 64 298 C97.66 298 131.32 298 166 298 C166 285.13 166 272.26 166 259 C132.34 259 98.68 259 64 259 Z " fill="#000000" transform="translate(38,198)"/>
<path d="M0 0 C6.20098112 6.20098112 8.16718844 11.86758621 8.1875 20.5 C8.1398399 22.33377912 8.08246447 24.16745615 8 26 C8.92619141 25.94779297 8.92619141 25.94779297 9.87109375 25.89453125 C18.87794646 25.60664098 26.07620811 27.44205496 33.20703125 33.12109375 C39.31539363 39.52223167 41.35414687 47.76848614 41.203125 56.3515625 C40.52834484 65.14965762 36.57585308 71.22157023 30 77 C23.20009388 81.78178654 16.042109 81.44747438 8 81 C8.04640625 81.83402344 8.0928125 82.66804688 8.140625 83.52734375 C8.42913009 92.52252033 7.50800584 98.71243731 1.75 105.75 C-7.0125104 112.91932669 -13.67697867 114.75677192 -25 114 C-32.08934234 112.79448001 -37.27803576 109.37363804 -42 104 C-46.87154657 96.58004322 -47.1513218 89.65896962 -47 81 C-48.16015625 81.05220703 -48.16015625 81.05220703 -49.34375 81.10546875 C-58.64166436 81.34712246 -65.4163676 80.3105835 -72.39453125 73.859375 C-77.48691716 67.96162392 -80.23910563 60.78421654 -80 53 C-79.01948871 43.34344945 -75.77345047 36.70697674 -68.26953125 30.51171875 C-61.70206566 26.13717627 -54.68410271 25.62818858 -47 26 C-47.061875 24.72125 -47.12375 23.4425 -47.1875 22.125 C-47.13365628 13.55038834 -44.87602557 6.89746072 -38.87890625 0.6875 C-27.96267452 -9.11668318 -11.32618624 -9.50872844 0 0 Z M-29 12 C-32.85511781 17.80044224 -32.45654062 23.57438024 -32.52734375 30.27539062 C-32.54925781 31.09587891 -32.57117188 31.91636719 -32.59375 32.76171875 C-32.60083984 33.50381592 -32.60792969 34.24591309 -32.61523438 35.01049805 C-33.11468459 37.59299795 -33.88137761 38.46477932 -36 40 C-37.98950195 40.38476562 -37.98950195 40.38476562 -40.23828125 40.40625 C-41.05876953 40.42816406 -41.87925781 40.45007813 -42.72460938 40.47265625 C-43.57861328 40.48167969 -44.43261719 40.49070312 -45.3125 40.5 C-51.27431237 40.56386027 -55.81791895 40.65828418 -61 44 C-63.41722818 47.16740245 -64.71564777 50.01906882 -65 54 C-64.20650844 58.93728079 -62.87383119 61.82789422 -58.91918945 64.96972656 C-55.15838017 66.98863194 -51.05063389 66.66146842 -46.875 66.625 C-38.02852697 66.625 -38.02852697 66.625 -34.41796875 67.94140625 C-32.03114228 71.40657857 -32.44059768 75.20806826 -32.4375 79.3125 C-32.40069493 86.18453309 -32.08533001 91.27189291 -27.5 96.8125 C-24.38731481 99.27670911 -20.91578317 99.33477989 -17.06640625 99.28515625 C-13.64659744 98.81323556 -11.5734053 97.20577598 -9 95 C-7.24643297 92.13733929 -6.73940304 89.92847358 -6.65625 86.59375 C-6.61177734 85.35431641 -6.61177734 85.35431641 -6.56640625 84.08984375 C-6.54449219 83.23519531 -6.52257812 82.38054687 -6.5 81.5 C-6.45645751 79.80184284 -6.40466314 78.10387283 -6.34375 76.40625 C-6.32505859 75.65666016 -6.30636719 74.90707031 -6.28710938 74.13476562 C-5.95696922 71.68005002 -5.35302061 70.07372506 -4 68 C-1.27683395 67.09227798 0.46058631 66.85506913 3.2734375 66.7890625 C4.0984375 66.76070312 4.9234375 66.73234375 5.7734375 66.703125 C7.49978924 66.65128261 9.22638345 66.60694035 10.953125 66.5703125 C15.74605158 66.39113767 19.12305583 66.1255984 23 63 C26.11002888 58.64595956 26.37537991 55.23428138 25.57421875 50.1171875 C24.72093512 46.97106691 23.38853038 45.18948618 21 43 C15.65736103 40.10351182 9.69010752 40.64491056 3.7734375 40.609375 C-2.36656322 40.43668748 -2.36656322 40.43668748 -5.0625 38.578125 C-6.82582227 33.72898875 -6.39616029 28.54785284 -6.3515625 23.44140625 C-6.42885554 19.11943737 -6.54008941 15.95347933 -9.26953125 12.46875 C-15.26527692 7.04770385 -22.74936819 6.45645324 -29 12 Z " fill="#000000" transform="translate(275,283)"/>
<path d="M0 0 C1.12664062 0.25652344 2.25328125 0.51304688 3.4140625 0.77734375 C4.49171875 1.03386719 5.569375 1.29039063 6.6796875 1.5546875 C7.65405762 1.78397949 8.62842773 2.01327148 9.63232422 2.24951172 C12.26719516 3.17494239 13.43694788 3.92979039 15.125 6.125 C16.22180312 9.41540937 16.25071464 11.87641464 16.265625 15.33984375 C16.28496094 16.58443359 16.30429687 17.82902344 16.32421875 19.11132812 C16.35761914 21.71013576 16.37626631 24.3091822 16.37890625 26.90820312 C16.52914507 34.61387294 17.55192466 40.4987747 20.95996094 47.44360352 C25.47709478 57.84001614 23.07215485 69.04265109 19.3515625 79.24609375 C15.18365683 88.74815393 7.52015775 95.98504739 -1.875 100.125 C-2.50921875 100.43050781 -3.1434375 100.73601562 -3.796875 101.05078125 C-13.83802609 105.42822522 -25.08627748 104.76760228 -35.28125 101.30859375 C-46.65891166 96.65232468 -54.64638349 88.71895219 -59.83984375 77.6640625 C-64.36365528 66.56792101 -63.7365091 55.35992565 -59.875 44.125 C-59.36880127 43.38483643 -58.86260254 42.64467285 -58.34106445 41.88208008 C-56.52720849 38.47094345 -56.49152403 36.1008812 -56.46875 32.25 C-56.44683594 30.93515625 -56.42492187 29.6203125 -56.40234375 28.265625 C-56.39155075 26.88542877 -56.38245188 25.50521831 -56.375 24.125 C-56.36037256 21.41574373 -56.32640316 18.7091896 -56.28125 16 C-56.27416016 14.80117188 -56.26707031 13.60234375 -56.25976562 12.3671875 C-55.83567003 8.79359013 -55.10376975 6.93304796 -52.875 4.125 C-51 3.07714844 -51 3.07714844 -48.875 2.484375 C-48.07835937 2.25556641 -47.28171875 2.02675781 -46.4609375 1.79101562 C-45.60757813 1.57123047 -44.75421875 1.35144531 -43.875 1.125 C-43.00101563 0.88974609 -42.12703125 0.65449219 -41.2265625 0.41210938 C-38.4513794 -0.30951775 -35.66734796 -0.97319502 -32.875 -1.625 C-31.94171875 -1.85832031 -31.0084375 -2.09164063 -30.046875 -2.33203125 C-19.38107279 -4.81972534 -10.50843531 -2.51662294 0 0 Z M-28.1953125 13.03125 C-28.90316895 13.18916016 -29.61102539 13.34707031 -30.34033203 13.50976562 C-33.86104127 14.34377458 -37.36651601 15.24097254 -40.875 16.125 C-40.875 21.735 -40.875 27.345 -40.875 33.125 C-27.015 33.125 -13.155 33.125 1.125 33.125 C1.125 27.515 1.125 21.905 1.125 16.125 C-13.40229718 12.00467922 -13.40229718 12.00467922 -28.1953125 13.03125 Z M-44.875 48.125 C-48.14874509 57.94623526 -49.27280249 64.72906007 -44.875 74.125 C-39.49738301 81.88524646 -33.76338832 86.39986571 -24.66015625 88.6796875 C-17.37881836 89.93376678 -11.10451244 87.83474188 -4.6875 84.4375 C3.53681438 77.67528595 7.37972242 71.20513697 8.5 60.5625 C8.13577645 56.0999275 8.13577645 56.0999275 5.125 48.125 C-11.375 48.125 -27.875 48.125 -44.875 48.125 Z " fill="#000000" transform="translate(275.875,20.875)"/>
</svg>
