<?xml version="1.0" encoding="UTF-8"?>
<svg version="1.1" xmlns="http://www.w3.org/2000/svg" width="512" height="512">
<path d="M0 0 C0.69346527 -0.01036789 1.38693054 -0.02073578 2.10140991 -0.03141785 C4.38714381 -0.05844945 6.67095148 -0.04882881 8.95678711 -0.03637695 C10.5575768 -0.04229178 12.15836206 -0.04954098 13.75914001 -0.05805969 C17.11586523 -0.06993689 20.47192746 -0.06324593 23.82861328 -0.04394531 C28.10016391 -0.02118125 32.36970867 -0.04769999 36.64106083 -0.08900738 C39.95034451 -0.11478425 43.25916197 -0.11195001 46.56851006 -0.10111427 C48.14115648 -0.09964103 49.71384112 -0.10715977 51.28639412 -0.12436485 C62.04612225 -0.22289265 71.61396431 0.90618434 79.94715881 8.51142883 C83.07347795 11.87052958 84.89095676 15.56046988 86.92163086 19.6628418 C88.40049019 19.67164116 88.40049019 19.67164116 89.90922546 19.68061829 C99.25008283 19.73810267 108.59071312 19.81099593 117.93133831 19.89855671 C122.7322029 19.94307702 127.53298619 19.98237237 132.33398438 20.00927734 C136.97665544 20.0354948 141.61901053 20.07602408 146.26148415 20.12602806 C148.02303924 20.14257313 149.78464882 20.15416366 151.54627037 20.1604557 C164.31375795 20.21062364 176.50387389 20.85494097 188.04663086 26.9128418 C188.68511963 27.24509766 189.3236084 27.57735352 189.98144531 27.91967773 C192.3078558 29.14452657 194.61543308 30.40033445 196.92163086 31.6628418 C197.91565918 32.20553711 198.9096875 32.74823242 199.93383789 33.30737305 C212.89647596 40.40849299 225.77798278 47.65360708 238.56298828 55.07006836 C239.36196533 55.53123047 240.16094238 55.99239258 240.98413086 56.4675293 C241.67635742 56.86955566 242.36858398 57.27158203 243.08178711 57.68579102 C247.10626852 59.82299571 250.48399739 59.79260476 254.97241211 59.8046875 C255.68669876 59.80816193 256.40098541 59.81163635 257.13691711 59.81521606 C258.68870262 59.82256685 260.2404986 59.82791585 261.79229736 59.83150673 C264.25720648 59.8386903 266.72191861 59.85437428 269.18676758 59.87284851 C276.19552787 59.92520488 283.20418345 59.97320813 290.21313477 59.98876953 C294.50270102 59.99891664 298.79177535 60.02841595 303.08114624 60.07008934 C304.70759337 60.08231578 306.33411027 60.08753605 307.96060181 60.08529091 C321.6577369 60.07104652 332.65996009 61.86672887 342.92163086 71.6628418 C350.70884667 79.82014311 354.24119917 88.23777787 354.01928711 99.5300293 C354.01223755 100.21895264 354.00518799 100.90787598 353.9979248 101.61767578 C353.97969177 103.29949123 353.95167456 104.98119587 353.92163086 106.6628418 C354.94667725 106.30270996 355.97172363 105.94257813 357.02783203 105.5715332 C379.93301891 97.52987522 402.87428119 89.59904008 425.85913086 81.7878418 C427.03349701 81.388172 428.20786316 80.9885022 429.41781616 80.57672119 C432.76089434 79.43946594 436.10477131 78.30459619 439.44897461 77.1706543 C440.45128113 76.82965698 441.45358765 76.48865967 442.48626709 76.1373291 C443.40973938 75.82493286 444.33321167 75.51253662 445.28466797 75.19067383 C446.08762802 74.91836945 446.89058807 74.64606506 447.71788025 74.36550903 C458.64043486 70.88284578 470.61114621 71.64092471 480.92163086 76.6628418 C489.74468867 82.04109463 495.97884869 89.5062579 499.22241211 99.34643555 C501.62227076 110.72900536 501.19587493 122.61527612 494.92163086 132.6628418 C486.64119757 144.05043961 475.36456051 148.51489054 462.85913086 154.1003418 C461.48113453 154.71908989 460.10320635 155.33798978 458.7253418 155.95703125 C448.08984818 160.72698787 437.41697175 165.41073559 426.73168945 170.06787109 C415.46585537 174.97873049 404.22285599 179.94028802 392.98413086 184.9128418 C377.13131262 191.92563851 361.26870632 198.91555289 345.38842773 205.8659668 C337.35931879 209.38240451 329.3385856 212.91569961 321.33889771 216.49865723 C317.48630819 218.22412014 313.63117743 219.94387102 309.77612305 221.66381836 C307.95230152 222.47972173 306.129809 223.29860421 304.30883789 224.12084961 C266.9207856 241.00125002 229.269439 247.78487309 189.68334961 233.1550293 C171.89853235 226.03735735 155.51334441 214.93225027 139.21850586 204.95581055 C138.59189056 204.57284317 137.96527527 204.18987579 137.31967163 203.79530334 C134.33074088 201.96795622 131.34631043 200.1341712 128.37133789 198.28417969 C119.34774113 192.73218171 110.42083243 188.00449416 100.10913086 185.4128418 C98.88581055 185.09831055 97.66249023 184.7837793 96.40209961 184.4597168 C93.25033865 183.73810149 90.11676923 183.15214323 86.92163086 182.6628418 C86.50913086 183.31510742 86.09663086 183.96737305 85.67163086 184.6394043 C79.52708769 193.93851204 74.24476202 198.48597516 63.35171509 201.05841064 C57.31704579 202.12180789 51.32738963 202.08996299 45.21459961 202.0612793 C43.83604275 202.06330685 42.45748695 202.06622392 41.07893372 202.06997681 C38.21397516 202.07436081 35.3493002 202.06809274 32.484375 202.05395508 C28.8284713 202.03678353 25.17322471 202.04677881 21.51734447 202.06467247 C18.68017175 202.07554832 15.84315326 202.07204806 13.00597572 202.06428909 C11.00806367 202.06134338 9.01014538 202.07037922 7.01225281 202.0796814 C-4.58054027 201.98997364 -4.58054027 201.98997364 -10.07836914 198.6628418 C-12.50679777 195.02019885 -12.36650827 192.3330164 -12.3525238 188.12258911 C-12.35776048 187.34767872 -12.36299716 186.57276832 -12.36839253 185.7743758 C-12.38343206 183.16960047 -12.38409854 180.5650209 -12.38476562 177.96020508 C-12.39238444 176.09597439 -12.40081145 174.23174686 -12.4099884 172.36752319 C-12.43196725 167.29727286 -12.4407368 162.22708285 -12.44581485 157.15679026 C-12.4494543 153.99062665 -12.45569219 150.82447894 -12.46281624 147.65832138 C-12.48732211 136.61701511 -12.50036517 125.5757559 -12.50390625 114.53442383 C-12.50754282 104.23524806 -12.53744408 93.93637007 -12.57931083 83.63728535 C-12.61397577 74.80069138 -12.62945403 65.96419628 -12.63015229 57.12753475 C-12.63094637 51.84723927 -12.6397454 46.56724699 -12.66814995 41.28702164 C-12.69426566 36.32109959 -12.69657219 31.35573351 -12.68049431 26.38977432 C-12.67867465 24.56644481 -12.68541696 22.74308382 -12.70131302 20.91982269 C-12.72168538 18.43157317 -12.71127563 15.9452851 -12.69309998 13.45706177 C-12.70629994 12.73439216 -12.71949991 12.01172255 -12.73309988 11.26715386 C-12.66879677 7.41683004 -12.16535326 5.77273494 -9.7456913 2.71580601 C-6.31096977 0.07219569 -4.30789935 0.02411303 0 0 Z " fill="#000000" transform="translate(12.078369140625,246.337158203125)"/>
<path d="M0 0 C9.4272018 6.68840385 16.33155902 14.61526356 23 24 C23.99613414 25.33622399 24.9943723 26.67090606 26 28 C26.42410156 27.29875 26.84820312 26.5975 27.28515625 25.875 C38.63177671 7.52090624 53.90385482 -4.81812299 75.0090332 -10.38916016 C80.0874084 -11.42630772 85.08170796 -11.48867913 90.25 -11.4375 C91.89524658 -11.42396484 91.89524658 -11.42396484 93.57373047 -11.41015625 C112.50764163 -11.00784207 128.95417257 -4.15481086 142.35546875 9.23046875 C159.51852934 27.20478183 166.59819092 48.7875415 166.2109375 73.4921875 C165.22645201 101.82349224 149.38791497 125.20638886 130.59765625 145.21484375 C128.27707802 147.70292237 126.03741665 150.23925981 123.8125 152.8125 C120.78011725 156.24550242 117.56068144 159.23343565 114.06640625 162.1875 C111.77240825 164.19962679 109.64092914 166.3260205 107.5 168.5 C103.49274998 172.5480709 99.33574295 176.30954321 95 180 C93.97103651 180.8811396 92.94241879 181.76268307 91.9140625 182.64453125 C90.15122881 184.15603725 88.38814608 185.66724451 86.62402344 187.17724609 C79.72206959 193.08670262 72.86139635 199.04355855 66 205 C61.62533965 208.79768299 57.24863104 212.59295627 52.8671875 216.3828125 C51.60295804 217.47777275 50.33997234 218.5741704 49.078125 219.671875 C47.2005819 221.30518485 45.3193782 222.9341886 43.4375 224.5625 C42.87796631 225.05113525 42.31843262 225.53977051 41.74194336 226.04321289 C31.29924715 235.05139502 31.29924715 235.05139502 24.46484375 234.6875 C19.61117472 233.33370325 16.22482659 229.80281363 12.58789062 226.45068359 C10.28086905 224.34300798 7.90869135 222.31356224 5.54052734 220.27514648 C3.61254942 218.61427435 1.69235707 216.9447624 -0.2265625 215.2734375 C-7.51207235 208.94096317 -14.87831628 202.7063806 -22.375 196.625 C-32.10482509 188.69909869 -41.52385617 180.39261481 -50.8203125 171.96484375 C-52.7983952 170.18173336 -54.798558 168.42985231 -56.8125 166.6875 C-92.28477568 135.63145141 -92.28477568 135.63145141 -94.484375 124.5625 C-94.59833997 121.09796484 -94.39672855 118.74744157 -92.75390625 115.65234375 C-91.66505828 112.8647554 -91.66505828 112.8647554 -93.3359375 109.7734375 C-94.00882813 108.65195313 -94.68171875 107.53046875 -95.375 106.375 C-99 100.25868726 -99 100.25868726 -99 97 C-99.515625 97.226875 -100.03125 97.45375 -100.5625 97.6875 C-104.30255235 98.16699389 -106.71662731 96.70248954 -110 95 C-112.82043984 90.76934023 -112.79113297 86.96831502 -112 82 C-109.6875 78.875 -109.6875 78.875 -107 77 C-106.01 77 -105.02 77 -104 77 C-104.33 76.34 -104.66 75.68 -105 75 C-105.30708218 68.96673831 -105.31519863 62.91839382 -104 57 C-105.1446875 56.7215625 -105.1446875 56.7215625 -106.3125 56.4375 C-109.29608151 54.84163082 -110.53566093 53.42944385 -111.67578125 50.2265625 C-113.27545906 39.24082331 -104.99998937 26.86771988 -99.05078125 18.140625 C-75.64151327 -12.43862161 -32.66277612 -21.23475881 0 0 Z " fill="#FE7FAB" transform="translate(271,36)"/>
<path d="M0 0 C12.21 -0.103125 24.42 -0.20625 37 -0.3125 C40.82207031 -0.35802002 44.64414063 -0.40354004 48.58203125 -0.45043945 C53.33398438 -0.47302246 53.33398438 -0.47302246 55.57495117 -0.47721863 C57.10432258 -0.48477996 58.63366869 -0.5021156 60.1628418 -0.52787781 C76.62852886 -0.79084203 89.76734394 3.01187938 104.0625 11.5 C105.63862061 12.40878906 105.63862061 12.40878906 107.24658203 13.3359375 C109.42218161 14.59047795 111.59440163 15.85089762 113.76318359 17.1171875 C118.939026 20.1279053 124.15864887 23.06024209 129.375 26 C130.28258057 26.51498047 131.19016113 27.02996094 132.12524414 27.56054688 C134.74639079 29.04716015 137.37297039 30.52381331 140 32 C140.96711914 32.55171875 141.93423828 33.1034375 142.93066406 33.671875 C144.37650879 34.48398437 144.37650879 34.48398437 145.8515625 35.3125 C146.71861816 35.80363281 147.58567383 36.29476562 148.47900391 36.80078125 C153.33399323 39.1102629 157.97328695 39.12062769 163.29370117 39.11010742 C164.77744041 39.11064988 166.26117962 39.11123687 167.74491882 39.11186218 C168.91696649 39.10971993 168.91696649 39.10971993 170.11269188 39.10753441 C174.27896836 39.10399321 178.44511342 39.12984373 182.61132812 39.15039062 C187.89993577 39.1746745 193.18815109 39.1904598 198.47680664 39.17504883 C202.76233381 39.16333091 207.04689334 39.18093228 211.33226967 39.21749306 C212.95676915 39.22605932 214.5813624 39.22410382 216.20583153 39.210989 C225.66045011 39.14038065 233.49918215 39.46536167 241 46 C245.4143008 50.92756669 246.37249427 55.94058523 246.26953125 62.37109375 C245.73942126 67.54158687 243.87692225 71.26658488 240.05859375 74.79296875 C235.60681283 78.2445337 232.2233378 80.1223237 226.49685669 80.13130188 C225.57440155 80.13531006 224.65194641 80.13931824 223.70153809 80.14344788 C222.18662781 80.1426548 222.18662781 80.1426548 220.64111328 80.1418457 C219.5758139 80.14532013 218.51051453 80.14879456 217.41293335 80.15237427 C215.09665576 80.15973272 212.78037112 80.16507762 210.46408463 80.16866493 C206.79947412 80.17582195 203.13499816 80.1914823 199.47042847 80.21000671 C189.05012846 80.26251678 178.62990217 80.31047337 168.20947266 80.32592773 C161.83868831 80.3359966 155.46824224 80.36529276 149.0975914 80.40724754 C146.66792227 80.41957704 144.23820541 80.42467527 141.80850601 80.42244911 C138.41119395 80.42010209 135.01485637 80.4422181 131.61767578 80.4699707 C130.61178406 80.46336929 129.60589233 80.45676788 128.56951904 80.44996643 C124.20155413 80.50864391 121.68181741 80.58926674 117.87789917 82.88078308 C115.62437937 85.42388942 115.32369194 86.63419155 115.375 90 C115.36210937 90.845625 115.34921875 91.69125 115.3359375 92.5625 C116.32717317 96.20091798 117.7726905 97.05271903 121 99 C124.49609286 99.58894985 127.95234984 99.5361478 131.49072266 99.50170898 C132.54667633 99.50711197 133.60263 99.51251495 134.69058228 99.51808167 C138.18202748 99.53058911 141.67265095 99.51405692 145.1640625 99.49609375 C147.59679202 99.49624876 150.0295218 99.49773806 152.46224976 99.50050354 C157.56495055 99.50188868 162.66737069 99.48931519 167.77001953 99.46655273 C174.28981096 99.43825873 180.80913285 99.4408795 187.32895851 99.45364285 C192.35635334 99.46062367 197.38364104 99.45278178 202.41102219 99.44038582 C204.81342532 99.43588827 207.21584004 99.43551959 209.61824417 99.43945122 C212.99003578 99.44238461 216.36119833 99.42575138 219.73291016 99.40405273 C220.71408813 99.40855438 221.69526611 99.41305603 222.70617676 99.41769409 C232.1701783 99.31727392 240.62748847 96.60183821 249.46875 93.453125 C250.1588768 93.20914978 250.8490036 92.96517456 251.56004333 92.71380615 C253.07336012 92.17874483 254.58611377 91.64208867 256.09835815 91.10400391 C260.42790224 89.56445396 264.76266472 88.03975692 269.09765625 86.515625 C270.55589561 86.00279968 270.55589561 86.00279968 272.04359436 85.47961426 C289.17697662 79.46800149 306.36732094 73.6190616 323.54558563 67.73726845 C326.37533375 66.76820669 329.20486074 65.79849999 332.03440857 64.82885361 C334.06456553 64.13365615 336.0951808 63.43981067 338.12585449 62.74612427 C343.60244931 60.87278142 349.07351884 58.99048084 354.50976562 57.00244141 C355.29380264 56.71699463 356.07783966 56.43154785 356.88563538 56.13745117 C358.81498987 55.42948464 360.73971099 54.70892182 362.66381836 53.98681641 C369.56399359 51.9457986 377.51870343 51.32185172 384.125 54.625 C388.58054782 58.30566994 391.54807163 62.36520472 392.2734375 68.19921875 C392.49948449 73.73737002 391.81468622 77.40774185 388.875 82.11328125 C383.65981989 87.36105624 376.50499137 90.31329539 369.81640625 93.23046875 C368.50303535 93.81204994 368.50303535 93.81204994 367.16313171 94.40538025 C364.29880934 95.67196781 361.43073656 96.92980457 358.5625 98.1875 C356.54046863 99.07941344 354.51866207 99.9718367 352.49707031 100.86474609 C347.32568093 103.14694973 342.15104016 105.42166972 336.97515869 107.69366455 C334.16303486 108.9284145 331.35160838 110.16473358 328.54052734 111.40185547 C319.22528012 115.5013771 309.90640391 119.59254342 300.58433533 123.67652893 C292.07494357 127.40458082 283.56856962 131.13949266 275.06240845 134.87490845 C272.51073624 135.99528598 269.9588878 137.11526111 267.40698242 138.23510742 C259.57876473 141.67058112 251.75154923 145.10827862 243.92802429 148.5544281 C211.04928577 163.03691724 211.04928577 163.03691724 195.9375 169.4375 C194.92179932 169.86796631 193.90609863 170.29843262 192.85961914 170.74194336 C190.24519694 171.84193429 187.62593766 172.9278243 185 174 C183.92818481 174.43880493 183.92818481 174.43880493 182.8347168 174.88647461 C164.25738509 182.20167892 141.01825742 182.51911742 122 177 C120.95328125 176.73316406 119.9065625 176.46632813 118.828125 176.19140625 C96.6882942 170.11645268 76.18374237 155.74103874 56.91015625 143.55078125 C40.27686141 133.03640665 40.27686141 133.03640665 22 126 C20.9171875 125.69191406 19.834375 125.38382812 18.71875 125.06640625 C12.52458697 123.43183545 6.29158886 122.25831777 0 121 C0 81.07 0 41.14 0 0 Z " fill="#FECDBE" transform="translate(100,287)"/>
<path d="M0 0 C9.4272018 6.68840385 16.33155902 14.61526356 23 24 C23.99613414 25.33622399 24.9943723 26.67090606 26 28 C26.42410156 27.29875 26.84820312 26.5975 27.28515625 25.875 C38.63177671 7.52090624 53.90385482 -4.81812299 75.0090332 -10.38916016 C80.0874084 -11.42630772 85.08170796 -11.48867913 90.25 -11.4375 C91.89524658 -11.42396484 91.89524658 -11.42396484 93.57373047 -11.41015625 C112.50764163 -11.00784207 128.95417257 -4.15481086 142.35546875 9.23046875 C159.51852934 27.20478183 166.59819092 48.7875415 166.2109375 73.4921875 C165.22645201 101.82349224 149.38791497 125.20638886 130.59765625 145.21484375 C128.27707802 147.70292237 126.03741665 150.23925981 123.8125 152.8125 C120.78011725 156.24550242 117.56068144 159.23343565 114.06640625 162.1875 C111.77240825 164.19962679 109.64092914 166.3260205 107.5 168.5 C103.49274998 172.5480709 99.33574295 176.30954321 95 180 C93.97103651 180.8811396 92.94241879 181.76268307 91.9140625 182.64453125 C90.15122881 184.15603725 88.38814608 185.66724451 86.62402344 187.17724609 C79.72206959 193.08670262 72.86139635 199.04355855 66 205 C61.62533965 208.79768299 57.24863104 212.59295627 52.8671875 216.3828125 C51.60295804 217.47777275 50.33997234 218.5741704 49.078125 219.671875 C47.2005819 221.30518485 45.3193782 222.9341886 43.4375 224.5625 C42.87796631 225.05113525 42.31843262 225.53977051 41.74194336 226.04321289 C31.29924715 235.05139502 31.29924715 235.05139502 24.46484375 234.6875 C19.61117472 233.33370325 16.22482659 229.80281363 12.58789062 226.45068359 C10.28086905 224.34300798 7.90869135 222.31356224 5.54052734 220.27514648 C3.61254942 218.61427435 1.69235707 216.9447624 -0.2265625 215.2734375 C-7.51207235 208.94096317 -14.87831628 202.7063806 -22.375 196.625 C-32.10482509 188.69909869 -41.52385617 180.39261481 -50.8203125 171.96484375 C-52.7983952 170.18173336 -54.798558 168.42985231 -56.8125 166.6875 C-92.16427418 135.73695072 -92.16427418 135.73695072 -94.51953125 124.52734375 C-94.67547297 120.9753378 -94.34685883 118.66068348 -92.6875 115.5 C-90.12175739 113.2193399 -88.01027365 113.00076101 -84.625 112.75 C-79.74722246 113.08639845 -77.22050372 114.63805445 -73.96704102 118.26855469 C-73.29858154 119.14415039 -72.63012207 120.01974609 -71.94140625 120.921875 C-67.17023836 126.92262352 -61.956073 132.31533236 -56.5065918 137.69921875 C-54.93017322 139.25724128 -53.36204482 140.82325807 -51.79492188 142.390625 C-46.36766224 147.79913716 -40.85409635 153.05130927 -35 158 C-33.88241653 158.96177966 -32.7652173 159.92400602 -31.6484375 160.88671875 C-30.55768869 161.82077632 -29.46653392 162.75436003 -28.375 163.6875 C-27.15750274 164.72910899 -25.94005632 165.77077741 -24.72265625 166.8125 C-24.10793457 167.3384375 -23.49321289 167.864375 -22.85986328 168.40625 C-21.02773092 169.97623688 -19.19889523 171.54997431 -17.37109375 173.125 C-11.26514281 178.38239231 -5.1145665 183.56450147 1.140625 188.64453125 C5.69752015 192.39836701 10.1670359 196.25306647 14.640625 200.10546875 C15.19041016 200.57259277 15.74019531 201.0397168 16.30664062 201.52099609 C17.49853765 202.56201572 18.6618539 203.63621871 19.80273438 204.73291016 C23.17028572 208.03313943 23.17028572 208.03313943 27.5546875 209.21875 C30.94920887 207.52691188 33.45590264 205.13696376 36.125 202.5 C37.27755622 201.39723447 38.43253924 200.29700012 39.58984375 199.19921875 C40.45005127 198.38203369 40.45005127 198.38203369 41.32763672 197.54833984 C44.53899071 194.57514174 47.9766324 191.88345734 51.38671875 189.14453125 C53.99847623 187.00125044 56.50365302 184.7761967 59 182.5 C62.35326272 179.44245809 65.774552 176.52912249 69.3125 173.6875 C74.13834704 169.78444241 78.70958706 165.6685861 83.23364258 161.42456055 C85.99436296 158.83674357 88.78844243 156.31213166 91.66015625 153.84765625 C112.94896799 135.29195337 140.87603424 109.92232264 144 80 C144.97687501 59.50414378 142.71600407 42.20283097 129 26 C123.33792099 19.8532754 116.61810026 16.28623933 109 13 C108.20980469 12.65710938 107.41960937 12.31421875 106.60546875 11.9609375 C96.0862603 8.12599609 83.13474555 8.63061304 72.7734375 12.67578125 C54.17689681 21.55497462 43.33112315 37.20058413 36.2109375 56.09375 C34.5794465 60.32486952 32.98293084 62.73697111 29 65 C25.09343759 65.55808034 22.9367366 65.55466608 19.51953125 63.53125 C16.10261841 60.09844454 14.86442786 56.48186745 13.1875 52 C6.23605383 34.59831196 -4.30347746 20.54998219 -21.8046875 12.75 C-33.90001327 8.13003472 -46.8027305 9.02324048 -59 13 C-75.3845008 20.58469116 -84.11114895 32.0439533 -90.42797852 48.60522461 C-91.70901626 51.79509084 -92.73555973 53.79180576 -95.4609375 55.9375 C-99.13138402 57.4734407 -102.09652467 57.83589573 -106 57 C-109.28363775 54.62460248 -110.71700983 53.10901553 -111.72265625 49.16796875 C-112.72702249 37.69555998 -103.87829295 24.48182272 -97.1875 15.75 C-73.02943507 -12.79624116 -31.90205076 -20.74019523 0 0 Z " fill="#010000" transform="translate(271,36)"/>
<path d="M0 0 C52 0 52 0 57 3 C60.16019269 6.20066489 60.37905018 8.60476219 60.39440918 13.02806091 C60.40575897 14.26321442 60.41710876 15.49836792 60.42880249 16.77095032 C60.42615924 18.13693302 60.42318803 19.50291513 60.41992188 20.86889648 C60.42726248 22.30963805 60.43584868 23.75037372 60.44558716 25.19110107 C60.46781255 29.10228426 60.47073337 33.01325684 60.46883965 36.9244945 C60.46872 40.18996429 60.47728181 43.45538936 60.48561716 46.72084671 C60.50485475 54.42468658 60.5077337 62.12841808 60.50097656 69.83227539 C60.49433443 77.77928627 60.51720592 85.72583317 60.55429029 93.67274994 C60.58497847 100.49665868 60.59634833 107.32041808 60.59245348 114.14439446 C60.59038512 118.21967515 60.59587817 122.29459476 60.62034607 126.3698101 C60.64259661 130.20233155 60.6407504 134.03409814 60.62041855 137.86662292 C60.61700546 139.27229459 60.62211071 140.67801691 60.63640213 142.08362007 C60.74953768 154.03654898 60.74953768 154.03654898 57.58654785 157.31239319 C41.49275148 167.81287566 19.21641001 160 0 160 C0 107.2 0 54.4 0 0 Z " fill="#F9EBD7" transform="translate(20,267)"/>
<path d="M0 0 C3.5793379 0.89483448 5.44598226 2.88368915 8 5.5 C9.41000664 8.32001327 9.24548451 10.37007255 9 13.5 C7.57278577 16.90945623 6.28091835 18.30208025 3.25 20.4375 C-0.9657038 21.81571086 -2.95648898 21.22223617 -7 19.5 C-9.4375 18 -9.4375 18 -11 15.5 C-11.90849789 10.43469575 -11.80187089 6.75292327 -9 2.375 C-5.88081449 0.42550906 -3.69595304 -0.22399715 0 0 Z " fill="#020101" transform="translate(170,112.5)"/>
<path d="M0 0 C2.92937654 1.81310142 5.43647949 3.87295899 7 7 C7.41204834 11.63554388 6.87454146 14.30416098 4 18 C0.57840405 20.56619697 -2.84844133 20.50984054 -7 20 C-10.57513152 17.04663048 -12.74364334 14.87994881 -13.375 10.25 C-12.8528401 5.7246142 -11.15770622 4.2328897 -8 1 C-5.09704195 -0.45147903 -3.22738221 -0.37239025 0 0 Z " fill="#060505" transform="translate(53,287)"/>
</svg>
