<?xml version="1.0" standalone="no"?>
<!DOCTYPE svg PUBLIC "-//W3C//DTD SVG 20010904//EN"
 "http://www.w3.org/TR/2001/REC-SVG-20010904/DTD/svg10.dtd">
<svg version="1.0" xmlns="http://www.w3.org/2000/svg"
 width="512.000000pt" height="512.000000pt" viewBox="0 0 512.000000 512.000000"
 preserveAspectRatio="xMidYMid meet">

<g transform="translate(0.000000,512.000000) scale(0.100000,-0.100000)"
fill="#000000" stroke="none">
<path d="M2045 4841 c-130 -38 -249 -126 -321 -238 -145 -224 -106 -529 91
-711 169 -157 412 -193 620 -94 199 96 316 281 317 502 1 162 -58 297 -179
411 -136 130 -349 182 -528 130z m328 -160 c258 -123 322 -459 126 -666 -161
-170 -422 -176 -594 -14 -206 195 -154 550 100 674 79 39 108 45 210 41 78 -3
101 -8 158 -35z"/>
<path d="M3460 4053 c-48 -19 -50 -27 -50 -210 l0 -173 -170 0 c-234 0 -220
15 -220 -238 0 -176 1 -191 21 -216 l20 -26 175 0 174 0 0 -174 0 -175 26 -20
c25 -20 40 -21 216 -21 253 0 238 -14 238 220 l0 170 173 0 c229 0 212 -20
212 242 0 257 17 238 -216 238 l-169 0 0 169 c0 231 17 215 -227 218 -103 1
-195 0 -203 -4z m290 -303 c0 -168 0 -171 25 -195 24 -25 27 -25 195 -25 l170
0 0 -100 0 -100 -170 0 c-168 0 -171 0 -195 -25 -25 -24 -25 -27 -25 -195 l0
-170 -99 0 -100 0 -3 176 c-4 229 11 214 -219 214 l-169 0 0 100 0 100 170 0
c168 0 171 0 195 25 25 24 25 27 25 195 l0 170 100 0 100 0 0 -170z"/>
<path d="M1800 3653 c-103 -17 -227 -89 -290 -168 -60 -75 -81 -136 -196 -573
-64 -240 -118 -440 -120 -444 -3 -5 -54 -8 -113 -8 -71 0 -123 -5 -151 -15
-176 -62 -234 -287 -110 -428 69 -78 109 -91 294 -95 l159 -4 -5 -107 c-6
-103 -12 -129 -217 -813 -227 -760 -224 -746 -166 -768 16 -6 213 -10 496 -10
l470 0 26 26 c23 23 25 31 20 80 -14 135 -112 258 -235 295 -23 7 -42 15 -42
18 0 26 110 353 114 341 3 -8 65 -175 136 -370 72 -195 137 -362 146 -370 12
-13 72 -15 391 -18 405 -3 423 -1 442 46 14 33 0 117 -29 177 -50 104 -159
180 -273 192 -38 4 -58 11 -62 22 -41 103 -475 1251 -475 1255 0 3 288 6 640
6 l640 0 0 -119 c0 -117 1 -120 26 -140 15 -12 35 -21 46 -21 18 0 18 -11 16
-257 -3 -249 -4 -258 -23 -261 -84 -12 -85 -16 -85 -272 0 -194 -1 -209 -18
-214 -28 -9 -39 -38 -72 -188 -37 -169 -37 -181 -4 -207 26 -20 37 -21 409
-21 492 0 461 -18 405 232 -36 157 -42 174 -69 183 -20 6 -21 13 -21 226 0
206 -1 220 -20 239 -11 11 -33 20 -50 20 l-30 0 0 259 0 259 24 6 c50 12 56
28 56 156 l0 118 143 4 c166 4 210 19 277 95 124 141 66 366 -110 428 -35 13
-125 15 -539 15 l-496 0 0 88 c0 146 13 131 -523 601 -255 223 -490 423 -523
443 -88 53 -209 77 -309 61z m160 -149 c29 -9 69 -26 89 -39 20 -12 241 -203
492 -423 341 -299 459 -409 468 -433 14 -39 14 -89 1 -123 l-10 -26 -161 0
-161 0 -243 175 c-153 110 -252 175 -267 175 -48 0 -59 -21 -103 -186 l-42
-159 -342 -3 c-323 -2 -342 -1 -337 15 3 10 53 200 112 423 58 223 115 422
126 443 25 49 87 111 137 137 81 41 158 49 241 24z m375 -969 l98 -70 -128 -3
c-70 -1 -130 -1 -132 2 -4 3 20 107 32 144 6 16 4 17 130 -73z m1833 -235 c87
-53 73 -186 -24 -226 -50 -21 -3118 -21 -3168 0 -97 40 -111 173 -24 226 33
20 46 20 1608 20 1562 0 1575 0 1608 -20z m-2509 -1055 c-220 -712 -219 -708
-170 -734 11 -6 39 -11 63 -11 57 -1 116 -28 156 -74 60 -69 74 -66 -334 -66
l-366 0 6 23 c3 12 89 301 191 642 102 341 190 647 195 680 5 33 10 95 10 138
l0 77 228 0 229 0 -208 -675z m2081 605 l0 -70 -155 0 -155 0 0 70 0 70 155 0
155 0 0 -70z m-1575 -745 c141 -372 223 -576 236 -588 15 -12 39 -17 78 -17
73 0 123 -15 161 -47 27 -22 60 -71 60 -88 0 -3 -132 -5 -294 -5 -271 0 -294
1 -301 18 -36 91 -305 834 -305 843 0 8 119 403 135 448 3 8 7 12 10 10 2 -3
101 -261 220 -574z m1493 278 l-3 -258 -67 -3 -68 -3 0 261 0 260 70 0 70 0
-2 -257z m102 -573 l0 -170 -175 0 -175 0 0 170 0 170 175 0 175 0 0 -170z
m88 -368 c7 -32 12 -64 12 -70 0 -9 -69 -12 -275 -12 -206 0 -275 3 -275 12 0
6 5 38 12 70 l12 58 251 0 251 0 12 -58z"/>
</g>
</svg>
