<svg version="1.1" id="Layer_1" xmlns="http://www.w3.org/2000/svg" xmlns:xlink="http://www.w3.org/1999/xlink" x="0px" y="0px"
	 width="100%" viewBox="0 0 512 512" enable-background="new 0 0 512 512" xml:space="preserve">
<path fill="#000000" opacity="1.000000" stroke="none" 
	d="
M513.000000,231.532059 
	C510.397644,239.141815 506.809174,245.675964 500.464325,250.155502 
	C491.810181,256.265411 482.229889,258.896393 471.780426,256.077789 
	C468.552551,255.207108 466.479950,256.153595 464.074615,257.925079 
	C452.912872,266.145416 440.356964,270.571625 426.474152,270.313019 
	C397.400513,269.771454 372.071259,247.763443 368.799957,220.146973 
	C366.499603,200.727432 365.177185,180.826553 369.727020,161.629395 
	C375.234344,138.392014 391.093353,124.821129 414.599091,120.649551 
	C428.228607,118.230713 441.958649,118.536171 454.604095,124.575081 
	C473.715881,133.702026 485.318237,148.630478 487.510223,170.329315 
	C488.030090,175.475983 488.367432,180.582428 488.289795,185.717377 
	C488.245636,188.637741 489.235992,190.137573 492.069824,191.220673 
	C502.496979,195.205872 509.314514,202.735870 512.851440,213.685074 
	C513.000000,219.688034 513.000000,225.376083 513.000000,231.532059 
M432.380127,189.081741 
	C443.340576,194.398254 454.811890,197.920227 466.867401,199.910583 
	C471.178497,200.622345 471.797241,199.293671 471.668610,195.761536 
	C471.378662,187.801147 471.802216,179.856766 470.796570,171.871048 
	C469.209106,159.265900 463.004791,149.828064 452.746307,142.870102 
	C441.366241,135.151398 428.666290,135.068802 415.835876,137.485947 
	C398.016602,140.842926 383.553864,159.041946 384.327332,176.534271 
	C384.420349,178.638092 384.362061,180.636017 387.333252,180.631653 
	C390.072388,180.627625 390.652710,178.990295 390.643585,176.708588 
	C390.626251,172.376572 390.493805,168.035919 390.712158,163.714172 
	C391.041107,157.203400 396.632019,153.722855 402.555237,155.829788 
	C406.637909,157.281998 406.727875,160.943085 408.094055,164.063812 
	C412.946869,175.148895 421.135254,183.104782 432.380127,189.081741 
M386.925720,223.685150 
	C393.027740,242.652710 413.794983,256.901733 436.040802,252.459229 
	C454.504608,248.772018 469.011566,232.662354 469.509613,217.485687 
	C458.460266,215.587097 447.478668,213.337341 436.812561,209.549500 
	C425.911957,205.678375 416.327850,199.692169 407.259888,192.314926 
	C404.522797,196.600586 400.882660,197.622330 396.613098,197.382721 
	C393.789886,197.224274 390.949249,197.403824 388.117371,197.364059 
	C385.749664,197.330826 384.343567,198.111389 384.336365,200.789932 
	C384.316284,208.264816 383.939117,215.763489 386.925720,223.685150 
M488.200256,211.988983 
	C487.123840,221.603821 485.098938,230.989441 480.055542,240.539185 
	C482.750153,239.928268 484.107361,239.833755 485.279938,239.318878 
	C491.238464,236.702438 495.715210,232.635254 496.504791,225.846039 
	C497.177124,220.065018 496.446411,214.528488 491.346344,210.571716 
	C489.976379,209.508804 488.568176,207.859009 488.200256,211.988983 
z"/>
<path fill="#000000" opacity="1.000000" stroke="none" 
	d="
M1.000000,249.458069 
	C8.140961,243.288193 9.189823,234.789886 10.526914,226.738159 
	C13.074223,211.398743 11.341558,195.865921 11.584304,180.420135 
	C11.780692,167.924133 14.426890,156.108643 19.762617,144.858078 
	C21.497002,141.201050 27.410334,139.292999 31.563200,140.986389 
	C34.992195,142.384613 36.737553,148.589386 34.667480,153.427505 
	C32.577728,158.311600 30.564457,163.172989 30.018438,168.752029 
	C31.621532,163.348755 35.612873,162.702454 40.385483,162.564529 
	C49.358276,162.305222 57.584789,163.478241 63.959499,170.688477 
	C65.884407,172.865662 67.194977,175.302155 68.389130,177.854462 
	C72.578674,186.809067 79.561203,190.835938 89.459518,190.707397 
	C106.275101,190.488998 123.095703,190.636063 139.914124,190.668655 
	C147.880112,190.684097 150.193649,193.163712 150.361206,201.111557 
	C150.629700,213.848434 149.629837,226.293625 143.681442,237.921097 
	C142.409073,240.408218 140.143326,242.376862 139.727097,245.391251 
	C140.945694,246.888855 142.710068,246.560226 144.284042,246.632568 
	C148.611938,246.831436 150.484650,249.755051 151.136215,253.346848 
	C151.812897,257.077087 150.301193,260.273590 146.710983,261.952667 
	C145.093582,262.709076 143.183701,263.351929 141.447617,263.261047 
	C128.594833,262.588287 116.209351,264.130005 103.870689,268.258026 
	C90.576637,272.705750 77.344246,269.952423 64.656166,264.715179 
	C62.264942,263.728149 59.926796,263.355042 57.401279,263.360046 
	C42.248077,263.390198 27.094532,263.318817 11.941666,263.394409 
	C8.146229,263.413330 4.710067,262.631378 1.330405,260.169647 
	C1.000000,256.638702 1.000000,253.277420 1.000000,249.458069 
M122.624596,238.126312 
	C129.161575,230.803711 132.199341,221.985260 133.584610,212.463715 
	C134.080170,209.057571 133.204147,207.251511 129.146484,207.302277 
	C114.493011,207.485672 99.835648,207.367691 85.179802,207.339188 
	C83.195457,207.335327 81.247543,207.232422 79.252121,206.805573 
	C67.371414,204.264130 58.898266,197.592575 53.835938,186.534348 
	C52.410572,183.420746 50.861179,180.298630 46.332718,180.309540 
	C46.332718,189.201019 46.307178,197.688019 46.339714,206.174805 
	C46.373989,215.114456 48.163063,223.618332 52.734570,231.419998 
	C61.193615,245.856033 74.323616,253.184402 90.505615,253.304916 
	C102.757408,253.396118 113.728256,248.132919 122.624596,238.126312 
M28.290518,207.498627 
	C28.999834,220.567139 27.682362,233.424576 23.381561,246.267792 
	C29.791494,246.267792 35.304745,246.267792 41.887905,246.267792 
	C33.849724,235.259171 30.244947,223.464783 29.740372,210.921875 
	C29.244709,198.600586 29.632322,186.243759 29.632322,173.902527 
	C29.184923,173.901031 28.737524,173.899536 28.290125,173.898056 
	C28.290125,184.765030 28.290125,195.632004 28.290518,207.498627 
z"/>
<path fill="#000000" opacity="1.000000" stroke="none" 
	d="
M144.686768,363.268738 
	C147.513245,345.541016 155.517426,329.813599 159.283035,312.738525 
	C164.099533,290.898254 168.248444,269.083466 166.527725,246.682449 
	C165.349579,231.344604 162.227203,216.228043 159.163513,201.137924 
	C156.034882,185.727921 152.004761,170.377625 152.729355,154.482132 
	C153.905518,128.680847 162.962982,106.107849 180.795258,87.099815 
	C195.330231,71.606491 212.745087,61.111931 233.416168,56.609341 
	C261.104797,50.578190 287.364838,54.603287 311.805115,69.398354 
	C319.561615,74.093803 326.340363,79.890327 332.577942,86.393478 
	C335.862579,89.817932 336.341766,94.681808 333.747803,98.112602 
	C331.179138,101.509926 326.556519,102.017395 322.113159,99.431129 
	C317.886932,96.971245 315.027283,92.967735 311.296265,89.904800 
	C299.135590,79.921661 285.233643,73.837990 269.905518,71.712486 
	C245.535004,68.333061 223.224121,73.834190 203.619385,89.283997 
	C187.501633,101.985817 177.166840,118.221710 171.842209,138.018845 
	C167.732544,153.298737 169.640244,168.254074 172.665817,183.286652 
	C174.623535,193.013443 176.640137,202.728363 179.074249,212.439041 
	C177.874390,206.516220 178.640244,200.595016 178.645157,194.676224 
	C178.657059,180.343262 178.633118,166.010254 178.656799,151.677322 
	C178.685486,134.315704 185.134659,119.322258 195.957062,106.106720 
	C201.509216,99.326828 208.424820,100.247581 212.506332,108.366028 
	C217.302383,117.905762 222.769989,126.942459 229.357254,135.361237 
	C242.393204,152.021683 257.859497,165.896301 275.915131,176.906723 
	C291.739563,186.556549 308.549164,193.934631 326.432281,198.821060 
	C331.162292,200.113495 335.011383,202.237961 335.979004,207.765839 
	C339.377869,192.887115 342.951324,178.244583 344.427704,163.320572 
	C345.804291,149.404953 342.378387,136.008743 337.192535,123.049423 
	C334.787079,117.038254 336.553558,112.523239 341.376953,110.671219 
	C346.028870,108.885040 350.576416,111.441170 352.965790,117.112923 
	C359.113861,131.706726 362.131042,146.947159 361.234344,162.728119 
	C360.491608,175.800049 357.499634,188.591461 354.804504,201.388641 
	C349.940430,224.484589 345.727264,247.689606 347.432495,271.429413 
	C348.538300,286.824707 352.548065,301.755524 355.723083,316.825958 
	C358.443176,329.737213 364.007629,341.654449 367.457947,354.284027 
	C369.626282,362.221039 370.000488,370.376434 370.190338,378.426117 
	C370.650024,397.914825 370.334747,417.421600 370.355621,436.921082 
	C370.359894,440.930389 369.944458,444.969635 368.452209,448.606171 
	C365.189362,456.557373 358.571625,460.264404 350.316925,460.281281 
	C288.152130,460.408478 225.986877,460.403961 163.821960,460.315918 
	C151.673279,460.298737 143.953598,452.314667 143.751709,439.104584 
	C143.428284,417.943481 143.535446,396.772247 143.781921,375.609100 
	C143.827637,371.682800 144.835907,367.727112 144.686768,363.268738 
M269.178497,413.511749 
	C267.552307,416.406250 266.039642,419.372040 264.276276,422.180420 
	C260.646729,427.960815 253.042465,427.828156 249.633057,421.929504 
	C246.894165,417.190918 244.298447,412.369202 241.663437,407.571045 
	C230.961777,388.084442 220.275314,368.589447 209.571274,349.104095 
	C203.995102,338.953339 198.393982,328.816315 192.761124,318.595062 
	C188.947189,319.495758 186.570389,321.773712 184.079758,323.931030 
	C167.957581,337.895569 160.998444,356.117401 160.465042,376.848328 
	C159.946854,396.988464 160.353943,417.152405 160.351379,437.305878 
	C160.350845,441.456390 161.879440,443.702820 166.564789,443.696014 
	C226.858612,443.608307 287.152649,443.613800 347.446503,443.695312 
	C351.849670,443.701263 353.646851,441.469299 353.575684,437.648926 
	C353.160675,415.369904 354.373688,393.093781 352.845947,370.798737 
	C351.516846,351.402924 343.356110,335.869659 329.110687,323.159973 
	C326.928619,321.213165 324.674744,319.210846 320.993408,319.004364 
	C303.803802,350.302429 286.633545,381.565216 269.178497,413.511749 
M305.701935,237.252365 
	C309.863403,231.255676 313.764587,225.176880 315.802948,218.002335 
	C316.738464,214.709503 315.624603,213.463028 312.835083,212.531448 
	C305.914215,210.220139 299.095062,207.660141 292.389587,204.746719 
	C257.203247,189.458923 228.755875,166.089188 207.312454,134.243881 
	C205.893173,132.136139 205.259232,129.375595 202.545685,128.304016 
	C198.173691,134.195969 195.372681,143.097656 195.359192,151.329346 
	C195.330521,168.821121 195.347916,186.312988 195.354858,203.804810 
	C195.355316,204.969269 195.314896,206.149918 195.481262,207.295792 
	C200.501556,241.872055 232.512650,267.013397 266.876923,260.617340 
	C282.414673,257.725372 295.703949,250.871582 305.701935,237.252365 
M225.636276,272.202606 
	C204.646759,262.693207 190.339493,246.806717 181.591034,225.474609 
	C184.616364,252.328522 184.915268,278.754913 178.283081,304.857239 
	C180.954514,305.403778 182.018494,304.058319 183.188812,303.298706 
	C196.252396,294.819824 210.813568,291.101013 226.108551,290.767944 
	C246.584488,290.322083 267.081818,290.404083 287.561462,290.755035 
	C299.558929,290.960571 311.264343,293.359314 322.182465,298.673798 
	C326.450745,300.751373 330.629364,303.013214 336.081848,305.827576 
	C329.066772,279.597076 329.694641,254.075653 331.669525,228.261658 
	C322.040070,248.232727 308.369537,263.758636 287.853607,272.255707 
	C267.459412,280.702393 246.892181,280.730774 225.636276,272.202606 
M268.240662,316.763428 
	C271.679230,314.830078 274.047119,312.068512 275.323029,307.824219 
	C262.935760,307.824219 250.964493,307.824219 238.510391,307.824219 
	C240.474396,312.515350 243.130585,315.577759 247.220093,317.611633 
	C253.094009,320.532959 255.131561,323.952789 254.197006,329.474762 
	C252.485733,339.585876 250.467453,349.644623 248.668579,359.741516 
	C247.538788,366.083008 244.841888,372.785583 245.977814,378.727844 
	C247.387787,386.103668 252.481110,392.596405 257.262085,399.776642 
	C261.072723,392.689209 264.454041,386.423767 267.807983,380.143677 
	C268.534698,378.782898 268.669434,377.353607 268.382416,375.791595 
	C265.721954,361.312439 263.120667,346.822388 260.493622,332.337097 
	C258.841370,323.226685 259.739014,321.295837 268.240662,316.763428 
M291.230682,315.487244 
	C288.941833,320.348053 286.229187,325.117737 281.720825,328.037506 
	C277.753113,330.607239 276.916199,333.403076 278.327881,337.571259 
	C279.987610,342.471893 279.132172,348.068573 282.551239,353.432831 
	C290.477264,338.943756 298.056854,325.088013 305.639221,311.227112 
	C297.087250,306.667999 294.301971,307.483185 291.230682,315.487244 
M212.924805,319.668732 
	C219.177917,331.042725 225.431015,342.416748 231.951004,354.276184 
	C234.027390,348.180695 234.263596,342.507416 235.731155,337.127380 
	C236.788269,333.252106 236.049286,330.842712 232.637344,328.380402 
	C227.889130,324.953705 224.575806,320.114807 222.331009,314.596954 
	C219.428238,307.461731 215.612762,306.591888 208.861984,311.552063 
	C210.090942,314.011566 211.339539,316.510345 212.924805,319.668732 
z"/>
<path fill="#000000" opacity="1.000000" stroke="none" 
	d="
M500.018250,308.232513 
	C506.087341,319.473450 508.325287,331.244812 508.345520,343.522644 
	C508.367767,357.015411 508.382294,370.508362 508.341034,384.001038 
	C508.305298,395.680939 503.643219,400.345947 492.058563,400.349915 
	C459.409302,400.361115 426.760040,400.340332 394.110809,400.370605 
	C391.038147,400.373474 388.069519,400.250824 385.891205,397.704926 
	C383.662079,395.099609 382.935120,392.082855 384.234192,388.877472 
	C385.700989,385.258362 388.559906,383.624359 392.485718,383.636108 
	C405.978394,383.676544 419.471252,383.652069 432.964050,383.651978 
	C450.621307,383.651825 468.279907,383.533966 485.934845,383.736084 
	C490.182587,383.784698 491.842834,382.727539 491.739258,378.184692 
	C491.462006,366.030853 491.741089,353.865601 491.624512,341.706543 
	C491.464050,324.969360 484.850311,311.531982 470.826965,302.025269 
	C470.004608,301.467773 469.131226,300.965881 468.229675,300.550964 
	C467.493317,300.212097 466.679321,300.041962 465.384033,299.634979 
	C462.595032,307.604218 458.537201,314.736023 453.309601,321.211487 
	C447.320526,328.630280 439.606476,333.673828 431.135223,337.700134 
	C428.552338,338.927734 425.979767,338.354950 423.453400,337.175293 
	C408.981812,330.417999 398.569366,319.785645 392.478271,304.969238 
	C391.792694,303.301636 390.895752,301.720978 390.092072,300.090302 
	C384.643829,300.813049 381.348175,304.874847 377.362732,307.717438 
	C371.975464,311.559937 367.209351,311.344696 363.874268,306.803375 
	C361.135712,303.074341 362.600403,297.859314 366.985352,294.111816 
	C379.971161,283.013824 395.036133,278.278046 411.976013,278.608734 
	C423.298981,278.829803 434.630707,278.557098 445.956848,278.672028 
	C464.382965,278.859039 480.450867,284.753235 492.939697,298.789703 
	C495.464142,301.626953 497.543732,304.860077 500.018250,308.232513 
M408.097443,296.571411 
	C410.663757,306.423126 417.003632,313.322571 425.395538,318.585846 
	C426.670624,319.385590 428.041046,319.885986 429.606293,318.998230 
	C438.782104,313.794006 444.425995,305.859741 448.484680,295.368439 
	C441.807587,295.368439 436.033844,295.228180 430.269714,295.403748 
	C422.998383,295.625275 415.692566,294.610138 408.097443,296.571411 
z"/>
<path fill="#000000" opacity="1.000000" stroke="none" 
	d="
M18.799809,306.929443 
	C28.289845,292.772491 40.926674,283.641235 57.247326,279.996429 
	C61.577736,279.029358 66.130096,278.767120 70.587227,278.710968 
	C83.580406,278.547272 96.577751,278.561279 109.571991,278.674286 
	C124.888092,278.807465 138.565002,283.588928 150.318893,293.559814 
	C153.601227,296.344238 154.564392,302.518524 152.197968,305.739502 
	C149.617218,309.252228 144.916931,310.064240 140.644913,307.538330 
	C136.536346,305.109131 133.112106,301.542145 127.992142,299.915253 
	C126.074867,303.757538 124.296539,307.629791 122.254097,311.357330 
	C115.820076,323.099579 106.485870,331.734772 94.271996,337.291840 
	C91.123840,338.724213 88.222862,338.533539 85.188278,337.072540 
	C70.102013,329.809143 59.719772,318.253815 53.649200,302.721710 
	C53.295830,301.817566 52.827049,300.958557 52.184425,299.596069 
	C43.195423,303.287994 37.097809,309.829712 32.248253,317.664124 
	C27.929380,324.641205 26.629166,332.578888 26.427628,340.566132 
	C26.112532,353.053619 26.515656,365.558563 26.247458,378.048248 
	C26.153120,382.441498 27.492346,383.761780 31.898373,383.736572 
	C61.386566,383.567810 90.876236,383.633911 120.365372,383.670288 
	C127.151451,383.678650 130.339432,386.418884 130.333664,391.963379 
	C130.328018,397.383972 127.302147,400.341888 121.582977,400.347229 
	C97.591805,400.369690 73.600594,400.356415 49.609402,400.355408 
	C40.779312,400.355011 31.948652,400.414246 23.119305,400.332611 
	C15.083135,400.258270 9.863373,395.509277 9.745838,387.418762 
	C9.503856,370.761841 9.308119,354.088135 9.802767,337.442444 
	C10.119861,326.771729 12.666677,316.421906 18.799809,306.929443 
M86.503433,295.362762 
	C81.109261,295.362762 75.715088,295.362762 70.325699,295.362762 
	C70.518181,301.209045 73.830292,304.679810 76.315437,308.535675 
	C84.654564,321.474365 91.445755,322.320404 101.614761,311.095245 
	C105.471703,306.837708 109.234711,302.094757 109.912735,295.363953 
	C102.104851,295.363953 94.803413,295.363953 86.503433,295.362762 
z"/>
<path fill="#000000" opacity="1.000000" stroke="none" 
	d="
M142.438782,133.461548 
	C137.941803,137.344742 134.069077,136.216583 130.076645,133.149841 
	C120.761475,125.994514 110.752075,120.703804 98.740387,119.054466 
	C83.508026,116.962898 69.830513,120.424088 56.909641,128.125198 
	C54.772331,129.399078 52.801395,130.954025 50.653896,132.208420 
	C47.011013,134.336304 42.246994,133.430267 39.905987,130.299072 
	C37.552853,127.151665 37.761456,122.167557 40.620861,119.339027 
	C47.134613,112.895645 55.141819,108.768639 63.663406,105.896492 
	C79.610611,100.521576 95.794289,100.004204 112.110397,104.604424 
	C123.009125,107.677261 132.716827,112.875137 141.282120,120.197716 
	C146.081024,124.300369 146.380096,128.026321 142.438782,133.461548 
z"/>
</svg>